G75*
%MOIN*%
%OFA0B0*%
%FSLAX24Y24*%
%IPPOS*%
%LPD*%
%AMOC8*
5,1,8,0,0,1.08239X$1,22.5*
%
%ADD10R,0.0340X0.0880*%
%ADD11R,0.0297X0.0552*%
%ADD12R,0.1182X0.0867*%
%ADD13R,0.1655X0.0356*%
%ADD14R,0.1655X0.0552*%
%ADD15C,0.0513*%
%ADD16C,0.0710*%
%ADD17R,0.1175X0.1175*%
%ADD18R,0.1640X0.1640*%
%ADD19R,0.0680X0.0380*%
%ADD20R,0.0880X0.0880*%
%ADD21C,0.0880*%
%ADD22OC8,0.0640*%
%ADD23C,0.0720*%
%ADD24R,0.0513X0.0474*%
%ADD25R,0.0316X0.0946*%
%ADD26R,0.0474X0.0513*%
%ADD27R,0.0552X0.0297*%
%ADD28C,0.0820*%
%ADD29R,0.0710X0.0631*%
%ADD30C,0.1780*%
%ADD31R,0.0631X0.0474*%
%ADD32C,0.0347*%
%ADD33R,0.0560X0.0325*%
D10*
X006875Y018765D03*
X007375Y018765D03*
X007875Y018765D03*
X008375Y018765D03*
X008875Y018765D03*
X009375Y018765D03*
X009875Y018765D03*
X010375Y018765D03*
X010375Y021185D03*
X009875Y021185D03*
X009375Y021185D03*
X008875Y021185D03*
X008375Y021185D03*
X007875Y021185D03*
X007375Y021185D03*
X006875Y021185D03*
D11*
X012126Y021338D03*
X012500Y021338D03*
X012874Y021338D03*
X012874Y022362D03*
X012126Y022362D03*
D12*
X012731Y018322D03*
X004542Y018283D03*
X012771Y008244D03*
X004542Y007299D03*
D13*
X013479Y016669D03*
X013479Y017181D03*
X013479Y017653D03*
D14*
X013479Y016039D03*
X013479Y015055D03*
X013479Y014070D03*
X013479Y013086D03*
X013479Y012102D03*
X013479Y011118D03*
X013479Y010133D03*
X013479Y009149D03*
D15*
X012298Y017417D03*
X021971Y025750D03*
X021971Y027128D03*
D16*
X012298Y009110D03*
D17*
X022000Y013000D03*
X022000Y018200D03*
D18*
X022000Y015600D03*
D19*
X022875Y028475D03*
X022875Y029975D03*
X020875Y029975D03*
X020875Y028475D03*
D20*
X017477Y029168D03*
X014721Y029168D03*
X016099Y001600D03*
X005075Y001600D03*
D21*
X006453Y001600D03*
X007831Y001600D03*
X009209Y001600D03*
X010587Y001600D03*
X011965Y001600D03*
X013343Y001600D03*
X014721Y001600D03*
X017477Y001600D03*
X018855Y001600D03*
X020232Y001600D03*
X016099Y029168D03*
X013343Y029168D03*
X011965Y029168D03*
X010587Y029168D03*
X009209Y029168D03*
X007831Y029168D03*
X006453Y029168D03*
X005075Y029168D03*
D22*
X014750Y016850D03*
X014750Y015850D03*
X014750Y014850D03*
X014750Y013850D03*
X014750Y012850D03*
X014750Y011850D03*
X018750Y011850D03*
X018750Y012850D03*
X018750Y013850D03*
X018750Y014850D03*
X018750Y015850D03*
X018750Y016850D03*
D23*
X022500Y019725D03*
X022500Y020725D03*
X022500Y021725D03*
X023500Y021725D03*
X023500Y020725D03*
X023500Y019725D03*
D24*
X015250Y019935D03*
X015250Y020515D03*
X015250Y021185D03*
X015250Y019265D03*
X018375Y007810D03*
X018375Y007140D03*
X005335Y006225D03*
X004665Y006225D03*
D25*
X016000Y018414D03*
X016500Y018414D03*
X017000Y018414D03*
X017500Y018414D03*
X018000Y018414D03*
X018500Y018414D03*
X019000Y018414D03*
X019500Y018414D03*
X019500Y022036D03*
X019000Y022036D03*
X018500Y022036D03*
X018000Y022036D03*
X017500Y022036D03*
X017000Y022036D03*
X016500Y022036D03*
X016000Y022036D03*
D26*
X013875Y022060D03*
X013875Y021390D03*
X005710Y019600D03*
X005040Y019600D03*
X007500Y006810D03*
X007500Y006140D03*
D27*
X003863Y004476D03*
X003863Y004850D03*
X003863Y005224D03*
X004887Y005224D03*
X004887Y004476D03*
D28*
X008000Y005100D03*
X009000Y005100D03*
X010000Y005100D03*
X011000Y005100D03*
X012000Y005100D03*
X013000Y005100D03*
X014000Y005100D03*
X015000Y005100D03*
X017000Y005100D03*
X018000Y005100D03*
X019000Y005100D03*
X020000Y005100D03*
X021000Y005100D03*
X022000Y005100D03*
X022000Y024100D03*
X021000Y024100D03*
X020000Y024100D03*
X019000Y024100D03*
X018000Y024100D03*
X017000Y024100D03*
X016000Y024100D03*
X015000Y024100D03*
X013500Y024100D03*
X012500Y024100D03*
X011500Y024100D03*
X010500Y024100D03*
X009500Y024100D03*
X008500Y024100D03*
X007500Y024100D03*
X006500Y024100D03*
X005500Y024100D03*
X004500Y024100D03*
X004000Y021225D03*
X005000Y021225D03*
D29*
X019845Y025553D03*
X019845Y027324D03*
X023310Y027324D03*
X023310Y025553D03*
D30*
X020242Y010650D03*
X019061Y008800D03*
X021424Y008800D03*
D31*
X018308Y010226D03*
X018308Y010974D03*
X017442Y010600D03*
X016692Y009849D03*
X016692Y009101D03*
X017558Y009475D03*
D32*
X006833Y006869D02*
X006667Y006869D01*
X006833Y006869D02*
X006833Y006781D01*
X006667Y006781D01*
X006667Y006869D01*
X006667Y006169D02*
X006833Y006169D01*
X006833Y006081D01*
X006667Y006081D01*
X006667Y006169D01*
D33*
X016109Y007476D03*
X016109Y007850D03*
X016109Y008224D03*
X017141Y008224D03*
X017141Y007850D03*
X017141Y007476D03*
M02*
