G75*
%MOIN*%
%OFA0B0*%
%FSLAX25Y25*%
%IPPOS*%
%LPD*%
%AMOC8*
5,1,8,0,0,1.08239X$1,22.5*
%
%ADD10C,0.00600*%
%ADD11C,0.00000*%
D10*
X0031289Y0017711D02*
X0031289Y0303989D01*
X0031290Y0303989D02*
X0031293Y0304266D01*
X0031303Y0304543D01*
X0031320Y0304819D01*
X0031344Y0305095D01*
X0031374Y0305371D01*
X0031410Y0305645D01*
X0031454Y0305919D01*
X0031504Y0306191D01*
X0031560Y0306462D01*
X0031623Y0306732D01*
X0031693Y0307000D01*
X0031769Y0307267D01*
X0031851Y0307531D01*
X0031940Y0307793D01*
X0032035Y0308053D01*
X0032136Y0308311D01*
X0032244Y0308567D01*
X0032357Y0308819D01*
X0032477Y0309069D01*
X0032603Y0309316D01*
X0032735Y0309559D01*
X0032872Y0309800D01*
X0033015Y0310037D01*
X0033164Y0310270D01*
X0033319Y0310500D01*
X0033479Y0310726D01*
X0033645Y0310948D01*
X0033815Y0311166D01*
X0033991Y0311380D01*
X0034173Y0311590D01*
X0034359Y0311795D01*
X0034550Y0311995D01*
X0034746Y0312191D01*
X0034946Y0312382D01*
X0035151Y0312568D01*
X0035361Y0312750D01*
X0035575Y0312926D01*
X0035793Y0313096D01*
X0036015Y0313262D01*
X0036241Y0313422D01*
X0036471Y0313577D01*
X0036704Y0313726D01*
X0036941Y0313869D01*
X0037182Y0314006D01*
X0037425Y0314138D01*
X0037672Y0314264D01*
X0037922Y0314384D01*
X0038174Y0314497D01*
X0038430Y0314605D01*
X0038688Y0314706D01*
X0038948Y0314801D01*
X0039210Y0314890D01*
X0039474Y0314972D01*
X0039741Y0315048D01*
X0040009Y0315118D01*
X0040279Y0315181D01*
X0040550Y0315237D01*
X0040822Y0315287D01*
X0041096Y0315331D01*
X0041370Y0315367D01*
X0041646Y0315397D01*
X0041922Y0315421D01*
X0042198Y0315438D01*
X0042475Y0315448D01*
X0042752Y0315451D01*
X0226459Y0315451D01*
X0226816Y0315447D01*
X0227174Y0315434D01*
X0227530Y0315412D01*
X0227887Y0315382D01*
X0228242Y0315343D01*
X0228596Y0315296D01*
X0228949Y0315240D01*
X0229301Y0315175D01*
X0229651Y0315103D01*
X0229999Y0315021D01*
X0230345Y0314931D01*
X0230688Y0314833D01*
X0231030Y0314727D01*
X0231368Y0314613D01*
X0231704Y0314490D01*
X0232037Y0314359D01*
X0232366Y0314220D01*
X0232692Y0314074D01*
X0233014Y0313919D01*
X0233333Y0313757D01*
X0233647Y0313587D01*
X0233957Y0313409D01*
X0234263Y0313224D01*
X0234565Y0313032D01*
X0234861Y0312833D01*
X0235153Y0312626D01*
X0235440Y0312413D01*
X0235721Y0312192D01*
X0235997Y0311965D01*
X0236267Y0311731D01*
X0236532Y0311491D01*
X0236791Y0311244D01*
X0237043Y0310992D01*
X0237290Y0310733D01*
X0237530Y0310468D01*
X0237764Y0310198D01*
X0237991Y0309922D01*
X0238212Y0309641D01*
X0238425Y0309354D01*
X0238632Y0309062D01*
X0238831Y0308766D01*
X0239023Y0308464D01*
X0239208Y0308158D01*
X0239386Y0307848D01*
X0239556Y0307534D01*
X0239718Y0307215D01*
X0239873Y0306893D01*
X0240019Y0306567D01*
X0240158Y0306238D01*
X0240289Y0305905D01*
X0240412Y0305569D01*
X0240526Y0305231D01*
X0240632Y0304889D01*
X0240730Y0304546D01*
X0240820Y0304200D01*
X0240902Y0303852D01*
X0240974Y0303502D01*
X0241039Y0303150D01*
X0241095Y0302797D01*
X0241142Y0302443D01*
X0241181Y0302088D01*
X0241211Y0301731D01*
X0241233Y0301375D01*
X0241246Y0301017D01*
X0241250Y0300660D01*
X0241250Y0020752D01*
X0241246Y0020408D01*
X0241233Y0020063D01*
X0241213Y0019720D01*
X0241183Y0019376D01*
X0241146Y0019034D01*
X0241100Y0018693D01*
X0241047Y0018353D01*
X0240984Y0018014D01*
X0240914Y0017677D01*
X0240836Y0017341D01*
X0240749Y0017008D01*
X0240655Y0016677D01*
X0240552Y0016348D01*
X0240442Y0016022D01*
X0240324Y0015698D01*
X0240198Y0015378D01*
X0240064Y0015060D01*
X0239923Y0014746D01*
X0239774Y0014436D01*
X0239618Y0014129D01*
X0239454Y0013826D01*
X0239283Y0013527D01*
X0239105Y0013232D01*
X0238919Y0012942D01*
X0238727Y0012656D01*
X0238528Y0012375D01*
X0238322Y0012099D01*
X0238110Y0011828D01*
X0237891Y0011562D01*
X0237666Y0011301D01*
X0237434Y0011046D01*
X0237197Y0010797D01*
X0236953Y0010553D01*
X0236704Y0010316D01*
X0236449Y0010084D01*
X0236188Y0009859D01*
X0235922Y0009640D01*
X0235651Y0009428D01*
X0235375Y0009222D01*
X0235094Y0009023D01*
X0234808Y0008831D01*
X0234518Y0008645D01*
X0234223Y0008467D01*
X0233924Y0008296D01*
X0233621Y0008132D01*
X0233314Y0007976D01*
X0233004Y0007827D01*
X0232690Y0007686D01*
X0232372Y0007552D01*
X0232052Y0007426D01*
X0231728Y0007308D01*
X0231402Y0007198D01*
X0231073Y0007095D01*
X0230742Y0007001D01*
X0230409Y0006914D01*
X0230073Y0006836D01*
X0229736Y0006766D01*
X0229397Y0006703D01*
X0229057Y0006650D01*
X0228716Y0006604D01*
X0228374Y0006567D01*
X0228030Y0006537D01*
X0227687Y0006517D01*
X0227342Y0006504D01*
X0226998Y0006500D01*
X0042500Y0006500D01*
X0042225Y0006503D01*
X0041950Y0006514D01*
X0041675Y0006530D01*
X0041401Y0006554D01*
X0041128Y0006584D01*
X0040855Y0006621D01*
X0040583Y0006665D01*
X0040313Y0006715D01*
X0040044Y0006772D01*
X0039776Y0006836D01*
X0039510Y0006906D01*
X0039246Y0006983D01*
X0038983Y0007066D01*
X0038723Y0007155D01*
X0038465Y0007251D01*
X0038210Y0007353D01*
X0037957Y0007462D01*
X0037707Y0007576D01*
X0037459Y0007697D01*
X0037215Y0007824D01*
X0036974Y0007956D01*
X0036736Y0008095D01*
X0036502Y0008239D01*
X0036272Y0008389D01*
X0036045Y0008545D01*
X0035822Y0008706D01*
X0035603Y0008873D01*
X0035388Y0009045D01*
X0035177Y0009222D01*
X0034971Y0009404D01*
X0034770Y0009591D01*
X0034573Y0009784D01*
X0034380Y0009981D01*
X0034193Y0010182D01*
X0034011Y0010388D01*
X0033834Y0010599D01*
X0033662Y0010814D01*
X0033495Y0011033D01*
X0033334Y0011256D01*
X0033178Y0011483D01*
X0033028Y0011713D01*
X0032884Y0011947D01*
X0032745Y0012185D01*
X0032613Y0012426D01*
X0032486Y0012670D01*
X0032365Y0012918D01*
X0032251Y0013168D01*
X0032142Y0013421D01*
X0032040Y0013676D01*
X0031944Y0013934D01*
X0031855Y0014194D01*
X0031772Y0014457D01*
X0031695Y0014721D01*
X0031625Y0014987D01*
X0031561Y0015255D01*
X0031504Y0015524D01*
X0031454Y0015794D01*
X0031410Y0016066D01*
X0031373Y0016339D01*
X0031343Y0016612D01*
X0031319Y0016886D01*
X0031303Y0017161D01*
X0031292Y0017436D01*
X0031289Y0017711D01*
D11*
X0147353Y0095331D02*
X0147355Y0095424D01*
X0147361Y0095516D01*
X0147371Y0095608D01*
X0147385Y0095699D01*
X0147402Y0095790D01*
X0147424Y0095880D01*
X0147449Y0095969D01*
X0147478Y0096057D01*
X0147511Y0096143D01*
X0147548Y0096228D01*
X0147588Y0096312D01*
X0147632Y0096393D01*
X0147679Y0096473D01*
X0147729Y0096551D01*
X0147783Y0096626D01*
X0147840Y0096699D01*
X0147900Y0096769D01*
X0147963Y0096837D01*
X0148029Y0096902D01*
X0148097Y0096964D01*
X0148168Y0097024D01*
X0148242Y0097080D01*
X0148318Y0097133D01*
X0148396Y0097182D01*
X0148476Y0097229D01*
X0148558Y0097271D01*
X0148642Y0097311D01*
X0148727Y0097346D01*
X0148814Y0097378D01*
X0148902Y0097407D01*
X0148991Y0097431D01*
X0149081Y0097452D01*
X0149172Y0097468D01*
X0149264Y0097481D01*
X0149356Y0097490D01*
X0149449Y0097495D01*
X0149541Y0097496D01*
X0149634Y0097493D01*
X0149726Y0097486D01*
X0149818Y0097475D01*
X0149909Y0097460D01*
X0150000Y0097442D01*
X0150090Y0097419D01*
X0150178Y0097393D01*
X0150266Y0097363D01*
X0150352Y0097329D01*
X0150436Y0097292D01*
X0150519Y0097250D01*
X0150600Y0097206D01*
X0150680Y0097158D01*
X0150757Y0097107D01*
X0150831Y0097052D01*
X0150904Y0096994D01*
X0150974Y0096934D01*
X0151041Y0096870D01*
X0151105Y0096804D01*
X0151167Y0096734D01*
X0151225Y0096663D01*
X0151280Y0096589D01*
X0151332Y0096512D01*
X0151381Y0096433D01*
X0151427Y0096353D01*
X0151469Y0096270D01*
X0151507Y0096186D01*
X0151542Y0096100D01*
X0151573Y0096013D01*
X0151600Y0095925D01*
X0151623Y0095835D01*
X0151643Y0095745D01*
X0151659Y0095654D01*
X0151671Y0095562D01*
X0151679Y0095470D01*
X0151683Y0095377D01*
X0151683Y0095285D01*
X0151679Y0095192D01*
X0151671Y0095100D01*
X0151659Y0095008D01*
X0151643Y0094917D01*
X0151623Y0094827D01*
X0151600Y0094737D01*
X0151573Y0094649D01*
X0151542Y0094562D01*
X0151507Y0094476D01*
X0151469Y0094392D01*
X0151427Y0094309D01*
X0151381Y0094229D01*
X0151332Y0094150D01*
X0151280Y0094073D01*
X0151225Y0093999D01*
X0151167Y0093928D01*
X0151105Y0093858D01*
X0151041Y0093792D01*
X0150974Y0093728D01*
X0150904Y0093668D01*
X0150831Y0093610D01*
X0150757Y0093555D01*
X0150680Y0093504D01*
X0150601Y0093456D01*
X0150519Y0093412D01*
X0150436Y0093370D01*
X0150352Y0093333D01*
X0150266Y0093299D01*
X0150178Y0093269D01*
X0150090Y0093243D01*
X0150000Y0093220D01*
X0149909Y0093202D01*
X0149818Y0093187D01*
X0149726Y0093176D01*
X0149634Y0093169D01*
X0149541Y0093166D01*
X0149449Y0093167D01*
X0149356Y0093172D01*
X0149264Y0093181D01*
X0149172Y0093194D01*
X0149081Y0093210D01*
X0148991Y0093231D01*
X0148902Y0093255D01*
X0148814Y0093284D01*
X0148727Y0093316D01*
X0148642Y0093351D01*
X0148558Y0093391D01*
X0148476Y0093433D01*
X0148396Y0093480D01*
X0148318Y0093529D01*
X0148242Y0093582D01*
X0148168Y0093638D01*
X0148097Y0093698D01*
X0148029Y0093760D01*
X0147963Y0093825D01*
X0147900Y0093893D01*
X0147840Y0093963D01*
X0147783Y0094036D01*
X0147729Y0094111D01*
X0147679Y0094189D01*
X0147632Y0094269D01*
X0147588Y0094350D01*
X0147548Y0094434D01*
X0147511Y0094519D01*
X0147478Y0094605D01*
X0147449Y0094693D01*
X0147424Y0094782D01*
X0147402Y0094872D01*
X0147385Y0094963D01*
X0147371Y0095054D01*
X0147361Y0095146D01*
X0147355Y0095238D01*
X0147353Y0095331D01*
X0146368Y0178402D02*
X0146370Y0178514D01*
X0146376Y0178625D01*
X0146386Y0178737D01*
X0146400Y0178848D01*
X0146417Y0178958D01*
X0146439Y0179068D01*
X0146465Y0179177D01*
X0146494Y0179285D01*
X0146527Y0179391D01*
X0146564Y0179497D01*
X0146605Y0179601D01*
X0146650Y0179704D01*
X0146698Y0179805D01*
X0146749Y0179904D01*
X0146804Y0180001D01*
X0146863Y0180096D01*
X0146924Y0180190D01*
X0146989Y0180281D01*
X0147058Y0180369D01*
X0147129Y0180455D01*
X0147203Y0180539D01*
X0147281Y0180619D01*
X0147361Y0180697D01*
X0147444Y0180773D01*
X0147529Y0180845D01*
X0147617Y0180914D01*
X0147707Y0180980D01*
X0147800Y0181042D01*
X0147895Y0181102D01*
X0147992Y0181158D01*
X0148090Y0181210D01*
X0148191Y0181259D01*
X0148293Y0181304D01*
X0148397Y0181346D01*
X0148502Y0181384D01*
X0148609Y0181418D01*
X0148716Y0181448D01*
X0148825Y0181475D01*
X0148934Y0181497D01*
X0149045Y0181516D01*
X0149155Y0181531D01*
X0149267Y0181542D01*
X0149378Y0181549D01*
X0149490Y0181552D01*
X0149602Y0181551D01*
X0149714Y0181546D01*
X0149825Y0181537D01*
X0149936Y0181524D01*
X0150047Y0181507D01*
X0150157Y0181487D01*
X0150266Y0181462D01*
X0150374Y0181434D01*
X0150481Y0181401D01*
X0150587Y0181365D01*
X0150691Y0181325D01*
X0150794Y0181282D01*
X0150896Y0181235D01*
X0150995Y0181184D01*
X0151093Y0181130D01*
X0151189Y0181072D01*
X0151283Y0181011D01*
X0151374Y0180947D01*
X0151463Y0180880D01*
X0151550Y0180809D01*
X0151634Y0180735D01*
X0151716Y0180659D01*
X0151794Y0180579D01*
X0151870Y0180497D01*
X0151943Y0180412D01*
X0152013Y0180325D01*
X0152079Y0180235D01*
X0152143Y0180143D01*
X0152203Y0180049D01*
X0152260Y0179953D01*
X0152313Y0179854D01*
X0152363Y0179754D01*
X0152409Y0179653D01*
X0152452Y0179549D01*
X0152491Y0179444D01*
X0152526Y0179338D01*
X0152557Y0179231D01*
X0152585Y0179122D01*
X0152608Y0179013D01*
X0152628Y0178903D01*
X0152644Y0178792D01*
X0152656Y0178681D01*
X0152664Y0178570D01*
X0152668Y0178458D01*
X0152668Y0178346D01*
X0152664Y0178234D01*
X0152656Y0178123D01*
X0152644Y0178012D01*
X0152628Y0177901D01*
X0152608Y0177791D01*
X0152585Y0177682D01*
X0152557Y0177573D01*
X0152526Y0177466D01*
X0152491Y0177360D01*
X0152452Y0177255D01*
X0152409Y0177151D01*
X0152363Y0177050D01*
X0152313Y0176950D01*
X0152260Y0176851D01*
X0152203Y0176755D01*
X0152143Y0176661D01*
X0152079Y0176569D01*
X0152013Y0176479D01*
X0151943Y0176392D01*
X0151870Y0176307D01*
X0151794Y0176225D01*
X0151716Y0176145D01*
X0151634Y0176069D01*
X0151550Y0175995D01*
X0151463Y0175924D01*
X0151374Y0175857D01*
X0151283Y0175793D01*
X0151189Y0175732D01*
X0151093Y0175674D01*
X0150995Y0175620D01*
X0150896Y0175569D01*
X0150794Y0175522D01*
X0150691Y0175479D01*
X0150587Y0175439D01*
X0150481Y0175403D01*
X0150374Y0175370D01*
X0150266Y0175342D01*
X0150157Y0175317D01*
X0150047Y0175297D01*
X0149936Y0175280D01*
X0149825Y0175267D01*
X0149714Y0175258D01*
X0149602Y0175253D01*
X0149490Y0175252D01*
X0149378Y0175255D01*
X0149267Y0175262D01*
X0149155Y0175273D01*
X0149045Y0175288D01*
X0148934Y0175307D01*
X0148825Y0175329D01*
X0148716Y0175356D01*
X0148609Y0175386D01*
X0148502Y0175420D01*
X0148397Y0175458D01*
X0148293Y0175500D01*
X0148191Y0175545D01*
X0148090Y0175594D01*
X0147992Y0175646D01*
X0147895Y0175702D01*
X0147800Y0175762D01*
X0147707Y0175824D01*
X0147617Y0175890D01*
X0147529Y0175959D01*
X0147444Y0176031D01*
X0147361Y0176107D01*
X0147281Y0176185D01*
X0147203Y0176265D01*
X0147129Y0176349D01*
X0147058Y0176435D01*
X0146989Y0176523D01*
X0146924Y0176614D01*
X0146863Y0176708D01*
X0146804Y0176803D01*
X0146749Y0176900D01*
X0146698Y0176999D01*
X0146650Y0177100D01*
X0146605Y0177203D01*
X0146564Y0177307D01*
X0146527Y0177413D01*
X0146494Y0177519D01*
X0146465Y0177627D01*
X0146439Y0177736D01*
X0146417Y0177846D01*
X0146400Y0177956D01*
X0146386Y0178067D01*
X0146376Y0178179D01*
X0146370Y0178290D01*
X0146368Y0178402D01*
M02*
