G75*
%MOIN*%
%OFA0B0*%
%FSLAX25Y25*%
%IPPOS*%
%LPD*%
%AMOC8*
5,1,8,0,0,1.08239X$1,22.5*
%
%ADD10R,0.02600X0.08000*%
%ADD11R,0.11024X0.07874*%
%ADD12R,0.15748X0.02756*%
%ADD13R,0.15748X0.04724*%
%ADD14R,0.04724X0.05512*%
%ADD15R,0.03937X0.04331*%
%ADD16R,0.04331X0.03937*%
%ADD17R,0.03937X0.05512*%
%ADD18R,0.05512X0.06299*%
%ADD19R,0.02100X0.07800*%
%ADD20R,0.01969X0.02559*%
%ADD21R,0.04331X0.01600*%
%ADD22R,0.20000X0.10000*%
%ADD23C,0.40000*%
D10*
X0147750Y0205900D03*
X0152750Y0205900D03*
X0157750Y0205900D03*
X0162750Y0205900D03*
X0167750Y0205900D03*
X0172750Y0205900D03*
X0177750Y0205900D03*
X0182750Y0205900D03*
X0182750Y0230100D03*
X0177750Y0230100D03*
X0172750Y0230100D03*
X0167750Y0230100D03*
X0162750Y0230100D03*
X0157750Y0230100D03*
X0152750Y0230100D03*
X0147750Y0230100D03*
D11*
X0144793Y0187063D03*
X0145187Y0086276D03*
X0227077Y0086669D03*
X0227077Y0196512D03*
D12*
X0137707Y0102811D03*
X0137707Y0097693D03*
X0137707Y0092969D03*
D13*
X0137707Y0109110D03*
X0137707Y0118953D03*
X0137707Y0128795D03*
X0137707Y0138638D03*
X0137707Y0148480D03*
X0137707Y0158323D03*
X0137707Y0168165D03*
X0137707Y0178008D03*
D14*
X0208844Y0227000D03*
X0220656Y0227000D03*
D15*
X0200096Y0227000D03*
X0193404Y0227000D03*
D16*
X0123596Y0211000D03*
X0116904Y0211000D03*
D17*
X0204510Y0210831D03*
X0211990Y0210831D03*
X0208250Y0202169D03*
D18*
X0121262Y0223000D03*
X0110238Y0223000D03*
D19*
X0104750Y0208700D03*
X0099750Y0208700D03*
X0094750Y0208700D03*
X0089750Y0208700D03*
X0089750Y0189300D03*
X0094750Y0189300D03*
X0099750Y0189300D03*
X0104750Y0189300D03*
D20*
X0092974Y0218039D03*
X0089825Y0218039D03*
X0086675Y0218039D03*
X0083526Y0218039D03*
X0083526Y0222961D03*
X0086675Y0222961D03*
X0089825Y0222961D03*
X0092974Y0222961D03*
D21*
X0069100Y0120776D03*
X0069100Y0123925D03*
X0069100Y0127075D03*
X0069100Y0130224D03*
X0075400Y0130224D03*
X0075400Y0127075D03*
X0075400Y0123925D03*
X0075400Y0120776D03*
D22*
X0055250Y0156500D03*
X0055250Y0216500D03*
D23*
X0055250Y0186500D03*
M02*
