%
M48
M72
T01C0.0120
T02C0.0320
T03C0.0400
T04C0.0433
T05C0.0472
T06C0.0630
%
T01
X7225Y11050
X12405Y19370
X11525Y20650
X11025Y21250
X10225Y22350
X9725Y21550
X13125Y22150
X14565Y23930
X14925Y22150
X16805Y23690
X18145Y23870
X16525Y18650
X13925Y19650
T02
X9225Y14050
X9225Y13050
X9225Y12050
X9225Y11050
X5225Y11050
X5225Y12050
X5225Y13050
X5225Y14050
T03
X8000Y6050
X9000Y6050
X10000Y6050
X11000Y6050
X12000Y6050
X13000Y6050
X14000Y6050
X15000Y6050
X17000Y6050
X18000Y6050
X19000Y6050
X20000Y6050
X21000Y6050
X22000Y6050
X21735Y4930
X23515Y4930
X23515Y2370
X21735Y2370
X22000Y25050
X21000Y25050
X20000Y25050
X19000Y25050
X18000Y25050
X17000Y25050
X16000Y25050
X15000Y25050
X13500Y25050
X12500Y25050
X11500Y25050
X10500Y25050
X9500Y25050
X8500Y25050
X7500Y25050
X6500Y25050
X5500Y25050
X4500Y25050
X21735Y27370
X23515Y27370
X23515Y29930
X21735Y29930
T04
X14952Y9533
T05
X5125Y2150
X6503Y2150
X7881Y2150
X9259Y2150
X10637Y2150
X12015Y2150
X13393Y2150
X14771Y2150
X16149Y2150
X17527Y2150
X18905Y2150
X20282Y2150
X4625Y6372
X4625Y7750
X5125Y30050
X6503Y30050
X7881Y30050
X9259Y30050
X10637Y30050
X12015Y30050
X13393Y30050
X14771Y30050
X16149Y30050
X17527Y30050
X18905Y30050
X20282Y30050
T06
X14952Y17840
M30
