G75*
%MOIN*%
%OFA0B0*%
%FSLAX25Y25*%
%IPPOS*%
%LPD*%
%AMOC8*
5,1,8,0,0,1.08239X$1,22.5*
%
%ADD10C,0.07400*%
%ADD11R,0.02600X0.08000*%
%ADD12R,0.11024X0.07874*%
%ADD13R,0.15748X0.02756*%
%ADD14R,0.15748X0.04724*%
%ADD15OC8,0.04800*%
%ADD16R,0.04724X0.05512*%
%ADD17R,0.03937X0.04331*%
%ADD18R,0.04331X0.03937*%
%ADD19R,0.03937X0.05512*%
%ADD20R,0.05512X0.06299*%
%ADD21R,0.02100X0.07800*%
%ADD22R,0.08000X0.08000*%
%ADD23C,0.08000*%
%ADD24R,0.01969X0.02559*%
%ADD25R,0.04331X0.01600*%
%ADD26R,0.20000X0.10000*%
%ADD27C,0.40000*%
%ADD28C,0.01000*%
%ADD29OC8,0.02600*%
%ADD30C,0.00800*%
%ADD31C,0.02000*%
%ADD32C,0.02600*%
D10*
X0080000Y0060500D03*
X0090000Y0060500D03*
X0100000Y0060500D03*
X0110000Y0060500D03*
X0120000Y0060500D03*
X0130000Y0060500D03*
X0140000Y0060500D03*
X0150000Y0060500D03*
X0170000Y0060500D03*
X0180000Y0060500D03*
X0190000Y0060500D03*
X0200000Y0060500D03*
X0210000Y0060500D03*
X0220000Y0060500D03*
X0217350Y0049300D03*
X0235150Y0049300D03*
X0235150Y0023700D03*
X0217350Y0023700D03*
X0220000Y0250500D03*
X0210000Y0250500D03*
X0200000Y0250500D03*
X0190000Y0250500D03*
X0180000Y0250500D03*
X0170000Y0250500D03*
X0160000Y0250500D03*
X0150000Y0250500D03*
X0135000Y0250500D03*
X0125000Y0250500D03*
X0115000Y0250500D03*
X0105000Y0250500D03*
X0095000Y0250500D03*
X0085000Y0250500D03*
X0075000Y0250500D03*
X0065000Y0250500D03*
X0055000Y0250500D03*
X0045000Y0250500D03*
X0217350Y0273700D03*
X0235150Y0273700D03*
X0235150Y0299300D03*
X0217350Y0299300D03*
D11*
X0182750Y0230100D03*
X0177750Y0230100D03*
X0172750Y0230100D03*
X0167750Y0230100D03*
X0162750Y0230100D03*
X0157750Y0230100D03*
X0152750Y0230100D03*
X0147750Y0230100D03*
X0147750Y0205900D03*
X0152750Y0205900D03*
X0157750Y0205900D03*
X0162750Y0205900D03*
X0167750Y0205900D03*
X0172750Y0205900D03*
X0177750Y0205900D03*
X0182750Y0205900D03*
D12*
X0144793Y0187063D03*
X0145187Y0086276D03*
X0227077Y0086669D03*
X0227077Y0196512D03*
D13*
X0137707Y0102811D03*
X0137707Y0097693D03*
X0137707Y0092969D03*
D14*
X0137707Y0109110D03*
X0137707Y0118953D03*
X0137707Y0128795D03*
X0137707Y0138638D03*
X0137707Y0148480D03*
X0137707Y0158323D03*
X0137707Y0168165D03*
X0137707Y0178008D03*
D15*
X0092250Y0140500D03*
X0092250Y0130500D03*
X0092250Y0120500D03*
X0092250Y0110500D03*
X0052250Y0110500D03*
X0052250Y0120500D03*
X0052250Y0130500D03*
X0052250Y0140500D03*
D16*
X0208844Y0227000D03*
X0220656Y0227000D03*
D17*
X0200096Y0227000D03*
X0193404Y0227000D03*
D18*
X0123596Y0211000D03*
X0116904Y0211000D03*
D19*
X0204510Y0210831D03*
X0211990Y0210831D03*
X0208250Y0202169D03*
D20*
X0121262Y0223000D03*
X0110238Y0223000D03*
D21*
X0104750Y0208700D03*
X0099750Y0208700D03*
X0094750Y0208700D03*
X0089750Y0208700D03*
X0089750Y0189300D03*
X0094750Y0189300D03*
X0099750Y0189300D03*
X0104750Y0189300D03*
D22*
X0051250Y0300500D03*
X0161486Y0300500D03*
X0046250Y0077500D03*
X0051250Y0021500D03*
X0161486Y0021500D03*
D23*
X0175266Y0021500D03*
X0189045Y0021500D03*
X0202825Y0021500D03*
X0147707Y0021500D03*
X0133927Y0021500D03*
X0120148Y0021500D03*
X0106368Y0021500D03*
X0092589Y0021500D03*
X0078809Y0021500D03*
X0065030Y0021500D03*
X0046250Y0063720D03*
X0065030Y0300500D03*
X0078809Y0300500D03*
X0092589Y0300500D03*
X0106368Y0300500D03*
X0120148Y0300500D03*
X0133927Y0300500D03*
X0147707Y0300500D03*
X0175266Y0300500D03*
X0189045Y0300500D03*
X0202825Y0300500D03*
D24*
X0092974Y0222961D03*
X0089825Y0222961D03*
X0086675Y0222961D03*
X0083526Y0222961D03*
X0083526Y0218039D03*
X0086675Y0218039D03*
X0089825Y0218039D03*
X0092974Y0218039D03*
D25*
X0075400Y0130224D03*
X0075400Y0127075D03*
X0075400Y0123925D03*
X0075400Y0120776D03*
X0069100Y0120776D03*
X0069100Y0123925D03*
X0069100Y0127075D03*
X0069100Y0130224D03*
D26*
X0055250Y0156500D03*
X0055250Y0216500D03*
D27*
X0055250Y0186500D03*
D28*
X0033699Y0016317D02*
X0034561Y0013665D01*
X0036199Y0011410D01*
X0038455Y0009771D01*
X0041106Y0008910D01*
X0042500Y0008800D01*
X0226998Y0008800D01*
X0228558Y0008902D01*
X0231572Y0009710D01*
X0234274Y0011270D01*
X0236480Y0013476D01*
X0238040Y0016178D01*
X0238848Y0019192D01*
X0238947Y0020709D01*
X0237869Y0019631D01*
X0236105Y0018900D01*
X0234195Y0018900D01*
X0232431Y0019631D01*
X0231081Y0020981D01*
X0230350Y0022745D01*
X0230350Y0024655D01*
X0231081Y0026419D01*
X0231345Y0026683D01*
X0228750Y0029279D01*
X0228750Y0052721D01*
X0229629Y0053600D01*
X0234550Y0058521D01*
X0234550Y0060279D01*
X0230629Y0064200D01*
X0223088Y0064200D01*
X0224069Y0063219D01*
X0224800Y0061455D01*
X0224800Y0059545D01*
X0224069Y0057781D01*
X0222719Y0056431D01*
X0220955Y0055700D01*
X0219045Y0055700D01*
X0217281Y0056431D01*
X0215931Y0057781D01*
X0215200Y0059545D01*
X0215200Y0061455D01*
X0215931Y0063219D01*
X0216912Y0064200D01*
X0213088Y0064200D01*
X0214069Y0063219D01*
X0214800Y0061455D01*
X0214800Y0059545D01*
X0214069Y0057781D01*
X0212719Y0056431D01*
X0211500Y0055926D01*
X0211500Y0041504D01*
X0193667Y0023670D01*
X0194145Y0022514D01*
X0194145Y0020486D01*
X0193369Y0018611D01*
X0191934Y0017176D01*
X0190060Y0016400D01*
X0188031Y0016400D01*
X0186156Y0017176D01*
X0184722Y0018611D01*
X0183945Y0020486D01*
X0183945Y0022514D01*
X0184722Y0024389D01*
X0186156Y0025824D01*
X0188031Y0026600D01*
X0190060Y0026600D01*
X0191682Y0025928D01*
X0208500Y0042746D01*
X0208500Y0055926D01*
X0207281Y0056431D01*
X0205931Y0057781D01*
X0205200Y0059545D01*
X0205200Y0061455D01*
X0205931Y0063219D01*
X0206912Y0064200D01*
X0203088Y0064200D01*
X0204069Y0063219D01*
X0204800Y0061455D01*
X0204800Y0059545D01*
X0204069Y0057781D01*
X0202719Y0056431D01*
X0200955Y0055700D01*
X0199045Y0055700D01*
X0197281Y0056431D01*
X0196292Y0057420D01*
X0165550Y0026679D01*
X0165471Y0026600D01*
X0165942Y0026600D01*
X0166586Y0025956D01*
X0166586Y0017044D01*
X0165942Y0016400D01*
X0157031Y0016400D01*
X0156386Y0017044D01*
X0156386Y0025800D01*
X0150619Y0025800D01*
X0152030Y0024389D01*
X0152807Y0022514D01*
X0152807Y0020486D01*
X0152030Y0018611D01*
X0150596Y0017176D01*
X0148721Y0016400D01*
X0146692Y0016400D01*
X0144818Y0017176D01*
X0143383Y0018611D01*
X0143056Y0019400D01*
X0141471Y0019400D01*
X0137550Y0015479D01*
X0136671Y0014600D01*
X0125029Y0014600D01*
X0122623Y0017005D01*
X0121162Y0016400D01*
X0119133Y0016400D01*
X0117259Y0017176D01*
X0115824Y0018611D01*
X0115138Y0020267D01*
X0115071Y0020200D01*
X0115071Y0020200D01*
X0107150Y0012279D01*
X0107150Y0012279D01*
X0106271Y0011400D01*
X0062629Y0011400D01*
X0061750Y0012279D01*
X0056350Y0017679D01*
X0056350Y0017044D01*
X0055706Y0016400D01*
X0046794Y0016400D01*
X0046150Y0017044D01*
X0046150Y0025956D01*
X0046794Y0026600D01*
X0054029Y0026600D01*
X0055350Y0027921D01*
X0055350Y0108085D01*
X0053865Y0106600D01*
X0052550Y0106600D01*
X0052550Y0110200D01*
X0051950Y0110200D01*
X0051950Y0106600D01*
X0050635Y0106600D01*
X0048350Y0108885D01*
X0048350Y0110200D01*
X0051950Y0110200D01*
X0051950Y0110800D01*
X0051950Y0114400D01*
X0050635Y0114400D01*
X0048350Y0112115D01*
X0048350Y0110800D01*
X0051950Y0110800D01*
X0052550Y0110800D01*
X0052550Y0114400D01*
X0053865Y0114400D01*
X0055350Y0112915D01*
X0055350Y0118085D01*
X0053865Y0116600D01*
X0052550Y0116600D01*
X0052550Y0120200D01*
X0051950Y0120200D01*
X0051950Y0116600D01*
X0050635Y0116600D01*
X0048350Y0118885D01*
X0048350Y0120200D01*
X0051950Y0120200D01*
X0051950Y0120800D01*
X0051950Y0124400D01*
X0050635Y0124400D01*
X0048350Y0122115D01*
X0048350Y0120800D01*
X0051950Y0120800D01*
X0052550Y0120800D01*
X0052550Y0124400D01*
X0053865Y0124400D01*
X0055350Y0122915D01*
X0055350Y0123921D01*
X0056229Y0124800D01*
X0065829Y0134400D01*
X0071871Y0134400D01*
X0072750Y0133521D01*
X0074147Y0132124D01*
X0078021Y0132124D01*
X0078145Y0132000D01*
X0081829Y0132000D01*
X0088814Y0138986D01*
X0088750Y0139050D01*
X0088750Y0141950D01*
X0090800Y0144000D01*
X0093700Y0144000D01*
X0095750Y0141950D01*
X0095750Y0139050D01*
X0093700Y0137000D01*
X0091071Y0137000D01*
X0083071Y0129000D01*
X0078665Y0129000D01*
X0078665Y0128969D01*
X0078496Y0128800D01*
X0088229Y0128800D01*
X0088750Y0129321D01*
X0088750Y0131950D01*
X0090800Y0134000D01*
X0093700Y0134000D01*
X0095750Y0131950D01*
X0095750Y0129050D01*
X0093700Y0127000D01*
X0090800Y0127000D01*
X0090736Y0127064D01*
X0089471Y0125800D01*
X0078646Y0125800D01*
X0078346Y0125500D01*
X0078665Y0125181D01*
X0078665Y0124800D01*
X0090271Y0124800D01*
X0091071Y0124000D01*
X0093700Y0124000D01*
X0095750Y0121950D01*
X0095750Y0119050D01*
X0094350Y0117650D01*
X0094350Y0116721D01*
X0097471Y0113600D01*
X0098350Y0112721D01*
X0098350Y0084279D01*
X0079500Y0065429D01*
X0079500Y0061000D01*
X0080500Y0061000D01*
X0080500Y0065686D01*
X0081218Y0065572D01*
X0081996Y0065319D01*
X0082725Y0064947D01*
X0083388Y0064466D01*
X0083966Y0063888D01*
X0084447Y0063225D01*
X0084819Y0062496D01*
X0085072Y0061718D01*
X0085186Y0061000D01*
X0080500Y0061000D01*
X0080500Y0060000D01*
X0085186Y0060000D01*
X0085072Y0059282D01*
X0084819Y0058504D01*
X0084447Y0057775D01*
X0083966Y0057112D01*
X0083388Y0056534D01*
X0082725Y0056053D01*
X0081996Y0055681D01*
X0081218Y0055428D01*
X0080500Y0055314D01*
X0080500Y0060000D01*
X0079500Y0060000D01*
X0079500Y0055314D01*
X0078782Y0055428D01*
X0078004Y0055681D01*
X0077275Y0056053D01*
X0076612Y0056534D01*
X0076034Y0057112D01*
X0075553Y0057775D01*
X0075181Y0058504D01*
X0074928Y0059282D01*
X0074814Y0060000D01*
X0079500Y0060000D01*
X0079500Y0061000D01*
X0075071Y0061000D01*
X0061550Y0047479D01*
X0061550Y0025233D01*
X0062141Y0025824D01*
X0064015Y0026600D01*
X0066044Y0026600D01*
X0067918Y0025824D01*
X0069353Y0024389D01*
X0070130Y0022514D01*
X0070130Y0022400D01*
X0072671Y0022400D01*
X0073709Y0021362D01*
X0073709Y0022514D01*
X0074485Y0024389D01*
X0075920Y0025824D01*
X0077795Y0026600D01*
X0079824Y0026600D01*
X0081383Y0025954D01*
X0087429Y0032000D01*
X0146629Y0032000D01*
X0170329Y0055700D01*
X0169045Y0055700D01*
X0167281Y0056431D01*
X0165931Y0057781D01*
X0165200Y0059545D01*
X0165200Y0060729D01*
X0158271Y0053800D01*
X0107429Y0053800D01*
X0106550Y0054679D01*
X0103758Y0057470D01*
X0102719Y0056431D01*
X0100955Y0055700D01*
X0099045Y0055700D01*
X0097281Y0056431D01*
X0095931Y0057781D01*
X0095200Y0059545D01*
X0095200Y0061129D01*
X0094800Y0060729D01*
X0094800Y0059545D01*
X0094069Y0057781D01*
X0092719Y0056431D01*
X0090955Y0055700D01*
X0089045Y0055700D01*
X0087281Y0056431D01*
X0085931Y0057781D01*
X0085200Y0059545D01*
X0085200Y0061455D01*
X0085931Y0063219D01*
X0087281Y0064569D01*
X0089045Y0065300D01*
X0090955Y0065300D01*
X0092719Y0064569D01*
X0093558Y0063730D01*
X0097029Y0067200D01*
X0117150Y0067200D01*
X0117150Y0177400D01*
X0095380Y0177400D01*
X0094380Y0178400D01*
X0093150Y0179630D01*
X0093150Y0184394D01*
X0092600Y0184944D01*
X0092600Y0188778D01*
X0092508Y0188925D01*
X0092600Y0189322D01*
X0092600Y0193656D01*
X0093244Y0194300D01*
X0096256Y0194300D01*
X0096900Y0193656D01*
X0096900Y0189822D01*
X0096904Y0189816D01*
X0097350Y0189370D01*
X0097350Y0189102D01*
X0097492Y0188875D01*
X0097350Y0188261D01*
X0097350Y0181600D01*
X0117150Y0181600D01*
X0117150Y0195370D01*
X0140150Y0218370D01*
X0140150Y0226600D01*
X0125450Y0226600D01*
X0125518Y0226347D01*
X0125518Y0223500D01*
X0121762Y0223500D01*
X0121762Y0222500D01*
X0125518Y0222500D01*
X0125518Y0219653D01*
X0125415Y0219271D01*
X0125218Y0218929D01*
X0124939Y0218650D01*
X0124597Y0218453D01*
X0124215Y0218350D01*
X0121762Y0218350D01*
X0121762Y0222500D01*
X0120762Y0222500D01*
X0120762Y0218350D01*
X0118308Y0218350D01*
X0117927Y0218453D01*
X0117585Y0218650D01*
X0117306Y0218929D01*
X0117108Y0219271D01*
X0117006Y0219653D01*
X0117006Y0222500D01*
X0120762Y0222500D01*
X0120762Y0223500D01*
X0117006Y0223500D01*
X0117006Y0226347D01*
X0117074Y0226600D01*
X0114094Y0226600D01*
X0114094Y0220977D01*
X0118350Y0216721D01*
X0118350Y0214068D01*
X0119525Y0214068D01*
X0120038Y0213555D01*
X0120231Y0213890D01*
X0120510Y0214169D01*
X0120852Y0214366D01*
X0121234Y0214468D01*
X0123112Y0214468D01*
X0123112Y0211484D01*
X0124081Y0211484D01*
X0127262Y0211484D01*
X0127262Y0213166D01*
X0127160Y0213547D01*
X0126962Y0213890D01*
X0126683Y0214169D01*
X0126341Y0214366D01*
X0125959Y0214468D01*
X0124081Y0214468D01*
X0124081Y0211484D01*
X0124081Y0210516D01*
X0127262Y0210516D01*
X0127262Y0208834D01*
X0127160Y0208453D01*
X0126962Y0208110D01*
X0126683Y0207831D01*
X0126341Y0207634D01*
X0125959Y0207531D01*
X0124081Y0207531D01*
X0124081Y0210516D01*
X0123112Y0210516D01*
X0123112Y0207531D01*
X0121234Y0207531D01*
X0120852Y0207634D01*
X0120510Y0207831D01*
X0120231Y0208110D01*
X0120038Y0208445D01*
X0119525Y0207931D01*
X0117213Y0207931D01*
X0117285Y0207859D01*
X0117650Y0206977D01*
X0117650Y0206023D01*
X0117285Y0205141D01*
X0116609Y0204465D01*
X0115727Y0204100D01*
X0114971Y0204100D01*
X0105171Y0194300D01*
X0106256Y0194300D01*
X0106900Y0193656D01*
X0106900Y0184944D01*
X0106256Y0184300D01*
X0103244Y0184300D01*
X0102600Y0184944D01*
X0102600Y0191729D01*
X0101900Y0191029D01*
X0101900Y0184944D01*
X0101256Y0184300D01*
X0098244Y0184300D01*
X0097600Y0184944D01*
X0097600Y0193656D01*
X0098244Y0194300D01*
X0100929Y0194300D01*
X0112850Y0206221D01*
X0112850Y0206977D01*
X0113215Y0207859D01*
X0113785Y0208429D01*
X0113638Y0208576D01*
X0113638Y0213424D01*
X0114283Y0214068D01*
X0115350Y0214068D01*
X0115350Y0215479D01*
X0112078Y0218750D01*
X0108022Y0218750D01*
X0103323Y0214052D01*
X0103503Y0214100D01*
X0104725Y0214100D01*
X0104725Y0208725D01*
X0104775Y0208725D01*
X0104775Y0214100D01*
X0105997Y0214100D01*
X0106379Y0213998D01*
X0106721Y0213800D01*
X0107000Y0213521D01*
X0107198Y0213179D01*
X0107300Y0212797D01*
X0107300Y0208725D01*
X0104775Y0208725D01*
X0104775Y0208675D01*
X0107300Y0208675D01*
X0107300Y0204603D01*
X0107198Y0204221D01*
X0107000Y0203879D01*
X0106721Y0203600D01*
X0106379Y0203402D01*
X0105997Y0203300D01*
X0104775Y0203300D01*
X0104775Y0208675D01*
X0104725Y0208675D01*
X0104725Y0203300D01*
X0103503Y0203300D01*
X0103121Y0203402D01*
X0102779Y0203600D01*
X0102500Y0203879D01*
X0102302Y0204221D01*
X0102200Y0204603D01*
X0102200Y0208675D01*
X0104725Y0208675D01*
X0104725Y0208725D01*
X0102200Y0208725D01*
X0102200Y0212797D01*
X0102248Y0212977D01*
X0101900Y0212629D01*
X0101900Y0204344D01*
X0101256Y0203700D01*
X0098571Y0203700D01*
X0095950Y0201079D01*
X0095071Y0200200D01*
X0078350Y0200200D01*
X0078350Y0177079D01*
X0077471Y0176200D01*
X0068671Y0167400D01*
X0067871Y0167400D01*
X0063071Y0162600D01*
X0065706Y0162600D01*
X0066350Y0161956D01*
X0066350Y0151044D01*
X0065706Y0150400D01*
X0044794Y0150400D01*
X0044150Y0151044D01*
X0044150Y0161956D01*
X0044794Y0162600D01*
X0058829Y0162600D01*
X0062467Y0166239D01*
X0061090Y0165791D01*
X0059448Y0165397D01*
X0057779Y0165133D01*
X0056095Y0165000D01*
X0055750Y0165000D01*
X0055750Y0186000D01*
X0054750Y0186000D01*
X0054750Y0165000D01*
X0054405Y0165000D01*
X0052721Y0165133D01*
X0051052Y0165397D01*
X0049410Y0165791D01*
X0047803Y0166313D01*
X0046242Y0166960D01*
X0044737Y0167727D01*
X0043296Y0168610D01*
X0041929Y0169603D01*
X0040645Y0170700D01*
X0039450Y0171895D01*
X0038353Y0173179D01*
X0037360Y0174546D01*
X0036477Y0175987D01*
X0035710Y0177492D01*
X0035150Y0178844D01*
X0035150Y0076721D01*
X0043691Y0068181D01*
X0045236Y0068820D01*
X0047264Y0068820D01*
X0049139Y0068044D01*
X0050574Y0066609D01*
X0051350Y0064735D01*
X0051350Y0062706D01*
X0050574Y0060832D01*
X0049139Y0059397D01*
X0047264Y0058620D01*
X0045236Y0058620D01*
X0043361Y0059397D01*
X0041926Y0060832D01*
X0041150Y0062706D01*
X0041150Y0064735D01*
X0041661Y0065968D01*
X0033589Y0074039D01*
X0033589Y0017711D01*
X0033699Y0016317D01*
X0033686Y0016485D02*
X0046709Y0016485D01*
X0046150Y0017484D02*
X0033607Y0017484D01*
X0033589Y0018482D02*
X0046150Y0018482D01*
X0046150Y0019481D02*
X0033589Y0019481D01*
X0033589Y0020479D02*
X0046150Y0020479D01*
X0046150Y0021478D02*
X0033589Y0021478D01*
X0033589Y0022476D02*
X0046150Y0022476D01*
X0046150Y0023475D02*
X0033589Y0023475D01*
X0033589Y0024473D02*
X0046150Y0024473D01*
X0046150Y0025472D02*
X0033589Y0025472D01*
X0033589Y0026470D02*
X0046665Y0026470D01*
X0054897Y0027469D02*
X0033589Y0027469D01*
X0033589Y0028467D02*
X0055350Y0028467D01*
X0055350Y0029466D02*
X0033589Y0029466D01*
X0033589Y0030464D02*
X0055350Y0030464D01*
X0055350Y0031463D02*
X0033589Y0031463D01*
X0033589Y0032461D02*
X0055350Y0032461D01*
X0055350Y0033460D02*
X0033589Y0033460D01*
X0033589Y0034458D02*
X0055350Y0034458D01*
X0055350Y0035457D02*
X0033589Y0035457D01*
X0033589Y0036455D02*
X0055350Y0036455D01*
X0055350Y0037454D02*
X0033589Y0037454D01*
X0033589Y0038452D02*
X0055350Y0038452D01*
X0055350Y0039451D02*
X0033589Y0039451D01*
X0033589Y0040449D02*
X0055350Y0040449D01*
X0055350Y0041448D02*
X0033589Y0041448D01*
X0033589Y0042446D02*
X0055350Y0042446D01*
X0055350Y0043445D02*
X0033589Y0043445D01*
X0033589Y0044443D02*
X0055350Y0044443D01*
X0055350Y0045442D02*
X0033589Y0045442D01*
X0033589Y0046440D02*
X0055350Y0046440D01*
X0055350Y0047439D02*
X0033589Y0047439D01*
X0033589Y0048437D02*
X0055350Y0048437D01*
X0055350Y0049436D02*
X0033589Y0049436D01*
X0033589Y0050434D02*
X0055350Y0050434D01*
X0055350Y0051433D02*
X0033589Y0051433D01*
X0033589Y0052432D02*
X0055350Y0052432D01*
X0055350Y0053430D02*
X0033589Y0053430D01*
X0033589Y0054429D02*
X0055350Y0054429D01*
X0055350Y0055427D02*
X0033589Y0055427D01*
X0033589Y0056426D02*
X0055350Y0056426D01*
X0055350Y0057424D02*
X0033589Y0057424D01*
X0033589Y0058423D02*
X0055350Y0058423D01*
X0055350Y0059421D02*
X0049163Y0059421D01*
X0050162Y0060420D02*
X0055350Y0060420D01*
X0055350Y0061418D02*
X0050817Y0061418D01*
X0051230Y0062417D02*
X0055350Y0062417D01*
X0055350Y0063415D02*
X0051350Y0063415D01*
X0051350Y0064414D02*
X0055350Y0064414D01*
X0055350Y0065412D02*
X0051069Y0065412D01*
X0050656Y0066411D02*
X0055350Y0066411D01*
X0055350Y0067409D02*
X0049774Y0067409D01*
X0048261Y0068408D02*
X0055350Y0068408D01*
X0055350Y0069406D02*
X0042465Y0069406D01*
X0043464Y0068408D02*
X0044239Y0068408D01*
X0041467Y0070405D02*
X0055350Y0070405D01*
X0055350Y0071403D02*
X0040468Y0071403D01*
X0039470Y0072402D02*
X0041793Y0072402D01*
X0041794Y0072400D02*
X0041150Y0073044D01*
X0041150Y0081956D01*
X0041794Y0082600D01*
X0050706Y0082600D01*
X0051350Y0081956D01*
X0051350Y0073044D01*
X0050706Y0072400D01*
X0041794Y0072400D01*
X0041150Y0073400D02*
X0038471Y0073400D01*
X0037473Y0074399D02*
X0041150Y0074399D01*
X0041150Y0075397D02*
X0036474Y0075397D01*
X0035476Y0076396D02*
X0041150Y0076396D01*
X0041150Y0077394D02*
X0035150Y0077394D01*
X0035150Y0078393D02*
X0041150Y0078393D01*
X0041150Y0079391D02*
X0035150Y0079391D01*
X0035150Y0080390D02*
X0041150Y0080390D01*
X0041150Y0081388D02*
X0035150Y0081388D01*
X0035150Y0082387D02*
X0041581Y0082387D01*
X0035150Y0083385D02*
X0055350Y0083385D01*
X0055350Y0082387D02*
X0050919Y0082387D01*
X0051350Y0081388D02*
X0055350Y0081388D01*
X0055350Y0080390D02*
X0051350Y0080390D01*
X0051350Y0079391D02*
X0055350Y0079391D01*
X0055350Y0078393D02*
X0051350Y0078393D01*
X0051350Y0077394D02*
X0055350Y0077394D01*
X0055350Y0076396D02*
X0051350Y0076396D01*
X0051350Y0075397D02*
X0055350Y0075397D01*
X0055350Y0074399D02*
X0051350Y0074399D01*
X0051350Y0073400D02*
X0055350Y0073400D01*
X0055350Y0072402D02*
X0050707Y0072402D01*
X0058350Y0072402D02*
X0079830Y0072402D01*
X0078832Y0071403D02*
X0058350Y0071403D01*
X0058350Y0070405D02*
X0077833Y0070405D01*
X0076835Y0069406D02*
X0058350Y0069406D01*
X0058350Y0068408D02*
X0075836Y0068408D01*
X0074838Y0067409D02*
X0058350Y0067409D01*
X0058350Y0066411D02*
X0073839Y0066411D01*
X0072841Y0065412D02*
X0058350Y0065412D01*
X0058350Y0064414D02*
X0071842Y0064414D01*
X0070844Y0063415D02*
X0058350Y0063415D01*
X0058350Y0062417D02*
X0069845Y0062417D01*
X0068847Y0061418D02*
X0058350Y0061418D01*
X0058350Y0060420D02*
X0067848Y0060420D01*
X0066850Y0059421D02*
X0058350Y0059421D01*
X0058350Y0058423D02*
X0065851Y0058423D01*
X0064853Y0057424D02*
X0058350Y0057424D01*
X0058350Y0056426D02*
X0063854Y0056426D01*
X0062856Y0055427D02*
X0058350Y0055427D01*
X0058350Y0054429D02*
X0061857Y0054429D01*
X0060859Y0053430D02*
X0058350Y0053430D01*
X0058350Y0052432D02*
X0059860Y0052432D01*
X0058862Y0051433D02*
X0058350Y0051433D01*
X0058350Y0050921D02*
X0058350Y0122679D01*
X0065435Y0129764D01*
X0065435Y0129227D01*
X0065537Y0128845D01*
X0065650Y0128650D01*
X0065537Y0128454D01*
X0065435Y0128072D01*
X0065435Y0127075D01*
X0069100Y0127075D01*
X0069100Y0127075D01*
X0069100Y0130224D01*
X0069100Y0130224D01*
X0069100Y0129375D01*
X0069100Y0127075D01*
X0069100Y0127075D01*
X0065435Y0127075D01*
X0065435Y0126077D01*
X0065537Y0125696D01*
X0065650Y0125500D01*
X0065537Y0125304D01*
X0065435Y0124923D01*
X0065435Y0123925D01*
X0065435Y0122928D01*
X0065537Y0122546D01*
X0065650Y0122350D01*
X0065537Y0122155D01*
X0065435Y0121773D01*
X0065435Y0120776D01*
X0069100Y0120776D01*
X0069100Y0123925D01*
X0065435Y0123925D01*
X0069100Y0123925D01*
X0069100Y0123925D01*
X0069100Y0123925D01*
X0069100Y0127075D01*
X0069100Y0127075D01*
X0069100Y0124775D01*
X0069100Y0123925D01*
X0069100Y0123925D01*
X0069100Y0121625D01*
X0069100Y0120776D01*
X0069100Y0120776D01*
X0069100Y0120776D01*
X0065435Y0120776D01*
X0065435Y0119778D01*
X0065537Y0119397D01*
X0065735Y0119055D01*
X0066014Y0118775D01*
X0066356Y0118578D01*
X0066738Y0118476D01*
X0069100Y0118476D01*
X0069100Y0120775D01*
X0069100Y0120775D01*
X0069100Y0118476D01*
X0071463Y0118476D01*
X0071845Y0118578D01*
X0072187Y0118775D01*
X0072466Y0119055D01*
X0072515Y0119139D01*
X0072779Y0118876D01*
X0075147Y0118876D01*
X0075400Y0118612D01*
X0075417Y0118612D01*
X0075429Y0118600D01*
X0076036Y0118600D01*
X0076643Y0118588D01*
X0076655Y0118600D01*
X0081829Y0118600D01*
X0088750Y0111679D01*
X0088750Y0109050D01*
X0090550Y0107250D01*
X0090550Y0083121D01*
X0058350Y0050921D01*
X0061550Y0047439D02*
X0162068Y0047439D01*
X0163066Y0048437D02*
X0062509Y0048437D01*
X0063507Y0049436D02*
X0164065Y0049436D01*
X0165063Y0050434D02*
X0064506Y0050434D01*
X0065504Y0051433D02*
X0166062Y0051433D01*
X0167060Y0052432D02*
X0066503Y0052432D01*
X0067501Y0053430D02*
X0168059Y0053430D01*
X0169057Y0054429D02*
X0158900Y0054429D01*
X0159898Y0055427D02*
X0170056Y0055427D01*
X0167294Y0056426D02*
X0160897Y0056426D01*
X0161895Y0057424D02*
X0166288Y0057424D01*
X0165665Y0058423D02*
X0162894Y0058423D01*
X0163892Y0059421D02*
X0165251Y0059421D01*
X0165200Y0060420D02*
X0164891Y0060420D01*
X0162645Y0062417D02*
X0154402Y0062417D01*
X0154069Y0063219D02*
X0152719Y0064569D01*
X0150955Y0065300D01*
X0149045Y0065300D01*
X0147281Y0064569D01*
X0145931Y0063219D01*
X0145200Y0061455D01*
X0145200Y0059545D01*
X0145931Y0057781D01*
X0146912Y0056800D01*
X0143654Y0056800D01*
X0143966Y0057112D01*
X0144447Y0057775D01*
X0144819Y0058504D01*
X0145072Y0059282D01*
X0145186Y0060000D01*
X0140500Y0060000D01*
X0140500Y0061000D01*
X0139500Y0061000D01*
X0139500Y0065686D01*
X0138782Y0065572D01*
X0138004Y0065319D01*
X0137275Y0064947D01*
X0136612Y0064466D01*
X0136034Y0063888D01*
X0135553Y0063225D01*
X0135181Y0062496D01*
X0135000Y0061939D01*
X0134819Y0062496D01*
X0134447Y0063225D01*
X0133966Y0063888D01*
X0133388Y0064466D01*
X0132725Y0064947D01*
X0131996Y0065319D01*
X0131218Y0065572D01*
X0130500Y0065686D01*
X0130500Y0061000D01*
X0129500Y0061000D01*
X0129500Y0065686D01*
X0128782Y0065572D01*
X0128004Y0065319D01*
X0127275Y0064947D01*
X0126612Y0064466D01*
X0126034Y0063888D01*
X0125553Y0063225D01*
X0125181Y0062496D01*
X0124928Y0061718D01*
X0124814Y0061000D01*
X0129500Y0061000D01*
X0129500Y0060000D01*
X0124814Y0060000D01*
X0124928Y0059282D01*
X0125181Y0058504D01*
X0125553Y0057775D01*
X0126034Y0057112D01*
X0126346Y0056800D01*
X0123088Y0056800D01*
X0124069Y0057781D01*
X0124800Y0059545D01*
X0124800Y0061455D01*
X0124069Y0063219D01*
X0122719Y0064569D01*
X0121350Y0065136D01*
X0121350Y0193630D01*
X0121650Y0193930D01*
X0121650Y0193223D01*
X0122015Y0192341D01*
X0122550Y0191806D01*
X0122550Y0119479D01*
X0123429Y0118600D01*
X0129456Y0112572D01*
X0129377Y0112572D01*
X0128733Y0111928D01*
X0128733Y0106292D01*
X0129377Y0105648D01*
X0146036Y0105648D01*
X0146681Y0106292D01*
X0146681Y0111928D01*
X0146036Y0112572D01*
X0133699Y0112572D01*
X0131181Y0115091D01*
X0137207Y0115091D01*
X0137207Y0118453D01*
X0138207Y0118453D01*
X0138207Y0119453D01*
X0147081Y0119453D01*
X0147081Y0121512D01*
X0146978Y0121894D01*
X0146781Y0122236D01*
X0146502Y0122515D01*
X0146160Y0122713D01*
X0145778Y0122815D01*
X0138207Y0122815D01*
X0138207Y0119453D01*
X0137207Y0119453D01*
X0137207Y0122815D01*
X0129635Y0122815D01*
X0129254Y0122713D01*
X0128912Y0122515D01*
X0128632Y0122236D01*
X0128435Y0121894D01*
X0128333Y0121512D01*
X0128333Y0119453D01*
X0137207Y0119453D01*
X0137207Y0118453D01*
X0128333Y0118453D01*
X0128333Y0117939D01*
X0125550Y0120721D01*
X0125550Y0191806D01*
X0126085Y0192341D01*
X0126450Y0193223D01*
X0126450Y0194177D01*
X0126085Y0195059D01*
X0125409Y0195735D01*
X0124527Y0196100D01*
X0123820Y0196100D01*
X0143120Y0215400D01*
X0144350Y0216630D01*
X0144350Y0237241D01*
X0145173Y0236900D01*
X0145929Y0236900D01*
X0147229Y0235600D01*
X0146253Y0235600D01*
X0145871Y0235498D01*
X0145529Y0235300D01*
X0145250Y0235021D01*
X0145052Y0234679D01*
X0144950Y0234297D01*
X0144950Y0230250D01*
X0147600Y0230250D01*
X0147600Y0229950D01*
X0147900Y0229950D01*
X0147900Y0224600D01*
X0149247Y0224600D01*
X0149629Y0224702D01*
X0149971Y0224900D01*
X0150250Y0225179D01*
X0150448Y0225521D01*
X0150453Y0225541D01*
X0150994Y0225000D01*
X0154506Y0225000D01*
X0155150Y0225644D01*
X0155150Y0234556D01*
X0154506Y0235200D01*
X0151871Y0235200D01*
X0148050Y0239021D01*
X0148050Y0239777D01*
X0147685Y0240659D01*
X0147009Y0241335D01*
X0146127Y0241700D01*
X0145173Y0241700D01*
X0144350Y0241359D01*
X0144350Y0246479D01*
X0147429Y0243400D01*
X0149829Y0243400D01*
X0158029Y0235200D01*
X0155994Y0235200D01*
X0155350Y0234556D01*
X0155350Y0225644D01*
X0155994Y0225000D01*
X0156150Y0225000D01*
X0156150Y0223921D01*
X0127429Y0195200D01*
X0126550Y0194321D01*
X0126550Y0174679D01*
X0129601Y0171628D01*
X0129377Y0171628D01*
X0128733Y0170983D01*
X0128733Y0165348D01*
X0129377Y0164703D01*
X0144132Y0164703D01*
X0141214Y0161785D01*
X0129377Y0161785D01*
X0128733Y0161141D01*
X0128733Y0155505D01*
X0129377Y0154861D01*
X0146036Y0154861D01*
X0146681Y0155505D01*
X0146681Y0161141D01*
X0146036Y0161785D01*
X0145456Y0161785D01*
X0156750Y0173079D01*
X0156750Y0200400D01*
X0157600Y0200400D01*
X0157600Y0205750D01*
X0157900Y0205750D01*
X0157900Y0200400D01*
X0159247Y0200400D01*
X0159629Y0200502D01*
X0159971Y0200700D01*
X0160250Y0200979D01*
X0160448Y0201321D01*
X0160453Y0201341D01*
X0160994Y0200800D01*
X0164506Y0200800D01*
X0165150Y0201444D01*
X0165150Y0210356D01*
X0164506Y0211000D01*
X0160994Y0211000D01*
X0160453Y0210459D01*
X0160448Y0210479D01*
X0160250Y0210821D01*
X0159971Y0211100D01*
X0159629Y0211298D01*
X0159247Y0211400D01*
X0158271Y0211400D01*
X0168750Y0221879D01*
X0168750Y0225000D01*
X0169506Y0225000D01*
X0170150Y0225644D01*
X0170150Y0232679D01*
X0170350Y0232479D01*
X0170350Y0225644D01*
X0170994Y0225000D01*
X0173750Y0225000D01*
X0173750Y0211400D01*
X0172900Y0211400D01*
X0172900Y0206050D01*
X0172600Y0206050D01*
X0172600Y0211400D01*
X0171253Y0211400D01*
X0170871Y0211298D01*
X0170529Y0211100D01*
X0170250Y0210821D01*
X0170052Y0210479D01*
X0170047Y0210459D01*
X0169506Y0211000D01*
X0165994Y0211000D01*
X0165350Y0210356D01*
X0165350Y0201444D01*
X0165994Y0200800D01*
X0169506Y0200800D01*
X0170047Y0201341D01*
X0170052Y0201321D01*
X0170250Y0200979D01*
X0170529Y0200700D01*
X0170871Y0200502D01*
X0171253Y0200400D01*
X0172600Y0200400D01*
X0172600Y0205750D01*
X0172900Y0205750D01*
X0172900Y0200400D01*
X0173750Y0200400D01*
X0173750Y0174321D01*
X0147081Y0147652D01*
X0147081Y0147980D01*
X0138207Y0147980D01*
X0138207Y0148980D01*
X0147081Y0148980D01*
X0147081Y0151040D01*
X0146978Y0151421D01*
X0146781Y0151764D01*
X0146502Y0152043D01*
X0146160Y0152240D01*
X0145778Y0152343D01*
X0138207Y0152342D01*
X0138207Y0148980D01*
X0137207Y0148980D01*
X0137207Y0147980D01*
X0138207Y0147980D01*
X0138207Y0144618D01*
X0144047Y0144618D01*
X0141529Y0142100D01*
X0129377Y0142100D01*
X0128733Y0141456D01*
X0128733Y0135820D01*
X0129377Y0135176D01*
X0144204Y0135176D01*
X0141286Y0132257D01*
X0129377Y0132257D01*
X0128733Y0131613D01*
X0128733Y0125977D01*
X0129377Y0125333D01*
X0146036Y0125333D01*
X0146681Y0125977D01*
X0146681Y0131613D01*
X0146036Y0132257D01*
X0145529Y0132257D01*
X0187150Y0173879D01*
X0187150Y0211121D01*
X0186271Y0212000D01*
X0179950Y0218321D01*
X0179950Y0225444D01*
X0180150Y0225644D01*
X0180150Y0233079D01*
X0180350Y0232879D01*
X0180350Y0225644D01*
X0180994Y0225000D01*
X0184506Y0225000D01*
X0185150Y0225644D01*
X0185150Y0232879D01*
X0190335Y0227694D01*
X0190335Y0224379D01*
X0190979Y0223735D01*
X0195350Y0223735D01*
X0195350Y0223479D01*
X0196229Y0222600D01*
X0202550Y0216279D01*
X0202550Y0214687D01*
X0202086Y0214687D01*
X0201441Y0214042D01*
X0201441Y0207619D01*
X0202086Y0206975D01*
X0206934Y0206975D01*
X0207578Y0207619D01*
X0207578Y0214042D01*
X0206934Y0214687D01*
X0205550Y0214687D01*
X0205550Y0217521D01*
X0199337Y0223735D01*
X0202521Y0223735D01*
X0203165Y0224379D01*
X0203165Y0225800D01*
X0205382Y0225800D01*
X0205382Y0223788D01*
X0206027Y0223144D01*
X0210550Y0223144D01*
X0210550Y0214687D01*
X0209566Y0214687D01*
X0208922Y0214042D01*
X0208922Y0207619D01*
X0209566Y0206975D01*
X0212803Y0206975D01*
X0211264Y0205435D01*
X0210674Y0206025D01*
X0205826Y0206025D01*
X0205181Y0205381D01*
X0205181Y0198958D01*
X0205826Y0198313D01*
X0210674Y0198313D01*
X0211318Y0198958D01*
X0211318Y0201247D01*
X0226271Y0216200D01*
X0227150Y0217079D01*
X0227150Y0291121D01*
X0221499Y0296773D01*
X0222150Y0298345D01*
X0222150Y0300255D01*
X0221419Y0302019D01*
X0220069Y0303369D01*
X0218305Y0304100D01*
X0216395Y0304100D01*
X0214631Y0303369D01*
X0213281Y0302019D01*
X0212550Y0300255D01*
X0212550Y0298345D01*
X0213281Y0296581D01*
X0214631Y0295231D01*
X0216395Y0294500D01*
X0218305Y0294500D01*
X0219170Y0294858D01*
X0224150Y0289879D01*
X0224150Y0253024D01*
X0224069Y0253219D01*
X0222719Y0254569D01*
X0220955Y0255300D01*
X0220750Y0255300D01*
X0220750Y0264721D01*
X0216571Y0268900D01*
X0218305Y0268900D01*
X0220069Y0269631D01*
X0221419Y0270981D01*
X0222150Y0272745D01*
X0222150Y0274655D01*
X0221419Y0276419D01*
X0220069Y0277769D01*
X0218305Y0278500D01*
X0216395Y0278500D01*
X0214631Y0277769D01*
X0213281Y0276419D01*
X0212550Y0274655D01*
X0212550Y0272921D01*
X0191150Y0294321D01*
X0191150Y0295852D01*
X0191934Y0296176D01*
X0193369Y0297611D01*
X0194145Y0299486D01*
X0194145Y0301514D01*
X0193369Y0303389D01*
X0191934Y0304824D01*
X0190060Y0305600D01*
X0188031Y0305600D01*
X0186156Y0304824D01*
X0184722Y0303389D01*
X0183945Y0301514D01*
X0183945Y0299486D01*
X0184722Y0297611D01*
X0186156Y0296176D01*
X0188031Y0295400D01*
X0188150Y0295400D01*
X0188150Y0293079D01*
X0189029Y0292200D01*
X0217750Y0263479D01*
X0217750Y0254763D01*
X0217281Y0254569D01*
X0215931Y0253219D01*
X0215200Y0251455D01*
X0215200Y0249545D01*
X0215931Y0247781D01*
X0217281Y0246431D01*
X0219045Y0245700D01*
X0220955Y0245700D01*
X0222719Y0246431D01*
X0224069Y0247781D01*
X0224150Y0247976D01*
X0224150Y0230745D01*
X0223939Y0230956D01*
X0223597Y0231154D01*
X0223215Y0231256D01*
X0221155Y0231256D01*
X0221155Y0227500D01*
X0220156Y0227500D01*
X0220156Y0231256D01*
X0218096Y0231256D01*
X0217714Y0231154D01*
X0217372Y0230956D01*
X0217093Y0230677D01*
X0216896Y0230335D01*
X0216793Y0229953D01*
X0216793Y0227500D01*
X0220155Y0227500D01*
X0220155Y0226500D01*
X0216793Y0226500D01*
X0216793Y0224047D01*
X0216896Y0223665D01*
X0217093Y0223323D01*
X0217372Y0223044D01*
X0217714Y0222846D01*
X0218096Y0222744D01*
X0220156Y0222744D01*
X0220156Y0226500D01*
X0221155Y0226500D01*
X0221155Y0222744D01*
X0223215Y0222744D01*
X0223597Y0222846D01*
X0223939Y0223044D01*
X0224150Y0223255D01*
X0224150Y0218321D01*
X0215059Y0209230D01*
X0215059Y0214042D01*
X0214414Y0214687D01*
X0213550Y0214687D01*
X0213550Y0222679D01*
X0214350Y0223479D01*
X0214350Y0238321D01*
X0204310Y0248362D01*
X0204800Y0249545D01*
X0204800Y0251455D01*
X0204069Y0253219D01*
X0202719Y0254569D01*
X0200955Y0255300D01*
X0199045Y0255300D01*
X0197281Y0254569D01*
X0195931Y0253219D01*
X0195200Y0251455D01*
X0195200Y0249545D01*
X0195931Y0247781D01*
X0197281Y0246431D01*
X0199045Y0245700D01*
X0200955Y0245700D01*
X0202209Y0246220D01*
X0211350Y0237079D01*
X0211350Y0230856D01*
X0206027Y0230856D01*
X0205382Y0230212D01*
X0205382Y0228800D01*
X0203165Y0228800D01*
X0203165Y0229621D01*
X0202521Y0230265D01*
X0198350Y0230265D01*
X0198350Y0230321D01*
X0183150Y0245521D01*
X0182381Y0246291D01*
X0182719Y0246431D01*
X0184069Y0247781D01*
X0184800Y0249545D01*
X0184800Y0251455D01*
X0184069Y0253219D01*
X0182719Y0254569D01*
X0180955Y0255300D01*
X0179045Y0255300D01*
X0177281Y0254569D01*
X0175931Y0253219D01*
X0175200Y0251455D01*
X0175200Y0249545D01*
X0175931Y0247781D01*
X0177281Y0246431D01*
X0177355Y0246400D01*
X0176671Y0246400D01*
X0174427Y0248644D01*
X0174800Y0249545D01*
X0174800Y0251455D01*
X0174069Y0253219D01*
X0172719Y0254569D01*
X0170955Y0255300D01*
X0169045Y0255300D01*
X0167281Y0254569D01*
X0165931Y0253219D01*
X0165200Y0251455D01*
X0165200Y0249545D01*
X0165931Y0247781D01*
X0167281Y0246431D01*
X0169045Y0245700D01*
X0170955Y0245700D01*
X0172492Y0246337D01*
X0175429Y0243400D01*
X0181029Y0243400D01*
X0194163Y0230265D01*
X0192006Y0230265D01*
X0183850Y0238421D01*
X0183850Y0239177D01*
X0183485Y0240059D01*
X0182809Y0240735D01*
X0181927Y0241100D01*
X0180973Y0241100D01*
X0180091Y0240735D01*
X0179415Y0240059D01*
X0179050Y0239177D01*
X0179050Y0238223D01*
X0179415Y0237341D01*
X0179956Y0236800D01*
X0174629Y0236800D01*
X0173750Y0235921D01*
X0173750Y0235200D01*
X0171871Y0235200D01*
X0170450Y0236621D01*
X0170450Y0237377D01*
X0170085Y0238259D01*
X0169409Y0238935D01*
X0168527Y0239300D01*
X0167573Y0239300D01*
X0166691Y0238935D01*
X0166015Y0238259D01*
X0165650Y0237377D01*
X0165650Y0236423D01*
X0166015Y0235541D01*
X0166356Y0235200D01*
X0165994Y0235200D01*
X0165350Y0234556D01*
X0165350Y0225644D01*
X0165750Y0225244D01*
X0165750Y0223121D01*
X0154629Y0212000D01*
X0153750Y0211121D01*
X0153750Y0211000D01*
X0150994Y0211000D01*
X0150453Y0210459D01*
X0150448Y0210479D01*
X0150250Y0210821D01*
X0149971Y0211100D01*
X0149629Y0211298D01*
X0149247Y0211400D01*
X0147900Y0211400D01*
X0147900Y0206050D01*
X0147600Y0206050D01*
X0147600Y0211129D01*
X0159150Y0222679D01*
X0159150Y0225000D01*
X0159506Y0225000D01*
X0160150Y0225644D01*
X0160150Y0233079D01*
X0160350Y0232879D01*
X0160350Y0225644D01*
X0160994Y0225000D01*
X0164506Y0225000D01*
X0165150Y0225644D01*
X0165150Y0234556D01*
X0164506Y0235200D01*
X0162271Y0235200D01*
X0151950Y0245521D01*
X0151532Y0245939D01*
X0152719Y0246431D01*
X0154069Y0247781D01*
X0154800Y0249545D01*
X0154800Y0251455D01*
X0154069Y0253219D01*
X0152719Y0254569D01*
X0151150Y0255219D01*
X0151150Y0277521D01*
X0133271Y0295400D01*
X0134942Y0295400D01*
X0136417Y0296011D01*
X0157750Y0274679D01*
X0157750Y0254763D01*
X0157281Y0254569D01*
X0155931Y0253219D01*
X0155200Y0251455D01*
X0155200Y0249545D01*
X0155931Y0247781D01*
X0157281Y0246431D01*
X0159045Y0245700D01*
X0160955Y0245700D01*
X0162719Y0246431D01*
X0164069Y0247781D01*
X0164800Y0249545D01*
X0164800Y0251455D01*
X0164069Y0253219D01*
X0162719Y0254569D01*
X0160955Y0255300D01*
X0160750Y0255300D01*
X0160750Y0275921D01*
X0138488Y0298183D01*
X0139027Y0299486D01*
X0139027Y0301514D01*
X0138251Y0303389D01*
X0136816Y0304824D01*
X0134942Y0305600D01*
X0132913Y0305600D01*
X0131038Y0304824D01*
X0129604Y0303389D01*
X0128827Y0301514D01*
X0128827Y0299844D01*
X0127150Y0301521D01*
X0127150Y0303121D01*
X0122350Y0307921D01*
X0121471Y0308800D01*
X0063429Y0308800D01*
X0056750Y0302121D01*
X0056750Y0304697D01*
X0056648Y0305079D01*
X0056450Y0305421D01*
X0056171Y0305700D01*
X0055829Y0305898D01*
X0055447Y0306000D01*
X0051750Y0306000D01*
X0051750Y0301000D01*
X0050750Y0301000D01*
X0050750Y0306000D01*
X0047053Y0306000D01*
X0046671Y0305898D01*
X0046329Y0305700D01*
X0046050Y0305421D01*
X0045852Y0305079D01*
X0045750Y0304697D01*
X0045750Y0301000D01*
X0050750Y0301000D01*
X0050750Y0300000D01*
X0051750Y0300000D01*
X0051750Y0295000D01*
X0055350Y0295000D01*
X0055350Y0270321D01*
X0033589Y0248561D01*
X0033589Y0303989D01*
X0033702Y0305422D01*
X0034588Y0308148D01*
X0036273Y0310467D01*
X0038592Y0312152D01*
X0041318Y0313038D01*
X0042752Y0313151D01*
X0226459Y0313151D01*
X0228089Y0313044D01*
X0231239Y0312200D01*
X0234063Y0310570D01*
X0236369Y0308264D01*
X0237999Y0305440D01*
X0238598Y0303206D01*
X0238538Y0303266D01*
X0237875Y0303747D01*
X0237146Y0304119D01*
X0236368Y0304372D01*
X0235650Y0304486D01*
X0235650Y0299800D01*
X0234650Y0299800D01*
X0234650Y0304486D01*
X0233932Y0304372D01*
X0233154Y0304119D01*
X0232425Y0303747D01*
X0231762Y0303266D01*
X0231184Y0302688D01*
X0230703Y0302025D01*
X0230331Y0301296D01*
X0230078Y0300518D01*
X0229964Y0299800D01*
X0234650Y0299800D01*
X0234650Y0298800D01*
X0235650Y0298800D01*
X0235650Y0294114D01*
X0236368Y0294228D01*
X0237146Y0294481D01*
X0237875Y0294853D01*
X0238538Y0295334D01*
X0238950Y0295746D01*
X0238950Y0276688D01*
X0237869Y0277769D01*
X0236105Y0278500D01*
X0234195Y0278500D01*
X0232431Y0277769D01*
X0231081Y0276419D01*
X0230350Y0274655D01*
X0230350Y0272745D01*
X0231081Y0270981D01*
X0232431Y0269631D01*
X0234195Y0268900D01*
X0236105Y0268900D01*
X0237869Y0269631D01*
X0238950Y0270712D01*
X0238950Y0052288D01*
X0237869Y0053369D01*
X0236105Y0054100D01*
X0234371Y0054100D01*
X0237550Y0057279D01*
X0237550Y0061521D01*
X0231871Y0067200D01*
X0167429Y0067200D01*
X0166550Y0066321D01*
X0157029Y0056800D01*
X0153088Y0056800D01*
X0154069Y0057781D01*
X0154800Y0059545D01*
X0154800Y0061455D01*
X0154069Y0063219D01*
X0153873Y0063415D02*
X0163644Y0063415D01*
X0164642Y0064414D02*
X0152875Y0064414D01*
X0154800Y0061418D02*
X0161647Y0061418D01*
X0160648Y0060420D02*
X0154800Y0060420D01*
X0154749Y0059421D02*
X0159650Y0059421D01*
X0158651Y0058423D02*
X0154335Y0058423D01*
X0153712Y0057424D02*
X0157653Y0057424D01*
X0165641Y0065412D02*
X0141709Y0065412D01*
X0141996Y0065319D02*
X0141218Y0065572D01*
X0140500Y0065686D01*
X0140500Y0061000D01*
X0145186Y0061000D01*
X0145072Y0061718D01*
X0144819Y0062496D01*
X0144447Y0063225D01*
X0143966Y0063888D01*
X0143388Y0064466D01*
X0142725Y0064947D01*
X0141996Y0065319D01*
X0140500Y0065412D02*
X0139500Y0065412D01*
X0139500Y0064414D02*
X0140500Y0064414D01*
X0140500Y0063415D02*
X0139500Y0063415D01*
X0139500Y0062417D02*
X0140500Y0062417D01*
X0140500Y0061418D02*
X0139500Y0061418D01*
X0139500Y0061000D02*
X0139500Y0060000D01*
X0134814Y0060000D01*
X0130500Y0060000D01*
X0130500Y0061000D01*
X0139500Y0061000D01*
X0139500Y0060420D02*
X0130500Y0060420D01*
X0130500Y0061418D02*
X0129500Y0061418D01*
X0129500Y0060420D02*
X0124800Y0060420D01*
X0124800Y0061418D02*
X0124881Y0061418D01*
X0125155Y0062417D02*
X0124402Y0062417D01*
X0123873Y0063415D02*
X0125690Y0063415D01*
X0126560Y0064414D02*
X0122875Y0064414D01*
X0121350Y0065412D02*
X0128291Y0065412D01*
X0129500Y0065412D02*
X0130500Y0065412D01*
X0130500Y0064414D02*
X0129500Y0064414D01*
X0129500Y0063415D02*
X0130500Y0063415D01*
X0130500Y0062417D02*
X0129500Y0062417D01*
X0131709Y0065412D02*
X0138291Y0065412D01*
X0136560Y0064414D02*
X0133440Y0064414D01*
X0134310Y0063415D02*
X0135690Y0063415D01*
X0135155Y0062417D02*
X0134845Y0062417D01*
X0140500Y0060420D02*
X0145200Y0060420D01*
X0145200Y0061418D02*
X0145119Y0061418D01*
X0144845Y0062417D02*
X0145598Y0062417D01*
X0146127Y0063415D02*
X0144310Y0063415D01*
X0143440Y0064414D02*
X0147125Y0064414D01*
X0145251Y0059421D02*
X0145094Y0059421D01*
X0144778Y0058423D02*
X0145665Y0058423D01*
X0146288Y0057424D02*
X0144193Y0057424D01*
X0158074Y0043445D02*
X0061550Y0043445D01*
X0061550Y0044443D02*
X0159072Y0044443D01*
X0160071Y0045442D02*
X0061550Y0045442D01*
X0061550Y0046440D02*
X0161069Y0046440D01*
X0157075Y0042446D02*
X0061550Y0042446D01*
X0061550Y0041448D02*
X0156077Y0041448D01*
X0155078Y0040449D02*
X0061550Y0040449D01*
X0061550Y0039451D02*
X0154080Y0039451D01*
X0153081Y0038452D02*
X0061550Y0038452D01*
X0061550Y0037454D02*
X0152083Y0037454D01*
X0151084Y0036455D02*
X0061550Y0036455D01*
X0061550Y0035457D02*
X0150086Y0035457D01*
X0149087Y0034458D02*
X0061550Y0034458D01*
X0061550Y0033460D02*
X0148088Y0033460D01*
X0147090Y0032461D02*
X0061550Y0032461D01*
X0061550Y0031463D02*
X0086891Y0031463D01*
X0085893Y0030464D02*
X0061550Y0030464D01*
X0061550Y0029466D02*
X0084894Y0029466D01*
X0083896Y0028467D02*
X0061550Y0028467D01*
X0061550Y0027469D02*
X0082897Y0027469D01*
X0081899Y0026470D02*
X0080137Y0026470D01*
X0077481Y0026470D02*
X0066357Y0026470D01*
X0068270Y0025472D02*
X0075568Y0025472D01*
X0074570Y0024473D02*
X0069269Y0024473D01*
X0069732Y0023475D02*
X0074107Y0023475D01*
X0073709Y0022476D02*
X0070130Y0022476D01*
X0073594Y0021478D02*
X0073709Y0021478D01*
X0063702Y0026470D02*
X0061550Y0026470D01*
X0061550Y0025472D02*
X0061789Y0025472D01*
X0056545Y0017484D02*
X0056350Y0017484D01*
X0055791Y0016485D02*
X0057544Y0016485D01*
X0058542Y0015487D02*
X0033969Y0015487D01*
X0034293Y0014488D02*
X0059541Y0014488D01*
X0060539Y0013490D02*
X0034688Y0013490D01*
X0035414Y0012491D02*
X0061538Y0012491D01*
X0062536Y0011493D02*
X0036139Y0011493D01*
X0037460Y0010494D02*
X0232930Y0010494D01*
X0234497Y0011493D02*
X0106364Y0011493D01*
X0107362Y0012491D02*
X0235495Y0012491D01*
X0236488Y0013490D02*
X0108361Y0013490D01*
X0109359Y0014488D02*
X0237064Y0014488D01*
X0237641Y0015487D02*
X0137558Y0015487D01*
X0138556Y0016485D02*
X0146487Y0016485D01*
X0144511Y0017484D02*
X0139555Y0017484D01*
X0140553Y0018482D02*
X0143512Y0018482D01*
X0148927Y0016485D02*
X0156945Y0016485D01*
X0156386Y0017484D02*
X0150903Y0017484D01*
X0151901Y0018482D02*
X0156386Y0018482D01*
X0156386Y0019481D02*
X0152390Y0019481D01*
X0152804Y0020479D02*
X0156386Y0020479D01*
X0156386Y0021478D02*
X0152807Y0021478D01*
X0152807Y0022476D02*
X0156386Y0022476D01*
X0156386Y0023475D02*
X0152409Y0023475D01*
X0151946Y0024473D02*
X0156386Y0024473D01*
X0156386Y0025472D02*
X0150947Y0025472D01*
X0166072Y0026470D02*
X0172906Y0026470D01*
X0173154Y0026597D02*
X0172383Y0026204D01*
X0171683Y0025695D01*
X0171071Y0025083D01*
X0170562Y0024383D01*
X0170169Y0023611D01*
X0169901Y0022788D01*
X0169776Y0022000D01*
X0174766Y0022000D01*
X0174766Y0026989D01*
X0173978Y0026865D01*
X0173154Y0026597D01*
X0174766Y0026470D02*
X0175766Y0026470D01*
X0175766Y0026989D02*
X0176554Y0026865D01*
X0177377Y0026597D01*
X0178148Y0026204D01*
X0178849Y0025695D01*
X0179461Y0025083D01*
X0179970Y0024383D01*
X0180363Y0023611D01*
X0180630Y0022788D01*
X0180755Y0022000D01*
X0175766Y0022000D01*
X0175766Y0021000D01*
X0180755Y0021000D01*
X0180630Y0020212D01*
X0180363Y0019389D01*
X0179970Y0018617D01*
X0179461Y0017917D01*
X0178849Y0017305D01*
X0178148Y0016796D01*
X0177377Y0016403D01*
X0176554Y0016135D01*
X0175766Y0016011D01*
X0175766Y0021000D01*
X0174766Y0021000D01*
X0174766Y0016011D01*
X0173978Y0016135D01*
X0173154Y0016403D01*
X0172383Y0016796D01*
X0171683Y0017305D01*
X0171071Y0017917D01*
X0170562Y0018617D01*
X0170169Y0019389D01*
X0169901Y0020212D01*
X0169776Y0021000D01*
X0174766Y0021000D01*
X0174766Y0022000D01*
X0175766Y0022000D01*
X0175766Y0026989D01*
X0175766Y0025472D02*
X0174766Y0025472D01*
X0174766Y0024473D02*
X0175766Y0024473D01*
X0175766Y0023475D02*
X0174766Y0023475D01*
X0174766Y0022476D02*
X0175766Y0022476D01*
X0175766Y0021478D02*
X0183945Y0021478D01*
X0183945Y0022476D02*
X0180680Y0022476D01*
X0180407Y0023475D02*
X0184343Y0023475D01*
X0184806Y0024473D02*
X0179904Y0024473D01*
X0179072Y0025472D02*
X0185805Y0025472D01*
X0187718Y0026470D02*
X0177626Y0026470D01*
X0174766Y0021478D02*
X0166586Y0021478D01*
X0166586Y0022476D02*
X0169852Y0022476D01*
X0170124Y0023475D02*
X0166586Y0023475D01*
X0166586Y0024473D02*
X0170628Y0024473D01*
X0171459Y0025472D02*
X0166586Y0025472D01*
X0166340Y0027469D02*
X0193222Y0027469D01*
X0192224Y0026470D02*
X0190373Y0026470D01*
X0194221Y0028467D02*
X0167339Y0028467D01*
X0168337Y0029466D02*
X0195219Y0029466D01*
X0196218Y0030464D02*
X0169336Y0030464D01*
X0170334Y0031463D02*
X0197216Y0031463D01*
X0198215Y0032461D02*
X0171333Y0032461D01*
X0172331Y0033460D02*
X0199213Y0033460D01*
X0200212Y0034458D02*
X0173330Y0034458D01*
X0174328Y0035457D02*
X0201211Y0035457D01*
X0202209Y0036455D02*
X0175327Y0036455D01*
X0176325Y0037454D02*
X0203208Y0037454D01*
X0204206Y0038452D02*
X0177324Y0038452D01*
X0178322Y0039451D02*
X0205205Y0039451D01*
X0206203Y0040449D02*
X0179321Y0040449D01*
X0180319Y0041448D02*
X0207202Y0041448D01*
X0208200Y0042446D02*
X0181318Y0042446D01*
X0182316Y0043445D02*
X0208500Y0043445D01*
X0208500Y0044443D02*
X0183315Y0044443D01*
X0184313Y0045442D02*
X0208500Y0045442D01*
X0208500Y0046440D02*
X0185312Y0046440D01*
X0186310Y0047439D02*
X0208500Y0047439D01*
X0208500Y0048437D02*
X0187309Y0048437D01*
X0188307Y0049436D02*
X0208500Y0049436D01*
X0208500Y0050434D02*
X0189306Y0050434D01*
X0190304Y0051433D02*
X0208500Y0051433D01*
X0208500Y0052432D02*
X0191303Y0052432D01*
X0192301Y0053430D02*
X0208500Y0053430D01*
X0208500Y0054429D02*
X0193300Y0054429D01*
X0194298Y0055427D02*
X0208500Y0055427D01*
X0207294Y0056426D02*
X0202706Y0056426D01*
X0203712Y0057424D02*
X0206288Y0057424D01*
X0205665Y0058423D02*
X0204335Y0058423D01*
X0204749Y0059421D02*
X0205251Y0059421D01*
X0205200Y0060420D02*
X0204800Y0060420D01*
X0204800Y0061418D02*
X0205200Y0061418D01*
X0205598Y0062417D02*
X0204402Y0062417D01*
X0203873Y0063415D02*
X0206127Y0063415D01*
X0212706Y0056426D02*
X0217294Y0056426D01*
X0216288Y0057424D02*
X0213712Y0057424D01*
X0214335Y0058423D02*
X0215665Y0058423D01*
X0215251Y0059421D02*
X0214749Y0059421D01*
X0214800Y0060420D02*
X0215200Y0060420D01*
X0215200Y0061418D02*
X0214800Y0061418D01*
X0214402Y0062417D02*
X0215598Y0062417D01*
X0216127Y0063415D02*
X0213873Y0063415D01*
X0211500Y0055427D02*
X0231456Y0055427D01*
X0232454Y0056426D02*
X0222706Y0056426D01*
X0223712Y0057424D02*
X0233453Y0057424D01*
X0234451Y0058423D02*
X0224335Y0058423D01*
X0224749Y0059421D02*
X0234550Y0059421D01*
X0234409Y0060420D02*
X0224800Y0060420D01*
X0224800Y0061418D02*
X0233411Y0061418D01*
X0232412Y0062417D02*
X0224402Y0062417D01*
X0223873Y0063415D02*
X0231414Y0063415D01*
X0233659Y0065412D02*
X0238950Y0065412D01*
X0238950Y0064414D02*
X0234658Y0064414D01*
X0235656Y0063415D02*
X0238950Y0063415D01*
X0238950Y0062417D02*
X0236655Y0062417D01*
X0237550Y0061418D02*
X0238950Y0061418D01*
X0238950Y0060420D02*
X0237550Y0060420D01*
X0237550Y0059421D02*
X0238950Y0059421D01*
X0238950Y0058423D02*
X0237550Y0058423D01*
X0237550Y0057424D02*
X0238950Y0057424D01*
X0238950Y0056426D02*
X0236697Y0056426D01*
X0235698Y0055427D02*
X0238950Y0055427D01*
X0238950Y0054429D02*
X0234700Y0054429D01*
X0237722Y0053430D02*
X0238950Y0053430D01*
X0238950Y0052432D02*
X0238807Y0052432D01*
X0230457Y0054429D02*
X0211500Y0054429D01*
X0211500Y0053430D02*
X0214778Y0053430D01*
X0214631Y0053369D02*
X0213281Y0052019D01*
X0212550Y0050255D01*
X0212550Y0048345D01*
X0213281Y0046581D01*
X0214631Y0045231D01*
X0216395Y0044500D01*
X0218305Y0044500D01*
X0220069Y0045231D01*
X0221419Y0046581D01*
X0222150Y0048345D01*
X0222150Y0050255D01*
X0221419Y0052019D01*
X0220069Y0053369D01*
X0218305Y0054100D01*
X0216395Y0054100D01*
X0214631Y0053369D01*
X0213693Y0052432D02*
X0211500Y0052432D01*
X0211500Y0051433D02*
X0213038Y0051433D01*
X0212624Y0050434D02*
X0211500Y0050434D01*
X0211500Y0049436D02*
X0212550Y0049436D01*
X0212550Y0048437D02*
X0211500Y0048437D01*
X0211500Y0047439D02*
X0212925Y0047439D01*
X0213421Y0046440D02*
X0211500Y0046440D01*
X0211500Y0045442D02*
X0214420Y0045442D01*
X0211500Y0044443D02*
X0228750Y0044443D01*
X0228750Y0043445D02*
X0211500Y0043445D01*
X0211500Y0042446D02*
X0228750Y0042446D01*
X0228750Y0041448D02*
X0211444Y0041448D01*
X0210446Y0040449D02*
X0228750Y0040449D01*
X0228750Y0039451D02*
X0209447Y0039451D01*
X0208449Y0038452D02*
X0228750Y0038452D01*
X0228750Y0037454D02*
X0207450Y0037454D01*
X0206452Y0036455D02*
X0228750Y0036455D01*
X0228750Y0035457D02*
X0205453Y0035457D01*
X0204455Y0034458D02*
X0228750Y0034458D01*
X0228750Y0033460D02*
X0203456Y0033460D01*
X0202458Y0032461D02*
X0228750Y0032461D01*
X0228750Y0031463D02*
X0201459Y0031463D01*
X0200461Y0030464D02*
X0228750Y0030464D01*
X0228750Y0029466D02*
X0199462Y0029466D01*
X0198464Y0028467D02*
X0215252Y0028467D01*
X0215354Y0028519D02*
X0214625Y0028147D01*
X0213962Y0027666D01*
X0213384Y0027088D01*
X0212903Y0026425D01*
X0212531Y0025696D01*
X0212278Y0024918D01*
X0212164Y0024200D01*
X0216850Y0024200D01*
X0216850Y0028886D01*
X0216132Y0028772D01*
X0215354Y0028519D01*
X0216850Y0028467D02*
X0217850Y0028467D01*
X0217850Y0028886D02*
X0217850Y0024200D01*
X0216850Y0024200D01*
X0216850Y0023200D01*
X0212164Y0023200D01*
X0212278Y0022482D01*
X0212531Y0021704D01*
X0212903Y0020975D01*
X0213384Y0020312D01*
X0213962Y0019734D01*
X0214625Y0019253D01*
X0215354Y0018881D01*
X0216132Y0018628D01*
X0216850Y0018514D01*
X0216850Y0023200D01*
X0217850Y0023200D01*
X0217850Y0024200D01*
X0222536Y0024200D01*
X0222422Y0024918D01*
X0222169Y0025696D01*
X0221797Y0026425D01*
X0221316Y0027088D01*
X0220738Y0027666D01*
X0220075Y0028147D01*
X0219346Y0028519D01*
X0218568Y0028772D01*
X0217850Y0028886D01*
X0217850Y0027469D02*
X0216850Y0027469D01*
X0216850Y0026470D02*
X0217850Y0026470D01*
X0217850Y0025472D02*
X0216850Y0025472D01*
X0216850Y0024473D02*
X0217850Y0024473D01*
X0217850Y0023475D02*
X0230350Y0023475D01*
X0230350Y0024473D02*
X0222492Y0024473D01*
X0222242Y0025472D02*
X0230688Y0025472D01*
X0231132Y0026470D02*
X0221765Y0026470D01*
X0220935Y0027469D02*
X0230560Y0027469D01*
X0229561Y0028467D02*
X0219448Y0028467D01*
X0217850Y0023200D02*
X0222536Y0023200D01*
X0222422Y0022482D01*
X0222169Y0021704D01*
X0221797Y0020975D01*
X0221316Y0020312D01*
X0220738Y0019734D01*
X0220075Y0019253D01*
X0219346Y0018881D01*
X0218568Y0018628D01*
X0217850Y0018514D01*
X0217850Y0023200D01*
X0217850Y0022476D02*
X0216850Y0022476D01*
X0216850Y0021478D02*
X0217850Y0021478D01*
X0217850Y0020479D02*
X0216850Y0020479D01*
X0216850Y0019481D02*
X0217850Y0019481D01*
X0220389Y0019481D02*
X0232793Y0019481D01*
X0231583Y0020479D02*
X0221437Y0020479D01*
X0222054Y0021478D02*
X0230875Y0021478D01*
X0230461Y0022476D02*
X0222420Y0022476D01*
X0216850Y0023475D02*
X0207527Y0023475D01*
X0207148Y0024389D02*
X0205714Y0025824D01*
X0203839Y0026600D01*
X0201810Y0026600D01*
X0199936Y0025824D01*
X0198501Y0024389D01*
X0197725Y0022514D01*
X0197725Y0020486D01*
X0198501Y0018611D01*
X0199936Y0017176D01*
X0201810Y0016400D01*
X0203839Y0016400D01*
X0205714Y0017176D01*
X0207148Y0018611D01*
X0207925Y0020486D01*
X0207925Y0022514D01*
X0207148Y0024389D01*
X0207064Y0024473D02*
X0212208Y0024473D01*
X0212458Y0025472D02*
X0206066Y0025472D01*
X0204153Y0026470D02*
X0212935Y0026470D01*
X0213765Y0027469D02*
X0197465Y0027469D01*
X0196467Y0026470D02*
X0201497Y0026470D01*
X0199584Y0025472D02*
X0195468Y0025472D01*
X0194470Y0024473D02*
X0198586Y0024473D01*
X0198123Y0023475D02*
X0193748Y0023475D01*
X0194145Y0022476D02*
X0197725Y0022476D01*
X0197725Y0021478D02*
X0194145Y0021478D01*
X0194143Y0020479D02*
X0197727Y0020479D01*
X0198141Y0019481D02*
X0193729Y0019481D01*
X0193240Y0018482D02*
X0198630Y0018482D01*
X0199629Y0017484D02*
X0192241Y0017484D01*
X0190265Y0016485D02*
X0201605Y0016485D01*
X0204045Y0016485D02*
X0238122Y0016485D01*
X0238390Y0017484D02*
X0206021Y0017484D01*
X0207019Y0018482D02*
X0238658Y0018482D01*
X0238867Y0019481D02*
X0237507Y0019481D01*
X0238717Y0020479D02*
X0238932Y0020479D01*
X0230772Y0009496D02*
X0039303Y0009496D01*
X0068500Y0054429D02*
X0106800Y0054429D01*
X0105802Y0055427D02*
X0081211Y0055427D01*
X0080500Y0055427D02*
X0079500Y0055427D01*
X0078789Y0055427D02*
X0069498Y0055427D01*
X0070497Y0056426D02*
X0076761Y0056426D01*
X0075807Y0057424D02*
X0071495Y0057424D01*
X0072494Y0058423D02*
X0075222Y0058423D01*
X0074906Y0059421D02*
X0073492Y0059421D01*
X0074491Y0060420D02*
X0079500Y0060420D01*
X0079500Y0061418D02*
X0080500Y0061418D01*
X0080500Y0060420D02*
X0085200Y0060420D01*
X0085200Y0061418D02*
X0085119Y0061418D01*
X0084845Y0062417D02*
X0085598Y0062417D01*
X0086127Y0063415D02*
X0084310Y0063415D01*
X0083440Y0064414D02*
X0087125Y0064414D01*
X0085251Y0059421D02*
X0085094Y0059421D01*
X0084778Y0058423D02*
X0085665Y0058423D01*
X0086288Y0057424D02*
X0084193Y0057424D01*
X0083239Y0056426D02*
X0087294Y0056426D01*
X0092706Y0056426D02*
X0097294Y0056426D01*
X0096288Y0057424D02*
X0093712Y0057424D01*
X0094335Y0058423D02*
X0095665Y0058423D01*
X0095251Y0059421D02*
X0094749Y0059421D01*
X0094800Y0060420D02*
X0095200Y0060420D01*
X0094242Y0064414D02*
X0092875Y0064414D01*
X0095241Y0065412D02*
X0081709Y0065412D01*
X0080500Y0065412D02*
X0079500Y0065412D01*
X0079500Y0064414D02*
X0080500Y0064414D01*
X0080500Y0063415D02*
X0079500Y0063415D01*
X0079500Y0062417D02*
X0080500Y0062417D01*
X0080500Y0059421D02*
X0079500Y0059421D01*
X0079500Y0058423D02*
X0080500Y0058423D01*
X0080500Y0057424D02*
X0079500Y0057424D01*
X0079500Y0056426D02*
X0080500Y0056426D01*
X0080482Y0066411D02*
X0096239Y0066411D01*
X0088470Y0074399D02*
X0117150Y0074399D01*
X0117150Y0075397D02*
X0089469Y0075397D01*
X0090467Y0076396D02*
X0117150Y0076396D01*
X0117150Y0077394D02*
X0091466Y0077394D01*
X0092464Y0078393D02*
X0117150Y0078393D01*
X0117150Y0079391D02*
X0093463Y0079391D01*
X0094461Y0080390D02*
X0117150Y0080390D01*
X0117150Y0081388D02*
X0095460Y0081388D01*
X0096458Y0082387D02*
X0117150Y0082387D01*
X0117150Y0083385D02*
X0097457Y0083385D01*
X0098350Y0084384D02*
X0117150Y0084384D01*
X0117150Y0085382D02*
X0098350Y0085382D01*
X0098350Y0086381D02*
X0117150Y0086381D01*
X0117150Y0087379D02*
X0098350Y0087379D01*
X0098350Y0088378D02*
X0117150Y0088378D01*
X0117150Y0089376D02*
X0098350Y0089376D01*
X0098350Y0090375D02*
X0117150Y0090375D01*
X0117150Y0091373D02*
X0098350Y0091373D01*
X0098350Y0092372D02*
X0117150Y0092372D01*
X0117150Y0093370D02*
X0098350Y0093370D01*
X0098350Y0094369D02*
X0117150Y0094369D01*
X0117150Y0095368D02*
X0098350Y0095368D01*
X0098350Y0096366D02*
X0117150Y0096366D01*
X0117150Y0097365D02*
X0098350Y0097365D01*
X0098350Y0098363D02*
X0117150Y0098363D01*
X0117150Y0099362D02*
X0098350Y0099362D01*
X0098350Y0100360D02*
X0117150Y0100360D01*
X0117150Y0101359D02*
X0098350Y0101359D01*
X0098350Y0102357D02*
X0117150Y0102357D01*
X0117150Y0103356D02*
X0098350Y0103356D01*
X0098350Y0104354D02*
X0117150Y0104354D01*
X0117150Y0105353D02*
X0098350Y0105353D01*
X0098350Y0106351D02*
X0117150Y0106351D01*
X0117150Y0107350D02*
X0098350Y0107350D01*
X0098350Y0108348D02*
X0117150Y0108348D01*
X0117150Y0109347D02*
X0098350Y0109347D01*
X0098350Y0110345D02*
X0117150Y0110345D01*
X0117150Y0111344D02*
X0098350Y0111344D01*
X0098350Y0112342D02*
X0117150Y0112342D01*
X0117150Y0113341D02*
X0097731Y0113341D01*
X0096732Y0114339D02*
X0117150Y0114339D01*
X0117150Y0115338D02*
X0095734Y0115338D01*
X0094735Y0116336D02*
X0117150Y0116336D01*
X0117150Y0117335D02*
X0094350Y0117335D01*
X0095033Y0118333D02*
X0117150Y0118333D01*
X0117150Y0119332D02*
X0095750Y0119332D01*
X0095750Y0120330D02*
X0117150Y0120330D01*
X0117150Y0121329D02*
X0095750Y0121329D01*
X0095372Y0122327D02*
X0117150Y0122327D01*
X0117150Y0123326D02*
X0094374Y0123326D01*
X0090747Y0124324D02*
X0117150Y0124324D01*
X0117150Y0125323D02*
X0078523Y0125323D01*
X0083388Y0129317D02*
X0088746Y0129317D01*
X0088750Y0130315D02*
X0084387Y0130315D01*
X0085385Y0131314D02*
X0088750Y0131314D01*
X0089113Y0132312D02*
X0086384Y0132312D01*
X0087382Y0133311D02*
X0090111Y0133311D01*
X0088381Y0134309D02*
X0117150Y0134309D01*
X0117150Y0133311D02*
X0094389Y0133311D01*
X0095387Y0132312D02*
X0117150Y0132312D01*
X0117150Y0131314D02*
X0095750Y0131314D01*
X0095750Y0130315D02*
X0117150Y0130315D01*
X0117150Y0129317D02*
X0095750Y0129317D01*
X0095018Y0128318D02*
X0117150Y0128318D01*
X0117150Y0127320D02*
X0094020Y0127320D01*
X0089993Y0126321D02*
X0117150Y0126321D01*
X0121350Y0126321D02*
X0122550Y0126321D01*
X0122550Y0125323D02*
X0121350Y0125323D01*
X0121350Y0124324D02*
X0122550Y0124324D01*
X0122550Y0123326D02*
X0121350Y0123326D01*
X0121350Y0122327D02*
X0122550Y0122327D01*
X0122550Y0121329D02*
X0121350Y0121329D01*
X0121350Y0120330D02*
X0122550Y0120330D01*
X0122697Y0119332D02*
X0121350Y0119332D01*
X0121350Y0118333D02*
X0123695Y0118333D01*
X0124694Y0117335D02*
X0121350Y0117335D01*
X0121350Y0116336D02*
X0125692Y0116336D01*
X0126691Y0115338D02*
X0121350Y0115338D01*
X0121350Y0114339D02*
X0127689Y0114339D01*
X0128688Y0113341D02*
X0121350Y0113341D01*
X0121350Y0112342D02*
X0129147Y0112342D01*
X0128733Y0111344D02*
X0121350Y0111344D01*
X0121350Y0110345D02*
X0128733Y0110345D01*
X0128733Y0109347D02*
X0121350Y0109347D01*
X0121350Y0108348D02*
X0128733Y0108348D01*
X0128733Y0107350D02*
X0121350Y0107350D01*
X0121350Y0106351D02*
X0128733Y0106351D01*
X0129377Y0105289D02*
X0128733Y0104645D01*
X0128733Y0100977D01*
X0129377Y0100333D01*
X0146036Y0100333D01*
X0146681Y0100977D01*
X0146681Y0104645D01*
X0146036Y0105289D01*
X0129377Y0105289D01*
X0128733Y0104354D02*
X0121350Y0104354D01*
X0121350Y0103356D02*
X0128733Y0103356D01*
X0128733Y0102357D02*
X0121350Y0102357D01*
X0121350Y0101359D02*
X0128733Y0101359D01*
X0129350Y0100360D02*
X0121350Y0100360D01*
X0121350Y0099362D02*
X0128733Y0099362D01*
X0128733Y0099527D02*
X0128733Y0095859D01*
X0129261Y0095331D01*
X0128733Y0094802D01*
X0128733Y0091135D01*
X0129377Y0090491D01*
X0138575Y0090491D01*
X0138575Y0081883D01*
X0139220Y0081239D01*
X0151154Y0081239D01*
X0151799Y0081883D01*
X0151799Y0090668D01*
X0151154Y0091313D01*
X0150702Y0091313D01*
X0151877Y0091799D01*
X0153049Y0092971D01*
X0153683Y0094502D01*
X0153683Y0096159D01*
X0153049Y0097690D01*
X0151877Y0098862D01*
X0150346Y0099496D01*
X0148689Y0099496D01*
X0147158Y0098862D01*
X0146681Y0098384D01*
X0146681Y0099527D01*
X0146036Y0100171D01*
X0129377Y0100171D01*
X0128733Y0099527D01*
X0128733Y0098363D02*
X0121350Y0098363D01*
X0121350Y0097365D02*
X0128733Y0097365D01*
X0128733Y0096366D02*
X0121350Y0096366D01*
X0121350Y0095368D02*
X0129224Y0095368D01*
X0128733Y0094369D02*
X0121350Y0094369D01*
X0121350Y0093370D02*
X0128733Y0093370D01*
X0128733Y0092372D02*
X0121350Y0092372D01*
X0121350Y0091373D02*
X0128733Y0091373D01*
X0121350Y0090375D02*
X0138575Y0090375D01*
X0138575Y0089376D02*
X0121350Y0089376D01*
X0121350Y0088378D02*
X0138575Y0088378D01*
X0138575Y0087379D02*
X0121350Y0087379D01*
X0121350Y0086381D02*
X0138575Y0086381D01*
X0138575Y0085382D02*
X0121350Y0085382D01*
X0121350Y0084384D02*
X0138575Y0084384D01*
X0138575Y0083385D02*
X0121350Y0083385D01*
X0121350Y0082387D02*
X0138575Y0082387D01*
X0139070Y0081388D02*
X0121350Y0081388D01*
X0121350Y0080390D02*
X0238950Y0080390D01*
X0238950Y0081388D02*
X0233261Y0081388D01*
X0233168Y0081335D02*
X0233510Y0081532D01*
X0233789Y0081811D01*
X0233986Y0082153D01*
X0234089Y0082535D01*
X0234089Y0086169D01*
X0227577Y0086169D01*
X0227577Y0087169D01*
X0234089Y0087169D01*
X0234089Y0090804D01*
X0233986Y0091185D01*
X0233789Y0091527D01*
X0233510Y0091807D01*
X0233168Y0092004D01*
X0232786Y0092106D01*
X0227577Y0092106D01*
X0227577Y0087169D01*
X0226577Y0087169D01*
X0226577Y0086169D01*
X0227577Y0086169D01*
X0227577Y0081232D01*
X0232786Y0081232D01*
X0233168Y0081335D01*
X0234049Y0082387D02*
X0238950Y0082387D01*
X0238950Y0083385D02*
X0234089Y0083385D01*
X0234089Y0084384D02*
X0238950Y0084384D01*
X0238950Y0085382D02*
X0234089Y0085382D01*
X0234089Y0087379D02*
X0238950Y0087379D01*
X0238950Y0086381D02*
X0227577Y0086381D01*
X0227577Y0087379D02*
X0226577Y0087379D01*
X0226577Y0087169D02*
X0226577Y0092106D01*
X0221367Y0092106D01*
X0220986Y0092004D01*
X0220644Y0091807D01*
X0220365Y0091527D01*
X0220167Y0091185D01*
X0220065Y0090804D01*
X0220065Y0087169D01*
X0226577Y0087169D01*
X0226577Y0086381D02*
X0151799Y0086381D01*
X0151799Y0087379D02*
X0220065Y0087379D01*
X0220065Y0088378D02*
X0151799Y0088378D01*
X0151799Y0089376D02*
X0220065Y0089376D01*
X0220065Y0090375D02*
X0151799Y0090375D01*
X0150849Y0091373D02*
X0220276Y0091373D01*
X0220065Y0086169D02*
X0220065Y0082535D01*
X0220167Y0082153D01*
X0220365Y0081811D01*
X0220644Y0081532D01*
X0220986Y0081335D01*
X0221367Y0081232D01*
X0226577Y0081232D01*
X0226577Y0086169D01*
X0220065Y0086169D01*
X0220065Y0085382D02*
X0151799Y0085382D01*
X0151799Y0084384D02*
X0220065Y0084384D01*
X0220065Y0083385D02*
X0151799Y0083385D01*
X0151799Y0082387D02*
X0220105Y0082387D01*
X0220893Y0081388D02*
X0151304Y0081388D01*
X0152450Y0092372D02*
X0238950Y0092372D01*
X0238950Y0093370D02*
X0153214Y0093370D01*
X0153628Y0094369D02*
X0238950Y0094369D01*
X0238950Y0095368D02*
X0153683Y0095368D01*
X0153597Y0096366D02*
X0238950Y0096366D01*
X0238950Y0097365D02*
X0153184Y0097365D01*
X0152376Y0098363D02*
X0238950Y0098363D01*
X0238950Y0099362D02*
X0150671Y0099362D01*
X0148364Y0099362D02*
X0146681Y0099362D01*
X0146063Y0100360D02*
X0238950Y0100360D01*
X0238950Y0101359D02*
X0146681Y0101359D01*
X0146681Y0102357D02*
X0238950Y0102357D01*
X0238950Y0103356D02*
X0146681Y0103356D01*
X0146681Y0104354D02*
X0238950Y0104354D01*
X0238950Y0105353D02*
X0121350Y0105353D01*
X0127938Y0118333D02*
X0128333Y0118333D01*
X0126940Y0119332D02*
X0137207Y0119332D01*
X0137207Y0120330D02*
X0138207Y0120330D01*
X0138207Y0119332D02*
X0238950Y0119332D01*
X0238950Y0120330D02*
X0147081Y0120330D01*
X0147081Y0121329D02*
X0238950Y0121329D01*
X0238950Y0122327D02*
X0146690Y0122327D01*
X0147081Y0118453D02*
X0138207Y0118453D01*
X0138207Y0115091D01*
X0145778Y0115091D01*
X0146160Y0115193D01*
X0146502Y0115390D01*
X0146781Y0115670D01*
X0146978Y0116012D01*
X0147081Y0116393D01*
X0147081Y0118453D01*
X0147081Y0118333D02*
X0238950Y0118333D01*
X0238950Y0117335D02*
X0147081Y0117335D01*
X0147065Y0116336D02*
X0238950Y0116336D01*
X0238950Y0115338D02*
X0146411Y0115338D01*
X0146267Y0112342D02*
X0238950Y0112342D01*
X0238950Y0111344D02*
X0146681Y0111344D01*
X0146681Y0110345D02*
X0238950Y0110345D01*
X0238950Y0109347D02*
X0146681Y0109347D01*
X0146681Y0108348D02*
X0238950Y0108348D01*
X0238950Y0107350D02*
X0146681Y0107350D01*
X0146681Y0106351D02*
X0238950Y0106351D01*
X0238950Y0113341D02*
X0132931Y0113341D01*
X0131932Y0114339D02*
X0238950Y0114339D01*
X0238950Y0123326D02*
X0125550Y0123326D01*
X0125550Y0124324D02*
X0238950Y0124324D01*
X0238950Y0125323D02*
X0125550Y0125323D01*
X0125550Y0126321D02*
X0128733Y0126321D01*
X0128733Y0127320D02*
X0125550Y0127320D01*
X0125550Y0128318D02*
X0128733Y0128318D01*
X0128733Y0129317D02*
X0125550Y0129317D01*
X0125550Y0130315D02*
X0128733Y0130315D01*
X0128733Y0131314D02*
X0125550Y0131314D01*
X0125550Y0132312D02*
X0141341Y0132312D01*
X0142340Y0133311D02*
X0125550Y0133311D01*
X0125550Y0134309D02*
X0143338Y0134309D01*
X0145584Y0132312D02*
X0238950Y0132312D01*
X0238950Y0131314D02*
X0146681Y0131314D01*
X0146681Y0130315D02*
X0238950Y0130315D01*
X0238950Y0129317D02*
X0146681Y0129317D01*
X0146681Y0128318D02*
X0238950Y0128318D01*
X0238950Y0127320D02*
X0146681Y0127320D01*
X0146681Y0126321D02*
X0238950Y0126321D01*
X0238950Y0133311D02*
X0146582Y0133311D01*
X0147581Y0134309D02*
X0238950Y0134309D01*
X0238950Y0135308D02*
X0148579Y0135308D01*
X0149578Y0136306D02*
X0238950Y0136306D01*
X0238950Y0137305D02*
X0150576Y0137305D01*
X0151575Y0138303D02*
X0238950Y0138303D01*
X0238950Y0139302D02*
X0152573Y0139302D01*
X0153572Y0140301D02*
X0238950Y0140301D01*
X0238950Y0141299D02*
X0154570Y0141299D01*
X0155569Y0142298D02*
X0238950Y0142298D01*
X0238950Y0143296D02*
X0156567Y0143296D01*
X0157566Y0144295D02*
X0238950Y0144295D01*
X0238950Y0145293D02*
X0158564Y0145293D01*
X0159563Y0146292D02*
X0238950Y0146292D01*
X0238950Y0147290D02*
X0160561Y0147290D01*
X0161560Y0148289D02*
X0238950Y0148289D01*
X0238950Y0149287D02*
X0162558Y0149287D01*
X0163557Y0150286D02*
X0238950Y0150286D01*
X0238950Y0151284D02*
X0164555Y0151284D01*
X0165554Y0152283D02*
X0238950Y0152283D01*
X0238950Y0153281D02*
X0166552Y0153281D01*
X0167551Y0154280D02*
X0238950Y0154280D01*
X0238950Y0155278D02*
X0168549Y0155278D01*
X0169548Y0156277D02*
X0238950Y0156277D01*
X0238950Y0157275D02*
X0170547Y0157275D01*
X0171545Y0158274D02*
X0238950Y0158274D01*
X0238950Y0159272D02*
X0172544Y0159272D01*
X0173542Y0160271D02*
X0238950Y0160271D01*
X0238950Y0161269D02*
X0174541Y0161269D01*
X0175539Y0162268D02*
X0238950Y0162268D01*
X0238950Y0163266D02*
X0176538Y0163266D01*
X0177536Y0164265D02*
X0238950Y0164265D01*
X0238950Y0165263D02*
X0178535Y0165263D01*
X0179533Y0166262D02*
X0238950Y0166262D01*
X0238950Y0167260D02*
X0180532Y0167260D01*
X0181530Y0168259D02*
X0238950Y0168259D01*
X0238950Y0169257D02*
X0182529Y0169257D01*
X0183527Y0170256D02*
X0238950Y0170256D01*
X0238950Y0171254D02*
X0184526Y0171254D01*
X0185524Y0172253D02*
X0238950Y0172253D01*
X0238950Y0173251D02*
X0186523Y0173251D01*
X0187150Y0174250D02*
X0238950Y0174250D01*
X0238950Y0175248D02*
X0187150Y0175248D01*
X0187150Y0176247D02*
X0238950Y0176247D01*
X0238950Y0177245D02*
X0187150Y0177245D01*
X0187150Y0178244D02*
X0238950Y0178244D01*
X0238950Y0179242D02*
X0187150Y0179242D01*
X0187150Y0180241D02*
X0238950Y0180241D01*
X0238950Y0181239D02*
X0187150Y0181239D01*
X0187150Y0182238D02*
X0238950Y0182238D01*
X0238950Y0183237D02*
X0187150Y0183237D01*
X0187150Y0184235D02*
X0238950Y0184235D01*
X0238950Y0185234D02*
X0187150Y0185234D01*
X0187150Y0186232D02*
X0238950Y0186232D01*
X0238950Y0187231D02*
X0187150Y0187231D01*
X0187150Y0188229D02*
X0238950Y0188229D01*
X0238950Y0189228D02*
X0187150Y0189228D01*
X0187150Y0190226D02*
X0238950Y0190226D01*
X0238950Y0191225D02*
X0187150Y0191225D01*
X0187150Y0192223D02*
X0220465Y0192223D01*
X0220465Y0192119D02*
X0221109Y0191475D01*
X0233044Y0191475D01*
X0233689Y0192119D01*
X0233689Y0200904D01*
X0233044Y0201549D01*
X0221109Y0201549D01*
X0220465Y0200904D01*
X0220465Y0192119D01*
X0220465Y0193222D02*
X0187150Y0193222D01*
X0187150Y0194220D02*
X0220465Y0194220D01*
X0220465Y0195219D02*
X0187150Y0195219D01*
X0187150Y0196217D02*
X0220465Y0196217D01*
X0220465Y0197216D02*
X0187150Y0197216D01*
X0187150Y0198214D02*
X0220465Y0198214D01*
X0220465Y0199213D02*
X0211318Y0199213D01*
X0211318Y0200211D02*
X0220465Y0200211D01*
X0220770Y0201210D02*
X0211318Y0201210D01*
X0212280Y0202208D02*
X0238950Y0202208D01*
X0238950Y0201210D02*
X0233383Y0201210D01*
X0233689Y0200211D02*
X0238950Y0200211D01*
X0238950Y0199213D02*
X0233689Y0199213D01*
X0233689Y0198214D02*
X0238950Y0198214D01*
X0238950Y0197216D02*
X0233689Y0197216D01*
X0233689Y0196217D02*
X0238950Y0196217D01*
X0238950Y0195219D02*
X0233689Y0195219D01*
X0233689Y0194220D02*
X0238950Y0194220D01*
X0238950Y0193222D02*
X0233689Y0193222D01*
X0233689Y0192223D02*
X0238950Y0192223D01*
X0238950Y0203207D02*
X0213278Y0203207D01*
X0214277Y0204205D02*
X0238950Y0204205D01*
X0238950Y0205204D02*
X0215275Y0205204D01*
X0216274Y0206202D02*
X0238950Y0206202D01*
X0238950Y0207201D02*
X0217272Y0207201D01*
X0218271Y0208199D02*
X0238950Y0208199D01*
X0238950Y0209198D02*
X0219269Y0209198D01*
X0220268Y0210196D02*
X0238950Y0210196D01*
X0238950Y0211195D02*
X0221266Y0211195D01*
X0222265Y0212193D02*
X0238950Y0212193D01*
X0238950Y0213192D02*
X0223263Y0213192D01*
X0224262Y0214190D02*
X0238950Y0214190D01*
X0238950Y0215189D02*
X0225260Y0215189D01*
X0226259Y0216187D02*
X0238950Y0216187D01*
X0238950Y0217186D02*
X0227150Y0217186D01*
X0227150Y0218184D02*
X0238950Y0218184D01*
X0238950Y0219183D02*
X0227150Y0219183D01*
X0227150Y0220181D02*
X0238950Y0220181D01*
X0238950Y0221180D02*
X0227150Y0221180D01*
X0227150Y0222178D02*
X0238950Y0222178D01*
X0238950Y0223177D02*
X0227150Y0223177D01*
X0227150Y0224175D02*
X0238950Y0224175D01*
X0238950Y0225174D02*
X0227150Y0225174D01*
X0227150Y0226172D02*
X0238950Y0226172D01*
X0238950Y0227171D02*
X0227150Y0227171D01*
X0227150Y0228170D02*
X0238950Y0228170D01*
X0238950Y0229168D02*
X0227150Y0229168D01*
X0227150Y0230167D02*
X0238950Y0230167D01*
X0238950Y0231165D02*
X0227150Y0231165D01*
X0227150Y0232164D02*
X0238950Y0232164D01*
X0238950Y0233162D02*
X0227150Y0233162D01*
X0227150Y0234161D02*
X0238950Y0234161D01*
X0238950Y0235159D02*
X0227150Y0235159D01*
X0227150Y0236158D02*
X0238950Y0236158D01*
X0238950Y0237156D02*
X0227150Y0237156D01*
X0227150Y0238155D02*
X0238950Y0238155D01*
X0238950Y0239153D02*
X0227150Y0239153D01*
X0227150Y0240152D02*
X0238950Y0240152D01*
X0238950Y0241150D02*
X0227150Y0241150D01*
X0227150Y0242149D02*
X0238950Y0242149D01*
X0238950Y0243147D02*
X0227150Y0243147D01*
X0227150Y0244146D02*
X0238950Y0244146D01*
X0238950Y0245144D02*
X0227150Y0245144D01*
X0227150Y0246143D02*
X0238950Y0246143D01*
X0238950Y0247141D02*
X0227150Y0247141D01*
X0227150Y0248140D02*
X0238950Y0248140D01*
X0238950Y0249138D02*
X0227150Y0249138D01*
X0227150Y0250137D02*
X0238950Y0250137D01*
X0238950Y0251135D02*
X0227150Y0251135D01*
X0227150Y0252134D02*
X0238950Y0252134D01*
X0238950Y0253132D02*
X0227150Y0253132D01*
X0227150Y0254131D02*
X0238950Y0254131D01*
X0238950Y0255129D02*
X0227150Y0255129D01*
X0227150Y0256128D02*
X0238950Y0256128D01*
X0238950Y0257126D02*
X0227150Y0257126D01*
X0227150Y0258125D02*
X0238950Y0258125D01*
X0238950Y0259123D02*
X0227150Y0259123D01*
X0227150Y0260122D02*
X0238950Y0260122D01*
X0238950Y0261120D02*
X0227150Y0261120D01*
X0227150Y0262119D02*
X0238950Y0262119D01*
X0238950Y0263117D02*
X0227150Y0263117D01*
X0227150Y0264116D02*
X0238950Y0264116D01*
X0238950Y0265114D02*
X0227150Y0265114D01*
X0227150Y0266113D02*
X0238950Y0266113D01*
X0238950Y0267111D02*
X0227150Y0267111D01*
X0227150Y0268110D02*
X0238950Y0268110D01*
X0238950Y0269108D02*
X0236608Y0269108D01*
X0238345Y0270107D02*
X0238950Y0270107D01*
X0233692Y0269108D02*
X0227150Y0269108D01*
X0227150Y0270107D02*
X0231955Y0270107D01*
X0231029Y0271105D02*
X0227150Y0271105D01*
X0227150Y0272104D02*
X0230616Y0272104D01*
X0230350Y0273103D02*
X0227150Y0273103D01*
X0227150Y0274101D02*
X0230350Y0274101D01*
X0230534Y0275100D02*
X0227150Y0275100D01*
X0227150Y0276098D02*
X0230948Y0276098D01*
X0231758Y0277097D02*
X0227150Y0277097D01*
X0227150Y0278095D02*
X0233218Y0278095D01*
X0237082Y0278095D02*
X0238950Y0278095D01*
X0238950Y0277097D02*
X0238542Y0277097D01*
X0238950Y0279094D02*
X0227150Y0279094D01*
X0227150Y0280092D02*
X0238950Y0280092D01*
X0238950Y0281091D02*
X0227150Y0281091D01*
X0227150Y0282089D02*
X0238950Y0282089D01*
X0238950Y0283088D02*
X0227150Y0283088D01*
X0227150Y0284086D02*
X0238950Y0284086D01*
X0238950Y0285085D02*
X0227150Y0285085D01*
X0227150Y0286083D02*
X0238950Y0286083D01*
X0238950Y0287082D02*
X0227150Y0287082D01*
X0227150Y0288080D02*
X0238950Y0288080D01*
X0238950Y0289079D02*
X0227150Y0289079D01*
X0227150Y0290077D02*
X0238950Y0290077D01*
X0238950Y0291076D02*
X0227150Y0291076D01*
X0226197Y0292074D02*
X0238950Y0292074D01*
X0238950Y0293073D02*
X0225199Y0293073D01*
X0224200Y0294071D02*
X0238950Y0294071D01*
X0238950Y0295070D02*
X0238174Y0295070D01*
X0235650Y0295070D02*
X0234650Y0295070D01*
X0234650Y0294114D02*
X0234650Y0298800D01*
X0229964Y0298800D01*
X0230078Y0298082D01*
X0230331Y0297304D01*
X0230703Y0296575D01*
X0231184Y0295912D01*
X0231762Y0295334D01*
X0232425Y0294853D01*
X0233154Y0294481D01*
X0233932Y0294228D01*
X0234650Y0294114D01*
X0234650Y0296068D02*
X0235650Y0296068D01*
X0235650Y0297067D02*
X0234650Y0297067D01*
X0234650Y0298065D02*
X0235650Y0298065D01*
X0234650Y0299064D02*
X0222150Y0299064D01*
X0222150Y0300062D02*
X0230006Y0300062D01*
X0230255Y0301061D02*
X0221816Y0301061D01*
X0221379Y0302059D02*
X0230727Y0302059D01*
X0231554Y0303058D02*
X0220380Y0303058D01*
X0218410Y0304056D02*
X0233031Y0304056D01*
X0234650Y0304056D02*
X0235650Y0304056D01*
X0235650Y0303058D02*
X0234650Y0303058D01*
X0234650Y0302059D02*
X0235650Y0302059D01*
X0235650Y0301061D02*
X0234650Y0301061D01*
X0234650Y0300062D02*
X0235650Y0300062D01*
X0237269Y0304056D02*
X0238370Y0304056D01*
X0238102Y0305055D02*
X0205155Y0305055D01*
X0205714Y0304824D02*
X0203839Y0305600D01*
X0201810Y0305600D01*
X0199936Y0304824D01*
X0198501Y0303389D01*
X0197725Y0301514D01*
X0197725Y0299486D01*
X0198501Y0297611D01*
X0199936Y0296176D01*
X0201810Y0295400D01*
X0203839Y0295400D01*
X0205714Y0296176D01*
X0207148Y0297611D01*
X0207925Y0299486D01*
X0207925Y0301514D01*
X0207148Y0303389D01*
X0205714Y0304824D01*
X0206481Y0304056D02*
X0216290Y0304056D01*
X0214320Y0303058D02*
X0207285Y0303058D01*
X0207699Y0302059D02*
X0213321Y0302059D01*
X0212884Y0301061D02*
X0207925Y0301061D01*
X0207925Y0300062D02*
X0212550Y0300062D01*
X0212550Y0299064D02*
X0207750Y0299064D01*
X0207337Y0298065D02*
X0212666Y0298065D01*
X0213080Y0297067D02*
X0206604Y0297067D01*
X0205453Y0296068D02*
X0213793Y0296068D01*
X0215020Y0295070D02*
X0191150Y0295070D01*
X0191400Y0294071D02*
X0219957Y0294071D01*
X0220956Y0293073D02*
X0192399Y0293073D01*
X0193397Y0292074D02*
X0221954Y0292074D01*
X0222953Y0291076D02*
X0194396Y0291076D01*
X0195394Y0290077D02*
X0223951Y0290077D01*
X0224150Y0289079D02*
X0196393Y0289079D01*
X0197391Y0288080D02*
X0224150Y0288080D01*
X0224150Y0287082D02*
X0198390Y0287082D01*
X0199388Y0286083D02*
X0224150Y0286083D01*
X0224150Y0285085D02*
X0200387Y0285085D01*
X0201385Y0284086D02*
X0224150Y0284086D01*
X0224150Y0283088D02*
X0202384Y0283088D01*
X0203382Y0282089D02*
X0224150Y0282089D01*
X0224150Y0281091D02*
X0204381Y0281091D01*
X0205379Y0280092D02*
X0224150Y0280092D01*
X0224150Y0279094D02*
X0206378Y0279094D01*
X0207376Y0278095D02*
X0215418Y0278095D01*
X0213958Y0277097D02*
X0208375Y0277097D01*
X0209373Y0276098D02*
X0213148Y0276098D01*
X0212734Y0275100D02*
X0210372Y0275100D01*
X0211370Y0274101D02*
X0212550Y0274101D01*
X0212550Y0273103D02*
X0212369Y0273103D01*
X0210123Y0271105D02*
X0191150Y0271105D01*
X0191150Y0270107D02*
X0211122Y0270107D01*
X0212120Y0269108D02*
X0191150Y0269108D01*
X0191150Y0268110D02*
X0213119Y0268110D01*
X0214117Y0267111D02*
X0191150Y0267111D01*
X0191150Y0266113D02*
X0215116Y0266113D01*
X0216114Y0265114D02*
X0191150Y0265114D01*
X0191150Y0264116D02*
X0217113Y0264116D01*
X0217750Y0263117D02*
X0191150Y0263117D01*
X0191150Y0262119D02*
X0217750Y0262119D01*
X0217750Y0261120D02*
X0191150Y0261120D01*
X0191150Y0260122D02*
X0217750Y0260122D01*
X0217750Y0259123D02*
X0191150Y0259123D01*
X0191150Y0258125D02*
X0217750Y0258125D01*
X0217750Y0257126D02*
X0191150Y0257126D01*
X0191150Y0256128D02*
X0217750Y0256128D01*
X0217750Y0255129D02*
X0211367Y0255129D01*
X0210955Y0255300D02*
X0209045Y0255300D01*
X0207281Y0254569D01*
X0205931Y0253219D01*
X0205200Y0251455D01*
X0205200Y0249545D01*
X0205931Y0247781D01*
X0207281Y0246431D01*
X0209045Y0245700D01*
X0210955Y0245700D01*
X0212719Y0246431D01*
X0214069Y0247781D01*
X0214800Y0249545D01*
X0214800Y0251455D01*
X0214069Y0253219D01*
X0212719Y0254569D01*
X0210955Y0255300D01*
X0208633Y0255129D02*
X0201367Y0255129D01*
X0203157Y0254131D02*
X0206843Y0254131D01*
X0205895Y0253132D02*
X0204105Y0253132D01*
X0204519Y0252134D02*
X0205481Y0252134D01*
X0205200Y0251135D02*
X0204800Y0251135D01*
X0204800Y0250137D02*
X0205200Y0250137D01*
X0205369Y0249138D02*
X0204631Y0249138D01*
X0204532Y0248140D02*
X0205782Y0248140D01*
X0205530Y0247141D02*
X0206571Y0247141D01*
X0206529Y0246143D02*
X0207976Y0246143D01*
X0207527Y0245144D02*
X0224150Y0245144D01*
X0224150Y0244146D02*
X0208526Y0244146D01*
X0209524Y0243147D02*
X0224150Y0243147D01*
X0224150Y0242149D02*
X0210523Y0242149D01*
X0211521Y0241150D02*
X0224150Y0241150D01*
X0224150Y0240152D02*
X0212520Y0240152D01*
X0213518Y0239153D02*
X0224150Y0239153D01*
X0224150Y0238155D02*
X0214350Y0238155D01*
X0214350Y0237156D02*
X0224150Y0237156D01*
X0224150Y0236158D02*
X0214350Y0236158D01*
X0214350Y0235159D02*
X0224150Y0235159D01*
X0224150Y0234161D02*
X0214350Y0234161D01*
X0214350Y0233162D02*
X0224150Y0233162D01*
X0224150Y0232164D02*
X0214350Y0232164D01*
X0214350Y0231165D02*
X0217757Y0231165D01*
X0216850Y0230167D02*
X0214350Y0230167D01*
X0214350Y0229168D02*
X0216793Y0229168D01*
X0216793Y0228170D02*
X0214350Y0228170D01*
X0214350Y0227171D02*
X0220155Y0227171D01*
X0220156Y0228170D02*
X0221155Y0228170D01*
X0221155Y0229168D02*
X0220156Y0229168D01*
X0220156Y0230167D02*
X0221155Y0230167D01*
X0221155Y0231165D02*
X0220156Y0231165D01*
X0220156Y0226172D02*
X0221155Y0226172D01*
X0221155Y0225174D02*
X0220156Y0225174D01*
X0220156Y0224175D02*
X0221155Y0224175D01*
X0221155Y0223177D02*
X0220156Y0223177D01*
X0217239Y0223177D02*
X0214048Y0223177D01*
X0214350Y0224175D02*
X0216793Y0224175D01*
X0216793Y0225174D02*
X0214350Y0225174D01*
X0214350Y0226172D02*
X0216793Y0226172D01*
X0213550Y0222178D02*
X0224150Y0222178D01*
X0224150Y0221180D02*
X0213550Y0221180D01*
X0213550Y0220181D02*
X0224150Y0220181D01*
X0224150Y0219183D02*
X0213550Y0219183D01*
X0213550Y0218184D02*
X0224013Y0218184D01*
X0223015Y0217186D02*
X0213550Y0217186D01*
X0213550Y0216187D02*
X0222016Y0216187D01*
X0221018Y0215189D02*
X0213550Y0215189D01*
X0214911Y0214190D02*
X0220019Y0214190D01*
X0219021Y0213192D02*
X0215059Y0213192D01*
X0215059Y0212193D02*
X0218022Y0212193D01*
X0217024Y0211195D02*
X0215059Y0211195D01*
X0215059Y0210196D02*
X0216025Y0210196D01*
X0212031Y0206202D02*
X0187150Y0206202D01*
X0187150Y0205204D02*
X0205181Y0205204D01*
X0205181Y0204205D02*
X0187150Y0204205D01*
X0187150Y0203207D02*
X0205181Y0203207D01*
X0205181Y0202208D02*
X0187150Y0202208D01*
X0187150Y0201210D02*
X0205181Y0201210D01*
X0205181Y0200211D02*
X0187150Y0200211D01*
X0187150Y0199213D02*
X0205181Y0199213D01*
X0207160Y0207201D02*
X0209340Y0207201D01*
X0208922Y0208199D02*
X0207578Y0208199D01*
X0207578Y0209198D02*
X0208922Y0209198D01*
X0208922Y0210196D02*
X0207578Y0210196D01*
X0207578Y0211195D02*
X0208922Y0211195D01*
X0208922Y0212193D02*
X0207578Y0212193D01*
X0207578Y0213192D02*
X0208922Y0213192D01*
X0209070Y0214190D02*
X0207430Y0214190D01*
X0205550Y0215189D02*
X0210550Y0215189D01*
X0210550Y0216187D02*
X0205550Y0216187D01*
X0205550Y0217186D02*
X0210550Y0217186D01*
X0210550Y0218184D02*
X0204887Y0218184D01*
X0203888Y0219183D02*
X0210550Y0219183D01*
X0210550Y0220181D02*
X0202890Y0220181D01*
X0201891Y0221180D02*
X0210550Y0221180D01*
X0210550Y0222178D02*
X0200893Y0222178D01*
X0199894Y0223177D02*
X0205994Y0223177D01*
X0205382Y0224175D02*
X0202961Y0224175D01*
X0203165Y0225174D02*
X0205382Y0225174D01*
X0205382Y0229168D02*
X0203165Y0229168D01*
X0202619Y0230167D02*
X0205382Y0230167D01*
X0210274Y0238155D02*
X0190517Y0238155D01*
X0189518Y0239153D02*
X0209276Y0239153D01*
X0208277Y0240152D02*
X0188520Y0240152D01*
X0187521Y0241150D02*
X0207279Y0241150D01*
X0206280Y0242149D02*
X0186523Y0242149D01*
X0185524Y0243147D02*
X0205281Y0243147D01*
X0204283Y0244146D02*
X0184526Y0244146D01*
X0183527Y0245144D02*
X0203284Y0245144D01*
X0202286Y0246143D02*
X0202024Y0246143D01*
X0197976Y0246143D02*
X0192024Y0246143D01*
X0192719Y0246431D02*
X0194069Y0247781D01*
X0194800Y0249545D01*
X0194800Y0251455D01*
X0194069Y0253219D01*
X0192719Y0254569D01*
X0191150Y0255219D01*
X0191150Y0287121D01*
X0179903Y0298368D01*
X0180366Y0299486D01*
X0180366Y0301514D01*
X0179589Y0303389D01*
X0178155Y0304824D01*
X0176280Y0305600D01*
X0174251Y0305600D01*
X0172377Y0304824D01*
X0170942Y0303389D01*
X0170166Y0301514D01*
X0170166Y0299486D01*
X0170942Y0297611D01*
X0172377Y0296176D01*
X0174251Y0295400D01*
X0176280Y0295400D01*
X0177941Y0296088D01*
X0188150Y0285879D01*
X0188150Y0254929D01*
X0187281Y0254569D01*
X0185931Y0253219D01*
X0185200Y0251455D01*
X0185200Y0249545D01*
X0185931Y0247781D01*
X0187281Y0246431D01*
X0189045Y0245700D01*
X0190955Y0245700D01*
X0192719Y0246431D01*
X0193429Y0247141D02*
X0196571Y0247141D01*
X0195782Y0248140D02*
X0194218Y0248140D01*
X0194631Y0249138D02*
X0195369Y0249138D01*
X0195200Y0250137D02*
X0194800Y0250137D01*
X0194800Y0251135D02*
X0195200Y0251135D01*
X0195481Y0252134D02*
X0194519Y0252134D01*
X0194105Y0253132D02*
X0195895Y0253132D01*
X0196843Y0254131D02*
X0193157Y0254131D01*
X0191367Y0255129D02*
X0198633Y0255129D01*
X0188150Y0255129D02*
X0181367Y0255129D01*
X0183157Y0254131D02*
X0186843Y0254131D01*
X0185895Y0253132D02*
X0184105Y0253132D01*
X0184519Y0252134D02*
X0185481Y0252134D01*
X0185200Y0251135D02*
X0184800Y0251135D01*
X0184800Y0250137D02*
X0185200Y0250137D01*
X0185369Y0249138D02*
X0184631Y0249138D01*
X0184218Y0248140D02*
X0185782Y0248140D01*
X0186571Y0247141D02*
X0183429Y0247141D01*
X0182529Y0246143D02*
X0187976Y0246143D01*
X0183279Y0241150D02*
X0156321Y0241150D01*
X0157320Y0240152D02*
X0179508Y0240152D01*
X0179050Y0239153D02*
X0168882Y0239153D01*
X0170128Y0238155D02*
X0179078Y0238155D01*
X0179600Y0237156D02*
X0170450Y0237156D01*
X0170914Y0236158D02*
X0173986Y0236158D01*
X0170350Y0232164D02*
X0170150Y0232164D01*
X0170150Y0231165D02*
X0170350Y0231165D01*
X0170350Y0230167D02*
X0170150Y0230167D01*
X0170150Y0229168D02*
X0170350Y0229168D01*
X0170350Y0228170D02*
X0170150Y0228170D01*
X0170150Y0227171D02*
X0170350Y0227171D01*
X0170350Y0226172D02*
X0170150Y0226172D01*
X0169680Y0225174D02*
X0170820Y0225174D01*
X0168750Y0224175D02*
X0173750Y0224175D01*
X0173750Y0223177D02*
X0168750Y0223177D01*
X0168750Y0222178D02*
X0173750Y0222178D01*
X0173750Y0221180D02*
X0168051Y0221180D01*
X0167053Y0220181D02*
X0173750Y0220181D01*
X0173750Y0219183D02*
X0166054Y0219183D01*
X0165056Y0218184D02*
X0173750Y0218184D01*
X0173750Y0217186D02*
X0164057Y0217186D01*
X0163059Y0216187D02*
X0173750Y0216187D01*
X0173750Y0215189D02*
X0162060Y0215189D01*
X0161062Y0214190D02*
X0173750Y0214190D01*
X0173750Y0213192D02*
X0160063Y0213192D01*
X0159065Y0212193D02*
X0173750Y0212193D01*
X0172900Y0211195D02*
X0172600Y0211195D01*
X0172600Y0210196D02*
X0172900Y0210196D01*
X0172900Y0209198D02*
X0172600Y0209198D01*
X0172600Y0208199D02*
X0172900Y0208199D01*
X0172900Y0207201D02*
X0172600Y0207201D01*
X0172600Y0206202D02*
X0172900Y0206202D01*
X0172900Y0205204D02*
X0172600Y0205204D01*
X0172600Y0204205D02*
X0172900Y0204205D01*
X0172900Y0203207D02*
X0172600Y0203207D01*
X0172600Y0202208D02*
X0172900Y0202208D01*
X0172900Y0201210D02*
X0172600Y0201210D01*
X0173750Y0200211D02*
X0156750Y0200211D01*
X0156750Y0199213D02*
X0173750Y0199213D01*
X0173750Y0198214D02*
X0156750Y0198214D01*
X0156750Y0197216D02*
X0173750Y0197216D01*
X0173750Y0196217D02*
X0156750Y0196217D01*
X0156750Y0195219D02*
X0173750Y0195219D01*
X0173750Y0194220D02*
X0156750Y0194220D01*
X0156750Y0193222D02*
X0173750Y0193222D01*
X0173750Y0192223D02*
X0156750Y0192223D01*
X0156750Y0191225D02*
X0173750Y0191225D01*
X0173750Y0190226D02*
X0156750Y0190226D01*
X0156750Y0189228D02*
X0173750Y0189228D01*
X0173750Y0188229D02*
X0156750Y0188229D01*
X0156750Y0187231D02*
X0173750Y0187231D01*
X0173750Y0186232D02*
X0156750Y0186232D01*
X0156750Y0185234D02*
X0173750Y0185234D01*
X0173750Y0184235D02*
X0156750Y0184235D01*
X0156750Y0183237D02*
X0173750Y0183237D01*
X0173750Y0182238D02*
X0156750Y0182238D01*
X0156750Y0181239D02*
X0173750Y0181239D01*
X0173750Y0180241D02*
X0156750Y0180241D01*
X0156750Y0179242D02*
X0173750Y0179242D01*
X0173750Y0178244D02*
X0156750Y0178244D01*
X0156750Y0177245D02*
X0173750Y0177245D01*
X0173750Y0176247D02*
X0156750Y0176247D01*
X0156750Y0175248D02*
X0173750Y0175248D01*
X0173679Y0174250D02*
X0156750Y0174250D01*
X0156750Y0173251D02*
X0172680Y0173251D01*
X0171682Y0172253D02*
X0155924Y0172253D01*
X0154926Y0171254D02*
X0170683Y0171254D01*
X0169685Y0170256D02*
X0153927Y0170256D01*
X0152929Y0169257D02*
X0168686Y0169257D01*
X0167688Y0168259D02*
X0151930Y0168259D01*
X0150932Y0167260D02*
X0166689Y0167260D01*
X0165691Y0166262D02*
X0149933Y0166262D01*
X0148935Y0165263D02*
X0164692Y0165263D01*
X0163693Y0164265D02*
X0147936Y0164265D01*
X0146938Y0163266D02*
X0162695Y0163266D01*
X0161696Y0162268D02*
X0145939Y0162268D01*
X0146552Y0161269D02*
X0160698Y0161269D01*
X0159699Y0160271D02*
X0146681Y0160271D01*
X0146681Y0159272D02*
X0158701Y0159272D01*
X0157702Y0158274D02*
X0146681Y0158274D01*
X0146681Y0157275D02*
X0156704Y0157275D01*
X0155705Y0156277D02*
X0146681Y0156277D01*
X0146454Y0155278D02*
X0154707Y0155278D01*
X0153708Y0154280D02*
X0125550Y0154280D01*
X0125550Y0155278D02*
X0128959Y0155278D01*
X0128733Y0156277D02*
X0125550Y0156277D01*
X0125550Y0157275D02*
X0128733Y0157275D01*
X0128733Y0158274D02*
X0125550Y0158274D01*
X0125550Y0159272D02*
X0128733Y0159272D01*
X0128733Y0160271D02*
X0125550Y0160271D01*
X0125550Y0161269D02*
X0128861Y0161269D01*
X0128817Y0165263D02*
X0125550Y0165263D01*
X0125550Y0164265D02*
X0143693Y0164265D01*
X0142695Y0163266D02*
X0125550Y0163266D01*
X0125550Y0162268D02*
X0141696Y0162268D01*
X0138207Y0152283D02*
X0137207Y0152283D01*
X0137207Y0152343D02*
X0129635Y0152343D01*
X0129254Y0152240D01*
X0128912Y0152043D01*
X0128632Y0151764D01*
X0128435Y0151421D01*
X0128333Y0151040D01*
X0128333Y0148980D01*
X0137207Y0148980D01*
X0137207Y0152343D01*
X0137207Y0151284D02*
X0138207Y0151284D01*
X0138207Y0150286D02*
X0137207Y0150286D01*
X0137207Y0149287D02*
X0138207Y0149287D01*
X0138207Y0148289D02*
X0147717Y0148289D01*
X0147081Y0149287D02*
X0148716Y0149287D01*
X0149714Y0150286D02*
X0147081Y0150286D01*
X0147015Y0151284D02*
X0150713Y0151284D01*
X0151711Y0152283D02*
X0146002Y0152283D01*
X0143723Y0144295D02*
X0125550Y0144295D01*
X0125550Y0145293D02*
X0128577Y0145293D01*
X0128632Y0145197D02*
X0128912Y0144918D01*
X0129254Y0144720D01*
X0129635Y0144618D01*
X0137207Y0144618D01*
X0137207Y0147980D01*
X0128333Y0147980D01*
X0128333Y0145921D01*
X0128435Y0145539D01*
X0128632Y0145197D01*
X0128333Y0146292D02*
X0125550Y0146292D01*
X0125550Y0147290D02*
X0128333Y0147290D01*
X0128333Y0149287D02*
X0125550Y0149287D01*
X0125550Y0148289D02*
X0137207Y0148289D01*
X0137207Y0147290D02*
X0138207Y0147290D01*
X0138207Y0146292D02*
X0137207Y0146292D01*
X0137207Y0145293D02*
X0138207Y0145293D01*
X0141726Y0142298D02*
X0125550Y0142298D01*
X0125550Y0143296D02*
X0142725Y0143296D01*
X0152710Y0153281D02*
X0125550Y0153281D01*
X0125550Y0152283D02*
X0129412Y0152283D01*
X0128398Y0151284D02*
X0125550Y0151284D01*
X0125550Y0150286D02*
X0128333Y0150286D01*
X0122550Y0150286D02*
X0121350Y0150286D01*
X0121350Y0151284D02*
X0122550Y0151284D01*
X0122550Y0152283D02*
X0121350Y0152283D01*
X0121350Y0153281D02*
X0122550Y0153281D01*
X0122550Y0154280D02*
X0121350Y0154280D01*
X0121350Y0155278D02*
X0122550Y0155278D01*
X0122550Y0156277D02*
X0121350Y0156277D01*
X0121350Y0157275D02*
X0122550Y0157275D01*
X0122550Y0158274D02*
X0121350Y0158274D01*
X0121350Y0159272D02*
X0122550Y0159272D01*
X0122550Y0160271D02*
X0121350Y0160271D01*
X0121350Y0161269D02*
X0122550Y0161269D01*
X0122550Y0162268D02*
X0121350Y0162268D01*
X0121350Y0163266D02*
X0122550Y0163266D01*
X0122550Y0164265D02*
X0121350Y0164265D01*
X0121350Y0165263D02*
X0122550Y0165263D01*
X0122550Y0166262D02*
X0121350Y0166262D01*
X0121350Y0167260D02*
X0122550Y0167260D01*
X0122550Y0168259D02*
X0121350Y0168259D01*
X0121350Y0169257D02*
X0122550Y0169257D01*
X0122550Y0170256D02*
X0121350Y0170256D01*
X0121350Y0171254D02*
X0122550Y0171254D01*
X0122550Y0172253D02*
X0121350Y0172253D01*
X0121350Y0173251D02*
X0122550Y0173251D01*
X0122550Y0174250D02*
X0121350Y0174250D01*
X0121350Y0175248D02*
X0122550Y0175248D01*
X0122550Y0176247D02*
X0121350Y0176247D01*
X0121350Y0177245D02*
X0122550Y0177245D01*
X0122550Y0178244D02*
X0121350Y0178244D01*
X0121350Y0179242D02*
X0122550Y0179242D01*
X0122550Y0180241D02*
X0121350Y0180241D01*
X0121350Y0181239D02*
X0122550Y0181239D01*
X0122550Y0182238D02*
X0121350Y0182238D01*
X0121350Y0183237D02*
X0122550Y0183237D01*
X0122550Y0184235D02*
X0121350Y0184235D01*
X0121350Y0185234D02*
X0122550Y0185234D01*
X0122550Y0186232D02*
X0121350Y0186232D01*
X0121350Y0187231D02*
X0122550Y0187231D01*
X0122550Y0188229D02*
X0121350Y0188229D01*
X0121350Y0189228D02*
X0122550Y0189228D01*
X0122550Y0190226D02*
X0121350Y0190226D01*
X0121350Y0191225D02*
X0122550Y0191225D01*
X0122133Y0192223D02*
X0121350Y0192223D01*
X0121350Y0193222D02*
X0121650Y0193222D01*
X0123937Y0196217D02*
X0128446Y0196217D01*
X0129444Y0197216D02*
X0124935Y0197216D01*
X0125934Y0198214D02*
X0130443Y0198214D01*
X0131441Y0199213D02*
X0126933Y0199213D01*
X0127931Y0200211D02*
X0132440Y0200211D01*
X0133438Y0201210D02*
X0128930Y0201210D01*
X0129928Y0202208D02*
X0134437Y0202208D01*
X0135435Y0203207D02*
X0130927Y0203207D01*
X0131925Y0204205D02*
X0136434Y0204205D01*
X0137432Y0205204D02*
X0132924Y0205204D01*
X0133922Y0206202D02*
X0138431Y0206202D01*
X0139429Y0207201D02*
X0134921Y0207201D01*
X0135919Y0208199D02*
X0140428Y0208199D01*
X0141426Y0209198D02*
X0136918Y0209198D01*
X0137916Y0210196D02*
X0142425Y0210196D01*
X0143423Y0211195D02*
X0138915Y0211195D01*
X0139913Y0212193D02*
X0144422Y0212193D01*
X0145421Y0213192D02*
X0140912Y0213192D01*
X0141910Y0214190D02*
X0146419Y0214190D01*
X0147418Y0215189D02*
X0142909Y0215189D01*
X0143907Y0216187D02*
X0148416Y0216187D01*
X0149415Y0217186D02*
X0144350Y0217186D01*
X0144350Y0218184D02*
X0150413Y0218184D01*
X0151412Y0219183D02*
X0144350Y0219183D01*
X0144350Y0220181D02*
X0152410Y0220181D01*
X0153409Y0221180D02*
X0144350Y0221180D01*
X0144350Y0222178D02*
X0154407Y0222178D01*
X0155406Y0223177D02*
X0144350Y0223177D01*
X0144350Y0224175D02*
X0156150Y0224175D01*
X0155820Y0225174D02*
X0154680Y0225174D01*
X0155150Y0226172D02*
X0155350Y0226172D01*
X0155350Y0227171D02*
X0155150Y0227171D01*
X0155150Y0228170D02*
X0155350Y0228170D01*
X0155350Y0229168D02*
X0155150Y0229168D01*
X0155150Y0230167D02*
X0155350Y0230167D01*
X0155350Y0231165D02*
X0155150Y0231165D01*
X0155150Y0232164D02*
X0155350Y0232164D01*
X0155350Y0233162D02*
X0155150Y0233162D01*
X0155150Y0234161D02*
X0155350Y0234161D01*
X0155953Y0235159D02*
X0154547Y0235159D01*
X0156073Y0237156D02*
X0149915Y0237156D01*
X0148917Y0238155D02*
X0155074Y0238155D01*
X0154076Y0239153D02*
X0148050Y0239153D01*
X0147895Y0240152D02*
X0153077Y0240152D01*
X0152079Y0241150D02*
X0147194Y0241150D01*
X0144350Y0242149D02*
X0151080Y0242149D01*
X0150081Y0243147D02*
X0144350Y0243147D01*
X0144350Y0244146D02*
X0146683Y0244146D01*
X0145684Y0245144D02*
X0144350Y0245144D01*
X0144350Y0246143D02*
X0144686Y0246143D01*
X0140150Y0246143D02*
X0137024Y0246143D01*
X0137719Y0246431D02*
X0139069Y0247781D01*
X0139800Y0249545D01*
X0139800Y0251455D01*
X0139069Y0253219D01*
X0137719Y0254569D01*
X0135955Y0255300D01*
X0134045Y0255300D01*
X0132281Y0254569D01*
X0130931Y0253219D01*
X0130200Y0251455D01*
X0130200Y0249545D01*
X0130931Y0247781D01*
X0132281Y0246431D01*
X0134045Y0245700D01*
X0135955Y0245700D01*
X0137719Y0246431D01*
X0138429Y0247141D02*
X0140150Y0247141D01*
X0140150Y0248140D02*
X0139218Y0248140D01*
X0139631Y0249138D02*
X0140150Y0249138D01*
X0140150Y0250137D02*
X0139800Y0250137D01*
X0139800Y0251135D02*
X0140150Y0251135D01*
X0140150Y0252134D02*
X0139519Y0252134D01*
X0139105Y0253132D02*
X0140150Y0253132D01*
X0140150Y0254131D02*
X0138157Y0254131D01*
X0136367Y0255129D02*
X0140150Y0255129D01*
X0140150Y0256128D02*
X0104543Y0256128D01*
X0105371Y0255300D02*
X0094350Y0266321D01*
X0094350Y0295709D01*
X0095477Y0296176D01*
X0096912Y0297611D01*
X0097689Y0299486D01*
X0097689Y0301514D01*
X0097073Y0303001D01*
X0098271Y0304200D01*
X0102856Y0304200D01*
X0102045Y0303389D01*
X0101268Y0301514D01*
X0101268Y0299486D01*
X0102045Y0297611D01*
X0103479Y0296176D01*
X0104268Y0295850D01*
X0104268Y0292512D01*
X0140150Y0256630D01*
X0140150Y0229600D01*
X0101829Y0229600D01*
X0100950Y0228721D01*
X0097029Y0224800D01*
X0094954Y0224800D01*
X0094414Y0225340D01*
X0091535Y0225340D01*
X0091400Y0225205D01*
X0091265Y0225340D01*
X0088385Y0225340D01*
X0088250Y0225205D01*
X0088115Y0225340D01*
X0085235Y0225340D01*
X0085100Y0225205D01*
X0084965Y0225340D01*
X0082086Y0225340D01*
X0081441Y0224696D01*
X0081441Y0221225D01*
X0082086Y0220581D01*
X0084965Y0220581D01*
X0085100Y0220716D01*
X0085235Y0220581D01*
X0088115Y0220581D01*
X0088250Y0220716D01*
X0088385Y0220581D01*
X0091265Y0220581D01*
X0091400Y0220716D01*
X0091535Y0220581D01*
X0094414Y0220581D01*
X0095059Y0221225D01*
X0095059Y0221800D01*
X0098271Y0221800D01*
X0103071Y0226600D01*
X0106382Y0226600D01*
X0106382Y0221354D01*
X0098729Y0213700D01*
X0098244Y0213700D01*
X0097600Y0213056D01*
X0097600Y0206971D01*
X0096900Y0206271D01*
X0096900Y0213056D01*
X0096256Y0213700D01*
X0095150Y0213700D01*
X0095150Y0217344D01*
X0095269Y0217582D01*
X0095150Y0217942D01*
X0095150Y0218321D01*
X0095059Y0218413D01*
X0095059Y0219775D01*
X0094414Y0220419D01*
X0091535Y0220419D01*
X0091400Y0220284D01*
X0091265Y0220419D01*
X0088385Y0220419D01*
X0088250Y0220284D01*
X0088115Y0220419D01*
X0085235Y0220419D01*
X0085100Y0220284D01*
X0084965Y0220419D01*
X0082086Y0220419D01*
X0081441Y0219775D01*
X0081441Y0217630D01*
X0066350Y0232721D01*
X0066350Y0243921D01*
X0064571Y0245700D01*
X0065955Y0245700D01*
X0067719Y0246431D01*
X0069069Y0247781D01*
X0069800Y0249545D01*
X0069800Y0251455D01*
X0069069Y0253219D01*
X0067719Y0254569D01*
X0065955Y0255300D01*
X0064045Y0255300D01*
X0062281Y0254569D01*
X0061392Y0253680D01*
X0058350Y0256721D01*
X0057471Y0257600D01*
X0050629Y0257600D01*
X0047633Y0254605D01*
X0045955Y0255300D01*
X0044571Y0255300D01*
X0058350Y0269079D01*
X0058350Y0299479D01*
X0059930Y0301058D01*
X0059930Y0299486D01*
X0060706Y0297611D01*
X0062141Y0296176D01*
X0064015Y0295400D01*
X0064150Y0295400D01*
X0064150Y0269079D01*
X0080661Y0252568D01*
X0080200Y0251455D01*
X0080200Y0249545D01*
X0080931Y0247781D01*
X0082281Y0246431D01*
X0084045Y0245700D01*
X0085955Y0245700D01*
X0087719Y0246431D01*
X0089069Y0247781D01*
X0089800Y0249545D01*
X0089800Y0251455D01*
X0089069Y0253219D01*
X0087719Y0254569D01*
X0085955Y0255300D01*
X0084045Y0255300D01*
X0082720Y0254751D01*
X0067150Y0270321D01*
X0067150Y0295858D01*
X0067918Y0296176D01*
X0069353Y0297611D01*
X0070130Y0299486D01*
X0070130Y0301514D01*
X0069353Y0303389D01*
X0067918Y0304824D01*
X0066044Y0305600D01*
X0064471Y0305600D01*
X0064671Y0305800D01*
X0095629Y0305800D01*
X0094894Y0305065D01*
X0093603Y0305600D01*
X0091574Y0305600D01*
X0089700Y0304824D01*
X0088265Y0303389D01*
X0087489Y0301514D01*
X0087489Y0299486D01*
X0088265Y0297611D01*
X0089700Y0296176D01*
X0091350Y0295493D01*
X0091350Y0266921D01*
X0080750Y0277521D01*
X0080750Y0295784D01*
X0081698Y0296176D01*
X0083133Y0297611D01*
X0083909Y0299486D01*
X0083909Y0301514D01*
X0083133Y0303389D01*
X0081698Y0304824D01*
X0079824Y0305600D01*
X0077795Y0305600D01*
X0075920Y0304824D01*
X0074485Y0303389D01*
X0073709Y0301514D01*
X0073709Y0299486D01*
X0074485Y0297611D01*
X0075920Y0296176D01*
X0077750Y0295418D01*
X0077750Y0276279D01*
X0078629Y0275400D01*
X0092950Y0261079D01*
X0092950Y0254846D01*
X0092281Y0254569D01*
X0090931Y0253219D01*
X0090200Y0251455D01*
X0090200Y0249545D01*
X0090931Y0247781D01*
X0092281Y0246431D01*
X0094045Y0245700D01*
X0095955Y0245700D01*
X0097719Y0246431D01*
X0099069Y0247781D01*
X0099800Y0249545D01*
X0099800Y0251455D01*
X0099069Y0253219D01*
X0097719Y0254569D01*
X0095955Y0255300D01*
X0095950Y0255300D01*
X0095950Y0260479D01*
X0102070Y0254358D01*
X0100931Y0253219D01*
X0100200Y0251455D01*
X0100200Y0249545D01*
X0100931Y0247781D01*
X0102281Y0246431D01*
X0104045Y0245700D01*
X0105955Y0245700D01*
X0107719Y0246431D01*
X0109069Y0247781D01*
X0109800Y0249545D01*
X0109800Y0251455D01*
X0109069Y0253219D01*
X0107719Y0254569D01*
X0105955Y0255300D01*
X0105371Y0255300D01*
X0106367Y0255129D02*
X0113633Y0255129D01*
X0114045Y0255300D02*
X0112281Y0254569D01*
X0110931Y0253219D01*
X0110200Y0251455D01*
X0110200Y0249545D01*
X0110931Y0247781D01*
X0112281Y0246431D01*
X0114045Y0245700D01*
X0115955Y0245700D01*
X0117719Y0246431D01*
X0119069Y0247781D01*
X0119800Y0249545D01*
X0119800Y0251455D01*
X0119069Y0253219D01*
X0117719Y0254569D01*
X0115955Y0255300D01*
X0114045Y0255300D01*
X0116367Y0255129D02*
X0123633Y0255129D01*
X0124045Y0255300D02*
X0122281Y0254569D01*
X0120931Y0253219D01*
X0120200Y0251455D01*
X0120200Y0249545D01*
X0120931Y0247781D01*
X0122281Y0246431D01*
X0124045Y0245700D01*
X0125955Y0245700D01*
X0127719Y0246431D01*
X0129069Y0247781D01*
X0129800Y0249545D01*
X0129800Y0251455D01*
X0129069Y0253219D01*
X0127719Y0254569D01*
X0125955Y0255300D01*
X0124045Y0255300D01*
X0126367Y0255129D02*
X0133633Y0255129D01*
X0131843Y0254131D02*
X0128157Y0254131D01*
X0129105Y0253132D02*
X0130895Y0253132D01*
X0130481Y0252134D02*
X0129519Y0252134D01*
X0129800Y0251135D02*
X0130200Y0251135D01*
X0130200Y0250137D02*
X0129800Y0250137D01*
X0129631Y0249138D02*
X0130369Y0249138D01*
X0130782Y0248140D02*
X0129218Y0248140D01*
X0128429Y0247141D02*
X0131571Y0247141D01*
X0132976Y0246143D02*
X0127024Y0246143D01*
X0122976Y0246143D02*
X0117024Y0246143D01*
X0118429Y0247141D02*
X0121571Y0247141D01*
X0120782Y0248140D02*
X0119218Y0248140D01*
X0119631Y0249138D02*
X0120369Y0249138D01*
X0120200Y0250137D02*
X0119800Y0250137D01*
X0119800Y0251135D02*
X0120200Y0251135D01*
X0120481Y0252134D02*
X0119519Y0252134D01*
X0119105Y0253132D02*
X0120895Y0253132D01*
X0121843Y0254131D02*
X0118157Y0254131D01*
X0111843Y0254131D02*
X0108157Y0254131D01*
X0109105Y0253132D02*
X0110895Y0253132D01*
X0110481Y0252134D02*
X0109519Y0252134D01*
X0109800Y0251135D02*
X0110200Y0251135D01*
X0110200Y0250137D02*
X0109800Y0250137D01*
X0109631Y0249138D02*
X0110369Y0249138D01*
X0110782Y0248140D02*
X0109218Y0248140D01*
X0108429Y0247141D02*
X0111571Y0247141D01*
X0112976Y0246143D02*
X0107024Y0246143D01*
X0102976Y0246143D02*
X0097024Y0246143D01*
X0098429Y0247141D02*
X0101571Y0247141D01*
X0100782Y0248140D02*
X0099218Y0248140D01*
X0099631Y0249138D02*
X0100369Y0249138D01*
X0100200Y0250137D02*
X0099800Y0250137D01*
X0099800Y0251135D02*
X0100200Y0251135D01*
X0100481Y0252134D02*
X0099519Y0252134D01*
X0099105Y0253132D02*
X0100895Y0253132D01*
X0101843Y0254131D02*
X0098157Y0254131D01*
X0096367Y0255129D02*
X0101299Y0255129D01*
X0100301Y0256128D02*
X0095950Y0256128D01*
X0095950Y0257126D02*
X0099302Y0257126D01*
X0098304Y0258125D02*
X0095950Y0258125D01*
X0095950Y0259123D02*
X0097305Y0259123D01*
X0096307Y0260122D02*
X0095950Y0260122D01*
X0092950Y0260122D02*
X0077349Y0260122D01*
X0076351Y0261120D02*
X0092908Y0261120D01*
X0091910Y0262119D02*
X0075352Y0262119D01*
X0074354Y0263117D02*
X0090911Y0263117D01*
X0089913Y0264116D02*
X0073355Y0264116D01*
X0072357Y0265114D02*
X0088914Y0265114D01*
X0087916Y0266113D02*
X0071358Y0266113D01*
X0070360Y0267111D02*
X0086917Y0267111D01*
X0085919Y0268110D02*
X0069361Y0268110D01*
X0068363Y0269108D02*
X0084920Y0269108D01*
X0083922Y0270107D02*
X0067364Y0270107D01*
X0067150Y0271105D02*
X0082923Y0271105D01*
X0081925Y0272104D02*
X0067150Y0272104D01*
X0067150Y0273103D02*
X0080926Y0273103D01*
X0079928Y0274101D02*
X0067150Y0274101D01*
X0067150Y0275100D02*
X0078929Y0275100D01*
X0077931Y0276098D02*
X0067150Y0276098D01*
X0067150Y0277097D02*
X0077750Y0277097D01*
X0077750Y0278095D02*
X0067150Y0278095D01*
X0067150Y0279094D02*
X0077750Y0279094D01*
X0077750Y0280092D02*
X0067150Y0280092D01*
X0067150Y0281091D02*
X0077750Y0281091D01*
X0077750Y0282089D02*
X0067150Y0282089D01*
X0067150Y0283088D02*
X0077750Y0283088D01*
X0077750Y0284086D02*
X0067150Y0284086D01*
X0067150Y0285085D02*
X0077750Y0285085D01*
X0077750Y0286083D02*
X0067150Y0286083D01*
X0067150Y0287082D02*
X0077750Y0287082D01*
X0077750Y0288080D02*
X0067150Y0288080D01*
X0067150Y0289079D02*
X0077750Y0289079D01*
X0077750Y0290077D02*
X0067150Y0290077D01*
X0067150Y0291076D02*
X0077750Y0291076D01*
X0077750Y0292074D02*
X0067150Y0292074D01*
X0067150Y0293073D02*
X0077750Y0293073D01*
X0077750Y0294071D02*
X0067150Y0294071D01*
X0067150Y0295070D02*
X0077750Y0295070D01*
X0076181Y0296068D02*
X0067657Y0296068D01*
X0068809Y0297067D02*
X0075030Y0297067D01*
X0074297Y0298065D02*
X0069541Y0298065D01*
X0069955Y0299064D02*
X0073884Y0299064D01*
X0073709Y0300062D02*
X0070130Y0300062D01*
X0070130Y0301061D02*
X0073709Y0301061D01*
X0073935Y0302059D02*
X0069904Y0302059D01*
X0069490Y0303058D02*
X0074348Y0303058D01*
X0075153Y0304056D02*
X0068686Y0304056D01*
X0067360Y0305055D02*
X0076479Y0305055D01*
X0081140Y0305055D02*
X0090258Y0305055D01*
X0088932Y0304056D02*
X0082465Y0304056D01*
X0083270Y0303058D02*
X0088128Y0303058D01*
X0087714Y0302059D02*
X0083683Y0302059D01*
X0083909Y0301061D02*
X0087489Y0301061D01*
X0087489Y0300062D02*
X0083909Y0300062D01*
X0083734Y0299064D02*
X0087663Y0299064D01*
X0088077Y0298065D02*
X0083321Y0298065D01*
X0082588Y0297067D02*
X0088809Y0297067D01*
X0089961Y0296068D02*
X0081437Y0296068D01*
X0080750Y0295070D02*
X0091350Y0295070D01*
X0091350Y0294071D02*
X0080750Y0294071D01*
X0080750Y0293073D02*
X0091350Y0293073D01*
X0091350Y0292074D02*
X0080750Y0292074D01*
X0080750Y0291076D02*
X0091350Y0291076D01*
X0091350Y0290077D02*
X0080750Y0290077D01*
X0080750Y0289079D02*
X0091350Y0289079D01*
X0091350Y0288080D02*
X0080750Y0288080D01*
X0080750Y0287082D02*
X0091350Y0287082D01*
X0091350Y0286083D02*
X0080750Y0286083D01*
X0080750Y0285085D02*
X0091350Y0285085D01*
X0091350Y0284086D02*
X0080750Y0284086D01*
X0080750Y0283088D02*
X0091350Y0283088D01*
X0091350Y0282089D02*
X0080750Y0282089D01*
X0080750Y0281091D02*
X0091350Y0281091D01*
X0091350Y0280092D02*
X0080750Y0280092D01*
X0080750Y0279094D02*
X0091350Y0279094D01*
X0091350Y0278095D02*
X0080750Y0278095D01*
X0081175Y0277097D02*
X0091350Y0277097D01*
X0091350Y0276098D02*
X0082173Y0276098D01*
X0083172Y0275100D02*
X0091350Y0275100D01*
X0091350Y0274101D02*
X0084170Y0274101D01*
X0085169Y0273103D02*
X0091350Y0273103D01*
X0091350Y0272104D02*
X0086167Y0272104D01*
X0087166Y0271105D02*
X0091350Y0271105D01*
X0091350Y0270107D02*
X0088164Y0270107D01*
X0089163Y0269108D02*
X0091350Y0269108D01*
X0091350Y0268110D02*
X0090161Y0268110D01*
X0091160Y0267111D02*
X0091350Y0267111D01*
X0094350Y0267111D02*
X0129669Y0267111D01*
X0130667Y0266113D02*
X0094558Y0266113D01*
X0095557Y0265114D02*
X0131666Y0265114D01*
X0132664Y0264116D02*
X0096555Y0264116D01*
X0097554Y0263117D02*
X0133663Y0263117D01*
X0134661Y0262119D02*
X0098552Y0262119D01*
X0099551Y0261120D02*
X0135660Y0261120D01*
X0136658Y0260122D02*
X0100549Y0260122D01*
X0101548Y0259123D02*
X0137657Y0259123D01*
X0138655Y0258125D02*
X0102546Y0258125D01*
X0103545Y0257126D02*
X0139654Y0257126D01*
X0140150Y0245144D02*
X0065127Y0245144D01*
X0066126Y0244146D02*
X0140150Y0244146D01*
X0140150Y0243147D02*
X0066350Y0243147D01*
X0066350Y0242149D02*
X0140150Y0242149D01*
X0140150Y0241150D02*
X0066350Y0241150D01*
X0066350Y0240152D02*
X0140150Y0240152D01*
X0140150Y0239153D02*
X0066350Y0239153D01*
X0066350Y0238155D02*
X0140150Y0238155D01*
X0140150Y0237156D02*
X0066350Y0237156D01*
X0066350Y0236158D02*
X0140150Y0236158D01*
X0140150Y0235159D02*
X0066350Y0235159D01*
X0066350Y0234161D02*
X0140150Y0234161D01*
X0140150Y0233162D02*
X0066350Y0233162D01*
X0066908Y0232164D02*
X0140150Y0232164D01*
X0140150Y0231165D02*
X0067906Y0231165D01*
X0068905Y0230167D02*
X0140150Y0230167D01*
X0140150Y0226172D02*
X0125518Y0226172D01*
X0125518Y0225174D02*
X0140150Y0225174D01*
X0140150Y0224175D02*
X0125518Y0224175D01*
X0125518Y0222178D02*
X0140150Y0222178D01*
X0140150Y0221180D02*
X0125518Y0221180D01*
X0125518Y0220181D02*
X0140150Y0220181D01*
X0140150Y0219183D02*
X0125364Y0219183D01*
X0121762Y0219183D02*
X0120762Y0219183D01*
X0120762Y0220181D02*
X0121762Y0220181D01*
X0121762Y0221180D02*
X0120762Y0221180D01*
X0120762Y0222178D02*
X0121762Y0222178D01*
X0121762Y0223177D02*
X0140150Y0223177D01*
X0144350Y0225174D02*
X0145255Y0225174D01*
X0145250Y0225179D02*
X0145529Y0224900D01*
X0145871Y0224702D01*
X0146253Y0224600D01*
X0147600Y0224600D01*
X0147600Y0229950D01*
X0144950Y0229950D01*
X0144950Y0225903D01*
X0145052Y0225521D01*
X0145250Y0225179D01*
X0144950Y0226172D02*
X0144350Y0226172D01*
X0144350Y0227171D02*
X0144950Y0227171D01*
X0144950Y0228170D02*
X0144350Y0228170D01*
X0144350Y0229168D02*
X0144950Y0229168D01*
X0144350Y0230167D02*
X0147600Y0230167D01*
X0147600Y0229168D02*
X0147900Y0229168D01*
X0147900Y0228170D02*
X0147600Y0228170D01*
X0147600Y0227171D02*
X0147900Y0227171D01*
X0147900Y0226172D02*
X0147600Y0226172D01*
X0147600Y0225174D02*
X0147900Y0225174D01*
X0150245Y0225174D02*
X0150820Y0225174D01*
X0155654Y0219183D02*
X0161812Y0219183D01*
X0162810Y0220181D02*
X0156653Y0220181D01*
X0157651Y0221180D02*
X0163809Y0221180D01*
X0164807Y0222178D02*
X0158650Y0222178D01*
X0159150Y0223177D02*
X0165750Y0223177D01*
X0165750Y0224175D02*
X0159150Y0224175D01*
X0159680Y0225174D02*
X0160820Y0225174D01*
X0160350Y0226172D02*
X0160150Y0226172D01*
X0160150Y0227171D02*
X0160350Y0227171D01*
X0160350Y0228170D02*
X0160150Y0228170D01*
X0160150Y0229168D02*
X0160350Y0229168D01*
X0160350Y0230167D02*
X0160150Y0230167D01*
X0160150Y0231165D02*
X0160350Y0231165D01*
X0160350Y0232164D02*
X0160150Y0232164D01*
X0161314Y0236158D02*
X0165760Y0236158D01*
X0165650Y0237156D02*
X0160315Y0237156D01*
X0159317Y0238155D02*
X0165972Y0238155D01*
X0167218Y0239153D02*
X0158318Y0239153D01*
X0157071Y0236158D02*
X0150914Y0236158D01*
X0146671Y0236158D02*
X0144350Y0236158D01*
X0144350Y0237156D02*
X0144554Y0237156D01*
X0144350Y0235159D02*
X0145388Y0235159D01*
X0144950Y0234161D02*
X0144350Y0234161D01*
X0144350Y0233162D02*
X0144950Y0233162D01*
X0144950Y0232164D02*
X0144350Y0232164D01*
X0144350Y0231165D02*
X0144950Y0231165D01*
X0139965Y0218184D02*
X0116887Y0218184D01*
X0117159Y0219183D02*
X0115888Y0219183D01*
X0114890Y0220181D02*
X0117006Y0220181D01*
X0117006Y0221180D02*
X0114094Y0221180D01*
X0114094Y0222178D02*
X0117006Y0222178D01*
X0117006Y0224175D02*
X0114094Y0224175D01*
X0114094Y0223177D02*
X0120762Y0223177D01*
X0117006Y0225174D02*
X0114094Y0225174D01*
X0114094Y0226172D02*
X0117006Y0226172D01*
X0117885Y0217186D02*
X0138966Y0217186D01*
X0137968Y0216187D02*
X0118350Y0216187D01*
X0118350Y0215189D02*
X0136969Y0215189D01*
X0135971Y0214190D02*
X0126645Y0214190D01*
X0127255Y0213192D02*
X0134972Y0213192D01*
X0133973Y0212193D02*
X0127262Y0212193D01*
X0127262Y0210196D02*
X0131976Y0210196D01*
X0130978Y0209198D02*
X0127262Y0209198D01*
X0127013Y0208199D02*
X0129979Y0208199D01*
X0128981Y0207201D02*
X0117557Y0207201D01*
X0117650Y0206202D02*
X0127982Y0206202D01*
X0126984Y0205204D02*
X0117311Y0205204D01*
X0115981Y0204205D02*
X0125985Y0204205D01*
X0124987Y0203207D02*
X0114078Y0203207D01*
X0113080Y0202208D02*
X0123988Y0202208D01*
X0122990Y0201210D02*
X0112081Y0201210D01*
X0111083Y0200211D02*
X0121991Y0200211D01*
X0120993Y0199213D02*
X0110084Y0199213D01*
X0109085Y0198214D02*
X0119994Y0198214D01*
X0118996Y0197216D02*
X0108087Y0197216D01*
X0107088Y0196217D02*
X0117997Y0196217D01*
X0117150Y0195219D02*
X0106090Y0195219D01*
X0106335Y0194220D02*
X0117150Y0194220D01*
X0117150Y0193222D02*
X0106900Y0193222D01*
X0106900Y0192223D02*
X0117150Y0192223D01*
X0117150Y0191225D02*
X0106900Y0191225D01*
X0106900Y0190226D02*
X0117150Y0190226D01*
X0117150Y0189228D02*
X0106900Y0189228D01*
X0106900Y0188229D02*
X0117150Y0188229D01*
X0117150Y0187231D02*
X0106900Y0187231D01*
X0106900Y0186232D02*
X0117150Y0186232D01*
X0117150Y0185234D02*
X0106900Y0185234D01*
X0102600Y0185234D02*
X0101900Y0185234D01*
X0101900Y0186232D02*
X0102600Y0186232D01*
X0102600Y0187231D02*
X0101900Y0187231D01*
X0101900Y0188229D02*
X0102600Y0188229D01*
X0102600Y0189228D02*
X0101900Y0189228D01*
X0101900Y0190226D02*
X0102600Y0190226D01*
X0102600Y0191225D02*
X0102096Y0191225D01*
X0101847Y0195219D02*
X0078350Y0195219D01*
X0078350Y0196217D02*
X0102846Y0196217D01*
X0103844Y0197216D02*
X0078350Y0197216D01*
X0078350Y0198214D02*
X0104843Y0198214D01*
X0105841Y0199213D02*
X0078350Y0199213D01*
X0078350Y0194220D02*
X0088164Y0194220D01*
X0088244Y0194300D02*
X0087600Y0193656D01*
X0087600Y0184944D01*
X0088244Y0184300D01*
X0091256Y0184300D01*
X0091900Y0184944D01*
X0091900Y0193656D01*
X0091256Y0194300D01*
X0088244Y0194300D01*
X0087600Y0193222D02*
X0078350Y0193222D01*
X0078350Y0192223D02*
X0087600Y0192223D01*
X0087600Y0191225D02*
X0078350Y0191225D01*
X0078350Y0190226D02*
X0087600Y0190226D01*
X0087600Y0189228D02*
X0078350Y0189228D01*
X0078350Y0188229D02*
X0087600Y0188229D01*
X0087600Y0187231D02*
X0078350Y0187231D01*
X0078350Y0186232D02*
X0087600Y0186232D01*
X0087600Y0185234D02*
X0078350Y0185234D01*
X0078350Y0184235D02*
X0093150Y0184235D01*
X0093150Y0183237D02*
X0078350Y0183237D01*
X0078350Y0182238D02*
X0093150Y0182238D01*
X0093150Y0181239D02*
X0078350Y0181239D01*
X0078350Y0180241D02*
X0093150Y0180241D01*
X0093538Y0179242D02*
X0078350Y0179242D01*
X0078350Y0178244D02*
X0094536Y0178244D01*
X0097350Y0182238D02*
X0117150Y0182238D01*
X0117150Y0183237D02*
X0097350Y0183237D01*
X0097350Y0184235D02*
X0117150Y0184235D01*
X0117150Y0177245D02*
X0078350Y0177245D01*
X0077518Y0176247D02*
X0117150Y0176247D01*
X0117150Y0175248D02*
X0076520Y0175248D01*
X0075521Y0174250D02*
X0117150Y0174250D01*
X0117150Y0173251D02*
X0074523Y0173251D01*
X0073524Y0172253D02*
X0117150Y0172253D01*
X0117150Y0171254D02*
X0072526Y0171254D01*
X0071527Y0170256D02*
X0117150Y0170256D01*
X0117150Y0169257D02*
X0070529Y0169257D01*
X0069530Y0168259D02*
X0117150Y0168259D01*
X0117150Y0167260D02*
X0067732Y0167260D01*
X0066733Y0166262D02*
X0117150Y0166262D01*
X0117150Y0165263D02*
X0065735Y0165263D01*
X0064736Y0164265D02*
X0117150Y0164265D01*
X0117150Y0163266D02*
X0063738Y0163266D01*
X0066038Y0162268D02*
X0117150Y0162268D01*
X0117150Y0161269D02*
X0066350Y0161269D01*
X0066350Y0160271D02*
X0117150Y0160271D01*
X0117150Y0159272D02*
X0066350Y0159272D01*
X0066350Y0158274D02*
X0117150Y0158274D01*
X0117150Y0157275D02*
X0066350Y0157275D01*
X0066350Y0156277D02*
X0117150Y0156277D01*
X0117150Y0155278D02*
X0066350Y0155278D01*
X0066350Y0154280D02*
X0117150Y0154280D01*
X0117150Y0153281D02*
X0066350Y0153281D01*
X0066350Y0152283D02*
X0117150Y0152283D01*
X0117150Y0151284D02*
X0066350Y0151284D01*
X0056150Y0142115D02*
X0053865Y0144400D01*
X0052550Y0144400D01*
X0052550Y0140800D01*
X0056150Y0140800D01*
X0056150Y0142115D01*
X0055968Y0142298D02*
X0089098Y0142298D01*
X0088750Y0141299D02*
X0056150Y0141299D01*
X0056150Y0140200D02*
X0052550Y0140200D01*
X0052550Y0140800D01*
X0051950Y0140800D01*
X0051950Y0144400D01*
X0050635Y0144400D01*
X0048350Y0142115D01*
X0048350Y0140800D01*
X0051950Y0140800D01*
X0051950Y0140200D01*
X0052550Y0140200D01*
X0052550Y0136600D01*
X0053865Y0136600D01*
X0056150Y0138885D01*
X0056150Y0140200D01*
X0056150Y0139302D02*
X0088750Y0139302D01*
X0088750Y0140301D02*
X0052550Y0140301D01*
X0051950Y0140301D02*
X0035150Y0140301D01*
X0035150Y0141299D02*
X0048350Y0141299D01*
X0048532Y0142298D02*
X0035150Y0142298D01*
X0035150Y0143296D02*
X0049531Y0143296D01*
X0050529Y0144295D02*
X0035150Y0144295D01*
X0035150Y0145293D02*
X0117150Y0145293D01*
X0117150Y0144295D02*
X0053971Y0144295D01*
X0054969Y0143296D02*
X0090096Y0143296D01*
X0094404Y0143296D02*
X0117150Y0143296D01*
X0117150Y0142298D02*
X0095402Y0142298D01*
X0095750Y0141299D02*
X0117150Y0141299D01*
X0117150Y0140301D02*
X0095750Y0140301D01*
X0095750Y0139302D02*
X0117150Y0139302D01*
X0117150Y0138303D02*
X0095003Y0138303D01*
X0094005Y0137305D02*
X0117150Y0137305D01*
X0117150Y0136306D02*
X0090378Y0136306D01*
X0089379Y0135308D02*
X0117150Y0135308D01*
X0121350Y0135308D02*
X0122550Y0135308D01*
X0122550Y0136306D02*
X0121350Y0136306D01*
X0121350Y0137305D02*
X0122550Y0137305D01*
X0122550Y0138303D02*
X0121350Y0138303D01*
X0121350Y0139302D02*
X0122550Y0139302D01*
X0122550Y0140301D02*
X0121350Y0140301D01*
X0121350Y0141299D02*
X0122550Y0141299D01*
X0122550Y0142298D02*
X0121350Y0142298D01*
X0121350Y0143296D02*
X0122550Y0143296D01*
X0122550Y0144295D02*
X0121350Y0144295D01*
X0121350Y0145293D02*
X0122550Y0145293D01*
X0122550Y0146292D02*
X0121350Y0146292D01*
X0121350Y0147290D02*
X0122550Y0147290D01*
X0122550Y0148289D02*
X0121350Y0148289D01*
X0121350Y0149287D02*
X0122550Y0149287D01*
X0117150Y0149287D02*
X0035150Y0149287D01*
X0035150Y0148289D02*
X0117150Y0148289D01*
X0117150Y0147290D02*
X0035150Y0147290D01*
X0035150Y0146292D02*
X0117150Y0146292D01*
X0117150Y0150286D02*
X0035150Y0150286D01*
X0035150Y0151284D02*
X0044150Y0151284D01*
X0044150Y0152283D02*
X0035150Y0152283D01*
X0035150Y0153281D02*
X0044150Y0153281D01*
X0044150Y0154280D02*
X0035150Y0154280D01*
X0035150Y0155278D02*
X0044150Y0155278D01*
X0044150Y0156277D02*
X0035150Y0156277D01*
X0035150Y0157275D02*
X0044150Y0157275D01*
X0044150Y0158274D02*
X0035150Y0158274D01*
X0035150Y0159272D02*
X0044150Y0159272D01*
X0044150Y0160271D02*
X0035150Y0160271D01*
X0035150Y0161269D02*
X0044150Y0161269D01*
X0044462Y0162268D02*
X0035150Y0162268D01*
X0035150Y0163266D02*
X0059495Y0163266D01*
X0060493Y0164265D02*
X0035150Y0164265D01*
X0035150Y0165263D02*
X0051895Y0165263D01*
X0047961Y0166262D02*
X0035150Y0166262D01*
X0035150Y0167260D02*
X0045652Y0167260D01*
X0043868Y0168259D02*
X0035150Y0168259D01*
X0035150Y0169257D02*
X0042404Y0169257D01*
X0041164Y0170256D02*
X0035150Y0170256D01*
X0035150Y0171254D02*
X0040090Y0171254D01*
X0039144Y0172253D02*
X0035150Y0172253D01*
X0035150Y0173251D02*
X0038300Y0173251D01*
X0037575Y0174250D02*
X0035150Y0174250D01*
X0035150Y0175248D02*
X0036929Y0175248D01*
X0036344Y0176247D02*
X0035150Y0176247D01*
X0035150Y0177245D02*
X0035835Y0177245D01*
X0035398Y0178244D02*
X0035150Y0178244D01*
X0035150Y0194156D02*
X0035150Y0245879D01*
X0040200Y0250929D01*
X0040200Y0249545D01*
X0040931Y0247781D01*
X0042281Y0246431D01*
X0044045Y0245700D01*
X0045955Y0245700D01*
X0047719Y0246431D01*
X0049069Y0247781D01*
X0049800Y0249545D01*
X0049800Y0251455D01*
X0049485Y0252214D01*
X0051871Y0254600D01*
X0052355Y0254600D01*
X0052281Y0254569D01*
X0050931Y0253219D01*
X0050200Y0251455D01*
X0050200Y0249545D01*
X0050931Y0247781D01*
X0052281Y0246431D01*
X0054045Y0245700D01*
X0055955Y0245700D01*
X0056219Y0245810D01*
X0061750Y0240279D01*
X0061750Y0227479D01*
X0062629Y0226600D01*
X0086029Y0203200D01*
X0071071Y0203200D01*
X0063871Y0210400D01*
X0065706Y0210400D01*
X0066350Y0211044D01*
X0066350Y0221956D01*
X0065706Y0222600D01*
X0044794Y0222600D01*
X0044150Y0221956D01*
X0044150Y0211044D01*
X0044794Y0210400D01*
X0059629Y0210400D01*
X0063798Y0206231D01*
X0062697Y0206687D01*
X0061090Y0207209D01*
X0059448Y0207603D01*
X0057779Y0207867D01*
X0056095Y0208000D01*
X0055750Y0208000D01*
X0055750Y0187000D01*
X0054750Y0187000D01*
X0054750Y0208000D01*
X0054405Y0208000D01*
X0052721Y0207867D01*
X0051052Y0207603D01*
X0049410Y0207209D01*
X0047803Y0206687D01*
X0046242Y0206040D01*
X0044737Y0205273D01*
X0043296Y0204390D01*
X0041929Y0203397D01*
X0040645Y0202300D01*
X0039450Y0201105D01*
X0038353Y0199821D01*
X0037360Y0198454D01*
X0036477Y0197013D01*
X0035710Y0195508D01*
X0035150Y0194156D01*
X0035150Y0194220D02*
X0035176Y0194220D01*
X0035150Y0195219D02*
X0035590Y0195219D01*
X0035150Y0196217D02*
X0036071Y0196217D01*
X0036601Y0197216D02*
X0035150Y0197216D01*
X0035150Y0198214D02*
X0037213Y0198214D01*
X0037911Y0199213D02*
X0035150Y0199213D01*
X0035150Y0200211D02*
X0038686Y0200211D01*
X0039554Y0201210D02*
X0035150Y0201210D01*
X0035150Y0202208D02*
X0040553Y0202208D01*
X0041706Y0203207D02*
X0035150Y0203207D01*
X0035150Y0204205D02*
X0043041Y0204205D01*
X0044623Y0205204D02*
X0035150Y0205204D01*
X0035150Y0206202D02*
X0046633Y0206202D01*
X0049385Y0207201D02*
X0035150Y0207201D01*
X0035150Y0208199D02*
X0061829Y0208199D01*
X0061115Y0207201D02*
X0062828Y0207201D01*
X0060831Y0209198D02*
X0035150Y0209198D01*
X0035150Y0210196D02*
X0059832Y0210196D01*
X0064075Y0210196D02*
X0079032Y0210196D01*
X0078034Y0211195D02*
X0066350Y0211195D01*
X0066350Y0212193D02*
X0077035Y0212193D01*
X0076037Y0213192D02*
X0066350Y0213192D01*
X0066350Y0214190D02*
X0075038Y0214190D01*
X0074040Y0215189D02*
X0066350Y0215189D01*
X0066350Y0216187D02*
X0073041Y0216187D01*
X0072043Y0217186D02*
X0066350Y0217186D01*
X0066350Y0218184D02*
X0071044Y0218184D01*
X0070046Y0219183D02*
X0066350Y0219183D01*
X0066350Y0220181D02*
X0069047Y0220181D01*
X0068049Y0221180D02*
X0066350Y0221180D01*
X0066127Y0222178D02*
X0067050Y0222178D01*
X0066052Y0223177D02*
X0035150Y0223177D01*
X0035150Y0224175D02*
X0065053Y0224175D01*
X0064055Y0225174D02*
X0035150Y0225174D01*
X0035150Y0226172D02*
X0063056Y0226172D01*
X0062629Y0226600D02*
X0062629Y0226600D01*
X0062058Y0227171D02*
X0035150Y0227171D01*
X0035150Y0228170D02*
X0061750Y0228170D01*
X0061750Y0229168D02*
X0035150Y0229168D01*
X0035150Y0230167D02*
X0061750Y0230167D01*
X0061750Y0231165D02*
X0035150Y0231165D01*
X0035150Y0232164D02*
X0061750Y0232164D01*
X0061750Y0233162D02*
X0035150Y0233162D01*
X0035150Y0234161D02*
X0061750Y0234161D01*
X0061750Y0235159D02*
X0035150Y0235159D01*
X0035150Y0236158D02*
X0061750Y0236158D01*
X0061750Y0237156D02*
X0035150Y0237156D01*
X0035150Y0238155D02*
X0061750Y0238155D01*
X0061750Y0239153D02*
X0035150Y0239153D01*
X0035150Y0240152D02*
X0061750Y0240152D01*
X0060879Y0241150D02*
X0035150Y0241150D01*
X0035150Y0242149D02*
X0059880Y0242149D01*
X0058881Y0243147D02*
X0035150Y0243147D01*
X0035150Y0244146D02*
X0057883Y0244146D01*
X0056884Y0245144D02*
X0035150Y0245144D01*
X0035414Y0246143D02*
X0042976Y0246143D01*
X0041571Y0247141D02*
X0036413Y0247141D01*
X0037411Y0248140D02*
X0040782Y0248140D01*
X0040369Y0249138D02*
X0038410Y0249138D01*
X0039408Y0250137D02*
X0040200Y0250137D01*
X0038161Y0253132D02*
X0033589Y0253132D01*
X0033589Y0252134D02*
X0037162Y0252134D01*
X0036164Y0251135D02*
X0033589Y0251135D01*
X0033589Y0250137D02*
X0035165Y0250137D01*
X0034167Y0249138D02*
X0033589Y0249138D01*
X0033589Y0254131D02*
X0039159Y0254131D01*
X0040158Y0255129D02*
X0033589Y0255129D01*
X0033589Y0256128D02*
X0041157Y0256128D01*
X0042155Y0257126D02*
X0033589Y0257126D01*
X0033589Y0258125D02*
X0043154Y0258125D01*
X0044152Y0259123D02*
X0033589Y0259123D01*
X0033589Y0260122D02*
X0045151Y0260122D01*
X0046149Y0261120D02*
X0033589Y0261120D01*
X0033589Y0262119D02*
X0047148Y0262119D01*
X0048146Y0263117D02*
X0033589Y0263117D01*
X0033589Y0264116D02*
X0049145Y0264116D01*
X0050143Y0265114D02*
X0033589Y0265114D01*
X0033589Y0266113D02*
X0051142Y0266113D01*
X0052140Y0267111D02*
X0033589Y0267111D01*
X0033589Y0268110D02*
X0053139Y0268110D01*
X0054137Y0269108D02*
X0033589Y0269108D01*
X0033589Y0270107D02*
X0055136Y0270107D01*
X0055350Y0271105D02*
X0033589Y0271105D01*
X0033589Y0272104D02*
X0055350Y0272104D01*
X0055350Y0273103D02*
X0033589Y0273103D01*
X0033589Y0274101D02*
X0055350Y0274101D01*
X0055350Y0275100D02*
X0033589Y0275100D01*
X0033589Y0276098D02*
X0055350Y0276098D01*
X0055350Y0277097D02*
X0033589Y0277097D01*
X0033589Y0278095D02*
X0055350Y0278095D01*
X0055350Y0279094D02*
X0033589Y0279094D01*
X0033589Y0280092D02*
X0055350Y0280092D01*
X0055350Y0281091D02*
X0033589Y0281091D01*
X0033589Y0282089D02*
X0055350Y0282089D01*
X0055350Y0283088D02*
X0033589Y0283088D01*
X0033589Y0284086D02*
X0055350Y0284086D01*
X0055350Y0285085D02*
X0033589Y0285085D01*
X0033589Y0286083D02*
X0055350Y0286083D01*
X0055350Y0287082D02*
X0033589Y0287082D01*
X0033589Y0288080D02*
X0055350Y0288080D01*
X0055350Y0289079D02*
X0033589Y0289079D01*
X0033589Y0290077D02*
X0055350Y0290077D01*
X0055350Y0291076D02*
X0033589Y0291076D01*
X0033589Y0292074D02*
X0055350Y0292074D01*
X0055350Y0293073D02*
X0033589Y0293073D01*
X0033589Y0294071D02*
X0055350Y0294071D01*
X0058350Y0294071D02*
X0064150Y0294071D01*
X0064150Y0293073D02*
X0058350Y0293073D01*
X0058350Y0292074D02*
X0064150Y0292074D01*
X0064150Y0291076D02*
X0058350Y0291076D01*
X0058350Y0290077D02*
X0064150Y0290077D01*
X0064150Y0289079D02*
X0058350Y0289079D01*
X0058350Y0288080D02*
X0064150Y0288080D01*
X0064150Y0287082D02*
X0058350Y0287082D01*
X0058350Y0286083D02*
X0064150Y0286083D01*
X0064150Y0285085D02*
X0058350Y0285085D01*
X0058350Y0284086D02*
X0064150Y0284086D01*
X0064150Y0283088D02*
X0058350Y0283088D01*
X0058350Y0282089D02*
X0064150Y0282089D01*
X0064150Y0281091D02*
X0058350Y0281091D01*
X0058350Y0280092D02*
X0064150Y0280092D01*
X0064150Y0279094D02*
X0058350Y0279094D01*
X0058350Y0278095D02*
X0064150Y0278095D01*
X0064150Y0277097D02*
X0058350Y0277097D01*
X0058350Y0276098D02*
X0064150Y0276098D01*
X0064150Y0275100D02*
X0058350Y0275100D01*
X0058350Y0274101D02*
X0064150Y0274101D01*
X0064150Y0273103D02*
X0058350Y0273103D01*
X0058350Y0272104D02*
X0064150Y0272104D01*
X0064150Y0271105D02*
X0058350Y0271105D01*
X0058350Y0270107D02*
X0064150Y0270107D01*
X0064150Y0269108D02*
X0058350Y0269108D01*
X0057381Y0268110D02*
X0065119Y0268110D01*
X0066117Y0267111D02*
X0056383Y0267111D01*
X0055384Y0266113D02*
X0067116Y0266113D01*
X0068114Y0265114D02*
X0054386Y0265114D01*
X0053387Y0264116D02*
X0069113Y0264116D01*
X0070111Y0263117D02*
X0052389Y0263117D01*
X0051390Y0262119D02*
X0071110Y0262119D01*
X0072108Y0261120D02*
X0050392Y0261120D01*
X0049393Y0260122D02*
X0073107Y0260122D01*
X0074105Y0259123D02*
X0048395Y0259123D01*
X0047396Y0258125D02*
X0075104Y0258125D01*
X0076102Y0257126D02*
X0057945Y0257126D01*
X0058943Y0256128D02*
X0077101Y0256128D01*
X0076996Y0255319D02*
X0076218Y0255572D01*
X0075500Y0255686D01*
X0075500Y0251000D01*
X0080186Y0251000D01*
X0080072Y0251718D01*
X0079819Y0252496D01*
X0079447Y0253225D01*
X0078966Y0253888D01*
X0078388Y0254466D01*
X0077725Y0254947D01*
X0076996Y0255319D01*
X0077368Y0255129D02*
X0078099Y0255129D01*
X0078723Y0254131D02*
X0079098Y0254131D01*
X0079495Y0253132D02*
X0080096Y0253132D01*
X0079937Y0252134D02*
X0080481Y0252134D01*
X0080200Y0251135D02*
X0080164Y0251135D01*
X0080200Y0250137D02*
X0075500Y0250137D01*
X0075500Y0250000D02*
X0075500Y0251000D01*
X0074500Y0251000D01*
X0074500Y0255686D01*
X0073782Y0255572D01*
X0073004Y0255319D01*
X0072275Y0254947D01*
X0071612Y0254466D01*
X0071034Y0253888D01*
X0070553Y0253225D01*
X0070181Y0252496D01*
X0069928Y0251718D01*
X0069814Y0251000D01*
X0074500Y0251000D01*
X0074500Y0250000D01*
X0075500Y0250000D01*
X0080186Y0250000D01*
X0080072Y0249282D01*
X0079819Y0248504D01*
X0079447Y0247775D01*
X0078966Y0247112D01*
X0078388Y0246534D01*
X0077725Y0246053D01*
X0076996Y0245681D01*
X0076218Y0245428D01*
X0075500Y0245314D01*
X0075500Y0250000D01*
X0075500Y0249138D02*
X0074500Y0249138D01*
X0074500Y0250000D02*
X0074500Y0245314D01*
X0073782Y0245428D01*
X0073004Y0245681D01*
X0072275Y0246053D01*
X0071612Y0246534D01*
X0071034Y0247112D01*
X0070553Y0247775D01*
X0070181Y0248504D01*
X0069928Y0249282D01*
X0069814Y0250000D01*
X0074500Y0250000D01*
X0074500Y0250137D02*
X0069800Y0250137D01*
X0069800Y0251135D02*
X0069836Y0251135D01*
X0070063Y0252134D02*
X0069519Y0252134D01*
X0069105Y0253132D02*
X0070505Y0253132D01*
X0071277Y0254131D02*
X0068157Y0254131D01*
X0066367Y0255129D02*
X0072632Y0255129D01*
X0074500Y0255129D02*
X0075500Y0255129D01*
X0075500Y0254131D02*
X0074500Y0254131D01*
X0074500Y0253132D02*
X0075500Y0253132D01*
X0075500Y0252134D02*
X0074500Y0252134D01*
X0074500Y0251135D02*
X0075500Y0251135D01*
X0075500Y0248140D02*
X0074500Y0248140D01*
X0074500Y0247141D02*
X0075500Y0247141D01*
X0075500Y0246143D02*
X0074500Y0246143D01*
X0072151Y0246143D02*
X0067024Y0246143D01*
X0068429Y0247141D02*
X0071013Y0247141D01*
X0070366Y0248140D02*
X0069218Y0248140D01*
X0069631Y0249138D02*
X0069975Y0249138D01*
X0077849Y0246143D02*
X0082976Y0246143D01*
X0081571Y0247141D02*
X0078987Y0247141D01*
X0079633Y0248140D02*
X0080782Y0248140D01*
X0080369Y0249138D02*
X0080025Y0249138D01*
X0082342Y0255129D02*
X0083633Y0255129D01*
X0081343Y0256128D02*
X0092950Y0256128D01*
X0092950Y0257126D02*
X0080345Y0257126D01*
X0079346Y0258125D02*
X0092950Y0258125D01*
X0092950Y0259123D02*
X0078348Y0259123D01*
X0086367Y0255129D02*
X0092950Y0255129D01*
X0091843Y0254131D02*
X0088157Y0254131D01*
X0089105Y0253132D02*
X0090895Y0253132D01*
X0090481Y0252134D02*
X0089519Y0252134D01*
X0089800Y0251135D02*
X0090200Y0251135D01*
X0090200Y0250137D02*
X0089800Y0250137D01*
X0089631Y0249138D02*
X0090369Y0249138D01*
X0090782Y0248140D02*
X0089218Y0248140D01*
X0088429Y0247141D02*
X0091571Y0247141D01*
X0092976Y0246143D02*
X0087024Y0246143D01*
X0101397Y0229168D02*
X0069903Y0229168D01*
X0070902Y0228170D02*
X0100398Y0228170D01*
X0099400Y0227171D02*
X0071900Y0227171D01*
X0072899Y0226172D02*
X0098401Y0226172D01*
X0097403Y0225174D02*
X0094580Y0225174D01*
X0095013Y0221180D02*
X0106209Y0221180D01*
X0106382Y0222178D02*
X0098650Y0222178D01*
X0099648Y0223177D02*
X0106382Y0223177D01*
X0106382Y0224175D02*
X0100647Y0224175D01*
X0101645Y0225174D02*
X0106382Y0225174D01*
X0106382Y0226172D02*
X0102644Y0226172D01*
X0105210Y0220181D02*
X0094652Y0220181D01*
X0095059Y0219183D02*
X0104212Y0219183D01*
X0103213Y0218184D02*
X0095150Y0218184D01*
X0095150Y0217186D02*
X0102215Y0217186D01*
X0101216Y0216187D02*
X0095150Y0216187D01*
X0095150Y0215189D02*
X0100218Y0215189D01*
X0099219Y0214190D02*
X0095150Y0214190D01*
X0096764Y0213192D02*
X0097736Y0213192D01*
X0097600Y0212193D02*
X0096900Y0212193D01*
X0096900Y0211195D02*
X0097600Y0211195D01*
X0097600Y0210196D02*
X0096900Y0210196D01*
X0096900Y0209198D02*
X0097600Y0209198D01*
X0097600Y0208199D02*
X0096900Y0208199D01*
X0096900Y0207201D02*
X0097600Y0207201D01*
X0098078Y0203207D02*
X0109835Y0203207D01*
X0108837Y0202208D02*
X0097080Y0202208D01*
X0096081Y0201210D02*
X0107838Y0201210D01*
X0106840Y0200211D02*
X0095083Y0200211D01*
X0096335Y0194220D02*
X0098164Y0194220D01*
X0097600Y0193222D02*
X0096900Y0193222D01*
X0096900Y0192223D02*
X0097600Y0192223D01*
X0097600Y0191225D02*
X0096900Y0191225D01*
X0096900Y0190226D02*
X0097600Y0190226D01*
X0097600Y0189228D02*
X0097350Y0189228D01*
X0097350Y0188229D02*
X0097600Y0188229D01*
X0097600Y0187231D02*
X0097350Y0187231D01*
X0097350Y0186232D02*
X0097600Y0186232D01*
X0097600Y0185234D02*
X0097350Y0185234D01*
X0092600Y0185234D02*
X0091900Y0185234D01*
X0091900Y0186232D02*
X0092600Y0186232D01*
X0092600Y0187231D02*
X0091900Y0187231D01*
X0091900Y0188229D02*
X0092600Y0188229D01*
X0092578Y0189228D02*
X0091900Y0189228D01*
X0091900Y0190226D02*
X0092600Y0190226D01*
X0092600Y0191225D02*
X0091900Y0191225D01*
X0091900Y0192223D02*
X0092600Y0192223D01*
X0092600Y0193222D02*
X0091900Y0193222D01*
X0091335Y0194220D02*
X0093164Y0194220D01*
X0086022Y0203207D02*
X0071065Y0203207D01*
X0070066Y0204205D02*
X0085023Y0204205D01*
X0084025Y0205204D02*
X0069068Y0205204D01*
X0068069Y0206202D02*
X0083026Y0206202D01*
X0082028Y0207201D02*
X0067071Y0207201D01*
X0066072Y0208199D02*
X0081029Y0208199D01*
X0080031Y0209198D02*
X0065073Y0209198D01*
X0055750Y0207201D02*
X0054750Y0207201D01*
X0054750Y0206202D02*
X0055750Y0206202D01*
X0055750Y0205204D02*
X0054750Y0205204D01*
X0054750Y0204205D02*
X0055750Y0204205D01*
X0055750Y0203207D02*
X0054750Y0203207D01*
X0054750Y0202208D02*
X0055750Y0202208D01*
X0055750Y0201210D02*
X0054750Y0201210D01*
X0054750Y0200211D02*
X0055750Y0200211D01*
X0055750Y0199213D02*
X0054750Y0199213D01*
X0054750Y0198214D02*
X0055750Y0198214D01*
X0055750Y0197216D02*
X0054750Y0197216D01*
X0054750Y0196217D02*
X0055750Y0196217D01*
X0055750Y0195219D02*
X0054750Y0195219D01*
X0054750Y0194220D02*
X0055750Y0194220D01*
X0055750Y0193222D02*
X0054750Y0193222D01*
X0054750Y0192223D02*
X0055750Y0192223D01*
X0055750Y0191225D02*
X0054750Y0191225D01*
X0054750Y0190226D02*
X0055750Y0190226D01*
X0055750Y0189228D02*
X0054750Y0189228D01*
X0054750Y0188229D02*
X0055750Y0188229D01*
X0055750Y0187231D02*
X0054750Y0187231D01*
X0054750Y0185234D02*
X0055750Y0185234D01*
X0055750Y0184235D02*
X0054750Y0184235D01*
X0054750Y0183237D02*
X0055750Y0183237D01*
X0055750Y0182238D02*
X0054750Y0182238D01*
X0054750Y0181239D02*
X0055750Y0181239D01*
X0055750Y0180241D02*
X0054750Y0180241D01*
X0054750Y0179242D02*
X0055750Y0179242D01*
X0055750Y0178244D02*
X0054750Y0178244D01*
X0054750Y0177245D02*
X0055750Y0177245D01*
X0055750Y0176247D02*
X0054750Y0176247D01*
X0054750Y0175248D02*
X0055750Y0175248D01*
X0055750Y0174250D02*
X0054750Y0174250D01*
X0054750Y0173251D02*
X0055750Y0173251D01*
X0055750Y0172253D02*
X0054750Y0172253D01*
X0054750Y0171254D02*
X0055750Y0171254D01*
X0055750Y0170256D02*
X0054750Y0170256D01*
X0054750Y0169257D02*
X0055750Y0169257D01*
X0055750Y0168259D02*
X0054750Y0168259D01*
X0054750Y0167260D02*
X0055750Y0167260D01*
X0055750Y0166262D02*
X0054750Y0166262D01*
X0054750Y0165263D02*
X0055750Y0165263D01*
X0058604Y0165263D02*
X0061492Y0165263D01*
X0052550Y0144295D02*
X0051950Y0144295D01*
X0051950Y0143296D02*
X0052550Y0143296D01*
X0052550Y0142298D02*
X0051950Y0142298D01*
X0051950Y0141299D02*
X0052550Y0141299D01*
X0051950Y0140200D02*
X0048350Y0140200D01*
X0048350Y0138885D01*
X0050635Y0136600D01*
X0051950Y0136600D01*
X0051950Y0140200D01*
X0051950Y0139302D02*
X0052550Y0139302D01*
X0052550Y0138303D02*
X0051950Y0138303D01*
X0051950Y0137305D02*
X0052550Y0137305D01*
X0054570Y0137305D02*
X0087134Y0137305D01*
X0088132Y0138303D02*
X0055569Y0138303D01*
X0053865Y0134400D02*
X0052550Y0134400D01*
X0052550Y0130800D01*
X0056150Y0130800D01*
X0056150Y0132115D01*
X0053865Y0134400D01*
X0053956Y0134309D02*
X0065738Y0134309D01*
X0064740Y0133311D02*
X0054954Y0133311D01*
X0055953Y0132312D02*
X0063741Y0132312D01*
X0062743Y0131314D02*
X0056150Y0131314D01*
X0056150Y0130200D02*
X0052550Y0130200D01*
X0052550Y0130800D01*
X0051950Y0130800D01*
X0051950Y0134400D01*
X0050635Y0134400D01*
X0048350Y0132115D01*
X0048350Y0130800D01*
X0051950Y0130800D01*
X0051950Y0130200D01*
X0052550Y0130200D01*
X0052550Y0126600D01*
X0053865Y0126600D01*
X0056150Y0128885D01*
X0056150Y0130200D01*
X0056150Y0129317D02*
X0060746Y0129317D01*
X0061744Y0130315D02*
X0052550Y0130315D01*
X0051950Y0130315D02*
X0035150Y0130315D01*
X0035150Y0129317D02*
X0048350Y0129317D01*
X0048350Y0128885D02*
X0050635Y0126600D01*
X0051950Y0126600D01*
X0051950Y0130200D01*
X0048350Y0130200D01*
X0048350Y0128885D01*
X0048916Y0128318D02*
X0035150Y0128318D01*
X0035150Y0127320D02*
X0049915Y0127320D01*
X0051950Y0127320D02*
X0052550Y0127320D01*
X0052550Y0128318D02*
X0051950Y0128318D01*
X0051950Y0129317D02*
X0052550Y0129317D01*
X0052550Y0131314D02*
X0051950Y0131314D01*
X0051950Y0132312D02*
X0052550Y0132312D01*
X0052550Y0133311D02*
X0051950Y0133311D01*
X0051950Y0134309D02*
X0052550Y0134309D01*
X0050544Y0134309D02*
X0035150Y0134309D01*
X0035150Y0133311D02*
X0049546Y0133311D01*
X0048547Y0132312D02*
X0035150Y0132312D01*
X0035150Y0131314D02*
X0048350Y0131314D01*
X0049930Y0137305D02*
X0035150Y0137305D01*
X0035150Y0138303D02*
X0048931Y0138303D01*
X0048350Y0139302D02*
X0035150Y0139302D01*
X0035150Y0136306D02*
X0086135Y0136306D01*
X0085137Y0135308D02*
X0035150Y0135308D01*
X0035150Y0126321D02*
X0057750Y0126321D01*
X0056752Y0125323D02*
X0035150Y0125323D01*
X0035150Y0124324D02*
X0050559Y0124324D01*
X0051950Y0124324D02*
X0052550Y0124324D01*
X0052550Y0123326D02*
X0051950Y0123326D01*
X0051950Y0122327D02*
X0052550Y0122327D01*
X0052550Y0121329D02*
X0051950Y0121329D01*
X0051950Y0120330D02*
X0035150Y0120330D01*
X0035150Y0119332D02*
X0048350Y0119332D01*
X0048901Y0118333D02*
X0035150Y0118333D01*
X0035150Y0117335D02*
X0049900Y0117335D01*
X0051950Y0117335D02*
X0052550Y0117335D01*
X0052550Y0118333D02*
X0051950Y0118333D01*
X0051950Y0119332D02*
X0052550Y0119332D01*
X0054600Y0117335D02*
X0055350Y0117335D01*
X0055350Y0116336D02*
X0035150Y0116336D01*
X0035150Y0115338D02*
X0055350Y0115338D01*
X0055350Y0114339D02*
X0053926Y0114339D01*
X0052550Y0114339D02*
X0051950Y0114339D01*
X0051950Y0113341D02*
X0052550Y0113341D01*
X0052550Y0112342D02*
X0051950Y0112342D01*
X0051950Y0111344D02*
X0052550Y0111344D01*
X0051950Y0110345D02*
X0035150Y0110345D01*
X0035150Y0109347D02*
X0048350Y0109347D01*
X0048886Y0108348D02*
X0035150Y0108348D01*
X0035150Y0107350D02*
X0049885Y0107350D01*
X0051950Y0107350D02*
X0052550Y0107350D01*
X0052550Y0108348D02*
X0051950Y0108348D01*
X0051950Y0109347D02*
X0052550Y0109347D01*
X0054615Y0107350D02*
X0055350Y0107350D01*
X0055350Y0106351D02*
X0035150Y0106351D01*
X0035150Y0105353D02*
X0055350Y0105353D01*
X0055350Y0104354D02*
X0035150Y0104354D01*
X0035150Y0103356D02*
X0055350Y0103356D01*
X0055350Y0102357D02*
X0035150Y0102357D01*
X0035150Y0101359D02*
X0055350Y0101359D01*
X0055350Y0100360D02*
X0035150Y0100360D01*
X0035150Y0099362D02*
X0055350Y0099362D01*
X0055350Y0098363D02*
X0035150Y0098363D01*
X0035150Y0097365D02*
X0055350Y0097365D01*
X0055350Y0096366D02*
X0035150Y0096366D01*
X0035150Y0095368D02*
X0055350Y0095368D01*
X0055350Y0094369D02*
X0035150Y0094369D01*
X0035150Y0093370D02*
X0055350Y0093370D01*
X0055350Y0092372D02*
X0035150Y0092372D01*
X0035150Y0091373D02*
X0055350Y0091373D01*
X0055350Y0090375D02*
X0035150Y0090375D01*
X0035150Y0089376D02*
X0055350Y0089376D01*
X0055350Y0088378D02*
X0035150Y0088378D01*
X0035150Y0087379D02*
X0055350Y0087379D01*
X0055350Y0086381D02*
X0035150Y0086381D01*
X0035150Y0085382D02*
X0055350Y0085382D01*
X0055350Y0084384D02*
X0035150Y0084384D01*
X0034228Y0073400D02*
X0033589Y0073400D01*
X0033589Y0072402D02*
X0035227Y0072402D01*
X0036225Y0071403D02*
X0033589Y0071403D01*
X0033589Y0070405D02*
X0037224Y0070405D01*
X0038222Y0069406D02*
X0033589Y0069406D01*
X0033589Y0068408D02*
X0039221Y0068408D01*
X0040219Y0067409D02*
X0033589Y0067409D01*
X0033589Y0066411D02*
X0041218Y0066411D01*
X0041431Y0065412D02*
X0033589Y0065412D01*
X0033589Y0064414D02*
X0041150Y0064414D01*
X0041150Y0063415D02*
X0033589Y0063415D01*
X0033589Y0062417D02*
X0041270Y0062417D01*
X0041683Y0061418D02*
X0033589Y0061418D01*
X0033589Y0060420D02*
X0042338Y0060420D01*
X0043337Y0059421D02*
X0033589Y0059421D01*
X0058350Y0073400D02*
X0080829Y0073400D01*
X0081827Y0074399D02*
X0058350Y0074399D01*
X0058350Y0075397D02*
X0082826Y0075397D01*
X0083824Y0076396D02*
X0058350Y0076396D01*
X0058350Y0077394D02*
X0084823Y0077394D01*
X0085822Y0078393D02*
X0058350Y0078393D01*
X0058350Y0079391D02*
X0086820Y0079391D01*
X0087819Y0080390D02*
X0058350Y0080390D01*
X0058350Y0081388D02*
X0088817Y0081388D01*
X0089816Y0082387D02*
X0058350Y0082387D01*
X0058350Y0083385D02*
X0090550Y0083385D01*
X0090550Y0084384D02*
X0058350Y0084384D01*
X0058350Y0085382D02*
X0090550Y0085382D01*
X0090550Y0086381D02*
X0058350Y0086381D01*
X0058350Y0087379D02*
X0090550Y0087379D01*
X0090550Y0088378D02*
X0058350Y0088378D01*
X0058350Y0089376D02*
X0090550Y0089376D01*
X0090550Y0090375D02*
X0058350Y0090375D01*
X0058350Y0091373D02*
X0090550Y0091373D01*
X0090550Y0092372D02*
X0058350Y0092372D01*
X0058350Y0093370D02*
X0090550Y0093370D01*
X0090550Y0094369D02*
X0058350Y0094369D01*
X0058350Y0095368D02*
X0090550Y0095368D01*
X0090550Y0096366D02*
X0058350Y0096366D01*
X0058350Y0097365D02*
X0090550Y0097365D01*
X0090550Y0098363D02*
X0058350Y0098363D01*
X0058350Y0099362D02*
X0090550Y0099362D01*
X0090550Y0100360D02*
X0058350Y0100360D01*
X0058350Y0101359D02*
X0090550Y0101359D01*
X0090550Y0102357D02*
X0058350Y0102357D01*
X0058350Y0103356D02*
X0090550Y0103356D01*
X0090550Y0104354D02*
X0058350Y0104354D01*
X0058350Y0105353D02*
X0090550Y0105353D01*
X0090550Y0106351D02*
X0058350Y0106351D01*
X0058350Y0107350D02*
X0090451Y0107350D01*
X0089452Y0108348D02*
X0058350Y0108348D01*
X0058350Y0109347D02*
X0088750Y0109347D01*
X0088750Y0110345D02*
X0058350Y0110345D01*
X0058350Y0111344D02*
X0088750Y0111344D01*
X0088086Y0112342D02*
X0058350Y0112342D01*
X0058350Y0113341D02*
X0087088Y0113341D01*
X0086089Y0114339D02*
X0058350Y0114339D01*
X0058350Y0115338D02*
X0085091Y0115338D01*
X0084092Y0116336D02*
X0058350Y0116336D01*
X0058350Y0117335D02*
X0083094Y0117335D01*
X0082095Y0118333D02*
X0058350Y0118333D01*
X0058350Y0119332D02*
X0065575Y0119332D01*
X0065435Y0120330D02*
X0058350Y0120330D01*
X0058350Y0121329D02*
X0065435Y0121329D01*
X0065637Y0122327D02*
X0058350Y0122327D01*
X0058997Y0123326D02*
X0065435Y0123326D01*
X0065435Y0124324D02*
X0059996Y0124324D01*
X0060994Y0125323D02*
X0065548Y0125323D01*
X0065435Y0126321D02*
X0061993Y0126321D01*
X0062991Y0127320D02*
X0065435Y0127320D01*
X0065501Y0128318D02*
X0063990Y0128318D01*
X0064988Y0129317D02*
X0065435Y0129317D01*
X0069100Y0129317D02*
X0069100Y0129317D01*
X0069100Y0128318D02*
X0069100Y0128318D01*
X0069100Y0127320D02*
X0069100Y0127320D01*
X0069100Y0126321D02*
X0069100Y0126321D01*
X0069100Y0125323D02*
X0069100Y0125323D01*
X0069100Y0124324D02*
X0069100Y0124324D01*
X0069100Y0123326D02*
X0069100Y0123326D01*
X0069100Y0122327D02*
X0069100Y0122327D01*
X0069100Y0121329D02*
X0069100Y0121329D01*
X0069100Y0120330D02*
X0069100Y0120330D01*
X0069100Y0119332D02*
X0069100Y0119332D01*
X0059747Y0128318D02*
X0055584Y0128318D01*
X0054585Y0127320D02*
X0058749Y0127320D01*
X0055753Y0124324D02*
X0053941Y0124324D01*
X0054940Y0123326D02*
X0055350Y0123326D01*
X0049560Y0123326D02*
X0035150Y0123326D01*
X0035150Y0122327D02*
X0048562Y0122327D01*
X0048350Y0121329D02*
X0035150Y0121329D01*
X0035150Y0114339D02*
X0050574Y0114339D01*
X0049575Y0113341D02*
X0035150Y0113341D01*
X0035150Y0112342D02*
X0048577Y0112342D01*
X0048350Y0111344D02*
X0035150Y0111344D01*
X0054925Y0113341D02*
X0055350Y0113341D01*
X0073959Y0132312D02*
X0082141Y0132312D01*
X0083140Y0133311D02*
X0072960Y0133311D01*
X0071962Y0134309D02*
X0084138Y0134309D01*
X0121350Y0134309D02*
X0122550Y0134309D01*
X0122550Y0133311D02*
X0121350Y0133311D01*
X0121350Y0132312D02*
X0122550Y0132312D01*
X0122550Y0131314D02*
X0121350Y0131314D01*
X0121350Y0130315D02*
X0122550Y0130315D01*
X0122550Y0129317D02*
X0121350Y0129317D01*
X0121350Y0128318D02*
X0122550Y0128318D01*
X0122550Y0127320D02*
X0121350Y0127320D01*
X0125550Y0122327D02*
X0128724Y0122327D01*
X0128333Y0121329D02*
X0125550Y0121329D01*
X0125941Y0120330D02*
X0128333Y0120330D01*
X0137207Y0121329D02*
X0138207Y0121329D01*
X0138207Y0122327D02*
X0137207Y0122327D01*
X0137207Y0118333D02*
X0138207Y0118333D01*
X0138207Y0117335D02*
X0137207Y0117335D01*
X0137207Y0116336D02*
X0138207Y0116336D01*
X0138207Y0115338D02*
X0137207Y0115338D01*
X0129245Y0135308D02*
X0125550Y0135308D01*
X0125550Y0136306D02*
X0128733Y0136306D01*
X0128733Y0137305D02*
X0125550Y0137305D01*
X0125550Y0138303D02*
X0128733Y0138303D01*
X0128733Y0139302D02*
X0125550Y0139302D01*
X0125550Y0140301D02*
X0128733Y0140301D01*
X0128733Y0141299D02*
X0125550Y0141299D01*
X0125550Y0166262D02*
X0128733Y0166262D01*
X0128733Y0167260D02*
X0125550Y0167260D01*
X0125550Y0168259D02*
X0128733Y0168259D01*
X0128733Y0169257D02*
X0125550Y0169257D01*
X0125550Y0170256D02*
X0128733Y0170256D01*
X0129004Y0171254D02*
X0125550Y0171254D01*
X0125550Y0172253D02*
X0128976Y0172253D01*
X0127977Y0173251D02*
X0125550Y0173251D01*
X0125550Y0174250D02*
X0126979Y0174250D01*
X0126550Y0175248D02*
X0125550Y0175248D01*
X0125550Y0176247D02*
X0126550Y0176247D01*
X0126550Y0177245D02*
X0125550Y0177245D01*
X0125550Y0178244D02*
X0126550Y0178244D01*
X0126550Y0179242D02*
X0125550Y0179242D01*
X0125550Y0180241D02*
X0126550Y0180241D01*
X0126550Y0181239D02*
X0125550Y0181239D01*
X0125550Y0182238D02*
X0126550Y0182238D01*
X0126550Y0183237D02*
X0125550Y0183237D01*
X0125550Y0184235D02*
X0126550Y0184235D01*
X0126550Y0185234D02*
X0125550Y0185234D01*
X0125550Y0186232D02*
X0126550Y0186232D01*
X0126550Y0187231D02*
X0125550Y0187231D01*
X0125550Y0188229D02*
X0126550Y0188229D01*
X0126550Y0189228D02*
X0125550Y0189228D01*
X0125550Y0190226D02*
X0126550Y0190226D01*
X0126550Y0191225D02*
X0125550Y0191225D01*
X0125967Y0192223D02*
X0126550Y0192223D01*
X0126550Y0193222D02*
X0126450Y0193222D01*
X0126432Y0194220D02*
X0126550Y0194220D01*
X0125925Y0195219D02*
X0127447Y0195219D01*
X0129550Y0193079D02*
X0144950Y0208479D01*
X0144950Y0206050D01*
X0147600Y0206050D01*
X0147600Y0205750D01*
X0147900Y0205750D01*
X0147900Y0200400D01*
X0149247Y0200400D01*
X0149629Y0200502D01*
X0149971Y0200700D01*
X0150250Y0200979D01*
X0150448Y0201321D01*
X0150453Y0201341D01*
X0150994Y0200800D01*
X0153750Y0200800D01*
X0153750Y0181452D01*
X0152435Y0182767D01*
X0151805Y0183028D01*
X0151805Y0186563D01*
X0145293Y0186563D01*
X0145293Y0181626D01*
X0145459Y0181626D01*
X0145304Y0181470D01*
X0129550Y0181470D01*
X0129550Y0193079D01*
X0129693Y0193222D02*
X0153750Y0193222D01*
X0153750Y0194220D02*
X0130691Y0194220D01*
X0131690Y0195219D02*
X0153750Y0195219D01*
X0153750Y0196217D02*
X0132688Y0196217D01*
X0133687Y0197216D02*
X0153750Y0197216D01*
X0153750Y0198214D02*
X0134685Y0198214D01*
X0135684Y0199213D02*
X0153750Y0199213D01*
X0153750Y0200211D02*
X0136683Y0200211D01*
X0137681Y0201210D02*
X0145116Y0201210D01*
X0145052Y0201321D02*
X0145250Y0200979D01*
X0145529Y0200700D01*
X0145871Y0200502D01*
X0146253Y0200400D01*
X0147600Y0200400D01*
X0147600Y0205750D01*
X0144950Y0205750D01*
X0144950Y0201703D01*
X0145052Y0201321D01*
X0144950Y0202208D02*
X0138680Y0202208D01*
X0139678Y0203207D02*
X0144950Y0203207D01*
X0144950Y0204205D02*
X0140677Y0204205D01*
X0141675Y0205204D02*
X0144950Y0205204D01*
X0144950Y0206202D02*
X0142674Y0206202D01*
X0143672Y0207201D02*
X0144950Y0207201D01*
X0144950Y0208199D02*
X0144671Y0208199D01*
X0147600Y0208199D02*
X0147900Y0208199D01*
X0147900Y0207201D02*
X0147600Y0207201D01*
X0147600Y0206202D02*
X0147900Y0206202D01*
X0147900Y0205204D02*
X0147600Y0205204D01*
X0147600Y0204205D02*
X0147900Y0204205D01*
X0147900Y0203207D02*
X0147600Y0203207D01*
X0147600Y0202208D02*
X0147900Y0202208D01*
X0147900Y0201210D02*
X0147600Y0201210D01*
X0150383Y0201210D02*
X0150585Y0201210D01*
X0147900Y0209198D02*
X0147600Y0209198D01*
X0147600Y0210196D02*
X0147900Y0210196D01*
X0147900Y0211195D02*
X0147666Y0211195D01*
X0148665Y0212193D02*
X0154822Y0212193D01*
X0153823Y0211195D02*
X0149807Y0211195D01*
X0149663Y0213192D02*
X0155821Y0213192D01*
X0156819Y0214190D02*
X0150662Y0214190D01*
X0151660Y0215189D02*
X0157818Y0215189D01*
X0158816Y0216187D02*
X0152659Y0216187D01*
X0153657Y0217186D02*
X0159815Y0217186D01*
X0160813Y0218184D02*
X0154656Y0218184D01*
X0159807Y0211195D02*
X0170693Y0211195D01*
X0165350Y0210196D02*
X0165150Y0210196D01*
X0165150Y0209198D02*
X0165350Y0209198D01*
X0165350Y0208199D02*
X0165150Y0208199D01*
X0165150Y0207201D02*
X0165350Y0207201D01*
X0165350Y0206202D02*
X0165150Y0206202D01*
X0165150Y0205204D02*
X0165350Y0205204D01*
X0165350Y0204205D02*
X0165150Y0204205D01*
X0165150Y0203207D02*
X0165350Y0203207D01*
X0165350Y0202208D02*
X0165150Y0202208D01*
X0164915Y0201210D02*
X0165585Y0201210D01*
X0169915Y0201210D02*
X0170116Y0201210D01*
X0160585Y0201210D02*
X0160383Y0201210D01*
X0157900Y0201210D02*
X0157600Y0201210D01*
X0157600Y0202208D02*
X0157900Y0202208D01*
X0157900Y0203207D02*
X0157600Y0203207D01*
X0157600Y0204205D02*
X0157900Y0204205D01*
X0157900Y0205204D02*
X0157600Y0205204D01*
X0153750Y0192223D02*
X0151187Y0192223D01*
X0151226Y0192200D02*
X0150884Y0192398D01*
X0150503Y0192500D01*
X0145293Y0192500D01*
X0145293Y0187563D01*
X0144293Y0187563D01*
X0144293Y0186563D01*
X0137781Y0186563D01*
X0137781Y0182928D01*
X0137884Y0182547D01*
X0138081Y0182205D01*
X0138360Y0181926D01*
X0138703Y0181728D01*
X0139084Y0181626D01*
X0144293Y0181626D01*
X0144293Y0186563D01*
X0145293Y0186563D01*
X0145293Y0187563D01*
X0151805Y0187563D01*
X0151805Y0191197D01*
X0151703Y0191579D01*
X0151505Y0191921D01*
X0151226Y0192200D01*
X0151798Y0191225D02*
X0153750Y0191225D01*
X0153750Y0190226D02*
X0151805Y0190226D01*
X0151805Y0189228D02*
X0153750Y0189228D01*
X0153750Y0188229D02*
X0151805Y0188229D01*
X0151805Y0186232D02*
X0153750Y0186232D01*
X0153750Y0185234D02*
X0151805Y0185234D01*
X0151805Y0184235D02*
X0153750Y0184235D01*
X0153750Y0183237D02*
X0151805Y0183237D01*
X0152964Y0182238D02*
X0153750Y0182238D01*
X0153750Y0187231D02*
X0145293Y0187231D01*
X0145293Y0188229D02*
X0144293Y0188229D01*
X0144293Y0187563D02*
X0144293Y0192500D01*
X0139084Y0192500D01*
X0138703Y0192398D01*
X0138360Y0192200D01*
X0138081Y0191921D01*
X0137884Y0191579D01*
X0137781Y0191197D01*
X0137781Y0187563D01*
X0144293Y0187563D01*
X0144293Y0187231D02*
X0129550Y0187231D01*
X0129550Y0188229D02*
X0137781Y0188229D01*
X0137781Y0189228D02*
X0129550Y0189228D01*
X0129550Y0190226D02*
X0137781Y0190226D01*
X0137789Y0191225D02*
X0129550Y0191225D01*
X0129550Y0192223D02*
X0138400Y0192223D01*
X0137781Y0186232D02*
X0129550Y0186232D01*
X0129550Y0185234D02*
X0137781Y0185234D01*
X0137781Y0184235D02*
X0129550Y0184235D01*
X0129550Y0183237D02*
X0137781Y0183237D01*
X0138062Y0182238D02*
X0129550Y0182238D01*
X0144293Y0182238D02*
X0145293Y0182238D01*
X0145293Y0183237D02*
X0144293Y0183237D01*
X0144293Y0184235D02*
X0145293Y0184235D01*
X0145293Y0185234D02*
X0144293Y0185234D01*
X0144293Y0186232D02*
X0145293Y0186232D01*
X0145293Y0189228D02*
X0144293Y0189228D01*
X0144293Y0190226D02*
X0145293Y0190226D01*
X0145293Y0191225D02*
X0144293Y0191225D01*
X0144293Y0192223D02*
X0145293Y0192223D01*
X0132975Y0211195D02*
X0124081Y0211195D01*
X0124081Y0212193D02*
X0123112Y0212193D01*
X0123112Y0213192D02*
X0124081Y0213192D01*
X0124081Y0214190D02*
X0123112Y0214190D01*
X0120547Y0214190D02*
X0118350Y0214190D01*
X0115350Y0214190D02*
X0103462Y0214190D01*
X0104460Y0215189D02*
X0115350Y0215189D01*
X0114641Y0216187D02*
X0105459Y0216187D01*
X0106457Y0217186D02*
X0113643Y0217186D01*
X0112644Y0218184D02*
X0107456Y0218184D01*
X0107190Y0213192D02*
X0113638Y0213192D01*
X0113638Y0212193D02*
X0107300Y0212193D01*
X0107300Y0211195D02*
X0113638Y0211195D01*
X0113638Y0210196D02*
X0107300Y0210196D01*
X0107300Y0209198D02*
X0113638Y0209198D01*
X0113555Y0208199D02*
X0107300Y0208199D01*
X0107300Y0207201D02*
X0112943Y0207201D01*
X0112831Y0206202D02*
X0107300Y0206202D01*
X0107300Y0205204D02*
X0111832Y0205204D01*
X0110834Y0204205D02*
X0107189Y0204205D01*
X0104775Y0204205D02*
X0104725Y0204205D01*
X0104725Y0205204D02*
X0104775Y0205204D01*
X0104775Y0206202D02*
X0104725Y0206202D01*
X0104725Y0207201D02*
X0104775Y0207201D01*
X0104775Y0208199D02*
X0104725Y0208199D01*
X0104725Y0209198D02*
X0104775Y0209198D01*
X0104775Y0210196D02*
X0104725Y0210196D01*
X0104725Y0211195D02*
X0104775Y0211195D01*
X0104775Y0212193D02*
X0104725Y0212193D01*
X0104725Y0213192D02*
X0104775Y0213192D01*
X0102200Y0212193D02*
X0101900Y0212193D01*
X0101900Y0211195D02*
X0102200Y0211195D01*
X0102200Y0210196D02*
X0101900Y0210196D01*
X0101900Y0209198D02*
X0102200Y0209198D01*
X0102200Y0208199D02*
X0101900Y0208199D01*
X0101900Y0207201D02*
X0102200Y0207201D01*
X0102200Y0206202D02*
X0101900Y0206202D01*
X0101900Y0205204D02*
X0102200Y0205204D01*
X0102311Y0204205D02*
X0101761Y0204205D01*
X0119792Y0208199D02*
X0120180Y0208199D01*
X0123112Y0208199D02*
X0124081Y0208199D01*
X0124081Y0209198D02*
X0123112Y0209198D01*
X0123112Y0210196D02*
X0124081Y0210196D01*
X0153326Y0244146D02*
X0174683Y0244146D01*
X0173684Y0245144D02*
X0152327Y0245144D01*
X0152024Y0246143D02*
X0157976Y0246143D01*
X0156571Y0247141D02*
X0153429Y0247141D01*
X0154218Y0248140D02*
X0155782Y0248140D01*
X0155369Y0249138D02*
X0154631Y0249138D01*
X0154800Y0250137D02*
X0155200Y0250137D01*
X0155200Y0251135D02*
X0154800Y0251135D01*
X0154519Y0252134D02*
X0155481Y0252134D01*
X0155895Y0253132D02*
X0154105Y0253132D01*
X0153157Y0254131D02*
X0156843Y0254131D01*
X0157750Y0255129D02*
X0151367Y0255129D01*
X0151150Y0256128D02*
X0157750Y0256128D01*
X0157750Y0257126D02*
X0151150Y0257126D01*
X0151150Y0258125D02*
X0157750Y0258125D01*
X0157750Y0259123D02*
X0151150Y0259123D01*
X0151150Y0260122D02*
X0157750Y0260122D01*
X0157750Y0261120D02*
X0151150Y0261120D01*
X0151150Y0262119D02*
X0157750Y0262119D01*
X0157750Y0263117D02*
X0151150Y0263117D01*
X0151150Y0264116D02*
X0157750Y0264116D01*
X0157750Y0265114D02*
X0151150Y0265114D01*
X0151150Y0266113D02*
X0157750Y0266113D01*
X0157750Y0267111D02*
X0151150Y0267111D01*
X0151150Y0268110D02*
X0157750Y0268110D01*
X0157750Y0269108D02*
X0151150Y0269108D01*
X0151150Y0270107D02*
X0157750Y0270107D01*
X0157750Y0271105D02*
X0151150Y0271105D01*
X0151150Y0272104D02*
X0157750Y0272104D01*
X0157750Y0273103D02*
X0151150Y0273103D01*
X0151150Y0274101D02*
X0157750Y0274101D01*
X0157329Y0275100D02*
X0151150Y0275100D01*
X0151150Y0276098D02*
X0156331Y0276098D01*
X0155332Y0277097D02*
X0151150Y0277097D01*
X0150576Y0278095D02*
X0154334Y0278095D01*
X0153335Y0279094D02*
X0149578Y0279094D01*
X0148579Y0280092D02*
X0152337Y0280092D01*
X0151338Y0281091D02*
X0147581Y0281091D01*
X0146582Y0282089D02*
X0150340Y0282089D01*
X0149341Y0283088D02*
X0145584Y0283088D01*
X0144585Y0284086D02*
X0148343Y0284086D01*
X0147344Y0285085D02*
X0143587Y0285085D01*
X0142588Y0286083D02*
X0146345Y0286083D01*
X0145347Y0287082D02*
X0141590Y0287082D01*
X0140591Y0288080D02*
X0144348Y0288080D01*
X0143350Y0289079D02*
X0139593Y0289079D01*
X0138594Y0290077D02*
X0142351Y0290077D01*
X0141353Y0291076D02*
X0137596Y0291076D01*
X0136597Y0292074D02*
X0140354Y0292074D01*
X0139356Y0293073D02*
X0135599Y0293073D01*
X0134600Y0294071D02*
X0138357Y0294071D01*
X0137359Y0295070D02*
X0133602Y0295070D01*
X0138606Y0298065D02*
X0143195Y0298065D01*
X0143383Y0297611D02*
X0144818Y0296176D01*
X0146692Y0295400D01*
X0148721Y0295400D01*
X0150596Y0296176D01*
X0152030Y0297611D01*
X0152807Y0299486D01*
X0152807Y0301514D01*
X0152030Y0303389D01*
X0150596Y0304824D01*
X0148721Y0305600D01*
X0146692Y0305600D01*
X0144818Y0304824D01*
X0143383Y0303389D01*
X0142607Y0301514D01*
X0142607Y0299486D01*
X0143383Y0297611D01*
X0143927Y0297067D02*
X0139605Y0297067D01*
X0140603Y0296068D02*
X0145079Y0296068D01*
X0142600Y0294071D02*
X0179957Y0294071D01*
X0178959Y0295070D02*
X0165944Y0295070D01*
X0166065Y0295102D02*
X0165684Y0295000D01*
X0161986Y0295000D01*
X0161986Y0300000D01*
X0160986Y0300000D01*
X0155986Y0300000D01*
X0155986Y0296303D01*
X0156088Y0295921D01*
X0156286Y0295579D01*
X0156565Y0295300D01*
X0156907Y0295102D01*
X0157289Y0295000D01*
X0160986Y0295000D01*
X0160986Y0300000D01*
X0160986Y0301000D01*
X0155986Y0301000D01*
X0155986Y0304697D01*
X0156088Y0305079D01*
X0156286Y0305421D01*
X0156565Y0305700D01*
X0156907Y0305898D01*
X0157289Y0306000D01*
X0160986Y0306000D01*
X0160986Y0301000D01*
X0161986Y0301000D01*
X0161986Y0306000D01*
X0165684Y0306000D01*
X0166065Y0305898D01*
X0166407Y0305700D01*
X0166687Y0305421D01*
X0166884Y0305079D01*
X0166986Y0304697D01*
X0166986Y0301000D01*
X0161986Y0301000D01*
X0161986Y0300000D01*
X0166986Y0300000D01*
X0166986Y0296303D01*
X0166884Y0295921D01*
X0166687Y0295579D01*
X0166407Y0295300D01*
X0166065Y0295102D01*
X0166923Y0296068D02*
X0172638Y0296068D01*
X0171486Y0297067D02*
X0166986Y0297067D01*
X0166986Y0298065D02*
X0170754Y0298065D01*
X0170340Y0299064D02*
X0166986Y0299064D01*
X0166986Y0301061D02*
X0170166Y0301061D01*
X0170166Y0300062D02*
X0161986Y0300062D01*
X0161986Y0299064D02*
X0160986Y0299064D01*
X0160986Y0300062D02*
X0152807Y0300062D01*
X0152807Y0301061D02*
X0155986Y0301061D01*
X0155986Y0302059D02*
X0152581Y0302059D01*
X0152167Y0303058D02*
X0155986Y0303058D01*
X0155986Y0304056D02*
X0151363Y0304056D01*
X0150037Y0305055D02*
X0156082Y0305055D01*
X0155986Y0299064D02*
X0152632Y0299064D01*
X0152218Y0298065D02*
X0155986Y0298065D01*
X0155986Y0297067D02*
X0151486Y0297067D01*
X0150335Y0296068D02*
X0156049Y0296068D01*
X0157028Y0295070D02*
X0141602Y0295070D01*
X0143599Y0293073D02*
X0180956Y0293073D01*
X0181954Y0292074D02*
X0144597Y0292074D01*
X0145596Y0291076D02*
X0182953Y0291076D01*
X0183951Y0290077D02*
X0146594Y0290077D01*
X0147593Y0289079D02*
X0184950Y0289079D01*
X0185948Y0288080D02*
X0148591Y0288080D01*
X0149590Y0287082D02*
X0186947Y0287082D01*
X0187945Y0286083D02*
X0150588Y0286083D01*
X0151587Y0285085D02*
X0188150Y0285085D01*
X0188150Y0284086D02*
X0152585Y0284086D01*
X0153584Y0283088D02*
X0188150Y0283088D01*
X0188150Y0282089D02*
X0154582Y0282089D01*
X0155581Y0281091D02*
X0188150Y0281091D01*
X0188150Y0280092D02*
X0156579Y0280092D01*
X0157578Y0279094D02*
X0188150Y0279094D01*
X0188150Y0278095D02*
X0158576Y0278095D01*
X0159575Y0277097D02*
X0188150Y0277097D01*
X0188150Y0276098D02*
X0160573Y0276098D01*
X0160750Y0275100D02*
X0188150Y0275100D01*
X0188150Y0274101D02*
X0160750Y0274101D01*
X0160750Y0273103D02*
X0188150Y0273103D01*
X0188150Y0272104D02*
X0160750Y0272104D01*
X0160750Y0271105D02*
X0188150Y0271105D01*
X0188150Y0270107D02*
X0160750Y0270107D01*
X0160750Y0269108D02*
X0188150Y0269108D01*
X0188150Y0268110D02*
X0160750Y0268110D01*
X0160750Y0267111D02*
X0188150Y0267111D01*
X0188150Y0266113D02*
X0160750Y0266113D01*
X0160750Y0265114D02*
X0188150Y0265114D01*
X0188150Y0264116D02*
X0160750Y0264116D01*
X0160750Y0263117D02*
X0188150Y0263117D01*
X0188150Y0262119D02*
X0160750Y0262119D01*
X0160750Y0261120D02*
X0188150Y0261120D01*
X0188150Y0260122D02*
X0160750Y0260122D01*
X0160750Y0259123D02*
X0188150Y0259123D01*
X0188150Y0258125D02*
X0160750Y0258125D01*
X0160750Y0257126D02*
X0188150Y0257126D01*
X0188150Y0256128D02*
X0160750Y0256128D01*
X0161367Y0255129D02*
X0168633Y0255129D01*
X0166843Y0254131D02*
X0163157Y0254131D01*
X0164105Y0253132D02*
X0165895Y0253132D01*
X0165481Y0252134D02*
X0164519Y0252134D01*
X0164800Y0251135D02*
X0165200Y0251135D01*
X0165200Y0250137D02*
X0164800Y0250137D01*
X0164631Y0249138D02*
X0165369Y0249138D01*
X0165782Y0248140D02*
X0164218Y0248140D01*
X0163429Y0247141D02*
X0166571Y0247141D01*
X0167976Y0246143D02*
X0162024Y0246143D01*
X0155323Y0242149D02*
X0182280Y0242149D01*
X0181281Y0243147D02*
X0154324Y0243147D01*
X0164547Y0235159D02*
X0165953Y0235159D01*
X0165350Y0234161D02*
X0165150Y0234161D01*
X0165150Y0233162D02*
X0165350Y0233162D01*
X0165350Y0232164D02*
X0165150Y0232164D01*
X0165150Y0231165D02*
X0165350Y0231165D01*
X0165350Y0230167D02*
X0165150Y0230167D01*
X0165150Y0229168D02*
X0165350Y0229168D01*
X0165350Y0228170D02*
X0165150Y0228170D01*
X0165150Y0227171D02*
X0165350Y0227171D01*
X0165350Y0226172D02*
X0165150Y0226172D01*
X0164680Y0225174D02*
X0165750Y0225174D01*
X0179950Y0225174D02*
X0180820Y0225174D01*
X0180350Y0226172D02*
X0180150Y0226172D01*
X0180150Y0227171D02*
X0180350Y0227171D01*
X0180350Y0228170D02*
X0180150Y0228170D01*
X0180150Y0229168D02*
X0180350Y0229168D01*
X0180350Y0230167D02*
X0180150Y0230167D01*
X0180150Y0231165D02*
X0180350Y0231165D01*
X0180350Y0232164D02*
X0180150Y0232164D01*
X0185150Y0232164D02*
X0185865Y0232164D01*
X0185150Y0231165D02*
X0186864Y0231165D01*
X0187862Y0230167D02*
X0185150Y0230167D01*
X0185150Y0229168D02*
X0188861Y0229168D01*
X0189859Y0228170D02*
X0185150Y0228170D01*
X0185150Y0227171D02*
X0190335Y0227171D01*
X0190335Y0226172D02*
X0185150Y0226172D01*
X0184680Y0225174D02*
X0190335Y0225174D01*
X0190539Y0224175D02*
X0179950Y0224175D01*
X0179950Y0223177D02*
X0195652Y0223177D01*
X0196650Y0222178D02*
X0179950Y0222178D01*
X0179950Y0221180D02*
X0197649Y0221180D01*
X0198647Y0220181D02*
X0179950Y0220181D01*
X0179950Y0219183D02*
X0199646Y0219183D01*
X0200644Y0218184D02*
X0180087Y0218184D01*
X0181085Y0217186D02*
X0201643Y0217186D01*
X0202550Y0216187D02*
X0182084Y0216187D01*
X0183082Y0215189D02*
X0202550Y0215189D01*
X0201589Y0214190D02*
X0184081Y0214190D01*
X0185079Y0213192D02*
X0201441Y0213192D01*
X0201441Y0212193D02*
X0186078Y0212193D01*
X0187076Y0211195D02*
X0201441Y0211195D01*
X0201441Y0210196D02*
X0187150Y0210196D01*
X0187150Y0209198D02*
X0201441Y0209198D01*
X0201441Y0208199D02*
X0187150Y0208199D01*
X0187150Y0207201D02*
X0201860Y0207201D01*
X0197506Y0231165D02*
X0211350Y0231165D01*
X0211350Y0232164D02*
X0196508Y0232164D01*
X0195509Y0233162D02*
X0211350Y0233162D01*
X0211350Y0234161D02*
X0194511Y0234161D01*
X0193512Y0235159D02*
X0211350Y0235159D01*
X0211350Y0236158D02*
X0192514Y0236158D01*
X0191515Y0237156D02*
X0211273Y0237156D01*
X0212024Y0246143D02*
X0217976Y0246143D01*
X0216571Y0247141D02*
X0213429Y0247141D01*
X0214218Y0248140D02*
X0215782Y0248140D01*
X0215369Y0249138D02*
X0214631Y0249138D01*
X0214800Y0250137D02*
X0215200Y0250137D01*
X0215200Y0251135D02*
X0214800Y0251135D01*
X0214519Y0252134D02*
X0215481Y0252134D01*
X0215895Y0253132D02*
X0214105Y0253132D01*
X0213157Y0254131D02*
X0216843Y0254131D01*
X0220750Y0256128D02*
X0224150Y0256128D01*
X0224150Y0257126D02*
X0220750Y0257126D01*
X0220750Y0258125D02*
X0224150Y0258125D01*
X0224150Y0259123D02*
X0220750Y0259123D01*
X0220750Y0260122D02*
X0224150Y0260122D01*
X0224150Y0261120D02*
X0220750Y0261120D01*
X0220750Y0262119D02*
X0224150Y0262119D01*
X0224150Y0263117D02*
X0220750Y0263117D01*
X0220750Y0264116D02*
X0224150Y0264116D01*
X0224150Y0265114D02*
X0220357Y0265114D01*
X0219358Y0266113D02*
X0224150Y0266113D01*
X0224150Y0267111D02*
X0218360Y0267111D01*
X0217361Y0268110D02*
X0224150Y0268110D01*
X0224150Y0269108D02*
X0218808Y0269108D01*
X0220545Y0270107D02*
X0224150Y0270107D01*
X0224150Y0271105D02*
X0221471Y0271105D01*
X0221884Y0272104D02*
X0224150Y0272104D01*
X0224150Y0273103D02*
X0222150Y0273103D01*
X0222150Y0274101D02*
X0224150Y0274101D01*
X0224150Y0275100D02*
X0221966Y0275100D01*
X0221552Y0276098D02*
X0224150Y0276098D01*
X0224150Y0277097D02*
X0220742Y0277097D01*
X0219282Y0278095D02*
X0224150Y0278095D01*
X0223202Y0295070D02*
X0232126Y0295070D01*
X0231070Y0296068D02*
X0222203Y0296068D01*
X0221620Y0297067D02*
X0230452Y0297067D01*
X0230084Y0298065D02*
X0222034Y0298065D01*
X0228093Y0313043D02*
X0041382Y0313043D01*
X0038444Y0312044D02*
X0231508Y0312044D01*
X0233238Y0311046D02*
X0037069Y0311046D01*
X0035968Y0310047D02*
X0234585Y0310047D01*
X0235584Y0309049D02*
X0035242Y0309049D01*
X0034556Y0308050D02*
X0062679Y0308050D01*
X0061681Y0307052D02*
X0034232Y0307052D01*
X0033907Y0306053D02*
X0060682Y0306053D01*
X0059684Y0305055D02*
X0056654Y0305055D01*
X0056750Y0304056D02*
X0058685Y0304056D01*
X0057687Y0303058D02*
X0056750Y0303058D01*
X0058934Y0300062D02*
X0059930Y0300062D01*
X0060104Y0299064D02*
X0058350Y0299064D01*
X0058350Y0298065D02*
X0060518Y0298065D01*
X0061250Y0297067D02*
X0058350Y0297067D01*
X0058350Y0296068D02*
X0062402Y0296068D01*
X0064150Y0295070D02*
X0058350Y0295070D01*
X0051750Y0295070D02*
X0050750Y0295070D01*
X0050750Y0295000D02*
X0050750Y0300000D01*
X0045750Y0300000D01*
X0045750Y0296303D01*
X0045852Y0295921D01*
X0046050Y0295579D01*
X0046329Y0295300D01*
X0046671Y0295102D01*
X0047053Y0295000D01*
X0050750Y0295000D01*
X0050750Y0296068D02*
X0051750Y0296068D01*
X0051750Y0297067D02*
X0050750Y0297067D01*
X0050750Y0298065D02*
X0051750Y0298065D01*
X0051750Y0299064D02*
X0050750Y0299064D01*
X0050750Y0300062D02*
X0033589Y0300062D01*
X0033589Y0299064D02*
X0045750Y0299064D01*
X0045750Y0298065D02*
X0033589Y0298065D01*
X0033589Y0297067D02*
X0045750Y0297067D01*
X0045813Y0296068D02*
X0033589Y0296068D01*
X0033589Y0295070D02*
X0046792Y0295070D01*
X0045750Y0301061D02*
X0033589Y0301061D01*
X0033589Y0302059D02*
X0045750Y0302059D01*
X0045750Y0303058D02*
X0033589Y0303058D01*
X0033595Y0304056D02*
X0045750Y0304056D01*
X0045846Y0305055D02*
X0033673Y0305055D01*
X0050750Y0305055D02*
X0051750Y0305055D01*
X0051750Y0304056D02*
X0050750Y0304056D01*
X0050750Y0303058D02*
X0051750Y0303058D01*
X0051750Y0302059D02*
X0050750Y0302059D01*
X0050750Y0301061D02*
X0051750Y0301061D01*
X0050155Y0257126D02*
X0046398Y0257126D01*
X0045399Y0256128D02*
X0049157Y0256128D01*
X0048158Y0255129D02*
X0046367Y0255129D01*
X0049519Y0252134D02*
X0050481Y0252134D01*
X0050404Y0253132D02*
X0050895Y0253132D01*
X0051402Y0254131D02*
X0051843Y0254131D01*
X0050200Y0251135D02*
X0049800Y0251135D01*
X0049800Y0250137D02*
X0050200Y0250137D01*
X0050369Y0249138D02*
X0049631Y0249138D01*
X0049218Y0248140D02*
X0050782Y0248140D01*
X0051571Y0247141D02*
X0048429Y0247141D01*
X0047024Y0246143D02*
X0052976Y0246143D01*
X0060941Y0254131D02*
X0061843Y0254131D01*
X0063633Y0255129D02*
X0059942Y0255129D01*
X0073897Y0225174D02*
X0081920Y0225174D01*
X0081441Y0224175D02*
X0074896Y0224175D01*
X0075894Y0223177D02*
X0081441Y0223177D01*
X0081441Y0222178D02*
X0076893Y0222178D01*
X0077891Y0221180D02*
X0081487Y0221180D01*
X0081848Y0220181D02*
X0078890Y0220181D01*
X0079888Y0219183D02*
X0081441Y0219183D01*
X0081441Y0218184D02*
X0080887Y0218184D01*
X0044373Y0222178D02*
X0035150Y0222178D01*
X0035150Y0221180D02*
X0044150Y0221180D01*
X0044150Y0220181D02*
X0035150Y0220181D01*
X0035150Y0219183D02*
X0044150Y0219183D01*
X0044150Y0218184D02*
X0035150Y0218184D01*
X0035150Y0217186D02*
X0044150Y0217186D01*
X0044150Y0216187D02*
X0035150Y0216187D01*
X0035150Y0215189D02*
X0044150Y0215189D01*
X0044150Y0214190D02*
X0035150Y0214190D01*
X0035150Y0213192D02*
X0044150Y0213192D01*
X0044150Y0212193D02*
X0035150Y0212193D01*
X0035150Y0211195D02*
X0044150Y0211195D01*
X0094350Y0268110D02*
X0128670Y0268110D01*
X0127672Y0269108D02*
X0094350Y0269108D01*
X0094350Y0270107D02*
X0126673Y0270107D01*
X0125675Y0271105D02*
X0094350Y0271105D01*
X0094350Y0272104D02*
X0124676Y0272104D01*
X0123678Y0273103D02*
X0094350Y0273103D01*
X0094350Y0274101D02*
X0122679Y0274101D01*
X0121681Y0275100D02*
X0094350Y0275100D01*
X0094350Y0276098D02*
X0120682Y0276098D01*
X0119684Y0277097D02*
X0094350Y0277097D01*
X0094350Y0278095D02*
X0118685Y0278095D01*
X0117687Y0279094D02*
X0094350Y0279094D01*
X0094350Y0280092D02*
X0116688Y0280092D01*
X0115690Y0281091D02*
X0094350Y0281091D01*
X0094350Y0282089D02*
X0114691Y0282089D01*
X0113693Y0283088D02*
X0094350Y0283088D01*
X0094350Y0284086D02*
X0112694Y0284086D01*
X0111695Y0285085D02*
X0094350Y0285085D01*
X0094350Y0286083D02*
X0110697Y0286083D01*
X0109698Y0287082D02*
X0094350Y0287082D01*
X0094350Y0288080D02*
X0108700Y0288080D01*
X0107701Y0289079D02*
X0094350Y0289079D01*
X0094350Y0290077D02*
X0106703Y0290077D01*
X0105704Y0291076D02*
X0094350Y0291076D01*
X0094350Y0292074D02*
X0104706Y0292074D01*
X0104268Y0293073D02*
X0094350Y0293073D01*
X0094350Y0294071D02*
X0104268Y0294071D01*
X0104268Y0295070D02*
X0094350Y0295070D01*
X0095216Y0296068D02*
X0103740Y0296068D01*
X0102589Y0297067D02*
X0096368Y0297067D01*
X0097100Y0298065D02*
X0101856Y0298065D01*
X0101443Y0299064D02*
X0097514Y0299064D01*
X0097689Y0300062D02*
X0101268Y0300062D01*
X0101268Y0301061D02*
X0097689Y0301061D01*
X0097463Y0302059D02*
X0101494Y0302059D01*
X0101907Y0303058D02*
X0097129Y0303058D01*
X0098128Y0304056D02*
X0102712Y0304056D01*
X0122221Y0308050D02*
X0236492Y0308050D01*
X0237068Y0307052D02*
X0123219Y0307052D01*
X0124218Y0306053D02*
X0237645Y0306053D01*
X0208126Y0273103D02*
X0191150Y0273103D01*
X0191150Y0274101D02*
X0207128Y0274101D01*
X0206129Y0275100D02*
X0191150Y0275100D01*
X0191150Y0276098D02*
X0205131Y0276098D01*
X0204132Y0277097D02*
X0191150Y0277097D01*
X0191150Y0278095D02*
X0203134Y0278095D01*
X0202135Y0279094D02*
X0191150Y0279094D01*
X0191150Y0280092D02*
X0201137Y0280092D01*
X0200138Y0281091D02*
X0191150Y0281091D01*
X0191150Y0282089D02*
X0199140Y0282089D01*
X0198141Y0283088D02*
X0191150Y0283088D01*
X0191150Y0284086D02*
X0197143Y0284086D01*
X0196144Y0285085D02*
X0191150Y0285085D01*
X0191150Y0286083D02*
X0195145Y0286083D01*
X0194147Y0287082D02*
X0191150Y0287082D01*
X0190191Y0288080D02*
X0193148Y0288080D01*
X0192150Y0289079D02*
X0189193Y0289079D01*
X0188194Y0290077D02*
X0191151Y0290077D01*
X0190153Y0291076D02*
X0187196Y0291076D01*
X0186197Y0292074D02*
X0189154Y0292074D01*
X0188156Y0293073D02*
X0185199Y0293073D01*
X0184200Y0294071D02*
X0188150Y0294071D01*
X0188150Y0295070D02*
X0183202Y0295070D01*
X0182203Y0296068D02*
X0186417Y0296068D01*
X0185266Y0297067D02*
X0181205Y0297067D01*
X0180206Y0298065D02*
X0184534Y0298065D01*
X0184120Y0299064D02*
X0180191Y0299064D01*
X0180366Y0300062D02*
X0183945Y0300062D01*
X0183945Y0301061D02*
X0180366Y0301061D01*
X0180140Y0302059D02*
X0184171Y0302059D01*
X0184585Y0303058D02*
X0179726Y0303058D01*
X0178922Y0304056D02*
X0185389Y0304056D01*
X0186715Y0305055D02*
X0177596Y0305055D01*
X0172935Y0305055D02*
X0166890Y0305055D01*
X0166986Y0304056D02*
X0171610Y0304056D01*
X0170805Y0303058D02*
X0166986Y0303058D01*
X0166986Y0302059D02*
X0170391Y0302059D01*
X0161986Y0302059D02*
X0160986Y0302059D01*
X0160986Y0301061D02*
X0161986Y0301061D01*
X0161986Y0303058D02*
X0160986Y0303058D01*
X0160986Y0304056D02*
X0161986Y0304056D01*
X0161986Y0305055D02*
X0160986Y0305055D01*
X0160986Y0298065D02*
X0161986Y0298065D01*
X0161986Y0297067D02*
X0160986Y0297067D01*
X0160986Y0296068D02*
X0161986Y0296068D01*
X0161986Y0295070D02*
X0160986Y0295070D01*
X0145376Y0305055D02*
X0136258Y0305055D01*
X0137583Y0304056D02*
X0144051Y0304056D01*
X0143246Y0303058D02*
X0138388Y0303058D01*
X0138801Y0302059D02*
X0142832Y0302059D01*
X0142607Y0301061D02*
X0139027Y0301061D01*
X0139027Y0300062D02*
X0142607Y0300062D01*
X0142781Y0299064D02*
X0138852Y0299064D01*
X0131597Y0305055D02*
X0125216Y0305055D01*
X0126215Y0304056D02*
X0130271Y0304056D01*
X0129466Y0303058D02*
X0127150Y0303058D01*
X0127150Y0302059D02*
X0129053Y0302059D01*
X0128827Y0301061D02*
X0127610Y0301061D01*
X0128609Y0300062D02*
X0128827Y0300062D01*
X0171367Y0255129D02*
X0178633Y0255129D01*
X0176843Y0254131D02*
X0173157Y0254131D01*
X0174105Y0253132D02*
X0175895Y0253132D01*
X0175481Y0252134D02*
X0174519Y0252134D01*
X0174800Y0251135D02*
X0175200Y0251135D01*
X0175200Y0250137D02*
X0174800Y0250137D01*
X0174631Y0249138D02*
X0175369Y0249138D01*
X0175782Y0248140D02*
X0174932Y0248140D01*
X0175930Y0247141D02*
X0176571Y0247141D01*
X0172686Y0246143D02*
X0172024Y0246143D01*
X0183392Y0240152D02*
X0184277Y0240152D01*
X0183850Y0239153D02*
X0185276Y0239153D01*
X0186274Y0238155D02*
X0184117Y0238155D01*
X0185115Y0237156D02*
X0187273Y0237156D01*
X0188271Y0236158D02*
X0186114Y0236158D01*
X0187112Y0235159D02*
X0189270Y0235159D01*
X0190268Y0234161D02*
X0188111Y0234161D01*
X0189109Y0233162D02*
X0191267Y0233162D01*
X0192265Y0232164D02*
X0190108Y0232164D01*
X0191106Y0231165D02*
X0193264Y0231165D01*
X0222024Y0246143D02*
X0224150Y0246143D01*
X0224150Y0247141D02*
X0223429Y0247141D01*
X0224105Y0253132D02*
X0224150Y0253132D01*
X0224150Y0254131D02*
X0223157Y0254131D01*
X0224150Y0255129D02*
X0221367Y0255129D01*
X0209125Y0272104D02*
X0191150Y0272104D01*
X0191673Y0296068D02*
X0200197Y0296068D01*
X0199046Y0297067D02*
X0192825Y0297067D01*
X0193557Y0298065D02*
X0198313Y0298065D01*
X0197899Y0299064D02*
X0193971Y0299064D01*
X0194145Y0300062D02*
X0197725Y0300062D01*
X0197725Y0301061D02*
X0194145Y0301061D01*
X0193920Y0302059D02*
X0197951Y0302059D01*
X0198364Y0303058D02*
X0193506Y0303058D01*
X0192701Y0304056D02*
X0199169Y0304056D01*
X0200494Y0305055D02*
X0191376Y0305055D01*
X0177960Y0296068D02*
X0177894Y0296068D01*
X0223554Y0231165D02*
X0224150Y0231165D01*
X0224072Y0223177D02*
X0224150Y0223177D01*
X0226577Y0091373D02*
X0227577Y0091373D01*
X0227577Y0090375D02*
X0226577Y0090375D01*
X0226577Y0089376D02*
X0227577Y0089376D01*
X0227577Y0088378D02*
X0226577Y0088378D01*
X0226577Y0085382D02*
X0227577Y0085382D01*
X0227577Y0084384D02*
X0226577Y0084384D01*
X0226577Y0083385D02*
X0227577Y0083385D01*
X0227577Y0082387D02*
X0226577Y0082387D01*
X0226577Y0081388D02*
X0227577Y0081388D01*
X0234089Y0088378D02*
X0238950Y0088378D01*
X0238950Y0089376D02*
X0234089Y0089376D01*
X0234089Y0090375D02*
X0238950Y0090375D01*
X0238950Y0091373D02*
X0233878Y0091373D01*
X0238950Y0079391D02*
X0121350Y0079391D01*
X0121350Y0078393D02*
X0238950Y0078393D01*
X0238950Y0077394D02*
X0121350Y0077394D01*
X0121350Y0076396D02*
X0238950Y0076396D01*
X0238950Y0075397D02*
X0121350Y0075397D01*
X0121350Y0074399D02*
X0238950Y0074399D01*
X0238950Y0073400D02*
X0121350Y0073400D01*
X0121350Y0072402D02*
X0238950Y0072402D01*
X0238950Y0071403D02*
X0121350Y0071403D01*
X0121350Y0070405D02*
X0238950Y0070405D01*
X0238950Y0069406D02*
X0121350Y0069406D01*
X0121350Y0068408D02*
X0238950Y0068408D01*
X0238950Y0067409D02*
X0121350Y0067409D01*
X0121350Y0066411D02*
X0166639Y0066411D01*
X0195297Y0056426D02*
X0197294Y0056426D01*
X0219922Y0053430D02*
X0229459Y0053430D01*
X0228750Y0052432D02*
X0221007Y0052432D01*
X0221662Y0051433D02*
X0228750Y0051433D01*
X0228750Y0050434D02*
X0222076Y0050434D01*
X0222150Y0049436D02*
X0228750Y0049436D01*
X0228750Y0048437D02*
X0222150Y0048437D01*
X0221775Y0047439D02*
X0228750Y0047439D01*
X0228750Y0046440D02*
X0221279Y0046440D01*
X0220280Y0045442D02*
X0228750Y0045442D01*
X0232661Y0066411D02*
X0238950Y0066411D01*
X0212280Y0022476D02*
X0207925Y0022476D01*
X0207925Y0021478D02*
X0212646Y0021478D01*
X0213263Y0020479D02*
X0207922Y0020479D01*
X0207509Y0019481D02*
X0214311Y0019481D01*
X0187825Y0016485D02*
X0177538Y0016485D01*
X0175766Y0016485D02*
X0174766Y0016485D01*
X0174766Y0017484D02*
X0175766Y0017484D01*
X0175766Y0018482D02*
X0174766Y0018482D01*
X0174766Y0019481D02*
X0175766Y0019481D01*
X0175766Y0020479D02*
X0174766Y0020479D01*
X0172993Y0016485D02*
X0166027Y0016485D01*
X0166586Y0017484D02*
X0171504Y0017484D01*
X0170660Y0018482D02*
X0166586Y0018482D01*
X0166586Y0019481D02*
X0170139Y0019481D01*
X0169859Y0020479D02*
X0166586Y0020479D01*
X0179028Y0017484D02*
X0185849Y0017484D01*
X0184851Y0018482D02*
X0179872Y0018482D01*
X0180393Y0019481D02*
X0184362Y0019481D01*
X0183948Y0020479D02*
X0180673Y0020479D01*
X0124142Y0015487D02*
X0110358Y0015487D01*
X0111356Y0016485D02*
X0118928Y0016485D01*
X0116952Y0017484D02*
X0112355Y0017484D01*
X0113353Y0018482D02*
X0115953Y0018482D01*
X0115464Y0019481D02*
X0114352Y0019481D01*
X0121368Y0016485D02*
X0123144Y0016485D01*
X0104803Y0056426D02*
X0102706Y0056426D01*
X0103712Y0057424D02*
X0103805Y0057424D01*
X0117150Y0067409D02*
X0081481Y0067409D01*
X0082479Y0068408D02*
X0117150Y0068408D01*
X0117150Y0069406D02*
X0083478Y0069406D01*
X0084476Y0070405D02*
X0117150Y0070405D01*
X0117150Y0071403D02*
X0085475Y0071403D01*
X0086473Y0072402D02*
X0117150Y0072402D01*
X0117150Y0073400D02*
X0087472Y0073400D01*
X0123712Y0057424D02*
X0125807Y0057424D01*
X0125222Y0058423D02*
X0124335Y0058423D01*
X0124749Y0059421D02*
X0124906Y0059421D01*
D29*
X0072250Y0110500D03*
X0139250Y0196500D03*
X0131250Y0221500D03*
X0149250Y0221500D03*
X0165250Y0186500D03*
X0110250Y0212500D03*
X0102250Y0223500D03*
X0097250Y0215500D03*
D30*
X0100050Y0212900D02*
X0109650Y0222500D01*
X0110238Y0223000D01*
X0110450Y0222500D01*
X0116850Y0216100D01*
X0116850Y0211300D01*
X0116904Y0211000D01*
X0115250Y0206500D02*
X0100050Y0191300D01*
X0100050Y0189700D01*
X0099750Y0189300D01*
X0094450Y0201700D02*
X0076850Y0201700D01*
X0076850Y0177700D01*
X0068050Y0168900D01*
X0067250Y0168900D01*
X0055250Y0156900D01*
X0055250Y0156500D01*
X0066450Y0132900D02*
X0056850Y0123300D01*
X0056850Y0027300D01*
X0051250Y0021700D01*
X0051250Y0021500D01*
X0057650Y0024100D02*
X0057650Y0018500D01*
X0063250Y0012900D01*
X0105650Y0012900D01*
X0114450Y0021700D01*
X0114450Y0023300D01*
X0118450Y0027300D01*
X0128050Y0027300D01*
X0133650Y0021700D01*
X0133927Y0021500D01*
X0134450Y0021700D01*
X0140050Y0027300D01*
X0164050Y0027300D01*
X0196850Y0060100D01*
X0199250Y0060100D01*
X0200000Y0060500D01*
X0190000Y0060500D02*
X0189650Y0060100D01*
X0187250Y0060100D01*
X0156050Y0028900D01*
X0113650Y0028900D01*
X0106450Y0021700D01*
X0106368Y0021500D01*
X0105650Y0020900D01*
X0099250Y0014500D01*
X0064050Y0014500D01*
X0059250Y0019300D01*
X0059250Y0023300D01*
X0060050Y0024100D01*
X0060050Y0048100D01*
X0096850Y0084900D01*
X0096850Y0112100D01*
X0092850Y0116100D01*
X0092850Y0120100D01*
X0092250Y0120500D01*
X0092050Y0120900D01*
X0089650Y0123300D01*
X0076050Y0123300D01*
X0075400Y0123925D01*
X0075400Y0120776D02*
X0076050Y0120100D01*
X0082450Y0120100D01*
X0092050Y0110500D01*
X0092250Y0110500D01*
X0092050Y0110500D02*
X0092050Y0082500D01*
X0058450Y0048900D01*
X0058450Y0024900D01*
X0057650Y0024100D01*
X0065030Y0021500D02*
X0065650Y0020900D01*
X0072050Y0020900D01*
X0076850Y0016100D01*
X0087250Y0016100D01*
X0092050Y0020900D01*
X0092589Y0021500D01*
X0088050Y0030500D02*
X0079250Y0021700D01*
X0078809Y0021500D01*
X0088050Y0030500D02*
X0147250Y0030500D01*
X0176850Y0060100D01*
X0179250Y0060100D01*
X0180000Y0060500D01*
X0168050Y0065700D02*
X0231250Y0065700D01*
X0236050Y0060900D01*
X0236050Y0057900D01*
X0230250Y0052100D01*
X0230250Y0029900D01*
X0236050Y0024100D01*
X0235150Y0023700D01*
X0210000Y0042125D02*
X0189375Y0021500D01*
X0189045Y0021500D01*
X0210000Y0042125D02*
X0210000Y0060500D01*
X0168050Y0065700D02*
X0157650Y0055300D01*
X0108050Y0055300D01*
X0103250Y0060100D01*
X0100050Y0060100D01*
X0100000Y0060500D01*
X0097650Y0065700D02*
X0119250Y0065700D01*
X0097650Y0065700D02*
X0092850Y0060900D01*
X0090450Y0060900D01*
X0090000Y0060500D01*
X0120148Y0021500D02*
X0120850Y0020900D01*
X0125650Y0016100D01*
X0136050Y0016100D01*
X0140850Y0020900D01*
X0147250Y0020900D01*
X0147707Y0021500D01*
X0137707Y0109110D02*
X0137650Y0109700D01*
X0134450Y0109700D01*
X0124050Y0120100D01*
X0124050Y0193700D01*
X0128050Y0193700D02*
X0128050Y0175300D01*
X0134450Y0168900D01*
X0137650Y0168900D01*
X0137707Y0168165D01*
X0138450Y0158500D02*
X0137707Y0158323D01*
X0138450Y0158500D02*
X0140050Y0158500D01*
X0155250Y0173700D01*
X0155250Y0210500D01*
X0167250Y0222500D01*
X0167250Y0229700D01*
X0167750Y0230100D01*
X0172050Y0230500D02*
X0172750Y0230100D01*
X0172050Y0230500D02*
X0172050Y0232900D01*
X0168050Y0236900D01*
X0162450Y0232900D02*
X0162450Y0230500D01*
X0162750Y0230100D01*
X0162450Y0232900D02*
X0150450Y0244900D01*
X0148050Y0244900D01*
X0144850Y0248100D01*
X0144850Y0268100D01*
X0112050Y0300900D01*
X0112050Y0302500D01*
X0108850Y0305700D01*
X0097650Y0305700D01*
X0092850Y0300900D01*
X0092589Y0300500D01*
X0092850Y0300100D01*
X0092850Y0265700D01*
X0104850Y0253700D01*
X0104850Y0250500D01*
X0105000Y0250500D01*
X0095000Y0250500D02*
X0094450Y0250500D01*
X0094450Y0261700D01*
X0079250Y0276900D01*
X0079250Y0300100D01*
X0078809Y0300500D01*
X0065650Y0300100D02*
X0065030Y0300500D01*
X0065650Y0300100D02*
X0065650Y0269700D01*
X0084850Y0250500D01*
X0085000Y0250500D01*
X0102450Y0228100D02*
X0142250Y0228100D01*
X0152050Y0230500D02*
X0152750Y0230100D01*
X0152050Y0230500D02*
X0152050Y0232900D01*
X0145650Y0239300D01*
X0149650Y0250500D02*
X0150000Y0250500D01*
X0149650Y0250500D02*
X0149650Y0276900D01*
X0125650Y0300900D01*
X0125650Y0302500D01*
X0120850Y0307300D01*
X0064050Y0307300D01*
X0056850Y0300100D01*
X0056850Y0269700D01*
X0033650Y0246500D01*
X0033650Y0076100D01*
X0045650Y0064100D01*
X0046250Y0063720D01*
X0068850Y0121700D02*
X0069100Y0121625D01*
X0075400Y0127075D02*
X0076050Y0127300D01*
X0088850Y0127300D01*
X0092050Y0130500D01*
X0092250Y0130500D01*
X0092050Y0140100D02*
X0092250Y0140500D01*
X0092050Y0140100D02*
X0082450Y0130500D01*
X0076050Y0130500D01*
X0075400Y0130224D01*
X0075250Y0130500D01*
X0073650Y0130500D01*
X0071250Y0132900D01*
X0066450Y0132900D01*
X0070450Y0201700D02*
X0055250Y0216900D01*
X0055250Y0216500D01*
X0063250Y0228100D02*
X0063250Y0240900D01*
X0055250Y0248900D01*
X0055250Y0250500D01*
X0055000Y0250500D01*
X0060050Y0252900D02*
X0056850Y0256100D01*
X0051250Y0256100D01*
X0045650Y0250500D01*
X0045000Y0250500D01*
X0060050Y0252900D02*
X0060050Y0248100D01*
X0064850Y0243300D01*
X0064850Y0232100D01*
X0081650Y0215300D01*
X0089650Y0215300D01*
X0089650Y0217700D01*
X0089825Y0218039D01*
X0089650Y0215300D02*
X0089650Y0208900D01*
X0089750Y0208700D01*
X0093650Y0209700D02*
X0094450Y0208900D01*
X0094750Y0208700D01*
X0094450Y0208100D01*
X0094450Y0206500D01*
X0091250Y0203300D01*
X0088050Y0203300D01*
X0063250Y0228100D01*
X0070450Y0201700D02*
X0076850Y0201700D01*
X0093650Y0209700D02*
X0093650Y0217700D01*
X0092974Y0218039D01*
X0092974Y0222961D02*
X0093650Y0223300D01*
X0097650Y0223300D01*
X0102450Y0228100D01*
X0092850Y0223300D02*
X0092974Y0222961D01*
X0092850Y0223300D02*
X0090450Y0223300D01*
X0089825Y0222961D01*
X0100050Y0212900D02*
X0100050Y0208900D01*
X0099750Y0208700D01*
X0099250Y0208100D01*
X0099250Y0206500D01*
X0094450Y0201700D01*
X0094750Y0208700D02*
X0095250Y0208900D01*
X0123250Y0212100D02*
X0123596Y0211000D01*
X0128050Y0193700D02*
X0157650Y0223300D01*
X0157650Y0229700D01*
X0157750Y0230100D01*
X0159250Y0250500D02*
X0160000Y0250500D01*
X0159250Y0250500D02*
X0159250Y0275300D01*
X0134450Y0300100D01*
X0133927Y0300500D01*
X0175266Y0300500D02*
X0176050Y0300100D01*
X0189650Y0286500D01*
X0189650Y0250500D01*
X0190000Y0250500D01*
X0181650Y0244900D02*
X0176050Y0244900D01*
X0170450Y0250500D01*
X0170000Y0250500D01*
X0181650Y0244900D02*
X0196850Y0229700D01*
X0196850Y0224100D01*
X0204050Y0216900D01*
X0204050Y0211300D01*
X0204510Y0210831D01*
X0211990Y0210831D02*
X0212050Y0211300D01*
X0212050Y0223300D01*
X0212850Y0224100D01*
X0212850Y0237700D01*
X0200050Y0250500D01*
X0200000Y0250500D01*
X0181450Y0238700D02*
X0192850Y0227300D01*
X0193404Y0227000D01*
X0200096Y0227000D02*
X0200850Y0227300D01*
X0208050Y0227300D01*
X0208844Y0227000D01*
X0225650Y0217700D02*
X0225650Y0290500D01*
X0218450Y0297700D01*
X0217350Y0299300D01*
X0189650Y0300100D02*
X0189650Y0293700D01*
X0219250Y0264100D01*
X0219250Y0250500D01*
X0220000Y0250500D01*
X0225650Y0217700D02*
X0210450Y0202500D01*
X0208850Y0202500D01*
X0208250Y0202169D01*
X0185650Y0210500D02*
X0185650Y0174500D01*
X0140050Y0128900D01*
X0138450Y0128900D01*
X0137707Y0128795D01*
X0137707Y0138638D02*
X0138450Y0139300D01*
X0140850Y0139300D01*
X0175250Y0173700D01*
X0175250Y0235300D01*
X0180050Y0235300D01*
X0182450Y0232900D01*
X0182450Y0230500D01*
X0182750Y0230100D01*
X0178450Y0229700D02*
X0177750Y0230100D01*
X0178450Y0229700D02*
X0178450Y0217700D01*
X0185650Y0210500D01*
X0189650Y0300100D02*
X0189045Y0300500D01*
D31*
X0142250Y0257500D02*
X0142250Y0228100D01*
X0142250Y0217500D01*
X0119250Y0194500D01*
X0119250Y0179500D01*
X0096250Y0179500D01*
X0095250Y0180500D01*
X0095250Y0188500D01*
X0094750Y0189300D01*
X0119250Y0179500D02*
X0119250Y0065700D01*
X0119250Y0060500D01*
X0120000Y0060500D01*
X0142250Y0257500D02*
X0106368Y0293382D01*
X0106368Y0300500D01*
D32*
X0145650Y0239300D03*
X0168050Y0236900D03*
X0181450Y0238700D03*
X0124050Y0193700D03*
X0115250Y0206500D03*
M02*
