G75*
%MOIN*%
%OFA0B0*%
%FSLAX25Y25*%
%IPPOS*%
%LPD*%
%AMOC8*
5,1,8,0,0,1.08239X$1,22.5*
%
%ADD10C,0.07900*%
%ADD11R,0.03100X0.08500*%
%ADD12R,0.11524X0.08374*%
%ADD13R,0.16248X0.03256*%
%ADD14R,0.16248X0.05224*%
%ADD15C,0.04831*%
%ADD16C,0.06799*%
%ADD17OC8,0.05300*%
%ADD18R,0.05224X0.06012*%
%ADD19R,0.04437X0.04831*%
%ADD20R,0.04831X0.04437*%
%ADD21R,0.04437X0.06012*%
%ADD22R,0.06012X0.06799*%
%ADD23R,0.02600X0.08300*%
%ADD24R,0.08500X0.08500*%
%ADD25C,0.08500*%
%ADD26R,0.02469X0.03059*%
%ADD27R,0.04831X0.02100*%
%ADD28R,0.20500X0.10500*%
%ADD29C,0.40500*%
%ADD30OC8,0.03100*%
%ADD31C,0.03100*%
D10*
X0080000Y0060500D03*
X0090000Y0060500D03*
X0100000Y0060500D03*
X0110000Y0060500D03*
X0120000Y0060500D03*
X0130000Y0060500D03*
X0140000Y0060500D03*
X0150000Y0060500D03*
X0170000Y0060500D03*
X0180000Y0060500D03*
X0190000Y0060500D03*
X0200000Y0060500D03*
X0210000Y0060500D03*
X0220000Y0060500D03*
X0217350Y0049300D03*
X0235150Y0049300D03*
X0235150Y0023700D03*
X0217350Y0023700D03*
X0220000Y0250500D03*
X0210000Y0250500D03*
X0200000Y0250500D03*
X0190000Y0250500D03*
X0180000Y0250500D03*
X0170000Y0250500D03*
X0160000Y0250500D03*
X0150000Y0250500D03*
X0135000Y0250500D03*
X0125000Y0250500D03*
X0115000Y0250500D03*
X0105000Y0250500D03*
X0095000Y0250500D03*
X0085000Y0250500D03*
X0075000Y0250500D03*
X0065000Y0250500D03*
X0055000Y0250500D03*
X0045000Y0250500D03*
X0217350Y0273700D03*
X0235150Y0273700D03*
X0235150Y0299300D03*
X0217350Y0299300D03*
D11*
X0182750Y0230100D03*
X0177750Y0230100D03*
X0172750Y0230100D03*
X0167750Y0230100D03*
X0162750Y0230100D03*
X0157750Y0230100D03*
X0152750Y0230100D03*
X0147750Y0230100D03*
X0147750Y0205900D03*
X0152750Y0205900D03*
X0157750Y0205900D03*
X0162750Y0205900D03*
X0167750Y0205900D03*
X0172750Y0205900D03*
X0177750Y0205900D03*
X0182750Y0205900D03*
D12*
X0144793Y0187063D03*
X0145187Y0086276D03*
X0227077Y0086669D03*
X0227077Y0196512D03*
D13*
X0137707Y0102811D03*
X0137707Y0097693D03*
X0137707Y0092969D03*
D14*
X0137707Y0109110D03*
X0137707Y0118953D03*
X0137707Y0128795D03*
X0137707Y0138638D03*
X0137707Y0148480D03*
X0137707Y0158323D03*
X0137707Y0168165D03*
X0137707Y0178008D03*
D15*
X0149518Y0095331D03*
D16*
X0149518Y0178402D03*
D17*
X0092250Y0140500D03*
X0092250Y0130500D03*
X0092250Y0120500D03*
X0092250Y0110500D03*
X0052250Y0110500D03*
X0052250Y0120500D03*
X0052250Y0130500D03*
X0052250Y0140500D03*
D18*
X0208844Y0227000D03*
X0220656Y0227000D03*
D19*
X0200096Y0227000D03*
X0193404Y0227000D03*
D20*
X0123596Y0211000D03*
X0116904Y0211000D03*
D21*
X0204510Y0210831D03*
X0211990Y0210831D03*
X0208250Y0202169D03*
D22*
X0121262Y0223000D03*
X0110238Y0223000D03*
D23*
X0104750Y0208700D03*
X0099750Y0208700D03*
X0094750Y0208700D03*
X0089750Y0208700D03*
X0089750Y0189300D03*
X0094750Y0189300D03*
X0099750Y0189300D03*
X0104750Y0189300D03*
D24*
X0051250Y0021500D03*
X0046250Y0077500D03*
X0161486Y0021500D03*
X0161486Y0300500D03*
X0051250Y0300500D03*
D25*
X0065030Y0300500D03*
X0078809Y0300500D03*
X0092589Y0300500D03*
X0106368Y0300500D03*
X0120148Y0300500D03*
X0133927Y0300500D03*
X0147707Y0300500D03*
X0175266Y0300500D03*
X0189045Y0300500D03*
X0202825Y0300500D03*
X0046250Y0063720D03*
X0065030Y0021500D03*
X0078809Y0021500D03*
X0092589Y0021500D03*
X0106368Y0021500D03*
X0120148Y0021500D03*
X0133927Y0021500D03*
X0147707Y0021500D03*
X0175266Y0021500D03*
X0189045Y0021500D03*
X0202825Y0021500D03*
D26*
X0092974Y0218039D03*
X0089825Y0218039D03*
X0086675Y0218039D03*
X0083526Y0218039D03*
X0083526Y0222961D03*
X0086675Y0222961D03*
X0089825Y0222961D03*
X0092974Y0222961D03*
D27*
X0075400Y0130224D03*
X0075400Y0127075D03*
X0075400Y0123925D03*
X0075400Y0120776D03*
X0069100Y0120776D03*
X0069100Y0123925D03*
X0069100Y0127075D03*
X0069100Y0130224D03*
D28*
X0055250Y0156500D03*
X0055250Y0216500D03*
D29*
X0055250Y0186500D03*
D30*
X0097250Y0215500D03*
X0102250Y0223500D03*
X0110250Y0212500D03*
X0131250Y0221500D03*
X0149250Y0221500D03*
X0139250Y0196500D03*
X0165250Y0186500D03*
X0072250Y0110500D03*
D31*
X0124050Y0193700D03*
X0115250Y0206500D03*
X0145650Y0239300D03*
X0168050Y0236900D03*
X0181450Y0238700D03*
M02*
