G75*
%MOIN*%
%OFA0B0*%
%FSLAX25Y25*%
%IPPOS*%
%LPD*%
%AMOC8*
5,1,8,0,0,1.08239X$1,22.5*
%
%ADD10C,0.00600*%
%ADD11C,0.07400*%
%ADD12R,0.02600X0.08000*%
%ADD13R,0.11024X0.07874*%
%ADD14R,0.15748X0.02756*%
%ADD15R,0.15748X0.04724*%
%ADD16C,0.00000*%
%ADD17OC8,0.04800*%
%ADD18R,0.04724X0.05512*%
%ADD19R,0.03937X0.04331*%
%ADD20R,0.03199X0.04134*%
%ADD21R,0.04331X0.03937*%
%ADD22R,0.03937X0.05512*%
%ADD23R,0.08000X0.08000*%
%ADD24C,0.08000*%
%ADD25R,0.20000X0.10000*%
%ADD26C,0.40000*%
%ADD27R,0.05118X0.05906*%
%ADD28R,0.02362X0.04724*%
%ADD29R,0.09500X0.09500*%
%ADD30C,0.09500*%
%ADD31C,0.01000*%
%ADD32OC8,0.02400*%
%ADD33C,0.02000*%
%ADD34C,0.00800*%
%ADD35C,0.01200*%
%ADD36C,0.03200*%
%ADD37C,0.02400*%
%ADD38C,0.02500*%
%ADD39C,0.02578*%
D10*
X0031289Y0017711D02*
X0031289Y0303989D01*
X0031290Y0303989D02*
X0031293Y0304266D01*
X0031303Y0304543D01*
X0031320Y0304819D01*
X0031344Y0305095D01*
X0031374Y0305371D01*
X0031410Y0305645D01*
X0031454Y0305919D01*
X0031504Y0306191D01*
X0031560Y0306462D01*
X0031623Y0306732D01*
X0031693Y0307000D01*
X0031769Y0307267D01*
X0031851Y0307531D01*
X0031940Y0307793D01*
X0032035Y0308053D01*
X0032136Y0308311D01*
X0032244Y0308567D01*
X0032357Y0308819D01*
X0032477Y0309069D01*
X0032603Y0309316D01*
X0032735Y0309559D01*
X0032872Y0309800D01*
X0033015Y0310037D01*
X0033164Y0310270D01*
X0033319Y0310500D01*
X0033479Y0310726D01*
X0033645Y0310948D01*
X0033815Y0311166D01*
X0033991Y0311380D01*
X0034173Y0311590D01*
X0034359Y0311795D01*
X0034550Y0311995D01*
X0034746Y0312191D01*
X0034946Y0312382D01*
X0035151Y0312568D01*
X0035361Y0312750D01*
X0035575Y0312926D01*
X0035793Y0313096D01*
X0036015Y0313262D01*
X0036241Y0313422D01*
X0036471Y0313577D01*
X0036704Y0313726D01*
X0036941Y0313869D01*
X0037182Y0314006D01*
X0037425Y0314138D01*
X0037672Y0314264D01*
X0037922Y0314384D01*
X0038174Y0314497D01*
X0038430Y0314605D01*
X0038688Y0314706D01*
X0038948Y0314801D01*
X0039210Y0314890D01*
X0039474Y0314972D01*
X0039741Y0315048D01*
X0040009Y0315118D01*
X0040279Y0315181D01*
X0040550Y0315237D01*
X0040822Y0315287D01*
X0041096Y0315331D01*
X0041370Y0315367D01*
X0041646Y0315397D01*
X0041922Y0315421D01*
X0042198Y0315438D01*
X0042475Y0315448D01*
X0042752Y0315451D01*
X0226459Y0315451D01*
X0226816Y0315447D01*
X0227174Y0315434D01*
X0227530Y0315412D01*
X0227887Y0315382D01*
X0228242Y0315343D01*
X0228596Y0315296D01*
X0228949Y0315240D01*
X0229301Y0315175D01*
X0229651Y0315103D01*
X0229999Y0315021D01*
X0230345Y0314931D01*
X0230688Y0314833D01*
X0231030Y0314727D01*
X0231368Y0314613D01*
X0231704Y0314490D01*
X0232037Y0314359D01*
X0232366Y0314220D01*
X0232692Y0314074D01*
X0233014Y0313919D01*
X0233333Y0313757D01*
X0233647Y0313587D01*
X0233957Y0313409D01*
X0234263Y0313224D01*
X0234565Y0313032D01*
X0234861Y0312833D01*
X0235153Y0312626D01*
X0235440Y0312413D01*
X0235721Y0312192D01*
X0235997Y0311965D01*
X0236267Y0311731D01*
X0236532Y0311491D01*
X0236791Y0311244D01*
X0237043Y0310992D01*
X0237290Y0310733D01*
X0237530Y0310468D01*
X0237764Y0310198D01*
X0237991Y0309922D01*
X0238212Y0309641D01*
X0238425Y0309354D01*
X0238632Y0309062D01*
X0238831Y0308766D01*
X0239023Y0308464D01*
X0239208Y0308158D01*
X0239386Y0307848D01*
X0239556Y0307534D01*
X0239718Y0307215D01*
X0239873Y0306893D01*
X0240019Y0306567D01*
X0240158Y0306238D01*
X0240289Y0305905D01*
X0240412Y0305569D01*
X0240526Y0305231D01*
X0240632Y0304889D01*
X0240730Y0304546D01*
X0240820Y0304200D01*
X0240902Y0303852D01*
X0240974Y0303502D01*
X0241039Y0303150D01*
X0241095Y0302797D01*
X0241142Y0302443D01*
X0241181Y0302088D01*
X0241211Y0301731D01*
X0241233Y0301375D01*
X0241246Y0301017D01*
X0241250Y0300660D01*
X0241250Y0020752D01*
X0241246Y0020408D01*
X0241233Y0020063D01*
X0241213Y0019720D01*
X0241183Y0019376D01*
X0241146Y0019034D01*
X0241100Y0018693D01*
X0241047Y0018353D01*
X0240984Y0018014D01*
X0240914Y0017677D01*
X0240836Y0017341D01*
X0240749Y0017008D01*
X0240655Y0016677D01*
X0240552Y0016348D01*
X0240442Y0016022D01*
X0240324Y0015698D01*
X0240198Y0015378D01*
X0240064Y0015060D01*
X0239923Y0014746D01*
X0239774Y0014436D01*
X0239618Y0014129D01*
X0239454Y0013826D01*
X0239283Y0013527D01*
X0239105Y0013232D01*
X0238919Y0012942D01*
X0238727Y0012656D01*
X0238528Y0012375D01*
X0238322Y0012099D01*
X0238110Y0011828D01*
X0237891Y0011562D01*
X0237666Y0011301D01*
X0237434Y0011046D01*
X0237197Y0010797D01*
X0236953Y0010553D01*
X0236704Y0010316D01*
X0236449Y0010084D01*
X0236188Y0009859D01*
X0235922Y0009640D01*
X0235651Y0009428D01*
X0235375Y0009222D01*
X0235094Y0009023D01*
X0234808Y0008831D01*
X0234518Y0008645D01*
X0234223Y0008467D01*
X0233924Y0008296D01*
X0233621Y0008132D01*
X0233314Y0007976D01*
X0233004Y0007827D01*
X0232690Y0007686D01*
X0232372Y0007552D01*
X0232052Y0007426D01*
X0231728Y0007308D01*
X0231402Y0007198D01*
X0231073Y0007095D01*
X0230742Y0007001D01*
X0230409Y0006914D01*
X0230073Y0006836D01*
X0229736Y0006766D01*
X0229397Y0006703D01*
X0229057Y0006650D01*
X0228716Y0006604D01*
X0228374Y0006567D01*
X0228030Y0006537D01*
X0227687Y0006517D01*
X0227342Y0006504D01*
X0226998Y0006500D01*
X0042500Y0006500D01*
X0042229Y0006503D01*
X0041958Y0006513D01*
X0041688Y0006529D01*
X0041418Y0006552D01*
X0041149Y0006582D01*
X0040880Y0006618D01*
X0040613Y0006660D01*
X0040346Y0006709D01*
X0040081Y0006764D01*
X0039817Y0006826D01*
X0039555Y0006894D01*
X0039294Y0006968D01*
X0039036Y0007049D01*
X0038779Y0007136D01*
X0038525Y0007229D01*
X0038272Y0007328D01*
X0038023Y0007433D01*
X0037776Y0007544D01*
X0037531Y0007661D01*
X0037290Y0007784D01*
X0037052Y0007913D01*
X0036816Y0008047D01*
X0036585Y0008188D01*
X0036356Y0008333D01*
X0036131Y0008485D01*
X0035910Y0008641D01*
X0035693Y0008803D01*
X0035480Y0008970D01*
X0035271Y0009142D01*
X0035066Y0009319D01*
X0034865Y0009502D01*
X0034669Y0009688D01*
X0034477Y0009880D01*
X0034291Y0010076D01*
X0034108Y0010277D01*
X0033931Y0010482D01*
X0033759Y0010691D01*
X0033592Y0010904D01*
X0033430Y0011121D01*
X0033274Y0011342D01*
X0033122Y0011567D01*
X0032977Y0011796D01*
X0032836Y0012027D01*
X0032702Y0012263D01*
X0032573Y0012501D01*
X0032450Y0012742D01*
X0032333Y0012987D01*
X0032222Y0013234D01*
X0032117Y0013483D01*
X0032018Y0013736D01*
X0031925Y0013990D01*
X0031838Y0014247D01*
X0031757Y0014505D01*
X0031683Y0014766D01*
X0031615Y0015028D01*
X0031553Y0015292D01*
X0031498Y0015557D01*
X0031449Y0015824D01*
X0031407Y0016091D01*
X0031371Y0016360D01*
X0031341Y0016629D01*
X0031318Y0016899D01*
X0031302Y0017169D01*
X0031292Y0017440D01*
X0031289Y0017711D01*
D11*
X0080000Y0060500D03*
X0090000Y0060500D03*
X0100000Y0060500D03*
X0110000Y0060500D03*
X0120000Y0060500D03*
X0130000Y0060500D03*
X0140000Y0060500D03*
X0150000Y0060500D03*
X0170000Y0060500D03*
X0180000Y0060500D03*
X0190000Y0060500D03*
X0200000Y0060500D03*
X0210000Y0060500D03*
X0220000Y0060500D03*
X0091250Y0153800D03*
X0091250Y0165200D03*
X0095000Y0250500D03*
X0085000Y0250500D03*
X0075000Y0250500D03*
X0065000Y0250500D03*
X0055000Y0250500D03*
X0045000Y0250500D03*
X0105000Y0250500D03*
X0115000Y0250500D03*
X0125000Y0250500D03*
X0135000Y0250500D03*
X0150000Y0250500D03*
X0160000Y0250500D03*
X0170000Y0250500D03*
X0180000Y0250500D03*
X0190000Y0250500D03*
X0200000Y0250500D03*
X0210000Y0250500D03*
X0220000Y0250500D03*
D12*
X0182750Y0230100D03*
X0177750Y0230100D03*
X0172750Y0230100D03*
X0167750Y0230100D03*
X0162750Y0230100D03*
X0157750Y0230100D03*
X0152750Y0230100D03*
X0147750Y0230100D03*
X0147750Y0205900D03*
X0152750Y0205900D03*
X0157750Y0205900D03*
X0162750Y0205900D03*
X0167750Y0205900D03*
X0172750Y0205900D03*
X0177750Y0205900D03*
X0182750Y0205900D03*
D13*
X0144793Y0187063D03*
X0145187Y0086276D03*
X0227077Y0086669D03*
X0227077Y0196512D03*
D14*
X0137707Y0102811D03*
X0137707Y0097693D03*
X0137707Y0092969D03*
D15*
X0137707Y0109110D03*
X0137707Y0118953D03*
X0137707Y0128795D03*
X0137707Y0138638D03*
X0137707Y0148480D03*
X0137707Y0158323D03*
X0137707Y0168165D03*
X0137707Y0178008D03*
D16*
X0146368Y0178402D02*
X0146370Y0178514D01*
X0146376Y0178625D01*
X0146386Y0178737D01*
X0146400Y0178848D01*
X0146417Y0178958D01*
X0146439Y0179068D01*
X0146465Y0179177D01*
X0146494Y0179285D01*
X0146527Y0179391D01*
X0146564Y0179497D01*
X0146605Y0179601D01*
X0146650Y0179704D01*
X0146698Y0179805D01*
X0146749Y0179904D01*
X0146804Y0180001D01*
X0146863Y0180096D01*
X0146924Y0180190D01*
X0146989Y0180281D01*
X0147058Y0180369D01*
X0147129Y0180455D01*
X0147203Y0180539D01*
X0147281Y0180619D01*
X0147361Y0180697D01*
X0147444Y0180773D01*
X0147529Y0180845D01*
X0147617Y0180914D01*
X0147707Y0180980D01*
X0147800Y0181042D01*
X0147895Y0181102D01*
X0147992Y0181158D01*
X0148090Y0181210D01*
X0148191Y0181259D01*
X0148293Y0181304D01*
X0148397Y0181346D01*
X0148502Y0181384D01*
X0148609Y0181418D01*
X0148716Y0181448D01*
X0148825Y0181475D01*
X0148934Y0181497D01*
X0149045Y0181516D01*
X0149155Y0181531D01*
X0149267Y0181542D01*
X0149378Y0181549D01*
X0149490Y0181552D01*
X0149602Y0181551D01*
X0149714Y0181546D01*
X0149825Y0181537D01*
X0149936Y0181524D01*
X0150047Y0181507D01*
X0150157Y0181487D01*
X0150266Y0181462D01*
X0150374Y0181434D01*
X0150481Y0181401D01*
X0150587Y0181365D01*
X0150691Y0181325D01*
X0150794Y0181282D01*
X0150896Y0181235D01*
X0150995Y0181184D01*
X0151093Y0181130D01*
X0151189Y0181072D01*
X0151283Y0181011D01*
X0151374Y0180947D01*
X0151463Y0180880D01*
X0151550Y0180809D01*
X0151634Y0180735D01*
X0151716Y0180659D01*
X0151794Y0180579D01*
X0151870Y0180497D01*
X0151943Y0180412D01*
X0152013Y0180325D01*
X0152079Y0180235D01*
X0152143Y0180143D01*
X0152203Y0180049D01*
X0152260Y0179953D01*
X0152313Y0179854D01*
X0152363Y0179754D01*
X0152409Y0179653D01*
X0152452Y0179549D01*
X0152491Y0179444D01*
X0152526Y0179338D01*
X0152557Y0179231D01*
X0152585Y0179122D01*
X0152608Y0179013D01*
X0152628Y0178903D01*
X0152644Y0178792D01*
X0152656Y0178681D01*
X0152664Y0178570D01*
X0152668Y0178458D01*
X0152668Y0178346D01*
X0152664Y0178234D01*
X0152656Y0178123D01*
X0152644Y0178012D01*
X0152628Y0177901D01*
X0152608Y0177791D01*
X0152585Y0177682D01*
X0152557Y0177573D01*
X0152526Y0177466D01*
X0152491Y0177360D01*
X0152452Y0177255D01*
X0152409Y0177151D01*
X0152363Y0177050D01*
X0152313Y0176950D01*
X0152260Y0176851D01*
X0152203Y0176755D01*
X0152143Y0176661D01*
X0152079Y0176569D01*
X0152013Y0176479D01*
X0151943Y0176392D01*
X0151870Y0176307D01*
X0151794Y0176225D01*
X0151716Y0176145D01*
X0151634Y0176069D01*
X0151550Y0175995D01*
X0151463Y0175924D01*
X0151374Y0175857D01*
X0151283Y0175793D01*
X0151189Y0175732D01*
X0151093Y0175674D01*
X0150995Y0175620D01*
X0150896Y0175569D01*
X0150794Y0175522D01*
X0150691Y0175479D01*
X0150587Y0175439D01*
X0150481Y0175403D01*
X0150374Y0175370D01*
X0150266Y0175342D01*
X0150157Y0175317D01*
X0150047Y0175297D01*
X0149936Y0175280D01*
X0149825Y0175267D01*
X0149714Y0175258D01*
X0149602Y0175253D01*
X0149490Y0175252D01*
X0149378Y0175255D01*
X0149267Y0175262D01*
X0149155Y0175273D01*
X0149045Y0175288D01*
X0148934Y0175307D01*
X0148825Y0175329D01*
X0148716Y0175356D01*
X0148609Y0175386D01*
X0148502Y0175420D01*
X0148397Y0175458D01*
X0148293Y0175500D01*
X0148191Y0175545D01*
X0148090Y0175594D01*
X0147992Y0175646D01*
X0147895Y0175702D01*
X0147800Y0175762D01*
X0147707Y0175824D01*
X0147617Y0175890D01*
X0147529Y0175959D01*
X0147444Y0176031D01*
X0147361Y0176107D01*
X0147281Y0176185D01*
X0147203Y0176265D01*
X0147129Y0176349D01*
X0147058Y0176435D01*
X0146989Y0176523D01*
X0146924Y0176614D01*
X0146863Y0176708D01*
X0146804Y0176803D01*
X0146749Y0176900D01*
X0146698Y0176999D01*
X0146650Y0177100D01*
X0146605Y0177203D01*
X0146564Y0177307D01*
X0146527Y0177413D01*
X0146494Y0177519D01*
X0146465Y0177627D01*
X0146439Y0177736D01*
X0146417Y0177846D01*
X0146400Y0177956D01*
X0146386Y0178067D01*
X0146376Y0178179D01*
X0146370Y0178290D01*
X0146368Y0178402D01*
X0147353Y0095331D02*
X0147355Y0095424D01*
X0147361Y0095516D01*
X0147371Y0095608D01*
X0147385Y0095699D01*
X0147402Y0095790D01*
X0147424Y0095880D01*
X0147449Y0095969D01*
X0147478Y0096057D01*
X0147511Y0096143D01*
X0147548Y0096228D01*
X0147588Y0096312D01*
X0147632Y0096393D01*
X0147679Y0096473D01*
X0147729Y0096551D01*
X0147783Y0096626D01*
X0147840Y0096699D01*
X0147900Y0096769D01*
X0147963Y0096837D01*
X0148029Y0096902D01*
X0148097Y0096964D01*
X0148168Y0097024D01*
X0148242Y0097080D01*
X0148318Y0097133D01*
X0148396Y0097182D01*
X0148476Y0097229D01*
X0148558Y0097271D01*
X0148642Y0097311D01*
X0148727Y0097346D01*
X0148814Y0097378D01*
X0148902Y0097407D01*
X0148991Y0097431D01*
X0149081Y0097452D01*
X0149172Y0097468D01*
X0149264Y0097481D01*
X0149356Y0097490D01*
X0149449Y0097495D01*
X0149541Y0097496D01*
X0149634Y0097493D01*
X0149726Y0097486D01*
X0149818Y0097475D01*
X0149909Y0097460D01*
X0150000Y0097442D01*
X0150090Y0097419D01*
X0150178Y0097393D01*
X0150266Y0097363D01*
X0150352Y0097329D01*
X0150436Y0097292D01*
X0150519Y0097250D01*
X0150600Y0097206D01*
X0150680Y0097158D01*
X0150757Y0097107D01*
X0150831Y0097052D01*
X0150904Y0096994D01*
X0150974Y0096934D01*
X0151041Y0096870D01*
X0151105Y0096804D01*
X0151167Y0096734D01*
X0151225Y0096663D01*
X0151280Y0096589D01*
X0151332Y0096512D01*
X0151381Y0096433D01*
X0151427Y0096353D01*
X0151469Y0096270D01*
X0151507Y0096186D01*
X0151542Y0096100D01*
X0151573Y0096013D01*
X0151600Y0095925D01*
X0151623Y0095835D01*
X0151643Y0095745D01*
X0151659Y0095654D01*
X0151671Y0095562D01*
X0151679Y0095470D01*
X0151683Y0095377D01*
X0151683Y0095285D01*
X0151679Y0095192D01*
X0151671Y0095100D01*
X0151659Y0095008D01*
X0151643Y0094917D01*
X0151623Y0094827D01*
X0151600Y0094737D01*
X0151573Y0094649D01*
X0151542Y0094562D01*
X0151507Y0094476D01*
X0151469Y0094392D01*
X0151427Y0094309D01*
X0151381Y0094229D01*
X0151332Y0094150D01*
X0151280Y0094073D01*
X0151225Y0093999D01*
X0151167Y0093928D01*
X0151105Y0093858D01*
X0151041Y0093792D01*
X0150974Y0093728D01*
X0150904Y0093668D01*
X0150831Y0093610D01*
X0150757Y0093555D01*
X0150680Y0093504D01*
X0150601Y0093456D01*
X0150519Y0093412D01*
X0150436Y0093370D01*
X0150352Y0093333D01*
X0150266Y0093299D01*
X0150178Y0093269D01*
X0150090Y0093243D01*
X0150000Y0093220D01*
X0149909Y0093202D01*
X0149818Y0093187D01*
X0149726Y0093176D01*
X0149634Y0093169D01*
X0149541Y0093166D01*
X0149449Y0093167D01*
X0149356Y0093172D01*
X0149264Y0093181D01*
X0149172Y0093194D01*
X0149081Y0093210D01*
X0148991Y0093231D01*
X0148902Y0093255D01*
X0148814Y0093284D01*
X0148727Y0093316D01*
X0148642Y0093351D01*
X0148558Y0093391D01*
X0148476Y0093433D01*
X0148396Y0093480D01*
X0148318Y0093529D01*
X0148242Y0093582D01*
X0148168Y0093638D01*
X0148097Y0093698D01*
X0148029Y0093760D01*
X0147963Y0093825D01*
X0147900Y0093893D01*
X0147840Y0093963D01*
X0147783Y0094036D01*
X0147729Y0094111D01*
X0147679Y0094189D01*
X0147632Y0094269D01*
X0147588Y0094350D01*
X0147548Y0094434D01*
X0147511Y0094519D01*
X0147478Y0094605D01*
X0147449Y0094693D01*
X0147424Y0094782D01*
X0147402Y0094872D01*
X0147385Y0094963D01*
X0147371Y0095054D01*
X0147361Y0095146D01*
X0147355Y0095238D01*
X0147353Y0095331D01*
D17*
X0092250Y0110500D03*
X0092250Y0120500D03*
X0092250Y0130500D03*
X0092250Y0140500D03*
X0052250Y0140500D03*
X0052250Y0130500D03*
X0052250Y0120500D03*
X0052250Y0110500D03*
D18*
X0208844Y0227000D03*
X0220656Y0227000D03*
D19*
X0200096Y0227000D03*
X0193404Y0227000D03*
X0111596Y0226500D03*
X0104904Y0226500D03*
X0104904Y0218500D03*
X0111596Y0218500D03*
D20*
X0218738Y0288331D03*
X0229762Y0288331D03*
X0229762Y0304669D03*
X0218738Y0304669D03*
X0218738Y0032669D03*
X0229762Y0032669D03*
X0229762Y0016331D03*
X0218738Y0016331D03*
D21*
X0110596Y0110500D03*
X0103904Y0110500D03*
X0103904Y0120500D03*
X0110596Y0120500D03*
X0110596Y0130500D03*
X0103904Y0130500D03*
X0103904Y0140500D03*
X0110596Y0140500D03*
X0121904Y0218000D03*
X0128596Y0218000D03*
D22*
X0204510Y0210831D03*
X0211990Y0210831D03*
X0208250Y0202169D03*
D23*
X0161486Y0300500D03*
X0051250Y0300500D03*
X0051250Y0021500D03*
X0161486Y0021500D03*
D24*
X0175266Y0021500D03*
X0189045Y0021500D03*
X0202825Y0021500D03*
X0147707Y0021500D03*
X0133927Y0021500D03*
X0120148Y0021500D03*
X0106368Y0021500D03*
X0092589Y0021500D03*
X0078809Y0021500D03*
X0065030Y0021500D03*
X0065030Y0300500D03*
X0078809Y0300500D03*
X0092589Y0300500D03*
X0106368Y0300500D03*
X0120148Y0300500D03*
X0133927Y0300500D03*
X0147707Y0300500D03*
X0175266Y0300500D03*
X0189045Y0300500D03*
X0202825Y0300500D03*
D25*
X0055250Y0216500D03*
X0055250Y0156500D03*
D26*
X0055250Y0186500D03*
D27*
X0121510Y0227500D03*
X0128990Y0227500D03*
D28*
X0103750Y0209524D03*
X0098750Y0209524D03*
X0093750Y0209524D03*
X0088750Y0209524D03*
X0088750Y0187476D03*
X0093750Y0187476D03*
X0098750Y0187476D03*
X0103750Y0187476D03*
D29*
X0046250Y0083500D03*
D30*
X0046250Y0069720D03*
X0046250Y0055941D03*
D31*
X0042456Y0060420D02*
X0033589Y0060420D01*
X0033589Y0061418D02*
X0044186Y0061418D01*
X0045086Y0061791D02*
X0042936Y0060900D01*
X0041291Y0059255D01*
X0040400Y0057105D01*
X0040400Y0054777D01*
X0041291Y0052627D01*
X0042936Y0050982D01*
X0045086Y0050091D01*
X0047414Y0050091D01*
X0049564Y0050982D01*
X0050650Y0052068D01*
X0050650Y0026600D01*
X0046794Y0026600D01*
X0046150Y0025956D01*
X0046150Y0017044D01*
X0046794Y0016400D01*
X0055706Y0016400D01*
X0056350Y0017044D01*
X0056350Y0025956D01*
X0055706Y0026600D01*
X0053850Y0026600D01*
X0053850Y0095237D01*
X0088750Y0130137D01*
X0088750Y0129050D01*
X0090800Y0127000D01*
X0093700Y0127000D01*
X0095600Y0128900D01*
X0100638Y0128900D01*
X0100638Y0128076D01*
X0101283Y0127431D01*
X0106525Y0127431D01*
X0107038Y0127945D01*
X0107231Y0127610D01*
X0107510Y0127331D01*
X0107852Y0127134D01*
X0108234Y0127031D01*
X0110112Y0127031D01*
X0110112Y0130016D01*
X0111081Y0130016D01*
X0111081Y0130984D01*
X0114262Y0130984D01*
X0114262Y0132666D01*
X0114160Y0133047D01*
X0113962Y0133390D01*
X0113683Y0133669D01*
X0113341Y0133866D01*
X0112959Y0133968D01*
X0111081Y0133968D01*
X0111081Y0130984D01*
X0110112Y0130984D01*
X0110112Y0133968D01*
X0108234Y0133968D01*
X0107852Y0133866D01*
X0107510Y0133669D01*
X0107231Y0133390D01*
X0107038Y0133055D01*
X0106525Y0133568D01*
X0101283Y0133568D01*
X0100638Y0132924D01*
X0100638Y0132100D01*
X0095600Y0132100D01*
X0093700Y0134000D01*
X0092613Y0134000D01*
X0093850Y0135237D01*
X0093850Y0137150D01*
X0095600Y0138900D01*
X0100638Y0138900D01*
X0100638Y0138076D01*
X0101283Y0137431D01*
X0106525Y0137431D01*
X0107038Y0137945D01*
X0107231Y0137610D01*
X0107510Y0137331D01*
X0107852Y0137134D01*
X0108234Y0137031D01*
X0110112Y0137031D01*
X0110112Y0140016D01*
X0111081Y0140016D01*
X0111081Y0140984D01*
X0114262Y0140984D01*
X0114262Y0142666D01*
X0114160Y0143047D01*
X0113962Y0143390D01*
X0113683Y0143669D01*
X0113341Y0143866D01*
X0112959Y0143968D01*
X0111081Y0143968D01*
X0111081Y0140984D01*
X0110112Y0140984D01*
X0110112Y0143968D01*
X0108234Y0143968D01*
X0107852Y0143866D01*
X0107510Y0143669D01*
X0107231Y0143390D01*
X0107038Y0143055D01*
X0106525Y0143568D01*
X0101283Y0143568D01*
X0100638Y0142924D01*
X0100638Y0142100D01*
X0095600Y0142100D01*
X0093700Y0144000D01*
X0090800Y0144000D01*
X0088750Y0141950D01*
X0088750Y0139050D01*
X0090650Y0137150D01*
X0090650Y0136563D01*
X0051587Y0097500D01*
X0050650Y0096563D01*
X0050650Y0089350D01*
X0041044Y0089350D01*
X0040400Y0088706D01*
X0040400Y0078294D01*
X0041044Y0077650D01*
X0050650Y0077650D01*
X0050650Y0073594D01*
X0049564Y0074680D01*
X0047414Y0075570D01*
X0045086Y0075570D01*
X0042936Y0074680D01*
X0041291Y0073034D01*
X0040400Y0070884D01*
X0040400Y0068557D01*
X0041291Y0066407D01*
X0042936Y0064761D01*
X0045086Y0063870D01*
X0047414Y0063870D01*
X0049564Y0064761D01*
X0050650Y0065847D01*
X0050650Y0059814D01*
X0049564Y0060900D01*
X0047414Y0061791D01*
X0045086Y0061791D01*
X0043775Y0064414D02*
X0033589Y0064414D01*
X0033589Y0065412D02*
X0042285Y0065412D01*
X0041289Y0066411D02*
X0033589Y0066411D01*
X0033589Y0067409D02*
X0040875Y0067409D01*
X0040462Y0068408D02*
X0033589Y0068408D01*
X0033589Y0069406D02*
X0040400Y0069406D01*
X0040400Y0070405D02*
X0033589Y0070405D01*
X0033589Y0071403D02*
X0040615Y0071403D01*
X0041029Y0072402D02*
X0033589Y0072402D01*
X0033589Y0073400D02*
X0041657Y0073400D01*
X0042655Y0074399D02*
X0033589Y0074399D01*
X0033589Y0075397D02*
X0044668Y0075397D01*
X0047832Y0075397D02*
X0050650Y0075397D01*
X0050650Y0074399D02*
X0049845Y0074399D01*
X0050650Y0076396D02*
X0033589Y0076396D01*
X0033589Y0077394D02*
X0050650Y0077394D01*
X0053850Y0077394D02*
X0085119Y0077394D01*
X0084120Y0076396D02*
X0053850Y0076396D01*
X0053850Y0075397D02*
X0083122Y0075397D01*
X0082123Y0074399D02*
X0053850Y0074399D01*
X0053850Y0073400D02*
X0081125Y0073400D01*
X0080126Y0072402D02*
X0053850Y0072402D01*
X0053850Y0071403D02*
X0079128Y0071403D01*
X0078129Y0070405D02*
X0053850Y0070405D01*
X0053850Y0069406D02*
X0077131Y0069406D01*
X0076132Y0068408D02*
X0053850Y0068408D01*
X0053850Y0067409D02*
X0075134Y0067409D01*
X0074135Y0066411D02*
X0053850Y0066411D01*
X0053850Y0065412D02*
X0073137Y0065412D01*
X0072138Y0064414D02*
X0053850Y0064414D01*
X0053850Y0063415D02*
X0071140Y0063415D01*
X0070141Y0062417D02*
X0053850Y0062417D01*
X0053850Y0061418D02*
X0069143Y0061418D01*
X0068144Y0060420D02*
X0053850Y0060420D01*
X0053850Y0059421D02*
X0067146Y0059421D01*
X0066147Y0058423D02*
X0053850Y0058423D01*
X0053850Y0057424D02*
X0065149Y0057424D01*
X0064150Y0056426D02*
X0053850Y0056426D01*
X0053850Y0055427D02*
X0063152Y0055427D01*
X0062153Y0054429D02*
X0053850Y0054429D01*
X0053850Y0053430D02*
X0061155Y0053430D01*
X0060156Y0052432D02*
X0053850Y0052432D01*
X0053850Y0051433D02*
X0059158Y0051433D01*
X0058159Y0050434D02*
X0053850Y0050434D01*
X0053850Y0049436D02*
X0057161Y0049436D01*
X0056730Y0049005D02*
X0056730Y0018062D01*
X0057667Y0017125D01*
X0062554Y0012237D01*
X0063492Y0011300D01*
X0105643Y0011300D01*
X0106581Y0012237D01*
X0113068Y0018725D01*
X0113068Y0019555D01*
X0115048Y0021535D01*
X0115048Y0020486D01*
X0115824Y0018611D01*
X0117259Y0017176D01*
X0119133Y0016400D01*
X0121162Y0016400D01*
X0123037Y0017176D01*
X0124471Y0018611D01*
X0125005Y0019900D01*
X0126052Y0019900D01*
X0131152Y0014800D01*
X0136702Y0014800D01*
X0141802Y0019900D01*
X0142849Y0019900D01*
X0143383Y0018611D01*
X0144818Y0017176D01*
X0146692Y0016400D01*
X0148721Y0016400D01*
X0150596Y0017176D01*
X0152030Y0018611D01*
X0152807Y0020486D01*
X0152807Y0022514D01*
X0152030Y0024389D01*
X0150619Y0025800D01*
X0156386Y0025800D01*
X0156386Y0017044D01*
X0157031Y0016400D01*
X0165942Y0016400D01*
X0166586Y0017044D01*
X0166586Y0025956D01*
X0165942Y0026600D01*
X0165151Y0026600D01*
X0165288Y0026737D01*
X0196131Y0057580D01*
X0197281Y0056431D01*
X0199045Y0055700D01*
X0200955Y0055700D01*
X0202719Y0056431D01*
X0204069Y0057781D01*
X0204800Y0059545D01*
X0204800Y0061455D01*
X0204069Y0063219D01*
X0203388Y0063900D01*
X0206612Y0063900D01*
X0205931Y0063219D01*
X0205200Y0061455D01*
X0205200Y0059545D01*
X0205931Y0057781D01*
X0207281Y0056431D01*
X0208400Y0055967D01*
X0208400Y0043117D01*
X0191349Y0026066D01*
X0190060Y0026600D01*
X0188031Y0026600D01*
X0186156Y0025824D01*
X0184722Y0024389D01*
X0183945Y0022514D01*
X0183945Y0020486D01*
X0184722Y0018611D01*
X0186156Y0017176D01*
X0188031Y0016400D01*
X0190060Y0016400D01*
X0191934Y0017176D01*
X0193369Y0018611D01*
X0194145Y0020486D01*
X0194145Y0022514D01*
X0193611Y0023803D01*
X0211600Y0041792D01*
X0211600Y0055967D01*
X0212719Y0056431D01*
X0214069Y0057781D01*
X0214800Y0059545D01*
X0214800Y0061455D01*
X0214069Y0063219D01*
X0213388Y0063900D01*
X0216612Y0063900D01*
X0215931Y0063219D01*
X0215200Y0061455D01*
X0215200Y0059545D01*
X0215931Y0057781D01*
X0217281Y0056431D01*
X0219045Y0055700D01*
X0220955Y0055700D01*
X0222719Y0056431D01*
X0224069Y0057781D01*
X0224800Y0059545D01*
X0224800Y0061187D01*
X0228162Y0057825D01*
X0228162Y0035836D01*
X0227707Y0035836D01*
X0227062Y0035192D01*
X0227062Y0030147D01*
X0227707Y0029502D01*
X0228162Y0029502D01*
X0228162Y0019498D01*
X0227707Y0019498D01*
X0227062Y0018853D01*
X0227062Y0013808D01*
X0227707Y0013164D01*
X0231817Y0013164D01*
X0232461Y0013808D01*
X0232461Y0018853D01*
X0231817Y0019498D01*
X0231362Y0019498D01*
X0231362Y0029502D01*
X0231817Y0029502D01*
X0232461Y0030147D01*
X0232461Y0035192D01*
X0231817Y0035836D01*
X0231362Y0035836D01*
X0231362Y0059151D01*
X0223413Y0067100D01*
X0162087Y0067100D01*
X0161150Y0066163D01*
X0160950Y0065963D01*
X0160950Y0067037D01*
X0160539Y0068029D01*
X0159779Y0068789D01*
X0158787Y0069200D01*
X0158520Y0069200D01*
X0154350Y0073370D01*
X0153120Y0074600D01*
X0137370Y0074600D01*
X0121350Y0090620D01*
X0121350Y0194147D01*
X0121450Y0194047D01*
X0121450Y0111037D01*
X0124977Y0107510D01*
X0128733Y0107510D01*
X0128733Y0106292D01*
X0129377Y0105648D01*
X0146036Y0105648D01*
X0146681Y0106292D01*
X0146681Y0111928D01*
X0146036Y0112572D01*
X0129377Y0112572D01*
X0128733Y0111928D01*
X0128733Y0110710D01*
X0126302Y0110710D01*
X0124650Y0112363D01*
X0124650Y0129837D01*
X0127292Y0127195D01*
X0128733Y0127195D01*
X0128733Y0125977D01*
X0129377Y0125333D01*
X0146036Y0125333D01*
X0146681Y0125977D01*
X0146681Y0131613D01*
X0146036Y0132257D01*
X0129377Y0132257D01*
X0128733Y0131613D01*
X0128733Y0130395D01*
X0128617Y0130395D01*
X0126850Y0132163D01*
X0126850Y0134377D01*
X0126877Y0134350D01*
X0128823Y0134350D01*
X0129649Y0135176D01*
X0146036Y0135176D01*
X0146681Y0135820D01*
X0146681Y0136400D01*
X0147554Y0136400D01*
X0186950Y0175796D01*
X0186950Y0211101D01*
X0185954Y0212097D01*
X0184450Y0213601D01*
X0184450Y0225000D01*
X0184506Y0225000D01*
X0185150Y0225644D01*
X0185150Y0232537D01*
X0190335Y0227352D01*
X0190335Y0224379D01*
X0190979Y0223735D01*
X0195250Y0223735D01*
X0195250Y0223437D01*
X0202910Y0215777D01*
X0202910Y0214687D01*
X0202086Y0214687D01*
X0201441Y0214042D01*
X0201441Y0207619D01*
X0202086Y0206975D01*
X0206934Y0206975D01*
X0207578Y0207619D01*
X0207578Y0214042D01*
X0206934Y0214687D01*
X0206110Y0214687D01*
X0206110Y0217103D01*
X0205173Y0218040D01*
X0199478Y0223735D01*
X0202521Y0223735D01*
X0203165Y0224379D01*
X0203165Y0225300D01*
X0205382Y0225300D01*
X0205382Y0223788D01*
X0206027Y0223144D01*
X0210450Y0223144D01*
X0210450Y0214687D01*
X0209566Y0214687D01*
X0208922Y0214042D01*
X0208922Y0207619D01*
X0209566Y0206975D01*
X0214414Y0206975D01*
X0215059Y0207619D01*
X0215059Y0214042D01*
X0214414Y0214687D01*
X0213650Y0214687D01*
X0213650Y0222637D01*
X0214450Y0223437D01*
X0214450Y0238363D01*
X0213513Y0239300D01*
X0213513Y0239300D01*
X0204351Y0248462D01*
X0204800Y0249545D01*
X0204800Y0251455D01*
X0204069Y0253219D01*
X0202719Y0254569D01*
X0200955Y0255300D01*
X0199045Y0255300D01*
X0197281Y0254569D01*
X0195931Y0253219D01*
X0195200Y0251455D01*
X0195200Y0249545D01*
X0195931Y0247781D01*
X0197281Y0246431D01*
X0199045Y0245700D01*
X0200955Y0245700D01*
X0202109Y0246178D01*
X0211250Y0237037D01*
X0211250Y0230856D01*
X0206027Y0230856D01*
X0205382Y0230212D01*
X0205382Y0228700D01*
X0203165Y0228700D01*
X0203165Y0229621D01*
X0202521Y0230265D01*
X0198450Y0230265D01*
X0198450Y0230363D01*
X0182481Y0246332D01*
X0182719Y0246431D01*
X0184069Y0247781D01*
X0184800Y0249545D01*
X0184800Y0251455D01*
X0184069Y0253219D01*
X0182719Y0254569D01*
X0180955Y0255300D01*
X0179045Y0255300D01*
X0177926Y0254836D01*
X0168400Y0264363D01*
X0168400Y0284474D01*
X0157874Y0295000D01*
X0160986Y0295000D01*
X0160986Y0300000D01*
X0155986Y0300000D01*
X0155986Y0296887D01*
X0154407Y0298467D01*
X0154407Y0303275D01*
X0148082Y0309600D01*
X0115029Y0309600D01*
X0114240Y0310389D01*
X0112260Y0310389D01*
X0110861Y0308990D01*
X0110861Y0307010D01*
X0112260Y0305611D01*
X0114240Y0305611D01*
X0115029Y0306400D01*
X0146756Y0306400D01*
X0147556Y0305600D01*
X0146692Y0305600D01*
X0144818Y0304824D01*
X0143383Y0303389D01*
X0142607Y0301514D01*
X0142607Y0299486D01*
X0143383Y0297611D01*
X0144818Y0296176D01*
X0146692Y0295400D01*
X0148721Y0295400D01*
X0149910Y0295892D01*
X0163400Y0282403D01*
X0163400Y0253888D01*
X0162719Y0254569D01*
X0161600Y0255033D01*
X0161600Y0275090D01*
X0160663Y0276027D01*
X0138493Y0298197D01*
X0139027Y0299486D01*
X0139027Y0301514D01*
X0138251Y0303389D01*
X0136816Y0304824D01*
X0134942Y0305600D01*
X0132913Y0305600D01*
X0131038Y0304824D01*
X0129604Y0303389D01*
X0128827Y0301514D01*
X0128827Y0299486D01*
X0129604Y0297611D01*
X0131038Y0296176D01*
X0132913Y0295400D01*
X0134942Y0295400D01*
X0136231Y0295934D01*
X0158400Y0273764D01*
X0158400Y0255033D01*
X0157281Y0254569D01*
X0155931Y0253219D01*
X0155200Y0251455D01*
X0155200Y0249545D01*
X0155931Y0247781D01*
X0157281Y0246431D01*
X0159045Y0245700D01*
X0160955Y0245700D01*
X0162719Y0246431D01*
X0163727Y0247439D01*
X0166270Y0244896D01*
X0167266Y0243900D01*
X0170040Y0243900D01*
X0178740Y0235200D01*
X0175994Y0235200D01*
X0175350Y0234556D01*
X0175350Y0225644D01*
X0175994Y0225000D01*
X0176150Y0225000D01*
X0176150Y0218337D01*
X0177087Y0217400D01*
X0177087Y0217400D01*
X0178550Y0215937D01*
X0178550Y0211000D01*
X0175994Y0211000D01*
X0175453Y0210459D01*
X0175448Y0210479D01*
X0175250Y0210821D01*
X0174971Y0211100D01*
X0174629Y0211298D01*
X0174247Y0211400D01*
X0172900Y0211400D01*
X0172900Y0206050D01*
X0172600Y0206050D01*
X0172600Y0211400D01*
X0171253Y0211400D01*
X0170871Y0211298D01*
X0170529Y0211100D01*
X0170250Y0210821D01*
X0170052Y0210479D01*
X0170047Y0210459D01*
X0169506Y0211000D01*
X0165994Y0211000D01*
X0165350Y0210356D01*
X0165350Y0201444D01*
X0165994Y0200800D01*
X0169506Y0200800D01*
X0170047Y0201341D01*
X0170052Y0201321D01*
X0170250Y0200979D01*
X0170529Y0200700D01*
X0170871Y0200502D01*
X0171253Y0200400D01*
X0172600Y0200400D01*
X0172600Y0205750D01*
X0172900Y0205750D01*
X0172900Y0200400D01*
X0174247Y0200400D01*
X0174629Y0200502D01*
X0174971Y0200700D01*
X0175250Y0200979D01*
X0175448Y0201321D01*
X0175453Y0201341D01*
X0175994Y0200800D01*
X0178550Y0200800D01*
X0178550Y0178063D01*
X0147081Y0146593D01*
X0147081Y0147980D01*
X0138207Y0147980D01*
X0138207Y0148980D01*
X0147081Y0148980D01*
X0147081Y0151040D01*
X0146978Y0151421D01*
X0146781Y0151764D01*
X0146502Y0152043D01*
X0146160Y0152240D01*
X0145778Y0152343D01*
X0138207Y0152342D01*
X0138207Y0148980D01*
X0137207Y0148980D01*
X0137207Y0147980D01*
X0128333Y0147980D01*
X0128333Y0145921D01*
X0128435Y0145539D01*
X0128632Y0145197D01*
X0128729Y0145100D01*
X0126587Y0145100D01*
X0125650Y0144163D01*
X0124650Y0143163D01*
X0124650Y0194047D01*
X0125350Y0194747D01*
X0125350Y0196653D01*
X0124003Y0198000D01*
X0122097Y0198000D01*
X0121350Y0197253D01*
X0121350Y0198630D01*
X0143120Y0220400D01*
X0144350Y0221630D01*
X0144350Y0237347D01*
X0144697Y0237000D01*
X0146603Y0237000D01*
X0147295Y0237692D01*
X0149438Y0235549D01*
X0149247Y0235600D01*
X0147900Y0235600D01*
X0147900Y0230250D01*
X0147600Y0230250D01*
X0147600Y0235600D01*
X0146253Y0235600D01*
X0145871Y0235498D01*
X0145529Y0235300D01*
X0145250Y0235021D01*
X0145052Y0234679D01*
X0144950Y0234297D01*
X0144950Y0230250D01*
X0147600Y0230250D01*
X0147600Y0229950D01*
X0147900Y0229950D01*
X0147900Y0224600D01*
X0149247Y0224600D01*
X0149629Y0224702D01*
X0149971Y0224900D01*
X0150250Y0225179D01*
X0150448Y0225521D01*
X0150453Y0225541D01*
X0150994Y0225000D01*
X0154506Y0225000D01*
X0155150Y0225644D01*
X0155150Y0234556D01*
X0154506Y0235200D01*
X0154313Y0235200D01*
X0148613Y0240900D01*
X0147303Y0240900D01*
X0146603Y0241600D01*
X0144697Y0241600D01*
X0144350Y0241253D01*
X0144350Y0246476D01*
X0154489Y0236337D01*
X0155426Y0235400D01*
X0160087Y0235400D01*
X0160641Y0234846D01*
X0160350Y0234556D01*
X0160350Y0225644D01*
X0160994Y0225000D01*
X0164506Y0225000D01*
X0165150Y0225644D01*
X0165150Y0234556D01*
X0164506Y0235200D01*
X0164350Y0235200D01*
X0164350Y0235663D01*
X0161413Y0238600D01*
X0156751Y0238600D01*
X0149651Y0245700D01*
X0150955Y0245700D01*
X0152719Y0246431D01*
X0154069Y0247781D01*
X0154800Y0249545D01*
X0154800Y0251455D01*
X0154069Y0253219D01*
X0152719Y0254569D01*
X0150955Y0255300D01*
X0149045Y0255300D01*
X0147281Y0254569D01*
X0145950Y0253238D01*
X0145950Y0259033D01*
X0113068Y0291914D01*
X0113068Y0303275D01*
X0112131Y0304212D01*
X0109143Y0307200D01*
X0103593Y0307200D01*
X0098493Y0302100D01*
X0097446Y0302100D01*
X0096912Y0303389D01*
X0095477Y0304824D01*
X0093603Y0305600D01*
X0091574Y0305600D01*
X0089700Y0304824D01*
X0088265Y0303389D01*
X0087489Y0301514D01*
X0087489Y0299486D01*
X0088265Y0297611D01*
X0089700Y0296176D01*
X0090989Y0295643D01*
X0090989Y0268999D01*
X0103400Y0256587D01*
X0103400Y0255033D01*
X0102281Y0254569D01*
X0100931Y0253219D01*
X0100200Y0251455D01*
X0100200Y0249545D01*
X0100931Y0247781D01*
X0102281Y0246431D01*
X0104045Y0245700D01*
X0105955Y0245700D01*
X0107719Y0246431D01*
X0109069Y0247781D01*
X0109800Y0249545D01*
X0109800Y0251455D01*
X0109069Y0253219D01*
X0107719Y0254569D01*
X0106600Y0255033D01*
X0106600Y0257913D01*
X0094189Y0270324D01*
X0094189Y0295643D01*
X0095477Y0296176D01*
X0096912Y0297611D01*
X0097446Y0298900D01*
X0099818Y0298900D01*
X0101268Y0300350D01*
X0101268Y0299486D01*
X0102045Y0297611D01*
X0103479Y0296176D01*
X0104268Y0295850D01*
X0104268Y0292512D01*
X0140150Y0256630D01*
X0140150Y0233600D01*
X0117546Y0233600D01*
X0116550Y0232604D01*
X0113711Y0229765D01*
X0109172Y0229765D01*
X0108528Y0229121D01*
X0108528Y0225836D01*
X0107972Y0225280D01*
X0107972Y0229121D01*
X0107328Y0229765D01*
X0102479Y0229765D01*
X0101835Y0229121D01*
X0101835Y0228100D01*
X0101587Y0228100D01*
X0087150Y0213663D01*
X0087150Y0212986D01*
X0087113Y0212986D01*
X0086469Y0212341D01*
X0086469Y0211294D01*
X0079413Y0218350D01*
X0081223Y0218350D01*
X0082600Y0219727D01*
X0082600Y0221673D01*
X0081850Y0222423D01*
X0081850Y0231163D01*
X0066915Y0246098D01*
X0067719Y0246431D01*
X0069069Y0247781D01*
X0069800Y0249545D01*
X0069800Y0251455D01*
X0069069Y0253219D01*
X0067719Y0254569D01*
X0065955Y0255300D01*
X0064045Y0255300D01*
X0062281Y0254569D01*
X0060931Y0253219D01*
X0060200Y0251455D01*
X0060200Y0249545D01*
X0060931Y0247781D01*
X0062281Y0246431D01*
X0063400Y0245967D01*
X0063400Y0245087D01*
X0078650Y0229837D01*
X0078650Y0222423D01*
X0077900Y0221673D01*
X0077900Y0219863D01*
X0049336Y0248426D01*
X0049800Y0249545D01*
X0049800Y0251455D01*
X0049069Y0253219D01*
X0047719Y0254569D01*
X0045955Y0255300D01*
X0044045Y0255300D01*
X0042281Y0254569D01*
X0040931Y0253219D01*
X0040200Y0251455D01*
X0040200Y0249545D01*
X0040931Y0247781D01*
X0042281Y0246431D01*
X0044045Y0245700D01*
X0045955Y0245700D01*
X0047074Y0246164D01*
X0084376Y0208861D01*
X0085314Y0207924D01*
X0086469Y0207924D01*
X0086469Y0206706D01*
X0087113Y0206061D01*
X0090387Y0206061D01*
X0091031Y0206706D01*
X0091031Y0212341D01*
X0090693Y0212680D01*
X0101863Y0223851D01*
X0102479Y0223235D01*
X0105927Y0223235D01*
X0104458Y0221765D01*
X0102479Y0221765D01*
X0101835Y0221121D01*
X0101835Y0215879D01*
X0102479Y0215235D01*
X0106122Y0215235D01*
X0105487Y0214600D01*
X0096387Y0214600D01*
X0094773Y0212986D01*
X0092113Y0212986D01*
X0091469Y0212341D01*
X0091469Y0206706D01*
X0091901Y0206274D01*
X0091200Y0205573D01*
X0091200Y0203627D01*
X0092577Y0202250D01*
X0094523Y0202250D01*
X0095900Y0203627D01*
X0095900Y0205573D01*
X0095399Y0206074D01*
X0096031Y0206706D01*
X0096031Y0209718D01*
X0096469Y0210156D01*
X0096469Y0206706D01*
X0097113Y0206061D01*
X0097150Y0206061D01*
X0097150Y0201663D01*
X0092327Y0196840D01*
X0077013Y0196840D01*
X0063453Y0210400D01*
X0065706Y0210400D01*
X0066350Y0211044D01*
X0066350Y0221956D01*
X0065706Y0222600D01*
X0044794Y0222600D01*
X0044150Y0221956D01*
X0044150Y0211044D01*
X0044794Y0210400D01*
X0058927Y0210400D01*
X0062613Y0206714D01*
X0061090Y0207209D01*
X0059448Y0207603D01*
X0057779Y0207867D01*
X0056095Y0208000D01*
X0055750Y0208000D01*
X0055750Y0187000D01*
X0054750Y0187000D01*
X0054750Y0208000D01*
X0054405Y0208000D01*
X0052721Y0207867D01*
X0051052Y0207603D01*
X0049410Y0207209D01*
X0047803Y0206687D01*
X0046242Y0206040D01*
X0044737Y0205273D01*
X0043296Y0204390D01*
X0041929Y0203397D01*
X0040645Y0202300D01*
X0039450Y0201105D01*
X0038353Y0199821D01*
X0037360Y0198454D01*
X0036477Y0197013D01*
X0035710Y0195508D01*
X0035063Y0193947D01*
X0034541Y0192340D01*
X0034147Y0190698D01*
X0033883Y0189029D01*
X0033750Y0187345D01*
X0033750Y0187000D01*
X0054750Y0187000D01*
X0054750Y0186000D01*
X0055750Y0186000D01*
X0055750Y0165000D01*
X0056095Y0165000D01*
X0057779Y0165133D01*
X0059448Y0165397D01*
X0061090Y0165791D01*
X0062613Y0166286D01*
X0058927Y0162600D01*
X0044794Y0162600D01*
X0044150Y0161956D01*
X0044150Y0151044D01*
X0044794Y0150400D01*
X0065706Y0150400D01*
X0066350Y0151044D01*
X0066350Y0161956D01*
X0065706Y0162600D01*
X0063453Y0162600D01*
X0077950Y0177097D01*
X0077950Y0193640D01*
X0093653Y0193640D01*
X0100350Y0200337D01*
X0100350Y0202900D01*
X0106713Y0202900D01*
X0119013Y0215201D01*
X0119283Y0214931D01*
X0124525Y0214931D01*
X0125038Y0215445D01*
X0125231Y0215110D01*
X0125510Y0214831D01*
X0125852Y0214634D01*
X0126234Y0214531D01*
X0128112Y0214531D01*
X0128112Y0217516D01*
X0129081Y0217516D01*
X0129081Y0218484D01*
X0132262Y0218484D01*
X0132262Y0220166D01*
X0132160Y0220547D01*
X0131962Y0220890D01*
X0131683Y0221169D01*
X0131341Y0221366D01*
X0130959Y0221468D01*
X0129081Y0221468D01*
X0129081Y0218484D01*
X0128112Y0218484D01*
X0128112Y0221468D01*
X0126234Y0221468D01*
X0125852Y0221366D01*
X0125510Y0221169D01*
X0125231Y0220890D01*
X0125038Y0220555D01*
X0124525Y0221068D01*
X0123110Y0221068D01*
X0123110Y0223447D01*
X0124525Y0223447D01*
X0125038Y0223961D01*
X0125231Y0223626D01*
X0125510Y0223347D01*
X0125852Y0223149D01*
X0126234Y0223047D01*
X0128490Y0223047D01*
X0128490Y0227000D01*
X0129490Y0227000D01*
X0129490Y0223047D01*
X0131747Y0223047D01*
X0132128Y0223149D01*
X0132470Y0223347D01*
X0132749Y0223626D01*
X0132947Y0223968D01*
X0133049Y0224350D01*
X0133049Y0227000D01*
X0129490Y0227000D01*
X0129490Y0228000D01*
X0133049Y0228000D01*
X0133049Y0230200D01*
X0140150Y0230200D01*
X0140150Y0223370D01*
X0132060Y0215280D01*
X0132160Y0215453D01*
X0132262Y0215834D01*
X0132262Y0217516D01*
X0129081Y0217516D01*
X0129081Y0214531D01*
X0130959Y0214531D01*
X0131341Y0214634D01*
X0131514Y0214734D01*
X0117150Y0200370D01*
X0117150Y0181600D01*
X0097120Y0181600D01*
X0095850Y0182870D01*
X0095850Y0184477D01*
X0096031Y0184659D01*
X0096031Y0190294D01*
X0095387Y0190939D01*
X0092113Y0190939D01*
X0091469Y0190294D01*
X0091469Y0184659D01*
X0091650Y0184477D01*
X0091650Y0181130D01*
X0092880Y0179900D01*
X0095380Y0177400D01*
X0117150Y0177400D01*
X0117150Y0090620D01*
X0091574Y0065044D01*
X0090955Y0065300D01*
X0089045Y0065300D01*
X0087281Y0064569D01*
X0085931Y0063219D01*
X0085200Y0061455D01*
X0085200Y0059545D01*
X0085931Y0057781D01*
X0087281Y0056431D01*
X0089045Y0055700D01*
X0090955Y0055700D01*
X0092719Y0056431D01*
X0094069Y0057781D01*
X0094800Y0059545D01*
X0094800Y0061455D01*
X0094544Y0062074D01*
X0098200Y0065730D01*
X0098200Y0065727D01*
X0098749Y0065177D01*
X0097281Y0064569D01*
X0095931Y0063219D01*
X0095200Y0061455D01*
X0095200Y0059545D01*
X0095931Y0057781D01*
X0097281Y0056431D01*
X0099045Y0055700D01*
X0100955Y0055700D01*
X0102074Y0056164D01*
X0103900Y0054337D01*
X0104837Y0053400D01*
X0152913Y0053400D01*
X0153850Y0054337D01*
X0163413Y0063900D01*
X0166612Y0063900D01*
X0165931Y0063219D01*
X0165200Y0061455D01*
X0165200Y0059545D01*
X0165931Y0057781D01*
X0167281Y0056431D01*
X0169045Y0055700D01*
X0170955Y0055700D01*
X0172719Y0056431D01*
X0174069Y0057781D01*
X0174800Y0059545D01*
X0174800Y0061455D01*
X0174069Y0063219D01*
X0173388Y0063900D01*
X0176612Y0063900D01*
X0175931Y0063219D01*
X0175200Y0061455D01*
X0175200Y0059545D01*
X0175664Y0058426D01*
X0149437Y0032200D01*
X0087246Y0032200D01*
X0086309Y0031263D01*
X0081112Y0026066D01*
X0079824Y0026600D01*
X0077795Y0026600D01*
X0075920Y0025824D01*
X0074485Y0024389D01*
X0073709Y0022514D01*
X0073709Y0021650D01*
X0072259Y0023100D01*
X0069887Y0023100D01*
X0069353Y0024389D01*
X0067918Y0025824D01*
X0066044Y0026600D01*
X0064015Y0026600D01*
X0062141Y0025824D01*
X0061530Y0025212D01*
X0061530Y0047017D01*
X0075513Y0061000D01*
X0079500Y0061000D01*
X0079500Y0064987D01*
X0097913Y0083400D01*
X0098850Y0084337D01*
X0098850Y0104111D01*
X0100740Y0104111D01*
X0101529Y0104900D01*
X0103413Y0104900D01*
X0105504Y0106991D01*
X0105504Y0107431D01*
X0106525Y0107431D01*
X0107038Y0107945D01*
X0107231Y0107610D01*
X0107510Y0107331D01*
X0107852Y0107134D01*
X0108234Y0107031D01*
X0110112Y0107031D01*
X0110112Y0110016D01*
X0111081Y0110016D01*
X0111081Y0110984D01*
X0114262Y0110984D01*
X0114262Y0112666D01*
X0114160Y0113047D01*
X0113962Y0113390D01*
X0113683Y0113669D01*
X0113341Y0113866D01*
X0112959Y0113968D01*
X0111081Y0113968D01*
X0111081Y0110984D01*
X0110112Y0110984D01*
X0110112Y0113968D01*
X0108234Y0113968D01*
X0107852Y0113866D01*
X0107510Y0113669D01*
X0107231Y0113390D01*
X0107038Y0113055D01*
X0106525Y0113568D01*
X0101283Y0113568D01*
X0100638Y0112924D01*
X0100638Y0108889D01*
X0098850Y0108889D01*
X0098850Y0118900D01*
X0100638Y0118900D01*
X0100638Y0118076D01*
X0101283Y0117431D01*
X0106525Y0117431D01*
X0107038Y0117945D01*
X0107231Y0117610D01*
X0107510Y0117331D01*
X0107852Y0117134D01*
X0108234Y0117031D01*
X0110112Y0117031D01*
X0110112Y0120016D01*
X0111081Y0120016D01*
X0111081Y0120984D01*
X0114262Y0120984D01*
X0114262Y0122666D01*
X0114160Y0123047D01*
X0113962Y0123390D01*
X0113683Y0123669D01*
X0113341Y0123866D01*
X0112959Y0123968D01*
X0111081Y0123968D01*
X0111081Y0120984D01*
X0110112Y0120984D01*
X0110112Y0123968D01*
X0108234Y0123968D01*
X0107852Y0123866D01*
X0107510Y0123669D01*
X0107231Y0123390D01*
X0107038Y0123055D01*
X0106525Y0123568D01*
X0101283Y0123568D01*
X0100638Y0122924D01*
X0100638Y0122100D01*
X0095600Y0122100D01*
X0093700Y0124000D01*
X0090800Y0124000D01*
X0088750Y0121950D01*
X0088750Y0119050D01*
X0090800Y0117000D01*
X0093700Y0117000D01*
X0095600Y0118900D01*
X0095650Y0118900D01*
X0095650Y0112050D01*
X0093700Y0114000D01*
X0090800Y0114000D01*
X0088750Y0111950D01*
X0088750Y0109050D01*
X0090650Y0107150D01*
X0090650Y0082925D01*
X0056730Y0049005D01*
X0056730Y0048437D02*
X0053850Y0048437D01*
X0053850Y0047439D02*
X0056730Y0047439D01*
X0056730Y0046440D02*
X0053850Y0046440D01*
X0053850Y0045442D02*
X0056730Y0045442D01*
X0056730Y0044443D02*
X0053850Y0044443D01*
X0053850Y0043445D02*
X0056730Y0043445D01*
X0056730Y0042446D02*
X0053850Y0042446D01*
X0053850Y0041448D02*
X0056730Y0041448D01*
X0056730Y0040449D02*
X0053850Y0040449D01*
X0053850Y0039451D02*
X0056730Y0039451D01*
X0056730Y0038452D02*
X0053850Y0038452D01*
X0053850Y0037454D02*
X0056730Y0037454D01*
X0056730Y0036455D02*
X0053850Y0036455D01*
X0053850Y0035457D02*
X0056730Y0035457D01*
X0056730Y0034458D02*
X0053850Y0034458D01*
X0053850Y0033460D02*
X0056730Y0033460D01*
X0056730Y0032461D02*
X0053850Y0032461D01*
X0053850Y0031463D02*
X0056730Y0031463D01*
X0056730Y0030464D02*
X0053850Y0030464D01*
X0053850Y0029466D02*
X0056730Y0029466D01*
X0056730Y0028467D02*
X0053850Y0028467D01*
X0053850Y0027469D02*
X0056730Y0027469D01*
X0056730Y0026470D02*
X0055835Y0026470D01*
X0056350Y0025472D02*
X0056730Y0025472D01*
X0056730Y0024473D02*
X0056350Y0024473D01*
X0056350Y0023475D02*
X0056730Y0023475D01*
X0056730Y0022476D02*
X0056350Y0022476D01*
X0056350Y0021478D02*
X0056730Y0021478D01*
X0056730Y0020479D02*
X0056350Y0020479D01*
X0056350Y0019481D02*
X0056730Y0019481D01*
X0056730Y0018482D02*
X0056350Y0018482D01*
X0056350Y0017484D02*
X0057308Y0017484D01*
X0057667Y0017125D02*
X0057667Y0017125D01*
X0058306Y0016485D02*
X0055791Y0016485D01*
X0058330Y0018725D02*
X0058330Y0048342D01*
X0092250Y0082263D01*
X0092250Y0110500D01*
X0089452Y0108348D02*
X0066961Y0108348D01*
X0065962Y0107350D02*
X0090451Y0107350D01*
X0090650Y0106351D02*
X0064964Y0106351D01*
X0063965Y0105353D02*
X0090650Y0105353D01*
X0090650Y0104354D02*
X0062967Y0104354D01*
X0061968Y0103356D02*
X0090650Y0103356D01*
X0090650Y0102357D02*
X0060970Y0102357D01*
X0059971Y0101359D02*
X0090650Y0101359D01*
X0090650Y0100360D02*
X0058973Y0100360D01*
X0057974Y0099362D02*
X0090650Y0099362D01*
X0090650Y0098363D02*
X0056976Y0098363D01*
X0055977Y0097365D02*
X0090650Y0097365D01*
X0090650Y0096366D02*
X0054979Y0096366D01*
X0053980Y0095368D02*
X0090650Y0095368D01*
X0090650Y0094369D02*
X0053850Y0094369D01*
X0053850Y0093370D02*
X0090650Y0093370D01*
X0090650Y0092372D02*
X0053850Y0092372D01*
X0053850Y0091373D02*
X0090650Y0091373D01*
X0090650Y0090375D02*
X0053850Y0090375D01*
X0053850Y0089376D02*
X0090650Y0089376D01*
X0090650Y0088378D02*
X0053850Y0088378D01*
X0053850Y0087379D02*
X0090650Y0087379D01*
X0090650Y0086381D02*
X0053850Y0086381D01*
X0053850Y0085382D02*
X0090650Y0085382D01*
X0090650Y0084384D02*
X0053850Y0084384D01*
X0053850Y0083385D02*
X0090650Y0083385D01*
X0090111Y0082387D02*
X0053850Y0082387D01*
X0053850Y0081388D02*
X0089113Y0081388D01*
X0088114Y0080390D02*
X0053850Y0080390D01*
X0053850Y0079391D02*
X0087116Y0079391D01*
X0086117Y0078393D02*
X0053850Y0078393D01*
X0050650Y0089376D02*
X0033589Y0089376D01*
X0033589Y0088378D02*
X0040400Y0088378D01*
X0040400Y0087379D02*
X0033589Y0087379D01*
X0033589Y0086381D02*
X0040400Y0086381D01*
X0040400Y0085382D02*
X0033589Y0085382D01*
X0033589Y0084384D02*
X0040400Y0084384D01*
X0040400Y0083385D02*
X0033589Y0083385D01*
X0033589Y0082387D02*
X0040400Y0082387D01*
X0040400Y0081388D02*
X0033589Y0081388D01*
X0033589Y0080390D02*
X0040400Y0080390D01*
X0040400Y0079391D02*
X0033589Y0079391D01*
X0033589Y0078393D02*
X0040400Y0078393D01*
X0033589Y0090375D02*
X0050650Y0090375D01*
X0050650Y0091373D02*
X0033589Y0091373D01*
X0033589Y0092372D02*
X0050650Y0092372D01*
X0050650Y0093370D02*
X0033589Y0093370D01*
X0033589Y0094369D02*
X0050650Y0094369D01*
X0050650Y0095368D02*
X0033589Y0095368D01*
X0033589Y0096366D02*
X0050650Y0096366D01*
X0051452Y0097365D02*
X0033589Y0097365D01*
X0033589Y0098363D02*
X0052450Y0098363D01*
X0053449Y0099362D02*
X0033589Y0099362D01*
X0033589Y0100360D02*
X0054447Y0100360D01*
X0055446Y0101359D02*
X0033589Y0101359D01*
X0033589Y0102357D02*
X0056444Y0102357D01*
X0057443Y0103356D02*
X0033589Y0103356D01*
X0033589Y0104354D02*
X0058441Y0104354D01*
X0059440Y0105353D02*
X0033589Y0105353D01*
X0033589Y0106351D02*
X0060438Y0106351D01*
X0061437Y0107350D02*
X0054615Y0107350D01*
X0053865Y0106600D02*
X0056150Y0108885D01*
X0056150Y0110200D01*
X0052550Y0110200D01*
X0052550Y0110800D01*
X0056150Y0110800D01*
X0056150Y0112115D01*
X0053865Y0114400D01*
X0052550Y0114400D01*
X0052550Y0110800D01*
X0051950Y0110800D01*
X0051950Y0114400D01*
X0050635Y0114400D01*
X0048350Y0112115D01*
X0048350Y0110800D01*
X0051950Y0110800D01*
X0051950Y0110200D01*
X0052550Y0110200D01*
X0052550Y0106600D01*
X0053865Y0106600D01*
X0052550Y0107350D02*
X0051950Y0107350D01*
X0051950Y0106600D02*
X0051950Y0110200D01*
X0048350Y0110200D01*
X0048350Y0108885D01*
X0050635Y0106600D01*
X0051950Y0106600D01*
X0051950Y0108348D02*
X0052550Y0108348D01*
X0052550Y0109347D02*
X0051950Y0109347D01*
X0051950Y0110345D02*
X0033589Y0110345D01*
X0033589Y0109347D02*
X0048350Y0109347D01*
X0048886Y0108348D02*
X0033589Y0108348D01*
X0033589Y0107350D02*
X0049885Y0107350D01*
X0052550Y0110345D02*
X0064432Y0110345D01*
X0063434Y0109347D02*
X0056150Y0109347D01*
X0055614Y0108348D02*
X0062435Y0108348D01*
X0065431Y0111344D02*
X0056150Y0111344D01*
X0055923Y0112342D02*
X0066429Y0112342D01*
X0067428Y0113341D02*
X0054925Y0113341D01*
X0053926Y0114339D02*
X0068426Y0114339D01*
X0069425Y0115338D02*
X0033589Y0115338D01*
X0033589Y0116336D02*
X0070424Y0116336D01*
X0071422Y0117335D02*
X0054600Y0117335D01*
X0053865Y0116600D02*
X0056150Y0118885D01*
X0056150Y0120200D01*
X0052550Y0120200D01*
X0052550Y0120800D01*
X0056150Y0120800D01*
X0056150Y0122115D01*
X0053865Y0124400D01*
X0052550Y0124400D01*
X0052550Y0120800D01*
X0051950Y0120800D01*
X0051950Y0124400D01*
X0050635Y0124400D01*
X0048350Y0122115D01*
X0048350Y0120800D01*
X0051950Y0120800D01*
X0051950Y0120200D01*
X0052550Y0120200D01*
X0052550Y0116600D01*
X0053865Y0116600D01*
X0052550Y0117335D02*
X0051950Y0117335D01*
X0051950Y0116600D02*
X0051950Y0120200D01*
X0048350Y0120200D01*
X0048350Y0118885D01*
X0050635Y0116600D01*
X0051950Y0116600D01*
X0051950Y0118333D02*
X0052550Y0118333D01*
X0052550Y0119332D02*
X0051950Y0119332D01*
X0051950Y0120330D02*
X0033589Y0120330D01*
X0033589Y0119332D02*
X0048350Y0119332D01*
X0048901Y0118333D02*
X0033589Y0118333D01*
X0033589Y0117335D02*
X0049900Y0117335D01*
X0050574Y0114339D02*
X0033589Y0114339D01*
X0033589Y0113341D02*
X0049575Y0113341D01*
X0048577Y0112342D02*
X0033589Y0112342D01*
X0033589Y0111344D02*
X0048350Y0111344D01*
X0051950Y0111344D02*
X0052550Y0111344D01*
X0052550Y0112342D02*
X0051950Y0112342D01*
X0051950Y0113341D02*
X0052550Y0113341D01*
X0052550Y0114339D02*
X0051950Y0114339D01*
X0055599Y0118333D02*
X0072421Y0118333D01*
X0073419Y0119332D02*
X0056150Y0119332D01*
X0056150Y0121329D02*
X0075416Y0121329D01*
X0076415Y0122327D02*
X0055938Y0122327D01*
X0054940Y0123326D02*
X0077413Y0123326D01*
X0078412Y0124324D02*
X0053941Y0124324D01*
X0052550Y0124324D02*
X0051950Y0124324D01*
X0051950Y0123326D02*
X0052550Y0123326D01*
X0052550Y0122327D02*
X0051950Y0122327D01*
X0051950Y0121329D02*
X0052550Y0121329D01*
X0052550Y0120330D02*
X0074418Y0120330D01*
X0076946Y0118333D02*
X0089467Y0118333D01*
X0088750Y0119332D02*
X0077945Y0119332D01*
X0078943Y0120330D02*
X0088750Y0120330D01*
X0088750Y0121329D02*
X0079942Y0121329D01*
X0080940Y0122327D02*
X0089128Y0122327D01*
X0090126Y0123326D02*
X0081939Y0123326D01*
X0082937Y0124324D02*
X0117150Y0124324D01*
X0117150Y0123326D02*
X0113999Y0123326D01*
X0114262Y0122327D02*
X0117150Y0122327D01*
X0117150Y0121329D02*
X0114262Y0121329D01*
X0114262Y0120016D02*
X0111081Y0120016D01*
X0111081Y0117031D01*
X0112959Y0117031D01*
X0113341Y0117134D01*
X0113683Y0117331D01*
X0113962Y0117610D01*
X0114160Y0117953D01*
X0114262Y0118334D01*
X0114262Y0120016D01*
X0114262Y0119332D02*
X0117150Y0119332D01*
X0117150Y0120330D02*
X0111081Y0120330D01*
X0111081Y0119332D02*
X0110112Y0119332D01*
X0110112Y0118333D02*
X0111081Y0118333D01*
X0111081Y0117335D02*
X0110112Y0117335D01*
X0107507Y0117335D02*
X0098850Y0117335D01*
X0098850Y0118333D02*
X0100638Y0118333D01*
X0098850Y0116336D02*
X0117150Y0116336D01*
X0117150Y0115338D02*
X0098850Y0115338D01*
X0098850Y0114339D02*
X0117150Y0114339D01*
X0117150Y0113341D02*
X0113990Y0113341D01*
X0114262Y0112342D02*
X0117150Y0112342D01*
X0117150Y0111344D02*
X0114262Y0111344D01*
X0114262Y0110016D02*
X0111081Y0110016D01*
X0111081Y0107031D01*
X0112959Y0107031D01*
X0113341Y0107134D01*
X0113683Y0107331D01*
X0113962Y0107610D01*
X0114160Y0107953D01*
X0114262Y0108334D01*
X0114262Y0110016D01*
X0114262Y0109347D02*
X0117150Y0109347D01*
X0117150Y0110345D02*
X0111081Y0110345D01*
X0111081Y0109347D02*
X0110112Y0109347D01*
X0110112Y0108348D02*
X0111081Y0108348D01*
X0111081Y0107350D02*
X0110112Y0107350D01*
X0107492Y0107350D02*
X0105504Y0107350D01*
X0104864Y0106351D02*
X0117150Y0106351D01*
X0117150Y0105353D02*
X0103865Y0105353D01*
X0102750Y0106500D02*
X0103904Y0107654D01*
X0103904Y0110500D01*
X0100638Y0110345D02*
X0098850Y0110345D01*
X0098850Y0109347D02*
X0100638Y0109347D01*
X0100638Y0111344D02*
X0098850Y0111344D01*
X0098850Y0112342D02*
X0100638Y0112342D01*
X0101055Y0113341D02*
X0098850Y0113341D01*
X0095650Y0113341D02*
X0094359Y0113341D01*
X0095358Y0112342D02*
X0095650Y0112342D01*
X0095650Y0114339D02*
X0072952Y0114339D01*
X0071953Y0113341D02*
X0090141Y0113341D01*
X0089142Y0112342D02*
X0070955Y0112342D01*
X0069956Y0111344D02*
X0088750Y0111344D01*
X0088750Y0110345D02*
X0068958Y0110345D01*
X0067959Y0109347D02*
X0088750Y0109347D01*
X0090465Y0117335D02*
X0075947Y0117335D01*
X0074949Y0116336D02*
X0095650Y0116336D01*
X0095650Y0115338D02*
X0073950Y0115338D01*
X0079410Y0125323D02*
X0033589Y0125323D01*
X0033589Y0126321D02*
X0080409Y0126321D01*
X0081407Y0127320D02*
X0054585Y0127320D01*
X0053865Y0126600D02*
X0056150Y0128885D01*
X0056150Y0130200D01*
X0052550Y0130200D01*
X0052550Y0130800D01*
X0056150Y0130800D01*
X0056150Y0132115D01*
X0053865Y0134400D01*
X0052550Y0134400D01*
X0052550Y0130800D01*
X0051950Y0130800D01*
X0051950Y0134400D01*
X0050635Y0134400D01*
X0048350Y0132115D01*
X0048350Y0130800D01*
X0051950Y0130800D01*
X0051950Y0130200D01*
X0052550Y0130200D01*
X0052550Y0126600D01*
X0053865Y0126600D01*
X0052550Y0127320D02*
X0051950Y0127320D01*
X0051950Y0126600D02*
X0051950Y0130200D01*
X0048350Y0130200D01*
X0048350Y0128885D01*
X0050635Y0126600D01*
X0051950Y0126600D01*
X0051950Y0128318D02*
X0052550Y0128318D01*
X0052550Y0129317D02*
X0051950Y0129317D01*
X0051950Y0130315D02*
X0033589Y0130315D01*
X0033589Y0129317D02*
X0048350Y0129317D01*
X0048916Y0128318D02*
X0033589Y0128318D01*
X0033589Y0127320D02*
X0049915Y0127320D01*
X0050559Y0124324D02*
X0033589Y0124324D01*
X0033589Y0123326D02*
X0049560Y0123326D01*
X0048562Y0122327D02*
X0033589Y0122327D01*
X0033589Y0121329D02*
X0048350Y0121329D01*
X0052550Y0130315D02*
X0084403Y0130315D01*
X0083404Y0129317D02*
X0056150Y0129317D01*
X0055584Y0128318D02*
X0082406Y0128318D01*
X0084934Y0126321D02*
X0117150Y0126321D01*
X0117150Y0125323D02*
X0083936Y0125323D01*
X0085933Y0127320D02*
X0090480Y0127320D01*
X0089482Y0128318D02*
X0086931Y0128318D01*
X0087930Y0129317D02*
X0088750Y0129317D01*
X0086400Y0132312D02*
X0055953Y0132312D01*
X0056150Y0131314D02*
X0085401Y0131314D01*
X0087398Y0133311D02*
X0054954Y0133311D01*
X0053956Y0134309D02*
X0088397Y0134309D01*
X0089395Y0135308D02*
X0033589Y0135308D01*
X0033589Y0136306D02*
X0090394Y0136306D01*
X0090495Y0137305D02*
X0054570Y0137305D01*
X0053865Y0136600D02*
X0056150Y0138885D01*
X0056150Y0140200D01*
X0052550Y0140200D01*
X0052550Y0140800D01*
X0056150Y0140800D01*
X0056150Y0142115D01*
X0053865Y0144400D01*
X0052550Y0144400D01*
X0052550Y0140800D01*
X0051950Y0140800D01*
X0051950Y0144400D01*
X0050635Y0144400D01*
X0048350Y0142115D01*
X0048350Y0140800D01*
X0051950Y0140800D01*
X0051950Y0140200D01*
X0052550Y0140200D01*
X0052550Y0136600D01*
X0053865Y0136600D01*
X0052550Y0137305D02*
X0051950Y0137305D01*
X0051950Y0136600D02*
X0051950Y0140200D01*
X0048350Y0140200D01*
X0048350Y0138885D01*
X0050635Y0136600D01*
X0051950Y0136600D01*
X0051950Y0138303D02*
X0052550Y0138303D01*
X0052550Y0139302D02*
X0051950Y0139302D01*
X0051950Y0140301D02*
X0033589Y0140301D01*
X0033589Y0141299D02*
X0048350Y0141299D01*
X0048532Y0142298D02*
X0033589Y0142298D01*
X0033589Y0143296D02*
X0049531Y0143296D01*
X0050529Y0144295D02*
X0033589Y0144295D01*
X0033589Y0145293D02*
X0117150Y0145293D01*
X0117150Y0144295D02*
X0053971Y0144295D01*
X0054969Y0143296D02*
X0090096Y0143296D01*
X0089098Y0142298D02*
X0055968Y0142298D01*
X0056150Y0141299D02*
X0088750Y0141299D01*
X0088750Y0140301D02*
X0052550Y0140301D01*
X0052550Y0141299D02*
X0051950Y0141299D01*
X0051950Y0142298D02*
X0052550Y0142298D01*
X0052550Y0143296D02*
X0051950Y0143296D01*
X0051950Y0144295D02*
X0052550Y0144295D01*
X0056150Y0139302D02*
X0088750Y0139302D01*
X0089497Y0138303D02*
X0055569Y0138303D01*
X0052550Y0134309D02*
X0051950Y0134309D01*
X0051950Y0133311D02*
X0052550Y0133311D01*
X0052550Y0132312D02*
X0051950Y0132312D01*
X0051950Y0131314D02*
X0052550Y0131314D01*
X0050544Y0134309D02*
X0033589Y0134309D01*
X0033589Y0133311D02*
X0049546Y0133311D01*
X0048547Y0132312D02*
X0033589Y0132312D01*
X0033589Y0131314D02*
X0048350Y0131314D01*
X0049930Y0137305D02*
X0033589Y0137305D01*
X0033589Y0138303D02*
X0048931Y0138303D01*
X0048350Y0139302D02*
X0033589Y0139302D01*
X0033589Y0146292D02*
X0117150Y0146292D01*
X0117150Y0147290D02*
X0033589Y0147290D01*
X0033589Y0148289D02*
X0117150Y0148289D01*
X0117150Y0149287D02*
X0092898Y0149287D01*
X0092205Y0149000D02*
X0093969Y0149731D01*
X0095319Y0151081D01*
X0096050Y0152845D01*
X0096050Y0154755D01*
X0095319Y0156519D01*
X0093969Y0157869D01*
X0092205Y0158600D01*
X0090295Y0158600D01*
X0088531Y0157869D01*
X0087181Y0156519D01*
X0086450Y0154755D01*
X0086450Y0152845D01*
X0087181Y0151081D01*
X0088531Y0149731D01*
X0090295Y0149000D01*
X0092205Y0149000D01*
X0089602Y0149287D02*
X0033589Y0149287D01*
X0033589Y0150286D02*
X0087976Y0150286D01*
X0087097Y0151284D02*
X0066350Y0151284D01*
X0066350Y0152283D02*
X0086683Y0152283D01*
X0086450Y0153281D02*
X0066350Y0153281D01*
X0066350Y0154280D02*
X0086450Y0154280D01*
X0086667Y0155278D02*
X0066350Y0155278D01*
X0066350Y0156277D02*
X0087080Y0156277D01*
X0087937Y0157275D02*
X0066350Y0157275D01*
X0066350Y0158274D02*
X0089508Y0158274D01*
X0090295Y0160400D02*
X0088531Y0161131D01*
X0087181Y0162481D01*
X0086450Y0164245D01*
X0086450Y0166155D01*
X0087181Y0167919D01*
X0088531Y0169269D01*
X0090295Y0170000D01*
X0092205Y0170000D01*
X0093969Y0169269D01*
X0095319Y0167919D01*
X0096050Y0166155D01*
X0096050Y0164245D01*
X0095319Y0162481D01*
X0093969Y0161131D01*
X0092205Y0160400D01*
X0090295Y0160400D01*
X0088393Y0161269D02*
X0066350Y0161269D01*
X0066350Y0160271D02*
X0117150Y0160271D01*
X0117150Y0161269D02*
X0094107Y0161269D01*
X0095106Y0162268D02*
X0117150Y0162268D01*
X0117150Y0163266D02*
X0095644Y0163266D01*
X0096050Y0164265D02*
X0117150Y0164265D01*
X0117150Y0165263D02*
X0096050Y0165263D01*
X0096006Y0166262D02*
X0117150Y0166262D01*
X0117150Y0167260D02*
X0095592Y0167260D01*
X0094979Y0168259D02*
X0117150Y0168259D01*
X0117150Y0169257D02*
X0093981Y0169257D01*
X0088519Y0169257D02*
X0070110Y0169257D01*
X0069111Y0168259D02*
X0087521Y0168259D01*
X0086908Y0167260D02*
X0068113Y0167260D01*
X0067114Y0166262D02*
X0086494Y0166262D01*
X0086450Y0165263D02*
X0066116Y0165263D01*
X0065117Y0164265D02*
X0086450Y0164265D01*
X0086855Y0163266D02*
X0064119Y0163266D01*
X0066038Y0162268D02*
X0087394Y0162268D01*
X0092992Y0158274D02*
X0117150Y0158274D01*
X0117150Y0159272D02*
X0066350Y0159272D01*
X0060592Y0164265D02*
X0033589Y0164265D01*
X0033589Y0165263D02*
X0051895Y0165263D01*
X0052721Y0165133D02*
X0051052Y0165397D01*
X0049410Y0165791D01*
X0047803Y0166313D01*
X0046242Y0166960D01*
X0044737Y0167727D01*
X0043296Y0168610D01*
X0041929Y0169603D01*
X0040645Y0170700D01*
X0039450Y0171895D01*
X0038353Y0173179D01*
X0037360Y0174546D01*
X0036477Y0175987D01*
X0035710Y0177492D01*
X0035063Y0179053D01*
X0034541Y0180660D01*
X0034147Y0182302D01*
X0033883Y0183971D01*
X0033750Y0185655D01*
X0033750Y0186000D01*
X0054750Y0186000D01*
X0054750Y0165000D01*
X0054405Y0165000D01*
X0052721Y0165133D01*
X0054750Y0165263D02*
X0055750Y0165263D01*
X0055750Y0166262D02*
X0054750Y0166262D01*
X0054750Y0167260D02*
X0055750Y0167260D01*
X0055750Y0168259D02*
X0054750Y0168259D01*
X0054750Y0169257D02*
X0055750Y0169257D01*
X0055750Y0170256D02*
X0054750Y0170256D01*
X0054750Y0171254D02*
X0055750Y0171254D01*
X0055750Y0172253D02*
X0054750Y0172253D01*
X0054750Y0173251D02*
X0055750Y0173251D01*
X0055750Y0174250D02*
X0054750Y0174250D01*
X0054750Y0175248D02*
X0055750Y0175248D01*
X0055750Y0176247D02*
X0054750Y0176247D01*
X0054750Y0177245D02*
X0055750Y0177245D01*
X0055750Y0178244D02*
X0054750Y0178244D01*
X0054750Y0179242D02*
X0055750Y0179242D01*
X0055750Y0180241D02*
X0054750Y0180241D01*
X0054750Y0181239D02*
X0055750Y0181239D01*
X0055750Y0182238D02*
X0054750Y0182238D01*
X0054750Y0183237D02*
X0055750Y0183237D01*
X0055750Y0184235D02*
X0054750Y0184235D01*
X0054750Y0185234D02*
X0055750Y0185234D01*
X0054750Y0186232D02*
X0033589Y0186232D01*
X0033589Y0185234D02*
X0033783Y0185234D01*
X0033862Y0184235D02*
X0033589Y0184235D01*
X0033589Y0183237D02*
X0033999Y0183237D01*
X0034162Y0182238D02*
X0033589Y0182238D01*
X0033589Y0181239D02*
X0034402Y0181239D01*
X0034677Y0180241D02*
X0033589Y0180241D01*
X0033589Y0179242D02*
X0035002Y0179242D01*
X0035398Y0178244D02*
X0033589Y0178244D01*
X0033589Y0177245D02*
X0035835Y0177245D01*
X0036344Y0176247D02*
X0033589Y0176247D01*
X0033589Y0175248D02*
X0036929Y0175248D01*
X0037575Y0174250D02*
X0033589Y0174250D01*
X0033589Y0173251D02*
X0038300Y0173251D01*
X0039144Y0172253D02*
X0033589Y0172253D01*
X0033589Y0171254D02*
X0040090Y0171254D01*
X0041164Y0170256D02*
X0033589Y0170256D01*
X0033589Y0169257D02*
X0042404Y0169257D01*
X0043868Y0168259D02*
X0033589Y0168259D01*
X0033589Y0167260D02*
X0045652Y0167260D01*
X0047961Y0166262D02*
X0033589Y0166262D01*
X0033589Y0163266D02*
X0059593Y0163266D01*
X0058604Y0165263D02*
X0061590Y0165263D01*
X0062539Y0166262D02*
X0062589Y0166262D01*
X0071108Y0170256D02*
X0117150Y0170256D01*
X0117150Y0171254D02*
X0072107Y0171254D01*
X0073106Y0172253D02*
X0117150Y0172253D01*
X0117150Y0173251D02*
X0074104Y0173251D01*
X0075103Y0174250D02*
X0117150Y0174250D01*
X0117150Y0175248D02*
X0076101Y0175248D01*
X0077100Y0176247D02*
X0117150Y0176247D01*
X0117150Y0177245D02*
X0077950Y0177245D01*
X0077950Y0178244D02*
X0094536Y0178244D01*
X0093538Y0179242D02*
X0077950Y0179242D01*
X0077950Y0180241D02*
X0092539Y0180241D01*
X0091650Y0181239D02*
X0077950Y0181239D01*
X0077950Y0182238D02*
X0091650Y0182238D01*
X0091650Y0183237D02*
X0077950Y0183237D01*
X0077950Y0184235D02*
X0086892Y0184235D01*
X0087113Y0184014D02*
X0090387Y0184014D01*
X0091031Y0184659D01*
X0091031Y0190294D01*
X0090387Y0190939D01*
X0087113Y0190939D01*
X0086469Y0190294D01*
X0086469Y0184659D01*
X0087113Y0184014D01*
X0086469Y0185234D02*
X0077950Y0185234D01*
X0077950Y0186232D02*
X0086469Y0186232D01*
X0086469Y0187231D02*
X0077950Y0187231D01*
X0077950Y0188229D02*
X0086469Y0188229D01*
X0086469Y0189228D02*
X0077950Y0189228D01*
X0077950Y0190226D02*
X0086469Y0190226D01*
X0091031Y0190226D02*
X0091469Y0190226D01*
X0091469Y0189228D02*
X0091031Y0189228D01*
X0091031Y0188229D02*
X0091469Y0188229D01*
X0091469Y0187231D02*
X0091031Y0187231D01*
X0091031Y0186232D02*
X0091469Y0186232D01*
X0091469Y0185234D02*
X0091031Y0185234D01*
X0090608Y0184235D02*
X0091650Y0184235D01*
X0095850Y0184235D02*
X0096892Y0184235D01*
X0097113Y0184014D02*
X0100387Y0184014D01*
X0101031Y0184659D01*
X0101031Y0190294D01*
X0100669Y0190656D01*
X0115020Y0205007D01*
X0115677Y0204350D01*
X0117623Y0204350D01*
X0119000Y0205727D01*
X0119000Y0207673D01*
X0117623Y0209050D01*
X0115677Y0209050D01*
X0114927Y0208300D01*
X0113787Y0208300D01*
X0112850Y0207363D01*
X0097150Y0191663D01*
X0097150Y0190939D01*
X0097113Y0190939D01*
X0096469Y0190294D01*
X0096469Y0184659D01*
X0097113Y0184014D01*
X0096469Y0185234D02*
X0096031Y0185234D01*
X0096031Y0186232D02*
X0096469Y0186232D01*
X0096469Y0187231D02*
X0096031Y0187231D01*
X0096031Y0188229D02*
X0096469Y0188229D01*
X0096469Y0189228D02*
X0096031Y0189228D01*
X0096031Y0190226D02*
X0096469Y0190226D01*
X0097150Y0191225D02*
X0077950Y0191225D01*
X0077950Y0192223D02*
X0097710Y0192223D01*
X0098709Y0193222D02*
X0077950Y0193222D01*
X0076350Y0195240D02*
X0092990Y0195240D01*
X0098750Y0201000D01*
X0098750Y0204500D01*
X0106050Y0204500D01*
X0119550Y0218000D01*
X0121904Y0218000D01*
X0121550Y0217900D02*
X0121510Y0217940D01*
X0121510Y0227500D01*
X0119910Y0223447D02*
X0119910Y0221068D01*
X0119283Y0221068D01*
X0118638Y0220424D01*
X0118638Y0219351D01*
X0106431Y0207144D01*
X0106431Y0209433D01*
X0103841Y0209433D01*
X0103841Y0209614D01*
X0106431Y0209614D01*
X0106431Y0211400D01*
X0106813Y0211400D01*
X0107750Y0212337D01*
X0110647Y0215235D01*
X0114021Y0215235D01*
X0114665Y0215879D01*
X0114665Y0221121D01*
X0114021Y0221765D01*
X0109266Y0221765D01*
X0110735Y0223235D01*
X0114021Y0223235D01*
X0114665Y0223879D01*
X0114665Y0225911D01*
X0117851Y0229097D01*
X0117851Y0224092D01*
X0118495Y0223447D01*
X0119910Y0223447D01*
X0119910Y0223177D02*
X0110678Y0223177D01*
X0109679Y0222178D02*
X0119910Y0222178D01*
X0119910Y0221180D02*
X0114606Y0221180D01*
X0114665Y0220181D02*
X0118638Y0220181D01*
X0118470Y0219183D02*
X0114665Y0219183D01*
X0114665Y0218184D02*
X0117472Y0218184D01*
X0116473Y0217186D02*
X0114665Y0217186D01*
X0114665Y0216187D02*
X0115475Y0216187D01*
X0114476Y0215189D02*
X0110602Y0215189D01*
X0109603Y0214190D02*
X0113478Y0214190D01*
X0112479Y0213192D02*
X0108605Y0213192D01*
X0107606Y0212193D02*
X0111481Y0212193D01*
X0110482Y0211195D02*
X0106431Y0211195D01*
X0106431Y0210196D02*
X0109484Y0210196D01*
X0108485Y0209198D02*
X0106431Y0209198D01*
X0106431Y0208199D02*
X0107487Y0208199D01*
X0106488Y0207201D02*
X0106431Y0207201D01*
X0108018Y0204205D02*
X0109693Y0204205D01*
X0109016Y0205204D02*
X0110691Y0205204D01*
X0110015Y0206202D02*
X0111690Y0206202D01*
X0111013Y0207201D02*
X0112688Y0207201D01*
X0112012Y0208199D02*
X0113687Y0208199D01*
X0113011Y0209198D02*
X0125978Y0209198D01*
X0126976Y0210196D02*
X0114009Y0210196D01*
X0115008Y0211195D02*
X0127975Y0211195D01*
X0128973Y0212193D02*
X0116006Y0212193D01*
X0117005Y0213192D02*
X0129972Y0213192D01*
X0130971Y0214190D02*
X0118003Y0214190D01*
X0119002Y0215189D02*
X0119025Y0215189D01*
X0124782Y0215189D02*
X0125186Y0215189D01*
X0128112Y0215189D02*
X0129081Y0215189D01*
X0129081Y0216187D02*
X0128112Y0216187D01*
X0128112Y0217186D02*
X0129081Y0217186D01*
X0129081Y0218184D02*
X0134965Y0218184D01*
X0135963Y0219183D02*
X0132262Y0219183D01*
X0132258Y0220181D02*
X0136962Y0220181D01*
X0137960Y0221180D02*
X0131664Y0221180D01*
X0132176Y0223177D02*
X0139957Y0223177D01*
X0140150Y0224175D02*
X0133002Y0224175D01*
X0133049Y0225174D02*
X0140150Y0225174D01*
X0140150Y0226172D02*
X0133049Y0226172D01*
X0133049Y0228170D02*
X0140150Y0228170D01*
X0140150Y0229168D02*
X0133049Y0229168D01*
X0133049Y0230167D02*
X0140150Y0230167D01*
X0140150Y0227171D02*
X0129490Y0227171D01*
X0129490Y0226172D02*
X0128490Y0226172D01*
X0128490Y0225174D02*
X0129490Y0225174D01*
X0129490Y0224175D02*
X0128490Y0224175D01*
X0128490Y0223177D02*
X0129490Y0223177D01*
X0129081Y0221180D02*
X0128112Y0221180D01*
X0128112Y0220181D02*
X0129081Y0220181D01*
X0129081Y0219183D02*
X0128112Y0219183D01*
X0125529Y0221180D02*
X0123110Y0221180D01*
X0123110Y0222178D02*
X0138959Y0222178D01*
X0141903Y0219183D02*
X0151270Y0219183D01*
X0150272Y0218184D02*
X0140904Y0218184D01*
X0139906Y0217186D02*
X0149273Y0217186D01*
X0148275Y0216187D02*
X0138907Y0216187D01*
X0137909Y0215189D02*
X0147276Y0215189D01*
X0146278Y0214190D02*
X0136910Y0214190D01*
X0135912Y0213192D02*
X0145279Y0213192D01*
X0144281Y0212193D02*
X0134913Y0212193D01*
X0133915Y0211195D02*
X0143282Y0211195D01*
X0142284Y0210196D02*
X0132916Y0210196D01*
X0131918Y0209198D02*
X0141285Y0209198D01*
X0140287Y0208199D02*
X0130919Y0208199D01*
X0129921Y0207201D02*
X0139288Y0207201D01*
X0138290Y0206202D02*
X0128922Y0206202D01*
X0127924Y0205204D02*
X0137291Y0205204D01*
X0136293Y0204205D02*
X0126925Y0204205D01*
X0125927Y0203207D02*
X0135294Y0203207D01*
X0134295Y0202208D02*
X0124928Y0202208D01*
X0123930Y0201210D02*
X0133297Y0201210D01*
X0132298Y0200211D02*
X0122931Y0200211D01*
X0121933Y0199213D02*
X0131300Y0199213D01*
X0130301Y0198214D02*
X0121350Y0198214D01*
X0123050Y0195700D02*
X0123050Y0111700D01*
X0125640Y0109110D01*
X0137707Y0109110D01*
X0138207Y0115091D02*
X0145778Y0115091D01*
X0146160Y0115193D01*
X0146502Y0115390D01*
X0146781Y0115670D01*
X0146978Y0116012D01*
X0147081Y0116393D01*
X0147081Y0118453D01*
X0138207Y0118453D01*
X0138207Y0119453D01*
X0147081Y0119453D01*
X0147081Y0121512D01*
X0146978Y0121894D01*
X0146781Y0122236D01*
X0146502Y0122515D01*
X0146160Y0122713D01*
X0145778Y0122815D01*
X0138207Y0122815D01*
X0138207Y0119453D01*
X0137207Y0119453D01*
X0137207Y0122815D01*
X0129635Y0122815D01*
X0129254Y0122713D01*
X0128912Y0122515D01*
X0128632Y0122236D01*
X0128435Y0121894D01*
X0128333Y0121512D01*
X0128333Y0119453D01*
X0137207Y0119453D01*
X0137207Y0118453D01*
X0138207Y0118453D01*
X0138207Y0115091D01*
X0138207Y0115338D02*
X0137207Y0115338D01*
X0137207Y0115091D02*
X0129635Y0115091D01*
X0129254Y0115193D01*
X0128912Y0115390D01*
X0128632Y0115670D01*
X0128435Y0116012D01*
X0128333Y0116393D01*
X0128333Y0118453D01*
X0137207Y0118453D01*
X0137207Y0115091D01*
X0137207Y0116336D02*
X0138207Y0116336D01*
X0138207Y0117335D02*
X0137207Y0117335D01*
X0137207Y0118333D02*
X0138207Y0118333D01*
X0138207Y0119332D02*
X0238950Y0119332D01*
X0238950Y0120330D02*
X0147081Y0120330D01*
X0147081Y0121329D02*
X0238950Y0121329D01*
X0238950Y0122327D02*
X0146690Y0122327D01*
X0146681Y0126321D02*
X0238950Y0126321D01*
X0238950Y0125323D02*
X0124650Y0125323D01*
X0124650Y0126321D02*
X0128733Y0126321D01*
X0127167Y0127320D02*
X0124650Y0127320D01*
X0124650Y0128318D02*
X0126169Y0128318D01*
X0125170Y0129317D02*
X0124650Y0129317D01*
X0125250Y0131500D02*
X0125250Y0141500D01*
X0127250Y0143500D01*
X0146250Y0143500D01*
X0180150Y0177400D01*
X0180150Y0216600D01*
X0177750Y0219000D01*
X0177750Y0230100D01*
X0175350Y0230167D02*
X0175150Y0230167D01*
X0175150Y0231165D02*
X0175350Y0231165D01*
X0175350Y0232164D02*
X0175150Y0232164D01*
X0175150Y0233162D02*
X0175350Y0233162D01*
X0175350Y0234161D02*
X0175150Y0234161D01*
X0175150Y0234556D02*
X0174506Y0235200D01*
X0174350Y0235200D01*
X0174350Y0236163D01*
X0173413Y0237100D01*
X0172013Y0238500D01*
X0169703Y0238500D01*
X0169003Y0239200D01*
X0167097Y0239200D01*
X0165750Y0237853D01*
X0165750Y0235947D01*
X0166497Y0235200D01*
X0165994Y0235200D01*
X0165350Y0234556D01*
X0165350Y0225644D01*
X0165650Y0225344D01*
X0165650Y0223163D01*
X0154587Y0212100D01*
X0153650Y0211163D01*
X0153650Y0211000D01*
X0150994Y0211000D01*
X0150453Y0210459D01*
X0150448Y0210479D01*
X0150250Y0210821D01*
X0149971Y0211100D01*
X0149629Y0211298D01*
X0149247Y0211400D01*
X0148013Y0211400D01*
X0159250Y0222637D01*
X0159250Y0225000D01*
X0159506Y0225000D01*
X0160150Y0225644D01*
X0160150Y0234556D01*
X0159506Y0235200D01*
X0155994Y0235200D01*
X0155350Y0234556D01*
X0155350Y0225644D01*
X0155994Y0225000D01*
X0156050Y0225000D01*
X0156050Y0223963D01*
X0127387Y0195300D01*
X0126450Y0194363D01*
X0126450Y0174637D01*
X0129460Y0171628D01*
X0129377Y0171628D01*
X0128733Y0170983D01*
X0128733Y0165348D01*
X0129377Y0164703D01*
X0143990Y0164703D01*
X0141072Y0161785D01*
X0129377Y0161785D01*
X0128733Y0161141D01*
X0128733Y0155505D01*
X0129377Y0154861D01*
X0146036Y0154861D01*
X0146681Y0155505D01*
X0146681Y0161141D01*
X0146036Y0161785D01*
X0145598Y0161785D01*
X0156850Y0173037D01*
X0156850Y0200400D01*
X0157600Y0200400D01*
X0157600Y0205750D01*
X0157900Y0205750D01*
X0157900Y0200400D01*
X0159247Y0200400D01*
X0159629Y0200502D01*
X0159971Y0200700D01*
X0160250Y0200979D01*
X0160448Y0201321D01*
X0160453Y0201341D01*
X0160994Y0200800D01*
X0164506Y0200800D01*
X0165150Y0201444D01*
X0165150Y0210356D01*
X0164506Y0211000D01*
X0160994Y0211000D01*
X0160453Y0210459D01*
X0160448Y0210479D01*
X0160250Y0210821D01*
X0159971Y0211100D01*
X0159629Y0211298D01*
X0159247Y0211400D01*
X0158413Y0211400D01*
X0168850Y0221837D01*
X0168850Y0225000D01*
X0169506Y0225000D01*
X0170150Y0225644D01*
X0170150Y0234556D01*
X0169554Y0235151D01*
X0169703Y0235300D01*
X0170687Y0235300D01*
X0170891Y0235096D01*
X0170350Y0234556D01*
X0170350Y0225644D01*
X0170994Y0225000D01*
X0174506Y0225000D01*
X0175150Y0225644D01*
X0175150Y0234556D01*
X0174547Y0235159D02*
X0175953Y0235159D01*
X0174350Y0236158D02*
X0177782Y0236158D01*
X0176783Y0237156D02*
X0173357Y0237156D01*
X0172358Y0238155D02*
X0175785Y0238155D01*
X0174786Y0239153D02*
X0169050Y0239153D01*
X0167050Y0239153D02*
X0156198Y0239153D01*
X0155200Y0240152D02*
X0173788Y0240152D01*
X0172789Y0241150D02*
X0154201Y0241150D01*
X0153203Y0242149D02*
X0171791Y0242149D01*
X0170792Y0243147D02*
X0152204Y0243147D01*
X0151206Y0244146D02*
X0167020Y0244146D01*
X0166022Y0245144D02*
X0150207Y0245144D01*
X0152024Y0246143D02*
X0157976Y0246143D01*
X0156571Y0247141D02*
X0153429Y0247141D01*
X0154218Y0248140D02*
X0155782Y0248140D01*
X0155369Y0249138D02*
X0154631Y0249138D01*
X0154800Y0250137D02*
X0155200Y0250137D01*
X0155200Y0251135D02*
X0154800Y0251135D01*
X0154519Y0252134D02*
X0155481Y0252134D01*
X0155895Y0253132D02*
X0154105Y0253132D01*
X0153157Y0254131D02*
X0156843Y0254131D01*
X0158400Y0255129D02*
X0151367Y0255129D01*
X0148633Y0255129D02*
X0145950Y0255129D01*
X0145950Y0254131D02*
X0146843Y0254131D01*
X0145950Y0256128D02*
X0158400Y0256128D01*
X0158400Y0257126D02*
X0145950Y0257126D01*
X0145950Y0258125D02*
X0158400Y0258125D01*
X0158400Y0259123D02*
X0145859Y0259123D01*
X0144861Y0260122D02*
X0158400Y0260122D01*
X0158400Y0261120D02*
X0143862Y0261120D01*
X0142864Y0262119D02*
X0158400Y0262119D01*
X0158400Y0263117D02*
X0141865Y0263117D01*
X0140867Y0264116D02*
X0158400Y0264116D01*
X0158400Y0265114D02*
X0139868Y0265114D01*
X0138870Y0266113D02*
X0158400Y0266113D01*
X0158400Y0267111D02*
X0137871Y0267111D01*
X0136873Y0268110D02*
X0158400Y0268110D01*
X0158400Y0269108D02*
X0135874Y0269108D01*
X0134876Y0270107D02*
X0158400Y0270107D01*
X0158400Y0271105D02*
X0133877Y0271105D01*
X0132879Y0272104D02*
X0158400Y0272104D01*
X0158400Y0273103D02*
X0131880Y0273103D01*
X0130882Y0274101D02*
X0158063Y0274101D01*
X0157065Y0275100D02*
X0129883Y0275100D01*
X0128885Y0276098D02*
X0156066Y0276098D01*
X0155068Y0277097D02*
X0127886Y0277097D01*
X0126887Y0278095D02*
X0154069Y0278095D01*
X0153071Y0279094D02*
X0125889Y0279094D01*
X0124890Y0280092D02*
X0152072Y0280092D01*
X0151074Y0281091D02*
X0123892Y0281091D01*
X0122893Y0282089D02*
X0150075Y0282089D01*
X0149077Y0283088D02*
X0121895Y0283088D01*
X0120896Y0284086D02*
X0148078Y0284086D01*
X0147080Y0285085D02*
X0119898Y0285085D01*
X0118899Y0286083D02*
X0146081Y0286083D01*
X0145083Y0287082D02*
X0117901Y0287082D01*
X0116902Y0288080D02*
X0144084Y0288080D01*
X0143086Y0289079D02*
X0115904Y0289079D01*
X0114905Y0290077D02*
X0142087Y0290077D01*
X0141089Y0291076D02*
X0113907Y0291076D01*
X0113068Y0292074D02*
X0140090Y0292074D01*
X0139092Y0293073D02*
X0113068Y0293073D01*
X0113068Y0294071D02*
X0138093Y0294071D01*
X0137095Y0295070D02*
X0113068Y0295070D01*
X0113068Y0296068D02*
X0117520Y0296068D01*
X0117259Y0296176D02*
X0119133Y0295400D01*
X0121162Y0295400D01*
X0123037Y0296176D01*
X0124471Y0297611D01*
X0125248Y0299486D01*
X0125248Y0301514D01*
X0124471Y0303389D01*
X0123037Y0304824D01*
X0121162Y0305600D01*
X0119133Y0305600D01*
X0117259Y0304824D01*
X0115824Y0303389D01*
X0115048Y0301514D01*
X0115048Y0299486D01*
X0115824Y0297611D01*
X0117259Y0296176D01*
X0116368Y0297067D02*
X0113068Y0297067D01*
X0113068Y0298065D02*
X0115636Y0298065D01*
X0115222Y0299064D02*
X0113068Y0299064D01*
X0113068Y0300062D02*
X0115048Y0300062D01*
X0115048Y0301061D02*
X0113068Y0301061D01*
X0113068Y0302059D02*
X0115273Y0302059D01*
X0115687Y0303058D02*
X0113068Y0303058D01*
X0112287Y0304056D02*
X0116492Y0304056D01*
X0117817Y0305055D02*
X0111288Y0305055D01*
X0111818Y0306053D02*
X0110290Y0306053D01*
X0110861Y0307052D02*
X0109291Y0307052D01*
X0108481Y0305600D02*
X0111468Y0302613D01*
X0111468Y0291252D01*
X0144350Y0258370D01*
X0144350Y0248739D01*
X0156089Y0237000D01*
X0160750Y0237000D01*
X0162750Y0235000D01*
X0162750Y0230100D01*
X0165150Y0230167D02*
X0165350Y0230167D01*
X0165350Y0231165D02*
X0165150Y0231165D01*
X0165150Y0232164D02*
X0165350Y0232164D01*
X0165350Y0233162D02*
X0165150Y0233162D01*
X0165150Y0234161D02*
X0165350Y0234161D01*
X0165953Y0235159D02*
X0164547Y0235159D01*
X0163855Y0236158D02*
X0165750Y0236158D01*
X0165750Y0237156D02*
X0162857Y0237156D01*
X0161858Y0238155D02*
X0166052Y0238155D01*
X0168050Y0236900D02*
X0171350Y0236900D01*
X0172750Y0235500D01*
X0172750Y0230100D01*
X0170350Y0230167D02*
X0170150Y0230167D01*
X0170150Y0231165D02*
X0170350Y0231165D01*
X0170350Y0232164D02*
X0170150Y0232164D01*
X0170150Y0233162D02*
X0170350Y0233162D01*
X0170350Y0234161D02*
X0170150Y0234161D01*
X0169562Y0235159D02*
X0170828Y0235159D01*
X0170350Y0229168D02*
X0170150Y0229168D01*
X0170150Y0228170D02*
X0170350Y0228170D01*
X0170350Y0227171D02*
X0170150Y0227171D01*
X0170150Y0226172D02*
X0170350Y0226172D01*
X0170820Y0225174D02*
X0169680Y0225174D01*
X0168850Y0224175D02*
X0176150Y0224175D01*
X0176150Y0223177D02*
X0168850Y0223177D01*
X0168850Y0222178D02*
X0176150Y0222178D01*
X0176150Y0221180D02*
X0168193Y0221180D01*
X0167194Y0220181D02*
X0176150Y0220181D01*
X0176150Y0219183D02*
X0166196Y0219183D01*
X0165197Y0218184D02*
X0176303Y0218184D01*
X0177301Y0217186D02*
X0164199Y0217186D01*
X0163200Y0216187D02*
X0178300Y0216187D01*
X0178550Y0215189D02*
X0162202Y0215189D01*
X0161203Y0214190D02*
X0178550Y0214190D01*
X0178550Y0213192D02*
X0160205Y0213192D01*
X0159206Y0212193D02*
X0178550Y0212193D01*
X0178550Y0211195D02*
X0174807Y0211195D01*
X0172900Y0211195D02*
X0172600Y0211195D01*
X0172600Y0210196D02*
X0172900Y0210196D01*
X0172900Y0209198D02*
X0172600Y0209198D01*
X0172600Y0208199D02*
X0172900Y0208199D01*
X0172900Y0207201D02*
X0172600Y0207201D01*
X0172600Y0206202D02*
X0172900Y0206202D01*
X0172900Y0205204D02*
X0172600Y0205204D01*
X0172600Y0204205D02*
X0172900Y0204205D01*
X0172900Y0203207D02*
X0172600Y0203207D01*
X0172600Y0202208D02*
X0172900Y0202208D01*
X0172900Y0201210D02*
X0172600Y0201210D01*
X0170116Y0201210D02*
X0169915Y0201210D01*
X0165585Y0201210D02*
X0164915Y0201210D01*
X0165150Y0202208D02*
X0165350Y0202208D01*
X0165350Y0203207D02*
X0165150Y0203207D01*
X0165150Y0204205D02*
X0165350Y0204205D01*
X0165350Y0205204D02*
X0165150Y0205204D01*
X0165150Y0206202D02*
X0165350Y0206202D01*
X0165350Y0207201D02*
X0165150Y0207201D01*
X0165150Y0208199D02*
X0165350Y0208199D01*
X0165350Y0209198D02*
X0165150Y0209198D01*
X0165150Y0210196D02*
X0165350Y0210196D01*
X0170693Y0211195D02*
X0159807Y0211195D01*
X0156678Y0214190D02*
X0150803Y0214190D01*
X0149805Y0213192D02*
X0155679Y0213192D01*
X0154681Y0212193D02*
X0148806Y0212193D01*
X0149807Y0211195D02*
X0153682Y0211195D01*
X0155250Y0210500D02*
X0155250Y0173700D01*
X0140050Y0158500D01*
X0138450Y0158500D01*
X0141555Y0162268D02*
X0124650Y0162268D01*
X0124650Y0163266D02*
X0142554Y0163266D01*
X0143552Y0164265D02*
X0124650Y0164265D01*
X0124650Y0165263D02*
X0128817Y0165263D01*
X0128733Y0166262D02*
X0124650Y0166262D01*
X0124650Y0167260D02*
X0128733Y0167260D01*
X0128733Y0168259D02*
X0124650Y0168259D01*
X0124650Y0169257D02*
X0128733Y0169257D01*
X0128733Y0170256D02*
X0124650Y0170256D01*
X0124650Y0171254D02*
X0129004Y0171254D01*
X0128834Y0172253D02*
X0124650Y0172253D01*
X0124650Y0173251D02*
X0127836Y0173251D01*
X0126837Y0174250D02*
X0124650Y0174250D01*
X0124650Y0175248D02*
X0126450Y0175248D01*
X0126450Y0176247D02*
X0124650Y0176247D01*
X0124650Y0177245D02*
X0126450Y0177245D01*
X0126450Y0178244D02*
X0124650Y0178244D01*
X0124650Y0179242D02*
X0126450Y0179242D01*
X0126450Y0180241D02*
X0124650Y0180241D01*
X0124650Y0181239D02*
X0126450Y0181239D01*
X0126450Y0182238D02*
X0124650Y0182238D01*
X0124650Y0183237D02*
X0126450Y0183237D01*
X0126450Y0184235D02*
X0124650Y0184235D01*
X0124650Y0185234D02*
X0126450Y0185234D01*
X0126450Y0186232D02*
X0124650Y0186232D01*
X0124650Y0187231D02*
X0126450Y0187231D01*
X0126450Y0188229D02*
X0124650Y0188229D01*
X0124650Y0189228D02*
X0126450Y0189228D01*
X0126450Y0190226D02*
X0124650Y0190226D01*
X0124650Y0191225D02*
X0126450Y0191225D01*
X0126450Y0192223D02*
X0124650Y0192223D01*
X0124650Y0193222D02*
X0126450Y0193222D01*
X0126450Y0194220D02*
X0124823Y0194220D01*
X0125350Y0195219D02*
X0127306Y0195219D01*
X0128304Y0196217D02*
X0125350Y0196217D01*
X0124787Y0197216D02*
X0129303Y0197216D01*
X0131831Y0195219D02*
X0153650Y0195219D01*
X0153650Y0196217D02*
X0132830Y0196217D01*
X0133828Y0197216D02*
X0153650Y0197216D01*
X0153650Y0198214D02*
X0134827Y0198214D01*
X0135825Y0199213D02*
X0153650Y0199213D01*
X0153650Y0200211D02*
X0136824Y0200211D01*
X0137822Y0201210D02*
X0145116Y0201210D01*
X0145052Y0201321D02*
X0145250Y0200979D01*
X0145529Y0200700D01*
X0145871Y0200502D01*
X0146253Y0200400D01*
X0147600Y0200400D01*
X0147600Y0205750D01*
X0147900Y0205750D01*
X0147900Y0200400D01*
X0149247Y0200400D01*
X0149629Y0200502D01*
X0149971Y0200700D01*
X0150250Y0200979D01*
X0150448Y0201321D01*
X0150453Y0201341D01*
X0150994Y0200800D01*
X0153650Y0200800D01*
X0153650Y0181552D01*
X0152435Y0182767D01*
X0151805Y0183028D01*
X0151805Y0186563D01*
X0145293Y0186563D01*
X0145293Y0181626D01*
X0145459Y0181626D01*
X0145304Y0181470D01*
X0129650Y0181470D01*
X0129650Y0193037D01*
X0144950Y0208337D01*
X0144950Y0206050D01*
X0147600Y0206050D01*
X0147600Y0205750D01*
X0144950Y0205750D01*
X0144950Y0201703D01*
X0145052Y0201321D01*
X0144950Y0202208D02*
X0138821Y0202208D01*
X0139819Y0203207D02*
X0144950Y0203207D01*
X0144950Y0204205D02*
X0140818Y0204205D01*
X0141816Y0205204D02*
X0144950Y0205204D01*
X0144950Y0206202D02*
X0142815Y0206202D01*
X0143813Y0207201D02*
X0144950Y0207201D01*
X0144950Y0208199D02*
X0144812Y0208199D01*
X0147600Y0205204D02*
X0147900Y0205204D01*
X0147900Y0204205D02*
X0147600Y0204205D01*
X0147600Y0203207D02*
X0147900Y0203207D01*
X0147900Y0202208D02*
X0147600Y0202208D01*
X0147600Y0201210D02*
X0147900Y0201210D01*
X0150383Y0201210D02*
X0150585Y0201210D01*
X0153650Y0194220D02*
X0130833Y0194220D01*
X0129834Y0193222D02*
X0153650Y0193222D01*
X0153650Y0192223D02*
X0151187Y0192223D01*
X0151226Y0192200D02*
X0150884Y0192398D01*
X0150503Y0192500D01*
X0145293Y0192500D01*
X0145293Y0187563D01*
X0144293Y0187563D01*
X0144293Y0186563D01*
X0137781Y0186563D01*
X0137781Y0182928D01*
X0137884Y0182547D01*
X0138081Y0182205D01*
X0138360Y0181926D01*
X0138703Y0181728D01*
X0139084Y0181626D01*
X0144293Y0181626D01*
X0144293Y0186563D01*
X0145293Y0186563D01*
X0145293Y0187563D01*
X0151805Y0187563D01*
X0151805Y0191197D01*
X0151703Y0191579D01*
X0151505Y0191921D01*
X0151226Y0192200D01*
X0151798Y0191225D02*
X0153650Y0191225D01*
X0153650Y0190226D02*
X0151805Y0190226D01*
X0151805Y0189228D02*
X0153650Y0189228D01*
X0153650Y0188229D02*
X0151805Y0188229D01*
X0151805Y0186232D02*
X0153650Y0186232D01*
X0153650Y0185234D02*
X0151805Y0185234D01*
X0151805Y0184235D02*
X0153650Y0184235D01*
X0153650Y0183237D02*
X0151805Y0183237D01*
X0152964Y0182238D02*
X0153650Y0182238D01*
X0156850Y0182238D02*
X0178550Y0182238D01*
X0178550Y0183237D02*
X0156850Y0183237D01*
X0156850Y0184235D02*
X0178550Y0184235D01*
X0178550Y0185234D02*
X0156850Y0185234D01*
X0156850Y0186232D02*
X0178550Y0186232D01*
X0178550Y0187231D02*
X0156850Y0187231D01*
X0156850Y0188229D02*
X0178550Y0188229D01*
X0178550Y0189228D02*
X0156850Y0189228D01*
X0156850Y0190226D02*
X0178550Y0190226D01*
X0178550Y0191225D02*
X0156850Y0191225D01*
X0156850Y0192223D02*
X0178550Y0192223D01*
X0178550Y0193222D02*
X0156850Y0193222D01*
X0156850Y0194220D02*
X0178550Y0194220D01*
X0178550Y0195219D02*
X0156850Y0195219D01*
X0156850Y0196217D02*
X0178550Y0196217D01*
X0178550Y0197216D02*
X0156850Y0197216D01*
X0156850Y0198214D02*
X0178550Y0198214D01*
X0178550Y0199213D02*
X0156850Y0199213D01*
X0156850Y0200211D02*
X0178550Y0200211D01*
X0175585Y0201210D02*
X0175383Y0201210D01*
X0184859Y0213192D02*
X0201441Y0213192D01*
X0201441Y0212193D02*
X0185858Y0212193D01*
X0186856Y0211195D02*
X0201441Y0211195D01*
X0201441Y0210196D02*
X0186950Y0210196D01*
X0186950Y0209198D02*
X0201441Y0209198D01*
X0201441Y0208199D02*
X0186950Y0208199D01*
X0186950Y0207201D02*
X0201860Y0207201D01*
X0205181Y0205381D02*
X0205181Y0198958D01*
X0205826Y0198313D01*
X0210674Y0198313D01*
X0211318Y0198958D01*
X0211318Y0200469D01*
X0213623Y0200469D01*
X0226600Y0213446D01*
X0226600Y0261417D01*
X0225604Y0262413D01*
X0220438Y0267579D01*
X0220438Y0285164D01*
X0220793Y0285164D01*
X0221438Y0285808D01*
X0221438Y0290853D01*
X0220793Y0291498D01*
X0220438Y0291498D01*
X0220438Y0301502D01*
X0220793Y0301502D01*
X0221438Y0302147D01*
X0221438Y0307192D01*
X0220793Y0307836D01*
X0216683Y0307836D01*
X0216039Y0307192D01*
X0216039Y0302147D01*
X0216683Y0301502D01*
X0217038Y0301502D01*
X0217038Y0291498D01*
X0216683Y0291498D01*
X0216039Y0290853D01*
X0216039Y0285808D01*
X0216683Y0285164D01*
X0217038Y0285164D01*
X0217038Y0267475D01*
X0190645Y0293867D01*
X0190645Y0295643D01*
X0191934Y0296176D01*
X0193369Y0297611D01*
X0194145Y0299486D01*
X0194145Y0301514D01*
X0193369Y0303389D01*
X0191934Y0304824D01*
X0190060Y0305600D01*
X0188031Y0305600D01*
X0186156Y0304824D01*
X0184722Y0303389D01*
X0183945Y0301514D01*
X0183945Y0299486D01*
X0184722Y0297611D01*
X0186156Y0296176D01*
X0187445Y0295643D01*
X0187445Y0292542D01*
X0218400Y0261587D01*
X0218400Y0255033D01*
X0217281Y0254569D01*
X0215931Y0253219D01*
X0215200Y0251455D01*
X0215200Y0249545D01*
X0215931Y0247781D01*
X0217281Y0246431D01*
X0219045Y0245700D01*
X0220955Y0245700D01*
X0222719Y0246431D01*
X0223200Y0246912D01*
X0223200Y0231256D01*
X0221155Y0231256D01*
X0221155Y0227500D01*
X0220156Y0227500D01*
X0220156Y0231256D01*
X0218096Y0231256D01*
X0217714Y0231154D01*
X0217372Y0230956D01*
X0217093Y0230677D01*
X0216896Y0230335D01*
X0216793Y0229953D01*
X0216793Y0227500D01*
X0220155Y0227500D01*
X0220155Y0226500D01*
X0216793Y0226500D01*
X0216793Y0224047D01*
X0216896Y0223665D01*
X0217093Y0223323D01*
X0217372Y0223044D01*
X0217714Y0222846D01*
X0218096Y0222744D01*
X0220156Y0222744D01*
X0220156Y0226500D01*
X0221155Y0226500D01*
X0221155Y0222744D01*
X0223200Y0222744D01*
X0223200Y0214854D01*
X0212215Y0203869D01*
X0211318Y0203869D01*
X0211318Y0205381D01*
X0210674Y0206025D01*
X0205826Y0206025D01*
X0205181Y0205381D01*
X0205181Y0205204D02*
X0186950Y0205204D01*
X0186950Y0206202D02*
X0214548Y0206202D01*
X0214640Y0207201D02*
X0215547Y0207201D01*
X0215059Y0208199D02*
X0216545Y0208199D01*
X0217544Y0209198D02*
X0215059Y0209198D01*
X0215059Y0210196D02*
X0218542Y0210196D01*
X0219541Y0211195D02*
X0215059Y0211195D01*
X0215059Y0212193D02*
X0220539Y0212193D01*
X0221538Y0213192D02*
X0215059Y0213192D01*
X0214911Y0214190D02*
X0222536Y0214190D01*
X0223200Y0215189D02*
X0213650Y0215189D01*
X0213650Y0216187D02*
X0223200Y0216187D01*
X0223200Y0217186D02*
X0213650Y0217186D01*
X0213650Y0218184D02*
X0223200Y0218184D01*
X0223200Y0219183D02*
X0213650Y0219183D01*
X0213650Y0220181D02*
X0223200Y0220181D01*
X0223200Y0221180D02*
X0213650Y0221180D01*
X0213650Y0222178D02*
X0223200Y0222178D01*
X0221155Y0223177D02*
X0220156Y0223177D01*
X0220156Y0224175D02*
X0221155Y0224175D01*
X0221155Y0225174D02*
X0220156Y0225174D01*
X0220156Y0226172D02*
X0221155Y0226172D01*
X0220155Y0227171D02*
X0214450Y0227171D01*
X0214450Y0228170D02*
X0216793Y0228170D01*
X0216793Y0229168D02*
X0214450Y0229168D01*
X0214450Y0230167D02*
X0216850Y0230167D01*
X0217757Y0231165D02*
X0214450Y0231165D01*
X0214450Y0232164D02*
X0223200Y0232164D01*
X0223200Y0233162D02*
X0214450Y0233162D01*
X0214450Y0234161D02*
X0223200Y0234161D01*
X0223200Y0235159D02*
X0214450Y0235159D01*
X0214450Y0236158D02*
X0223200Y0236158D01*
X0223200Y0237156D02*
X0214450Y0237156D01*
X0214450Y0238155D02*
X0223200Y0238155D01*
X0223200Y0239153D02*
X0213660Y0239153D01*
X0212661Y0240152D02*
X0223200Y0240152D01*
X0223200Y0241150D02*
X0211663Y0241150D01*
X0210664Y0242149D02*
X0223200Y0242149D01*
X0223200Y0243147D02*
X0209666Y0243147D01*
X0208667Y0244146D02*
X0223200Y0244146D01*
X0223200Y0245144D02*
X0207669Y0245144D01*
X0207976Y0246143D02*
X0206670Y0246143D01*
X0207281Y0246431D02*
X0209045Y0245700D01*
X0210955Y0245700D01*
X0212719Y0246431D01*
X0214069Y0247781D01*
X0214800Y0249545D01*
X0214800Y0251455D01*
X0214069Y0253219D01*
X0212719Y0254569D01*
X0210955Y0255300D01*
X0209045Y0255300D01*
X0207281Y0254569D01*
X0205931Y0253219D01*
X0205200Y0251455D01*
X0205200Y0249545D01*
X0205931Y0247781D01*
X0207281Y0246431D01*
X0206571Y0247141D02*
X0205671Y0247141D01*
X0205782Y0248140D02*
X0204673Y0248140D01*
X0204631Y0249138D02*
X0205369Y0249138D01*
X0205200Y0250137D02*
X0204800Y0250137D01*
X0204800Y0251135D02*
X0205200Y0251135D01*
X0205481Y0252134D02*
X0204519Y0252134D01*
X0204105Y0253132D02*
X0205895Y0253132D01*
X0206843Y0254131D02*
X0203157Y0254131D01*
X0201367Y0255129D02*
X0208633Y0255129D01*
X0211367Y0255129D02*
X0218400Y0255129D01*
X0218400Y0256128D02*
X0191600Y0256128D01*
X0191600Y0257126D02*
X0218400Y0257126D01*
X0218400Y0258125D02*
X0191600Y0258125D01*
X0191600Y0259123D02*
X0218400Y0259123D01*
X0218400Y0260122D02*
X0191600Y0260122D01*
X0191600Y0261120D02*
X0218400Y0261120D01*
X0217868Y0262119D02*
X0191600Y0262119D01*
X0191600Y0263117D02*
X0216870Y0263117D01*
X0215871Y0264116D02*
X0191600Y0264116D01*
X0191600Y0265114D02*
X0214873Y0265114D01*
X0213874Y0266113D02*
X0191600Y0266113D01*
X0191600Y0267111D02*
X0212876Y0267111D01*
X0211877Y0268110D02*
X0191600Y0268110D01*
X0191600Y0269108D02*
X0210879Y0269108D01*
X0209880Y0270107D02*
X0191600Y0270107D01*
X0191600Y0271105D02*
X0208882Y0271105D01*
X0207883Y0272104D02*
X0191600Y0272104D01*
X0191600Y0273103D02*
X0206885Y0273103D01*
X0205886Y0274101D02*
X0191600Y0274101D01*
X0191600Y0275100D02*
X0204888Y0275100D01*
X0203889Y0276098D02*
X0191600Y0276098D01*
X0191600Y0277097D02*
X0202891Y0277097D01*
X0201892Y0278095D02*
X0191600Y0278095D01*
X0191600Y0279094D02*
X0200894Y0279094D01*
X0199895Y0280092D02*
X0191600Y0280092D01*
X0191600Y0281091D02*
X0198897Y0281091D01*
X0197898Y0282089D02*
X0191600Y0282089D01*
X0191600Y0283088D02*
X0196900Y0283088D01*
X0195901Y0284086D02*
X0191600Y0284086D01*
X0191600Y0285085D02*
X0194903Y0285085D01*
X0193904Y0286083D02*
X0191600Y0286083D01*
X0191600Y0286428D02*
X0190663Y0287366D01*
X0179832Y0298197D01*
X0180366Y0299486D01*
X0180366Y0301514D01*
X0179589Y0303389D01*
X0178155Y0304824D01*
X0176280Y0305600D01*
X0174251Y0305600D01*
X0172377Y0304824D01*
X0170942Y0303389D01*
X0170166Y0301514D01*
X0170166Y0299486D01*
X0170942Y0297611D01*
X0172377Y0296176D01*
X0174251Y0295400D01*
X0176280Y0295400D01*
X0177569Y0295934D01*
X0188400Y0285103D01*
X0188400Y0255033D01*
X0187281Y0254569D01*
X0185931Y0253219D01*
X0185200Y0251455D01*
X0185200Y0249545D01*
X0185931Y0247781D01*
X0187281Y0246431D01*
X0189045Y0245700D01*
X0190955Y0245700D01*
X0192719Y0246431D01*
X0194069Y0247781D01*
X0194800Y0249545D01*
X0194800Y0251455D01*
X0194069Y0253219D01*
X0192719Y0254569D01*
X0191600Y0255033D01*
X0191600Y0286428D01*
X0190947Y0287082D02*
X0192906Y0287082D01*
X0191907Y0288080D02*
X0189948Y0288080D01*
X0190909Y0289079D02*
X0188950Y0289079D01*
X0189910Y0290077D02*
X0187951Y0290077D01*
X0188912Y0291076D02*
X0186953Y0291076D01*
X0187913Y0292074D02*
X0185954Y0292074D01*
X0184956Y0293073D02*
X0187445Y0293073D01*
X0187445Y0294071D02*
X0183957Y0294071D01*
X0182959Y0295070D02*
X0187445Y0295070D01*
X0186417Y0296068D02*
X0181960Y0296068D01*
X0180962Y0297067D02*
X0185266Y0297067D01*
X0184534Y0298065D02*
X0179963Y0298065D01*
X0180191Y0299064D02*
X0184120Y0299064D01*
X0183945Y0300062D02*
X0180366Y0300062D01*
X0180366Y0301061D02*
X0183945Y0301061D01*
X0184171Y0302059D02*
X0180140Y0302059D01*
X0179726Y0303058D02*
X0184585Y0303058D01*
X0185389Y0304056D02*
X0178922Y0304056D01*
X0177596Y0305055D02*
X0186715Y0305055D01*
X0189045Y0300500D02*
X0189045Y0293205D01*
X0220000Y0262250D01*
X0220000Y0250500D01*
X0216571Y0247141D02*
X0213429Y0247141D01*
X0214218Y0248140D02*
X0215782Y0248140D01*
X0215369Y0249138D02*
X0214631Y0249138D01*
X0214800Y0250137D02*
X0215200Y0250137D01*
X0215200Y0251135D02*
X0214800Y0251135D01*
X0214519Y0252134D02*
X0215481Y0252134D01*
X0215895Y0253132D02*
X0214105Y0253132D01*
X0213157Y0254131D02*
X0216843Y0254131D01*
X0217976Y0246143D02*
X0212024Y0246143D01*
X0207137Y0241150D02*
X0187663Y0241150D01*
X0188661Y0240152D02*
X0208136Y0240152D01*
X0209134Y0239153D02*
X0189660Y0239153D01*
X0190658Y0238155D02*
X0210133Y0238155D01*
X0211131Y0237156D02*
X0191657Y0237156D01*
X0192655Y0236158D02*
X0211250Y0236158D01*
X0211250Y0235159D02*
X0193654Y0235159D01*
X0194652Y0234161D02*
X0211250Y0234161D01*
X0211250Y0233162D02*
X0195651Y0233162D01*
X0196649Y0232164D02*
X0211250Y0232164D01*
X0211250Y0231165D02*
X0197648Y0231165D01*
X0196850Y0229700D02*
X0180850Y0245700D01*
X0178012Y0245700D01*
X0173212Y0250500D01*
X0170000Y0250500D01*
X0165023Y0246143D02*
X0162024Y0246143D01*
X0163429Y0247141D02*
X0164025Y0247141D01*
X0160000Y0250500D02*
X0160000Y0274427D01*
X0133927Y0300500D01*
X0137583Y0304056D02*
X0144051Y0304056D01*
X0143246Y0303058D02*
X0138388Y0303058D01*
X0138801Y0302059D02*
X0142832Y0302059D01*
X0142607Y0301061D02*
X0139027Y0301061D01*
X0139027Y0300062D02*
X0142607Y0300062D01*
X0142781Y0299064D02*
X0138852Y0299064D01*
X0138625Y0298065D02*
X0143195Y0298065D01*
X0143927Y0297067D02*
X0139623Y0297067D01*
X0140622Y0296068D02*
X0145079Y0296068D01*
X0142619Y0294071D02*
X0151731Y0294071D01*
X0150733Y0295070D02*
X0141620Y0295070D01*
X0143617Y0293073D02*
X0152730Y0293073D01*
X0153728Y0292074D02*
X0144616Y0292074D01*
X0145614Y0291076D02*
X0154727Y0291076D01*
X0155725Y0290077D02*
X0146613Y0290077D01*
X0147611Y0289079D02*
X0156724Y0289079D01*
X0157722Y0288080D02*
X0148610Y0288080D01*
X0149608Y0287082D02*
X0158721Y0287082D01*
X0159719Y0286083D02*
X0150607Y0286083D01*
X0151605Y0285085D02*
X0160718Y0285085D01*
X0161716Y0284086D02*
X0152604Y0284086D01*
X0153602Y0283088D02*
X0162715Y0283088D01*
X0163400Y0282089D02*
X0154601Y0282089D01*
X0155599Y0281091D02*
X0163400Y0281091D01*
X0163400Y0280092D02*
X0156598Y0280092D01*
X0157596Y0279094D02*
X0163400Y0279094D01*
X0163400Y0278095D02*
X0158595Y0278095D01*
X0159593Y0277097D02*
X0163400Y0277097D01*
X0163400Y0276098D02*
X0160592Y0276098D01*
X0161590Y0275100D02*
X0163400Y0275100D01*
X0163400Y0274101D02*
X0161600Y0274101D01*
X0161600Y0273103D02*
X0163400Y0273103D01*
X0163400Y0272104D02*
X0161600Y0272104D01*
X0161600Y0271105D02*
X0163400Y0271105D01*
X0163400Y0270107D02*
X0161600Y0270107D01*
X0161600Y0269108D02*
X0163400Y0269108D01*
X0163400Y0268110D02*
X0161600Y0268110D01*
X0161600Y0267111D02*
X0163400Y0267111D01*
X0163400Y0266113D02*
X0161600Y0266113D01*
X0161600Y0265114D02*
X0163400Y0265114D01*
X0163400Y0264116D02*
X0161600Y0264116D01*
X0161600Y0263117D02*
X0163400Y0263117D01*
X0163400Y0262119D02*
X0161600Y0262119D01*
X0161600Y0261120D02*
X0163400Y0261120D01*
X0163400Y0260122D02*
X0161600Y0260122D01*
X0161600Y0259123D02*
X0163400Y0259123D01*
X0163400Y0258125D02*
X0161600Y0258125D01*
X0161600Y0257126D02*
X0163400Y0257126D01*
X0163400Y0256128D02*
X0161600Y0256128D01*
X0161600Y0255129D02*
X0163400Y0255129D01*
X0163400Y0254131D02*
X0163157Y0254131D01*
X0166800Y0263700D02*
X0180000Y0250500D01*
X0183157Y0254131D02*
X0186843Y0254131D01*
X0185895Y0253132D02*
X0184105Y0253132D01*
X0184519Y0252134D02*
X0185481Y0252134D01*
X0185200Y0251135D02*
X0184800Y0251135D01*
X0184800Y0250137D02*
X0185200Y0250137D01*
X0185369Y0249138D02*
X0184631Y0249138D01*
X0184218Y0248140D02*
X0185782Y0248140D01*
X0186571Y0247141D02*
X0183429Y0247141D01*
X0182670Y0246143D02*
X0187976Y0246143D01*
X0185666Y0243147D02*
X0205140Y0243147D01*
X0206139Y0242149D02*
X0186664Y0242149D01*
X0184667Y0244146D02*
X0204142Y0244146D01*
X0203143Y0245144D02*
X0183669Y0245144D01*
X0190000Y0250500D02*
X0190000Y0285766D01*
X0175266Y0300500D01*
X0171610Y0304056D02*
X0166986Y0304056D01*
X0166986Y0304697D02*
X0166884Y0305079D01*
X0166687Y0305421D01*
X0166407Y0305700D01*
X0166065Y0305898D01*
X0165684Y0306000D01*
X0161986Y0306000D01*
X0161986Y0301000D01*
X0160986Y0301000D01*
X0160986Y0300000D01*
X0161986Y0300000D01*
X0161986Y0295000D01*
X0165684Y0295000D01*
X0166065Y0295102D01*
X0166407Y0295300D01*
X0166687Y0295579D01*
X0166884Y0295921D01*
X0166986Y0296303D01*
X0166986Y0300000D01*
X0161986Y0300000D01*
X0161986Y0301000D01*
X0166986Y0301000D01*
X0166986Y0304697D01*
X0166890Y0305055D02*
X0172935Y0305055D01*
X0170805Y0303058D02*
X0166986Y0303058D01*
X0166986Y0302059D02*
X0170391Y0302059D01*
X0170166Y0301061D02*
X0166986Y0301061D01*
X0166986Y0299064D02*
X0170340Y0299064D01*
X0170166Y0300062D02*
X0161986Y0300062D01*
X0161986Y0299064D02*
X0160986Y0299064D01*
X0160986Y0300062D02*
X0154407Y0300062D01*
X0154407Y0299064D02*
X0155986Y0299064D01*
X0155986Y0298065D02*
X0154808Y0298065D01*
X0155807Y0297067D02*
X0155986Y0297067D01*
X0152807Y0297804D02*
X0152807Y0302613D01*
X0147419Y0308000D01*
X0113250Y0308000D01*
X0110861Y0308050D02*
X0034556Y0308050D01*
X0034588Y0308148D02*
X0036273Y0310467D01*
X0038592Y0312152D01*
X0041318Y0313038D01*
X0042752Y0313151D01*
X0226459Y0313151D01*
X0228089Y0313044D01*
X0231239Y0312200D01*
X0234063Y0310570D01*
X0236369Y0308264D01*
X0237999Y0305440D01*
X0238843Y0302290D01*
X0238950Y0300660D01*
X0238950Y0021705D01*
X0238950Y0020752D01*
X0238848Y0019192D01*
X0238040Y0016178D01*
X0236480Y0013476D01*
X0234274Y0011270D01*
X0231572Y0009710D01*
X0228558Y0008902D01*
X0226998Y0008800D01*
X0042500Y0008800D01*
X0041106Y0008910D01*
X0038455Y0009771D01*
X0036199Y0011410D01*
X0034561Y0013665D01*
X0033699Y0016317D01*
X0033589Y0017711D01*
X0033589Y0303989D01*
X0033702Y0305422D01*
X0034588Y0308148D01*
X0035242Y0309049D02*
X0110920Y0309049D01*
X0111919Y0310047D02*
X0035968Y0310047D01*
X0037069Y0311046D02*
X0233238Y0311046D01*
X0234585Y0310047D02*
X0114581Y0310047D01*
X0114682Y0306053D02*
X0147103Y0306053D01*
X0145376Y0305055D02*
X0136258Y0305055D01*
X0131597Y0305055D02*
X0122478Y0305055D01*
X0123804Y0304056D02*
X0130271Y0304056D01*
X0129466Y0303058D02*
X0124608Y0303058D01*
X0125022Y0302059D02*
X0129053Y0302059D01*
X0128827Y0301061D02*
X0125248Y0301061D01*
X0125248Y0300062D02*
X0128827Y0300062D01*
X0129002Y0299064D02*
X0125073Y0299064D01*
X0124659Y0298065D02*
X0129415Y0298065D01*
X0130148Y0297067D02*
X0123927Y0297067D01*
X0122775Y0296068D02*
X0131299Y0296068D01*
X0116688Y0280092D02*
X0094189Y0280092D01*
X0094189Y0279094D02*
X0117687Y0279094D01*
X0118685Y0278095D02*
X0094189Y0278095D01*
X0094189Y0277097D02*
X0119684Y0277097D01*
X0120682Y0276098D02*
X0094189Y0276098D01*
X0094189Y0275100D02*
X0121681Y0275100D01*
X0122679Y0274101D02*
X0094189Y0274101D01*
X0094189Y0273103D02*
X0123678Y0273103D01*
X0124676Y0272104D02*
X0094189Y0272104D01*
X0094189Y0271105D02*
X0125675Y0271105D01*
X0126673Y0270107D02*
X0094406Y0270107D01*
X0095404Y0269108D02*
X0127672Y0269108D01*
X0128670Y0268110D02*
X0096403Y0268110D01*
X0097401Y0267111D02*
X0129669Y0267111D01*
X0130667Y0266113D02*
X0098400Y0266113D01*
X0099398Y0265114D02*
X0131666Y0265114D01*
X0132664Y0264116D02*
X0100397Y0264116D01*
X0101395Y0263117D02*
X0133663Y0263117D01*
X0134661Y0262119D02*
X0102394Y0262119D01*
X0103392Y0261120D02*
X0135660Y0261120D01*
X0136658Y0260122D02*
X0104391Y0260122D01*
X0105389Y0259123D02*
X0137657Y0259123D01*
X0138655Y0258125D02*
X0106388Y0258125D01*
X0106600Y0257126D02*
X0139654Y0257126D01*
X0140150Y0256128D02*
X0106600Y0256128D01*
X0106600Y0255129D02*
X0113633Y0255129D01*
X0114045Y0255300D02*
X0112281Y0254569D01*
X0110931Y0253219D01*
X0110200Y0251455D01*
X0110200Y0249545D01*
X0110931Y0247781D01*
X0112281Y0246431D01*
X0114045Y0245700D01*
X0115955Y0245700D01*
X0117719Y0246431D01*
X0119069Y0247781D01*
X0119800Y0249545D01*
X0119800Y0251455D01*
X0119069Y0253219D01*
X0117719Y0254569D01*
X0115955Y0255300D01*
X0114045Y0255300D01*
X0116367Y0255129D02*
X0123633Y0255129D01*
X0124045Y0255300D02*
X0122281Y0254569D01*
X0120931Y0253219D01*
X0120200Y0251455D01*
X0120200Y0249545D01*
X0120931Y0247781D01*
X0122281Y0246431D01*
X0124045Y0245700D01*
X0125955Y0245700D01*
X0127719Y0246431D01*
X0129069Y0247781D01*
X0129800Y0249545D01*
X0129800Y0251455D01*
X0129069Y0253219D01*
X0127719Y0254569D01*
X0125955Y0255300D01*
X0124045Y0255300D01*
X0126367Y0255129D02*
X0133633Y0255129D01*
X0134045Y0255300D02*
X0132281Y0254569D01*
X0130931Y0253219D01*
X0130200Y0251455D01*
X0130200Y0249545D01*
X0130931Y0247781D01*
X0132281Y0246431D01*
X0134045Y0245700D01*
X0135955Y0245700D01*
X0137719Y0246431D01*
X0139069Y0247781D01*
X0139800Y0249545D01*
X0139800Y0251455D01*
X0139069Y0253219D01*
X0137719Y0254569D01*
X0135955Y0255300D01*
X0134045Y0255300D01*
X0136367Y0255129D02*
X0140150Y0255129D01*
X0140150Y0254131D02*
X0138157Y0254131D01*
X0139105Y0253132D02*
X0140150Y0253132D01*
X0140150Y0252134D02*
X0139519Y0252134D01*
X0139800Y0251135D02*
X0140150Y0251135D01*
X0140150Y0250137D02*
X0139800Y0250137D01*
X0139631Y0249138D02*
X0140150Y0249138D01*
X0140150Y0248140D02*
X0139218Y0248140D01*
X0138429Y0247141D02*
X0140150Y0247141D01*
X0140150Y0246143D02*
X0137024Y0246143D01*
X0140150Y0245144D02*
X0067869Y0245144D01*
X0067024Y0246143D02*
X0072151Y0246143D01*
X0072275Y0246053D02*
X0073004Y0245681D01*
X0073782Y0245428D01*
X0074500Y0245314D01*
X0074500Y0250000D01*
X0075500Y0250000D01*
X0075500Y0251000D01*
X0080186Y0251000D01*
X0080072Y0251718D01*
X0079819Y0252496D01*
X0079447Y0253225D01*
X0078966Y0253888D01*
X0078388Y0254466D01*
X0077725Y0254947D01*
X0076996Y0255319D01*
X0076218Y0255572D01*
X0075500Y0255686D01*
X0075500Y0251000D01*
X0074500Y0251000D01*
X0074500Y0255686D01*
X0073782Y0255572D01*
X0073004Y0255319D01*
X0072275Y0254947D01*
X0071612Y0254466D01*
X0071034Y0253888D01*
X0070553Y0253225D01*
X0070181Y0252496D01*
X0069928Y0251718D01*
X0069814Y0251000D01*
X0074500Y0251000D01*
X0074500Y0250000D01*
X0069814Y0250000D01*
X0069928Y0249282D01*
X0070181Y0248504D01*
X0070553Y0247775D01*
X0071034Y0247112D01*
X0071612Y0246534D01*
X0072275Y0246053D01*
X0071013Y0247141D02*
X0068429Y0247141D01*
X0069218Y0248140D02*
X0070366Y0248140D01*
X0069975Y0249138D02*
X0069631Y0249138D01*
X0069800Y0250137D02*
X0074500Y0250137D01*
X0074500Y0251135D02*
X0075500Y0251135D01*
X0075500Y0250137D02*
X0080200Y0250137D01*
X0080186Y0250000D02*
X0075500Y0250000D01*
X0075500Y0245314D01*
X0076218Y0245428D01*
X0076996Y0245681D01*
X0077725Y0246053D01*
X0078388Y0246534D01*
X0078966Y0247112D01*
X0079447Y0247775D01*
X0079819Y0248504D01*
X0080072Y0249282D01*
X0080186Y0250000D01*
X0080200Y0249545D02*
X0080931Y0247781D01*
X0082281Y0246431D01*
X0084045Y0245700D01*
X0085955Y0245700D01*
X0087719Y0246431D01*
X0089069Y0247781D01*
X0089800Y0249545D01*
X0089800Y0251455D01*
X0089069Y0253219D01*
X0087719Y0254569D01*
X0085955Y0255300D01*
X0084045Y0255300D01*
X0082926Y0254836D01*
X0066630Y0271133D01*
X0066630Y0295643D01*
X0067918Y0296176D01*
X0069353Y0297611D01*
X0070130Y0299486D01*
X0070130Y0301514D01*
X0069353Y0303389D01*
X0067918Y0304824D01*
X0066044Y0305600D01*
X0064015Y0305600D01*
X0062141Y0304824D01*
X0060706Y0303389D01*
X0059930Y0301514D01*
X0059930Y0299486D01*
X0060706Y0297611D01*
X0062141Y0296176D01*
X0063430Y0295643D01*
X0063430Y0269808D01*
X0080664Y0252574D01*
X0080200Y0251455D01*
X0080200Y0249545D01*
X0080369Y0249138D02*
X0080025Y0249138D01*
X0079633Y0248140D02*
X0080782Y0248140D01*
X0081571Y0247141D02*
X0078987Y0247141D01*
X0077849Y0246143D02*
X0082976Y0246143D01*
X0085000Y0250500D02*
X0065030Y0270470D01*
X0065030Y0300500D01*
X0068686Y0304056D02*
X0075153Y0304056D01*
X0074485Y0303389D02*
X0073709Y0301514D01*
X0073709Y0299486D01*
X0074485Y0297611D01*
X0075920Y0296176D01*
X0077209Y0295643D01*
X0077209Y0276778D01*
X0078146Y0275841D01*
X0093400Y0260587D01*
X0093400Y0255033D01*
X0092281Y0254569D01*
X0090931Y0253219D01*
X0090200Y0251455D01*
X0090200Y0249545D01*
X0090931Y0247781D01*
X0092281Y0246431D01*
X0094045Y0245700D01*
X0095955Y0245700D01*
X0097719Y0246431D01*
X0099069Y0247781D01*
X0099800Y0249545D01*
X0099800Y0251455D01*
X0099069Y0253219D01*
X0097719Y0254569D01*
X0096600Y0255033D01*
X0096600Y0261913D01*
X0080409Y0278104D01*
X0080409Y0295643D01*
X0081698Y0296176D01*
X0083133Y0297611D01*
X0083909Y0299486D01*
X0083909Y0301514D01*
X0083133Y0303389D01*
X0081698Y0304824D01*
X0079824Y0305600D01*
X0077795Y0305600D01*
X0075920Y0304824D01*
X0074485Y0303389D01*
X0074348Y0303058D02*
X0069490Y0303058D01*
X0069904Y0302059D02*
X0073935Y0302059D01*
X0073709Y0301061D02*
X0070130Y0301061D01*
X0070130Y0300062D02*
X0073709Y0300062D01*
X0073884Y0299064D02*
X0069955Y0299064D01*
X0069541Y0298065D02*
X0074297Y0298065D01*
X0075030Y0297067D02*
X0068809Y0297067D01*
X0067657Y0296068D02*
X0076181Y0296068D01*
X0077209Y0295070D02*
X0066630Y0295070D01*
X0066630Y0294071D02*
X0077209Y0294071D01*
X0077209Y0293073D02*
X0066630Y0293073D01*
X0066630Y0292074D02*
X0077209Y0292074D01*
X0077209Y0291076D02*
X0066630Y0291076D01*
X0066630Y0290077D02*
X0077209Y0290077D01*
X0077209Y0289079D02*
X0066630Y0289079D01*
X0066630Y0288080D02*
X0077209Y0288080D01*
X0077209Y0287082D02*
X0066630Y0287082D01*
X0066630Y0286083D02*
X0077209Y0286083D01*
X0077209Y0285085D02*
X0066630Y0285085D01*
X0066630Y0284086D02*
X0077209Y0284086D01*
X0077209Y0283088D02*
X0066630Y0283088D01*
X0066630Y0282089D02*
X0077209Y0282089D01*
X0077209Y0281091D02*
X0066630Y0281091D01*
X0066630Y0280092D02*
X0077209Y0280092D01*
X0077209Y0279094D02*
X0066630Y0279094D01*
X0066630Y0278095D02*
X0077209Y0278095D01*
X0077209Y0277097D02*
X0066630Y0277097D01*
X0066630Y0276098D02*
X0077889Y0276098D01*
X0078888Y0275100D02*
X0066630Y0275100D01*
X0066630Y0274101D02*
X0079886Y0274101D01*
X0080885Y0273103D02*
X0066630Y0273103D01*
X0066630Y0272104D02*
X0081883Y0272104D01*
X0082882Y0271105D02*
X0066657Y0271105D01*
X0067656Y0270107D02*
X0083880Y0270107D01*
X0084879Y0269108D02*
X0068654Y0269108D01*
X0069653Y0268110D02*
X0085877Y0268110D01*
X0086876Y0267111D02*
X0070651Y0267111D01*
X0071650Y0266113D02*
X0087874Y0266113D01*
X0088873Y0265114D02*
X0072648Y0265114D01*
X0073647Y0264116D02*
X0089871Y0264116D01*
X0090870Y0263117D02*
X0074645Y0263117D01*
X0075644Y0262119D02*
X0091868Y0262119D01*
X0092867Y0261120D02*
X0076642Y0261120D01*
X0077641Y0260122D02*
X0093400Y0260122D01*
X0093400Y0259123D02*
X0078639Y0259123D01*
X0079638Y0258125D02*
X0093400Y0258125D01*
X0093400Y0257126D02*
X0080636Y0257126D01*
X0081635Y0256128D02*
X0093400Y0256128D01*
X0093400Y0255129D02*
X0086367Y0255129D01*
X0088157Y0254131D02*
X0091843Y0254131D01*
X0090895Y0253132D02*
X0089105Y0253132D01*
X0089519Y0252134D02*
X0090481Y0252134D01*
X0090200Y0251135D02*
X0089800Y0251135D01*
X0089800Y0250137D02*
X0090200Y0250137D01*
X0090369Y0249138D02*
X0089631Y0249138D01*
X0089218Y0248140D02*
X0090782Y0248140D01*
X0091571Y0247141D02*
X0088429Y0247141D01*
X0087024Y0246143D02*
X0092976Y0246143D01*
X0095000Y0250500D02*
X0095000Y0261250D01*
X0078809Y0277441D01*
X0078809Y0300500D01*
X0076479Y0305055D02*
X0067360Y0305055D01*
X0062699Y0305055D02*
X0056654Y0305055D01*
X0056648Y0305079D02*
X0056450Y0305421D01*
X0056171Y0305700D01*
X0055829Y0305898D01*
X0055447Y0306000D01*
X0051750Y0306000D01*
X0051750Y0301000D01*
X0056750Y0301000D01*
X0056750Y0304697D01*
X0056648Y0305079D01*
X0056750Y0304056D02*
X0061373Y0304056D01*
X0060569Y0303058D02*
X0056750Y0303058D01*
X0056750Y0302059D02*
X0060155Y0302059D01*
X0059930Y0301061D02*
X0056750Y0301061D01*
X0056750Y0300000D02*
X0051750Y0300000D01*
X0051750Y0301000D01*
X0050750Y0301000D01*
X0050750Y0306000D01*
X0047053Y0306000D01*
X0046671Y0305898D01*
X0046329Y0305700D01*
X0046050Y0305421D01*
X0045852Y0305079D01*
X0045750Y0304697D01*
X0045750Y0301000D01*
X0050750Y0301000D01*
X0050750Y0300000D01*
X0051750Y0300000D01*
X0051750Y0295000D01*
X0055447Y0295000D01*
X0055829Y0295102D01*
X0056171Y0295300D01*
X0056450Y0295579D01*
X0056648Y0295921D01*
X0056750Y0296303D01*
X0056750Y0300000D01*
X0056750Y0299064D02*
X0060104Y0299064D01*
X0059930Y0300062D02*
X0051750Y0300062D01*
X0051750Y0299064D02*
X0050750Y0299064D01*
X0050750Y0300000D02*
X0050750Y0295000D01*
X0047053Y0295000D01*
X0046671Y0295102D01*
X0046329Y0295300D01*
X0046050Y0295579D01*
X0045852Y0295921D01*
X0045750Y0296303D01*
X0045750Y0300000D01*
X0050750Y0300000D01*
X0050750Y0300062D02*
X0033589Y0300062D01*
X0033589Y0299064D02*
X0045750Y0299064D01*
X0045750Y0298065D02*
X0033589Y0298065D01*
X0033589Y0297067D02*
X0045750Y0297067D01*
X0045813Y0296068D02*
X0033589Y0296068D01*
X0033589Y0295070D02*
X0046792Y0295070D01*
X0050750Y0295070D02*
X0051750Y0295070D01*
X0051750Y0296068D02*
X0050750Y0296068D01*
X0050750Y0297067D02*
X0051750Y0297067D01*
X0051750Y0298065D02*
X0050750Y0298065D01*
X0050750Y0301061D02*
X0051750Y0301061D01*
X0051750Y0302059D02*
X0050750Y0302059D01*
X0050750Y0303058D02*
X0051750Y0303058D01*
X0051750Y0304056D02*
X0050750Y0304056D01*
X0050750Y0305055D02*
X0051750Y0305055D01*
X0045846Y0305055D02*
X0033673Y0305055D01*
X0033595Y0304056D02*
X0045750Y0304056D01*
X0045750Y0303058D02*
X0033589Y0303058D01*
X0033589Y0302059D02*
X0045750Y0302059D01*
X0045750Y0301061D02*
X0033589Y0301061D01*
X0033907Y0306053D02*
X0102446Y0306053D01*
X0101448Y0305055D02*
X0094919Y0305055D01*
X0096245Y0304056D02*
X0100449Y0304056D01*
X0099451Y0303058D02*
X0097049Y0303058D01*
X0099156Y0300500D02*
X0104256Y0305600D01*
X0108481Y0305600D01*
X0103445Y0307052D02*
X0034232Y0307052D01*
X0038444Y0312044D02*
X0231508Y0312044D01*
X0228093Y0313043D02*
X0041382Y0313043D01*
X0033589Y0294071D02*
X0063430Y0294071D01*
X0063430Y0293073D02*
X0033589Y0293073D01*
X0033589Y0292074D02*
X0063430Y0292074D01*
X0063430Y0291076D02*
X0033589Y0291076D01*
X0033589Y0290077D02*
X0063430Y0290077D01*
X0063430Y0289079D02*
X0033589Y0289079D01*
X0033589Y0288080D02*
X0063430Y0288080D01*
X0063430Y0287082D02*
X0033589Y0287082D01*
X0033589Y0286083D02*
X0063430Y0286083D01*
X0063430Y0285085D02*
X0033589Y0285085D01*
X0033589Y0284086D02*
X0063430Y0284086D01*
X0063430Y0283088D02*
X0033589Y0283088D01*
X0033589Y0282089D02*
X0063430Y0282089D01*
X0063430Y0281091D02*
X0033589Y0281091D01*
X0033589Y0280092D02*
X0063430Y0280092D01*
X0063430Y0279094D02*
X0033589Y0279094D01*
X0033589Y0278095D02*
X0063430Y0278095D01*
X0063430Y0277097D02*
X0033589Y0277097D01*
X0033589Y0276098D02*
X0063430Y0276098D01*
X0063430Y0275100D02*
X0033589Y0275100D01*
X0033589Y0274101D02*
X0063430Y0274101D01*
X0063430Y0273103D02*
X0033589Y0273103D01*
X0033589Y0272104D02*
X0063430Y0272104D01*
X0063430Y0271105D02*
X0033589Y0271105D01*
X0033589Y0270107D02*
X0063430Y0270107D01*
X0064129Y0269108D02*
X0033589Y0269108D01*
X0033589Y0268110D02*
X0065127Y0268110D01*
X0066126Y0267111D02*
X0033589Y0267111D01*
X0033589Y0266113D02*
X0067124Y0266113D01*
X0068123Y0265114D02*
X0033589Y0265114D01*
X0033589Y0264116D02*
X0069121Y0264116D01*
X0070120Y0263117D02*
X0033589Y0263117D01*
X0033589Y0262119D02*
X0071118Y0262119D01*
X0072117Y0261120D02*
X0033589Y0261120D01*
X0033589Y0260122D02*
X0073115Y0260122D01*
X0074114Y0259123D02*
X0033589Y0259123D01*
X0033589Y0258125D02*
X0075112Y0258125D01*
X0076111Y0257126D02*
X0033589Y0257126D01*
X0033589Y0256128D02*
X0077109Y0256128D01*
X0077368Y0255129D02*
X0078108Y0255129D01*
X0078723Y0254131D02*
X0079106Y0254131D01*
X0079495Y0253132D02*
X0080105Y0253132D01*
X0079937Y0252134D02*
X0080481Y0252134D01*
X0080200Y0251135D02*
X0080164Y0251135D01*
X0082633Y0255129D02*
X0083633Y0255129D01*
X0075500Y0255129D02*
X0074500Y0255129D01*
X0074500Y0254131D02*
X0075500Y0254131D01*
X0075500Y0253132D02*
X0074500Y0253132D01*
X0074500Y0252134D02*
X0075500Y0252134D01*
X0075500Y0249138D02*
X0074500Y0249138D01*
X0074500Y0248140D02*
X0075500Y0248140D01*
X0075500Y0247141D02*
X0074500Y0247141D01*
X0074500Y0246143D02*
X0075500Y0246143D01*
X0070864Y0242149D02*
X0140150Y0242149D01*
X0140150Y0243147D02*
X0069866Y0243147D01*
X0068867Y0244146D02*
X0140150Y0244146D01*
X0140150Y0241150D02*
X0071863Y0241150D01*
X0072861Y0240152D02*
X0140150Y0240152D01*
X0140150Y0239153D02*
X0073860Y0239153D01*
X0074858Y0238155D02*
X0140150Y0238155D01*
X0140150Y0237156D02*
X0075857Y0237156D01*
X0076855Y0236158D02*
X0140150Y0236158D01*
X0140150Y0235159D02*
X0077854Y0235159D01*
X0078852Y0234161D02*
X0140150Y0234161D01*
X0144350Y0234161D02*
X0144950Y0234161D01*
X0144950Y0233162D02*
X0144350Y0233162D01*
X0144350Y0232164D02*
X0144950Y0232164D01*
X0144950Y0231165D02*
X0144350Y0231165D01*
X0144350Y0230167D02*
X0147600Y0230167D01*
X0147600Y0229950D02*
X0144950Y0229950D01*
X0144950Y0225903D01*
X0145052Y0225521D01*
X0145250Y0225179D01*
X0145529Y0224900D01*
X0145871Y0224702D01*
X0146253Y0224600D01*
X0147600Y0224600D01*
X0147600Y0229950D01*
X0147600Y0229168D02*
X0147900Y0229168D01*
X0147900Y0228170D02*
X0147600Y0228170D01*
X0147600Y0227171D02*
X0147900Y0227171D01*
X0147900Y0226172D02*
X0147600Y0226172D01*
X0147600Y0225174D02*
X0147900Y0225174D01*
X0150245Y0225174D02*
X0150820Y0225174D01*
X0153267Y0221180D02*
X0143900Y0221180D01*
X0144350Y0222178D02*
X0154266Y0222178D01*
X0155264Y0223177D02*
X0144350Y0223177D01*
X0144350Y0224175D02*
X0156050Y0224175D01*
X0155820Y0225174D02*
X0154680Y0225174D01*
X0155150Y0226172D02*
X0155350Y0226172D01*
X0155350Y0227171D02*
X0155150Y0227171D01*
X0155150Y0228170D02*
X0155350Y0228170D01*
X0155350Y0229168D02*
X0155150Y0229168D01*
X0155150Y0230167D02*
X0155350Y0230167D01*
X0155350Y0231165D02*
X0155150Y0231165D01*
X0155150Y0232164D02*
X0155350Y0232164D01*
X0155350Y0233162D02*
X0155150Y0233162D01*
X0155150Y0234161D02*
X0155350Y0234161D01*
X0155953Y0235159D02*
X0154547Y0235159D01*
X0154668Y0236158D02*
X0153355Y0236158D01*
X0153670Y0237156D02*
X0152357Y0237156D01*
X0152671Y0238155D02*
X0151358Y0238155D01*
X0151673Y0239153D02*
X0150360Y0239153D01*
X0150674Y0240152D02*
X0149361Y0240152D01*
X0149676Y0241150D02*
X0147053Y0241150D01*
X0148677Y0242149D02*
X0144350Y0242149D01*
X0144350Y0243147D02*
X0147679Y0243147D01*
X0146680Y0244146D02*
X0144350Y0244146D01*
X0144350Y0245144D02*
X0145682Y0245144D01*
X0144683Y0246143D02*
X0144350Y0246143D01*
X0145650Y0239300D02*
X0147950Y0239300D01*
X0152750Y0234500D01*
X0152750Y0230100D01*
X0157650Y0229700D02*
X0157650Y0223300D01*
X0128050Y0193700D01*
X0128050Y0175300D01*
X0134450Y0168900D01*
X0137650Y0168900D01*
X0146080Y0162268D02*
X0162755Y0162268D01*
X0163754Y0163266D02*
X0147079Y0163266D01*
X0148078Y0164265D02*
X0164752Y0164265D01*
X0165751Y0165263D02*
X0149076Y0165263D01*
X0150075Y0166262D02*
X0166749Y0166262D01*
X0167748Y0167260D02*
X0151073Y0167260D01*
X0152072Y0168259D02*
X0168746Y0168259D01*
X0169745Y0169257D02*
X0153070Y0169257D01*
X0154069Y0170256D02*
X0170743Y0170256D01*
X0171742Y0171254D02*
X0155067Y0171254D01*
X0156066Y0172253D02*
X0172740Y0172253D01*
X0173739Y0173251D02*
X0156850Y0173251D01*
X0156850Y0174250D02*
X0174737Y0174250D01*
X0175736Y0175248D02*
X0156850Y0175248D01*
X0156850Y0176247D02*
X0176734Y0176247D01*
X0177733Y0177245D02*
X0156850Y0177245D01*
X0156850Y0178244D02*
X0178550Y0178244D01*
X0178550Y0179242D02*
X0156850Y0179242D01*
X0156850Y0180241D02*
X0178550Y0180241D01*
X0178550Y0181239D02*
X0156850Y0181239D01*
X0153650Y0187231D02*
X0145293Y0187231D01*
X0145293Y0188229D02*
X0144293Y0188229D01*
X0144293Y0187563D02*
X0144293Y0192500D01*
X0139084Y0192500D01*
X0138703Y0192398D01*
X0138360Y0192200D01*
X0138081Y0191921D01*
X0137884Y0191579D01*
X0137781Y0191197D01*
X0137781Y0187563D01*
X0144293Y0187563D01*
X0144293Y0187231D02*
X0129650Y0187231D01*
X0129650Y0188229D02*
X0137781Y0188229D01*
X0137781Y0189228D02*
X0129650Y0189228D01*
X0129650Y0190226D02*
X0137781Y0190226D01*
X0137789Y0191225D02*
X0129650Y0191225D01*
X0129650Y0192223D02*
X0138400Y0192223D01*
X0137781Y0186232D02*
X0129650Y0186232D01*
X0129650Y0185234D02*
X0137781Y0185234D01*
X0137781Y0184235D02*
X0129650Y0184235D01*
X0129650Y0183237D02*
X0137781Y0183237D01*
X0138062Y0182238D02*
X0129650Y0182238D01*
X0121450Y0182238D02*
X0121350Y0182238D01*
X0121350Y0183237D02*
X0121450Y0183237D01*
X0121450Y0184235D02*
X0121350Y0184235D01*
X0121350Y0185234D02*
X0121450Y0185234D01*
X0121450Y0186232D02*
X0121350Y0186232D01*
X0121350Y0187231D02*
X0121450Y0187231D01*
X0121450Y0188229D02*
X0121350Y0188229D01*
X0121350Y0189228D02*
X0121450Y0189228D01*
X0121450Y0190226D02*
X0121350Y0190226D01*
X0121350Y0191225D02*
X0121450Y0191225D01*
X0121450Y0192223D02*
X0121350Y0192223D01*
X0121350Y0193222D02*
X0121450Y0193222D01*
X0117150Y0193222D02*
X0103234Y0193222D01*
X0104233Y0194220D02*
X0117150Y0194220D01*
X0117150Y0195219D02*
X0105231Y0195219D01*
X0106230Y0196217D02*
X0117150Y0196217D01*
X0117150Y0197216D02*
X0107228Y0197216D01*
X0108227Y0198214D02*
X0117150Y0198214D01*
X0117150Y0199213D02*
X0109225Y0199213D01*
X0110224Y0200211D02*
X0117150Y0200211D01*
X0117990Y0201210D02*
X0111222Y0201210D01*
X0112221Y0202208D02*
X0118988Y0202208D01*
X0119987Y0203207D02*
X0113219Y0203207D01*
X0114218Y0204205D02*
X0120985Y0204205D01*
X0121984Y0205204D02*
X0118477Y0205204D01*
X0119000Y0206202D02*
X0122982Y0206202D01*
X0123981Y0207201D02*
X0119000Y0207201D01*
X0118474Y0208199D02*
X0124979Y0208199D01*
X0116650Y0206700D02*
X0114450Y0206700D01*
X0098750Y0191000D01*
X0098750Y0187476D01*
X0101031Y0187231D02*
X0101469Y0187231D01*
X0101469Y0188229D02*
X0101031Y0188229D01*
X0101031Y0189228D02*
X0101469Y0189228D01*
X0101469Y0190226D02*
X0101031Y0190226D01*
X0101469Y0190294D02*
X0101469Y0184659D01*
X0102113Y0184014D01*
X0105387Y0184014D01*
X0106031Y0184659D01*
X0106031Y0190294D01*
X0105387Y0190939D01*
X0102113Y0190939D01*
X0101469Y0190294D01*
X0101237Y0191225D02*
X0117150Y0191225D01*
X0117150Y0192223D02*
X0102236Y0192223D01*
X0099707Y0194220D02*
X0094233Y0194220D01*
X0095231Y0195219D02*
X0100706Y0195219D01*
X0101704Y0196217D02*
X0096230Y0196217D01*
X0097228Y0197216D02*
X0102703Y0197216D01*
X0103701Y0198214D02*
X0098227Y0198214D01*
X0099225Y0199213D02*
X0104700Y0199213D01*
X0105698Y0200211D02*
X0100224Y0200211D01*
X0100350Y0201210D02*
X0106697Y0201210D01*
X0107695Y0202208D02*
X0100350Y0202208D01*
X0098750Y0204500D02*
X0098750Y0209524D01*
X0101031Y0209198D02*
X0101069Y0209198D01*
X0101069Y0209433D02*
X0101069Y0206964D01*
X0101171Y0206582D01*
X0101369Y0206240D01*
X0101509Y0206100D01*
X0100425Y0206100D01*
X0101031Y0206706D01*
X0101031Y0211400D01*
X0101069Y0211400D01*
X0101069Y0209614D01*
X0103659Y0209614D01*
X0103659Y0209433D01*
X0101069Y0209433D01*
X0101031Y0210196D02*
X0101069Y0210196D01*
X0101031Y0211195D02*
X0101069Y0211195D01*
X0101031Y0208199D02*
X0101069Y0208199D01*
X0101031Y0207201D02*
X0101069Y0207201D01*
X0101407Y0206202D02*
X0100528Y0206202D01*
X0097150Y0205204D02*
X0095900Y0205204D01*
X0095900Y0204205D02*
X0097150Y0204205D01*
X0097150Y0203207D02*
X0095480Y0203207D01*
X0097150Y0202208D02*
X0071644Y0202208D01*
X0070646Y0203207D02*
X0091620Y0203207D01*
X0091200Y0204205D02*
X0069647Y0204205D01*
X0068649Y0205204D02*
X0091200Y0205204D01*
X0091829Y0206202D02*
X0090528Y0206202D01*
X0091031Y0207201D02*
X0091469Y0207201D01*
X0091469Y0208199D02*
X0091031Y0208199D01*
X0091031Y0209198D02*
X0091469Y0209198D01*
X0091469Y0210196D02*
X0091031Y0210196D01*
X0091031Y0211195D02*
X0091469Y0211195D01*
X0091469Y0212193D02*
X0091031Y0212193D01*
X0091205Y0213192D02*
X0094979Y0213192D01*
X0095978Y0214190D02*
X0092203Y0214190D01*
X0093202Y0215189D02*
X0106076Y0215189D01*
X0106150Y0213000D02*
X0097050Y0213000D01*
X0094250Y0210200D01*
X0096031Y0209198D02*
X0096469Y0209198D01*
X0096469Y0208199D02*
X0096031Y0208199D01*
X0096031Y0207201D02*
X0096469Y0207201D01*
X0096972Y0206202D02*
X0095528Y0206202D01*
X0096697Y0201210D02*
X0072643Y0201210D01*
X0073641Y0200211D02*
X0095698Y0200211D01*
X0094700Y0199213D02*
X0074640Y0199213D01*
X0075638Y0198214D02*
X0093701Y0198214D01*
X0092703Y0197216D02*
X0076637Y0197216D01*
X0076350Y0195240D02*
X0055250Y0216340D01*
X0055250Y0216500D01*
X0059131Y0210196D02*
X0033589Y0210196D01*
X0033589Y0209198D02*
X0060129Y0209198D01*
X0061128Y0208199D02*
X0033589Y0208199D01*
X0033589Y0207201D02*
X0049385Y0207201D01*
X0046633Y0206202D02*
X0033589Y0206202D01*
X0033589Y0205204D02*
X0044623Y0205204D01*
X0043041Y0204205D02*
X0033589Y0204205D01*
X0033589Y0203207D02*
X0041706Y0203207D01*
X0040553Y0202208D02*
X0033589Y0202208D01*
X0033589Y0201210D02*
X0039554Y0201210D01*
X0038686Y0200211D02*
X0033589Y0200211D01*
X0033589Y0199213D02*
X0037911Y0199213D01*
X0037213Y0198214D02*
X0033589Y0198214D01*
X0033589Y0197216D02*
X0036601Y0197216D01*
X0036071Y0196217D02*
X0033589Y0196217D01*
X0033589Y0195219D02*
X0035590Y0195219D01*
X0035176Y0194220D02*
X0033589Y0194220D01*
X0033589Y0193222D02*
X0034828Y0193222D01*
X0034513Y0192223D02*
X0033589Y0192223D01*
X0033589Y0191225D02*
X0034273Y0191225D01*
X0034072Y0190226D02*
X0033589Y0190226D01*
X0033589Y0189228D02*
X0033914Y0189228D01*
X0033820Y0188229D02*
X0033589Y0188229D01*
X0033589Y0187231D02*
X0033750Y0187231D01*
X0033589Y0162268D02*
X0044462Y0162268D01*
X0044150Y0161269D02*
X0033589Y0161269D01*
X0033589Y0160271D02*
X0044150Y0160271D01*
X0044150Y0159272D02*
X0033589Y0159272D01*
X0033589Y0158274D02*
X0044150Y0158274D01*
X0044150Y0157275D02*
X0033589Y0157275D01*
X0033589Y0156277D02*
X0044150Y0156277D01*
X0044150Y0155278D02*
X0033589Y0155278D01*
X0033589Y0154280D02*
X0044150Y0154280D01*
X0044150Y0153281D02*
X0033589Y0153281D01*
X0033589Y0152283D02*
X0044150Y0152283D01*
X0044150Y0151284D02*
X0033589Y0151284D01*
X0055250Y0156500D02*
X0055250Y0156660D01*
X0076350Y0177760D01*
X0076350Y0195240D01*
X0067650Y0206202D02*
X0086972Y0206202D01*
X0086469Y0207201D02*
X0066652Y0207201D01*
X0065653Y0208199D02*
X0085038Y0208199D01*
X0084039Y0209198D02*
X0064655Y0209198D01*
X0063656Y0210196D02*
X0083041Y0210196D01*
X0082042Y0211195D02*
X0066350Y0211195D01*
X0066350Y0212193D02*
X0081044Y0212193D01*
X0080045Y0213192D02*
X0066350Y0213192D01*
X0066350Y0214190D02*
X0079047Y0214190D01*
X0078048Y0215189D02*
X0066350Y0215189D01*
X0066350Y0216187D02*
X0077050Y0216187D01*
X0076051Y0217186D02*
X0066350Y0217186D01*
X0066350Y0218184D02*
X0075053Y0218184D01*
X0074054Y0219183D02*
X0066350Y0219183D01*
X0066350Y0220181D02*
X0073056Y0220181D01*
X0072057Y0221180D02*
X0066350Y0221180D01*
X0066127Y0222178D02*
X0071059Y0222178D01*
X0070060Y0223177D02*
X0033589Y0223177D01*
X0033589Y0224175D02*
X0069062Y0224175D01*
X0068063Y0225174D02*
X0033589Y0225174D01*
X0033589Y0226172D02*
X0067065Y0226172D01*
X0066066Y0227171D02*
X0033589Y0227171D01*
X0033589Y0228170D02*
X0065068Y0228170D01*
X0064069Y0229168D02*
X0033589Y0229168D01*
X0033589Y0230167D02*
X0063071Y0230167D01*
X0062072Y0231165D02*
X0033589Y0231165D01*
X0033589Y0232164D02*
X0061074Y0232164D01*
X0060075Y0233162D02*
X0033589Y0233162D01*
X0033589Y0234161D02*
X0059077Y0234161D01*
X0058078Y0235159D02*
X0033589Y0235159D01*
X0033589Y0236158D02*
X0057080Y0236158D01*
X0056081Y0237156D02*
X0033589Y0237156D01*
X0033589Y0238155D02*
X0055083Y0238155D01*
X0054084Y0239153D02*
X0033589Y0239153D01*
X0033589Y0240152D02*
X0053086Y0240152D01*
X0052087Y0241150D02*
X0033589Y0241150D01*
X0033589Y0242149D02*
X0051089Y0242149D01*
X0050090Y0243147D02*
X0033589Y0243147D01*
X0033589Y0244146D02*
X0049092Y0244146D01*
X0048093Y0245144D02*
X0033589Y0245144D01*
X0033589Y0246143D02*
X0042976Y0246143D01*
X0041571Y0247141D02*
X0033589Y0247141D01*
X0033589Y0248140D02*
X0040782Y0248140D01*
X0040369Y0249138D02*
X0033589Y0249138D01*
X0033589Y0250137D02*
X0040200Y0250137D01*
X0040200Y0251135D02*
X0033589Y0251135D01*
X0033589Y0252134D02*
X0040481Y0252134D01*
X0040895Y0253132D02*
X0033589Y0253132D01*
X0033589Y0254131D02*
X0041843Y0254131D01*
X0043633Y0255129D02*
X0033589Y0255129D01*
X0045000Y0250500D02*
X0085976Y0209524D01*
X0088750Y0209524D01*
X0088750Y0213000D01*
X0102250Y0226500D01*
X0104904Y0226500D01*
X0107972Y0226172D02*
X0108528Y0226172D01*
X0108528Y0227171D02*
X0107972Y0227171D01*
X0107972Y0228170D02*
X0108528Y0228170D01*
X0108575Y0229168D02*
X0107925Y0229168D01*
X0101882Y0229168D02*
X0081850Y0229168D01*
X0081850Y0228170D02*
X0101835Y0228170D01*
X0100658Y0227171D02*
X0081850Y0227171D01*
X0081850Y0226172D02*
X0099660Y0226172D01*
X0098661Y0225174D02*
X0081850Y0225174D01*
X0081850Y0224175D02*
X0097663Y0224175D01*
X0096664Y0223177D02*
X0081850Y0223177D01*
X0082095Y0222178D02*
X0095666Y0222178D01*
X0094667Y0221180D02*
X0082600Y0221180D01*
X0082600Y0220181D02*
X0093669Y0220181D01*
X0092670Y0219183D02*
X0082056Y0219183D01*
X0080250Y0220700D02*
X0080250Y0230500D01*
X0065000Y0245750D01*
X0065000Y0250500D01*
X0062976Y0246143D02*
X0057024Y0246143D01*
X0057719Y0246431D02*
X0059069Y0247781D01*
X0059800Y0249545D01*
X0059800Y0251455D01*
X0059069Y0253219D01*
X0057719Y0254569D01*
X0055955Y0255300D01*
X0054045Y0255300D01*
X0052281Y0254569D01*
X0050931Y0253219D01*
X0050200Y0251455D01*
X0050200Y0249545D01*
X0050931Y0247781D01*
X0052281Y0246431D01*
X0054045Y0245700D01*
X0055955Y0245700D01*
X0057719Y0246431D01*
X0058429Y0247141D02*
X0061571Y0247141D01*
X0060782Y0248140D02*
X0059218Y0248140D01*
X0059631Y0249138D02*
X0060369Y0249138D01*
X0060200Y0250137D02*
X0059800Y0250137D01*
X0059800Y0251135D02*
X0060200Y0251135D01*
X0060481Y0252134D02*
X0059519Y0252134D01*
X0059105Y0253132D02*
X0060895Y0253132D01*
X0061843Y0254131D02*
X0058157Y0254131D01*
X0056367Y0255129D02*
X0063633Y0255129D01*
X0066367Y0255129D02*
X0072632Y0255129D01*
X0071277Y0254131D02*
X0068157Y0254131D01*
X0069105Y0253132D02*
X0070505Y0253132D01*
X0070063Y0252134D02*
X0069519Y0252134D01*
X0069800Y0251135D02*
X0069836Y0251135D01*
X0065340Y0243147D02*
X0054616Y0243147D01*
X0055614Y0242149D02*
X0066339Y0242149D01*
X0067337Y0241150D02*
X0056613Y0241150D01*
X0057611Y0240152D02*
X0068336Y0240152D01*
X0069334Y0239153D02*
X0058610Y0239153D01*
X0059608Y0238155D02*
X0070333Y0238155D01*
X0071331Y0237156D02*
X0060607Y0237156D01*
X0061605Y0236158D02*
X0072330Y0236158D01*
X0073328Y0235159D02*
X0062604Y0235159D01*
X0063602Y0234161D02*
X0074327Y0234161D01*
X0075325Y0233162D02*
X0064601Y0233162D01*
X0065599Y0232164D02*
X0076324Y0232164D01*
X0077322Y0231165D02*
X0066598Y0231165D01*
X0067596Y0230167D02*
X0078321Y0230167D01*
X0078650Y0229168D02*
X0068595Y0229168D01*
X0069593Y0228170D02*
X0078650Y0228170D01*
X0078650Y0227171D02*
X0070592Y0227171D01*
X0071590Y0226172D02*
X0078650Y0226172D01*
X0078650Y0225174D02*
X0072589Y0225174D01*
X0073587Y0224175D02*
X0078650Y0224175D01*
X0078650Y0223177D02*
X0074586Y0223177D01*
X0075584Y0222178D02*
X0078405Y0222178D01*
X0077900Y0221180D02*
X0076583Y0221180D01*
X0077581Y0220181D02*
X0077900Y0220181D01*
X0079578Y0218184D02*
X0091672Y0218184D01*
X0090673Y0217186D02*
X0080577Y0217186D01*
X0081575Y0216187D02*
X0089675Y0216187D01*
X0088676Y0215189D02*
X0082574Y0215189D01*
X0083572Y0214190D02*
X0087678Y0214190D01*
X0087150Y0213192D02*
X0084571Y0213192D01*
X0085569Y0212193D02*
X0086469Y0212193D01*
X0094200Y0216187D02*
X0101835Y0216187D01*
X0101835Y0217186D02*
X0095199Y0217186D01*
X0096197Y0218184D02*
X0101835Y0218184D01*
X0101835Y0219183D02*
X0097196Y0219183D01*
X0098194Y0220181D02*
X0101835Y0220181D01*
X0101894Y0221180D02*
X0099193Y0221180D01*
X0100191Y0222178D02*
X0104871Y0222178D01*
X0105869Y0223177D02*
X0101190Y0223177D01*
X0111050Y0217900D02*
X0106150Y0213000D01*
X0107019Y0203207D02*
X0108694Y0203207D01*
X0106031Y0190226D02*
X0117150Y0190226D01*
X0117150Y0189228D02*
X0106031Y0189228D01*
X0106031Y0188229D02*
X0117150Y0188229D01*
X0117150Y0187231D02*
X0106031Y0187231D01*
X0106031Y0186232D02*
X0117150Y0186232D01*
X0117150Y0185234D02*
X0106031Y0185234D01*
X0105608Y0184235D02*
X0117150Y0184235D01*
X0117150Y0183237D02*
X0095850Y0183237D01*
X0096482Y0182238D02*
X0117150Y0182238D01*
X0121350Y0181239D02*
X0121450Y0181239D01*
X0121450Y0180241D02*
X0121350Y0180241D01*
X0121350Y0179242D02*
X0121450Y0179242D01*
X0121450Y0178244D02*
X0121350Y0178244D01*
X0121350Y0177245D02*
X0121450Y0177245D01*
X0121450Y0176247D02*
X0121350Y0176247D01*
X0121350Y0175248D02*
X0121450Y0175248D01*
X0121450Y0174250D02*
X0121350Y0174250D01*
X0121350Y0173251D02*
X0121450Y0173251D01*
X0121450Y0172253D02*
X0121350Y0172253D01*
X0121350Y0171254D02*
X0121450Y0171254D01*
X0121450Y0170256D02*
X0121350Y0170256D01*
X0121350Y0169257D02*
X0121450Y0169257D01*
X0121450Y0168259D02*
X0121350Y0168259D01*
X0121350Y0167260D02*
X0121450Y0167260D01*
X0121450Y0166262D02*
X0121350Y0166262D01*
X0121350Y0165263D02*
X0121450Y0165263D01*
X0121450Y0164265D02*
X0121350Y0164265D01*
X0121350Y0163266D02*
X0121450Y0163266D01*
X0121450Y0162268D02*
X0121350Y0162268D01*
X0121350Y0161269D02*
X0121450Y0161269D01*
X0121450Y0160271D02*
X0121350Y0160271D01*
X0121350Y0159272D02*
X0121450Y0159272D01*
X0121450Y0158274D02*
X0121350Y0158274D01*
X0121350Y0157275D02*
X0121450Y0157275D01*
X0121450Y0156277D02*
X0121350Y0156277D01*
X0121350Y0155278D02*
X0121450Y0155278D01*
X0121450Y0154280D02*
X0121350Y0154280D01*
X0121350Y0153281D02*
X0121450Y0153281D01*
X0121450Y0152283D02*
X0121350Y0152283D01*
X0121350Y0151284D02*
X0121450Y0151284D01*
X0121450Y0150286D02*
X0121350Y0150286D01*
X0121350Y0149287D02*
X0121450Y0149287D01*
X0121450Y0148289D02*
X0121350Y0148289D01*
X0121350Y0147290D02*
X0121450Y0147290D01*
X0121450Y0146292D02*
X0121350Y0146292D01*
X0121350Y0145293D02*
X0121450Y0145293D01*
X0121450Y0144295D02*
X0121350Y0144295D01*
X0121350Y0143296D02*
X0121450Y0143296D01*
X0121450Y0142298D02*
X0121350Y0142298D01*
X0121350Y0141299D02*
X0121450Y0141299D01*
X0121450Y0140301D02*
X0121350Y0140301D01*
X0121350Y0139302D02*
X0121450Y0139302D01*
X0121450Y0138303D02*
X0121350Y0138303D01*
X0121350Y0137305D02*
X0121450Y0137305D01*
X0121450Y0136306D02*
X0121350Y0136306D01*
X0121350Y0135308D02*
X0121450Y0135308D01*
X0121450Y0134309D02*
X0121350Y0134309D01*
X0121350Y0133311D02*
X0121450Y0133311D01*
X0121450Y0132312D02*
X0121350Y0132312D01*
X0121350Y0131314D02*
X0121450Y0131314D01*
X0121450Y0130315D02*
X0121350Y0130315D01*
X0121350Y0129317D02*
X0121450Y0129317D01*
X0121450Y0128318D02*
X0121350Y0128318D01*
X0121350Y0127320D02*
X0121450Y0127320D01*
X0121450Y0126321D02*
X0121350Y0126321D01*
X0121350Y0125323D02*
X0121450Y0125323D01*
X0121450Y0124324D02*
X0121350Y0124324D01*
X0121350Y0123326D02*
X0121450Y0123326D01*
X0121450Y0122327D02*
X0121350Y0122327D01*
X0121350Y0121329D02*
X0121450Y0121329D01*
X0121450Y0120330D02*
X0121350Y0120330D01*
X0121350Y0119332D02*
X0121450Y0119332D01*
X0121450Y0118333D02*
X0121350Y0118333D01*
X0121350Y0117335D02*
X0121450Y0117335D01*
X0121450Y0116336D02*
X0121350Y0116336D01*
X0121350Y0115338D02*
X0121450Y0115338D01*
X0121450Y0114339D02*
X0121350Y0114339D01*
X0121350Y0113341D02*
X0121450Y0113341D01*
X0121450Y0112342D02*
X0121350Y0112342D01*
X0121350Y0111344D02*
X0121450Y0111344D01*
X0121350Y0110345D02*
X0122142Y0110345D01*
X0121350Y0109347D02*
X0123141Y0109347D01*
X0124139Y0108348D02*
X0121350Y0108348D01*
X0121350Y0107350D02*
X0128733Y0107350D01*
X0128733Y0106351D02*
X0121350Y0106351D01*
X0121350Y0105353D02*
X0238950Y0105353D01*
X0238950Y0106351D02*
X0146681Y0106351D01*
X0146681Y0107350D02*
X0238950Y0107350D01*
X0238950Y0108348D02*
X0146681Y0108348D01*
X0146681Y0109347D02*
X0238950Y0109347D01*
X0238950Y0110345D02*
X0146681Y0110345D01*
X0146681Y0111344D02*
X0238950Y0111344D01*
X0238950Y0112342D02*
X0146267Y0112342D01*
X0146411Y0115338D02*
X0238950Y0115338D01*
X0238950Y0116336D02*
X0147065Y0116336D01*
X0147081Y0117335D02*
X0238950Y0117335D01*
X0238950Y0118333D02*
X0147081Y0118333D01*
X0146681Y0127320D02*
X0238950Y0127320D01*
X0238950Y0128318D02*
X0146681Y0128318D01*
X0146681Y0129317D02*
X0238950Y0129317D01*
X0238950Y0130315D02*
X0146681Y0130315D01*
X0146681Y0131314D02*
X0238950Y0131314D01*
X0238950Y0132312D02*
X0126850Y0132312D01*
X0126850Y0133311D02*
X0238950Y0133311D01*
X0238950Y0134309D02*
X0126850Y0134309D01*
X0127699Y0131314D02*
X0128733Y0131314D01*
X0127955Y0128795D02*
X0125250Y0131500D01*
X0127955Y0128795D02*
X0137707Y0128795D01*
X0137207Y0122327D02*
X0138207Y0122327D01*
X0138207Y0121329D02*
X0137207Y0121329D01*
X0137207Y0120330D02*
X0138207Y0120330D01*
X0137207Y0119332D02*
X0124650Y0119332D01*
X0124650Y0120330D02*
X0128333Y0120330D01*
X0128333Y0121329D02*
X0124650Y0121329D01*
X0124650Y0122327D02*
X0128724Y0122327D01*
X0128333Y0118333D02*
X0124650Y0118333D01*
X0124650Y0117335D02*
X0128333Y0117335D01*
X0128348Y0116336D02*
X0124650Y0116336D01*
X0124650Y0115338D02*
X0129003Y0115338D01*
X0129147Y0112342D02*
X0124671Y0112342D01*
X0124650Y0113341D02*
X0238950Y0113341D01*
X0238950Y0114339D02*
X0124650Y0114339D01*
X0125669Y0111344D02*
X0128733Y0111344D01*
X0129377Y0105289D02*
X0128733Y0104645D01*
X0128733Y0100977D01*
X0129377Y0100333D01*
X0146036Y0100333D01*
X0146681Y0100977D01*
X0146681Y0104645D01*
X0146036Y0105289D01*
X0129377Y0105289D01*
X0128733Y0104354D02*
X0121350Y0104354D01*
X0121350Y0103356D02*
X0128733Y0103356D01*
X0128733Y0102357D02*
X0121350Y0102357D01*
X0121350Y0101359D02*
X0128733Y0101359D01*
X0129350Y0100360D02*
X0121350Y0100360D01*
X0121350Y0099362D02*
X0128733Y0099362D01*
X0128733Y0099527D02*
X0128733Y0095859D01*
X0129261Y0095331D01*
X0128733Y0094802D01*
X0128733Y0091135D01*
X0129377Y0090491D01*
X0138575Y0090491D01*
X0138575Y0081883D01*
X0139220Y0081239D01*
X0151154Y0081239D01*
X0151799Y0081883D01*
X0151799Y0090668D01*
X0151154Y0091313D01*
X0150702Y0091313D01*
X0151877Y0091799D01*
X0153049Y0092971D01*
X0153683Y0094502D01*
X0153683Y0096159D01*
X0153049Y0097690D01*
X0151877Y0098862D01*
X0150346Y0099496D01*
X0148689Y0099496D01*
X0147158Y0098862D01*
X0146681Y0098384D01*
X0146681Y0099527D01*
X0146036Y0100171D01*
X0129377Y0100171D01*
X0128733Y0099527D01*
X0128733Y0098363D02*
X0121350Y0098363D01*
X0121350Y0097365D02*
X0128733Y0097365D01*
X0128733Y0096366D02*
X0121350Y0096366D01*
X0121350Y0095368D02*
X0129224Y0095368D01*
X0128733Y0094369D02*
X0121350Y0094369D01*
X0121350Y0093370D02*
X0128733Y0093370D01*
X0128733Y0092372D02*
X0121350Y0092372D01*
X0121350Y0091373D02*
X0128733Y0091373D01*
X0124590Y0087379D02*
X0138575Y0087379D01*
X0138575Y0086381D02*
X0125589Y0086381D01*
X0126587Y0085382D02*
X0138575Y0085382D01*
X0138575Y0084384D02*
X0127586Y0084384D01*
X0128584Y0083385D02*
X0138575Y0083385D01*
X0138575Y0082387D02*
X0129583Y0082387D01*
X0130581Y0081388D02*
X0139070Y0081388D01*
X0134576Y0077394D02*
X0238950Y0077394D01*
X0238950Y0076396D02*
X0135574Y0076396D01*
X0136573Y0075397D02*
X0238950Y0075397D01*
X0238950Y0074399D02*
X0153321Y0074399D01*
X0154320Y0073400D02*
X0238950Y0073400D01*
X0238950Y0072402D02*
X0155318Y0072402D01*
X0154350Y0073370D02*
X0154350Y0073370D01*
X0156317Y0071403D02*
X0238950Y0071403D01*
X0238950Y0070405D02*
X0157315Y0070405D01*
X0158314Y0069406D02*
X0238950Y0069406D01*
X0238950Y0068408D02*
X0160161Y0068408D01*
X0160796Y0067409D02*
X0238950Y0067409D01*
X0238950Y0066411D02*
X0224102Y0066411D01*
X0225101Y0065412D02*
X0238950Y0065412D01*
X0238950Y0064414D02*
X0226099Y0064414D01*
X0227098Y0063415D02*
X0238950Y0063415D01*
X0238950Y0062417D02*
X0228096Y0062417D01*
X0229095Y0061418D02*
X0238950Y0061418D01*
X0238950Y0060420D02*
X0230093Y0060420D01*
X0231092Y0059421D02*
X0238950Y0059421D01*
X0238950Y0058423D02*
X0231362Y0058423D01*
X0231362Y0057424D02*
X0238950Y0057424D01*
X0238950Y0056426D02*
X0231362Y0056426D01*
X0231362Y0055427D02*
X0238950Y0055427D01*
X0238950Y0054429D02*
X0231362Y0054429D01*
X0231362Y0053430D02*
X0238950Y0053430D01*
X0238950Y0052432D02*
X0231362Y0052432D01*
X0231362Y0051433D02*
X0238950Y0051433D01*
X0238950Y0050434D02*
X0231362Y0050434D01*
X0231362Y0049436D02*
X0238950Y0049436D01*
X0238950Y0048437D02*
X0231362Y0048437D01*
X0231362Y0047439D02*
X0238950Y0047439D01*
X0238950Y0046440D02*
X0231362Y0046440D01*
X0231362Y0045442D02*
X0238950Y0045442D01*
X0238950Y0044443D02*
X0231362Y0044443D01*
X0231362Y0043445D02*
X0238950Y0043445D01*
X0238950Y0042446D02*
X0231362Y0042446D01*
X0231362Y0041448D02*
X0238950Y0041448D01*
X0238950Y0040449D02*
X0231362Y0040449D01*
X0231362Y0039451D02*
X0238950Y0039451D01*
X0238950Y0038452D02*
X0231362Y0038452D01*
X0231362Y0037454D02*
X0238950Y0037454D01*
X0238950Y0036455D02*
X0231362Y0036455D01*
X0232196Y0035457D02*
X0238950Y0035457D01*
X0238950Y0034458D02*
X0232461Y0034458D01*
X0232461Y0033460D02*
X0238950Y0033460D01*
X0238950Y0032461D02*
X0232461Y0032461D01*
X0232461Y0031463D02*
X0238950Y0031463D01*
X0238950Y0030464D02*
X0232461Y0030464D01*
X0231362Y0029466D02*
X0238950Y0029466D01*
X0238950Y0028467D02*
X0231362Y0028467D01*
X0231362Y0027469D02*
X0238950Y0027469D01*
X0238950Y0026470D02*
X0231362Y0026470D01*
X0231362Y0025472D02*
X0238950Y0025472D01*
X0238950Y0024473D02*
X0231362Y0024473D01*
X0231362Y0023475D02*
X0238950Y0023475D01*
X0238950Y0022476D02*
X0231362Y0022476D01*
X0231362Y0021478D02*
X0238950Y0021478D01*
X0238932Y0020479D02*
X0231362Y0020479D01*
X0231834Y0019481D02*
X0238867Y0019481D01*
X0238658Y0018482D02*
X0232461Y0018482D01*
X0232461Y0017484D02*
X0238390Y0017484D01*
X0238122Y0016485D02*
X0232461Y0016485D01*
X0232461Y0015487D02*
X0237641Y0015487D01*
X0237064Y0014488D02*
X0232461Y0014488D01*
X0232143Y0013490D02*
X0236488Y0013490D01*
X0235495Y0012491D02*
X0106834Y0012491D01*
X0105836Y0011493D02*
X0234497Y0011493D01*
X0232930Y0010494D02*
X0037460Y0010494D01*
X0036139Y0011493D02*
X0063299Y0011493D01*
X0062554Y0012237D02*
X0062554Y0012237D01*
X0062300Y0012491D02*
X0035414Y0012491D01*
X0034688Y0013490D02*
X0061302Y0013490D01*
X0060303Y0014488D02*
X0034293Y0014488D01*
X0033969Y0015487D02*
X0059305Y0015487D01*
X0058330Y0018725D02*
X0064154Y0012900D01*
X0104981Y0012900D01*
X0111468Y0019388D01*
X0111468Y0020218D01*
X0118650Y0027400D01*
X0133927Y0027400D01*
X0163688Y0027400D01*
X0196788Y0060500D01*
X0200000Y0060500D01*
X0196288Y0057424D02*
X0195975Y0057424D01*
X0194977Y0056426D02*
X0197294Y0056426D01*
X0193978Y0055427D02*
X0208400Y0055427D01*
X0208400Y0054429D02*
X0192980Y0054429D01*
X0191981Y0053430D02*
X0208400Y0053430D01*
X0208400Y0052432D02*
X0190982Y0052432D01*
X0189984Y0051433D02*
X0208400Y0051433D01*
X0208400Y0050434D02*
X0188985Y0050434D01*
X0187987Y0049436D02*
X0208400Y0049436D01*
X0208400Y0048437D02*
X0186988Y0048437D01*
X0185990Y0047439D02*
X0208400Y0047439D01*
X0208400Y0046440D02*
X0184991Y0046440D01*
X0183993Y0045442D02*
X0208400Y0045442D01*
X0208400Y0044443D02*
X0182994Y0044443D01*
X0181996Y0043445D02*
X0208400Y0043445D01*
X0207729Y0042446D02*
X0180997Y0042446D01*
X0179999Y0041448D02*
X0206730Y0041448D01*
X0205732Y0040449D02*
X0179000Y0040449D01*
X0178002Y0039451D02*
X0204733Y0039451D01*
X0203735Y0038452D02*
X0177003Y0038452D01*
X0176005Y0037454D02*
X0202736Y0037454D01*
X0201738Y0036455D02*
X0175006Y0036455D01*
X0174008Y0035457D02*
X0200739Y0035457D01*
X0199741Y0034458D02*
X0173009Y0034458D01*
X0172011Y0033460D02*
X0198742Y0033460D01*
X0197744Y0032461D02*
X0171012Y0032461D01*
X0170014Y0031463D02*
X0196745Y0031463D01*
X0195747Y0030464D02*
X0169015Y0030464D01*
X0168017Y0029466D02*
X0194748Y0029466D01*
X0193750Y0028467D02*
X0167018Y0028467D01*
X0166020Y0027469D02*
X0192751Y0027469D01*
X0191753Y0026470D02*
X0190373Y0026470D01*
X0187718Y0026470D02*
X0177626Y0026470D01*
X0177377Y0026597D02*
X0176554Y0026865D01*
X0175766Y0026989D01*
X0175766Y0022000D01*
X0180755Y0022000D01*
X0180630Y0022788D01*
X0180363Y0023611D01*
X0179970Y0024383D01*
X0179461Y0025083D01*
X0178849Y0025695D01*
X0178148Y0026204D01*
X0177377Y0026597D01*
X0175766Y0026470D02*
X0174766Y0026470D01*
X0174766Y0026989D02*
X0173978Y0026865D01*
X0173154Y0026597D01*
X0172383Y0026204D01*
X0171683Y0025695D01*
X0171071Y0025083D01*
X0170562Y0024383D01*
X0170169Y0023611D01*
X0169901Y0022788D01*
X0169776Y0022000D01*
X0174766Y0022000D01*
X0174766Y0026989D01*
X0174766Y0025472D02*
X0175766Y0025472D01*
X0175766Y0024473D02*
X0174766Y0024473D01*
X0174766Y0023475D02*
X0175766Y0023475D01*
X0175766Y0022476D02*
X0174766Y0022476D01*
X0174766Y0022000D02*
X0175766Y0022000D01*
X0175766Y0021000D01*
X0180755Y0021000D01*
X0180630Y0020212D01*
X0180363Y0019389D01*
X0179970Y0018617D01*
X0179461Y0017917D01*
X0178849Y0017305D01*
X0178148Y0016796D01*
X0177377Y0016403D01*
X0176554Y0016135D01*
X0175766Y0016011D01*
X0175766Y0021000D01*
X0174766Y0021000D01*
X0174766Y0016011D01*
X0173978Y0016135D01*
X0173154Y0016403D01*
X0172383Y0016796D01*
X0171683Y0017305D01*
X0171071Y0017917D01*
X0170562Y0018617D01*
X0170169Y0019389D01*
X0169901Y0020212D01*
X0169776Y0021000D01*
X0174766Y0021000D01*
X0174766Y0022000D01*
X0174766Y0021478D02*
X0166586Y0021478D01*
X0166586Y0022476D02*
X0169852Y0022476D01*
X0170124Y0023475D02*
X0166586Y0023475D01*
X0166586Y0024473D02*
X0170628Y0024473D01*
X0171459Y0025472D02*
X0166586Y0025472D01*
X0166072Y0026470D02*
X0172906Y0026470D01*
X0175766Y0021478D02*
X0183945Y0021478D01*
X0183945Y0022476D02*
X0180680Y0022476D01*
X0180407Y0023475D02*
X0184343Y0023475D01*
X0184806Y0024473D02*
X0179904Y0024473D01*
X0179072Y0025472D02*
X0185805Y0025472D01*
X0189045Y0021500D02*
X0210000Y0042455D01*
X0210000Y0060500D01*
X0205665Y0058423D02*
X0204335Y0058423D01*
X0204749Y0059421D02*
X0205251Y0059421D01*
X0205200Y0060420D02*
X0204800Y0060420D01*
X0204800Y0061418D02*
X0205200Y0061418D01*
X0205598Y0062417D02*
X0204402Y0062417D01*
X0203873Y0063415D02*
X0206127Y0063415D01*
X0206288Y0057424D02*
X0203712Y0057424D01*
X0202706Y0056426D02*
X0207294Y0056426D01*
X0211600Y0055427D02*
X0228162Y0055427D01*
X0228162Y0054429D02*
X0211600Y0054429D01*
X0211600Y0053430D02*
X0228162Y0053430D01*
X0228162Y0052432D02*
X0211600Y0052432D01*
X0211600Y0051433D02*
X0228162Y0051433D01*
X0228162Y0050434D02*
X0211600Y0050434D01*
X0211600Y0049436D02*
X0228162Y0049436D01*
X0228162Y0048437D02*
X0211600Y0048437D01*
X0211600Y0047439D02*
X0228162Y0047439D01*
X0228162Y0046440D02*
X0211600Y0046440D01*
X0211600Y0045442D02*
X0228162Y0045442D01*
X0228162Y0044443D02*
X0211600Y0044443D01*
X0211600Y0043445D02*
X0228162Y0043445D01*
X0228162Y0042446D02*
X0211600Y0042446D01*
X0211256Y0041448D02*
X0228162Y0041448D01*
X0228162Y0040449D02*
X0210257Y0040449D01*
X0209259Y0039451D02*
X0228162Y0039451D01*
X0228162Y0038452D02*
X0208260Y0038452D01*
X0207262Y0037454D02*
X0228162Y0037454D01*
X0228162Y0036455D02*
X0206263Y0036455D01*
X0205265Y0035457D02*
X0215823Y0035457D01*
X0215741Y0035315D02*
X0215639Y0034934D01*
X0215639Y0032969D01*
X0218438Y0032969D01*
X0218438Y0032370D01*
X0215639Y0032370D01*
X0215639Y0030405D01*
X0215741Y0030023D01*
X0215938Y0029681D01*
X0216218Y0029402D01*
X0216560Y0029205D01*
X0216941Y0029102D01*
X0218438Y0029102D01*
X0218438Y0032370D01*
X0219038Y0032370D01*
X0219038Y0032969D01*
X0221838Y0032969D01*
X0221838Y0034934D01*
X0221735Y0035315D01*
X0221538Y0035657D01*
X0221259Y0035937D01*
X0220917Y0036134D01*
X0220535Y0036236D01*
X0219038Y0036236D01*
X0219038Y0032969D01*
X0218438Y0032969D01*
X0218438Y0036236D01*
X0216941Y0036236D01*
X0216560Y0036134D01*
X0216218Y0035937D01*
X0215938Y0035657D01*
X0215741Y0035315D01*
X0215639Y0034458D02*
X0204266Y0034458D01*
X0203268Y0033460D02*
X0215639Y0033460D01*
X0215639Y0031463D02*
X0201271Y0031463D01*
X0202269Y0032461D02*
X0218438Y0032461D01*
X0219038Y0032461D02*
X0227062Y0032461D01*
X0227062Y0031463D02*
X0221838Y0031463D01*
X0221838Y0032370D02*
X0221838Y0030405D01*
X0221735Y0030023D01*
X0221538Y0029681D01*
X0221259Y0029402D01*
X0220917Y0029205D01*
X0220535Y0029102D01*
X0219038Y0029102D01*
X0219038Y0032370D01*
X0221838Y0032370D01*
X0221838Y0033460D02*
X0227062Y0033460D01*
X0227062Y0034458D02*
X0221838Y0034458D01*
X0221654Y0035457D02*
X0227327Y0035457D01*
X0229762Y0032669D02*
X0229762Y0016331D01*
X0227062Y0016485D02*
X0219038Y0016485D01*
X0219038Y0016630D02*
X0221838Y0016630D01*
X0221838Y0018595D01*
X0221735Y0018977D01*
X0221538Y0019319D01*
X0221259Y0019598D01*
X0220917Y0019795D01*
X0220535Y0019898D01*
X0219038Y0019898D01*
X0219038Y0016630D01*
X0219038Y0016031D01*
X0221838Y0016031D01*
X0221838Y0014066D01*
X0221735Y0013685D01*
X0221538Y0013343D01*
X0221259Y0013063D01*
X0220917Y0012866D01*
X0220535Y0012764D01*
X0219038Y0012764D01*
X0219038Y0016031D01*
X0218438Y0016031D01*
X0215639Y0016031D01*
X0215639Y0014066D01*
X0215741Y0013685D01*
X0215938Y0013343D01*
X0216218Y0013063D01*
X0216560Y0012866D01*
X0216941Y0012764D01*
X0218438Y0012764D01*
X0218438Y0016031D01*
X0218438Y0016630D01*
X0215639Y0016630D01*
X0215639Y0018595D01*
X0215741Y0018977D01*
X0215938Y0019319D01*
X0216218Y0019598D01*
X0216560Y0019795D01*
X0216941Y0019898D01*
X0218438Y0019898D01*
X0218438Y0016630D01*
X0219038Y0016630D01*
X0218438Y0016485D02*
X0204045Y0016485D01*
X0203839Y0016400D02*
X0205714Y0017176D01*
X0207148Y0018611D01*
X0207925Y0020486D01*
X0207925Y0022514D01*
X0207148Y0024389D01*
X0205714Y0025824D01*
X0203839Y0026600D01*
X0201810Y0026600D01*
X0199936Y0025824D01*
X0198501Y0024389D01*
X0197725Y0022514D01*
X0197725Y0020486D01*
X0198501Y0018611D01*
X0199936Y0017176D01*
X0201810Y0016400D01*
X0203839Y0016400D01*
X0201605Y0016485D02*
X0190265Y0016485D01*
X0192241Y0017484D02*
X0199629Y0017484D01*
X0198630Y0018482D02*
X0193240Y0018482D01*
X0193729Y0019481D02*
X0198141Y0019481D01*
X0197727Y0020479D02*
X0194143Y0020479D01*
X0194145Y0021478D02*
X0197725Y0021478D01*
X0197725Y0022476D02*
X0194145Y0022476D01*
X0193748Y0023475D02*
X0198123Y0023475D01*
X0198586Y0024473D02*
X0194281Y0024473D01*
X0195280Y0025472D02*
X0199584Y0025472D01*
X0201497Y0026470D02*
X0196278Y0026470D01*
X0197277Y0027469D02*
X0228162Y0027469D01*
X0228162Y0028467D02*
X0198275Y0028467D01*
X0199274Y0029466D02*
X0216154Y0029466D01*
X0215639Y0030464D02*
X0200272Y0030464D01*
X0204153Y0026470D02*
X0228162Y0026470D01*
X0228162Y0025472D02*
X0206066Y0025472D01*
X0207064Y0024473D02*
X0228162Y0024473D01*
X0228162Y0023475D02*
X0207527Y0023475D01*
X0207925Y0022476D02*
X0228162Y0022476D01*
X0228162Y0021478D02*
X0207925Y0021478D01*
X0207922Y0020479D02*
X0228162Y0020479D01*
X0227690Y0019481D02*
X0221376Y0019481D01*
X0221838Y0018482D02*
X0227062Y0018482D01*
X0227062Y0017484D02*
X0221838Y0017484D01*
X0221838Y0015487D02*
X0227062Y0015487D01*
X0227062Y0014488D02*
X0221838Y0014488D01*
X0221623Y0013490D02*
X0227381Y0013490D01*
X0230772Y0009496D02*
X0039303Y0009496D01*
X0033686Y0016485D02*
X0046709Y0016485D01*
X0046150Y0017484D02*
X0033607Y0017484D01*
X0033589Y0018482D02*
X0046150Y0018482D01*
X0046150Y0019481D02*
X0033589Y0019481D01*
X0033589Y0020479D02*
X0046150Y0020479D01*
X0046150Y0021478D02*
X0033589Y0021478D01*
X0033589Y0022476D02*
X0046150Y0022476D01*
X0046150Y0023475D02*
X0033589Y0023475D01*
X0033589Y0024473D02*
X0046150Y0024473D01*
X0046150Y0025472D02*
X0033589Y0025472D01*
X0033589Y0026470D02*
X0046665Y0026470D01*
X0050650Y0027469D02*
X0033589Y0027469D01*
X0033589Y0028467D02*
X0050650Y0028467D01*
X0050650Y0029466D02*
X0033589Y0029466D01*
X0033589Y0030464D02*
X0050650Y0030464D01*
X0050650Y0031463D02*
X0033589Y0031463D01*
X0033589Y0032461D02*
X0050650Y0032461D01*
X0050650Y0033460D02*
X0033589Y0033460D01*
X0033589Y0034458D02*
X0050650Y0034458D01*
X0050650Y0035457D02*
X0033589Y0035457D01*
X0033589Y0036455D02*
X0050650Y0036455D01*
X0050650Y0037454D02*
X0033589Y0037454D01*
X0033589Y0038452D02*
X0050650Y0038452D01*
X0050650Y0039451D02*
X0033589Y0039451D01*
X0033589Y0040449D02*
X0050650Y0040449D01*
X0050650Y0041448D02*
X0033589Y0041448D01*
X0033589Y0042446D02*
X0050650Y0042446D01*
X0050650Y0043445D02*
X0033589Y0043445D01*
X0033589Y0044443D02*
X0050650Y0044443D01*
X0050650Y0045442D02*
X0033589Y0045442D01*
X0033589Y0046440D02*
X0050650Y0046440D01*
X0050650Y0047439D02*
X0033589Y0047439D01*
X0033589Y0048437D02*
X0050650Y0048437D01*
X0050650Y0049436D02*
X0033589Y0049436D01*
X0033589Y0050434D02*
X0044257Y0050434D01*
X0042485Y0051433D02*
X0033589Y0051433D01*
X0033589Y0052432D02*
X0041486Y0052432D01*
X0040958Y0053430D02*
X0033589Y0053430D01*
X0033589Y0054429D02*
X0040544Y0054429D01*
X0040400Y0055427D02*
X0033589Y0055427D01*
X0033589Y0056426D02*
X0040400Y0056426D01*
X0040532Y0057424D02*
X0033589Y0057424D01*
X0033589Y0058423D02*
X0040946Y0058423D01*
X0041457Y0059421D02*
X0033589Y0059421D01*
X0033589Y0062417D02*
X0050650Y0062417D01*
X0050650Y0063415D02*
X0033589Y0063415D01*
X0048314Y0061418D02*
X0050650Y0061418D01*
X0050650Y0060420D02*
X0050044Y0060420D01*
X0050650Y0064414D02*
X0048725Y0064414D01*
X0050215Y0065412D02*
X0050650Y0065412D01*
X0050650Y0051433D02*
X0050015Y0051433D01*
X0050650Y0050434D02*
X0048243Y0050434D01*
X0059930Y0047680D02*
X0097250Y0085000D01*
X0097250Y0120500D01*
X0103904Y0120500D01*
X0100638Y0122327D02*
X0095372Y0122327D01*
X0094374Y0123326D02*
X0101040Y0123326D01*
X0097250Y0120500D02*
X0092250Y0120500D01*
X0095033Y0118333D02*
X0095650Y0118333D01*
X0095650Y0117335D02*
X0094034Y0117335D01*
X0099750Y0106500D02*
X0102750Y0106500D01*
X0100983Y0104354D02*
X0117150Y0104354D01*
X0117150Y0103356D02*
X0098850Y0103356D01*
X0098850Y0102357D02*
X0117150Y0102357D01*
X0117150Y0101359D02*
X0098850Y0101359D01*
X0098850Y0100360D02*
X0117150Y0100360D01*
X0117150Y0099362D02*
X0098850Y0099362D01*
X0098850Y0098363D02*
X0117150Y0098363D01*
X0117150Y0097365D02*
X0098850Y0097365D01*
X0098850Y0096366D02*
X0117150Y0096366D01*
X0117150Y0095368D02*
X0098850Y0095368D01*
X0098850Y0094369D02*
X0117150Y0094369D01*
X0117150Y0093370D02*
X0098850Y0093370D01*
X0098850Y0092372D02*
X0117150Y0092372D01*
X0117150Y0091373D02*
X0098850Y0091373D01*
X0098850Y0090375D02*
X0116905Y0090375D01*
X0115907Y0089376D02*
X0098850Y0089376D01*
X0098850Y0088378D02*
X0114908Y0088378D01*
X0113910Y0087379D02*
X0098850Y0087379D01*
X0098850Y0086381D02*
X0112911Y0086381D01*
X0111913Y0085382D02*
X0098850Y0085382D01*
X0098850Y0084384D02*
X0110914Y0084384D01*
X0109916Y0083385D02*
X0097898Y0083385D01*
X0096900Y0082387D02*
X0108917Y0082387D01*
X0107919Y0081388D02*
X0095901Y0081388D01*
X0094903Y0080390D02*
X0106920Y0080390D01*
X0105921Y0079391D02*
X0093904Y0079391D01*
X0092906Y0078393D02*
X0104923Y0078393D01*
X0103924Y0077394D02*
X0091907Y0077394D01*
X0090909Y0076396D02*
X0102926Y0076396D01*
X0101927Y0075397D02*
X0089910Y0075397D01*
X0088912Y0074399D02*
X0100929Y0074399D01*
X0099930Y0073400D02*
X0087913Y0073400D01*
X0086914Y0072402D02*
X0098932Y0072402D01*
X0097933Y0071403D02*
X0085916Y0071403D01*
X0084917Y0070405D02*
X0096935Y0070405D01*
X0095936Y0069406D02*
X0083919Y0069406D01*
X0082920Y0068408D02*
X0094938Y0068408D01*
X0093939Y0067409D02*
X0081922Y0067409D01*
X0080923Y0066411D02*
X0092941Y0066411D01*
X0091942Y0065412D02*
X0081709Y0065412D01*
X0081996Y0065319D02*
X0081218Y0065572D01*
X0080500Y0065686D01*
X0080500Y0061000D01*
X0079500Y0061000D01*
X0079500Y0060000D01*
X0080500Y0060000D01*
X0080500Y0061000D01*
X0085186Y0061000D01*
X0085072Y0061718D01*
X0084819Y0062496D01*
X0084447Y0063225D01*
X0083966Y0063888D01*
X0083388Y0064466D01*
X0082725Y0064947D01*
X0081996Y0065319D01*
X0080500Y0065412D02*
X0079925Y0065412D01*
X0079500Y0064414D02*
X0080500Y0064414D01*
X0080500Y0063415D02*
X0079500Y0063415D01*
X0079500Y0062417D02*
X0080500Y0062417D01*
X0080500Y0061418D02*
X0079500Y0061418D01*
X0079500Y0060420D02*
X0074932Y0060420D01*
X0074814Y0060000D02*
X0074928Y0059282D01*
X0075181Y0058504D01*
X0075553Y0057775D01*
X0076034Y0057112D01*
X0076612Y0056534D01*
X0077275Y0056053D01*
X0078004Y0055681D01*
X0078782Y0055428D01*
X0079500Y0055314D01*
X0079500Y0060000D01*
X0074814Y0060000D01*
X0074906Y0059421D02*
X0073934Y0059421D01*
X0072935Y0058423D02*
X0075222Y0058423D01*
X0075807Y0057424D02*
X0071937Y0057424D01*
X0070938Y0056426D02*
X0076761Y0056426D01*
X0078789Y0055427D02*
X0069940Y0055427D01*
X0068941Y0054429D02*
X0103809Y0054429D01*
X0103900Y0054337D02*
X0103900Y0054337D01*
X0104807Y0053430D02*
X0067943Y0053430D01*
X0066944Y0052432D02*
X0169669Y0052432D01*
X0170667Y0053430D02*
X0152943Y0053430D01*
X0153941Y0054429D02*
X0171666Y0054429D01*
X0172664Y0055427D02*
X0154940Y0055427D01*
X0155938Y0056426D02*
X0167294Y0056426D01*
X0166288Y0057424D02*
X0156937Y0057424D01*
X0157935Y0058423D02*
X0165665Y0058423D01*
X0165251Y0059421D02*
X0158934Y0059421D01*
X0159932Y0060420D02*
X0165200Y0060420D01*
X0165200Y0061418D02*
X0160931Y0061418D01*
X0161929Y0062417D02*
X0165598Y0062417D01*
X0166127Y0063415D02*
X0162928Y0063415D01*
X0162750Y0065500D02*
X0222750Y0065500D01*
X0229762Y0058488D01*
X0229762Y0032669D01*
X0227062Y0030464D02*
X0221838Y0030464D01*
X0221322Y0029466D02*
X0228162Y0029466D01*
X0219038Y0029466D02*
X0218438Y0029466D01*
X0218438Y0030464D02*
X0219038Y0030464D01*
X0219038Y0031463D02*
X0218438Y0031463D01*
X0218438Y0033460D02*
X0219038Y0033460D01*
X0219038Y0034458D02*
X0218438Y0034458D01*
X0218438Y0035457D02*
X0219038Y0035457D01*
X0219038Y0019481D02*
X0218438Y0019481D01*
X0218438Y0018482D02*
X0219038Y0018482D01*
X0219038Y0017484D02*
X0218438Y0017484D01*
X0218438Y0015487D02*
X0219038Y0015487D01*
X0219038Y0014488D02*
X0218438Y0014488D01*
X0218438Y0013490D02*
X0219038Y0013490D01*
X0215854Y0013490D02*
X0107833Y0013490D01*
X0108831Y0014488D02*
X0215639Y0014488D01*
X0215639Y0015487D02*
X0137389Y0015487D01*
X0138388Y0016485D02*
X0146487Y0016485D01*
X0144511Y0017484D02*
X0139386Y0017484D01*
X0140385Y0018482D02*
X0143512Y0018482D01*
X0143023Y0019481D02*
X0141383Y0019481D01*
X0141140Y0021500D02*
X0136040Y0016400D01*
X0131815Y0016400D01*
X0126715Y0021500D01*
X0120148Y0021500D01*
X0123344Y0017484D02*
X0128468Y0017484D01*
X0127470Y0018482D02*
X0124342Y0018482D01*
X0124831Y0019481D02*
X0126471Y0019481D01*
X0129467Y0016485D02*
X0121368Y0016485D01*
X0118928Y0016485D02*
X0110828Y0016485D01*
X0109830Y0015487D02*
X0130465Y0015487D01*
X0133927Y0021500D02*
X0133927Y0027400D01*
X0141140Y0021500D02*
X0147707Y0021500D01*
X0150903Y0017484D02*
X0156386Y0017484D01*
X0156386Y0018482D02*
X0151901Y0018482D01*
X0152390Y0019481D02*
X0156386Y0019481D01*
X0156386Y0020479D02*
X0152804Y0020479D01*
X0152807Y0021478D02*
X0156386Y0021478D01*
X0156386Y0022476D02*
X0152807Y0022476D01*
X0152409Y0023475D02*
X0156386Y0023475D01*
X0156386Y0024473D02*
X0151946Y0024473D01*
X0150947Y0025472D02*
X0156386Y0025472D01*
X0155288Y0029000D02*
X0186788Y0060500D01*
X0190000Y0060500D01*
X0180000Y0060500D02*
X0150100Y0030600D01*
X0087909Y0030600D01*
X0078809Y0021500D01*
X0074570Y0024473D02*
X0069269Y0024473D01*
X0069732Y0023475D02*
X0074107Y0023475D01*
X0073709Y0022476D02*
X0072883Y0022476D01*
X0071597Y0021500D02*
X0076697Y0016400D01*
X0080922Y0016400D01*
X0086022Y0021500D01*
X0092589Y0021500D01*
X0099368Y0014500D02*
X0064817Y0014500D01*
X0059930Y0019388D01*
X0059930Y0047680D01*
X0061530Y0046440D02*
X0163678Y0046440D01*
X0162679Y0045442D02*
X0061530Y0045442D01*
X0061530Y0044443D02*
X0161681Y0044443D01*
X0160682Y0043445D02*
X0061530Y0043445D01*
X0061530Y0042446D02*
X0159684Y0042446D01*
X0158685Y0041448D02*
X0061530Y0041448D01*
X0061530Y0040449D02*
X0157687Y0040449D01*
X0156688Y0039451D02*
X0061530Y0039451D01*
X0061530Y0038452D02*
X0155690Y0038452D01*
X0154691Y0037454D02*
X0061530Y0037454D01*
X0061530Y0036455D02*
X0153693Y0036455D01*
X0152694Y0035457D02*
X0061530Y0035457D01*
X0061530Y0034458D02*
X0151696Y0034458D01*
X0150697Y0033460D02*
X0061530Y0033460D01*
X0061530Y0032461D02*
X0149699Y0032461D01*
X0155288Y0029000D02*
X0113868Y0029000D01*
X0106368Y0021500D01*
X0099368Y0014500D01*
X0111827Y0017484D02*
X0116952Y0017484D01*
X0115953Y0018482D02*
X0112825Y0018482D01*
X0113068Y0019481D02*
X0115464Y0019481D01*
X0115050Y0020479D02*
X0113992Y0020479D01*
X0114990Y0021478D02*
X0115048Y0021478D01*
X0105500Y0055000D02*
X0152250Y0055000D01*
X0162750Y0065500D01*
X0161398Y0066411D02*
X0160950Y0066411D01*
X0160950Y0065963D02*
X0160950Y0065963D01*
X0158787Y0063800D02*
X0154800Y0059813D01*
X0154800Y0061455D01*
X0154069Y0063219D01*
X0152719Y0064569D01*
X0150955Y0065300D01*
X0149045Y0065300D01*
X0147281Y0064569D01*
X0145931Y0063219D01*
X0145200Y0061455D01*
X0145200Y0059545D01*
X0145931Y0057781D01*
X0147112Y0056600D01*
X0143454Y0056600D01*
X0143966Y0057112D01*
X0144447Y0057775D01*
X0144819Y0058504D01*
X0145072Y0059282D01*
X0145186Y0060000D01*
X0140500Y0060000D01*
X0140500Y0061000D01*
X0139500Y0061000D01*
X0139500Y0065686D01*
X0138782Y0065572D01*
X0138004Y0065319D01*
X0137275Y0064947D01*
X0136612Y0064466D01*
X0136034Y0063888D01*
X0135553Y0063225D01*
X0135181Y0062496D01*
X0135000Y0061939D01*
X0134819Y0062496D01*
X0134447Y0063225D01*
X0133966Y0063888D01*
X0133388Y0064466D01*
X0132725Y0064947D01*
X0131996Y0065319D01*
X0131218Y0065572D01*
X0130500Y0065686D01*
X0130500Y0061000D01*
X0129500Y0061000D01*
X0129500Y0065686D01*
X0128782Y0065572D01*
X0128004Y0065319D01*
X0127275Y0064947D01*
X0126612Y0064466D01*
X0126034Y0063888D01*
X0125553Y0063225D01*
X0125181Y0062496D01*
X0124928Y0061718D01*
X0124814Y0061000D01*
X0129500Y0061000D01*
X0129500Y0060000D01*
X0124814Y0060000D01*
X0124928Y0059282D01*
X0125181Y0058504D01*
X0125553Y0057775D01*
X0126034Y0057112D01*
X0126546Y0056600D01*
X0122888Y0056600D01*
X0124069Y0057781D01*
X0124800Y0059545D01*
X0124800Y0061455D01*
X0124069Y0063219D01*
X0122719Y0064569D01*
X0120955Y0065300D01*
X0119045Y0065300D01*
X0117281Y0064569D01*
X0116362Y0063650D01*
X0112650Y0067363D01*
X0111713Y0068300D01*
X0102273Y0068300D01*
X0101523Y0069050D01*
X0101520Y0069050D01*
X0119250Y0086780D01*
X0134400Y0071630D01*
X0135630Y0070400D01*
X0151380Y0070400D01*
X0155550Y0066230D01*
X0155550Y0065963D01*
X0155961Y0064971D01*
X0156721Y0064211D01*
X0157713Y0063800D01*
X0158787Y0063800D01*
X0158787Y0063800D01*
X0158402Y0063415D02*
X0153873Y0063415D01*
X0154402Y0062417D02*
X0157404Y0062417D01*
X0156405Y0061418D02*
X0154800Y0061418D01*
X0154800Y0060420D02*
X0155407Y0060420D01*
X0156518Y0064414D02*
X0152875Y0064414D01*
X0155778Y0065412D02*
X0141709Y0065412D01*
X0141996Y0065319D02*
X0141218Y0065572D01*
X0140500Y0065686D01*
X0140500Y0061000D01*
X0145186Y0061000D01*
X0145072Y0061718D01*
X0144819Y0062496D01*
X0144447Y0063225D01*
X0143966Y0063888D01*
X0143388Y0064466D01*
X0142725Y0064947D01*
X0141996Y0065319D01*
X0140500Y0065412D02*
X0139500Y0065412D01*
X0139500Y0064414D02*
X0140500Y0064414D01*
X0140500Y0063415D02*
X0139500Y0063415D01*
X0139500Y0062417D02*
X0140500Y0062417D01*
X0140500Y0061418D02*
X0139500Y0061418D01*
X0139500Y0061000D02*
X0139500Y0060000D01*
X0134814Y0060000D01*
X0130500Y0060000D01*
X0130500Y0061000D01*
X0139500Y0061000D01*
X0139500Y0060420D02*
X0130500Y0060420D01*
X0130500Y0061418D02*
X0129500Y0061418D01*
X0129500Y0060420D02*
X0124800Y0060420D01*
X0124800Y0061418D02*
X0124881Y0061418D01*
X0125155Y0062417D02*
X0124402Y0062417D01*
X0123873Y0063415D02*
X0125690Y0063415D01*
X0126560Y0064414D02*
X0122875Y0064414D01*
X0120000Y0060500D02*
X0117250Y0060500D01*
X0111050Y0066700D01*
X0100550Y0066700D01*
X0102166Y0068408D02*
X0153372Y0068408D01*
X0152374Y0069406D02*
X0101876Y0069406D01*
X0102875Y0070405D02*
X0135625Y0070405D01*
X0134627Y0071403D02*
X0103873Y0071403D01*
X0104872Y0072402D02*
X0133628Y0072402D01*
X0132630Y0073400D02*
X0105870Y0073400D01*
X0106869Y0074399D02*
X0131631Y0074399D01*
X0130633Y0075397D02*
X0107867Y0075397D01*
X0108866Y0076396D02*
X0129634Y0076396D01*
X0128636Y0077394D02*
X0109864Y0077394D01*
X0110863Y0078393D02*
X0127637Y0078393D01*
X0126639Y0079391D02*
X0111861Y0079391D01*
X0112860Y0080390D02*
X0125640Y0080390D01*
X0124642Y0081388D02*
X0113858Y0081388D01*
X0114857Y0082387D02*
X0123643Y0082387D01*
X0122645Y0083385D02*
X0115855Y0083385D01*
X0116854Y0084384D02*
X0121646Y0084384D01*
X0120648Y0085382D02*
X0117852Y0085382D01*
X0118851Y0086381D02*
X0119649Y0086381D01*
X0122593Y0089376D02*
X0138575Y0089376D01*
X0138575Y0088378D02*
X0123592Y0088378D01*
X0121595Y0090375D02*
X0138575Y0090375D01*
X0131580Y0080390D02*
X0238950Y0080390D01*
X0238950Y0081388D02*
X0233261Y0081388D01*
X0233168Y0081335D02*
X0233510Y0081532D01*
X0233789Y0081811D01*
X0233986Y0082153D01*
X0234089Y0082535D01*
X0234089Y0086169D01*
X0227577Y0086169D01*
X0227577Y0087169D01*
X0234089Y0087169D01*
X0234089Y0090804D01*
X0233986Y0091185D01*
X0233789Y0091527D01*
X0233510Y0091807D01*
X0233168Y0092004D01*
X0232786Y0092106D01*
X0227577Y0092106D01*
X0227577Y0087169D01*
X0226577Y0087169D01*
X0226577Y0086169D01*
X0227577Y0086169D01*
X0227577Y0081232D01*
X0232786Y0081232D01*
X0233168Y0081335D01*
X0234049Y0082387D02*
X0238950Y0082387D01*
X0238950Y0083385D02*
X0234089Y0083385D01*
X0234089Y0084384D02*
X0238950Y0084384D01*
X0238950Y0085382D02*
X0234089Y0085382D01*
X0234089Y0087379D02*
X0238950Y0087379D01*
X0238950Y0086381D02*
X0227577Y0086381D01*
X0227577Y0087379D02*
X0226577Y0087379D01*
X0226577Y0087169D02*
X0226577Y0092106D01*
X0221367Y0092106D01*
X0220986Y0092004D01*
X0220644Y0091807D01*
X0220365Y0091527D01*
X0220167Y0091185D01*
X0220065Y0090804D01*
X0220065Y0087169D01*
X0226577Y0087169D01*
X0226577Y0086381D02*
X0151799Y0086381D01*
X0151799Y0087379D02*
X0220065Y0087379D01*
X0220065Y0088378D02*
X0151799Y0088378D01*
X0151799Y0089376D02*
X0220065Y0089376D01*
X0220065Y0090375D02*
X0151799Y0090375D01*
X0150849Y0091373D02*
X0220276Y0091373D01*
X0220065Y0086169D02*
X0220065Y0082535D01*
X0220167Y0082153D01*
X0220365Y0081811D01*
X0220644Y0081532D01*
X0220986Y0081335D01*
X0221367Y0081232D01*
X0226577Y0081232D01*
X0226577Y0086169D01*
X0220065Y0086169D01*
X0220065Y0085382D02*
X0151799Y0085382D01*
X0151799Y0084384D02*
X0220065Y0084384D01*
X0220065Y0083385D02*
X0151799Y0083385D01*
X0151799Y0082387D02*
X0220105Y0082387D01*
X0220893Y0081388D02*
X0151304Y0081388D01*
X0152450Y0092372D02*
X0238950Y0092372D01*
X0238950Y0093370D02*
X0153214Y0093370D01*
X0153628Y0094369D02*
X0238950Y0094369D01*
X0238950Y0095368D02*
X0153683Y0095368D01*
X0153597Y0096366D02*
X0238950Y0096366D01*
X0238950Y0097365D02*
X0153184Y0097365D01*
X0152376Y0098363D02*
X0238950Y0098363D01*
X0238950Y0099362D02*
X0150671Y0099362D01*
X0148364Y0099362D02*
X0146681Y0099362D01*
X0146063Y0100360D02*
X0238950Y0100360D01*
X0238950Y0101359D02*
X0146681Y0101359D01*
X0146681Y0102357D02*
X0238950Y0102357D01*
X0238950Y0103356D02*
X0146681Y0103356D01*
X0146681Y0104354D02*
X0238950Y0104354D01*
X0238950Y0091373D02*
X0233878Y0091373D01*
X0234089Y0090375D02*
X0238950Y0090375D01*
X0238950Y0089376D02*
X0234089Y0089376D01*
X0234089Y0088378D02*
X0238950Y0088378D01*
X0238950Y0079391D02*
X0132579Y0079391D01*
X0133577Y0078393D02*
X0238950Y0078393D01*
X0227577Y0081388D02*
X0226577Y0081388D01*
X0226577Y0082387D02*
X0227577Y0082387D01*
X0227577Y0083385D02*
X0226577Y0083385D01*
X0226577Y0084384D02*
X0227577Y0084384D01*
X0227577Y0085382D02*
X0226577Y0085382D01*
X0226577Y0088378D02*
X0227577Y0088378D01*
X0227577Y0089376D02*
X0226577Y0089376D01*
X0226577Y0090375D02*
X0227577Y0090375D01*
X0227577Y0091373D02*
X0226577Y0091373D01*
X0216127Y0063415D02*
X0213873Y0063415D01*
X0214402Y0062417D02*
X0215598Y0062417D01*
X0215200Y0061418D02*
X0214800Y0061418D01*
X0214800Y0060420D02*
X0215200Y0060420D01*
X0215251Y0059421D02*
X0214749Y0059421D01*
X0214335Y0058423D02*
X0215665Y0058423D01*
X0216288Y0057424D02*
X0213712Y0057424D01*
X0212706Y0056426D02*
X0217294Y0056426D01*
X0222706Y0056426D02*
X0228162Y0056426D01*
X0228162Y0057424D02*
X0223712Y0057424D01*
X0224335Y0058423D02*
X0227565Y0058423D01*
X0226566Y0059421D02*
X0224749Y0059421D01*
X0224800Y0060420D02*
X0225568Y0060420D01*
X0216100Y0019481D02*
X0207509Y0019481D01*
X0207019Y0018482D02*
X0215639Y0018482D01*
X0215639Y0017484D02*
X0206021Y0017484D01*
X0187825Y0016485D02*
X0177538Y0016485D01*
X0175766Y0016485D02*
X0174766Y0016485D01*
X0174766Y0017484D02*
X0175766Y0017484D01*
X0175766Y0018482D02*
X0174766Y0018482D01*
X0174766Y0019481D02*
X0175766Y0019481D01*
X0175766Y0020479D02*
X0174766Y0020479D01*
X0172993Y0016485D02*
X0166027Y0016485D01*
X0166586Y0017484D02*
X0171504Y0017484D01*
X0170660Y0018482D02*
X0166586Y0018482D01*
X0166586Y0019481D02*
X0170139Y0019481D01*
X0169859Y0020479D02*
X0166586Y0020479D01*
X0156945Y0016485D02*
X0148927Y0016485D01*
X0164676Y0047439D02*
X0061952Y0047439D01*
X0062950Y0048437D02*
X0165675Y0048437D01*
X0166673Y0049436D02*
X0063949Y0049436D01*
X0064947Y0050434D02*
X0167672Y0050434D01*
X0168670Y0051433D02*
X0065946Y0051433D01*
X0079500Y0055427D02*
X0080500Y0055427D01*
X0080500Y0055314D02*
X0081218Y0055428D01*
X0081996Y0055681D01*
X0082725Y0056053D01*
X0083388Y0056534D01*
X0083966Y0057112D01*
X0084447Y0057775D01*
X0084819Y0058504D01*
X0085072Y0059282D01*
X0085186Y0060000D01*
X0080500Y0060000D01*
X0080500Y0055314D01*
X0081211Y0055427D02*
X0102810Y0055427D01*
X0105500Y0055000D02*
X0100000Y0060500D01*
X0097125Y0064414D02*
X0096883Y0064414D01*
X0096127Y0063415D02*
X0095885Y0063415D01*
X0095598Y0062417D02*
X0094886Y0062417D01*
X0094800Y0061418D02*
X0095200Y0061418D01*
X0095200Y0060420D02*
X0094800Y0060420D01*
X0094749Y0059421D02*
X0095251Y0059421D01*
X0095665Y0058423D02*
X0094335Y0058423D01*
X0093712Y0057424D02*
X0096288Y0057424D01*
X0097294Y0056426D02*
X0092706Y0056426D01*
X0087294Y0056426D02*
X0083239Y0056426D01*
X0084193Y0057424D02*
X0086288Y0057424D01*
X0085665Y0058423D02*
X0084778Y0058423D01*
X0085094Y0059421D02*
X0085251Y0059421D01*
X0085200Y0060420D02*
X0080500Y0060420D01*
X0080500Y0059421D02*
X0079500Y0059421D01*
X0079500Y0058423D02*
X0080500Y0058423D01*
X0080500Y0057424D02*
X0079500Y0057424D01*
X0079500Y0056426D02*
X0080500Y0056426D01*
X0085119Y0061418D02*
X0085200Y0061418D01*
X0084845Y0062417D02*
X0085598Y0062417D01*
X0086127Y0063415D02*
X0084310Y0063415D01*
X0083440Y0064414D02*
X0087125Y0064414D01*
X0097882Y0065412D02*
X0098514Y0065412D01*
X0112604Y0067409D02*
X0154371Y0067409D01*
X0155369Y0066411D02*
X0113602Y0066411D01*
X0112650Y0067363D02*
X0112650Y0067363D01*
X0114601Y0065412D02*
X0128291Y0065412D01*
X0129500Y0065412D02*
X0130500Y0065412D01*
X0130500Y0064414D02*
X0129500Y0064414D01*
X0129500Y0063415D02*
X0130500Y0063415D01*
X0130500Y0062417D02*
X0129500Y0062417D01*
X0131709Y0065412D02*
X0138291Y0065412D01*
X0136560Y0064414D02*
X0133440Y0064414D01*
X0134310Y0063415D02*
X0135690Y0063415D01*
X0135155Y0062417D02*
X0134845Y0062417D01*
X0140500Y0060420D02*
X0145200Y0060420D01*
X0145200Y0061418D02*
X0145119Y0061418D01*
X0144845Y0062417D02*
X0145598Y0062417D01*
X0146127Y0063415D02*
X0144310Y0063415D01*
X0143440Y0064414D02*
X0147125Y0064414D01*
X0145251Y0059421D02*
X0145094Y0059421D01*
X0144778Y0058423D02*
X0145665Y0058423D01*
X0146288Y0057424D02*
X0144193Y0057424D01*
X0125807Y0057424D02*
X0123712Y0057424D01*
X0124335Y0058423D02*
X0125222Y0058423D01*
X0124906Y0059421D02*
X0124749Y0059421D01*
X0117125Y0064414D02*
X0115599Y0064414D01*
X0086509Y0031463D02*
X0061530Y0031463D01*
X0061530Y0030464D02*
X0085511Y0030464D01*
X0084512Y0029466D02*
X0061530Y0029466D01*
X0061530Y0028467D02*
X0083514Y0028467D01*
X0082515Y0027469D02*
X0061530Y0027469D01*
X0061530Y0026470D02*
X0063702Y0026470D01*
X0061789Y0025472D02*
X0061530Y0025472D01*
X0066357Y0026470D02*
X0077481Y0026470D01*
X0075568Y0025472D02*
X0068270Y0025472D01*
X0065030Y0021500D02*
X0071597Y0021500D01*
X0080137Y0026470D02*
X0081517Y0026470D01*
X0052250Y0022500D02*
X0052250Y0095900D01*
X0092250Y0135900D01*
X0092250Y0140500D01*
X0103904Y0140500D01*
X0100638Y0142298D02*
X0095402Y0142298D01*
X0094404Y0143296D02*
X0101010Y0143296D01*
X0100638Y0138303D02*
X0095003Y0138303D01*
X0094005Y0137305D02*
X0107555Y0137305D01*
X0110112Y0137305D02*
X0111081Y0137305D01*
X0111081Y0137031D02*
X0112959Y0137031D01*
X0113341Y0137134D01*
X0113683Y0137331D01*
X0113962Y0137610D01*
X0114160Y0137953D01*
X0114262Y0138334D01*
X0114262Y0140016D01*
X0111081Y0140016D01*
X0111081Y0137031D01*
X0111081Y0138303D02*
X0110112Y0138303D01*
X0110112Y0139302D02*
X0111081Y0139302D01*
X0111081Y0140301D02*
X0117150Y0140301D01*
X0117150Y0141299D02*
X0114262Y0141299D01*
X0114262Y0142298D02*
X0117150Y0142298D01*
X0117150Y0143296D02*
X0114016Y0143296D01*
X0111081Y0143296D02*
X0110112Y0143296D01*
X0110112Y0142298D02*
X0111081Y0142298D01*
X0111081Y0141299D02*
X0110112Y0141299D01*
X0107177Y0143296D02*
X0106797Y0143296D01*
X0113637Y0137305D02*
X0117150Y0137305D01*
X0117150Y0138303D02*
X0114254Y0138303D01*
X0114262Y0139302D02*
X0117150Y0139302D01*
X0117150Y0136306D02*
X0093850Y0136306D01*
X0093850Y0135308D02*
X0117150Y0135308D01*
X0117150Y0134309D02*
X0092922Y0134309D01*
X0094389Y0133311D02*
X0101025Y0133311D01*
X0100638Y0132312D02*
X0095387Y0132312D01*
X0092250Y0130500D02*
X0103904Y0130500D01*
X0100638Y0128318D02*
X0095018Y0128318D01*
X0094020Y0127320D02*
X0107530Y0127320D01*
X0110112Y0127320D02*
X0111081Y0127320D01*
X0111081Y0127031D02*
X0111081Y0130016D01*
X0114262Y0130016D01*
X0114262Y0128334D01*
X0114160Y0127953D01*
X0113962Y0127610D01*
X0113683Y0127331D01*
X0113341Y0127134D01*
X0112959Y0127031D01*
X0111081Y0127031D01*
X0111081Y0128318D02*
X0110112Y0128318D01*
X0110112Y0129317D02*
X0111081Y0129317D01*
X0111081Y0130315D02*
X0117150Y0130315D01*
X0117150Y0129317D02*
X0114262Y0129317D01*
X0114258Y0128318D02*
X0117150Y0128318D01*
X0117150Y0127320D02*
X0113663Y0127320D01*
X0114262Y0131314D02*
X0117150Y0131314D01*
X0117150Y0132312D02*
X0114262Y0132312D01*
X0114007Y0133311D02*
X0117150Y0133311D01*
X0111081Y0133311D02*
X0110112Y0133311D01*
X0110112Y0132312D02*
X0111081Y0132312D01*
X0111081Y0131314D02*
X0110112Y0131314D01*
X0107185Y0133311D02*
X0106782Y0133311D01*
X0106767Y0123326D02*
X0107194Y0123326D01*
X0110112Y0123326D02*
X0111081Y0123326D01*
X0111081Y0122327D02*
X0110112Y0122327D01*
X0110112Y0121329D02*
X0111081Y0121329D01*
X0114262Y0118333D02*
X0117150Y0118333D01*
X0117150Y0117335D02*
X0113686Y0117335D01*
X0111081Y0113341D02*
X0110112Y0113341D01*
X0110112Y0112342D02*
X0111081Y0112342D01*
X0111081Y0111344D02*
X0110112Y0111344D01*
X0107203Y0113341D02*
X0106752Y0113341D01*
X0113701Y0107350D02*
X0117150Y0107350D01*
X0117150Y0108348D02*
X0114262Y0108348D01*
X0124650Y0123326D02*
X0238950Y0123326D01*
X0238950Y0124324D02*
X0124650Y0124324D01*
X0124650Y0143296D02*
X0124783Y0143296D01*
X0124650Y0144295D02*
X0125782Y0144295D01*
X0124650Y0145293D02*
X0128577Y0145293D01*
X0128333Y0146292D02*
X0124650Y0146292D01*
X0124650Y0147290D02*
X0128333Y0147290D01*
X0128333Y0148980D02*
X0137207Y0148980D01*
X0137207Y0152343D01*
X0129635Y0152343D01*
X0129254Y0152240D01*
X0128912Y0152043D01*
X0128632Y0151764D01*
X0128435Y0151421D01*
X0128333Y0151040D01*
X0128333Y0148980D01*
X0128333Y0149287D02*
X0124650Y0149287D01*
X0124650Y0148289D02*
X0137207Y0148289D01*
X0137207Y0149287D02*
X0138207Y0149287D01*
X0138207Y0148289D02*
X0148776Y0148289D01*
X0149774Y0149287D02*
X0147081Y0149287D01*
X0147081Y0150286D02*
X0150773Y0150286D01*
X0151771Y0151284D02*
X0147015Y0151284D01*
X0146002Y0152283D02*
X0152770Y0152283D01*
X0153768Y0153281D02*
X0124650Y0153281D01*
X0124650Y0152283D02*
X0129412Y0152283D01*
X0128398Y0151284D02*
X0124650Y0151284D01*
X0124650Y0150286D02*
X0128333Y0150286D01*
X0128959Y0155278D02*
X0124650Y0155278D01*
X0124650Y0154280D02*
X0154767Y0154280D01*
X0155765Y0155278D02*
X0146454Y0155278D01*
X0146681Y0156277D02*
X0156764Y0156277D01*
X0157762Y0157275D02*
X0146681Y0157275D01*
X0146681Y0158274D02*
X0158761Y0158274D01*
X0159760Y0159272D02*
X0146681Y0159272D01*
X0146681Y0160271D02*
X0160758Y0160271D01*
X0161757Y0161269D02*
X0146552Y0161269D01*
X0138207Y0152283D02*
X0137207Y0152283D01*
X0137207Y0151284D02*
X0138207Y0151284D01*
X0138207Y0150286D02*
X0137207Y0150286D01*
X0128861Y0161269D02*
X0124650Y0161269D01*
X0124650Y0160271D02*
X0128733Y0160271D01*
X0128733Y0159272D02*
X0124650Y0159272D01*
X0124650Y0158274D02*
X0128733Y0158274D01*
X0128733Y0157275D02*
X0124650Y0157275D01*
X0124650Y0156277D02*
X0128733Y0156277D01*
X0117150Y0156277D02*
X0095420Y0156277D01*
X0095833Y0155278D02*
X0117150Y0155278D01*
X0117150Y0154280D02*
X0096050Y0154280D01*
X0096050Y0153281D02*
X0117150Y0153281D01*
X0117150Y0152283D02*
X0095817Y0152283D01*
X0095403Y0151284D02*
X0117150Y0151284D01*
X0117150Y0150286D02*
X0094524Y0150286D01*
X0094563Y0157275D02*
X0117150Y0157275D01*
X0101892Y0184235D02*
X0100608Y0184235D01*
X0101031Y0185234D02*
X0101469Y0185234D01*
X0101469Y0186232D02*
X0101031Y0186232D01*
X0114665Y0224175D02*
X0117851Y0224175D01*
X0117851Y0225174D02*
X0114665Y0225174D01*
X0114927Y0226172D02*
X0117851Y0226172D01*
X0117851Y0227171D02*
X0115925Y0227171D01*
X0116924Y0228170D02*
X0117851Y0228170D01*
X0115111Y0231165D02*
X0081848Y0231165D01*
X0081850Y0230167D02*
X0114112Y0230167D01*
X0116109Y0232164D02*
X0080849Y0232164D01*
X0079851Y0233162D02*
X0117108Y0233162D01*
X0116550Y0232604D02*
X0116550Y0232604D01*
X0123110Y0223177D02*
X0125805Y0223177D01*
X0132262Y0217186D02*
X0133966Y0217186D01*
X0132968Y0216187D02*
X0132262Y0216187D01*
X0142901Y0220181D02*
X0152269Y0220181D01*
X0154797Y0218184D02*
X0160672Y0218184D01*
X0159673Y0217186D02*
X0153799Y0217186D01*
X0152800Y0216187D02*
X0158675Y0216187D01*
X0157676Y0215189D02*
X0151802Y0215189D01*
X0155796Y0219183D02*
X0161670Y0219183D01*
X0162669Y0220181D02*
X0156794Y0220181D01*
X0157793Y0221180D02*
X0163667Y0221180D01*
X0164666Y0222178D02*
X0158791Y0222178D01*
X0159250Y0223177D02*
X0165650Y0223177D01*
X0165650Y0224175D02*
X0159250Y0224175D01*
X0159680Y0225174D02*
X0160820Y0225174D01*
X0160350Y0226172D02*
X0160150Y0226172D01*
X0160150Y0227171D02*
X0160350Y0227171D01*
X0160350Y0228170D02*
X0160150Y0228170D01*
X0160150Y0229168D02*
X0160350Y0229168D01*
X0160350Y0230167D02*
X0160150Y0230167D01*
X0160150Y0231165D02*
X0160350Y0231165D01*
X0160350Y0232164D02*
X0160150Y0232164D01*
X0160150Y0233162D02*
X0160350Y0233162D01*
X0160350Y0234161D02*
X0160150Y0234161D01*
X0160328Y0235159D02*
X0159547Y0235159D01*
X0154489Y0236337D02*
X0154489Y0236337D01*
X0148830Y0236158D02*
X0144350Y0236158D01*
X0144350Y0237156D02*
X0144541Y0237156D01*
X0144350Y0235159D02*
X0145388Y0235159D01*
X0147600Y0235159D02*
X0147900Y0235159D01*
X0147900Y0234161D02*
X0147600Y0234161D01*
X0147600Y0233162D02*
X0147900Y0233162D01*
X0147900Y0232164D02*
X0147600Y0232164D01*
X0147600Y0231165D02*
X0147900Y0231165D01*
X0144950Y0229168D02*
X0144350Y0229168D01*
X0144350Y0228170D02*
X0144950Y0228170D01*
X0144950Y0227171D02*
X0144350Y0227171D01*
X0144350Y0226172D02*
X0144950Y0226172D01*
X0145255Y0225174D02*
X0144350Y0225174D01*
X0146759Y0237156D02*
X0147831Y0237156D01*
X0132976Y0246143D02*
X0127024Y0246143D01*
X0128429Y0247141D02*
X0131571Y0247141D01*
X0130782Y0248140D02*
X0129218Y0248140D01*
X0129631Y0249138D02*
X0130369Y0249138D01*
X0130200Y0250137D02*
X0129800Y0250137D01*
X0129800Y0251135D02*
X0130200Y0251135D01*
X0130481Y0252134D02*
X0129519Y0252134D01*
X0129105Y0253132D02*
X0130895Y0253132D01*
X0131843Y0254131D02*
X0128157Y0254131D01*
X0121843Y0254131D02*
X0118157Y0254131D01*
X0119105Y0253132D02*
X0120895Y0253132D01*
X0120481Y0252134D02*
X0119519Y0252134D01*
X0119800Y0251135D02*
X0120200Y0251135D01*
X0120200Y0250137D02*
X0119800Y0250137D01*
X0119631Y0249138D02*
X0120369Y0249138D01*
X0120782Y0248140D02*
X0119218Y0248140D01*
X0118429Y0247141D02*
X0121571Y0247141D01*
X0122976Y0246143D02*
X0117024Y0246143D01*
X0112976Y0246143D02*
X0107024Y0246143D01*
X0108429Y0247141D02*
X0111571Y0247141D01*
X0110782Y0248140D02*
X0109218Y0248140D01*
X0109631Y0249138D02*
X0110369Y0249138D01*
X0110200Y0250137D02*
X0109800Y0250137D01*
X0109800Y0251135D02*
X0110200Y0251135D01*
X0110481Y0252134D02*
X0109519Y0252134D01*
X0109105Y0253132D02*
X0110895Y0253132D01*
X0111843Y0254131D02*
X0108157Y0254131D01*
X0105000Y0257250D02*
X0105000Y0250500D01*
X0102976Y0246143D02*
X0097024Y0246143D01*
X0098429Y0247141D02*
X0101571Y0247141D01*
X0100782Y0248140D02*
X0099218Y0248140D01*
X0099631Y0249138D02*
X0100369Y0249138D01*
X0100200Y0250137D02*
X0099800Y0250137D01*
X0099800Y0251135D02*
X0100200Y0251135D01*
X0100481Y0252134D02*
X0099519Y0252134D01*
X0099105Y0253132D02*
X0100895Y0253132D01*
X0101843Y0254131D02*
X0098157Y0254131D01*
X0096600Y0255129D02*
X0103400Y0255129D01*
X0103400Y0256128D02*
X0096600Y0256128D01*
X0096600Y0257126D02*
X0102861Y0257126D01*
X0101862Y0258125D02*
X0096600Y0258125D01*
X0096600Y0259123D02*
X0100864Y0259123D01*
X0099865Y0260122D02*
X0096600Y0260122D01*
X0096600Y0261120D02*
X0098867Y0261120D01*
X0097868Y0262119D02*
X0096394Y0262119D01*
X0096870Y0263117D02*
X0095395Y0263117D01*
X0095871Y0264116D02*
X0094397Y0264116D01*
X0094873Y0265114D02*
X0093398Y0265114D01*
X0093874Y0266113D02*
X0092400Y0266113D01*
X0092876Y0267111D02*
X0091401Y0267111D01*
X0091877Y0268110D02*
X0090403Y0268110D01*
X0090989Y0269108D02*
X0089404Y0269108D01*
X0088406Y0270107D02*
X0090989Y0270107D01*
X0090989Y0271105D02*
X0087407Y0271105D01*
X0086409Y0272104D02*
X0090989Y0272104D01*
X0090989Y0273103D02*
X0085410Y0273103D01*
X0084412Y0274101D02*
X0090989Y0274101D01*
X0090989Y0275100D02*
X0083413Y0275100D01*
X0082415Y0276098D02*
X0090989Y0276098D01*
X0090989Y0277097D02*
X0081416Y0277097D01*
X0080418Y0278095D02*
X0090989Y0278095D01*
X0090989Y0279094D02*
X0080409Y0279094D01*
X0080409Y0280092D02*
X0090989Y0280092D01*
X0090989Y0281091D02*
X0080409Y0281091D01*
X0080409Y0282089D02*
X0090989Y0282089D01*
X0090989Y0283088D02*
X0080409Y0283088D01*
X0080409Y0284086D02*
X0090989Y0284086D01*
X0090989Y0285085D02*
X0080409Y0285085D01*
X0080409Y0286083D02*
X0090989Y0286083D01*
X0090989Y0287082D02*
X0080409Y0287082D01*
X0080409Y0288080D02*
X0090989Y0288080D01*
X0090989Y0289079D02*
X0080409Y0289079D01*
X0080409Y0290077D02*
X0090989Y0290077D01*
X0090989Y0291076D02*
X0080409Y0291076D01*
X0080409Y0292074D02*
X0090989Y0292074D01*
X0090989Y0293073D02*
X0080409Y0293073D01*
X0080409Y0294071D02*
X0090989Y0294071D01*
X0090989Y0295070D02*
X0080409Y0295070D01*
X0081437Y0296068D02*
X0089961Y0296068D01*
X0088809Y0297067D02*
X0082588Y0297067D01*
X0083321Y0298065D02*
X0088077Y0298065D01*
X0087663Y0299064D02*
X0083734Y0299064D01*
X0083909Y0300062D02*
X0087489Y0300062D01*
X0087489Y0301061D02*
X0083909Y0301061D01*
X0083683Y0302059D02*
X0087714Y0302059D01*
X0088128Y0303058D02*
X0083270Y0303058D01*
X0082465Y0304056D02*
X0088932Y0304056D01*
X0090258Y0305055D02*
X0081140Y0305055D01*
X0092589Y0300500D02*
X0099156Y0300500D01*
X0099982Y0299064D02*
X0101443Y0299064D01*
X0101268Y0300062D02*
X0100981Y0300062D01*
X0101856Y0298065D02*
X0097100Y0298065D01*
X0096368Y0297067D02*
X0102589Y0297067D01*
X0103740Y0296068D02*
X0095216Y0296068D01*
X0094189Y0295070D02*
X0104268Y0295070D01*
X0104268Y0294071D02*
X0094189Y0294071D01*
X0094189Y0293073D02*
X0104268Y0293073D01*
X0104706Y0292074D02*
X0094189Y0292074D01*
X0094189Y0291076D02*
X0105704Y0291076D01*
X0106703Y0290077D02*
X0094189Y0290077D01*
X0094189Y0289079D02*
X0107701Y0289079D01*
X0108700Y0288080D02*
X0094189Y0288080D01*
X0094189Y0287082D02*
X0109698Y0287082D01*
X0110697Y0286083D02*
X0094189Y0286083D01*
X0094189Y0285085D02*
X0111695Y0285085D01*
X0112694Y0284086D02*
X0094189Y0284086D01*
X0094189Y0283088D02*
X0113693Y0283088D01*
X0114691Y0282089D02*
X0094189Y0282089D01*
X0094189Y0281091D02*
X0115690Y0281091D01*
X0092589Y0269661D02*
X0105000Y0257250D01*
X0092589Y0269661D02*
X0092589Y0300500D01*
X0063430Y0295070D02*
X0055708Y0295070D01*
X0056687Y0296068D02*
X0062402Y0296068D01*
X0061250Y0297067D02*
X0056750Y0297067D01*
X0056750Y0298065D02*
X0060518Y0298065D01*
X0053633Y0255129D02*
X0046367Y0255129D01*
X0048157Y0254131D02*
X0051843Y0254131D01*
X0050895Y0253132D02*
X0049105Y0253132D01*
X0049519Y0252134D02*
X0050481Y0252134D01*
X0050200Y0251135D02*
X0049800Y0251135D01*
X0049800Y0250137D02*
X0050200Y0250137D01*
X0050369Y0249138D02*
X0049631Y0249138D01*
X0049623Y0248140D02*
X0050782Y0248140D01*
X0050621Y0247141D02*
X0051571Y0247141D01*
X0051620Y0246143D02*
X0052976Y0246143D01*
X0052619Y0245144D02*
X0063400Y0245144D01*
X0064342Y0244146D02*
X0053617Y0244146D01*
X0047095Y0246143D02*
X0047024Y0246143D01*
X0044373Y0222178D02*
X0033589Y0222178D01*
X0033589Y0221180D02*
X0044150Y0221180D01*
X0044150Y0220181D02*
X0033589Y0220181D01*
X0033589Y0219183D02*
X0044150Y0219183D01*
X0044150Y0218184D02*
X0033589Y0218184D01*
X0033589Y0217186D02*
X0044150Y0217186D01*
X0044150Y0216187D02*
X0033589Y0216187D01*
X0033589Y0215189D02*
X0044150Y0215189D01*
X0044150Y0214190D02*
X0033589Y0214190D01*
X0033589Y0213192D02*
X0044150Y0213192D01*
X0044150Y0212193D02*
X0033589Y0212193D01*
X0033589Y0211195D02*
X0044150Y0211195D01*
X0054750Y0207201D02*
X0055750Y0207201D01*
X0055750Y0206202D02*
X0054750Y0206202D01*
X0054750Y0205204D02*
X0055750Y0205204D01*
X0055750Y0204205D02*
X0054750Y0204205D01*
X0054750Y0203207D02*
X0055750Y0203207D01*
X0055750Y0202208D02*
X0054750Y0202208D01*
X0054750Y0201210D02*
X0055750Y0201210D01*
X0055750Y0200211D02*
X0054750Y0200211D01*
X0054750Y0199213D02*
X0055750Y0199213D01*
X0055750Y0198214D02*
X0054750Y0198214D01*
X0054750Y0197216D02*
X0055750Y0197216D01*
X0055750Y0196217D02*
X0054750Y0196217D01*
X0054750Y0195219D02*
X0055750Y0195219D01*
X0055750Y0194220D02*
X0054750Y0194220D01*
X0054750Y0193222D02*
X0055750Y0193222D01*
X0055750Y0192223D02*
X0054750Y0192223D01*
X0054750Y0191225D02*
X0055750Y0191225D01*
X0055750Y0190226D02*
X0054750Y0190226D01*
X0054750Y0189228D02*
X0055750Y0189228D01*
X0055750Y0188229D02*
X0054750Y0188229D01*
X0054750Y0187231D02*
X0055750Y0187231D01*
X0061115Y0207201D02*
X0062126Y0207201D01*
X0144293Y0192223D02*
X0145293Y0192223D01*
X0145293Y0191225D02*
X0144293Y0191225D01*
X0144293Y0190226D02*
X0145293Y0190226D01*
X0145293Y0189228D02*
X0144293Y0189228D01*
X0144293Y0186232D02*
X0145293Y0186232D01*
X0145293Y0185234D02*
X0144293Y0185234D01*
X0144293Y0184235D02*
X0145293Y0184235D01*
X0145293Y0183237D02*
X0144293Y0183237D01*
X0144293Y0182238D02*
X0145293Y0182238D01*
X0157600Y0201210D02*
X0157900Y0201210D01*
X0157900Y0202208D02*
X0157600Y0202208D01*
X0157600Y0203207D02*
X0157900Y0203207D01*
X0157900Y0204205D02*
X0157600Y0204205D01*
X0157600Y0205204D02*
X0157900Y0205204D01*
X0160383Y0201210D02*
X0160585Y0201210D01*
X0155250Y0210500D02*
X0167250Y0222500D01*
X0167250Y0229700D01*
X0165350Y0229168D02*
X0165150Y0229168D01*
X0165150Y0228170D02*
X0165350Y0228170D01*
X0165350Y0227171D02*
X0165150Y0227171D01*
X0165150Y0226172D02*
X0165350Y0226172D01*
X0165650Y0225174D02*
X0164680Y0225174D01*
X0174680Y0225174D02*
X0175820Y0225174D01*
X0175350Y0226172D02*
X0175150Y0226172D01*
X0175150Y0227171D02*
X0175350Y0227171D01*
X0175350Y0228170D02*
X0175150Y0228170D01*
X0175150Y0229168D02*
X0175350Y0229168D01*
X0185150Y0229168D02*
X0188519Y0229168D01*
X0187521Y0230167D02*
X0185150Y0230167D01*
X0185150Y0231165D02*
X0186522Y0231165D01*
X0185524Y0232164D02*
X0185150Y0232164D01*
X0185150Y0228170D02*
X0189518Y0228170D01*
X0190335Y0227171D02*
X0185150Y0227171D01*
X0185150Y0226172D02*
X0190335Y0226172D01*
X0190335Y0225174D02*
X0184680Y0225174D01*
X0184450Y0224175D02*
X0190539Y0224175D01*
X0192950Y0227000D02*
X0193404Y0227000D01*
X0192950Y0227000D02*
X0177550Y0242400D01*
X0177633Y0255129D02*
X0178633Y0255129D01*
X0176635Y0256128D02*
X0188400Y0256128D01*
X0188400Y0257126D02*
X0175636Y0257126D01*
X0174638Y0258125D02*
X0188400Y0258125D01*
X0188400Y0259123D02*
X0173639Y0259123D01*
X0172641Y0260122D02*
X0188400Y0260122D01*
X0188400Y0261120D02*
X0171642Y0261120D01*
X0170644Y0262119D02*
X0188400Y0262119D01*
X0188400Y0263117D02*
X0169645Y0263117D01*
X0168647Y0264116D02*
X0188400Y0264116D01*
X0188400Y0265114D02*
X0168400Y0265114D01*
X0168400Y0266113D02*
X0188400Y0266113D01*
X0188400Y0267111D02*
X0168400Y0267111D01*
X0168400Y0268110D02*
X0188400Y0268110D01*
X0188400Y0269108D02*
X0168400Y0269108D01*
X0168400Y0270107D02*
X0188400Y0270107D01*
X0188400Y0271105D02*
X0168400Y0271105D01*
X0168400Y0272104D02*
X0188400Y0272104D01*
X0188400Y0273103D02*
X0168400Y0273103D01*
X0168400Y0274101D02*
X0188400Y0274101D01*
X0188400Y0275100D02*
X0168400Y0275100D01*
X0168400Y0276098D02*
X0188400Y0276098D01*
X0188400Y0277097D02*
X0168400Y0277097D01*
X0168400Y0278095D02*
X0188400Y0278095D01*
X0188400Y0279094D02*
X0168400Y0279094D01*
X0168400Y0280092D02*
X0188400Y0280092D01*
X0188400Y0281091D02*
X0168400Y0281091D01*
X0168400Y0282089D02*
X0188400Y0282089D01*
X0188400Y0283088D02*
X0168400Y0283088D01*
X0168400Y0284086D02*
X0188400Y0284086D01*
X0188400Y0285085D02*
X0167789Y0285085D01*
X0166790Y0286083D02*
X0187420Y0286083D01*
X0186421Y0287082D02*
X0165792Y0287082D01*
X0164793Y0288080D02*
X0185423Y0288080D01*
X0184424Y0289079D02*
X0163795Y0289079D01*
X0162796Y0290077D02*
X0183426Y0290077D01*
X0182427Y0291076D02*
X0161798Y0291076D01*
X0160799Y0292074D02*
X0181429Y0292074D01*
X0180430Y0293073D02*
X0159801Y0293073D01*
X0158802Y0294071D02*
X0179432Y0294071D01*
X0178433Y0295070D02*
X0165944Y0295070D01*
X0166923Y0296068D02*
X0172638Y0296068D01*
X0171486Y0297067D02*
X0166986Y0297067D01*
X0166986Y0298065D02*
X0170754Y0298065D01*
X0161986Y0298065D02*
X0160986Y0298065D01*
X0160986Y0297067D02*
X0161986Y0297067D01*
X0161986Y0296068D02*
X0160986Y0296068D01*
X0160986Y0295070D02*
X0161986Y0295070D01*
X0161986Y0301061D02*
X0160986Y0301061D01*
X0160986Y0301000D02*
X0160986Y0306000D01*
X0157289Y0306000D01*
X0156907Y0305898D01*
X0156565Y0305700D01*
X0156286Y0305421D01*
X0156088Y0305079D01*
X0155986Y0304697D01*
X0155986Y0301000D01*
X0160986Y0301000D01*
X0160986Y0302059D02*
X0161986Y0302059D01*
X0161986Y0303058D02*
X0160986Y0303058D01*
X0160986Y0304056D02*
X0161986Y0304056D01*
X0161986Y0305055D02*
X0160986Y0305055D01*
X0156082Y0305055D02*
X0152627Y0305055D01*
X0151629Y0306053D02*
X0216039Y0306053D01*
X0216039Y0305055D02*
X0205155Y0305055D01*
X0205714Y0304824D02*
X0203839Y0305600D01*
X0201810Y0305600D01*
X0199936Y0304824D01*
X0198501Y0303389D01*
X0197725Y0301514D01*
X0197725Y0299486D01*
X0198501Y0297611D01*
X0199936Y0296176D01*
X0201810Y0295400D01*
X0203839Y0295400D01*
X0205714Y0296176D01*
X0207148Y0297611D01*
X0207925Y0299486D01*
X0207925Y0301514D01*
X0207148Y0303389D01*
X0205714Y0304824D01*
X0206481Y0304056D02*
X0216039Y0304056D01*
X0216039Y0303058D02*
X0207285Y0303058D01*
X0207699Y0302059D02*
X0216126Y0302059D01*
X0217038Y0301061D02*
X0207925Y0301061D01*
X0207925Y0300062D02*
X0217038Y0300062D01*
X0217038Y0299064D02*
X0207750Y0299064D01*
X0207337Y0298065D02*
X0217038Y0298065D01*
X0217038Y0297067D02*
X0206604Y0297067D01*
X0205453Y0296068D02*
X0217038Y0296068D01*
X0217038Y0295070D02*
X0190645Y0295070D01*
X0190645Y0294071D02*
X0217038Y0294071D01*
X0217038Y0293073D02*
X0191440Y0293073D01*
X0192438Y0292074D02*
X0217038Y0292074D01*
X0216261Y0291076D02*
X0193437Y0291076D01*
X0194436Y0290077D02*
X0216039Y0290077D01*
X0216039Y0289079D02*
X0195434Y0289079D01*
X0196433Y0288080D02*
X0216039Y0288080D01*
X0216039Y0287082D02*
X0197431Y0287082D01*
X0198430Y0286083D02*
X0216039Y0286083D01*
X0217038Y0285085D02*
X0199428Y0285085D01*
X0200427Y0284086D02*
X0217038Y0284086D01*
X0217038Y0283088D02*
X0201425Y0283088D01*
X0202424Y0282089D02*
X0217038Y0282089D01*
X0217038Y0281091D02*
X0203422Y0281091D01*
X0204421Y0280092D02*
X0217038Y0280092D01*
X0217038Y0279094D02*
X0205419Y0279094D01*
X0206418Y0278095D02*
X0217038Y0278095D01*
X0217038Y0277097D02*
X0207416Y0277097D01*
X0208415Y0276098D02*
X0217038Y0276098D01*
X0217038Y0275100D02*
X0209413Y0275100D01*
X0210412Y0274101D02*
X0217038Y0274101D01*
X0217038Y0273103D02*
X0211410Y0273103D01*
X0212409Y0272104D02*
X0217038Y0272104D01*
X0217038Y0271105D02*
X0213407Y0271105D01*
X0214406Y0270107D02*
X0217038Y0270107D01*
X0217038Y0269108D02*
X0215404Y0269108D01*
X0216403Y0268110D02*
X0217038Y0268110D01*
X0220438Y0268110D02*
X0238950Y0268110D01*
X0238950Y0269108D02*
X0220438Y0269108D01*
X0220438Y0270107D02*
X0238950Y0270107D01*
X0238950Y0271105D02*
X0220438Y0271105D01*
X0220438Y0272104D02*
X0238950Y0272104D01*
X0238950Y0273103D02*
X0220438Y0273103D01*
X0220438Y0274101D02*
X0238950Y0274101D01*
X0238950Y0275100D02*
X0220438Y0275100D01*
X0220438Y0276098D02*
X0238950Y0276098D01*
X0238950Y0277097D02*
X0220438Y0277097D01*
X0220438Y0278095D02*
X0238950Y0278095D01*
X0238950Y0279094D02*
X0220438Y0279094D01*
X0220438Y0280092D02*
X0238950Y0280092D01*
X0238950Y0281091D02*
X0220438Y0281091D01*
X0220438Y0282089D02*
X0238950Y0282089D01*
X0238950Y0283088D02*
X0220438Y0283088D01*
X0220438Y0284086D02*
X0238950Y0284086D01*
X0238950Y0285085D02*
X0232303Y0285085D01*
X0232282Y0285063D02*
X0232562Y0285343D01*
X0232759Y0285685D01*
X0232861Y0286066D01*
X0232861Y0288031D01*
X0230062Y0288031D01*
X0230062Y0288630D01*
X0232861Y0288630D01*
X0232861Y0290595D01*
X0232759Y0290977D01*
X0232562Y0291319D01*
X0232282Y0291598D01*
X0231940Y0291795D01*
X0231559Y0291898D01*
X0230062Y0291898D01*
X0230062Y0288630D01*
X0229462Y0288630D01*
X0229462Y0288031D01*
X0226662Y0288031D01*
X0226662Y0286066D01*
X0226765Y0285685D01*
X0226962Y0285343D01*
X0227241Y0285063D01*
X0227583Y0284866D01*
X0227965Y0284764D01*
X0229462Y0284764D01*
X0229462Y0288031D01*
X0230062Y0288031D01*
X0230062Y0284764D01*
X0231559Y0284764D01*
X0231940Y0284866D01*
X0232282Y0285063D01*
X0232861Y0286083D02*
X0238950Y0286083D01*
X0238950Y0287082D02*
X0232861Y0287082D01*
X0232861Y0289079D02*
X0238950Y0289079D01*
X0238950Y0290077D02*
X0232861Y0290077D01*
X0232702Y0291076D02*
X0238950Y0291076D01*
X0238950Y0292074D02*
X0220438Y0292074D01*
X0220438Y0293073D02*
X0238950Y0293073D01*
X0238950Y0294071D02*
X0220438Y0294071D01*
X0220438Y0295070D02*
X0238950Y0295070D01*
X0238950Y0296068D02*
X0220438Y0296068D01*
X0220438Y0297067D02*
X0238950Y0297067D01*
X0238950Y0298065D02*
X0220438Y0298065D01*
X0220438Y0299064D02*
X0238950Y0299064D01*
X0238950Y0300062D02*
X0220438Y0300062D01*
X0220438Y0301061D02*
X0238924Y0301061D01*
X0238858Y0302059D02*
X0232769Y0302059D01*
X0232759Y0302023D02*
X0232861Y0302405D01*
X0232861Y0304370D01*
X0230062Y0304370D01*
X0230062Y0304969D01*
X0232861Y0304969D01*
X0232861Y0306934D01*
X0232759Y0307315D01*
X0232562Y0307657D01*
X0232282Y0307937D01*
X0231940Y0308134D01*
X0231559Y0308236D01*
X0230062Y0308236D01*
X0230062Y0304969D01*
X0229462Y0304969D01*
X0229462Y0304370D01*
X0226662Y0304370D01*
X0226662Y0302405D01*
X0226765Y0302023D01*
X0226962Y0301681D01*
X0227241Y0301402D01*
X0227583Y0301205D01*
X0227965Y0301102D01*
X0229462Y0301102D01*
X0229462Y0304370D01*
X0230062Y0304370D01*
X0230062Y0301102D01*
X0231559Y0301102D01*
X0231940Y0301205D01*
X0232282Y0301402D01*
X0232562Y0301681D01*
X0232759Y0302023D01*
X0232861Y0303058D02*
X0238637Y0303058D01*
X0238370Y0304056D02*
X0232861Y0304056D01*
X0232861Y0305055D02*
X0238102Y0305055D01*
X0237645Y0306053D02*
X0232861Y0306053D01*
X0232830Y0307052D02*
X0237068Y0307052D01*
X0236492Y0308050D02*
X0232085Y0308050D01*
X0230062Y0308050D02*
X0229462Y0308050D01*
X0229462Y0308236D02*
X0227965Y0308236D01*
X0227583Y0308134D01*
X0227241Y0307937D01*
X0226962Y0307657D01*
X0226765Y0307315D01*
X0226662Y0306934D01*
X0226662Y0304969D01*
X0229462Y0304969D01*
X0229462Y0308236D01*
X0229462Y0307052D02*
X0230062Y0307052D01*
X0230062Y0306053D02*
X0229462Y0306053D01*
X0229462Y0305055D02*
X0230062Y0305055D01*
X0230062Y0304056D02*
X0229462Y0304056D01*
X0229462Y0303058D02*
X0230062Y0303058D01*
X0230062Y0302059D02*
X0229462Y0302059D01*
X0226755Y0302059D02*
X0221350Y0302059D01*
X0221438Y0303058D02*
X0226662Y0303058D01*
X0226662Y0304056D02*
X0221438Y0304056D01*
X0221438Y0305055D02*
X0226662Y0305055D01*
X0226662Y0306053D02*
X0221438Y0306053D01*
X0221438Y0307052D02*
X0226694Y0307052D01*
X0227439Y0308050D02*
X0149631Y0308050D01*
X0148633Y0309049D02*
X0235584Y0309049D01*
X0229462Y0291898D02*
X0227965Y0291898D01*
X0227583Y0291795D01*
X0227241Y0291598D01*
X0226962Y0291319D01*
X0226765Y0290977D01*
X0226662Y0290595D01*
X0226662Y0288630D01*
X0229462Y0288630D01*
X0229462Y0291898D01*
X0229462Y0291076D02*
X0230062Y0291076D01*
X0230062Y0290077D02*
X0229462Y0290077D01*
X0229462Y0289079D02*
X0230062Y0289079D01*
X0230062Y0288080D02*
X0238950Y0288080D01*
X0230062Y0287082D02*
X0229462Y0287082D01*
X0229462Y0288080D02*
X0221438Y0288080D01*
X0221438Y0287082D02*
X0226662Y0287082D01*
X0226662Y0286083D02*
X0221438Y0286083D01*
X0220438Y0285085D02*
X0227220Y0285085D01*
X0229462Y0285085D02*
X0230062Y0285085D01*
X0230062Y0286083D02*
X0229462Y0286083D01*
X0226662Y0289079D02*
X0221438Y0289079D01*
X0221438Y0290077D02*
X0226662Y0290077D01*
X0226822Y0291076D02*
X0221215Y0291076D01*
X0216039Y0307052D02*
X0150630Y0307052D01*
X0153626Y0304056D02*
X0155986Y0304056D01*
X0155986Y0303058D02*
X0154407Y0303058D01*
X0154407Y0302059D02*
X0155986Y0302059D01*
X0155986Y0301061D02*
X0154407Y0301061D01*
X0152807Y0297804D02*
X0166800Y0283811D01*
X0166800Y0263700D01*
X0181367Y0255129D02*
X0188400Y0255129D01*
X0191600Y0255129D02*
X0198633Y0255129D01*
X0196843Y0254131D02*
X0193157Y0254131D01*
X0194105Y0253132D02*
X0195895Y0253132D01*
X0195481Y0252134D02*
X0194519Y0252134D01*
X0194800Y0251135D02*
X0195200Y0251135D01*
X0195200Y0250137D02*
X0194800Y0250137D01*
X0194631Y0249138D02*
X0195369Y0249138D01*
X0195782Y0248140D02*
X0194218Y0248140D01*
X0193429Y0247141D02*
X0196571Y0247141D01*
X0197976Y0246143D02*
X0192024Y0246143D01*
X0200050Y0250500D02*
X0212850Y0237700D01*
X0212850Y0224100D01*
X0212050Y0223300D01*
X0212050Y0211300D01*
X0208922Y0211195D02*
X0207578Y0211195D01*
X0207578Y0212193D02*
X0208922Y0212193D01*
X0208922Y0213192D02*
X0207578Y0213192D01*
X0207430Y0214190D02*
X0209070Y0214190D01*
X0210450Y0215189D02*
X0206110Y0215189D01*
X0206110Y0216187D02*
X0210450Y0216187D01*
X0210450Y0217186D02*
X0206027Y0217186D01*
X0205028Y0218184D02*
X0210450Y0218184D01*
X0210450Y0219183D02*
X0204030Y0219183D01*
X0203031Y0220181D02*
X0210450Y0220181D01*
X0210450Y0221180D02*
X0202033Y0221180D01*
X0201034Y0222178D02*
X0210450Y0222178D01*
X0205994Y0223177D02*
X0200036Y0223177D01*
X0202961Y0224175D02*
X0205382Y0224175D01*
X0205382Y0225174D02*
X0203165Y0225174D01*
X0203165Y0229168D02*
X0205382Y0229168D01*
X0205382Y0230167D02*
X0202619Y0230167D01*
X0196850Y0229700D02*
X0196850Y0224100D01*
X0204510Y0216440D01*
X0204510Y0210831D01*
X0207578Y0210196D02*
X0208922Y0210196D01*
X0208922Y0209198D02*
X0207578Y0209198D01*
X0207578Y0208199D02*
X0208922Y0208199D01*
X0209340Y0207201D02*
X0207160Y0207201D01*
X0205181Y0204205D02*
X0186950Y0204205D01*
X0186950Y0203207D02*
X0205181Y0203207D01*
X0205181Y0202208D02*
X0186950Y0202208D01*
X0186950Y0201210D02*
X0205181Y0201210D01*
X0205181Y0200211D02*
X0186950Y0200211D01*
X0186950Y0199213D02*
X0205181Y0199213D01*
X0211318Y0199213D02*
X0220465Y0199213D01*
X0220465Y0200211D02*
X0211318Y0200211D01*
X0214364Y0201210D02*
X0220770Y0201210D01*
X0220465Y0200904D02*
X0221109Y0201549D01*
X0233044Y0201549D01*
X0233689Y0200904D01*
X0233689Y0192119D01*
X0233044Y0191475D01*
X0221109Y0191475D01*
X0220465Y0192119D01*
X0220465Y0200904D01*
X0220465Y0198214D02*
X0186950Y0198214D01*
X0186950Y0197216D02*
X0220465Y0197216D01*
X0220465Y0196217D02*
X0186950Y0196217D01*
X0186950Y0195219D02*
X0220465Y0195219D01*
X0220465Y0194220D02*
X0186950Y0194220D01*
X0186950Y0193222D02*
X0220465Y0193222D01*
X0220465Y0192223D02*
X0186950Y0192223D01*
X0186950Y0191225D02*
X0238950Y0191225D01*
X0238950Y0192223D02*
X0233689Y0192223D01*
X0233689Y0193222D02*
X0238950Y0193222D01*
X0238950Y0194220D02*
X0233689Y0194220D01*
X0233689Y0195219D02*
X0238950Y0195219D01*
X0238950Y0196217D02*
X0233689Y0196217D01*
X0233689Y0197216D02*
X0238950Y0197216D01*
X0238950Y0198214D02*
X0233689Y0198214D01*
X0233689Y0199213D02*
X0238950Y0199213D01*
X0238950Y0200211D02*
X0233689Y0200211D01*
X0233383Y0201210D02*
X0238950Y0201210D01*
X0238950Y0202208D02*
X0215362Y0202208D01*
X0216361Y0203207D02*
X0238950Y0203207D01*
X0238950Y0204205D02*
X0217359Y0204205D01*
X0218358Y0205204D02*
X0238950Y0205204D01*
X0238950Y0206202D02*
X0219356Y0206202D01*
X0220355Y0207201D02*
X0238950Y0207201D01*
X0238950Y0208199D02*
X0221353Y0208199D01*
X0222352Y0209198D02*
X0238950Y0209198D01*
X0238950Y0210196D02*
X0223350Y0210196D01*
X0224349Y0211195D02*
X0238950Y0211195D01*
X0238950Y0212193D02*
X0225347Y0212193D01*
X0226346Y0213192D02*
X0238950Y0213192D01*
X0238950Y0214190D02*
X0226600Y0214190D01*
X0226600Y0215189D02*
X0238950Y0215189D01*
X0238950Y0216187D02*
X0226600Y0216187D01*
X0226600Y0217186D02*
X0238950Y0217186D01*
X0238950Y0218184D02*
X0226600Y0218184D01*
X0226600Y0219183D02*
X0238950Y0219183D01*
X0238950Y0220181D02*
X0226600Y0220181D01*
X0226600Y0221180D02*
X0238950Y0221180D01*
X0238950Y0222178D02*
X0226600Y0222178D01*
X0226600Y0223177D02*
X0238950Y0223177D01*
X0238950Y0224175D02*
X0226600Y0224175D01*
X0226600Y0225174D02*
X0238950Y0225174D01*
X0238950Y0226172D02*
X0226600Y0226172D01*
X0226600Y0227171D02*
X0238950Y0227171D01*
X0238950Y0228170D02*
X0226600Y0228170D01*
X0226600Y0229168D02*
X0238950Y0229168D01*
X0238950Y0230167D02*
X0226600Y0230167D01*
X0226600Y0231165D02*
X0238950Y0231165D01*
X0238950Y0232164D02*
X0226600Y0232164D01*
X0226600Y0233162D02*
X0238950Y0233162D01*
X0238950Y0234161D02*
X0226600Y0234161D01*
X0226600Y0235159D02*
X0238950Y0235159D01*
X0238950Y0236158D02*
X0226600Y0236158D01*
X0226600Y0237156D02*
X0238950Y0237156D01*
X0238950Y0238155D02*
X0226600Y0238155D01*
X0226600Y0239153D02*
X0238950Y0239153D01*
X0238950Y0240152D02*
X0226600Y0240152D01*
X0226600Y0241150D02*
X0238950Y0241150D01*
X0238950Y0242149D02*
X0226600Y0242149D01*
X0226600Y0243147D02*
X0238950Y0243147D01*
X0238950Y0244146D02*
X0226600Y0244146D01*
X0226600Y0245144D02*
X0238950Y0245144D01*
X0238950Y0246143D02*
X0226600Y0246143D01*
X0226600Y0247141D02*
X0238950Y0247141D01*
X0238950Y0248140D02*
X0226600Y0248140D01*
X0226600Y0249138D02*
X0238950Y0249138D01*
X0238950Y0250137D02*
X0226600Y0250137D01*
X0226600Y0251135D02*
X0238950Y0251135D01*
X0238950Y0252134D02*
X0226600Y0252134D01*
X0226600Y0253132D02*
X0238950Y0253132D01*
X0238950Y0254131D02*
X0226600Y0254131D01*
X0226600Y0255129D02*
X0238950Y0255129D01*
X0238950Y0256128D02*
X0226600Y0256128D01*
X0226600Y0257126D02*
X0238950Y0257126D01*
X0238950Y0258125D02*
X0226600Y0258125D01*
X0226600Y0259123D02*
X0238950Y0259123D01*
X0238950Y0260122D02*
X0226600Y0260122D01*
X0226600Y0261120D02*
X0238950Y0261120D01*
X0238950Y0262119D02*
X0225898Y0262119D01*
X0224899Y0263117D02*
X0238950Y0263117D01*
X0238950Y0264116D02*
X0223901Y0264116D01*
X0222902Y0265114D02*
X0238950Y0265114D01*
X0238950Y0266113D02*
X0221904Y0266113D01*
X0220905Y0267111D02*
X0238950Y0267111D01*
X0223200Y0246143D02*
X0222024Y0246143D01*
X0221155Y0231165D02*
X0220156Y0231165D01*
X0220156Y0230167D02*
X0221155Y0230167D01*
X0221155Y0229168D02*
X0220156Y0229168D01*
X0220156Y0228170D02*
X0221155Y0228170D01*
X0216793Y0226172D02*
X0214450Y0226172D01*
X0214450Y0225174D02*
X0216793Y0225174D01*
X0216793Y0224175D02*
X0214450Y0224175D01*
X0214190Y0223177D02*
X0217239Y0223177D01*
X0202500Y0216187D02*
X0184450Y0216187D01*
X0184450Y0215189D02*
X0202910Y0215189D01*
X0201589Y0214190D02*
X0184450Y0214190D01*
X0184450Y0217186D02*
X0201501Y0217186D01*
X0200503Y0218184D02*
X0184450Y0218184D01*
X0184450Y0219183D02*
X0199504Y0219183D01*
X0198506Y0220181D02*
X0184450Y0220181D01*
X0184450Y0221180D02*
X0197507Y0221180D01*
X0196509Y0222178D02*
X0184450Y0222178D01*
X0184450Y0223177D02*
X0195510Y0223177D01*
X0202024Y0246143D02*
X0202145Y0246143D01*
X0211318Y0205204D02*
X0213550Y0205204D01*
X0212551Y0204205D02*
X0211318Y0204205D01*
X0186950Y0190226D02*
X0238950Y0190226D01*
X0238950Y0189228D02*
X0186950Y0189228D01*
X0186950Y0188229D02*
X0238950Y0188229D01*
X0238950Y0187231D02*
X0186950Y0187231D01*
X0186950Y0186232D02*
X0238950Y0186232D01*
X0238950Y0185234D02*
X0186950Y0185234D01*
X0186950Y0184235D02*
X0238950Y0184235D01*
X0238950Y0183237D02*
X0186950Y0183237D01*
X0186950Y0182238D02*
X0238950Y0182238D01*
X0238950Y0181239D02*
X0186950Y0181239D01*
X0186950Y0180241D02*
X0238950Y0180241D01*
X0238950Y0179242D02*
X0186950Y0179242D01*
X0186950Y0178244D02*
X0238950Y0178244D01*
X0238950Y0177245D02*
X0186950Y0177245D01*
X0186950Y0176247D02*
X0238950Y0176247D01*
X0238950Y0175248D02*
X0186403Y0175248D01*
X0185404Y0174250D02*
X0238950Y0174250D01*
X0238950Y0173251D02*
X0184406Y0173251D01*
X0183407Y0172253D02*
X0238950Y0172253D01*
X0238950Y0171254D02*
X0182409Y0171254D01*
X0181410Y0170256D02*
X0238950Y0170256D01*
X0238950Y0169257D02*
X0180412Y0169257D01*
X0179413Y0168259D02*
X0238950Y0168259D01*
X0238950Y0167260D02*
X0178414Y0167260D01*
X0177416Y0166262D02*
X0238950Y0166262D01*
X0238950Y0165263D02*
X0176417Y0165263D01*
X0175419Y0164265D02*
X0238950Y0164265D01*
X0238950Y0163266D02*
X0174420Y0163266D01*
X0173422Y0162268D02*
X0238950Y0162268D01*
X0238950Y0161269D02*
X0172423Y0161269D01*
X0171425Y0160271D02*
X0238950Y0160271D01*
X0238950Y0159272D02*
X0170426Y0159272D01*
X0169428Y0158274D02*
X0238950Y0158274D01*
X0238950Y0157275D02*
X0168429Y0157275D01*
X0167431Y0156277D02*
X0238950Y0156277D01*
X0238950Y0155278D02*
X0166432Y0155278D01*
X0165434Y0154280D02*
X0238950Y0154280D01*
X0238950Y0153281D02*
X0164435Y0153281D01*
X0163437Y0152283D02*
X0238950Y0152283D01*
X0238950Y0151284D02*
X0162438Y0151284D01*
X0161440Y0150286D02*
X0238950Y0150286D01*
X0238950Y0149287D02*
X0160441Y0149287D01*
X0159443Y0148289D02*
X0238950Y0148289D01*
X0238950Y0147290D02*
X0158444Y0147290D01*
X0157446Y0146292D02*
X0238950Y0146292D01*
X0238950Y0145293D02*
X0156447Y0145293D01*
X0155449Y0144295D02*
X0238950Y0144295D01*
X0238950Y0143296D02*
X0154450Y0143296D01*
X0153452Y0142298D02*
X0238950Y0142298D01*
X0238950Y0141299D02*
X0152453Y0141299D01*
X0151455Y0140301D02*
X0238950Y0140301D01*
X0238950Y0139302D02*
X0150456Y0139302D01*
X0149458Y0138303D02*
X0238950Y0138303D01*
X0238950Y0137305D02*
X0148459Y0137305D01*
X0146681Y0136306D02*
X0238950Y0136306D01*
X0238950Y0135308D02*
X0146169Y0135308D01*
X0147081Y0147290D02*
X0147777Y0147290D01*
X0173873Y0063415D02*
X0176127Y0063415D01*
X0175598Y0062417D02*
X0174402Y0062417D01*
X0174800Y0061418D02*
X0175200Y0061418D01*
X0175200Y0060420D02*
X0174800Y0060420D01*
X0174749Y0059421D02*
X0175251Y0059421D01*
X0175660Y0058423D02*
X0174335Y0058423D01*
X0174661Y0057424D02*
X0173712Y0057424D01*
X0173663Y0056426D02*
X0172706Y0056426D01*
X0180673Y0020479D02*
X0183948Y0020479D01*
X0184362Y0019481D02*
X0180393Y0019481D01*
X0179872Y0018482D02*
X0184851Y0018482D01*
X0185849Y0017484D02*
X0179028Y0017484D01*
X0052250Y0022500D02*
X0051250Y0021500D01*
X0191673Y0296068D02*
X0200197Y0296068D01*
X0199046Y0297067D02*
X0192825Y0297067D01*
X0193557Y0298065D02*
X0198313Y0298065D01*
X0197899Y0299064D02*
X0193971Y0299064D01*
X0194145Y0300062D02*
X0197725Y0300062D01*
X0197725Y0301061D02*
X0194145Y0301061D01*
X0193920Y0302059D02*
X0197951Y0302059D01*
X0198364Y0303058D02*
X0193506Y0303058D01*
X0192701Y0304056D02*
X0199169Y0304056D01*
X0200494Y0305055D02*
X0191376Y0305055D01*
D32*
X0110250Y0212500D03*
X0139250Y0196500D03*
X0164250Y0196500D03*
X0107250Y0125500D03*
X0072250Y0110500D03*
D33*
X0119250Y0089750D02*
X0090000Y0060500D01*
X0119250Y0089750D02*
X0136500Y0072500D01*
X0152250Y0072500D01*
X0158250Y0066500D01*
X0119250Y0089750D02*
X0119250Y0179500D01*
X0096250Y0179500D01*
X0093750Y0182000D01*
X0093750Y0187476D01*
X0119250Y0179500D02*
X0119250Y0199500D01*
X0142250Y0222500D01*
X0142250Y0231900D01*
X0142250Y0257500D01*
X0106368Y0293382D01*
X0106368Y0300500D01*
D34*
X0157750Y0230100D02*
X0157650Y0229700D01*
X0162450Y0230500D02*
X0162750Y0230100D01*
X0167250Y0229700D02*
X0167750Y0230100D01*
X0177750Y0230100D02*
X0178450Y0229700D01*
X0182450Y0230500D02*
X0182450Y0232900D01*
X0182450Y0230500D02*
X0182750Y0230100D01*
X0200000Y0250500D02*
X0200050Y0250500D01*
X0212050Y0211300D02*
X0211990Y0210831D01*
X0140850Y0139300D02*
X0138450Y0139300D01*
X0137707Y0138638D01*
X0137650Y0138100D01*
X0136250Y0136700D01*
X0127850Y0136700D01*
X0137707Y0128795D02*
X0138450Y0128900D01*
X0140050Y0128900D01*
X0137650Y0109700D02*
X0134450Y0109700D01*
X0137650Y0109700D02*
X0137707Y0109110D01*
X0103904Y0120500D02*
X0103350Y0119900D01*
X0103350Y0130400D02*
X0103904Y0130500D01*
X0103904Y0140500D02*
X0103350Y0140900D01*
X0137707Y0158323D02*
X0138450Y0158500D01*
X0137707Y0168165D02*
X0137650Y0168900D01*
X0121904Y0218000D02*
X0121550Y0217900D01*
X0121550Y0227000D02*
X0121510Y0227500D01*
X0111596Y0218500D02*
X0111050Y0217900D01*
X0094250Y0210200D02*
X0093750Y0209524D01*
X0093550Y0209500D01*
X0093550Y0204600D01*
X0093750Y0187476D02*
X0094250Y0187100D01*
X0055750Y0216500D02*
X0055250Y0216500D01*
D35*
X0104904Y0218500D02*
X0104904Y0219807D01*
X0111596Y0226500D01*
X0112850Y0226500D01*
X0118250Y0231900D01*
X0142250Y0231900D01*
X0165100Y0248470D02*
X0165100Y0283107D01*
X0147707Y0300500D01*
X0165100Y0248470D02*
X0167970Y0245600D01*
X0170744Y0245600D01*
X0182750Y0233594D01*
X0182750Y0230100D01*
X0182750Y0212897D01*
X0185250Y0210397D01*
X0185250Y0176500D01*
X0146850Y0138100D01*
X0137650Y0138100D01*
X0200096Y0227000D02*
X0208844Y0227000D01*
X0224900Y0214150D02*
X0212919Y0202169D01*
X0208250Y0202169D01*
X0224900Y0214150D02*
X0224900Y0260713D01*
X0218738Y0266875D01*
X0218738Y0288331D01*
X0218738Y0304669D01*
D36*
X0158250Y0066500D03*
D37*
X0123050Y0195700D03*
X0145650Y0239300D03*
X0168050Y0236900D03*
D38*
X0177550Y0242400D03*
X0116650Y0206700D03*
X0093550Y0204600D03*
X0080250Y0220700D03*
X0127850Y0136700D03*
X0100550Y0066700D03*
D39*
X0099750Y0106500D03*
X0113250Y0308000D03*
M02*
