M48
INCH,TZ
T10C0.012
T11C0.032
T12C0.040
T13C0.043
T14C0.047
T15C0.063
%
T10
X007225Y011050
X012405Y019370
X011525Y020650
X011025Y021250
X010225Y022350
X009725Y021550
X013125Y022150
X014565Y023930
X014925Y022150
X016805Y023690
X018145Y023870
X016525Y018650
X013925Y019650
T11
X009225Y014050
X009225Y013050
X009225Y012050
X009225Y011050
X005225Y011050
X005225Y012050
X005225Y013050
X005225Y014050
T12
X008000Y006050
X009000Y006050
X010000Y006050
X011000Y006050
X012000Y006050
X013000Y006050
X014000Y006050
X015000Y006050
X017000Y006050
X018000Y006050
X019000Y006050
X020000Y006050
X021000Y006050
X022000Y006050
X021735Y004930
X023515Y004930
X023515Y002370
X021735Y002370
X022000Y025050
X021000Y025050
X020000Y025050
X019000Y025050
X018000Y025050
X017000Y025050
X016000Y025050
X015000Y025050
X013500Y025050
X012500Y025050
X011500Y025050
X010500Y025050
X009500Y025050
X008500Y025050
X007500Y025050
X006500Y025050
X005500Y025050
X004500Y025050
X021735Y027370
X023515Y027370
X023515Y029930
X021735Y029930
T13
X014952Y009533
T14
X005125Y002150
X006503Y002150
X007881Y002150
X009259Y002150
X010637Y002150
X012015Y002150
X013393Y002150
X014771Y002150
X016149Y002150
X017527Y002150
X018905Y002150
X020283Y002150
X004625Y006372
X004625Y007750
X005125Y030050
X006503Y030050
X007881Y030050
X009259Y030050
X010637Y030050
X012015Y030050
X013393Y030050
X014771Y030050
X016149Y030050
X017527Y030050
X018905Y030050
X020283Y030050
T15
X014952Y017840
M30

