G75*
%MOIN*%
%OFA0B0*%
%FSLAX25Y25*%
%IPPOS*%
%LPD*%
%AMOC8*
5,1,8,0,0,1.08239X$1,22.5*
%
%ADD10C,0.00400*%
%ADD11C,0.00300*%
%ADD12C,0.00500*%
%ADD13C,0.00600*%
%ADD14C,0.00200*%
%ADD15R,0.02000X0.04500*%
%ADD16C,0.02400*%
%ADD17R,0.03400X0.02400*%
%ADD18C,0.00800*%
%ADD19R,0.01600X0.03400*%
%ADD20R,0.01969X0.03740*%
%ADD21R,0.01800X0.02300*%
%ADD22C,0.00004*%
%ADD23C,0.00591*%
%ADD24R,0.02953X0.05709*%
%ADD25R,0.02300X0.02300*%
%ADD26R,0.02000X0.04050*%
%ADD27R,0.02000X0.04000*%
%ADD28C,0.00010*%
D10*
X0048946Y0039235D02*
X0050481Y0040769D01*
X0053550Y0040769D01*
X0052783Y0042304D02*
X0049713Y0042304D01*
X0048946Y0043071D01*
X0048946Y0044606D01*
X0049713Y0045373D01*
X0052783Y0042304D01*
X0053550Y0043071D01*
X0053550Y0044606D01*
X0052783Y0045373D01*
X0049713Y0045373D01*
X0051248Y0040769D02*
X0051248Y0037700D01*
X0050481Y0037700D02*
X0048946Y0039235D01*
X0050481Y0037700D02*
X0053550Y0037700D01*
X0062726Y0038467D02*
X0063493Y0037700D01*
X0062726Y0038467D02*
X0062726Y0040002D01*
X0063493Y0040769D01*
X0064260Y0040769D01*
X0065028Y0040002D01*
X0065795Y0040769D01*
X0066562Y0040769D01*
X0067330Y0040002D01*
X0067330Y0038467D01*
X0066562Y0037700D01*
X0065028Y0039235D02*
X0065028Y0040002D01*
X0065795Y0042304D02*
X0062726Y0042304D01*
X0065795Y0042304D02*
X0067330Y0043839D01*
X0065795Y0045373D01*
X0062726Y0045373D01*
X0063493Y0046908D02*
X0062726Y0047675D01*
X0062726Y0049210D01*
X0063493Y0049977D01*
X0064260Y0049977D01*
X0065028Y0049210D01*
X0065795Y0049977D01*
X0066562Y0049977D01*
X0067330Y0049210D01*
X0067330Y0047675D01*
X0066562Y0046908D01*
X0065028Y0048442D02*
X0065028Y0049210D01*
X0064752Y0054700D02*
X0063217Y0054700D01*
X0062450Y0055467D01*
X0062450Y0057002D02*
X0063985Y0057769D01*
X0064752Y0057769D01*
X0065519Y0057002D01*
X0065519Y0055467D01*
X0064752Y0054700D01*
X0067054Y0056235D02*
X0067054Y0059304D01*
X0065519Y0059304D02*
X0062450Y0059304D01*
X0062450Y0057002D01*
X0067054Y0056235D02*
X0068589Y0054700D01*
X0070123Y0056235D01*
X0070123Y0059304D01*
X0067054Y0067700D02*
X0067054Y0068467D01*
X0070123Y0071537D01*
X0070123Y0072304D01*
X0067054Y0072304D01*
X0065519Y0071537D02*
X0065519Y0068467D01*
X0064752Y0067700D01*
X0062450Y0067700D01*
X0062450Y0072304D01*
X0064752Y0072304D01*
X0065519Y0071537D01*
X0064752Y0081700D02*
X0062450Y0081700D01*
X0062450Y0086304D01*
X0064752Y0086304D01*
X0065519Y0085537D01*
X0065519Y0082467D01*
X0064752Y0081700D01*
X0067054Y0084002D02*
X0070123Y0084002D01*
X0069356Y0081700D02*
X0069356Y0086304D01*
X0067054Y0084002D01*
X0067143Y0096200D02*
X0066376Y0096967D01*
X0066376Y0098502D01*
X0067143Y0099269D01*
X0069445Y0099269D01*
X0070979Y0098502D02*
X0071747Y0099269D01*
X0073281Y0099269D01*
X0074049Y0098502D01*
X0074049Y0097735D01*
X0070979Y0097735D01*
X0070979Y0098502D02*
X0070979Y0096967D01*
X0071747Y0096200D01*
X0073281Y0096200D01*
X0069445Y0096200D02*
X0067143Y0096200D01*
X0064841Y0096200D02*
X0064841Y0098502D01*
X0064074Y0099269D01*
X0061772Y0099269D01*
X0061772Y0096200D01*
X0060237Y0097735D02*
X0057168Y0097735D01*
X0057168Y0098502D02*
X0057935Y0099269D01*
X0059470Y0099269D01*
X0060237Y0098502D01*
X0060237Y0097735D01*
X0059470Y0096200D02*
X0057935Y0096200D01*
X0057168Y0096967D01*
X0057168Y0098502D01*
X0055633Y0099269D02*
X0054866Y0099269D01*
X0053331Y0097735D01*
X0053331Y0099269D02*
X0053331Y0096200D01*
X0051796Y0097735D02*
X0048727Y0097735D01*
X0048727Y0098502D02*
X0049494Y0099269D01*
X0051029Y0099269D01*
X0051796Y0098502D01*
X0051796Y0097735D01*
X0051029Y0096200D02*
X0049494Y0096200D01*
X0048727Y0096967D01*
X0048727Y0098502D01*
X0047192Y0098502D02*
X0045658Y0098502D01*
X0044123Y0098502D02*
X0043356Y0099269D01*
X0041821Y0099269D01*
X0041054Y0098502D01*
X0041054Y0096967D01*
X0041821Y0096200D01*
X0043356Y0096200D01*
X0044123Y0097735D02*
X0041054Y0097735D01*
X0039519Y0098502D02*
X0039519Y0100037D01*
X0038752Y0100804D01*
X0036450Y0100804D01*
X0036450Y0096200D01*
X0036450Y0097735D02*
X0038752Y0097735D01*
X0039519Y0098502D01*
X0037985Y0097735D02*
X0039519Y0096200D01*
X0044123Y0097735D02*
X0044123Y0098502D01*
X0046425Y0100037D02*
X0047192Y0100804D01*
X0046425Y0100037D02*
X0046425Y0096200D01*
X0043356Y0108200D02*
X0041821Y0108200D01*
X0041054Y0108967D01*
X0039519Y0108200D02*
X0039519Y0111269D01*
X0037985Y0112804D01*
X0036450Y0111269D01*
X0036450Y0108200D01*
X0036450Y0110502D02*
X0039519Y0110502D01*
X0041054Y0112037D02*
X0041821Y0112804D01*
X0043356Y0112804D01*
X0044123Y0112037D01*
X0044123Y0111269D01*
X0043356Y0110502D01*
X0044123Y0109735D01*
X0044123Y0108967D01*
X0043356Y0108200D01*
X0043356Y0110502D02*
X0042589Y0110502D01*
X0044123Y0118200D02*
X0041054Y0118200D01*
X0044123Y0121269D01*
X0044123Y0122037D01*
X0043356Y0122804D01*
X0041821Y0122804D01*
X0041054Y0122037D01*
X0039519Y0121269D02*
X0039519Y0118200D01*
X0039519Y0120502D02*
X0036450Y0120502D01*
X0036450Y0121269D02*
X0036450Y0118200D01*
X0036450Y0121269D02*
X0037985Y0122804D01*
X0039519Y0121269D01*
X0039519Y0128200D02*
X0039519Y0131269D01*
X0037985Y0132804D01*
X0036450Y0131269D01*
X0036450Y0128200D01*
X0036450Y0130502D02*
X0039519Y0130502D01*
X0041054Y0131269D02*
X0042589Y0132804D01*
X0042589Y0128200D01*
X0044123Y0128200D02*
X0041054Y0128200D01*
X0041821Y0138200D02*
X0041054Y0138967D01*
X0044123Y0142037D01*
X0044123Y0138967D01*
X0043356Y0138200D01*
X0041821Y0138200D01*
X0041054Y0138967D02*
X0041054Y0142037D01*
X0041821Y0142804D01*
X0043356Y0142804D01*
X0044123Y0142037D01*
X0039519Y0141269D02*
X0039519Y0138200D01*
X0039519Y0140502D02*
X0036450Y0140502D01*
X0036450Y0141269D02*
X0037985Y0142804D01*
X0039519Y0141269D01*
X0036450Y0141269D02*
X0036450Y0138200D01*
X0080187Y0100804D02*
X0080187Y0096200D01*
X0080187Y0097735D02*
X0082489Y0097735D01*
X0083257Y0098502D01*
X0083257Y0100037D01*
X0082489Y0100804D01*
X0080187Y0100804D01*
X0081722Y0097735D02*
X0083257Y0096200D01*
X0084791Y0096967D02*
X0084791Y0098502D01*
X0085559Y0099269D01*
X0087093Y0099269D01*
X0087860Y0098502D01*
X0087860Y0097735D01*
X0084791Y0097735D01*
X0084791Y0096967D02*
X0085559Y0096200D01*
X0087093Y0096200D01*
X0089395Y0096200D02*
X0091697Y0096200D01*
X0092464Y0096967D01*
X0091697Y0097735D01*
X0090162Y0097735D01*
X0089395Y0098502D01*
X0090162Y0099269D01*
X0092464Y0099269D01*
X0093999Y0099269D02*
X0094766Y0099269D01*
X0094766Y0096200D01*
X0093999Y0096200D02*
X0095534Y0096200D01*
X0097068Y0096200D02*
X0099370Y0096200D01*
X0100138Y0096967D01*
X0099370Y0097735D01*
X0097836Y0097735D01*
X0097068Y0098502D01*
X0097836Y0099269D01*
X0100138Y0099269D01*
X0101672Y0099269D02*
X0103207Y0099269D01*
X0102440Y0100037D02*
X0102440Y0096967D01*
X0103207Y0096200D01*
X0104742Y0096967D02*
X0105509Y0096200D01*
X0107043Y0096200D01*
X0107811Y0096967D01*
X0107811Y0098502D01*
X0107043Y0099269D01*
X0105509Y0099269D01*
X0104742Y0098502D01*
X0104742Y0096967D01*
X0109345Y0096200D02*
X0109345Y0099269D01*
X0109345Y0097735D02*
X0110880Y0099269D01*
X0111647Y0099269D01*
X0113182Y0098502D02*
X0113949Y0099269D01*
X0116251Y0099269D01*
X0115484Y0097735D02*
X0113949Y0097735D01*
X0113182Y0098502D01*
X0113182Y0096200D02*
X0115484Y0096200D01*
X0116251Y0096967D01*
X0115484Y0097735D01*
X0108652Y0108850D02*
X0105848Y0108850D01*
X0105848Y0112201D02*
X0108652Y0112201D01*
X0108652Y0118850D02*
X0105848Y0118850D01*
X0105848Y0122201D02*
X0108652Y0122201D01*
X0108652Y0128850D02*
X0105848Y0128850D01*
X0105848Y0132201D02*
X0108652Y0132201D01*
X0108652Y0138850D02*
X0105848Y0138850D01*
X0105848Y0142201D02*
X0108652Y0142201D01*
X0108960Y0152200D02*
X0107425Y0152200D01*
X0106658Y0152967D01*
X0105123Y0153735D02*
X0105123Y0156804D01*
X0106658Y0156037D02*
X0107425Y0156804D01*
X0108960Y0156804D01*
X0109727Y0156037D01*
X0109727Y0155269D01*
X0108960Y0154502D01*
X0109727Y0153735D01*
X0109727Y0152967D01*
X0108960Y0152200D01*
X0108960Y0154502D02*
X0108192Y0154502D01*
X0105123Y0153735D02*
X0103589Y0152200D01*
X0102054Y0153735D01*
X0102054Y0156804D01*
X0100519Y0156037D02*
X0100519Y0155269D01*
X0099752Y0154502D01*
X0100519Y0153735D01*
X0100519Y0152967D01*
X0099752Y0152200D01*
X0098217Y0152200D01*
X0097450Y0152967D01*
X0098985Y0154502D02*
X0099752Y0154502D01*
X0100519Y0156037D02*
X0099752Y0156804D01*
X0098217Y0156804D01*
X0097450Y0156037D01*
X0097450Y0162200D02*
X0097450Y0165269D01*
X0098985Y0166804D01*
X0100519Y0165269D01*
X0100519Y0162200D01*
X0102054Y0162200D02*
X0102054Y0166804D01*
X0104356Y0166804D01*
X0105123Y0166037D01*
X0105123Y0164502D01*
X0104356Y0163735D01*
X0102054Y0163735D01*
X0103589Y0163735D02*
X0105123Y0162200D01*
X0106658Y0162200D02*
X0106658Y0166804D01*
X0109727Y0166804D01*
X0111262Y0166804D02*
X0114331Y0166804D01*
X0112796Y0164502D02*
X0111262Y0164502D01*
X0111262Y0162200D02*
X0111262Y0166804D01*
X0108192Y0164502D02*
X0106658Y0164502D01*
X0106658Y0162200D02*
X0109727Y0162200D01*
X0100519Y0164502D02*
X0097450Y0164502D01*
X0123848Y0216350D02*
X0126652Y0216350D01*
X0126652Y0219701D02*
X0123848Y0219701D01*
X0123848Y0224902D02*
X0126750Y0224902D01*
X0126750Y0230098D02*
X0123750Y0230098D01*
X0094889Y0266819D02*
X0090285Y0266819D01*
X0091819Y0268354D01*
X0090285Y0269888D01*
X0094889Y0269888D01*
X0094121Y0271423D02*
X0094889Y0272190D01*
X0094889Y0273725D01*
X0094121Y0274492D01*
X0091052Y0274492D01*
X0090285Y0273725D01*
X0090285Y0272190D01*
X0091052Y0271423D01*
X0094121Y0271423D01*
X0094121Y0276027D02*
X0094889Y0276794D01*
X0094889Y0278329D01*
X0094121Y0279096D01*
X0093354Y0279096D01*
X0092587Y0278329D01*
X0092587Y0276794D01*
X0091819Y0276027D01*
X0091052Y0276027D01*
X0090285Y0276794D01*
X0090285Y0278329D01*
X0091052Y0279096D01*
X0090285Y0280631D02*
X0090285Y0282165D01*
X0090285Y0281398D02*
X0094889Y0281398D01*
X0094889Y0280631D02*
X0094889Y0282165D01*
X0104064Y0281398D02*
X0104064Y0279863D01*
X0104832Y0279096D01*
X0107901Y0279096D01*
X0108668Y0279863D01*
X0108668Y0281398D01*
X0107901Y0282165D01*
X0104832Y0282165D02*
X0104064Y0281398D01*
X0104832Y0277561D02*
X0104064Y0276794D01*
X0104064Y0275259D01*
X0104832Y0274492D01*
X0107901Y0274492D01*
X0108668Y0275259D01*
X0108668Y0276794D01*
X0107901Y0277561D01*
X0107133Y0272957D02*
X0104064Y0272957D01*
X0104064Y0269888D02*
X0107133Y0269888D01*
X0108668Y0271423D01*
X0107133Y0272957D01*
X0117844Y0274492D02*
X0117844Y0276794D01*
X0118611Y0277561D01*
X0121680Y0277561D01*
X0122448Y0276794D01*
X0122448Y0274492D01*
X0117844Y0274492D01*
X0118611Y0279096D02*
X0119378Y0279096D01*
X0120146Y0279863D01*
X0120146Y0282165D01*
X0121680Y0282165D02*
X0118611Y0282165D01*
X0117844Y0281398D01*
X0117844Y0279863D01*
X0118611Y0279096D01*
X0121680Y0279096D02*
X0122448Y0279863D01*
X0122448Y0281398D01*
X0121680Y0282165D01*
X0131623Y0282165D02*
X0132391Y0280631D01*
X0133925Y0279096D01*
X0133925Y0281398D01*
X0134693Y0282165D01*
X0135460Y0282165D01*
X0136227Y0281398D01*
X0136227Y0279863D01*
X0135460Y0279096D01*
X0133925Y0279096D01*
X0135460Y0277561D02*
X0132391Y0277561D01*
X0131623Y0276794D01*
X0131623Y0274492D01*
X0136227Y0274492D01*
X0136227Y0276794D01*
X0135460Y0277561D01*
X0145403Y0277561D02*
X0148472Y0277561D01*
X0150007Y0276027D01*
X0148472Y0274492D01*
X0145403Y0274492D01*
X0146170Y0272957D02*
X0146937Y0272957D01*
X0147705Y0272190D01*
X0148472Y0272957D01*
X0149239Y0272957D01*
X0150007Y0272190D01*
X0150007Y0270656D01*
X0149239Y0269888D01*
X0147705Y0271423D02*
X0147705Y0272190D01*
X0146170Y0272957D02*
X0145403Y0272190D01*
X0145403Y0270656D01*
X0146170Y0269888D01*
X0146170Y0279096D02*
X0145403Y0279863D01*
X0145403Y0281398D01*
X0146170Y0282165D01*
X0146937Y0282165D01*
X0147705Y0281398D01*
X0148472Y0282165D01*
X0149239Y0282165D01*
X0150007Y0281398D01*
X0150007Y0279863D01*
X0149239Y0279096D01*
X0147705Y0280631D02*
X0147705Y0281398D01*
X0159182Y0281398D02*
X0159182Y0279096D01*
X0163786Y0279096D01*
X0163786Y0281398D01*
X0163019Y0282165D01*
X0159950Y0282165D01*
X0159182Y0281398D01*
X0159182Y0277561D02*
X0163786Y0277561D01*
X0159182Y0274492D01*
X0163786Y0274492D01*
X0163019Y0272957D02*
X0161484Y0272957D01*
X0161484Y0271423D01*
X0159950Y0272957D02*
X0159182Y0272190D01*
X0159182Y0270656D01*
X0159950Y0269888D01*
X0163019Y0269888D01*
X0163786Y0270656D01*
X0163786Y0272190D01*
X0163019Y0272957D01*
X0186741Y0274492D02*
X0186741Y0276794D01*
X0187509Y0277561D01*
X0189043Y0277561D01*
X0189811Y0276794D01*
X0189811Y0274492D01*
X0191345Y0274492D02*
X0186741Y0274492D01*
X0189811Y0276027D02*
X0191345Y0277561D01*
X0191345Y0279096D02*
X0186741Y0282165D01*
X0186741Y0279096D02*
X0191345Y0282165D01*
X0200521Y0282165D02*
X0205125Y0279096D01*
X0205125Y0276027D02*
X0200521Y0276027D01*
X0200521Y0277561D02*
X0200521Y0274492D01*
X0200521Y0279096D02*
X0205125Y0282165D01*
X0081109Y0281398D02*
X0080342Y0282165D01*
X0077272Y0282165D01*
X0076505Y0281398D01*
X0076505Y0279863D01*
X0077272Y0279096D01*
X0080342Y0279096D01*
X0081109Y0279863D01*
X0081109Y0281398D01*
X0080342Y0277561D02*
X0081109Y0276794D01*
X0081109Y0275259D01*
X0080342Y0274492D01*
X0081109Y0272957D02*
X0081109Y0271423D01*
X0081109Y0272190D02*
X0076505Y0272190D01*
X0076505Y0271423D02*
X0076505Y0272957D01*
X0077272Y0274492D02*
X0076505Y0275259D01*
X0076505Y0276794D01*
X0077272Y0277561D01*
X0078807Y0276794D02*
X0079574Y0277561D01*
X0080342Y0277561D01*
X0078807Y0276794D02*
X0078807Y0275259D01*
X0078040Y0274492D01*
X0077272Y0274492D01*
X0076505Y0269888D02*
X0081109Y0269888D01*
X0081109Y0266819D02*
X0076505Y0266819D01*
X0078040Y0268354D01*
X0076505Y0269888D01*
X0067330Y0270656D02*
X0066562Y0269888D01*
X0067330Y0270656D02*
X0067330Y0272190D01*
X0066562Y0272957D01*
X0065795Y0272957D01*
X0065028Y0272190D01*
X0065028Y0270656D01*
X0064260Y0269888D01*
X0063493Y0269888D01*
X0062726Y0270656D01*
X0062726Y0272190D01*
X0063493Y0272957D01*
X0063493Y0274492D02*
X0066562Y0274492D01*
X0067330Y0275259D01*
X0067330Y0276794D01*
X0066562Y0277561D01*
X0065795Y0279096D02*
X0062726Y0282165D01*
X0062726Y0279096D02*
X0067330Y0279096D01*
X0065028Y0279863D02*
X0067330Y0282165D01*
X0063493Y0277561D02*
X0062726Y0276794D01*
X0062726Y0275259D01*
X0063493Y0274492D01*
X0053550Y0274492D02*
X0048946Y0274492D01*
X0053550Y0277561D01*
X0048946Y0277561D01*
X0048946Y0279096D02*
X0048946Y0281398D01*
X0049713Y0282165D01*
X0052783Y0282165D01*
X0053550Y0281398D01*
X0053550Y0279096D01*
X0048946Y0279096D01*
X0049713Y0272957D02*
X0048946Y0272190D01*
X0048946Y0270656D01*
X0049713Y0269888D01*
X0052783Y0269888D01*
X0053550Y0270656D01*
X0053550Y0272190D01*
X0052783Y0272957D01*
X0051248Y0272957D01*
X0051248Y0271423D01*
X0094766Y0101571D02*
X0094766Y0100804D01*
X0094121Y0049977D02*
X0094889Y0049210D01*
X0094889Y0047675D01*
X0094121Y0046908D01*
X0093354Y0045373D02*
X0090285Y0045373D01*
X0091052Y0046908D02*
X0090285Y0047675D01*
X0090285Y0049210D01*
X0091052Y0049977D01*
X0091819Y0049977D01*
X0092587Y0049210D01*
X0093354Y0049977D01*
X0094121Y0049977D01*
X0092587Y0049210D02*
X0092587Y0048442D01*
X0093354Y0045373D02*
X0094889Y0043839D01*
X0093354Y0042304D01*
X0090285Y0042304D01*
X0091052Y0040769D02*
X0091819Y0040769D01*
X0092587Y0040002D01*
X0093354Y0040769D01*
X0094121Y0040769D01*
X0094889Y0040002D01*
X0094889Y0038467D01*
X0094121Y0037700D01*
X0092587Y0039235D02*
X0092587Y0040002D01*
X0091052Y0040769D02*
X0090285Y0040002D01*
X0090285Y0038467D01*
X0091052Y0037700D01*
X0081109Y0037700D02*
X0078040Y0037700D01*
X0076505Y0039235D01*
X0078040Y0040769D01*
X0081109Y0040769D01*
X0081109Y0042304D02*
X0081109Y0045373D01*
X0081109Y0043839D02*
X0076505Y0043839D01*
X0078040Y0042304D01*
X0078807Y0040769D02*
X0078807Y0037700D01*
X0104064Y0039235D02*
X0105599Y0037700D01*
X0108668Y0037700D01*
X0106366Y0037700D02*
X0106366Y0040769D01*
X0105599Y0040769D02*
X0108668Y0040769D01*
X0108668Y0042304D02*
X0105599Y0045373D01*
X0104832Y0045373D01*
X0104064Y0044606D01*
X0104064Y0043071D01*
X0104832Y0042304D01*
X0105599Y0040769D02*
X0104064Y0039235D01*
X0108668Y0042304D02*
X0108668Y0045373D01*
X0117844Y0045373D02*
X0120913Y0045373D01*
X0122448Y0043839D01*
X0120913Y0042304D01*
X0117844Y0042304D01*
X0118611Y0040769D02*
X0119378Y0040769D01*
X0120146Y0040002D01*
X0120913Y0040769D01*
X0121680Y0040769D01*
X0122448Y0040002D01*
X0122448Y0038467D01*
X0121680Y0037700D01*
X0120146Y0039235D02*
X0120146Y0040002D01*
X0118611Y0040769D02*
X0117844Y0040002D01*
X0117844Y0038467D01*
X0118611Y0037700D01*
X0118611Y0046908D02*
X0117844Y0047675D01*
X0117844Y0049210D01*
X0118611Y0049977D01*
X0119378Y0049977D01*
X0120146Y0049210D01*
X0120913Y0049977D01*
X0121680Y0049977D01*
X0122448Y0049210D01*
X0122448Y0047675D01*
X0121680Y0046908D01*
X0120146Y0048442D02*
X0120146Y0049210D01*
X0131623Y0044606D02*
X0131623Y0043071D01*
X0132391Y0042304D01*
X0133158Y0040769D02*
X0136227Y0040769D01*
X0135460Y0042304D02*
X0136227Y0043071D01*
X0136227Y0044606D01*
X0135460Y0045373D01*
X0134693Y0045373D01*
X0133925Y0044606D01*
X0133925Y0043839D01*
X0133925Y0044606D02*
X0133158Y0045373D01*
X0132391Y0045373D01*
X0131623Y0044606D01*
X0133158Y0040769D02*
X0131623Y0039235D01*
X0133158Y0037700D01*
X0136227Y0037700D01*
X0133925Y0037700D02*
X0133925Y0040769D01*
X0145403Y0040002D02*
X0146170Y0040769D01*
X0146937Y0040769D01*
X0147705Y0040002D01*
X0148472Y0040769D01*
X0149239Y0040769D01*
X0150007Y0040002D01*
X0150007Y0038467D01*
X0149239Y0037700D01*
X0147705Y0039235D02*
X0147705Y0040002D01*
X0145403Y0040002D02*
X0145403Y0038467D01*
X0146170Y0037700D01*
X0145403Y0042304D02*
X0148472Y0042304D01*
X0150007Y0043839D01*
X0148472Y0045373D01*
X0145403Y0045373D01*
X0146170Y0046908D02*
X0145403Y0047675D01*
X0145403Y0049210D01*
X0146170Y0049977D01*
X0146937Y0049977D01*
X0147705Y0049210D01*
X0148472Y0049977D01*
X0149239Y0049977D01*
X0150007Y0049210D01*
X0150007Y0047675D01*
X0149239Y0046908D01*
X0147705Y0048442D02*
X0147705Y0049210D01*
X0159182Y0049210D02*
X0159182Y0047675D01*
X0159950Y0046908D01*
X0163019Y0046908D01*
X0163786Y0047675D01*
X0163786Y0049210D01*
X0163019Y0049977D01*
X0159950Y0049977D02*
X0159182Y0049210D01*
X0159950Y0045373D02*
X0159182Y0044606D01*
X0159182Y0043071D01*
X0159950Y0042304D01*
X0163019Y0042304D01*
X0163786Y0043071D01*
X0163786Y0044606D01*
X0163019Y0045373D01*
X0162252Y0040769D02*
X0159182Y0040769D01*
X0159182Y0037700D02*
X0162252Y0037700D01*
X0163786Y0039235D01*
X0162252Y0040769D01*
X0172962Y0040002D02*
X0172962Y0038467D01*
X0173729Y0037700D01*
X0176798Y0037700D01*
X0177566Y0038467D01*
X0177566Y0040002D01*
X0176798Y0040769D01*
X0175264Y0040769D01*
X0175264Y0039235D01*
X0173729Y0040769D02*
X0172962Y0040002D01*
X0172962Y0042304D02*
X0177566Y0045373D01*
X0172962Y0045373D01*
X0172962Y0046908D02*
X0172962Y0049210D01*
X0173729Y0049977D01*
X0176798Y0049977D01*
X0177566Y0049210D01*
X0177566Y0046908D01*
X0172962Y0046908D01*
X0172962Y0042304D02*
X0177566Y0042304D01*
X0186741Y0042304D02*
X0186741Y0044606D01*
X0187509Y0045373D01*
X0190578Y0045373D01*
X0191345Y0044606D01*
X0191345Y0042304D01*
X0186741Y0042304D01*
X0187509Y0040769D02*
X0186741Y0040002D01*
X0186741Y0038467D01*
X0187509Y0037700D01*
X0188276Y0037700D01*
X0189043Y0038467D01*
X0189043Y0040002D01*
X0189811Y0040769D01*
X0190578Y0040769D01*
X0191345Y0040002D01*
X0191345Y0038467D01*
X0190578Y0037700D01*
X0191345Y0046908D02*
X0188276Y0046908D01*
X0186741Y0048442D01*
X0188276Y0049977D01*
X0191345Y0049977D01*
X0189043Y0049977D02*
X0189043Y0046908D01*
X0200521Y0046908D02*
X0205125Y0046908D01*
X0205125Y0049977D01*
X0204357Y0045373D02*
X0205125Y0044606D01*
X0205125Y0043071D01*
X0204357Y0042304D01*
X0201288Y0042304D01*
X0200521Y0043071D01*
X0200521Y0044606D01*
X0201288Y0045373D01*
X0201288Y0040769D02*
X0200521Y0040002D01*
X0200521Y0038467D01*
X0201288Y0037700D01*
X0202056Y0037700D01*
X0202823Y0038467D01*
X0202823Y0040002D01*
X0203590Y0040769D01*
X0204357Y0040769D01*
X0205125Y0040002D01*
X0205125Y0038467D01*
X0204357Y0037700D01*
D11*
X0124350Y0146150D02*
X0122415Y0146150D01*
X0121448Y0147117D01*
X0122415Y0148085D01*
X0124350Y0148085D01*
X0124350Y0149097D02*
X0124350Y0151031D01*
X0123866Y0152043D02*
X0124350Y0152527D01*
X0124350Y0153494D01*
X0123866Y0153978D01*
X0122899Y0153978D01*
X0122415Y0153494D01*
X0122415Y0152527D01*
X0122899Y0152043D01*
X0123866Y0152043D01*
X0123866Y0154990D02*
X0124350Y0155473D01*
X0124350Y0156925D01*
X0124834Y0156925D02*
X0122415Y0156925D01*
X0122415Y0155473D01*
X0122899Y0154990D01*
X0123866Y0154990D01*
X0125317Y0155957D02*
X0125317Y0156441D01*
X0124834Y0156925D01*
X0122899Y0157936D02*
X0122899Y0159871D01*
X0122415Y0160883D02*
X0122899Y0161366D01*
X0122899Y0162334D01*
X0123383Y0162818D01*
X0123866Y0162818D01*
X0124350Y0162334D01*
X0124350Y0161366D01*
X0123866Y0160883D01*
X0122415Y0160883D02*
X0121931Y0160883D01*
X0121448Y0161366D01*
X0121448Y0162334D01*
X0121931Y0162818D01*
X0121448Y0163829D02*
X0124350Y0163829D01*
X0122899Y0163829D02*
X0122415Y0164313D01*
X0122415Y0165280D01*
X0122899Y0165764D01*
X0124350Y0165764D01*
X0124350Y0166776D02*
X0124350Y0167743D01*
X0124350Y0167259D02*
X0122415Y0167259D01*
X0122415Y0166776D01*
X0121448Y0167259D02*
X0120964Y0167259D01*
X0122899Y0168740D02*
X0122415Y0169224D01*
X0122415Y0170191D01*
X0122899Y0170675D01*
X0123383Y0170675D01*
X0123383Y0168740D01*
X0123866Y0168740D02*
X0122899Y0168740D01*
X0123866Y0168740D02*
X0124350Y0169224D01*
X0124350Y0170191D01*
X0124350Y0171686D02*
X0124350Y0172654D01*
X0124350Y0172170D02*
X0121448Y0172170D01*
X0121448Y0171686D01*
X0122899Y0173651D02*
X0122415Y0174135D01*
X0122415Y0175586D01*
X0121448Y0175586D02*
X0124350Y0175586D01*
X0124350Y0174135D01*
X0123866Y0173651D01*
X0122899Y0173651D01*
X0122415Y0179544D02*
X0124350Y0180511D01*
X0122415Y0181479D01*
X0121931Y0182490D02*
X0121448Y0182974D01*
X0121448Y0183942D01*
X0121931Y0184425D01*
X0122415Y0184425D01*
X0124350Y0182490D01*
X0124350Y0184425D01*
X0124350Y0185437D02*
X0123866Y0185437D01*
X0123866Y0185921D01*
X0124350Y0185921D01*
X0124350Y0185437D01*
X0124350Y0186910D02*
X0122415Y0188845D01*
X0121931Y0188845D01*
X0121448Y0188361D01*
X0121448Y0187394D01*
X0121931Y0186910D01*
X0124350Y0186910D02*
X0124350Y0188845D01*
X0124350Y0189857D02*
X0124350Y0190340D01*
X0123866Y0190340D01*
X0123866Y0189857D01*
X0124350Y0189857D01*
X0123866Y0191330D02*
X0121931Y0193265D01*
X0123866Y0193265D01*
X0124350Y0192781D01*
X0124350Y0191814D01*
X0123866Y0191330D01*
X0121931Y0191330D01*
X0121448Y0191814D01*
X0121448Y0192781D01*
X0121931Y0193265D01*
X0121448Y0149097D02*
X0124350Y0149097D01*
X0122899Y0148085D02*
X0122899Y0146150D01*
X0170400Y0159384D02*
X0170884Y0158900D01*
X0171851Y0158900D01*
X0172335Y0159384D01*
X0172335Y0161802D01*
X0173347Y0160835D02*
X0174798Y0160835D01*
X0175281Y0160351D01*
X0175281Y0158900D01*
X0176293Y0158900D02*
X0177261Y0158900D01*
X0176777Y0158900D02*
X0176777Y0160835D01*
X0176293Y0160835D01*
X0176777Y0161802D02*
X0176777Y0162286D01*
X0176293Y0163700D02*
X0176293Y0165635D01*
X0177261Y0165635D02*
X0177744Y0165635D01*
X0177261Y0165635D02*
X0176293Y0164667D01*
X0175281Y0164184D02*
X0175281Y0165151D01*
X0174798Y0165635D01*
X0173830Y0165635D01*
X0173347Y0165151D01*
X0173347Y0164184D01*
X0173830Y0163700D01*
X0174798Y0163700D01*
X0175281Y0164184D01*
X0172335Y0163700D02*
X0172335Y0166602D01*
X0170400Y0166602D02*
X0170400Y0163700D01*
X0170400Y0161802D02*
X0170400Y0159384D01*
X0173347Y0158900D02*
X0173347Y0160835D01*
X0172335Y0163700D02*
X0170400Y0166602D01*
X0170884Y0168500D02*
X0171851Y0168500D01*
X0172335Y0168984D01*
X0173347Y0168500D02*
X0173347Y0171402D01*
X0173830Y0170435D02*
X0173347Y0169951D01*
X0173830Y0170435D02*
X0174798Y0170435D01*
X0175281Y0169951D01*
X0175281Y0168500D01*
X0176293Y0168984D02*
X0176777Y0169467D01*
X0178228Y0169467D01*
X0178228Y0169951D02*
X0178228Y0168500D01*
X0176777Y0168500D01*
X0176293Y0168984D01*
X0176777Y0170435D02*
X0177744Y0170435D01*
X0178228Y0169951D01*
X0179240Y0169951D02*
X0179723Y0170435D01*
X0181175Y0170435D01*
X0181175Y0171402D02*
X0181175Y0168500D01*
X0179723Y0168500D01*
X0179240Y0168984D01*
X0179240Y0169951D01*
X0180207Y0172333D02*
X0180691Y0172333D01*
X0181175Y0172816D01*
X0181175Y0175235D01*
X0181175Y0173300D02*
X0179723Y0173300D01*
X0179240Y0173784D01*
X0179240Y0175235D01*
X0178228Y0175235D02*
X0176777Y0175235D01*
X0176293Y0174751D01*
X0176293Y0173784D01*
X0176777Y0173300D01*
X0178228Y0173300D01*
X0178228Y0176202D01*
X0179723Y0178100D02*
X0180207Y0178100D01*
X0180691Y0178584D01*
X0180691Y0181002D01*
X0180207Y0181002D02*
X0181175Y0181002D01*
X0180691Y0181933D02*
X0181175Y0182416D01*
X0181175Y0184835D01*
X0179723Y0184835D01*
X0179240Y0184351D01*
X0179240Y0183384D01*
X0179723Y0182900D01*
X0181175Y0182900D01*
X0180691Y0181933D02*
X0180207Y0181933D01*
X0178228Y0183384D02*
X0178228Y0184351D01*
X0177744Y0184835D01*
X0176777Y0184835D01*
X0176293Y0184351D01*
X0176293Y0183384D01*
X0176777Y0182900D01*
X0177744Y0182900D01*
X0178228Y0183384D01*
X0175281Y0182900D02*
X0173347Y0182900D01*
X0173347Y0185802D01*
X0172335Y0184835D02*
X0172335Y0182900D01*
X0172335Y0184351D02*
X0170400Y0184351D01*
X0170400Y0184835D02*
X0170400Y0182900D01*
X0170400Y0184835D02*
X0171367Y0185802D01*
X0172335Y0184835D01*
X0171851Y0181002D02*
X0170884Y0181002D01*
X0170400Y0180519D01*
X0170400Y0178584D01*
X0172335Y0180519D01*
X0172335Y0178584D01*
X0171851Y0178100D01*
X0170884Y0178100D01*
X0170400Y0178584D01*
X0171367Y0176202D02*
X0170400Y0175235D01*
X0170400Y0173300D01*
X0170400Y0174751D02*
X0172335Y0174751D01*
X0172335Y0175235D02*
X0172335Y0173300D01*
X0173347Y0173300D02*
X0173347Y0175235D01*
X0174798Y0175235D01*
X0175281Y0174751D01*
X0175281Y0173300D01*
X0172335Y0175235D02*
X0171367Y0176202D01*
X0173347Y0178584D02*
X0173830Y0178100D01*
X0174798Y0178100D01*
X0175281Y0178584D01*
X0175281Y0179067D01*
X0174798Y0179551D01*
X0173347Y0179551D01*
X0173347Y0178584D01*
X0173347Y0179551D02*
X0174314Y0180519D01*
X0175281Y0181002D01*
X0172335Y0180519D02*
X0171851Y0181002D01*
X0179240Y0178584D02*
X0179723Y0178100D01*
X0182186Y0178584D02*
X0182670Y0178100D01*
X0184121Y0178100D01*
X0184121Y0180035D01*
X0185133Y0180035D02*
X0186584Y0180035D01*
X0187068Y0179551D01*
X0187068Y0178100D01*
X0188079Y0178584D02*
X0188079Y0179551D01*
X0188563Y0180035D01*
X0189530Y0180035D01*
X0190014Y0179551D01*
X0190014Y0179067D01*
X0188079Y0179067D01*
X0188079Y0178584D02*
X0188563Y0178100D01*
X0189530Y0178100D01*
X0188563Y0176686D02*
X0188563Y0176202D01*
X0188563Y0175235D02*
X0188563Y0173300D01*
X0188079Y0173300D02*
X0189047Y0173300D01*
X0190043Y0173784D02*
X0190527Y0173300D01*
X0191978Y0173300D01*
X0192990Y0173300D02*
X0192990Y0176202D01*
X0191978Y0175235D02*
X0190527Y0175235D01*
X0190043Y0174751D01*
X0190043Y0173784D01*
X0188563Y0175235D02*
X0188079Y0175235D01*
X0187068Y0176202D02*
X0187068Y0173300D01*
X0186100Y0174267D01*
X0185133Y0173300D01*
X0185133Y0176202D01*
X0185133Y0178100D02*
X0185133Y0180035D01*
X0185616Y0182900D02*
X0185133Y0183384D01*
X0185616Y0182900D02*
X0186584Y0182900D01*
X0187068Y0183384D01*
X0187068Y0183867D01*
X0186584Y0184351D01*
X0185616Y0184351D01*
X0185133Y0184835D01*
X0185133Y0185319D01*
X0185616Y0185802D01*
X0186584Y0185802D01*
X0187068Y0185319D01*
X0188079Y0185802D02*
X0188079Y0182900D01*
X0188079Y0184351D02*
X0188563Y0184835D01*
X0189530Y0184835D01*
X0190014Y0184351D01*
X0190014Y0182900D01*
X0191026Y0182900D02*
X0191993Y0182900D01*
X0191509Y0182900D02*
X0191509Y0184835D01*
X0191026Y0184835D01*
X0191509Y0185802D02*
X0191509Y0186286D01*
X0192990Y0184351D02*
X0193474Y0184835D01*
X0194441Y0184835D01*
X0194925Y0184351D01*
X0194925Y0183867D01*
X0192990Y0183867D01*
X0192990Y0183384D02*
X0192990Y0184351D01*
X0192990Y0183384D02*
X0193474Y0182900D01*
X0194441Y0182900D01*
X0195936Y0182900D02*
X0196904Y0182900D01*
X0196420Y0182900D02*
X0196420Y0185802D01*
X0195936Y0185802D01*
X0197901Y0184351D02*
X0198385Y0184835D01*
X0199836Y0184835D01*
X0199836Y0185802D02*
X0199836Y0182900D01*
X0198385Y0182900D01*
X0197901Y0183384D01*
X0197901Y0184351D01*
X0198370Y0181002D02*
X0197402Y0181002D01*
X0196919Y0180519D01*
X0196919Y0178584D01*
X0198854Y0180519D01*
X0198854Y0178584D01*
X0198370Y0178100D01*
X0197402Y0178100D01*
X0196919Y0178584D01*
X0195907Y0178100D02*
X0193972Y0178100D01*
X0195907Y0180035D01*
X0195907Y0180519D01*
X0195423Y0181002D01*
X0194456Y0181002D01*
X0193972Y0180519D01*
X0194441Y0175235D02*
X0192990Y0174267D01*
X0194441Y0173300D01*
X0195445Y0173784D02*
X0195445Y0174751D01*
X0195929Y0175235D01*
X0196897Y0175235D01*
X0197380Y0174751D01*
X0197380Y0174267D01*
X0195445Y0174267D01*
X0195445Y0173784D02*
X0195929Y0173300D01*
X0196897Y0173300D01*
X0198392Y0173300D02*
X0198392Y0175235D01*
X0199359Y0175235D02*
X0199843Y0175235D01*
X0199359Y0175235D02*
X0198392Y0174267D01*
X0200847Y0175235D02*
X0201815Y0175235D01*
X0201331Y0175719D02*
X0201331Y0173784D01*
X0201815Y0173300D01*
X0201830Y0171402D02*
X0202313Y0171402D01*
X0202313Y0168500D01*
X0201830Y0168500D02*
X0202797Y0168500D01*
X0200833Y0168500D02*
X0199865Y0168500D01*
X0200349Y0168500D02*
X0200349Y0171402D01*
X0199865Y0171402D01*
X0198854Y0169951D02*
X0198854Y0169467D01*
X0196919Y0169467D01*
X0196919Y0168984D02*
X0196919Y0169951D01*
X0197402Y0170435D01*
X0198370Y0170435D01*
X0198854Y0169951D01*
X0198370Y0168500D02*
X0197402Y0168500D01*
X0196919Y0168984D01*
X0195907Y0168500D02*
X0195907Y0171402D01*
X0195907Y0170435D02*
X0194456Y0170435D01*
X0193972Y0169951D01*
X0193972Y0168984D01*
X0194456Y0168500D01*
X0195907Y0168500D01*
X0194954Y0166602D02*
X0194954Y0163700D01*
X0195922Y0164667D01*
X0196889Y0163700D01*
X0196889Y0166602D01*
X0197901Y0165635D02*
X0198385Y0165635D01*
X0198385Y0163700D01*
X0198868Y0163700D02*
X0197901Y0163700D01*
X0199865Y0164184D02*
X0199865Y0165151D01*
X0200349Y0165635D01*
X0201800Y0165635D01*
X0201800Y0166602D02*
X0201800Y0163700D01*
X0200349Y0163700D01*
X0199865Y0164184D01*
X0198385Y0166602D02*
X0198385Y0167086D01*
X0202812Y0165151D02*
X0202812Y0164184D01*
X0203295Y0163700D01*
X0204747Y0163700D01*
X0204747Y0163216D02*
X0204747Y0165635D01*
X0203295Y0165635D01*
X0202812Y0165151D01*
X0203779Y0162733D02*
X0204263Y0162733D01*
X0204747Y0163216D01*
X0205758Y0164184D02*
X0205758Y0165151D01*
X0206242Y0165635D01*
X0207209Y0165635D01*
X0207693Y0165151D01*
X0207693Y0164667D01*
X0205758Y0164667D01*
X0205758Y0164184D02*
X0206242Y0163700D01*
X0207209Y0163700D01*
X0207231Y0161802D02*
X0208199Y0160835D01*
X0209166Y0161802D01*
X0209166Y0158900D01*
X0210178Y0158900D02*
X0211145Y0158900D01*
X0210662Y0158900D02*
X0210662Y0160835D01*
X0210178Y0160835D01*
X0210662Y0161802D02*
X0210662Y0162286D01*
X0209672Y0163700D02*
X0209188Y0164184D01*
X0209188Y0166119D01*
X0208705Y0165635D02*
X0209672Y0165635D01*
X0213616Y0166602D02*
X0213616Y0163700D01*
X0215551Y0163700D01*
X0216562Y0163700D02*
X0218497Y0163700D01*
X0219509Y0164184D02*
X0219992Y0163700D01*
X0220960Y0163700D01*
X0221444Y0164184D01*
X0221444Y0166119D02*
X0220960Y0166602D01*
X0219992Y0166602D01*
X0219509Y0166119D01*
X0219509Y0164184D01*
X0216562Y0163700D02*
X0216562Y0166602D01*
X0216540Y0160835D02*
X0215089Y0160835D01*
X0215089Y0158900D01*
X0214077Y0158900D02*
X0214077Y0160351D01*
X0213594Y0160835D01*
X0212142Y0160835D01*
X0212142Y0158900D01*
X0216540Y0160835D02*
X0217024Y0160351D01*
X0217024Y0158900D01*
X0218035Y0159384D02*
X0218035Y0160351D01*
X0218519Y0160835D01*
X0219487Y0160835D01*
X0219970Y0160351D01*
X0219970Y0159867D01*
X0218035Y0159867D01*
X0218035Y0159384D02*
X0218519Y0158900D01*
X0219487Y0158900D01*
X0220982Y0158900D02*
X0222433Y0158900D01*
X0222917Y0159384D01*
X0222433Y0159867D01*
X0221466Y0159867D01*
X0220982Y0160351D01*
X0221466Y0160835D01*
X0222917Y0160835D01*
X0223928Y0160351D02*
X0223928Y0159384D01*
X0224412Y0158900D01*
X0225380Y0158900D01*
X0225863Y0159384D01*
X0225863Y0160351D01*
X0225380Y0160835D01*
X0224412Y0160835D01*
X0223928Y0160351D01*
X0226875Y0160835D02*
X0227842Y0160835D01*
X0227359Y0161319D02*
X0227359Y0159384D01*
X0227842Y0158900D01*
X0228839Y0159384D02*
X0229323Y0159867D01*
X0230774Y0159867D01*
X0230774Y0160351D02*
X0230774Y0158900D01*
X0229323Y0158900D01*
X0228839Y0159384D01*
X0229323Y0160835D02*
X0230291Y0160835D01*
X0230774Y0160351D01*
X0230283Y0163700D02*
X0230283Y0165151D01*
X0229799Y0165635D01*
X0228348Y0165635D01*
X0228348Y0163700D01*
X0227337Y0163700D02*
X0225885Y0163700D01*
X0225402Y0164184D01*
X0225885Y0164667D01*
X0227337Y0164667D01*
X0227337Y0165151D02*
X0227337Y0163700D01*
X0227337Y0165151D02*
X0226853Y0165635D01*
X0225885Y0165635D01*
X0231295Y0165151D02*
X0231778Y0165635D01*
X0233230Y0165635D01*
X0233230Y0166602D02*
X0233230Y0163700D01*
X0231778Y0163700D01*
X0231295Y0164184D01*
X0231295Y0165151D01*
X0217031Y0182900D02*
X0216064Y0182900D01*
X0215580Y0183384D01*
X0217515Y0185319D01*
X0217515Y0183384D01*
X0217031Y0182900D01*
X0215580Y0183384D02*
X0215580Y0185319D01*
X0216064Y0185802D01*
X0217031Y0185802D01*
X0217515Y0185319D01*
X0214590Y0183384D02*
X0214590Y0182900D01*
X0214107Y0182900D01*
X0214107Y0183384D01*
X0214590Y0183384D01*
X0213095Y0182900D02*
X0211160Y0182900D01*
X0213095Y0184835D01*
X0213095Y0185319D01*
X0212611Y0185802D01*
X0211644Y0185802D01*
X0211160Y0185319D01*
X0210171Y0183384D02*
X0210171Y0182900D01*
X0209687Y0182900D01*
X0209687Y0183384D01*
X0210171Y0183384D01*
X0208675Y0182900D02*
X0206740Y0182900D01*
X0208675Y0184835D01*
X0208675Y0185319D01*
X0208192Y0185802D01*
X0207224Y0185802D01*
X0206740Y0185319D01*
X0205729Y0184835D02*
X0204761Y0182900D01*
X0203794Y0184835D01*
X0204747Y0181002D02*
X0202812Y0181002D01*
X0204747Y0181002D02*
X0204747Y0180519D01*
X0202812Y0178584D01*
X0202812Y0178100D01*
X0201800Y0178100D02*
X0199865Y0178100D01*
X0200833Y0178100D02*
X0200833Y0181002D01*
X0199865Y0180035D01*
X0198854Y0180519D02*
X0198370Y0181002D01*
X0206242Y0175235D02*
X0207209Y0175235D01*
X0207693Y0174751D01*
X0207693Y0173300D01*
X0206242Y0173300D01*
X0205758Y0173784D01*
X0206242Y0174267D01*
X0207693Y0174267D01*
X0208705Y0173300D02*
X0208705Y0175235D01*
X0210156Y0175235D01*
X0210640Y0174751D01*
X0210640Y0173300D01*
X0211651Y0173784D02*
X0211651Y0174751D01*
X0212135Y0175235D01*
X0213586Y0175235D01*
X0213586Y0176202D02*
X0213586Y0173300D01*
X0212135Y0173300D01*
X0211651Y0173784D01*
X0207231Y0161802D02*
X0207231Y0158900D01*
X0203288Y0160351D02*
X0202321Y0160351D01*
X0201309Y0160351D02*
X0200825Y0160835D01*
X0199858Y0160835D01*
X0199374Y0160351D01*
X0199374Y0159384D01*
X0199858Y0158900D01*
X0200825Y0158900D01*
X0201309Y0159384D01*
X0201309Y0160351D01*
X0202804Y0161319D02*
X0203288Y0161802D01*
X0202804Y0161319D02*
X0202804Y0158900D01*
X0195416Y0158900D02*
X0193965Y0158900D01*
X0193481Y0159384D01*
X0193481Y0160835D01*
X0192484Y0160835D02*
X0191517Y0160835D01*
X0192000Y0161319D02*
X0192000Y0159384D01*
X0192484Y0158900D01*
X0190520Y0158900D02*
X0189552Y0158900D01*
X0190036Y0158900D02*
X0190036Y0160835D01*
X0189552Y0160835D01*
X0188541Y0160835D02*
X0187090Y0160835D01*
X0186606Y0160351D01*
X0187090Y0159867D01*
X0188057Y0159867D01*
X0188541Y0159384D01*
X0188057Y0158900D01*
X0186606Y0158900D01*
X0185602Y0160835D02*
X0185118Y0160835D01*
X0184150Y0159867D01*
X0184150Y0158900D02*
X0184150Y0160835D01*
X0183139Y0160351D02*
X0183139Y0159867D01*
X0181204Y0159867D01*
X0181204Y0159384D02*
X0181204Y0160351D01*
X0181688Y0160835D01*
X0182655Y0160835D01*
X0183139Y0160351D01*
X0182655Y0158900D02*
X0181688Y0158900D01*
X0181204Y0159384D01*
X0180192Y0160835D02*
X0179225Y0158900D01*
X0178257Y0160835D01*
X0179716Y0163700D02*
X0179232Y0164184D01*
X0179232Y0166119D01*
X0178748Y0165635D02*
X0179716Y0165635D01*
X0180713Y0165151D02*
X0181197Y0165635D01*
X0182164Y0165635D01*
X0182648Y0165151D01*
X0182648Y0163700D01*
X0183659Y0164184D02*
X0183659Y0165151D01*
X0184143Y0165635D01*
X0185111Y0165635D01*
X0185594Y0165151D01*
X0185594Y0164667D01*
X0183659Y0164667D01*
X0183659Y0164184D02*
X0184143Y0163700D01*
X0185111Y0163700D01*
X0186606Y0163700D02*
X0186606Y0165635D01*
X0187573Y0165635D02*
X0188057Y0165635D01*
X0187573Y0165635D02*
X0186606Y0164667D01*
X0189061Y0163700D02*
X0189061Y0165635D01*
X0190512Y0165635D01*
X0190996Y0165151D01*
X0190996Y0163700D01*
X0190036Y0162286D02*
X0190036Y0161802D01*
X0195416Y0160835D02*
X0195416Y0158416D01*
X0194932Y0157933D01*
X0194449Y0157933D01*
X0192961Y0168500D02*
X0192961Y0169951D01*
X0192477Y0170435D01*
X0191026Y0170435D01*
X0191026Y0168500D01*
X0190014Y0168500D02*
X0190014Y0169951D01*
X0189530Y0170435D01*
X0188563Y0170435D01*
X0188563Y0169467D02*
X0190014Y0169467D01*
X0190014Y0168500D02*
X0188563Y0168500D01*
X0188079Y0168984D01*
X0188563Y0169467D01*
X0187068Y0169467D02*
X0187068Y0168984D01*
X0186584Y0168500D01*
X0185616Y0168500D01*
X0185133Y0168984D01*
X0185616Y0169951D02*
X0186584Y0169951D01*
X0187068Y0169467D01*
X0187068Y0170919D02*
X0186584Y0171402D01*
X0185616Y0171402D01*
X0185133Y0170919D01*
X0185133Y0170435D01*
X0185616Y0169951D01*
X0180713Y0166602D02*
X0180713Y0163700D01*
X0172335Y0170919D02*
X0171851Y0171402D01*
X0170884Y0171402D01*
X0170400Y0170919D01*
X0170400Y0168984D01*
X0170884Y0168500D01*
X0182186Y0178584D02*
X0182186Y0180035D01*
X0182186Y0184351D02*
X0184121Y0184351D01*
X0177116Y0259096D02*
X0173413Y0259096D01*
X0173413Y0260947D01*
X0174030Y0261564D01*
X0176499Y0261564D01*
X0177116Y0260947D01*
X0177116Y0259096D01*
X0176499Y0262779D02*
X0177116Y0263396D01*
X0177116Y0264630D01*
X0176499Y0265248D01*
X0175881Y0265248D01*
X0175264Y0264630D01*
X0175264Y0264013D01*
X0175264Y0264630D02*
X0174647Y0265248D01*
X0174030Y0265248D01*
X0173413Y0264630D01*
X0173413Y0263396D01*
X0174030Y0262779D01*
X0175264Y0266462D02*
X0175264Y0268931D01*
X0173413Y0270145D02*
X0173413Y0271380D01*
X0173413Y0270762D02*
X0177116Y0270762D01*
X0177116Y0270145D02*
X0177116Y0271380D01*
X0177116Y0272601D02*
X0173413Y0272601D01*
X0177116Y0275069D01*
X0173413Y0275069D01*
X0173413Y0276284D02*
X0173413Y0278752D01*
X0173413Y0277518D02*
X0177116Y0277518D01*
X0177116Y0279967D02*
X0177116Y0282436D01*
X0177116Y0281201D02*
X0173413Y0281201D01*
X0174647Y0279967D01*
X0080999Y0076485D02*
X0078530Y0076485D01*
X0077913Y0075868D01*
X0077913Y0074016D01*
X0081616Y0074016D01*
X0081616Y0075868D01*
X0080999Y0076485D01*
X0081616Y0072802D02*
X0077913Y0072802D01*
X0077913Y0070333D02*
X0081616Y0072802D01*
X0081616Y0070333D02*
X0077913Y0070333D01*
X0078530Y0069119D02*
X0077913Y0068502D01*
X0077913Y0067267D01*
X0078530Y0066650D01*
X0080999Y0066650D01*
X0081616Y0067267D01*
X0081616Y0068502D01*
X0080999Y0069119D01*
X0079764Y0069119D01*
X0079764Y0067884D01*
D12*
X0075000Y0065500D02*
X0155000Y0065500D01*
X0155000Y0055500D01*
X0075000Y0055500D01*
X0075000Y0065500D01*
X0141250Y0089031D02*
X0141250Y0182732D01*
X0151093Y0182732D01*
X0151093Y0192969D01*
X0240069Y0193362D01*
X0240069Y0189031D01*
X0239675Y0188244D01*
X0240069Y0189031D02*
X0240069Y0092575D01*
X0238888Y0092181D01*
X0240069Y0092575D02*
X0240069Y0089031D01*
X0141250Y0089031D01*
X0165000Y0065500D02*
X0225000Y0065500D01*
X0225000Y0055500D01*
X0165000Y0055500D01*
X0165000Y0065500D01*
X0212500Y0044254D02*
X0212500Y0039750D01*
X0212500Y0041251D02*
X0214752Y0041251D01*
X0215503Y0042002D01*
X0215503Y0043503D01*
X0214752Y0044254D01*
X0212500Y0044254D01*
X0214001Y0041251D02*
X0215503Y0039750D01*
X0217104Y0039750D02*
X0217104Y0044254D01*
X0220106Y0044254D01*
X0221708Y0043503D02*
X0221708Y0042753D01*
X0222458Y0042002D01*
X0223960Y0042002D01*
X0224710Y0041251D01*
X0224710Y0040501D01*
X0223960Y0039750D01*
X0222458Y0039750D01*
X0221708Y0040501D01*
X0220106Y0039750D02*
X0217104Y0039750D01*
X0217104Y0042002D02*
X0218605Y0042002D01*
X0221708Y0043503D02*
X0222458Y0044254D01*
X0223960Y0044254D01*
X0224710Y0043503D01*
X0226312Y0044254D02*
X0226312Y0039750D01*
X0229314Y0039750D01*
X0227813Y0042002D02*
X0226312Y0042002D01*
X0226312Y0044254D02*
X0229314Y0044254D01*
X0230916Y0044254D02*
X0233918Y0044254D01*
X0232417Y0044254D02*
X0232417Y0039750D01*
X0230549Y0033555D02*
X0217951Y0033555D01*
X0217951Y0015445D01*
X0230549Y0015445D01*
X0230549Y0033555D01*
X0238887Y0092181D02*
X0237846Y0096916D01*
X0236917Y0101675D01*
X0236101Y0106454D01*
X0235398Y0111251D01*
X0234809Y0116063D01*
X0234334Y0120888D01*
X0233972Y0125723D01*
X0233726Y0130565D01*
X0233593Y0135411D01*
X0233576Y0140260D01*
X0233673Y0145107D01*
X0233885Y0149951D01*
X0234211Y0154788D01*
X0234651Y0159616D01*
X0235205Y0164432D01*
X0235874Y0169234D01*
X0236655Y0174019D01*
X0237549Y0178784D01*
X0238556Y0183527D01*
X0239675Y0188244D01*
X0225000Y0245500D02*
X0145000Y0245500D01*
X0145000Y0255500D01*
X0225000Y0255500D01*
X0225000Y0245500D01*
X0224544Y0276750D02*
X0225295Y0277501D01*
X0225295Y0280503D01*
X0224544Y0281254D01*
X0223043Y0281254D01*
X0222292Y0280503D01*
X0222292Y0277501D01*
X0223043Y0276750D01*
X0224544Y0276750D01*
X0226896Y0277501D02*
X0226896Y0280503D01*
X0227647Y0281254D01*
X0229148Y0281254D01*
X0229899Y0280503D01*
X0229899Y0279002D02*
X0228397Y0279002D01*
X0229899Y0279002D02*
X0229899Y0277501D01*
X0229148Y0276750D01*
X0227647Y0276750D01*
X0226896Y0277501D01*
X0220691Y0276750D02*
X0217688Y0276750D01*
X0217688Y0281254D01*
X0217951Y0287445D02*
X0230549Y0287445D01*
X0230549Y0305555D01*
X0217951Y0305555D01*
X0217951Y0287445D01*
X0140000Y0255500D02*
X0140000Y0245500D01*
X0040000Y0245500D01*
X0040000Y0255500D01*
X0140000Y0255500D01*
D13*
X0136133Y0244385D02*
X0136700Y0243818D01*
X0136700Y0242684D01*
X0136133Y0242117D01*
X0135566Y0242117D01*
X0134999Y0242684D01*
X0134999Y0243818D01*
X0135566Y0244385D01*
X0136133Y0244385D01*
X0134999Y0243818D02*
X0134431Y0244385D01*
X0133864Y0244385D01*
X0133297Y0243818D01*
X0133297Y0242684D01*
X0133864Y0242117D01*
X0134431Y0242117D01*
X0134999Y0242684D01*
X0126700Y0242684D02*
X0126700Y0243818D01*
X0126133Y0244385D01*
X0123864Y0244385D01*
X0123297Y0243818D01*
X0123297Y0242684D01*
X0123864Y0242117D01*
X0124431Y0242117D01*
X0124999Y0242684D01*
X0124999Y0244385D01*
X0126700Y0242684D02*
X0126133Y0242117D01*
X0116700Y0242684D02*
X0116133Y0242117D01*
X0116700Y0242684D02*
X0116700Y0243818D01*
X0116133Y0244385D01*
X0115566Y0244385D01*
X0114999Y0243818D01*
X0114999Y0242684D01*
X0114431Y0242117D01*
X0113864Y0242117D01*
X0113297Y0242684D01*
X0113297Y0243818D01*
X0113864Y0244385D01*
X0113864Y0240702D02*
X0113297Y0240135D01*
X0113297Y0239001D01*
X0113864Y0238434D01*
X0116133Y0238434D01*
X0116700Y0239001D01*
X0116700Y0240135D01*
X0116133Y0240702D01*
X0106700Y0240229D02*
X0106133Y0239661D01*
X0106700Y0240229D02*
X0106700Y0241363D01*
X0106133Y0241930D01*
X0105566Y0241930D01*
X0104999Y0241363D01*
X0104999Y0240229D01*
X0104431Y0239661D01*
X0103864Y0239661D01*
X0103297Y0240229D01*
X0103297Y0241363D01*
X0103864Y0241930D01*
X0103297Y0243345D02*
X0103297Y0244479D01*
X0103297Y0243912D02*
X0106700Y0243912D01*
X0106700Y0243345D02*
X0106700Y0244479D01*
X0106133Y0238247D02*
X0103864Y0238247D01*
X0103297Y0237680D01*
X0103297Y0236545D01*
X0103864Y0235978D01*
X0106133Y0235978D01*
X0106700Y0236545D01*
X0106700Y0237680D01*
X0106133Y0238247D01*
X0106700Y0234564D02*
X0103297Y0234564D01*
X0104431Y0233429D01*
X0103297Y0232295D01*
X0106700Y0232295D01*
X0106549Y0227902D02*
X0109951Y0227902D01*
X0109951Y0225098D02*
X0106549Y0225098D01*
X0106549Y0219902D02*
X0109951Y0219902D01*
X0109951Y0217098D02*
X0106549Y0217098D01*
X0096700Y0232295D02*
X0093297Y0232295D01*
X0094431Y0233429D01*
X0093297Y0234564D01*
X0096700Y0234564D01*
X0096700Y0235978D02*
X0096700Y0237113D01*
X0096700Y0236545D02*
X0093297Y0236545D01*
X0093297Y0235978D02*
X0093297Y0237113D01*
X0093864Y0238434D02*
X0094431Y0238434D01*
X0094999Y0239001D01*
X0094999Y0240135D01*
X0095566Y0240702D01*
X0096133Y0240702D01*
X0096700Y0240135D01*
X0096700Y0239001D01*
X0096133Y0238434D01*
X0093864Y0238434D02*
X0093297Y0239001D01*
X0093297Y0240135D01*
X0093864Y0240702D01*
X0093864Y0242117D02*
X0096133Y0242117D01*
X0096700Y0242684D01*
X0096700Y0243818D01*
X0096133Y0244385D01*
X0093864Y0244385D01*
X0093297Y0243818D01*
X0093297Y0242684D01*
X0093864Y0242117D01*
X0086700Y0242117D02*
X0083297Y0242117D01*
X0083864Y0240702D02*
X0083297Y0240135D01*
X0083297Y0239001D01*
X0083864Y0238434D01*
X0086133Y0238434D01*
X0086700Y0239001D01*
X0086700Y0240135D01*
X0086133Y0240702D01*
X0085566Y0242117D02*
X0083297Y0244385D01*
X0084999Y0242684D02*
X0086700Y0244385D01*
X0086133Y0237019D02*
X0086700Y0236452D01*
X0086700Y0235318D01*
X0086133Y0234751D01*
X0084999Y0235318D02*
X0084999Y0236452D01*
X0085566Y0237019D01*
X0086133Y0237019D01*
X0084999Y0235318D02*
X0084431Y0234751D01*
X0083864Y0234751D01*
X0083297Y0235318D01*
X0083297Y0236452D01*
X0083864Y0237019D01*
X0076700Y0236452D02*
X0076700Y0235318D01*
X0076133Y0234751D01*
X0073864Y0234751D01*
X0073297Y0235318D01*
X0073297Y0236452D01*
X0073864Y0237019D01*
X0074999Y0237019D02*
X0074999Y0235885D01*
X0074999Y0237019D02*
X0076133Y0237019D01*
X0076700Y0236452D01*
X0076700Y0238434D02*
X0073297Y0238434D01*
X0076700Y0240702D01*
X0073297Y0240702D01*
X0073297Y0242117D02*
X0073297Y0243818D01*
X0073864Y0244385D01*
X0076133Y0244385D01*
X0076700Y0243818D01*
X0076700Y0242117D01*
X0073297Y0242117D01*
X0066700Y0242117D02*
X0063297Y0242117D01*
X0063297Y0244385D01*
X0064999Y0243251D02*
X0064999Y0242117D01*
X0066700Y0240702D02*
X0066700Y0238434D01*
X0063297Y0238434D01*
X0063297Y0240702D01*
X0064999Y0239568D02*
X0064999Y0238434D01*
X0064999Y0237019D02*
X0065566Y0236452D01*
X0065566Y0234751D01*
X0065566Y0235885D02*
X0066700Y0237019D01*
X0064999Y0237019D02*
X0063864Y0237019D01*
X0063297Y0236452D01*
X0063297Y0234751D01*
X0066700Y0234751D01*
X0066700Y0233336D02*
X0064431Y0233336D01*
X0063297Y0232202D01*
X0064431Y0231067D01*
X0066700Y0231067D01*
X0064999Y0231067D02*
X0064999Y0233336D01*
X0056700Y0235318D02*
X0056133Y0234751D01*
X0056700Y0235318D02*
X0056700Y0236452D01*
X0056133Y0237019D01*
X0055566Y0237019D01*
X0054999Y0236452D01*
X0054999Y0235318D01*
X0054431Y0234751D01*
X0053864Y0234751D01*
X0053297Y0235318D01*
X0053297Y0236452D01*
X0053864Y0237019D01*
X0053297Y0238434D02*
X0053297Y0240135D01*
X0053864Y0240702D01*
X0056133Y0240702D01*
X0056700Y0240135D01*
X0056700Y0238434D01*
X0053297Y0238434D01*
X0054431Y0242117D02*
X0053297Y0243251D01*
X0054431Y0244385D01*
X0056700Y0244385D01*
X0054999Y0244385D02*
X0054999Y0242117D01*
X0054431Y0242117D02*
X0056700Y0242117D01*
X0046700Y0242117D02*
X0046700Y0244385D01*
X0046700Y0242117D02*
X0043297Y0242117D01*
X0043864Y0240702D02*
X0043297Y0240135D01*
X0043297Y0239001D01*
X0043864Y0238434D01*
X0046133Y0238434D01*
X0046700Y0239001D01*
X0046700Y0240135D01*
X0046133Y0240702D01*
X0046133Y0237019D02*
X0046700Y0236452D01*
X0046700Y0235318D01*
X0046133Y0234751D01*
X0044999Y0235318D02*
X0044999Y0236452D01*
X0045566Y0237019D01*
X0046133Y0237019D01*
X0044999Y0235318D02*
X0044431Y0234751D01*
X0043864Y0234751D01*
X0043297Y0235318D01*
X0043297Y0236452D01*
X0043864Y0237019D01*
X0060750Y0145000D02*
X0062250Y0145000D01*
X0062750Y0144500D01*
X0081750Y0144500D01*
X0082250Y0145000D01*
X0083750Y0145000D01*
X0083810Y0144998D01*
X0083871Y0144993D01*
X0083930Y0144984D01*
X0083989Y0144971D01*
X0084048Y0144955D01*
X0084105Y0144935D01*
X0084160Y0144912D01*
X0084215Y0144885D01*
X0084267Y0144856D01*
X0084318Y0144823D01*
X0084367Y0144787D01*
X0084413Y0144749D01*
X0084457Y0144707D01*
X0084499Y0144663D01*
X0084537Y0144617D01*
X0084573Y0144568D01*
X0084606Y0144517D01*
X0084635Y0144465D01*
X0084662Y0144410D01*
X0084685Y0144355D01*
X0084705Y0144298D01*
X0084721Y0144239D01*
X0084734Y0144180D01*
X0084743Y0144121D01*
X0084748Y0144060D01*
X0084750Y0144000D01*
X0084750Y0137000D01*
X0084748Y0136940D01*
X0084743Y0136879D01*
X0084734Y0136820D01*
X0084721Y0136761D01*
X0084705Y0136702D01*
X0084685Y0136645D01*
X0084662Y0136590D01*
X0084635Y0136535D01*
X0084606Y0136483D01*
X0084573Y0136432D01*
X0084537Y0136383D01*
X0084499Y0136337D01*
X0084457Y0136293D01*
X0084413Y0136251D01*
X0084367Y0136213D01*
X0084318Y0136177D01*
X0084267Y0136144D01*
X0084215Y0136115D01*
X0084160Y0136088D01*
X0084105Y0136065D01*
X0084048Y0136045D01*
X0083989Y0136029D01*
X0083930Y0136016D01*
X0083871Y0136007D01*
X0083810Y0136002D01*
X0083750Y0136000D01*
X0082250Y0136000D01*
X0081750Y0136500D01*
X0062750Y0136500D01*
X0062250Y0136000D01*
X0060750Y0136000D01*
X0060750Y0135000D02*
X0062250Y0135000D01*
X0062750Y0134500D01*
X0081750Y0134500D01*
X0082250Y0135000D01*
X0083750Y0135000D01*
X0083810Y0134998D01*
X0083871Y0134993D01*
X0083930Y0134984D01*
X0083989Y0134971D01*
X0084048Y0134955D01*
X0084105Y0134935D01*
X0084160Y0134912D01*
X0084215Y0134885D01*
X0084267Y0134856D01*
X0084318Y0134823D01*
X0084367Y0134787D01*
X0084413Y0134749D01*
X0084457Y0134707D01*
X0084499Y0134663D01*
X0084537Y0134617D01*
X0084573Y0134568D01*
X0084606Y0134517D01*
X0084635Y0134465D01*
X0084662Y0134410D01*
X0084685Y0134355D01*
X0084705Y0134298D01*
X0084721Y0134239D01*
X0084734Y0134180D01*
X0084743Y0134121D01*
X0084748Y0134060D01*
X0084750Y0134000D01*
X0084750Y0127000D01*
X0084748Y0126940D01*
X0084743Y0126879D01*
X0084734Y0126820D01*
X0084721Y0126761D01*
X0084705Y0126702D01*
X0084685Y0126645D01*
X0084662Y0126590D01*
X0084635Y0126535D01*
X0084606Y0126483D01*
X0084573Y0126432D01*
X0084537Y0126383D01*
X0084499Y0126337D01*
X0084457Y0126293D01*
X0084413Y0126251D01*
X0084367Y0126213D01*
X0084318Y0126177D01*
X0084267Y0126144D01*
X0084215Y0126115D01*
X0084160Y0126088D01*
X0084105Y0126065D01*
X0084048Y0126045D01*
X0083989Y0126029D01*
X0083930Y0126016D01*
X0083871Y0126007D01*
X0083810Y0126002D01*
X0083750Y0126000D01*
X0082250Y0126000D01*
X0081750Y0126500D01*
X0062750Y0126500D01*
X0062250Y0126000D01*
X0060750Y0126000D01*
X0060690Y0126002D01*
X0060629Y0126007D01*
X0060570Y0126016D01*
X0060511Y0126029D01*
X0060452Y0126045D01*
X0060395Y0126065D01*
X0060340Y0126088D01*
X0060285Y0126115D01*
X0060233Y0126144D01*
X0060182Y0126177D01*
X0060133Y0126213D01*
X0060087Y0126251D01*
X0060043Y0126293D01*
X0060001Y0126337D01*
X0059963Y0126383D01*
X0059927Y0126432D01*
X0059894Y0126483D01*
X0059865Y0126535D01*
X0059838Y0126590D01*
X0059815Y0126645D01*
X0059795Y0126702D01*
X0059779Y0126761D01*
X0059766Y0126820D01*
X0059757Y0126879D01*
X0059752Y0126940D01*
X0059750Y0127000D01*
X0059750Y0134000D01*
X0059752Y0134060D01*
X0059757Y0134121D01*
X0059766Y0134180D01*
X0059779Y0134239D01*
X0059795Y0134298D01*
X0059815Y0134355D01*
X0059838Y0134410D01*
X0059865Y0134465D01*
X0059894Y0134517D01*
X0059927Y0134568D01*
X0059963Y0134617D01*
X0060001Y0134663D01*
X0060043Y0134707D01*
X0060087Y0134749D01*
X0060133Y0134787D01*
X0060182Y0134823D01*
X0060233Y0134856D01*
X0060285Y0134885D01*
X0060340Y0134912D01*
X0060395Y0134935D01*
X0060452Y0134955D01*
X0060511Y0134971D01*
X0060570Y0134984D01*
X0060629Y0134993D01*
X0060690Y0134998D01*
X0060750Y0135000D01*
X0060750Y0136000D02*
X0060690Y0136002D01*
X0060629Y0136007D01*
X0060570Y0136016D01*
X0060511Y0136029D01*
X0060452Y0136045D01*
X0060395Y0136065D01*
X0060340Y0136088D01*
X0060285Y0136115D01*
X0060233Y0136144D01*
X0060182Y0136177D01*
X0060133Y0136213D01*
X0060087Y0136251D01*
X0060043Y0136293D01*
X0060001Y0136337D01*
X0059963Y0136383D01*
X0059927Y0136432D01*
X0059894Y0136483D01*
X0059865Y0136535D01*
X0059838Y0136590D01*
X0059815Y0136645D01*
X0059795Y0136702D01*
X0059779Y0136761D01*
X0059766Y0136820D01*
X0059757Y0136879D01*
X0059752Y0136940D01*
X0059750Y0137000D01*
X0059750Y0144000D01*
X0059752Y0144060D01*
X0059757Y0144121D01*
X0059766Y0144180D01*
X0059779Y0144239D01*
X0059795Y0144298D01*
X0059815Y0144355D01*
X0059838Y0144410D01*
X0059865Y0144465D01*
X0059894Y0144517D01*
X0059927Y0144568D01*
X0059963Y0144617D01*
X0060001Y0144663D01*
X0060043Y0144707D01*
X0060087Y0144749D01*
X0060133Y0144787D01*
X0060182Y0144823D01*
X0060233Y0144856D01*
X0060285Y0144885D01*
X0060340Y0144912D01*
X0060395Y0144935D01*
X0060452Y0144955D01*
X0060511Y0144971D01*
X0060570Y0144984D01*
X0060629Y0144993D01*
X0060690Y0144998D01*
X0060750Y0145000D01*
X0060750Y0125000D02*
X0062250Y0125000D01*
X0062750Y0124500D01*
X0081750Y0124500D01*
X0082250Y0125000D01*
X0083750Y0125000D01*
X0083810Y0124998D01*
X0083871Y0124993D01*
X0083930Y0124984D01*
X0083989Y0124971D01*
X0084048Y0124955D01*
X0084105Y0124935D01*
X0084160Y0124912D01*
X0084215Y0124885D01*
X0084267Y0124856D01*
X0084318Y0124823D01*
X0084367Y0124787D01*
X0084413Y0124749D01*
X0084457Y0124707D01*
X0084499Y0124663D01*
X0084537Y0124617D01*
X0084573Y0124568D01*
X0084606Y0124517D01*
X0084635Y0124465D01*
X0084662Y0124410D01*
X0084685Y0124355D01*
X0084705Y0124298D01*
X0084721Y0124239D01*
X0084734Y0124180D01*
X0084743Y0124121D01*
X0084748Y0124060D01*
X0084750Y0124000D01*
X0084750Y0117000D01*
X0084748Y0116940D01*
X0084743Y0116879D01*
X0084734Y0116820D01*
X0084721Y0116761D01*
X0084705Y0116702D01*
X0084685Y0116645D01*
X0084662Y0116590D01*
X0084635Y0116535D01*
X0084606Y0116483D01*
X0084573Y0116432D01*
X0084537Y0116383D01*
X0084499Y0116337D01*
X0084457Y0116293D01*
X0084413Y0116251D01*
X0084367Y0116213D01*
X0084318Y0116177D01*
X0084267Y0116144D01*
X0084215Y0116115D01*
X0084160Y0116088D01*
X0084105Y0116065D01*
X0084048Y0116045D01*
X0083989Y0116029D01*
X0083930Y0116016D01*
X0083871Y0116007D01*
X0083810Y0116002D01*
X0083750Y0116000D01*
X0082250Y0116000D01*
X0081750Y0116500D01*
X0062750Y0116500D01*
X0062250Y0116000D01*
X0060750Y0116000D01*
X0060690Y0116002D01*
X0060629Y0116007D01*
X0060570Y0116016D01*
X0060511Y0116029D01*
X0060452Y0116045D01*
X0060395Y0116065D01*
X0060340Y0116088D01*
X0060285Y0116115D01*
X0060233Y0116144D01*
X0060182Y0116177D01*
X0060133Y0116213D01*
X0060087Y0116251D01*
X0060043Y0116293D01*
X0060001Y0116337D01*
X0059963Y0116383D01*
X0059927Y0116432D01*
X0059894Y0116483D01*
X0059865Y0116535D01*
X0059838Y0116590D01*
X0059815Y0116645D01*
X0059795Y0116702D01*
X0059779Y0116761D01*
X0059766Y0116820D01*
X0059757Y0116879D01*
X0059752Y0116940D01*
X0059750Y0117000D01*
X0059750Y0124000D01*
X0059752Y0124060D01*
X0059757Y0124121D01*
X0059766Y0124180D01*
X0059779Y0124239D01*
X0059795Y0124298D01*
X0059815Y0124355D01*
X0059838Y0124410D01*
X0059865Y0124465D01*
X0059894Y0124517D01*
X0059927Y0124568D01*
X0059963Y0124617D01*
X0060001Y0124663D01*
X0060043Y0124707D01*
X0060087Y0124749D01*
X0060133Y0124787D01*
X0060182Y0124823D01*
X0060233Y0124856D01*
X0060285Y0124885D01*
X0060340Y0124912D01*
X0060395Y0124935D01*
X0060452Y0124955D01*
X0060511Y0124971D01*
X0060570Y0124984D01*
X0060629Y0124993D01*
X0060690Y0124998D01*
X0060750Y0125000D01*
X0060750Y0115000D02*
X0062250Y0115000D01*
X0062750Y0114500D01*
X0081750Y0114500D01*
X0082250Y0115000D01*
X0083750Y0115000D01*
X0083810Y0114998D01*
X0083871Y0114993D01*
X0083930Y0114984D01*
X0083989Y0114971D01*
X0084048Y0114955D01*
X0084105Y0114935D01*
X0084160Y0114912D01*
X0084215Y0114885D01*
X0084267Y0114856D01*
X0084318Y0114823D01*
X0084367Y0114787D01*
X0084413Y0114749D01*
X0084457Y0114707D01*
X0084499Y0114663D01*
X0084537Y0114617D01*
X0084573Y0114568D01*
X0084606Y0114517D01*
X0084635Y0114465D01*
X0084662Y0114410D01*
X0084685Y0114355D01*
X0084705Y0114298D01*
X0084721Y0114239D01*
X0084734Y0114180D01*
X0084743Y0114121D01*
X0084748Y0114060D01*
X0084750Y0114000D01*
X0084750Y0107000D01*
X0084748Y0106940D01*
X0084743Y0106879D01*
X0084734Y0106820D01*
X0084721Y0106761D01*
X0084705Y0106702D01*
X0084685Y0106645D01*
X0084662Y0106590D01*
X0084635Y0106535D01*
X0084606Y0106483D01*
X0084573Y0106432D01*
X0084537Y0106383D01*
X0084499Y0106337D01*
X0084457Y0106293D01*
X0084413Y0106251D01*
X0084367Y0106213D01*
X0084318Y0106177D01*
X0084267Y0106144D01*
X0084215Y0106115D01*
X0084160Y0106088D01*
X0084105Y0106065D01*
X0084048Y0106045D01*
X0083989Y0106029D01*
X0083930Y0106016D01*
X0083871Y0106007D01*
X0083810Y0106002D01*
X0083750Y0106000D01*
X0082250Y0106000D01*
X0081750Y0106500D01*
X0062750Y0106500D01*
X0062250Y0106000D01*
X0060750Y0106000D01*
X0060690Y0106002D01*
X0060629Y0106007D01*
X0060570Y0106016D01*
X0060511Y0106029D01*
X0060452Y0106045D01*
X0060395Y0106065D01*
X0060340Y0106088D01*
X0060285Y0106115D01*
X0060233Y0106144D01*
X0060182Y0106177D01*
X0060133Y0106213D01*
X0060087Y0106251D01*
X0060043Y0106293D01*
X0060001Y0106337D01*
X0059963Y0106383D01*
X0059927Y0106432D01*
X0059894Y0106483D01*
X0059865Y0106535D01*
X0059838Y0106590D01*
X0059815Y0106645D01*
X0059795Y0106702D01*
X0059779Y0106761D01*
X0059766Y0106820D01*
X0059757Y0106879D01*
X0059752Y0106940D01*
X0059750Y0107000D01*
X0059750Y0114000D01*
X0059752Y0114060D01*
X0059757Y0114121D01*
X0059766Y0114180D01*
X0059779Y0114239D01*
X0059795Y0114298D01*
X0059815Y0114355D01*
X0059838Y0114410D01*
X0059865Y0114465D01*
X0059894Y0114517D01*
X0059927Y0114568D01*
X0059963Y0114617D01*
X0060001Y0114663D01*
X0060043Y0114707D01*
X0060087Y0114749D01*
X0060133Y0114787D01*
X0060182Y0114823D01*
X0060233Y0114856D01*
X0060285Y0114885D01*
X0060340Y0114912D01*
X0060395Y0114935D01*
X0060452Y0114955D01*
X0060511Y0114971D01*
X0060570Y0114984D01*
X0060629Y0114993D01*
X0060690Y0114998D01*
X0060750Y0115000D01*
X0088297Y0082023D02*
X0088297Y0079755D01*
X0091700Y0079755D01*
X0091700Y0078340D02*
X0091700Y0076072D01*
X0088297Y0076072D01*
X0088297Y0078340D01*
X0089999Y0077206D02*
X0089999Y0076072D01*
X0089999Y0074657D02*
X0090566Y0074090D01*
X0090566Y0072389D01*
X0090566Y0073523D02*
X0091700Y0074657D01*
X0089999Y0074657D02*
X0088864Y0074657D01*
X0088297Y0074090D01*
X0088297Y0072389D01*
X0091700Y0072389D01*
X0091133Y0070974D02*
X0091700Y0070407D01*
X0091700Y0069273D01*
X0091133Y0068705D01*
X0088864Y0068705D01*
X0088297Y0069273D01*
X0088297Y0070407D01*
X0088864Y0070974D01*
X0091133Y0070974D01*
X0091700Y0067384D02*
X0091700Y0066250D01*
X0091700Y0066817D02*
X0088297Y0066817D01*
X0088297Y0066250D02*
X0088297Y0067384D01*
X0098297Y0067951D02*
X0098297Y0066250D01*
X0101700Y0066250D01*
X0100566Y0066250D02*
X0100566Y0067951D01*
X0099999Y0068519D01*
X0098864Y0068519D01*
X0098297Y0067951D01*
X0098864Y0069933D02*
X0099431Y0069933D01*
X0099999Y0070500D01*
X0099999Y0071635D01*
X0100566Y0072202D01*
X0101133Y0072202D01*
X0101700Y0071635D01*
X0101700Y0070500D01*
X0101133Y0069933D01*
X0101700Y0068519D02*
X0100566Y0067384D01*
X0098864Y0069933D02*
X0098297Y0070500D01*
X0098297Y0071635D01*
X0098864Y0072202D01*
X0098297Y0073616D02*
X0098297Y0075885D01*
X0098297Y0074751D02*
X0101700Y0074751D01*
X0108297Y0075458D02*
X0110566Y0075458D01*
X0111700Y0076592D01*
X0110566Y0077726D01*
X0108297Y0077726D01*
X0108864Y0074043D02*
X0109431Y0074043D01*
X0109999Y0073476D01*
X0110566Y0074043D01*
X0111133Y0074043D01*
X0111700Y0073476D01*
X0111700Y0072342D01*
X0111133Y0071775D01*
X0111133Y0070500D02*
X0111700Y0070500D01*
X0111700Y0069933D01*
X0111133Y0069933D01*
X0111133Y0070500D01*
X0111133Y0068519D02*
X0111700Y0067951D01*
X0111700Y0066817D01*
X0111133Y0066250D01*
X0109999Y0067384D02*
X0109999Y0067951D01*
X0110566Y0068519D01*
X0111133Y0068519D01*
X0109999Y0067951D02*
X0109431Y0068519D01*
X0108864Y0068519D01*
X0108297Y0067951D01*
X0108297Y0066817D01*
X0108864Y0066250D01*
X0108864Y0071775D02*
X0108297Y0072342D01*
X0108297Y0073476D01*
X0108864Y0074043D01*
X0109999Y0073476D02*
X0109999Y0072909D01*
X0118297Y0072202D02*
X0120566Y0072202D01*
X0121700Y0071067D01*
X0120566Y0069933D01*
X0118297Y0069933D01*
X0118297Y0068519D02*
X0118297Y0066250D01*
X0119999Y0066250D01*
X0119431Y0067384D01*
X0119431Y0067951D01*
X0119999Y0068519D01*
X0121133Y0068519D01*
X0121700Y0067951D01*
X0121700Y0066817D01*
X0121133Y0066250D01*
X0128297Y0066817D02*
X0128864Y0066250D01*
X0131133Y0066250D01*
X0131700Y0066817D01*
X0131700Y0067951D01*
X0131133Y0068519D01*
X0129999Y0068519D01*
X0129999Y0067384D01*
X0128864Y0068519D02*
X0128297Y0067951D01*
X0128297Y0066817D01*
X0128297Y0069933D02*
X0131700Y0072202D01*
X0128297Y0072202D01*
X0128297Y0073616D02*
X0128297Y0075318D01*
X0128864Y0075885D01*
X0131133Y0075885D01*
X0131700Y0075318D01*
X0131700Y0073616D01*
X0128297Y0073616D01*
X0128297Y0069933D02*
X0131700Y0069933D01*
X0138297Y0069933D02*
X0141700Y0072202D01*
X0138297Y0072202D01*
X0138297Y0073616D02*
X0138297Y0075318D01*
X0138864Y0075885D01*
X0141133Y0075885D01*
X0141700Y0075318D01*
X0141700Y0073616D01*
X0138297Y0073616D01*
X0138297Y0069933D02*
X0141700Y0069933D01*
X0141133Y0068519D02*
X0141700Y0067951D01*
X0141700Y0066817D01*
X0141133Y0066250D01*
X0138864Y0066250D01*
X0138297Y0066817D01*
X0138297Y0067951D01*
X0138864Y0068519D01*
X0139999Y0068519D02*
X0139999Y0067384D01*
X0139999Y0068519D02*
X0141133Y0068519D01*
X0147730Y0070500D02*
X0148297Y0070500D01*
X0149431Y0070500D02*
X0149431Y0069933D01*
X0149431Y0070500D02*
X0151700Y0070500D01*
X0151700Y0069933D02*
X0151700Y0071067D01*
X0151700Y0072389D02*
X0149431Y0072389D01*
X0149431Y0074090D01*
X0149999Y0074657D01*
X0151700Y0074657D01*
X0150566Y0068519D02*
X0148297Y0068519D01*
X0150566Y0068519D02*
X0151700Y0067384D01*
X0150566Y0066250D01*
X0148297Y0066250D01*
X0168297Y0066817D02*
X0168297Y0067951D01*
X0168864Y0068519D01*
X0171133Y0066250D01*
X0171700Y0066817D01*
X0171700Y0067951D01*
X0171133Y0068519D01*
X0168864Y0068519D01*
X0168297Y0066817D02*
X0168864Y0066250D01*
X0171133Y0066250D01*
X0175107Y0072250D02*
X0175107Y0074519D01*
X0176241Y0075653D01*
X0177376Y0074519D01*
X0177376Y0072250D01*
X0178790Y0072250D02*
X0178790Y0074519D01*
X0180492Y0074519D01*
X0181059Y0073951D01*
X0181059Y0072250D01*
X0182473Y0072817D02*
X0183041Y0073384D01*
X0184742Y0073384D01*
X0184742Y0073951D02*
X0184742Y0072250D01*
X0183041Y0072250D01*
X0182473Y0072817D01*
X0183041Y0074519D02*
X0184175Y0074519D01*
X0184742Y0073951D01*
X0186157Y0072250D02*
X0187291Y0072250D01*
X0186724Y0072250D02*
X0186724Y0075653D01*
X0186157Y0075653D01*
X0188612Y0073951D02*
X0188612Y0072817D01*
X0189179Y0072250D01*
X0190313Y0072250D01*
X0190881Y0072817D01*
X0190881Y0073951D01*
X0190313Y0074519D01*
X0189179Y0074519D01*
X0188612Y0073951D01*
X0192295Y0073951D02*
X0192295Y0072817D01*
X0192862Y0072250D01*
X0194564Y0072250D01*
X0194564Y0071683D02*
X0194564Y0074519D01*
X0192862Y0074519D01*
X0192295Y0073951D01*
X0193429Y0071116D02*
X0193997Y0071116D01*
X0194564Y0071683D01*
X0191700Y0068519D02*
X0191700Y0066250D01*
X0189431Y0068519D01*
X0188864Y0068519D01*
X0188297Y0067951D01*
X0188297Y0066817D01*
X0188864Y0066250D01*
X0181700Y0066250D02*
X0181700Y0068519D01*
X0181700Y0067384D02*
X0178297Y0067384D01*
X0179431Y0066250D01*
X0177376Y0073951D02*
X0175107Y0073951D01*
X0198297Y0067951D02*
X0198864Y0068519D01*
X0199431Y0068519D01*
X0199999Y0067951D01*
X0200566Y0068519D01*
X0201133Y0068519D01*
X0201700Y0067951D01*
X0201700Y0066817D01*
X0201133Y0066250D01*
X0199999Y0067384D02*
X0199999Y0067951D01*
X0198297Y0067951D02*
X0198297Y0066817D01*
X0198864Y0066250D01*
X0199661Y0072250D02*
X0200796Y0072250D01*
X0200229Y0072250D02*
X0200229Y0075653D01*
X0200796Y0075653D02*
X0199661Y0075653D01*
X0202117Y0074519D02*
X0202117Y0072250D01*
X0204385Y0072250D02*
X0204385Y0073951D01*
X0203818Y0074519D01*
X0202117Y0074519D01*
X0208297Y0074751D02*
X0209431Y0075885D01*
X0211700Y0075885D01*
X0209999Y0075885D02*
X0209999Y0073616D01*
X0209431Y0073616D02*
X0208297Y0074751D01*
X0209431Y0073616D02*
X0211700Y0073616D01*
X0211133Y0072202D02*
X0208864Y0072202D01*
X0208297Y0071635D01*
X0208297Y0069933D01*
X0211700Y0069933D01*
X0211700Y0071635D01*
X0211133Y0072202D01*
X0211133Y0068519D02*
X0210566Y0068519D01*
X0209999Y0067951D01*
X0209999Y0066817D01*
X0209431Y0066250D01*
X0208864Y0066250D01*
X0208297Y0066817D01*
X0208297Y0067951D01*
X0208864Y0068519D01*
X0211133Y0068519D02*
X0211700Y0067951D01*
X0211700Y0066817D01*
X0211133Y0066250D01*
X0218297Y0066817D02*
X0218864Y0066250D01*
X0219431Y0066250D01*
X0219999Y0066817D01*
X0219999Y0067951D01*
X0220566Y0068519D01*
X0221133Y0068519D01*
X0221700Y0067951D01*
X0221700Y0066817D01*
X0221133Y0066250D01*
X0218297Y0066817D02*
X0218297Y0067951D01*
X0218864Y0068519D01*
X0218864Y0069933D02*
X0221133Y0069933D01*
X0221700Y0070500D01*
X0221700Y0071635D01*
X0221133Y0072202D01*
X0221700Y0073616D02*
X0218297Y0073616D01*
X0218864Y0072202D02*
X0218297Y0071635D01*
X0218297Y0070500D01*
X0218864Y0069933D01*
X0221700Y0073616D02*
X0221700Y0075885D01*
X0213848Y0203902D02*
X0202652Y0203902D01*
X0202652Y0209098D01*
X0213848Y0209098D01*
X0213848Y0203902D01*
X0198451Y0225598D02*
X0195049Y0225598D01*
X0195049Y0228402D02*
X0198451Y0228402D01*
X0198297Y0235978D02*
X0198297Y0237113D01*
X0198297Y0236545D02*
X0201700Y0236545D01*
X0201700Y0235978D02*
X0201700Y0237113D01*
X0201700Y0238434D02*
X0198297Y0238434D01*
X0201700Y0240702D01*
X0198297Y0240702D01*
X0198297Y0242117D02*
X0198297Y0244385D01*
X0198297Y0243251D02*
X0201700Y0243251D01*
X0208297Y0242117D02*
X0211700Y0244385D01*
X0211700Y0242117D02*
X0208297Y0244385D01*
X0208297Y0240702D02*
X0208297Y0238434D01*
X0208297Y0239568D02*
X0211700Y0239568D01*
X0218297Y0240135D02*
X0218297Y0238434D01*
X0221700Y0238434D01*
X0220566Y0238434D02*
X0220566Y0240135D01*
X0219999Y0240702D01*
X0218864Y0240702D01*
X0218297Y0240135D01*
X0218297Y0242117D02*
X0221700Y0244385D01*
X0221700Y0242117D02*
X0218297Y0244385D01*
X0221700Y0240702D02*
X0220566Y0239568D01*
X0191700Y0238434D02*
X0188297Y0238434D01*
X0191700Y0240702D01*
X0188297Y0240702D01*
X0188297Y0242117D02*
X0188297Y0244385D01*
X0188297Y0243251D02*
X0191700Y0243251D01*
X0191700Y0237113D02*
X0191700Y0235978D01*
X0191700Y0236545D02*
X0188297Y0236545D01*
X0188297Y0235978D02*
X0188297Y0237113D01*
X0181700Y0243818D02*
X0178297Y0243818D01*
X0179999Y0242117D01*
X0179999Y0244385D01*
X0171700Y0243818D02*
X0171700Y0242684D01*
X0171133Y0242117D01*
X0169999Y0242117D02*
X0169431Y0243251D01*
X0169431Y0243818D01*
X0169999Y0244385D01*
X0171133Y0244385D01*
X0171700Y0243818D01*
X0169999Y0242117D02*
X0168297Y0242117D01*
X0168297Y0244385D01*
X0161700Y0243818D02*
X0161133Y0244385D01*
X0160566Y0244385D01*
X0159999Y0243818D01*
X0159999Y0242117D01*
X0161133Y0242117D01*
X0161700Y0242684D01*
X0161700Y0243818D01*
X0159999Y0242117D02*
X0158864Y0243251D01*
X0158297Y0244385D01*
X0151700Y0242117D02*
X0151133Y0242117D01*
X0148864Y0244385D01*
X0148297Y0244385D01*
X0148297Y0242117D01*
X0146750Y0225700D02*
X0183750Y0225700D01*
X0183826Y0225698D01*
X0183902Y0225692D01*
X0183977Y0225683D01*
X0184052Y0225669D01*
X0184126Y0225652D01*
X0184199Y0225631D01*
X0184271Y0225607D01*
X0184342Y0225578D01*
X0184411Y0225547D01*
X0184478Y0225512D01*
X0184543Y0225473D01*
X0184607Y0225431D01*
X0184668Y0225386D01*
X0184727Y0225338D01*
X0184783Y0225287D01*
X0184837Y0225233D01*
X0184888Y0225177D01*
X0184936Y0225118D01*
X0184981Y0225057D01*
X0185023Y0224993D01*
X0185062Y0224928D01*
X0185097Y0224861D01*
X0185128Y0224792D01*
X0185157Y0224721D01*
X0185181Y0224649D01*
X0185202Y0224576D01*
X0185219Y0224502D01*
X0185233Y0224427D01*
X0185242Y0224352D01*
X0185248Y0224276D01*
X0185250Y0224200D01*
X0185250Y0220000D01*
X0185250Y0216000D01*
X0185250Y0211800D01*
X0185248Y0211724D01*
X0185242Y0211648D01*
X0185233Y0211573D01*
X0185219Y0211498D01*
X0185202Y0211424D01*
X0185181Y0211351D01*
X0185157Y0211279D01*
X0185128Y0211208D01*
X0185097Y0211139D01*
X0185062Y0211072D01*
X0185023Y0211007D01*
X0184981Y0210943D01*
X0184936Y0210882D01*
X0184888Y0210823D01*
X0184837Y0210767D01*
X0184783Y0210713D01*
X0184727Y0210662D01*
X0184668Y0210614D01*
X0184607Y0210569D01*
X0184543Y0210527D01*
X0184478Y0210488D01*
X0184411Y0210453D01*
X0184342Y0210422D01*
X0184271Y0210393D01*
X0184199Y0210369D01*
X0184126Y0210348D01*
X0184052Y0210331D01*
X0183977Y0210317D01*
X0183902Y0210308D01*
X0183826Y0210302D01*
X0183750Y0210300D01*
X0146750Y0210300D01*
X0146674Y0210302D01*
X0146598Y0210308D01*
X0146523Y0210317D01*
X0146448Y0210331D01*
X0146374Y0210348D01*
X0146301Y0210369D01*
X0146229Y0210393D01*
X0146158Y0210422D01*
X0146089Y0210453D01*
X0146022Y0210488D01*
X0145957Y0210527D01*
X0145893Y0210569D01*
X0145832Y0210614D01*
X0145773Y0210662D01*
X0145717Y0210713D01*
X0145663Y0210767D01*
X0145612Y0210823D01*
X0145564Y0210882D01*
X0145519Y0210943D01*
X0145477Y0211007D01*
X0145438Y0211072D01*
X0145403Y0211139D01*
X0145372Y0211208D01*
X0145343Y0211279D01*
X0145319Y0211351D01*
X0145298Y0211424D01*
X0145281Y0211498D01*
X0145267Y0211573D01*
X0145258Y0211648D01*
X0145252Y0211724D01*
X0145250Y0211800D01*
X0145250Y0224200D01*
X0145252Y0224276D01*
X0145258Y0224352D01*
X0145267Y0224427D01*
X0145281Y0224502D01*
X0145298Y0224576D01*
X0145319Y0224649D01*
X0145343Y0224721D01*
X0145372Y0224792D01*
X0145403Y0224861D01*
X0145438Y0224928D01*
X0145477Y0224993D01*
X0145519Y0225057D01*
X0145564Y0225118D01*
X0145612Y0225177D01*
X0145663Y0225233D01*
X0145717Y0225287D01*
X0145773Y0225338D01*
X0145832Y0225386D01*
X0145893Y0225431D01*
X0145957Y0225473D01*
X0146022Y0225512D01*
X0146089Y0225547D01*
X0146158Y0225578D01*
X0146229Y0225607D01*
X0146301Y0225631D01*
X0146374Y0225652D01*
X0146448Y0225669D01*
X0146523Y0225683D01*
X0146598Y0225692D01*
X0146674Y0225698D01*
X0146750Y0225700D01*
X0185250Y0220000D02*
X0185162Y0219998D01*
X0185073Y0219992D01*
X0184985Y0219982D01*
X0184898Y0219969D01*
X0184811Y0219951D01*
X0184725Y0219930D01*
X0184640Y0219905D01*
X0184557Y0219876D01*
X0184474Y0219843D01*
X0184394Y0219807D01*
X0184315Y0219768D01*
X0184237Y0219725D01*
X0184162Y0219678D01*
X0184089Y0219628D01*
X0184018Y0219575D01*
X0183949Y0219519D01*
X0183883Y0219460D01*
X0183820Y0219398D01*
X0183760Y0219334D01*
X0183702Y0219267D01*
X0183648Y0219197D01*
X0183596Y0219125D01*
X0183548Y0219051D01*
X0183503Y0218974D01*
X0183462Y0218896D01*
X0183424Y0218816D01*
X0183390Y0218735D01*
X0183359Y0218652D01*
X0183332Y0218567D01*
X0183309Y0218482D01*
X0183290Y0218396D01*
X0183274Y0218308D01*
X0183262Y0218221D01*
X0183254Y0218133D01*
X0183250Y0218044D01*
X0183250Y0217956D01*
X0183254Y0217867D01*
X0183262Y0217779D01*
X0183274Y0217692D01*
X0183290Y0217604D01*
X0183309Y0217518D01*
X0183332Y0217433D01*
X0183359Y0217348D01*
X0183390Y0217265D01*
X0183424Y0217184D01*
X0183462Y0217104D01*
X0183503Y0217026D01*
X0183548Y0216949D01*
X0183596Y0216875D01*
X0183648Y0216803D01*
X0183702Y0216733D01*
X0183760Y0216666D01*
X0183820Y0216602D01*
X0183883Y0216540D01*
X0183949Y0216481D01*
X0184018Y0216425D01*
X0184089Y0216372D01*
X0184162Y0216322D01*
X0184237Y0216275D01*
X0184315Y0216232D01*
X0184394Y0216193D01*
X0184474Y0216157D01*
X0184557Y0216124D01*
X0184640Y0216095D01*
X0184725Y0216070D01*
X0184811Y0216049D01*
X0184898Y0216031D01*
X0184985Y0216018D01*
X0185073Y0216008D01*
X0185162Y0216002D01*
X0185250Y0216000D01*
X0089999Y0080889D02*
X0089999Y0079755D01*
D14*
X0145250Y0224300D02*
X0185250Y0224300D01*
D15*
X0182750Y0227950D03*
X0177750Y0227950D03*
X0172750Y0227850D03*
X0167750Y0227950D03*
X0162750Y0227950D03*
X0157750Y0227950D03*
X0152750Y0227950D03*
X0147750Y0227950D03*
X0147750Y0208050D03*
X0152750Y0208050D03*
X0157750Y0208050D03*
X0162750Y0208050D03*
X0167750Y0208050D03*
X0172750Y0208050D03*
X0177750Y0208050D03*
X0182750Y0208050D03*
D16*
X0092250Y0140500D02*
X0088250Y0140500D01*
X0088250Y0130500D02*
X0092250Y0130500D01*
X0092250Y0120500D02*
X0088250Y0120500D01*
X0088250Y0110500D02*
X0092250Y0110500D01*
X0056250Y0110500D02*
X0052250Y0110500D01*
X0052250Y0120500D02*
X0056250Y0120500D01*
X0056250Y0130500D02*
X0052250Y0130500D01*
X0052250Y0140500D02*
X0056250Y0140500D01*
D17*
X0058050Y0140500D03*
X0058050Y0130500D03*
X0058050Y0120500D03*
X0058050Y0110500D03*
X0086450Y0110500D03*
X0086450Y0120500D03*
X0086450Y0130500D03*
X0086450Y0140500D03*
D18*
X0032077Y0090390D02*
X0032077Y0049051D01*
X0035226Y0049051D01*
X0035226Y0090390D01*
X0059636Y0090390D01*
X0059636Y0049051D01*
X0035226Y0049051D01*
X0042195Y0034886D02*
X0042195Y0010476D01*
X0156604Y0010476D01*
X0156604Y0007327D01*
X0042195Y0007327D01*
X0042195Y0010476D01*
X0042195Y0012248D02*
X0040620Y0012248D01*
X0040620Y0016185D01*
X0042195Y0016185D01*
X0042195Y0034886D02*
X0156604Y0034886D01*
X0156604Y0010476D01*
X0154596Y0010476D02*
X0154596Y0007327D01*
X0209715Y0007327D01*
X0209715Y0010476D01*
X0154596Y0010476D01*
X0154596Y0034886D01*
X0209715Y0034886D01*
X0209715Y0010476D01*
X0209715Y0029965D02*
X0211683Y0029965D01*
X0211683Y0033902D01*
X0209715Y0033902D01*
X0158179Y0033902D02*
X0158179Y0029965D01*
X0156604Y0029965D01*
X0156604Y0033902D02*
X0158179Y0033902D01*
X0154596Y0016185D02*
X0152628Y0016185D01*
X0152628Y0012248D01*
X0154596Y0012248D01*
X0058652Y0047083D02*
X0054715Y0047083D01*
X0054715Y0049051D01*
X0058652Y0049051D02*
X0058652Y0047083D01*
X0040935Y0090390D02*
X0040935Y0092358D01*
X0036998Y0092358D01*
X0036998Y0090390D01*
X0035226Y0090390D02*
X0032077Y0090390D01*
X0088750Y0149500D02*
X0086250Y0152000D01*
X0086250Y0157000D01*
X0088750Y0159500D01*
X0086250Y0162000D01*
X0086250Y0167000D01*
X0088750Y0169500D01*
X0093750Y0169500D01*
X0096250Y0167000D01*
X0096250Y0162000D01*
X0093750Y0159500D01*
X0096250Y0157000D01*
X0096250Y0152000D01*
X0093750Y0149500D01*
X0088750Y0149500D01*
X0087050Y0190837D02*
X0105844Y0190837D01*
X0105844Y0190838D02*
X0105914Y0190850D01*
X0105984Y0190867D01*
X0106052Y0190887D01*
X0106119Y0190911D01*
X0106185Y0190938D01*
X0106250Y0190969D01*
X0106312Y0191003D01*
X0106373Y0191041D01*
X0106431Y0191082D01*
X0106488Y0191126D01*
X0106541Y0191173D01*
X0106592Y0191223D01*
X0106641Y0191275D01*
X0106686Y0191330D01*
X0106729Y0191388D01*
X0106768Y0191447D01*
X0106804Y0191509D01*
X0106836Y0191573D01*
X0106865Y0191638D01*
X0106891Y0191704D01*
X0106912Y0191772D01*
X0106931Y0191842D01*
X0106945Y0191911D01*
X0106955Y0191982D01*
X0106962Y0192053D01*
X0106965Y0192124D01*
X0106964Y0192196D01*
X0106959Y0192267D01*
X0106950Y0192338D01*
X0106950Y0192337D02*
X0106950Y0204663D01*
X0106948Y0204739D01*
X0106942Y0204814D01*
X0106933Y0204890D01*
X0106919Y0204965D01*
X0106902Y0205039D01*
X0106881Y0205112D01*
X0106857Y0205184D01*
X0106829Y0205254D01*
X0106797Y0205323D01*
X0106762Y0205391D01*
X0106723Y0205456D01*
X0106681Y0205520D01*
X0106636Y0205581D01*
X0106588Y0205640D01*
X0106537Y0205696D01*
X0106483Y0205750D01*
X0106427Y0205801D01*
X0106368Y0205849D01*
X0106307Y0205894D01*
X0106243Y0205936D01*
X0106178Y0205975D01*
X0106110Y0206010D01*
X0106041Y0206042D01*
X0105971Y0206070D01*
X0105899Y0206094D01*
X0105826Y0206115D01*
X0105752Y0206132D01*
X0105677Y0206146D01*
X0105601Y0206155D01*
X0105526Y0206161D01*
X0105450Y0206163D01*
X0087050Y0206163D01*
X0086969Y0206151D01*
X0086889Y0206136D01*
X0086810Y0206117D01*
X0086732Y0206095D01*
X0086655Y0206068D01*
X0086579Y0206039D01*
X0086505Y0206005D01*
X0086433Y0205968D01*
X0086362Y0205928D01*
X0086294Y0205884D01*
X0086227Y0205837D01*
X0086163Y0205787D01*
X0086102Y0205734D01*
X0086043Y0205678D01*
X0085986Y0205619D01*
X0085933Y0205558D01*
X0085882Y0205494D01*
X0085835Y0205428D01*
X0085791Y0205360D01*
X0085750Y0205290D01*
X0085712Y0205218D01*
X0085678Y0205144D01*
X0085648Y0205068D01*
X0085621Y0204992D01*
X0085598Y0204914D01*
X0085578Y0204835D01*
X0085563Y0204755D01*
X0085551Y0204674D01*
X0085543Y0204594D01*
X0085539Y0204512D01*
X0085538Y0204431D01*
X0085542Y0204350D01*
X0085549Y0204269D01*
X0085550Y0204219D02*
X0085550Y0200900D01*
X0085750Y0200900D02*
X0085848Y0200898D01*
X0085946Y0200892D01*
X0086044Y0200883D01*
X0086141Y0200869D01*
X0086238Y0200852D01*
X0086334Y0200831D01*
X0086429Y0200806D01*
X0086523Y0200778D01*
X0086615Y0200745D01*
X0086707Y0200710D01*
X0086797Y0200670D01*
X0086885Y0200628D01*
X0086972Y0200581D01*
X0087056Y0200532D01*
X0087139Y0200479D01*
X0087219Y0200423D01*
X0087298Y0200363D01*
X0087374Y0200301D01*
X0087447Y0200236D01*
X0087518Y0200168D01*
X0087586Y0200097D01*
X0087651Y0200024D01*
X0087713Y0199948D01*
X0087773Y0199869D01*
X0087829Y0199789D01*
X0087882Y0199706D01*
X0087931Y0199622D01*
X0087978Y0199535D01*
X0088020Y0199447D01*
X0088060Y0199357D01*
X0088095Y0199265D01*
X0088128Y0199173D01*
X0088156Y0199079D01*
X0088181Y0198984D01*
X0088202Y0198888D01*
X0088219Y0198791D01*
X0088233Y0198694D01*
X0088242Y0198596D01*
X0088248Y0198498D01*
X0088250Y0198400D01*
X0088248Y0198302D01*
X0088242Y0198204D01*
X0088233Y0198106D01*
X0088219Y0198009D01*
X0088202Y0197912D01*
X0088181Y0197816D01*
X0088156Y0197721D01*
X0088128Y0197627D01*
X0088095Y0197535D01*
X0088060Y0197443D01*
X0088020Y0197353D01*
X0087978Y0197265D01*
X0087931Y0197178D01*
X0087882Y0197094D01*
X0087829Y0197011D01*
X0087773Y0196931D01*
X0087713Y0196852D01*
X0087651Y0196776D01*
X0087586Y0196703D01*
X0087518Y0196632D01*
X0087447Y0196564D01*
X0087374Y0196499D01*
X0087298Y0196437D01*
X0087219Y0196377D01*
X0087139Y0196321D01*
X0087056Y0196268D01*
X0086972Y0196219D01*
X0086885Y0196172D01*
X0086797Y0196130D01*
X0086707Y0196090D01*
X0086615Y0196055D01*
X0086523Y0196022D01*
X0086429Y0195994D01*
X0086334Y0195969D01*
X0086238Y0195948D01*
X0086141Y0195931D01*
X0086044Y0195917D01*
X0085946Y0195908D01*
X0085848Y0195902D01*
X0085750Y0195900D01*
X0085550Y0195900D02*
X0085550Y0191944D01*
X0085551Y0191944D02*
X0085563Y0191874D01*
X0085580Y0191804D01*
X0085600Y0191736D01*
X0085623Y0191668D01*
X0085651Y0191602D01*
X0085682Y0191538D01*
X0085716Y0191476D01*
X0085754Y0191415D01*
X0085794Y0191356D01*
X0085838Y0191300D01*
X0085885Y0191247D01*
X0085935Y0191195D01*
X0085988Y0191147D01*
X0086043Y0191102D01*
X0086100Y0191059D01*
X0086160Y0191020D01*
X0086222Y0190984D01*
X0086285Y0190952D01*
X0086350Y0190923D01*
X0086417Y0190897D01*
X0086485Y0190875D01*
X0086554Y0190857D01*
X0086624Y0190843D01*
X0086695Y0190833D01*
X0086766Y0190826D01*
X0086837Y0190823D01*
X0086908Y0190824D01*
X0086980Y0190829D01*
X0087050Y0190838D01*
X0042195Y0286327D02*
X0042195Y0289476D01*
X0156604Y0289476D01*
X0156604Y0286327D01*
X0042195Y0286327D01*
X0042195Y0289476D02*
X0042195Y0313886D01*
X0156604Y0313886D01*
X0156604Y0289476D01*
X0154596Y0289476D02*
X0154596Y0286327D01*
X0209715Y0286327D01*
X0209715Y0289476D01*
X0154596Y0289476D01*
X0154596Y0313886D01*
X0209715Y0313886D01*
X0209715Y0289476D01*
X0209715Y0308965D02*
X0211683Y0308965D01*
X0211683Y0312902D01*
X0209715Y0312902D01*
X0158179Y0312902D02*
X0158179Y0308965D01*
X0156604Y0308965D01*
X0156604Y0312902D02*
X0158179Y0312902D01*
X0154596Y0295185D02*
X0152628Y0295185D01*
X0152628Y0291248D01*
X0154596Y0291248D01*
X0205301Y0230937D02*
X0205301Y0223063D01*
X0210813Y0223063D01*
X0213569Y0224638D02*
X0215931Y0227000D01*
X0213569Y0229362D01*
X0213569Y0224638D01*
X0215931Y0224244D02*
X0215931Y0227000D01*
X0215931Y0229756D01*
X0218687Y0230937D02*
X0224199Y0230937D01*
X0224199Y0223063D01*
X0218687Y0223063D01*
X0210813Y0230937D02*
X0205301Y0230937D01*
X0042195Y0291248D02*
X0040620Y0291248D01*
X0040620Y0295185D01*
X0042195Y0295185D01*
D19*
X0105750Y0226500D03*
X0110750Y0226500D03*
X0110750Y0218500D03*
X0105750Y0218500D03*
X0194250Y0227000D03*
X0199250Y0227000D03*
D20*
X0127534Y0218020D03*
X0122934Y0218020D03*
X0109534Y0140520D03*
X0104934Y0140520D03*
X0104934Y0130520D03*
X0109534Y0130520D03*
X0109534Y0120520D03*
X0104934Y0120520D03*
X0104934Y0110520D03*
X0109534Y0110520D03*
D21*
X0204550Y0210450D03*
X0211950Y0210450D03*
X0208250Y0202550D03*
D22*
X0201152Y0300500D02*
X0201154Y0300581D01*
X0201160Y0300663D01*
X0201170Y0300744D01*
X0201184Y0300824D01*
X0201201Y0300903D01*
X0201223Y0300982D01*
X0201248Y0301059D01*
X0201277Y0301136D01*
X0201310Y0301210D01*
X0201347Y0301283D01*
X0201386Y0301354D01*
X0201430Y0301423D01*
X0201476Y0301490D01*
X0201526Y0301554D01*
X0201579Y0301616D01*
X0201635Y0301676D01*
X0201693Y0301732D01*
X0201755Y0301786D01*
X0201819Y0301837D01*
X0201885Y0301884D01*
X0201953Y0301928D01*
X0202024Y0301969D01*
X0202096Y0302006D01*
X0202171Y0302040D01*
X0202246Y0302070D01*
X0202324Y0302096D01*
X0202402Y0302119D01*
X0202481Y0302137D01*
X0202561Y0302152D01*
X0202642Y0302163D01*
X0202723Y0302170D01*
X0202805Y0302173D01*
X0202886Y0302172D01*
X0202967Y0302167D01*
X0203048Y0302158D01*
X0203129Y0302145D01*
X0203209Y0302128D01*
X0203287Y0302108D01*
X0203365Y0302083D01*
X0203442Y0302055D01*
X0203517Y0302023D01*
X0203590Y0301988D01*
X0203661Y0301949D01*
X0203731Y0301906D01*
X0203798Y0301861D01*
X0203864Y0301812D01*
X0203926Y0301760D01*
X0203986Y0301704D01*
X0204043Y0301646D01*
X0204098Y0301586D01*
X0204149Y0301522D01*
X0204197Y0301457D01*
X0204242Y0301389D01*
X0204284Y0301319D01*
X0204322Y0301247D01*
X0204357Y0301173D01*
X0204388Y0301098D01*
X0204415Y0301021D01*
X0204438Y0300943D01*
X0204458Y0300864D01*
X0204474Y0300784D01*
X0204486Y0300703D01*
X0204494Y0300622D01*
X0204498Y0300541D01*
X0204498Y0300459D01*
X0204494Y0300378D01*
X0204486Y0300297D01*
X0204474Y0300216D01*
X0204458Y0300136D01*
X0204438Y0300057D01*
X0204415Y0299979D01*
X0204388Y0299902D01*
X0204357Y0299827D01*
X0204322Y0299753D01*
X0204284Y0299681D01*
X0204242Y0299611D01*
X0204197Y0299543D01*
X0204149Y0299478D01*
X0204098Y0299414D01*
X0204043Y0299354D01*
X0203986Y0299296D01*
X0203926Y0299240D01*
X0203864Y0299188D01*
X0203798Y0299139D01*
X0203731Y0299094D01*
X0203662Y0299051D01*
X0203590Y0299012D01*
X0203517Y0298977D01*
X0203442Y0298945D01*
X0203365Y0298917D01*
X0203287Y0298892D01*
X0203209Y0298872D01*
X0203129Y0298855D01*
X0203048Y0298842D01*
X0202967Y0298833D01*
X0202886Y0298828D01*
X0202805Y0298827D01*
X0202723Y0298830D01*
X0202642Y0298837D01*
X0202561Y0298848D01*
X0202481Y0298863D01*
X0202402Y0298881D01*
X0202324Y0298904D01*
X0202246Y0298930D01*
X0202171Y0298960D01*
X0202096Y0298994D01*
X0202024Y0299031D01*
X0201953Y0299072D01*
X0201885Y0299116D01*
X0201819Y0299163D01*
X0201755Y0299214D01*
X0201693Y0299268D01*
X0201635Y0299324D01*
X0201579Y0299384D01*
X0201526Y0299446D01*
X0201476Y0299510D01*
X0201430Y0299577D01*
X0201386Y0299646D01*
X0201347Y0299717D01*
X0201310Y0299790D01*
X0201277Y0299864D01*
X0201248Y0299941D01*
X0201223Y0300018D01*
X0201201Y0300097D01*
X0201184Y0300176D01*
X0201170Y0300256D01*
X0201160Y0300337D01*
X0201154Y0300419D01*
X0201152Y0300500D01*
X0187372Y0300500D02*
X0187374Y0300581D01*
X0187380Y0300663D01*
X0187390Y0300744D01*
X0187404Y0300824D01*
X0187421Y0300903D01*
X0187443Y0300982D01*
X0187468Y0301059D01*
X0187497Y0301136D01*
X0187530Y0301210D01*
X0187567Y0301283D01*
X0187606Y0301354D01*
X0187650Y0301423D01*
X0187696Y0301490D01*
X0187746Y0301554D01*
X0187799Y0301616D01*
X0187855Y0301676D01*
X0187913Y0301732D01*
X0187975Y0301786D01*
X0188039Y0301837D01*
X0188105Y0301884D01*
X0188173Y0301928D01*
X0188244Y0301969D01*
X0188316Y0302006D01*
X0188391Y0302040D01*
X0188466Y0302070D01*
X0188544Y0302096D01*
X0188622Y0302119D01*
X0188701Y0302137D01*
X0188781Y0302152D01*
X0188862Y0302163D01*
X0188943Y0302170D01*
X0189025Y0302173D01*
X0189106Y0302172D01*
X0189187Y0302167D01*
X0189268Y0302158D01*
X0189349Y0302145D01*
X0189429Y0302128D01*
X0189507Y0302108D01*
X0189585Y0302083D01*
X0189662Y0302055D01*
X0189737Y0302023D01*
X0189810Y0301988D01*
X0189881Y0301949D01*
X0189951Y0301906D01*
X0190018Y0301861D01*
X0190084Y0301812D01*
X0190146Y0301760D01*
X0190206Y0301704D01*
X0190263Y0301646D01*
X0190318Y0301586D01*
X0190369Y0301522D01*
X0190417Y0301457D01*
X0190462Y0301389D01*
X0190504Y0301319D01*
X0190542Y0301247D01*
X0190577Y0301173D01*
X0190608Y0301098D01*
X0190635Y0301021D01*
X0190658Y0300943D01*
X0190678Y0300864D01*
X0190694Y0300784D01*
X0190706Y0300703D01*
X0190714Y0300622D01*
X0190718Y0300541D01*
X0190718Y0300459D01*
X0190714Y0300378D01*
X0190706Y0300297D01*
X0190694Y0300216D01*
X0190678Y0300136D01*
X0190658Y0300057D01*
X0190635Y0299979D01*
X0190608Y0299902D01*
X0190577Y0299827D01*
X0190542Y0299753D01*
X0190504Y0299681D01*
X0190462Y0299611D01*
X0190417Y0299543D01*
X0190369Y0299478D01*
X0190318Y0299414D01*
X0190263Y0299354D01*
X0190206Y0299296D01*
X0190146Y0299240D01*
X0190084Y0299188D01*
X0190018Y0299139D01*
X0189951Y0299094D01*
X0189882Y0299051D01*
X0189810Y0299012D01*
X0189737Y0298977D01*
X0189662Y0298945D01*
X0189585Y0298917D01*
X0189507Y0298892D01*
X0189429Y0298872D01*
X0189349Y0298855D01*
X0189268Y0298842D01*
X0189187Y0298833D01*
X0189106Y0298828D01*
X0189025Y0298827D01*
X0188943Y0298830D01*
X0188862Y0298837D01*
X0188781Y0298848D01*
X0188701Y0298863D01*
X0188622Y0298881D01*
X0188544Y0298904D01*
X0188466Y0298930D01*
X0188391Y0298960D01*
X0188316Y0298994D01*
X0188244Y0299031D01*
X0188173Y0299072D01*
X0188105Y0299116D01*
X0188039Y0299163D01*
X0187975Y0299214D01*
X0187913Y0299268D01*
X0187855Y0299324D01*
X0187799Y0299384D01*
X0187746Y0299446D01*
X0187696Y0299510D01*
X0187650Y0299577D01*
X0187606Y0299646D01*
X0187567Y0299717D01*
X0187530Y0299790D01*
X0187497Y0299864D01*
X0187468Y0299941D01*
X0187443Y0300018D01*
X0187421Y0300097D01*
X0187404Y0300176D01*
X0187390Y0300256D01*
X0187380Y0300337D01*
X0187374Y0300419D01*
X0187372Y0300500D01*
X0173593Y0300500D02*
X0173595Y0300581D01*
X0173601Y0300663D01*
X0173611Y0300744D01*
X0173625Y0300824D01*
X0173642Y0300903D01*
X0173664Y0300982D01*
X0173689Y0301059D01*
X0173718Y0301136D01*
X0173751Y0301210D01*
X0173788Y0301283D01*
X0173827Y0301354D01*
X0173871Y0301423D01*
X0173917Y0301490D01*
X0173967Y0301554D01*
X0174020Y0301616D01*
X0174076Y0301676D01*
X0174134Y0301732D01*
X0174196Y0301786D01*
X0174260Y0301837D01*
X0174326Y0301884D01*
X0174394Y0301928D01*
X0174465Y0301969D01*
X0174537Y0302006D01*
X0174612Y0302040D01*
X0174687Y0302070D01*
X0174765Y0302096D01*
X0174843Y0302119D01*
X0174922Y0302137D01*
X0175002Y0302152D01*
X0175083Y0302163D01*
X0175164Y0302170D01*
X0175246Y0302173D01*
X0175327Y0302172D01*
X0175408Y0302167D01*
X0175489Y0302158D01*
X0175570Y0302145D01*
X0175650Y0302128D01*
X0175728Y0302108D01*
X0175806Y0302083D01*
X0175883Y0302055D01*
X0175958Y0302023D01*
X0176031Y0301988D01*
X0176102Y0301949D01*
X0176172Y0301906D01*
X0176239Y0301861D01*
X0176305Y0301812D01*
X0176367Y0301760D01*
X0176427Y0301704D01*
X0176484Y0301646D01*
X0176539Y0301586D01*
X0176590Y0301522D01*
X0176638Y0301457D01*
X0176683Y0301389D01*
X0176725Y0301319D01*
X0176763Y0301247D01*
X0176798Y0301173D01*
X0176829Y0301098D01*
X0176856Y0301021D01*
X0176879Y0300943D01*
X0176899Y0300864D01*
X0176915Y0300784D01*
X0176927Y0300703D01*
X0176935Y0300622D01*
X0176939Y0300541D01*
X0176939Y0300459D01*
X0176935Y0300378D01*
X0176927Y0300297D01*
X0176915Y0300216D01*
X0176899Y0300136D01*
X0176879Y0300057D01*
X0176856Y0299979D01*
X0176829Y0299902D01*
X0176798Y0299827D01*
X0176763Y0299753D01*
X0176725Y0299681D01*
X0176683Y0299611D01*
X0176638Y0299543D01*
X0176590Y0299478D01*
X0176539Y0299414D01*
X0176484Y0299354D01*
X0176427Y0299296D01*
X0176367Y0299240D01*
X0176305Y0299188D01*
X0176239Y0299139D01*
X0176172Y0299094D01*
X0176103Y0299051D01*
X0176031Y0299012D01*
X0175958Y0298977D01*
X0175883Y0298945D01*
X0175806Y0298917D01*
X0175728Y0298892D01*
X0175650Y0298872D01*
X0175570Y0298855D01*
X0175489Y0298842D01*
X0175408Y0298833D01*
X0175327Y0298828D01*
X0175246Y0298827D01*
X0175164Y0298830D01*
X0175083Y0298837D01*
X0175002Y0298848D01*
X0174922Y0298863D01*
X0174843Y0298881D01*
X0174765Y0298904D01*
X0174687Y0298930D01*
X0174612Y0298960D01*
X0174537Y0298994D01*
X0174465Y0299031D01*
X0174394Y0299072D01*
X0174326Y0299116D01*
X0174260Y0299163D01*
X0174196Y0299214D01*
X0174134Y0299268D01*
X0174076Y0299324D01*
X0174020Y0299384D01*
X0173967Y0299446D01*
X0173917Y0299510D01*
X0173871Y0299577D01*
X0173827Y0299646D01*
X0173788Y0299717D01*
X0173751Y0299790D01*
X0173718Y0299864D01*
X0173689Y0299941D01*
X0173664Y0300018D01*
X0173642Y0300097D01*
X0173625Y0300176D01*
X0173611Y0300256D01*
X0173601Y0300337D01*
X0173595Y0300419D01*
X0173593Y0300500D01*
X0159813Y0300500D02*
X0159815Y0300581D01*
X0159821Y0300663D01*
X0159831Y0300744D01*
X0159845Y0300824D01*
X0159862Y0300903D01*
X0159884Y0300982D01*
X0159909Y0301059D01*
X0159938Y0301136D01*
X0159971Y0301210D01*
X0160008Y0301283D01*
X0160047Y0301354D01*
X0160091Y0301423D01*
X0160137Y0301490D01*
X0160187Y0301554D01*
X0160240Y0301616D01*
X0160296Y0301676D01*
X0160354Y0301732D01*
X0160416Y0301786D01*
X0160480Y0301837D01*
X0160546Y0301884D01*
X0160614Y0301928D01*
X0160685Y0301969D01*
X0160757Y0302006D01*
X0160832Y0302040D01*
X0160907Y0302070D01*
X0160985Y0302096D01*
X0161063Y0302119D01*
X0161142Y0302137D01*
X0161222Y0302152D01*
X0161303Y0302163D01*
X0161384Y0302170D01*
X0161466Y0302173D01*
X0161547Y0302172D01*
X0161628Y0302167D01*
X0161709Y0302158D01*
X0161790Y0302145D01*
X0161870Y0302128D01*
X0161948Y0302108D01*
X0162026Y0302083D01*
X0162103Y0302055D01*
X0162178Y0302023D01*
X0162251Y0301988D01*
X0162322Y0301949D01*
X0162392Y0301906D01*
X0162459Y0301861D01*
X0162525Y0301812D01*
X0162587Y0301760D01*
X0162647Y0301704D01*
X0162704Y0301646D01*
X0162759Y0301586D01*
X0162810Y0301522D01*
X0162858Y0301457D01*
X0162903Y0301389D01*
X0162945Y0301319D01*
X0162983Y0301247D01*
X0163018Y0301173D01*
X0163049Y0301098D01*
X0163076Y0301021D01*
X0163099Y0300943D01*
X0163119Y0300864D01*
X0163135Y0300784D01*
X0163147Y0300703D01*
X0163155Y0300622D01*
X0163159Y0300541D01*
X0163159Y0300459D01*
X0163155Y0300378D01*
X0163147Y0300297D01*
X0163135Y0300216D01*
X0163119Y0300136D01*
X0163099Y0300057D01*
X0163076Y0299979D01*
X0163049Y0299902D01*
X0163018Y0299827D01*
X0162983Y0299753D01*
X0162945Y0299681D01*
X0162903Y0299611D01*
X0162858Y0299543D01*
X0162810Y0299478D01*
X0162759Y0299414D01*
X0162704Y0299354D01*
X0162647Y0299296D01*
X0162587Y0299240D01*
X0162525Y0299188D01*
X0162459Y0299139D01*
X0162392Y0299094D01*
X0162323Y0299051D01*
X0162251Y0299012D01*
X0162178Y0298977D01*
X0162103Y0298945D01*
X0162026Y0298917D01*
X0161948Y0298892D01*
X0161870Y0298872D01*
X0161790Y0298855D01*
X0161709Y0298842D01*
X0161628Y0298833D01*
X0161547Y0298828D01*
X0161466Y0298827D01*
X0161384Y0298830D01*
X0161303Y0298837D01*
X0161222Y0298848D01*
X0161142Y0298863D01*
X0161063Y0298881D01*
X0160985Y0298904D01*
X0160907Y0298930D01*
X0160832Y0298960D01*
X0160757Y0298994D01*
X0160685Y0299031D01*
X0160614Y0299072D01*
X0160546Y0299116D01*
X0160480Y0299163D01*
X0160416Y0299214D01*
X0160354Y0299268D01*
X0160296Y0299324D01*
X0160240Y0299384D01*
X0160187Y0299446D01*
X0160137Y0299510D01*
X0160091Y0299577D01*
X0160047Y0299646D01*
X0160008Y0299717D01*
X0159971Y0299790D01*
X0159938Y0299864D01*
X0159909Y0299941D01*
X0159884Y0300018D01*
X0159862Y0300097D01*
X0159845Y0300176D01*
X0159831Y0300256D01*
X0159821Y0300337D01*
X0159815Y0300419D01*
X0159813Y0300500D01*
X0159813Y0021500D02*
X0159815Y0021581D01*
X0159821Y0021663D01*
X0159831Y0021744D01*
X0159845Y0021824D01*
X0159862Y0021903D01*
X0159884Y0021982D01*
X0159909Y0022059D01*
X0159938Y0022136D01*
X0159971Y0022210D01*
X0160008Y0022283D01*
X0160047Y0022354D01*
X0160091Y0022423D01*
X0160137Y0022490D01*
X0160187Y0022554D01*
X0160240Y0022616D01*
X0160296Y0022676D01*
X0160354Y0022732D01*
X0160416Y0022786D01*
X0160480Y0022837D01*
X0160546Y0022884D01*
X0160614Y0022928D01*
X0160685Y0022969D01*
X0160757Y0023006D01*
X0160832Y0023040D01*
X0160907Y0023070D01*
X0160985Y0023096D01*
X0161063Y0023119D01*
X0161142Y0023137D01*
X0161222Y0023152D01*
X0161303Y0023163D01*
X0161384Y0023170D01*
X0161466Y0023173D01*
X0161547Y0023172D01*
X0161628Y0023167D01*
X0161709Y0023158D01*
X0161790Y0023145D01*
X0161870Y0023128D01*
X0161948Y0023108D01*
X0162026Y0023083D01*
X0162103Y0023055D01*
X0162178Y0023023D01*
X0162251Y0022988D01*
X0162322Y0022949D01*
X0162392Y0022906D01*
X0162459Y0022861D01*
X0162525Y0022812D01*
X0162587Y0022760D01*
X0162647Y0022704D01*
X0162704Y0022646D01*
X0162759Y0022586D01*
X0162810Y0022522D01*
X0162858Y0022457D01*
X0162903Y0022389D01*
X0162945Y0022319D01*
X0162983Y0022247D01*
X0163018Y0022173D01*
X0163049Y0022098D01*
X0163076Y0022021D01*
X0163099Y0021943D01*
X0163119Y0021864D01*
X0163135Y0021784D01*
X0163147Y0021703D01*
X0163155Y0021622D01*
X0163159Y0021541D01*
X0163159Y0021459D01*
X0163155Y0021378D01*
X0163147Y0021297D01*
X0163135Y0021216D01*
X0163119Y0021136D01*
X0163099Y0021057D01*
X0163076Y0020979D01*
X0163049Y0020902D01*
X0163018Y0020827D01*
X0162983Y0020753D01*
X0162945Y0020681D01*
X0162903Y0020611D01*
X0162858Y0020543D01*
X0162810Y0020478D01*
X0162759Y0020414D01*
X0162704Y0020354D01*
X0162647Y0020296D01*
X0162587Y0020240D01*
X0162525Y0020188D01*
X0162459Y0020139D01*
X0162392Y0020094D01*
X0162323Y0020051D01*
X0162251Y0020012D01*
X0162178Y0019977D01*
X0162103Y0019945D01*
X0162026Y0019917D01*
X0161948Y0019892D01*
X0161870Y0019872D01*
X0161790Y0019855D01*
X0161709Y0019842D01*
X0161628Y0019833D01*
X0161547Y0019828D01*
X0161466Y0019827D01*
X0161384Y0019830D01*
X0161303Y0019837D01*
X0161222Y0019848D01*
X0161142Y0019863D01*
X0161063Y0019881D01*
X0160985Y0019904D01*
X0160907Y0019930D01*
X0160832Y0019960D01*
X0160757Y0019994D01*
X0160685Y0020031D01*
X0160614Y0020072D01*
X0160546Y0020116D01*
X0160480Y0020163D01*
X0160416Y0020214D01*
X0160354Y0020268D01*
X0160296Y0020324D01*
X0160240Y0020384D01*
X0160187Y0020446D01*
X0160137Y0020510D01*
X0160091Y0020577D01*
X0160047Y0020646D01*
X0160008Y0020717D01*
X0159971Y0020790D01*
X0159938Y0020864D01*
X0159909Y0020941D01*
X0159884Y0021018D01*
X0159862Y0021097D01*
X0159845Y0021176D01*
X0159831Y0021256D01*
X0159821Y0021337D01*
X0159815Y0021419D01*
X0159813Y0021500D01*
X0173593Y0021500D02*
X0173595Y0021581D01*
X0173601Y0021663D01*
X0173611Y0021744D01*
X0173625Y0021824D01*
X0173642Y0021903D01*
X0173664Y0021982D01*
X0173689Y0022059D01*
X0173718Y0022136D01*
X0173751Y0022210D01*
X0173788Y0022283D01*
X0173827Y0022354D01*
X0173871Y0022423D01*
X0173917Y0022490D01*
X0173967Y0022554D01*
X0174020Y0022616D01*
X0174076Y0022676D01*
X0174134Y0022732D01*
X0174196Y0022786D01*
X0174260Y0022837D01*
X0174326Y0022884D01*
X0174394Y0022928D01*
X0174465Y0022969D01*
X0174537Y0023006D01*
X0174612Y0023040D01*
X0174687Y0023070D01*
X0174765Y0023096D01*
X0174843Y0023119D01*
X0174922Y0023137D01*
X0175002Y0023152D01*
X0175083Y0023163D01*
X0175164Y0023170D01*
X0175246Y0023173D01*
X0175327Y0023172D01*
X0175408Y0023167D01*
X0175489Y0023158D01*
X0175570Y0023145D01*
X0175650Y0023128D01*
X0175728Y0023108D01*
X0175806Y0023083D01*
X0175883Y0023055D01*
X0175958Y0023023D01*
X0176031Y0022988D01*
X0176102Y0022949D01*
X0176172Y0022906D01*
X0176239Y0022861D01*
X0176305Y0022812D01*
X0176367Y0022760D01*
X0176427Y0022704D01*
X0176484Y0022646D01*
X0176539Y0022586D01*
X0176590Y0022522D01*
X0176638Y0022457D01*
X0176683Y0022389D01*
X0176725Y0022319D01*
X0176763Y0022247D01*
X0176798Y0022173D01*
X0176829Y0022098D01*
X0176856Y0022021D01*
X0176879Y0021943D01*
X0176899Y0021864D01*
X0176915Y0021784D01*
X0176927Y0021703D01*
X0176935Y0021622D01*
X0176939Y0021541D01*
X0176939Y0021459D01*
X0176935Y0021378D01*
X0176927Y0021297D01*
X0176915Y0021216D01*
X0176899Y0021136D01*
X0176879Y0021057D01*
X0176856Y0020979D01*
X0176829Y0020902D01*
X0176798Y0020827D01*
X0176763Y0020753D01*
X0176725Y0020681D01*
X0176683Y0020611D01*
X0176638Y0020543D01*
X0176590Y0020478D01*
X0176539Y0020414D01*
X0176484Y0020354D01*
X0176427Y0020296D01*
X0176367Y0020240D01*
X0176305Y0020188D01*
X0176239Y0020139D01*
X0176172Y0020094D01*
X0176103Y0020051D01*
X0176031Y0020012D01*
X0175958Y0019977D01*
X0175883Y0019945D01*
X0175806Y0019917D01*
X0175728Y0019892D01*
X0175650Y0019872D01*
X0175570Y0019855D01*
X0175489Y0019842D01*
X0175408Y0019833D01*
X0175327Y0019828D01*
X0175246Y0019827D01*
X0175164Y0019830D01*
X0175083Y0019837D01*
X0175002Y0019848D01*
X0174922Y0019863D01*
X0174843Y0019881D01*
X0174765Y0019904D01*
X0174687Y0019930D01*
X0174612Y0019960D01*
X0174537Y0019994D01*
X0174465Y0020031D01*
X0174394Y0020072D01*
X0174326Y0020116D01*
X0174260Y0020163D01*
X0174196Y0020214D01*
X0174134Y0020268D01*
X0174076Y0020324D01*
X0174020Y0020384D01*
X0173967Y0020446D01*
X0173917Y0020510D01*
X0173871Y0020577D01*
X0173827Y0020646D01*
X0173788Y0020717D01*
X0173751Y0020790D01*
X0173718Y0020864D01*
X0173689Y0020941D01*
X0173664Y0021018D01*
X0173642Y0021097D01*
X0173625Y0021176D01*
X0173611Y0021256D01*
X0173601Y0021337D01*
X0173595Y0021419D01*
X0173593Y0021500D01*
X0187372Y0021500D02*
X0187374Y0021581D01*
X0187380Y0021663D01*
X0187390Y0021744D01*
X0187404Y0021824D01*
X0187421Y0021903D01*
X0187443Y0021982D01*
X0187468Y0022059D01*
X0187497Y0022136D01*
X0187530Y0022210D01*
X0187567Y0022283D01*
X0187606Y0022354D01*
X0187650Y0022423D01*
X0187696Y0022490D01*
X0187746Y0022554D01*
X0187799Y0022616D01*
X0187855Y0022676D01*
X0187913Y0022732D01*
X0187975Y0022786D01*
X0188039Y0022837D01*
X0188105Y0022884D01*
X0188173Y0022928D01*
X0188244Y0022969D01*
X0188316Y0023006D01*
X0188391Y0023040D01*
X0188466Y0023070D01*
X0188544Y0023096D01*
X0188622Y0023119D01*
X0188701Y0023137D01*
X0188781Y0023152D01*
X0188862Y0023163D01*
X0188943Y0023170D01*
X0189025Y0023173D01*
X0189106Y0023172D01*
X0189187Y0023167D01*
X0189268Y0023158D01*
X0189349Y0023145D01*
X0189429Y0023128D01*
X0189507Y0023108D01*
X0189585Y0023083D01*
X0189662Y0023055D01*
X0189737Y0023023D01*
X0189810Y0022988D01*
X0189881Y0022949D01*
X0189951Y0022906D01*
X0190018Y0022861D01*
X0190084Y0022812D01*
X0190146Y0022760D01*
X0190206Y0022704D01*
X0190263Y0022646D01*
X0190318Y0022586D01*
X0190369Y0022522D01*
X0190417Y0022457D01*
X0190462Y0022389D01*
X0190504Y0022319D01*
X0190542Y0022247D01*
X0190577Y0022173D01*
X0190608Y0022098D01*
X0190635Y0022021D01*
X0190658Y0021943D01*
X0190678Y0021864D01*
X0190694Y0021784D01*
X0190706Y0021703D01*
X0190714Y0021622D01*
X0190718Y0021541D01*
X0190718Y0021459D01*
X0190714Y0021378D01*
X0190706Y0021297D01*
X0190694Y0021216D01*
X0190678Y0021136D01*
X0190658Y0021057D01*
X0190635Y0020979D01*
X0190608Y0020902D01*
X0190577Y0020827D01*
X0190542Y0020753D01*
X0190504Y0020681D01*
X0190462Y0020611D01*
X0190417Y0020543D01*
X0190369Y0020478D01*
X0190318Y0020414D01*
X0190263Y0020354D01*
X0190206Y0020296D01*
X0190146Y0020240D01*
X0190084Y0020188D01*
X0190018Y0020139D01*
X0189951Y0020094D01*
X0189882Y0020051D01*
X0189810Y0020012D01*
X0189737Y0019977D01*
X0189662Y0019945D01*
X0189585Y0019917D01*
X0189507Y0019892D01*
X0189429Y0019872D01*
X0189349Y0019855D01*
X0189268Y0019842D01*
X0189187Y0019833D01*
X0189106Y0019828D01*
X0189025Y0019827D01*
X0188943Y0019830D01*
X0188862Y0019837D01*
X0188781Y0019848D01*
X0188701Y0019863D01*
X0188622Y0019881D01*
X0188544Y0019904D01*
X0188466Y0019930D01*
X0188391Y0019960D01*
X0188316Y0019994D01*
X0188244Y0020031D01*
X0188173Y0020072D01*
X0188105Y0020116D01*
X0188039Y0020163D01*
X0187975Y0020214D01*
X0187913Y0020268D01*
X0187855Y0020324D01*
X0187799Y0020384D01*
X0187746Y0020446D01*
X0187696Y0020510D01*
X0187650Y0020577D01*
X0187606Y0020646D01*
X0187567Y0020717D01*
X0187530Y0020790D01*
X0187497Y0020864D01*
X0187468Y0020941D01*
X0187443Y0021018D01*
X0187421Y0021097D01*
X0187404Y0021176D01*
X0187390Y0021256D01*
X0187380Y0021337D01*
X0187374Y0021419D01*
X0187372Y0021500D01*
X0201152Y0021500D02*
X0201154Y0021581D01*
X0201160Y0021663D01*
X0201170Y0021744D01*
X0201184Y0021824D01*
X0201201Y0021903D01*
X0201223Y0021982D01*
X0201248Y0022059D01*
X0201277Y0022136D01*
X0201310Y0022210D01*
X0201347Y0022283D01*
X0201386Y0022354D01*
X0201430Y0022423D01*
X0201476Y0022490D01*
X0201526Y0022554D01*
X0201579Y0022616D01*
X0201635Y0022676D01*
X0201693Y0022732D01*
X0201755Y0022786D01*
X0201819Y0022837D01*
X0201885Y0022884D01*
X0201953Y0022928D01*
X0202024Y0022969D01*
X0202096Y0023006D01*
X0202171Y0023040D01*
X0202246Y0023070D01*
X0202324Y0023096D01*
X0202402Y0023119D01*
X0202481Y0023137D01*
X0202561Y0023152D01*
X0202642Y0023163D01*
X0202723Y0023170D01*
X0202805Y0023173D01*
X0202886Y0023172D01*
X0202967Y0023167D01*
X0203048Y0023158D01*
X0203129Y0023145D01*
X0203209Y0023128D01*
X0203287Y0023108D01*
X0203365Y0023083D01*
X0203442Y0023055D01*
X0203517Y0023023D01*
X0203590Y0022988D01*
X0203661Y0022949D01*
X0203731Y0022906D01*
X0203798Y0022861D01*
X0203864Y0022812D01*
X0203926Y0022760D01*
X0203986Y0022704D01*
X0204043Y0022646D01*
X0204098Y0022586D01*
X0204149Y0022522D01*
X0204197Y0022457D01*
X0204242Y0022389D01*
X0204284Y0022319D01*
X0204322Y0022247D01*
X0204357Y0022173D01*
X0204388Y0022098D01*
X0204415Y0022021D01*
X0204438Y0021943D01*
X0204458Y0021864D01*
X0204474Y0021784D01*
X0204486Y0021703D01*
X0204494Y0021622D01*
X0204498Y0021541D01*
X0204498Y0021459D01*
X0204494Y0021378D01*
X0204486Y0021297D01*
X0204474Y0021216D01*
X0204458Y0021136D01*
X0204438Y0021057D01*
X0204415Y0020979D01*
X0204388Y0020902D01*
X0204357Y0020827D01*
X0204322Y0020753D01*
X0204284Y0020681D01*
X0204242Y0020611D01*
X0204197Y0020543D01*
X0204149Y0020478D01*
X0204098Y0020414D01*
X0204043Y0020354D01*
X0203986Y0020296D01*
X0203926Y0020240D01*
X0203864Y0020188D01*
X0203798Y0020139D01*
X0203731Y0020094D01*
X0203662Y0020051D01*
X0203590Y0020012D01*
X0203517Y0019977D01*
X0203442Y0019945D01*
X0203365Y0019917D01*
X0203287Y0019892D01*
X0203209Y0019872D01*
X0203129Y0019855D01*
X0203048Y0019842D01*
X0202967Y0019833D01*
X0202886Y0019828D01*
X0202805Y0019827D01*
X0202723Y0019830D01*
X0202642Y0019837D01*
X0202561Y0019848D01*
X0202481Y0019863D01*
X0202402Y0019881D01*
X0202324Y0019904D01*
X0202246Y0019930D01*
X0202171Y0019960D01*
X0202096Y0019994D01*
X0202024Y0020031D01*
X0201953Y0020072D01*
X0201885Y0020116D01*
X0201819Y0020163D01*
X0201755Y0020214D01*
X0201693Y0020268D01*
X0201635Y0020324D01*
X0201579Y0020384D01*
X0201526Y0020446D01*
X0201476Y0020510D01*
X0201430Y0020577D01*
X0201386Y0020646D01*
X0201347Y0020717D01*
X0201310Y0020790D01*
X0201277Y0020864D01*
X0201248Y0020941D01*
X0201223Y0021018D01*
X0201201Y0021097D01*
X0201184Y0021176D01*
X0201170Y0021256D01*
X0201160Y0021337D01*
X0201154Y0021419D01*
X0201152Y0021500D01*
D23*
X0128927Y0091821D02*
X0128927Y0095179D01*
X0124481Y0095631D01*
X0124189Y0096636D01*
X0123789Y0097603D01*
X0123284Y0098520D01*
X0126108Y0101983D01*
X0123733Y0104358D01*
X0120270Y0101534D01*
X0119353Y0102039D01*
X0118386Y0102439D01*
X0117381Y0102731D01*
X0116929Y0107177D01*
X0113571Y0107177D01*
X0113119Y0102731D01*
X0112114Y0102439D01*
X0111147Y0102039D01*
X0110230Y0101534D01*
X0106767Y0104358D01*
X0104392Y0101983D01*
X0107216Y0098520D01*
X0106828Y0097838D01*
X0106498Y0097126D01*
X0111272Y0095148D01*
X0111604Y0095791D01*
X0112039Y0096370D01*
X0112565Y0096867D01*
X0113167Y0097269D01*
X0113828Y0097565D01*
X0114529Y0097745D01*
X0115250Y0097806D01*
X0116054Y0097731D01*
X0116830Y0097506D01*
X0117550Y0097141D01*
X0118189Y0096647D01*
X0118725Y0096043D01*
X0119139Y0095350D01*
X0119416Y0094591D01*
X0119546Y0093794D01*
X0119526Y0092987D01*
X0119354Y0092197D01*
X0119039Y0091454D01*
X0118590Y0090783D01*
X0118024Y0090207D01*
X0117361Y0089747D01*
X0116623Y0089419D01*
X0115837Y0089234D01*
X0115030Y0089200D01*
X0114231Y0089316D01*
X0113467Y0089580D01*
X0112767Y0089982D01*
X0112154Y0090507D01*
X0111649Y0091138D01*
X0111272Y0091852D01*
X0106498Y0089874D01*
X0106828Y0089162D01*
X0107216Y0088480D01*
X0104392Y0085017D01*
X0106767Y0082642D01*
X0110230Y0085466D01*
X0111147Y0084961D01*
X0112114Y0084561D01*
X0113119Y0084269D01*
X0113571Y0079823D01*
X0116929Y0079823D01*
X0117381Y0084269D01*
X0118386Y0084561D01*
X0119353Y0084961D01*
X0120270Y0085466D01*
X0123733Y0082642D01*
X0126108Y0085017D01*
X0123284Y0088480D01*
X0123789Y0089397D01*
X0124189Y0090364D01*
X0124481Y0091369D01*
X0128927Y0091821D01*
X0128927Y0091914D02*
X0119234Y0091914D01*
X0119421Y0092503D02*
X0128927Y0092503D01*
X0128927Y0093092D02*
X0119528Y0093092D01*
X0119543Y0093681D02*
X0128927Y0093681D01*
X0128927Y0094270D02*
X0119468Y0094270D01*
X0119318Y0094859D02*
X0128927Y0094859D01*
X0126278Y0095448D02*
X0119080Y0095448D01*
X0118728Y0096037D02*
X0124363Y0096037D01*
X0124192Y0096627D02*
X0118208Y0096627D01*
X0117402Y0097216D02*
X0123949Y0097216D01*
X0123678Y0097805D02*
X0115267Y0097805D01*
X0115231Y0097805D02*
X0106812Y0097805D01*
X0106539Y0097216D02*
X0113087Y0097216D01*
X0112311Y0096627D02*
X0107702Y0096627D01*
X0109124Y0096037D02*
X0111789Y0096037D01*
X0111427Y0095448D02*
X0110546Y0095448D01*
X0107144Y0098394D02*
X0123354Y0098394D01*
X0123662Y0098983D02*
X0106838Y0098983D01*
X0106358Y0099572D02*
X0124142Y0099572D01*
X0124622Y0100161D02*
X0105878Y0100161D01*
X0105397Y0100750D02*
X0125103Y0100750D01*
X0125583Y0101339D02*
X0104917Y0101339D01*
X0104437Y0101928D02*
X0109747Y0101928D01*
X0109024Y0102517D02*
X0104925Y0102517D01*
X0105515Y0103106D02*
X0108302Y0103106D01*
X0107580Y0103695D02*
X0106104Y0103695D01*
X0106693Y0104284D02*
X0106857Y0104284D01*
X0110946Y0101928D02*
X0119555Y0101928D01*
X0120753Y0101928D02*
X0126063Y0101928D01*
X0125575Y0102517D02*
X0121476Y0102517D01*
X0122198Y0103106D02*
X0124985Y0103106D01*
X0124396Y0103695D02*
X0122920Y0103695D01*
X0123643Y0104284D02*
X0123807Y0104284D01*
X0118118Y0102517D02*
X0112382Y0102517D01*
X0113157Y0103106D02*
X0117343Y0103106D01*
X0117283Y0103695D02*
X0113217Y0103695D01*
X0113277Y0104284D02*
X0117223Y0104284D01*
X0117163Y0104873D02*
X0113337Y0104873D01*
X0113397Y0105462D02*
X0117103Y0105462D01*
X0117044Y0106052D02*
X0113456Y0106052D01*
X0113516Y0106641D02*
X0116984Y0106641D01*
X0118953Y0091325D02*
X0124468Y0091325D01*
X0124297Y0090736D02*
X0118545Y0090736D01*
X0117938Y0090147D02*
X0124100Y0090147D01*
X0123856Y0089558D02*
X0116936Y0089558D01*
X0113532Y0089558D02*
X0106644Y0089558D01*
X0106938Y0088969D02*
X0123553Y0088969D01*
X0123366Y0088380D02*
X0107134Y0088380D01*
X0106654Y0087791D02*
X0123846Y0087791D01*
X0124327Y0087202D02*
X0106173Y0087202D01*
X0105693Y0086612D02*
X0124807Y0086612D01*
X0125287Y0086023D02*
X0105213Y0086023D01*
X0104732Y0085434D02*
X0110191Y0085434D01*
X0110287Y0085434D02*
X0120213Y0085434D01*
X0120309Y0085434D02*
X0125768Y0085434D01*
X0125937Y0084845D02*
X0121031Y0084845D01*
X0121753Y0084256D02*
X0125348Y0084256D01*
X0124759Y0083667D02*
X0122476Y0083667D01*
X0123198Y0083078D02*
X0124170Y0083078D01*
X0119074Y0084845D02*
X0111426Y0084845D01*
X0113120Y0084256D02*
X0117380Y0084256D01*
X0117320Y0083667D02*
X0113180Y0083667D01*
X0113240Y0083078D02*
X0117260Y0083078D01*
X0117200Y0082489D02*
X0113300Y0082489D01*
X0113360Y0081900D02*
X0117140Y0081900D01*
X0117080Y0081311D02*
X0113420Y0081311D01*
X0113480Y0080722D02*
X0117020Y0080722D01*
X0116961Y0080133D02*
X0113539Y0080133D01*
X0109469Y0084845D02*
X0104563Y0084845D01*
X0105152Y0084256D02*
X0108747Y0084256D01*
X0108024Y0083667D02*
X0105741Y0083667D01*
X0106330Y0083078D02*
X0107302Y0083078D01*
X0107155Y0090147D02*
X0112574Y0090147D01*
X0111971Y0090736D02*
X0108577Y0090736D01*
X0110000Y0091325D02*
X0111550Y0091325D01*
D24*
X0122427Y0227505D03*
X0128127Y0227505D03*
D25*
X0091250Y0164500D03*
X0091250Y0154500D03*
D26*
X0088750Y0187525D03*
X0093750Y0187525D03*
X0098750Y0187525D03*
X0103750Y0187525D03*
D27*
X0103750Y0209500D03*
X0098750Y0209500D03*
X0093750Y0209500D03*
X0088750Y0209500D03*
D28*
X0084653Y0190344D02*
X0084375Y0190375D01*
X0084097Y0190344D01*
X0083833Y0190251D01*
X0083596Y0190102D01*
X0083398Y0189904D01*
X0083249Y0189667D01*
X0083156Y0189403D01*
X0083125Y0189125D01*
X0083156Y0188847D01*
X0083249Y0188583D01*
X0083398Y0188346D01*
X0085352Y0188346D01*
X0085501Y0188583D01*
X0085594Y0188847D01*
X0085625Y0189125D01*
X0085594Y0189403D01*
X0085501Y0189667D01*
X0085352Y0189904D01*
X0085154Y0190102D01*
X0084917Y0190251D01*
X0084653Y0190344D01*
X0084669Y0190338D02*
X0084081Y0190338D01*
X0084056Y0190330D02*
X0084694Y0190330D01*
X0084718Y0190321D02*
X0084032Y0190321D01*
X0084008Y0190312D02*
X0084742Y0190312D01*
X0084767Y0190304D02*
X0083983Y0190304D01*
X0083959Y0190295D02*
X0084791Y0190295D01*
X0084815Y0190287D02*
X0083935Y0190287D01*
X0083910Y0190278D02*
X0084840Y0190278D01*
X0084864Y0190270D02*
X0083886Y0190270D01*
X0083862Y0190261D02*
X0084888Y0190261D01*
X0084913Y0190253D02*
X0083838Y0190253D01*
X0083822Y0190244D02*
X0084928Y0190244D01*
X0084942Y0190236D02*
X0083808Y0190236D01*
X0083795Y0190227D02*
X0084955Y0190227D01*
X0084969Y0190219D02*
X0083781Y0190219D01*
X0083768Y0190210D02*
X0084982Y0190210D01*
X0084996Y0190202D02*
X0083754Y0190202D01*
X0083741Y0190193D02*
X0085010Y0190193D01*
X0085023Y0190185D02*
X0083727Y0190185D01*
X0083713Y0190176D02*
X0085037Y0190176D01*
X0085050Y0190168D02*
X0083700Y0190168D01*
X0083686Y0190159D02*
X0085064Y0190159D01*
X0085077Y0190151D02*
X0083673Y0190151D01*
X0083659Y0190142D02*
X0085091Y0190142D01*
X0085104Y0190134D02*
X0083646Y0190134D01*
X0083632Y0190125D02*
X0085118Y0190125D01*
X0085131Y0190117D02*
X0083619Y0190117D01*
X0083605Y0190108D02*
X0085145Y0190108D01*
X0085157Y0190100D02*
X0083593Y0190100D01*
X0083584Y0190091D02*
X0085166Y0190091D01*
X0085174Y0190083D02*
X0083576Y0190083D01*
X0083567Y0190074D02*
X0085183Y0190074D01*
X0085191Y0190066D02*
X0083559Y0190066D01*
X0083550Y0190057D02*
X0085200Y0190057D01*
X0085208Y0190049D02*
X0083542Y0190049D01*
X0083533Y0190040D02*
X0085217Y0190040D01*
X0085225Y0190032D02*
X0083525Y0190032D01*
X0083516Y0190023D02*
X0085234Y0190023D01*
X0085242Y0190015D02*
X0083508Y0190015D01*
X0083499Y0190006D02*
X0085251Y0190006D01*
X0085259Y0189997D02*
X0083491Y0189997D01*
X0083482Y0189989D02*
X0085268Y0189989D01*
X0085276Y0189980D02*
X0083474Y0189980D01*
X0083465Y0189972D02*
X0085285Y0189972D01*
X0085293Y0189963D02*
X0083457Y0189963D01*
X0083448Y0189955D02*
X0085302Y0189955D01*
X0085310Y0189946D02*
X0083440Y0189946D01*
X0083431Y0189938D02*
X0085319Y0189938D01*
X0085327Y0189929D02*
X0083423Y0189929D01*
X0083414Y0189921D02*
X0085336Y0189921D01*
X0085344Y0189912D02*
X0083406Y0189912D01*
X0083397Y0189904D02*
X0085353Y0189904D01*
X0085358Y0189895D02*
X0083392Y0189895D01*
X0083387Y0189887D02*
X0085363Y0189887D01*
X0085369Y0189878D02*
X0083381Y0189878D01*
X0083376Y0189870D02*
X0085374Y0189870D01*
X0085379Y0189861D02*
X0083371Y0189861D01*
X0083365Y0189853D02*
X0085385Y0189853D01*
X0085390Y0189844D02*
X0083360Y0189844D01*
X0083355Y0189836D02*
X0085395Y0189836D01*
X0085401Y0189827D02*
X0083349Y0189827D01*
X0083344Y0189819D02*
X0085406Y0189819D01*
X0085411Y0189810D02*
X0083339Y0189810D01*
X0083333Y0189802D02*
X0085417Y0189802D01*
X0085422Y0189793D02*
X0083328Y0189793D01*
X0083322Y0189785D02*
X0085428Y0189785D01*
X0085433Y0189776D02*
X0083317Y0189776D01*
X0083312Y0189768D02*
X0085438Y0189768D01*
X0085444Y0189759D02*
X0083306Y0189759D01*
X0083301Y0189751D02*
X0085449Y0189751D01*
X0085454Y0189742D02*
X0083296Y0189742D01*
X0083290Y0189734D02*
X0085460Y0189734D01*
X0085465Y0189725D02*
X0083285Y0189725D01*
X0083280Y0189717D02*
X0085470Y0189717D01*
X0085476Y0189708D02*
X0083274Y0189708D01*
X0083269Y0189700D02*
X0085481Y0189700D01*
X0085486Y0189691D02*
X0083264Y0189691D01*
X0083258Y0189682D02*
X0085492Y0189682D01*
X0085497Y0189674D02*
X0083253Y0189674D01*
X0083248Y0189665D02*
X0085502Y0189665D01*
X0085505Y0189657D02*
X0083245Y0189657D01*
X0083242Y0189648D02*
X0085508Y0189648D01*
X0085511Y0189640D02*
X0083239Y0189640D01*
X0083236Y0189631D02*
X0085514Y0189631D01*
X0085517Y0189623D02*
X0083233Y0189623D01*
X0083230Y0189614D02*
X0085520Y0189614D01*
X0085523Y0189606D02*
X0083227Y0189606D01*
X0083224Y0189597D02*
X0085526Y0189597D01*
X0085529Y0189589D02*
X0083221Y0189589D01*
X0083218Y0189580D02*
X0085532Y0189580D01*
X0085535Y0189572D02*
X0083215Y0189572D01*
X0083212Y0189563D02*
X0085538Y0189563D01*
X0085541Y0189555D02*
X0083209Y0189555D01*
X0083206Y0189546D02*
X0085544Y0189546D01*
X0085547Y0189538D02*
X0083203Y0189538D01*
X0083200Y0189529D02*
X0085550Y0189529D01*
X0085553Y0189521D02*
X0083197Y0189521D01*
X0083195Y0189512D02*
X0085556Y0189512D01*
X0085558Y0189504D02*
X0083192Y0189504D01*
X0083189Y0189495D02*
X0085561Y0189495D01*
X0085564Y0189487D02*
X0083186Y0189487D01*
X0083183Y0189478D02*
X0085567Y0189478D01*
X0085570Y0189470D02*
X0083180Y0189470D01*
X0083177Y0189461D02*
X0085573Y0189461D01*
X0085576Y0189453D02*
X0083174Y0189453D01*
X0083171Y0189444D02*
X0085579Y0189444D01*
X0085582Y0189436D02*
X0083168Y0189436D01*
X0083165Y0189427D02*
X0085585Y0189427D01*
X0085588Y0189419D02*
X0083162Y0189419D01*
X0083159Y0189410D02*
X0085591Y0189410D01*
X0085594Y0189402D02*
X0083156Y0189402D01*
X0083155Y0189393D02*
X0085595Y0189393D01*
X0085596Y0189384D02*
X0083154Y0189384D01*
X0083153Y0189376D02*
X0085597Y0189376D01*
X0085598Y0189367D02*
X0083152Y0189367D01*
X0083151Y0189359D02*
X0085599Y0189359D01*
X0085600Y0189350D02*
X0083150Y0189350D01*
X0083149Y0189342D02*
X0085601Y0189342D01*
X0085602Y0189333D02*
X0083148Y0189333D01*
X0083148Y0189325D02*
X0085602Y0189325D01*
X0085603Y0189316D02*
X0083147Y0189316D01*
X0083146Y0189308D02*
X0085604Y0189308D01*
X0085605Y0189299D02*
X0083145Y0189299D01*
X0083144Y0189291D02*
X0085606Y0189291D01*
X0085607Y0189282D02*
X0083143Y0189282D01*
X0083142Y0189274D02*
X0085608Y0189274D01*
X0085609Y0189265D02*
X0083141Y0189265D01*
X0083140Y0189257D02*
X0085610Y0189257D01*
X0085611Y0189248D02*
X0083139Y0189248D01*
X0083138Y0189240D02*
X0085612Y0189240D01*
X0085613Y0189231D02*
X0083137Y0189231D01*
X0083136Y0189223D02*
X0085614Y0189223D01*
X0085615Y0189214D02*
X0083135Y0189214D01*
X0083134Y0189206D02*
X0085616Y0189206D01*
X0085617Y0189197D02*
X0083133Y0189197D01*
X0083132Y0189189D02*
X0085618Y0189189D01*
X0085619Y0189180D02*
X0083131Y0189180D01*
X0083130Y0189172D02*
X0085620Y0189172D01*
X0085621Y0189163D02*
X0083129Y0189163D01*
X0083128Y0189155D02*
X0085622Y0189155D01*
X0085623Y0189146D02*
X0083127Y0189146D01*
X0083126Y0189138D02*
X0085624Y0189138D01*
X0085625Y0189129D02*
X0083125Y0189129D01*
X0083125Y0189121D02*
X0085624Y0189121D01*
X0085624Y0189112D02*
X0083126Y0189112D01*
X0083127Y0189104D02*
X0085623Y0189104D01*
X0085622Y0189095D02*
X0083128Y0189095D01*
X0083129Y0189087D02*
X0085621Y0189087D01*
X0085620Y0189078D02*
X0083130Y0189078D01*
X0083131Y0189069D02*
X0085619Y0189069D01*
X0085618Y0189061D02*
X0083132Y0189061D01*
X0083133Y0189052D02*
X0085617Y0189052D01*
X0085616Y0189044D02*
X0083134Y0189044D01*
X0083135Y0189035D02*
X0085615Y0189035D01*
X0085614Y0189027D02*
X0083136Y0189027D01*
X0083137Y0189018D02*
X0085613Y0189018D01*
X0085612Y0189010D02*
X0083138Y0189010D01*
X0083139Y0189001D02*
X0085611Y0189001D01*
X0085610Y0188993D02*
X0083140Y0188993D01*
X0083141Y0188984D02*
X0085609Y0188984D01*
X0085608Y0188976D02*
X0083142Y0188976D01*
X0083143Y0188967D02*
X0085607Y0188967D01*
X0085606Y0188959D02*
X0083144Y0188959D01*
X0083145Y0188950D02*
X0085605Y0188950D01*
X0085604Y0188942D02*
X0083146Y0188942D01*
X0083147Y0188933D02*
X0085603Y0188933D01*
X0085602Y0188925D02*
X0083148Y0188925D01*
X0083149Y0188916D02*
X0085601Y0188916D01*
X0085601Y0188908D02*
X0083149Y0188908D01*
X0083150Y0188899D02*
X0085600Y0188899D01*
X0085599Y0188891D02*
X0083151Y0188891D01*
X0083152Y0188882D02*
X0085598Y0188882D01*
X0085597Y0188874D02*
X0083153Y0188874D01*
X0083154Y0188865D02*
X0085596Y0188865D01*
X0085595Y0188857D02*
X0083155Y0188857D01*
X0083156Y0188848D02*
X0085594Y0188848D01*
X0085591Y0188840D02*
X0083159Y0188840D01*
X0083162Y0188831D02*
X0085588Y0188831D01*
X0085585Y0188823D02*
X0083165Y0188823D01*
X0083168Y0188814D02*
X0085582Y0188814D01*
X0085579Y0188806D02*
X0083171Y0188806D01*
X0083174Y0188797D02*
X0085576Y0188797D01*
X0085573Y0188789D02*
X0083177Y0188789D01*
X0083180Y0188780D02*
X0085570Y0188780D01*
X0085567Y0188772D02*
X0083183Y0188772D01*
X0083186Y0188763D02*
X0085564Y0188763D01*
X0085561Y0188754D02*
X0083189Y0188754D01*
X0083192Y0188746D02*
X0085558Y0188746D01*
X0085555Y0188737D02*
X0083195Y0188737D01*
X0083198Y0188729D02*
X0085552Y0188729D01*
X0085549Y0188720D02*
X0083201Y0188720D01*
X0083204Y0188712D02*
X0085546Y0188712D01*
X0085543Y0188703D02*
X0083207Y0188703D01*
X0083210Y0188695D02*
X0085540Y0188695D01*
X0085538Y0188686D02*
X0083212Y0188686D01*
X0083215Y0188678D02*
X0085535Y0188678D01*
X0085532Y0188669D02*
X0083218Y0188669D01*
X0083221Y0188661D02*
X0085529Y0188661D01*
X0085526Y0188652D02*
X0083224Y0188652D01*
X0083227Y0188644D02*
X0085523Y0188644D01*
X0085520Y0188635D02*
X0083230Y0188635D01*
X0083233Y0188627D02*
X0085517Y0188627D01*
X0085514Y0188618D02*
X0083236Y0188618D01*
X0083239Y0188610D02*
X0085511Y0188610D01*
X0085508Y0188601D02*
X0083242Y0188601D01*
X0083245Y0188593D02*
X0085505Y0188593D01*
X0085502Y0188584D02*
X0083248Y0188584D01*
X0083253Y0188576D02*
X0085497Y0188576D01*
X0085491Y0188567D02*
X0083259Y0188567D01*
X0083264Y0188559D02*
X0085486Y0188559D01*
X0085481Y0188550D02*
X0083269Y0188550D01*
X0083275Y0188542D02*
X0085475Y0188542D01*
X0085470Y0188533D02*
X0083280Y0188533D01*
X0083285Y0188525D02*
X0085465Y0188525D01*
X0085459Y0188516D02*
X0083291Y0188516D01*
X0083296Y0188508D02*
X0085454Y0188508D01*
X0085449Y0188499D02*
X0083301Y0188499D01*
X0083307Y0188491D02*
X0085443Y0188491D01*
X0085438Y0188482D02*
X0083312Y0188482D01*
X0083317Y0188474D02*
X0085433Y0188474D01*
X0085427Y0188465D02*
X0083323Y0188465D01*
X0083328Y0188456D02*
X0085422Y0188456D01*
X0085417Y0188448D02*
X0083333Y0188448D01*
X0083339Y0188439D02*
X0085411Y0188439D01*
X0085406Y0188431D02*
X0083344Y0188431D01*
X0083349Y0188422D02*
X0085401Y0188422D01*
X0085395Y0188414D02*
X0083355Y0188414D01*
X0083360Y0188405D02*
X0085390Y0188405D01*
X0085384Y0188397D02*
X0083365Y0188397D01*
X0083371Y0188388D02*
X0085379Y0188388D01*
X0085374Y0188380D02*
X0083376Y0188380D01*
X0083382Y0188371D02*
X0085368Y0188371D01*
X0085363Y0188363D02*
X0083387Y0188363D01*
X0083392Y0188354D02*
X0085358Y0188354D01*
X0085352Y0188346D02*
X0085154Y0188148D01*
X0084917Y0187999D01*
X0084653Y0187906D01*
X0084375Y0187875D01*
X0084097Y0187906D01*
X0083833Y0187999D01*
X0083596Y0188148D01*
X0083398Y0188346D01*
X0083406Y0188337D02*
X0085344Y0188337D01*
X0085335Y0188329D02*
X0083415Y0188329D01*
X0083423Y0188320D02*
X0085327Y0188320D01*
X0085318Y0188312D02*
X0083432Y0188312D01*
X0083440Y0188303D02*
X0085310Y0188303D01*
X0085301Y0188295D02*
X0083449Y0188295D01*
X0083457Y0188286D02*
X0085293Y0188286D01*
X0085284Y0188278D02*
X0083466Y0188278D01*
X0083474Y0188269D02*
X0085276Y0188269D01*
X0085267Y0188261D02*
X0083483Y0188261D01*
X0083491Y0188252D02*
X0085259Y0188252D01*
X0085250Y0188244D02*
X0083500Y0188244D01*
X0083508Y0188235D02*
X0085242Y0188235D01*
X0085233Y0188227D02*
X0083517Y0188227D01*
X0083525Y0188218D02*
X0085225Y0188218D01*
X0085216Y0188210D02*
X0083534Y0188210D01*
X0083542Y0188201D02*
X0085208Y0188201D01*
X0085199Y0188193D02*
X0083551Y0188193D01*
X0083559Y0188184D02*
X0085191Y0188184D01*
X0085182Y0188176D02*
X0083568Y0188176D01*
X0083576Y0188167D02*
X0085174Y0188167D01*
X0085165Y0188159D02*
X0083585Y0188159D01*
X0083593Y0188150D02*
X0085157Y0188150D01*
X0085144Y0188141D02*
X0083606Y0188141D01*
X0083619Y0188133D02*
X0085131Y0188133D01*
X0085117Y0188124D02*
X0083633Y0188124D01*
X0083646Y0188116D02*
X0085104Y0188116D01*
X0085090Y0188107D02*
X0083660Y0188107D01*
X0083673Y0188099D02*
X0085077Y0188099D01*
X0085063Y0188090D02*
X0083687Y0188090D01*
X0083700Y0188082D02*
X0085050Y0188082D01*
X0085036Y0188073D02*
X0083714Y0188073D01*
X0083727Y0188065D02*
X0085023Y0188065D01*
X0085009Y0188056D02*
X0083741Y0188056D01*
X0083755Y0188048D02*
X0084995Y0188048D01*
X0084982Y0188039D02*
X0083768Y0188039D01*
X0083782Y0188031D02*
X0084968Y0188031D01*
X0084955Y0188022D02*
X0083795Y0188022D01*
X0083809Y0188014D02*
X0084941Y0188014D01*
X0084928Y0188005D02*
X0083822Y0188005D01*
X0083838Y0187997D02*
X0084912Y0187997D01*
X0084887Y0187988D02*
X0083863Y0187988D01*
X0083887Y0187980D02*
X0084863Y0187980D01*
X0084839Y0187971D02*
X0083911Y0187971D01*
X0083936Y0187963D02*
X0084814Y0187963D01*
X0084790Y0187954D02*
X0083960Y0187954D01*
X0083984Y0187946D02*
X0084766Y0187946D01*
X0084741Y0187937D02*
X0084009Y0187937D01*
X0084033Y0187929D02*
X0084717Y0187929D01*
X0084693Y0187920D02*
X0084057Y0187920D01*
X0084082Y0187912D02*
X0084668Y0187912D01*
X0084624Y0187903D02*
X0084126Y0187903D01*
X0084201Y0187895D02*
X0084549Y0187895D01*
X0084473Y0187886D02*
X0084277Y0187886D01*
X0084352Y0187878D02*
X0084398Y0187878D01*
X0084627Y0190347D02*
X0084123Y0190347D01*
X0084198Y0190355D02*
X0084552Y0190355D01*
X0084476Y0190364D02*
X0084274Y0190364D01*
X0084349Y0190372D02*
X0084401Y0190372D01*
M02*
