G75*
%MOIN*%
%OFA0B0*%
%FSLAX25Y25*%
%IPPOS*%
%LPD*%
%AMOC8*
5,1,8,0,0,1.08239X$1,22.5*
%
%ADD10C,0.08200*%
%ADD11C,0.05131*%
%ADD12C,0.07099*%
%ADD13OC8,0.06400*%
%ADD14R,0.08800X0.08800*%
%ADD15C,0.08800*%
D10*
X0080000Y0060500D03*
X0090000Y0060500D03*
X0100000Y0060500D03*
X0110000Y0060500D03*
X0120000Y0060500D03*
X0130000Y0060500D03*
X0140000Y0060500D03*
X0150000Y0060500D03*
X0170000Y0060500D03*
X0180000Y0060500D03*
X0190000Y0060500D03*
X0200000Y0060500D03*
X0210000Y0060500D03*
X0220000Y0060500D03*
X0218350Y0049300D03*
X0236150Y0049300D03*
X0236150Y0023700D03*
X0218350Y0023700D03*
X0220000Y0250500D03*
X0210000Y0250500D03*
X0200000Y0250500D03*
X0190000Y0250500D03*
X0180000Y0250500D03*
X0170000Y0250500D03*
X0160000Y0250500D03*
X0150000Y0250500D03*
X0135000Y0250500D03*
X0125000Y0250500D03*
X0115000Y0250500D03*
X0105000Y0250500D03*
X0095000Y0250500D03*
X0085000Y0250500D03*
X0075000Y0250500D03*
X0065000Y0250500D03*
X0055000Y0250500D03*
X0045000Y0250500D03*
X0218350Y0272700D03*
X0236150Y0272700D03*
X0236150Y0298300D03*
X0218350Y0298300D03*
D11*
X0149518Y0095331D03*
D12*
X0149518Y0178402D03*
D13*
X0092250Y0140500D03*
X0092250Y0130500D03*
X0092250Y0120500D03*
X0092250Y0110500D03*
X0052250Y0110500D03*
X0052250Y0120500D03*
X0052250Y0130500D03*
X0052250Y0140500D03*
D14*
X0051250Y0021500D03*
X0046250Y0077500D03*
X0161486Y0021500D03*
X0161486Y0300500D03*
X0051250Y0300500D03*
D15*
X0065030Y0300500D03*
X0078809Y0300500D03*
X0092589Y0300500D03*
X0106368Y0300500D03*
X0120148Y0300500D03*
X0133927Y0300500D03*
X0147707Y0300500D03*
X0175266Y0300500D03*
X0189045Y0300500D03*
X0202825Y0300500D03*
X0046250Y0063720D03*
X0065030Y0021500D03*
X0078809Y0021500D03*
X0092589Y0021500D03*
X0106368Y0021500D03*
X0120148Y0021500D03*
X0133927Y0021500D03*
X0147707Y0021500D03*
X0175266Y0021500D03*
X0189045Y0021500D03*
X0202825Y0021500D03*
M02*
