%
M48
M72
T01C0.01200
T02C0.01300
T03C0.01378
T04C0.02000
T05C0.03200
T06C0.04000
T07C0.04331
T08C0.04724
T09C0.06299
%
T01
X72250Y110500
X107250Y125500
X123050Y195700
X110250Y212500
X139250Y196500
X164250Y196500
X168050Y236900
X145650Y239300
T02
X116650Y206700
X93550Y204600
X80250Y220700
X127850Y136700
X100550Y66700
X177550Y242400
T03
X113250Y308000
X99750Y106500
T04
X158250Y66500
T05
X92250Y110500
X92250Y120500
X92250Y130500
X92250Y140500
X52250Y140500
X52250Y130500
X52250Y120500
X52250Y110500
T06
X80000Y60500
X90000Y60500
X100000Y60500
X110000Y60500
X120000Y60500
X130000Y60500
X140000Y60500
X150000Y60500
X170000Y60500
X180000Y60500
X190000Y60500
X200000Y60500
X210000Y60500
X220000Y60500
X91250Y153800
X91250Y165200
X95000Y250500
X85000Y250500
X75000Y250500
X65000Y250500
X55000Y250500
X45000Y250500
X105000Y250500
X115000Y250500
X125000Y250500
X135000Y250500
X150000Y250500
X160000Y250500
X170000Y250500
X180000Y250500
X190000Y250500
X200000Y250500
X210000Y250500
X220000Y250500
T07
X149518Y95331
T08
X46250Y55941
X46250Y69720
X46250Y83500
X51250Y21500
X65030Y21500
X78809Y21500
X92589Y21500
X106368Y21500
X120148Y21500
X133927Y21500
X147707Y21500
X161486Y21500
X175266Y21500
X189045Y21500
X202825Y21500
X202825Y300500
X189045Y300500
X175266Y300500
X161486Y300500
X147707Y300500
X133927Y300500
X120148Y300500
X106368Y300500
X92589Y300500
X78809Y300500
X65030Y300500
X51250Y300500
T09
X149518Y178402
M30
