%
M48
M72
T01C0.01200
T02C0.03200
T03C0.04000
T04C0.04331
T05C0.04724
T06C0.06299
%
T01
X72250Y110500
X124050Y193700
X115250Y206500
X110250Y212500
X102250Y223500
X97250Y215500
X131250Y221500
X145650Y239300
X149250Y221500
X168050Y236900
X181450Y238700
X165250Y186500
X139250Y196500
T02
X92250Y140500
X92250Y130500
X92250Y120500
X92250Y110500
X52250Y110500
X52250Y120500
X52250Y130500
X52250Y140500
T03
X80000Y60500
X90000Y60500
X100000Y60500
X110000Y60500
X120000Y60500
X130000Y60500
X140000Y60500
X150000Y60500
X170000Y60500
X180000Y60500
X190000Y60500
X200000Y60500
X210000Y60500
X220000Y60500
X218350Y49300
X236150Y49300
X236150Y23700
X218350Y23700
X220000Y250500
X210000Y250500
X200000Y250500
X190000Y250500
X180000Y250500
X170000Y250500
X160000Y250500
X150000Y250500
X135000Y250500
X125000Y250500
X115000Y250500
X105000Y250500
X95000Y250500
X85000Y250500
X75000Y250500
X65000Y250500
X55000Y250500
X45000Y250500
X218350Y272700
X236150Y272700
X236150Y298300
X218350Y298300
T04
X149518Y95331
T05
X51250Y21500
X65030Y21500
X78809Y21500
X92589Y21500
X106368Y21500
X120148Y21500
X133927Y21500
X147707Y21500
X161486Y21500
X175266Y21500
X189045Y21500
X202825Y21500
X46250Y63720
X46250Y77500
X51250Y300500
X65030Y300500
X78809Y300500
X92589Y300500
X106368Y300500
X120148Y300500
X133927Y300500
X147707Y300500
X161486Y300500
X175266Y300500
X189045Y300500
X202825Y300500
T06
X149518Y178402
M30
