G75*
%MOIN*%
%OFA0B0*%
%FSLAX25Y25*%
%IPPOS*%
%LPD*%
%AMOC8*
5,1,8,0,0,1.08239X$1,22.5*
%
%ADD10C,0.00400*%
%ADD11C,0.00300*%
%ADD12C,0.00600*%
%ADD13C,0.00200*%
%ADD14C,0.00500*%
%ADD15R,0.03400X0.02400*%
%ADD16C,0.00800*%
%ADD17C,0.00591*%
D10*
X0048946Y0039235D02*
X0050481Y0040769D01*
X0053550Y0040769D01*
X0052783Y0042304D02*
X0049713Y0042304D01*
X0048946Y0043071D01*
X0048946Y0044606D01*
X0049713Y0045373D01*
X0052783Y0042304D01*
X0053550Y0043071D01*
X0053550Y0044606D01*
X0052783Y0045373D01*
X0049713Y0045373D01*
X0051248Y0040769D02*
X0051248Y0037700D01*
X0050481Y0037700D02*
X0048946Y0039235D01*
X0050481Y0037700D02*
X0053550Y0037700D01*
X0062726Y0038467D02*
X0063493Y0037700D01*
X0062726Y0038467D02*
X0062726Y0040002D01*
X0063493Y0040769D01*
X0064260Y0040769D01*
X0065028Y0040002D01*
X0065795Y0040769D01*
X0066562Y0040769D01*
X0067330Y0040002D01*
X0067330Y0038467D01*
X0066562Y0037700D01*
X0065028Y0039235D02*
X0065028Y0040002D01*
X0065795Y0042304D02*
X0062726Y0042304D01*
X0065795Y0042304D02*
X0067330Y0043839D01*
X0065795Y0045373D01*
X0062726Y0045373D01*
X0063493Y0046908D02*
X0062726Y0047675D01*
X0062726Y0049210D01*
X0063493Y0049977D01*
X0064260Y0049977D01*
X0065028Y0049210D01*
X0065795Y0049977D01*
X0066562Y0049977D01*
X0067330Y0049210D01*
X0067330Y0047675D01*
X0066562Y0046908D01*
X0065028Y0048442D02*
X0065028Y0049210D01*
X0061050Y0059492D02*
X0061050Y0061794D01*
X0060283Y0062561D01*
X0057213Y0062561D01*
X0056446Y0061794D01*
X0056446Y0059492D01*
X0061050Y0059492D01*
X0061050Y0064096D02*
X0060283Y0064096D01*
X0057213Y0067165D01*
X0056446Y0067165D01*
X0056446Y0064096D01*
X0056446Y0072492D02*
X0056446Y0074794D01*
X0057213Y0075561D01*
X0060283Y0075561D01*
X0061050Y0074794D01*
X0061050Y0072492D01*
X0056446Y0072492D01*
X0058748Y0077096D02*
X0056446Y0079398D01*
X0061050Y0079398D01*
X0058748Y0080165D02*
X0058748Y0077096D01*
X0059470Y0096200D02*
X0057935Y0096200D01*
X0057168Y0096967D01*
X0057168Y0098502D01*
X0057935Y0099269D01*
X0059470Y0099269D01*
X0060237Y0098502D01*
X0060237Y0097735D01*
X0057168Y0097735D01*
X0055633Y0099269D02*
X0054866Y0099269D01*
X0053331Y0097735D01*
X0053331Y0099269D02*
X0053331Y0096200D01*
X0051796Y0097735D02*
X0048727Y0097735D01*
X0048727Y0098502D02*
X0049494Y0099269D01*
X0051029Y0099269D01*
X0051796Y0098502D01*
X0051796Y0097735D01*
X0051029Y0096200D02*
X0049494Y0096200D01*
X0048727Y0096967D01*
X0048727Y0098502D01*
X0047192Y0098502D02*
X0045658Y0098502D01*
X0044123Y0098502D02*
X0043356Y0099269D01*
X0041821Y0099269D01*
X0041054Y0098502D01*
X0041054Y0096967D01*
X0041821Y0096200D01*
X0043356Y0096200D01*
X0044123Y0097735D02*
X0041054Y0097735D01*
X0039519Y0098502D02*
X0039519Y0100037D01*
X0038752Y0100804D01*
X0036450Y0100804D01*
X0036450Y0096200D01*
X0036450Y0097735D02*
X0038752Y0097735D01*
X0039519Y0098502D01*
X0037985Y0097735D02*
X0039519Y0096200D01*
X0044123Y0097735D02*
X0044123Y0098502D01*
X0046425Y0100037D02*
X0047192Y0100804D01*
X0046425Y0100037D02*
X0046425Y0096200D01*
X0043356Y0108200D02*
X0041821Y0108200D01*
X0041054Y0108967D01*
X0039519Y0108200D02*
X0039519Y0111269D01*
X0037985Y0112804D01*
X0036450Y0111269D01*
X0036450Y0108200D01*
X0036450Y0110502D02*
X0039519Y0110502D01*
X0041054Y0112037D02*
X0041821Y0112804D01*
X0043356Y0112804D01*
X0044123Y0112037D01*
X0044123Y0111269D01*
X0043356Y0110502D01*
X0044123Y0109735D01*
X0044123Y0108967D01*
X0043356Y0108200D01*
X0043356Y0110502D02*
X0042589Y0110502D01*
X0044123Y0118200D02*
X0041054Y0118200D01*
X0044123Y0121269D01*
X0044123Y0122037D01*
X0043356Y0122804D01*
X0041821Y0122804D01*
X0041054Y0122037D01*
X0039519Y0121269D02*
X0039519Y0118200D01*
X0039519Y0120502D02*
X0036450Y0120502D01*
X0036450Y0121269D02*
X0036450Y0118200D01*
X0036450Y0121269D02*
X0037985Y0122804D01*
X0039519Y0121269D01*
X0039519Y0128200D02*
X0039519Y0131269D01*
X0037985Y0132804D01*
X0036450Y0131269D01*
X0036450Y0128200D01*
X0036450Y0130502D02*
X0039519Y0130502D01*
X0041054Y0131269D02*
X0042589Y0132804D01*
X0042589Y0128200D01*
X0044123Y0128200D02*
X0041054Y0128200D01*
X0041821Y0138200D02*
X0041054Y0138967D01*
X0044123Y0142037D01*
X0044123Y0138967D01*
X0043356Y0138200D01*
X0041821Y0138200D01*
X0041054Y0138967D02*
X0041054Y0142037D01*
X0041821Y0142804D01*
X0043356Y0142804D01*
X0044123Y0142037D01*
X0039519Y0141269D02*
X0039519Y0138200D01*
X0039519Y0140502D02*
X0036450Y0140502D01*
X0036450Y0141269D02*
X0037985Y0142804D01*
X0039519Y0141269D01*
X0036450Y0141269D02*
X0036450Y0138200D01*
X0061772Y0099269D02*
X0064074Y0099269D01*
X0064841Y0098502D01*
X0064841Y0096200D01*
X0066376Y0096967D02*
X0067143Y0096200D01*
X0069445Y0096200D01*
X0070979Y0096967D02*
X0070979Y0098502D01*
X0071747Y0099269D01*
X0073281Y0099269D01*
X0074049Y0098502D01*
X0074049Y0097735D01*
X0070979Y0097735D01*
X0070979Y0096967D02*
X0071747Y0096200D01*
X0073281Y0096200D01*
X0069445Y0099269D02*
X0067143Y0099269D01*
X0066376Y0098502D01*
X0066376Y0096967D01*
X0061772Y0096200D02*
X0061772Y0099269D01*
X0080187Y0097735D02*
X0082489Y0097735D01*
X0083257Y0098502D01*
X0083257Y0100037D01*
X0082489Y0100804D01*
X0080187Y0100804D01*
X0080187Y0096200D01*
X0081722Y0097735D02*
X0083257Y0096200D01*
X0084791Y0096967D02*
X0084791Y0098502D01*
X0085559Y0099269D01*
X0087093Y0099269D01*
X0087860Y0098502D01*
X0087860Y0097735D01*
X0084791Y0097735D01*
X0084791Y0096967D02*
X0085559Y0096200D01*
X0087093Y0096200D01*
X0089395Y0096200D02*
X0091697Y0096200D01*
X0092464Y0096967D01*
X0091697Y0097735D01*
X0090162Y0097735D01*
X0089395Y0098502D01*
X0090162Y0099269D01*
X0092464Y0099269D01*
X0093999Y0099269D02*
X0094766Y0099269D01*
X0094766Y0096200D01*
X0093999Y0096200D02*
X0095534Y0096200D01*
X0097068Y0096200D02*
X0099370Y0096200D01*
X0100138Y0096967D01*
X0099370Y0097735D01*
X0097836Y0097735D01*
X0097068Y0098502D01*
X0097836Y0099269D01*
X0100138Y0099269D01*
X0101672Y0099269D02*
X0103207Y0099269D01*
X0102440Y0100037D02*
X0102440Y0096967D01*
X0103207Y0096200D01*
X0104742Y0096967D02*
X0105509Y0096200D01*
X0107043Y0096200D01*
X0107811Y0096967D01*
X0107811Y0098502D01*
X0107043Y0099269D01*
X0105509Y0099269D01*
X0104742Y0098502D01*
X0104742Y0096967D01*
X0109345Y0096200D02*
X0109345Y0099269D01*
X0109345Y0097735D02*
X0110880Y0099269D01*
X0111647Y0099269D01*
X0113182Y0098502D02*
X0113949Y0099269D01*
X0116251Y0099269D01*
X0115484Y0097735D02*
X0113949Y0097735D01*
X0113182Y0098502D01*
X0113182Y0096200D02*
X0115484Y0096200D01*
X0116251Y0096967D01*
X0115484Y0097735D01*
X0094766Y0100804D02*
X0094766Y0101571D01*
X0094121Y0049977D02*
X0094889Y0049210D01*
X0094889Y0047675D01*
X0094121Y0046908D01*
X0093354Y0045373D02*
X0090285Y0045373D01*
X0091052Y0046908D02*
X0090285Y0047675D01*
X0090285Y0049210D01*
X0091052Y0049977D01*
X0091819Y0049977D01*
X0092587Y0049210D01*
X0093354Y0049977D01*
X0094121Y0049977D01*
X0092587Y0049210D02*
X0092587Y0048442D01*
X0093354Y0045373D02*
X0094889Y0043839D01*
X0093354Y0042304D01*
X0090285Y0042304D01*
X0091052Y0040769D02*
X0091819Y0040769D01*
X0092587Y0040002D01*
X0093354Y0040769D01*
X0094121Y0040769D01*
X0094889Y0040002D01*
X0094889Y0038467D01*
X0094121Y0037700D01*
X0092587Y0039235D02*
X0092587Y0040002D01*
X0091052Y0040769D02*
X0090285Y0040002D01*
X0090285Y0038467D01*
X0091052Y0037700D01*
X0081109Y0037700D02*
X0078040Y0037700D01*
X0076505Y0039235D01*
X0078040Y0040769D01*
X0081109Y0040769D01*
X0081109Y0042304D02*
X0081109Y0045373D01*
X0081109Y0043839D02*
X0076505Y0043839D01*
X0078040Y0042304D01*
X0078807Y0040769D02*
X0078807Y0037700D01*
X0104064Y0039235D02*
X0105599Y0037700D01*
X0108668Y0037700D01*
X0106366Y0037700D02*
X0106366Y0040769D01*
X0105599Y0040769D02*
X0108668Y0040769D01*
X0108668Y0042304D02*
X0105599Y0045373D01*
X0104832Y0045373D01*
X0104064Y0044606D01*
X0104064Y0043071D01*
X0104832Y0042304D01*
X0105599Y0040769D02*
X0104064Y0039235D01*
X0108668Y0042304D02*
X0108668Y0045373D01*
X0117844Y0045373D02*
X0120913Y0045373D01*
X0122448Y0043839D01*
X0120913Y0042304D01*
X0117844Y0042304D01*
X0118611Y0040769D02*
X0119378Y0040769D01*
X0120146Y0040002D01*
X0120913Y0040769D01*
X0121680Y0040769D01*
X0122448Y0040002D01*
X0122448Y0038467D01*
X0121680Y0037700D01*
X0120146Y0039235D02*
X0120146Y0040002D01*
X0118611Y0040769D02*
X0117844Y0040002D01*
X0117844Y0038467D01*
X0118611Y0037700D01*
X0118611Y0046908D02*
X0117844Y0047675D01*
X0117844Y0049210D01*
X0118611Y0049977D01*
X0119378Y0049977D01*
X0120146Y0049210D01*
X0120913Y0049977D01*
X0121680Y0049977D01*
X0122448Y0049210D01*
X0122448Y0047675D01*
X0121680Y0046908D01*
X0120146Y0048442D02*
X0120146Y0049210D01*
X0131623Y0044606D02*
X0131623Y0043071D01*
X0132391Y0042304D01*
X0133158Y0040769D02*
X0136227Y0040769D01*
X0135460Y0042304D02*
X0136227Y0043071D01*
X0136227Y0044606D01*
X0135460Y0045373D01*
X0134693Y0045373D01*
X0133925Y0044606D01*
X0133925Y0043839D01*
X0133925Y0044606D02*
X0133158Y0045373D01*
X0132391Y0045373D01*
X0131623Y0044606D01*
X0133158Y0040769D02*
X0131623Y0039235D01*
X0133158Y0037700D01*
X0136227Y0037700D01*
X0133925Y0037700D02*
X0133925Y0040769D01*
X0145403Y0040002D02*
X0146170Y0040769D01*
X0146937Y0040769D01*
X0147705Y0040002D01*
X0148472Y0040769D01*
X0149239Y0040769D01*
X0150007Y0040002D01*
X0150007Y0038467D01*
X0149239Y0037700D01*
X0147705Y0039235D02*
X0147705Y0040002D01*
X0145403Y0040002D02*
X0145403Y0038467D01*
X0146170Y0037700D01*
X0145403Y0042304D02*
X0148472Y0042304D01*
X0150007Y0043839D01*
X0148472Y0045373D01*
X0145403Y0045373D01*
X0146170Y0046908D02*
X0145403Y0047675D01*
X0145403Y0049210D01*
X0146170Y0049977D01*
X0146937Y0049977D01*
X0147705Y0049210D01*
X0148472Y0049977D01*
X0149239Y0049977D01*
X0150007Y0049210D01*
X0150007Y0047675D01*
X0149239Y0046908D01*
X0147705Y0048442D02*
X0147705Y0049210D01*
X0159182Y0049210D02*
X0159182Y0047675D01*
X0159950Y0046908D01*
X0163019Y0046908D01*
X0163786Y0047675D01*
X0163786Y0049210D01*
X0163019Y0049977D01*
X0159950Y0049977D02*
X0159182Y0049210D01*
X0159950Y0045373D02*
X0159182Y0044606D01*
X0159182Y0043071D01*
X0159950Y0042304D01*
X0163019Y0042304D01*
X0163786Y0043071D01*
X0163786Y0044606D01*
X0163019Y0045373D01*
X0162252Y0040769D02*
X0159182Y0040769D01*
X0159182Y0037700D02*
X0162252Y0037700D01*
X0163786Y0039235D01*
X0162252Y0040769D01*
X0172962Y0040002D02*
X0172962Y0038467D01*
X0173729Y0037700D01*
X0176798Y0037700D01*
X0177566Y0038467D01*
X0177566Y0040002D01*
X0176798Y0040769D01*
X0175264Y0040769D01*
X0175264Y0039235D01*
X0173729Y0040769D02*
X0172962Y0040002D01*
X0172962Y0042304D02*
X0177566Y0045373D01*
X0172962Y0045373D01*
X0172962Y0046908D02*
X0172962Y0049210D01*
X0173729Y0049977D01*
X0176798Y0049977D01*
X0177566Y0049210D01*
X0177566Y0046908D01*
X0172962Y0046908D01*
X0172962Y0042304D02*
X0177566Y0042304D01*
X0186741Y0042304D02*
X0186741Y0044606D01*
X0187509Y0045373D01*
X0190578Y0045373D01*
X0191345Y0044606D01*
X0191345Y0042304D01*
X0186741Y0042304D01*
X0187509Y0040769D02*
X0186741Y0040002D01*
X0186741Y0038467D01*
X0187509Y0037700D01*
X0188276Y0037700D01*
X0189043Y0038467D01*
X0189043Y0040002D01*
X0189811Y0040769D01*
X0190578Y0040769D01*
X0191345Y0040002D01*
X0191345Y0038467D01*
X0190578Y0037700D01*
X0191345Y0046908D02*
X0188276Y0046908D01*
X0186741Y0048442D01*
X0188276Y0049977D01*
X0191345Y0049977D01*
X0189043Y0049977D02*
X0189043Y0046908D01*
X0200521Y0046908D02*
X0205125Y0046908D01*
X0205125Y0049977D01*
X0204357Y0045373D02*
X0205125Y0044606D01*
X0205125Y0043071D01*
X0204357Y0042304D01*
X0201288Y0042304D01*
X0200521Y0043071D01*
X0200521Y0044606D01*
X0201288Y0045373D01*
X0201288Y0040769D02*
X0200521Y0040002D01*
X0200521Y0038467D01*
X0201288Y0037700D01*
X0202056Y0037700D01*
X0202823Y0038467D01*
X0202823Y0040002D01*
X0203590Y0040769D01*
X0204357Y0040769D01*
X0205125Y0040002D01*
X0205125Y0038467D01*
X0204357Y0037700D01*
X0094889Y0266819D02*
X0090285Y0266819D01*
X0091819Y0268354D01*
X0090285Y0269888D01*
X0094889Y0269888D01*
X0094121Y0271423D02*
X0094889Y0272190D01*
X0094889Y0273725D01*
X0094121Y0274492D01*
X0091052Y0274492D01*
X0090285Y0273725D01*
X0090285Y0272190D01*
X0091052Y0271423D01*
X0094121Y0271423D01*
X0094121Y0276027D02*
X0094889Y0276794D01*
X0094889Y0278329D01*
X0094121Y0279096D01*
X0093354Y0279096D01*
X0092587Y0278329D01*
X0092587Y0276794D01*
X0091819Y0276027D01*
X0091052Y0276027D01*
X0090285Y0276794D01*
X0090285Y0278329D01*
X0091052Y0279096D01*
X0090285Y0280631D02*
X0090285Y0282165D01*
X0090285Y0281398D02*
X0094889Y0281398D01*
X0094889Y0280631D02*
X0094889Y0282165D01*
X0104064Y0281398D02*
X0104064Y0279863D01*
X0104832Y0279096D01*
X0107901Y0279096D01*
X0108668Y0279863D01*
X0108668Y0281398D01*
X0107901Y0282165D01*
X0104832Y0282165D02*
X0104064Y0281398D01*
X0104832Y0277561D02*
X0104064Y0276794D01*
X0104064Y0275259D01*
X0104832Y0274492D01*
X0107901Y0274492D01*
X0108668Y0275259D01*
X0108668Y0276794D01*
X0107901Y0277561D01*
X0107133Y0272957D02*
X0104064Y0272957D01*
X0104064Y0269888D02*
X0107133Y0269888D01*
X0108668Y0271423D01*
X0107133Y0272957D01*
X0117844Y0274492D02*
X0117844Y0276794D01*
X0118611Y0277561D01*
X0121680Y0277561D01*
X0122448Y0276794D01*
X0122448Y0274492D01*
X0117844Y0274492D01*
X0118611Y0279096D02*
X0119378Y0279096D01*
X0120146Y0279863D01*
X0120146Y0282165D01*
X0121680Y0282165D02*
X0118611Y0282165D01*
X0117844Y0281398D01*
X0117844Y0279863D01*
X0118611Y0279096D01*
X0121680Y0279096D02*
X0122448Y0279863D01*
X0122448Y0281398D01*
X0121680Y0282165D01*
X0131623Y0282165D02*
X0132391Y0280631D01*
X0133925Y0279096D01*
X0133925Y0281398D01*
X0134693Y0282165D01*
X0135460Y0282165D01*
X0136227Y0281398D01*
X0136227Y0279863D01*
X0135460Y0279096D01*
X0133925Y0279096D01*
X0135460Y0277561D02*
X0132391Y0277561D01*
X0131623Y0276794D01*
X0131623Y0274492D01*
X0136227Y0274492D01*
X0136227Y0276794D01*
X0135460Y0277561D01*
X0145403Y0277561D02*
X0148472Y0277561D01*
X0150007Y0276027D01*
X0148472Y0274492D01*
X0145403Y0274492D01*
X0146170Y0272957D02*
X0146937Y0272957D01*
X0147705Y0272190D01*
X0148472Y0272957D01*
X0149239Y0272957D01*
X0150007Y0272190D01*
X0150007Y0270656D01*
X0149239Y0269888D01*
X0147705Y0271423D02*
X0147705Y0272190D01*
X0146170Y0272957D02*
X0145403Y0272190D01*
X0145403Y0270656D01*
X0146170Y0269888D01*
X0146170Y0279096D02*
X0145403Y0279863D01*
X0145403Y0281398D01*
X0146170Y0282165D01*
X0146937Y0282165D01*
X0147705Y0281398D01*
X0148472Y0282165D01*
X0149239Y0282165D01*
X0150007Y0281398D01*
X0150007Y0279863D01*
X0149239Y0279096D01*
X0147705Y0280631D02*
X0147705Y0281398D01*
X0159182Y0281398D02*
X0159182Y0279096D01*
X0163786Y0279096D01*
X0163786Y0281398D01*
X0163019Y0282165D01*
X0159950Y0282165D01*
X0159182Y0281398D01*
X0159182Y0277561D02*
X0163786Y0277561D01*
X0159182Y0274492D01*
X0163786Y0274492D01*
X0163019Y0272957D02*
X0161484Y0272957D01*
X0161484Y0271423D01*
X0159950Y0272957D02*
X0159182Y0272190D01*
X0159182Y0270656D01*
X0159950Y0269888D01*
X0163019Y0269888D01*
X0163786Y0270656D01*
X0163786Y0272190D01*
X0163019Y0272957D01*
X0186741Y0274492D02*
X0186741Y0276794D01*
X0187509Y0277561D01*
X0189043Y0277561D01*
X0189811Y0276794D01*
X0189811Y0274492D01*
X0191345Y0274492D02*
X0186741Y0274492D01*
X0189811Y0276027D02*
X0191345Y0277561D01*
X0191345Y0279096D02*
X0186741Y0282165D01*
X0186741Y0279096D02*
X0191345Y0282165D01*
X0200521Y0282165D02*
X0205125Y0279096D01*
X0205125Y0276027D02*
X0200521Y0276027D01*
X0200521Y0277561D02*
X0200521Y0274492D01*
X0200521Y0279096D02*
X0205125Y0282165D01*
X0081109Y0281398D02*
X0080342Y0282165D01*
X0077272Y0282165D01*
X0076505Y0281398D01*
X0076505Y0279863D01*
X0077272Y0279096D01*
X0080342Y0279096D01*
X0081109Y0279863D01*
X0081109Y0281398D01*
X0080342Y0277561D02*
X0081109Y0276794D01*
X0081109Y0275259D01*
X0080342Y0274492D01*
X0081109Y0272957D02*
X0081109Y0271423D01*
X0081109Y0272190D02*
X0076505Y0272190D01*
X0076505Y0271423D02*
X0076505Y0272957D01*
X0077272Y0274492D02*
X0076505Y0275259D01*
X0076505Y0276794D01*
X0077272Y0277561D01*
X0078807Y0276794D02*
X0079574Y0277561D01*
X0080342Y0277561D01*
X0078807Y0276794D02*
X0078807Y0275259D01*
X0078040Y0274492D01*
X0077272Y0274492D01*
X0076505Y0269888D02*
X0081109Y0269888D01*
X0081109Y0266819D02*
X0076505Y0266819D01*
X0078040Y0268354D01*
X0076505Y0269888D01*
X0067330Y0270656D02*
X0066562Y0269888D01*
X0067330Y0270656D02*
X0067330Y0272190D01*
X0066562Y0272957D01*
X0065795Y0272957D01*
X0065028Y0272190D01*
X0065028Y0270656D01*
X0064260Y0269888D01*
X0063493Y0269888D01*
X0062726Y0270656D01*
X0062726Y0272190D01*
X0063493Y0272957D01*
X0063493Y0274492D02*
X0066562Y0274492D01*
X0067330Y0275259D01*
X0067330Y0276794D01*
X0066562Y0277561D01*
X0065795Y0279096D02*
X0062726Y0282165D01*
X0062726Y0279096D02*
X0067330Y0279096D01*
X0065028Y0279863D02*
X0067330Y0282165D01*
X0063493Y0277561D02*
X0062726Y0276794D01*
X0062726Y0275259D01*
X0063493Y0274492D01*
X0053550Y0274492D02*
X0048946Y0274492D01*
X0053550Y0277561D01*
X0048946Y0277561D01*
X0048946Y0279096D02*
X0048946Y0281398D01*
X0049713Y0282165D01*
X0052783Y0282165D01*
X0053550Y0281398D01*
X0053550Y0279096D01*
X0048946Y0279096D01*
X0049713Y0272957D02*
X0048946Y0272190D01*
X0048946Y0270656D01*
X0049713Y0269888D01*
X0052783Y0269888D01*
X0053550Y0270656D01*
X0053550Y0272190D01*
X0052783Y0272957D01*
X0051248Y0272957D01*
X0051248Y0271423D01*
D11*
X0084080Y0189286D02*
X0087216Y0186150D01*
X0085648Y0186150D02*
X0085648Y0189286D01*
X0087216Y0189286D02*
X0084080Y0186150D01*
X0084080Y0187718D02*
X0087216Y0187718D01*
X0120964Y0167259D02*
X0121448Y0167259D01*
X0122415Y0167259D02*
X0124350Y0167259D01*
X0124350Y0166776D02*
X0124350Y0167743D01*
X0123866Y0168740D02*
X0122899Y0168740D01*
X0122415Y0169224D01*
X0122415Y0170191D01*
X0122899Y0170675D01*
X0123383Y0170675D01*
X0123383Y0168740D01*
X0123866Y0168740D02*
X0124350Y0169224D01*
X0124350Y0170191D01*
X0124350Y0171686D02*
X0124350Y0172654D01*
X0124350Y0172170D02*
X0121448Y0172170D01*
X0121448Y0171686D01*
X0122899Y0173651D02*
X0122415Y0174135D01*
X0122415Y0175586D01*
X0121448Y0175586D02*
X0124350Y0175586D01*
X0124350Y0174135D01*
X0123866Y0173651D01*
X0122899Y0173651D01*
X0122415Y0179544D02*
X0124350Y0180511D01*
X0122415Y0181479D01*
X0121931Y0182490D02*
X0121448Y0182974D01*
X0121448Y0183942D01*
X0121931Y0184425D01*
X0122415Y0184425D01*
X0124350Y0182490D01*
X0124350Y0184425D01*
X0124350Y0185437D02*
X0123866Y0185437D01*
X0123866Y0185921D01*
X0124350Y0185921D01*
X0124350Y0185437D01*
X0124350Y0186910D02*
X0122415Y0188845D01*
X0121931Y0188845D01*
X0121448Y0188361D01*
X0121448Y0187394D01*
X0121931Y0186910D01*
X0124350Y0186910D02*
X0124350Y0188845D01*
X0124350Y0189857D02*
X0124350Y0190340D01*
X0123866Y0190340D01*
X0123866Y0189857D01*
X0124350Y0189857D01*
X0123866Y0191330D02*
X0121931Y0193265D01*
X0123866Y0193265D01*
X0124350Y0192781D01*
X0124350Y0191814D01*
X0123866Y0191330D01*
X0121931Y0191330D01*
X0121448Y0191814D01*
X0121448Y0192781D01*
X0121931Y0193265D01*
X0122415Y0167259D02*
X0122415Y0166776D01*
X0122899Y0165764D02*
X0124350Y0165764D01*
X0122899Y0165764D02*
X0122415Y0165280D01*
X0122415Y0164313D01*
X0122899Y0163829D01*
X0123383Y0162818D02*
X0123866Y0162818D01*
X0124350Y0162334D01*
X0124350Y0161366D01*
X0123866Y0160883D01*
X0122899Y0161366D02*
X0122899Y0162334D01*
X0123383Y0162818D01*
X0124350Y0163829D02*
X0121448Y0163829D01*
X0121931Y0162818D02*
X0121448Y0162334D01*
X0121448Y0161366D01*
X0121931Y0160883D01*
X0122415Y0160883D01*
X0122899Y0161366D01*
X0122899Y0159871D02*
X0122899Y0157936D01*
X0122415Y0156925D02*
X0122415Y0155473D01*
X0122899Y0154990D01*
X0123866Y0154990D01*
X0124350Y0155473D01*
X0124350Y0156925D01*
X0124834Y0156925D02*
X0122415Y0156925D01*
X0124834Y0156925D02*
X0125317Y0156441D01*
X0125317Y0155957D01*
X0123866Y0153978D02*
X0122899Y0153978D01*
X0122415Y0153494D01*
X0122415Y0152527D01*
X0122899Y0152043D01*
X0123866Y0152043D01*
X0124350Y0152527D01*
X0124350Y0153494D01*
X0123866Y0153978D01*
X0124350Y0151031D02*
X0124350Y0149097D01*
X0121448Y0149097D01*
X0122415Y0148085D02*
X0124350Y0148085D01*
X0122899Y0148085D02*
X0122899Y0146150D01*
X0122415Y0146150D02*
X0121448Y0147117D01*
X0122415Y0148085D01*
X0122415Y0146150D02*
X0124350Y0146150D01*
X0177900Y0163884D02*
X0178384Y0163400D01*
X0179351Y0163400D01*
X0179835Y0163884D01*
X0179835Y0166302D01*
X0180847Y0165335D02*
X0182298Y0165335D01*
X0182781Y0164851D01*
X0182781Y0163400D01*
X0183793Y0163400D02*
X0184761Y0163400D01*
X0184277Y0163400D02*
X0184277Y0165335D01*
X0183793Y0165335D01*
X0184277Y0166302D02*
X0184277Y0166786D01*
X0183793Y0168200D02*
X0183793Y0170135D01*
X0184761Y0170135D02*
X0185244Y0170135D01*
X0184761Y0170135D02*
X0183793Y0169167D01*
X0182781Y0168684D02*
X0182298Y0168200D01*
X0181330Y0168200D01*
X0180847Y0168684D01*
X0180847Y0169651D01*
X0181330Y0170135D01*
X0182298Y0170135D01*
X0182781Y0169651D01*
X0182781Y0168684D01*
X0179835Y0168200D02*
X0179835Y0171102D01*
X0177900Y0171102D02*
X0177900Y0168200D01*
X0177900Y0166302D02*
X0177900Y0163884D01*
X0180847Y0163400D02*
X0180847Y0165335D01*
X0179835Y0168200D02*
X0177900Y0171102D01*
X0178384Y0173000D02*
X0177900Y0173484D01*
X0177900Y0175419D01*
X0178384Y0175902D01*
X0179351Y0175902D01*
X0179835Y0175419D01*
X0180847Y0175902D02*
X0180847Y0173000D01*
X0179835Y0173484D02*
X0179351Y0173000D01*
X0178384Y0173000D01*
X0180847Y0174451D02*
X0181330Y0174935D01*
X0182298Y0174935D01*
X0182781Y0174451D01*
X0182781Y0173000D01*
X0183793Y0173484D02*
X0184277Y0173967D01*
X0185728Y0173967D01*
X0185728Y0174451D02*
X0185728Y0173000D01*
X0184277Y0173000D01*
X0183793Y0173484D01*
X0184277Y0174935D02*
X0185244Y0174935D01*
X0185728Y0174451D01*
X0186740Y0174451D02*
X0187223Y0174935D01*
X0188675Y0174935D01*
X0188675Y0175902D02*
X0188675Y0173000D01*
X0187223Y0173000D01*
X0186740Y0173484D01*
X0186740Y0174451D01*
X0187707Y0176833D02*
X0188191Y0176833D01*
X0188675Y0177316D01*
X0188675Y0179735D01*
X0188675Y0177800D02*
X0187223Y0177800D01*
X0186740Y0178284D01*
X0186740Y0179735D01*
X0185728Y0179735D02*
X0184277Y0179735D01*
X0183793Y0179251D01*
X0183793Y0178284D01*
X0184277Y0177800D01*
X0185728Y0177800D01*
X0185728Y0180702D01*
X0187223Y0182600D02*
X0187707Y0182600D01*
X0188191Y0183084D01*
X0188191Y0185502D01*
X0187707Y0185502D02*
X0188675Y0185502D01*
X0188191Y0186433D02*
X0188675Y0186916D01*
X0188675Y0189335D01*
X0187223Y0189335D01*
X0186740Y0188851D01*
X0186740Y0187884D01*
X0187223Y0187400D01*
X0188675Y0187400D01*
X0188191Y0186433D02*
X0187707Y0186433D01*
X0185728Y0187884D02*
X0185728Y0188851D01*
X0185244Y0189335D01*
X0184277Y0189335D01*
X0183793Y0188851D01*
X0183793Y0187884D01*
X0184277Y0187400D01*
X0185244Y0187400D01*
X0185728Y0187884D01*
X0182781Y0187400D02*
X0180847Y0187400D01*
X0180847Y0190302D01*
X0179835Y0189335D02*
X0179835Y0187400D01*
X0179835Y0188851D02*
X0177900Y0188851D01*
X0177900Y0189335D02*
X0178867Y0190302D01*
X0179835Y0189335D01*
X0177900Y0189335D02*
X0177900Y0187400D01*
X0178384Y0185502D02*
X0177900Y0185019D01*
X0177900Y0183084D01*
X0179835Y0185019D01*
X0179835Y0183084D01*
X0179351Y0182600D01*
X0178384Y0182600D01*
X0177900Y0183084D01*
X0178384Y0185502D02*
X0179351Y0185502D01*
X0179835Y0185019D01*
X0180847Y0184051D02*
X0182298Y0184051D01*
X0182781Y0183567D01*
X0182781Y0183084D01*
X0182298Y0182600D01*
X0181330Y0182600D01*
X0180847Y0183084D01*
X0180847Y0184051D01*
X0181814Y0185019D01*
X0182781Y0185502D01*
X0186740Y0183084D02*
X0187223Y0182600D01*
X0189686Y0183084D02*
X0189686Y0184535D01*
X0189686Y0183084D02*
X0190170Y0182600D01*
X0191621Y0182600D01*
X0191621Y0184535D01*
X0192633Y0184535D02*
X0194084Y0184535D01*
X0194568Y0184051D01*
X0194568Y0182600D01*
X0195579Y0183084D02*
X0195579Y0184051D01*
X0196063Y0184535D01*
X0197030Y0184535D01*
X0197514Y0184051D01*
X0197514Y0183567D01*
X0195579Y0183567D01*
X0195579Y0183084D02*
X0196063Y0182600D01*
X0197030Y0182600D01*
X0196063Y0181186D02*
X0196063Y0180702D01*
X0196063Y0179735D02*
X0196063Y0177800D01*
X0195579Y0177800D02*
X0196547Y0177800D01*
X0197543Y0178284D02*
X0198027Y0177800D01*
X0199478Y0177800D01*
X0200490Y0177800D02*
X0200490Y0180702D01*
X0199478Y0179735D02*
X0198027Y0179735D01*
X0197543Y0179251D01*
X0197543Y0178284D01*
X0196063Y0179735D02*
X0195579Y0179735D01*
X0194568Y0180702D02*
X0194568Y0177800D01*
X0193600Y0178767D01*
X0192633Y0177800D01*
X0192633Y0180702D01*
X0192633Y0182600D02*
X0192633Y0184535D01*
X0193116Y0187400D02*
X0192633Y0187884D01*
X0193116Y0187400D02*
X0194084Y0187400D01*
X0194568Y0187884D01*
X0194568Y0188367D01*
X0194084Y0188851D01*
X0193116Y0188851D01*
X0192633Y0189335D01*
X0192633Y0189819D01*
X0193116Y0190302D01*
X0194084Y0190302D01*
X0194568Y0189819D01*
X0195579Y0190302D02*
X0195579Y0187400D01*
X0195579Y0188851D02*
X0196063Y0189335D01*
X0197030Y0189335D01*
X0197514Y0188851D01*
X0197514Y0187400D01*
X0198526Y0187400D02*
X0199493Y0187400D01*
X0199009Y0187400D02*
X0199009Y0189335D01*
X0198526Y0189335D01*
X0199009Y0190302D02*
X0199009Y0190786D01*
X0200490Y0188851D02*
X0200974Y0189335D01*
X0201941Y0189335D01*
X0202425Y0188851D01*
X0202425Y0188367D01*
X0200490Y0188367D01*
X0200490Y0187884D02*
X0200490Y0188851D01*
X0200490Y0187884D02*
X0200974Y0187400D01*
X0201941Y0187400D01*
X0203436Y0187400D02*
X0204404Y0187400D01*
X0203920Y0187400D02*
X0203920Y0190302D01*
X0203436Y0190302D01*
X0205401Y0188851D02*
X0205885Y0189335D01*
X0207336Y0189335D01*
X0207336Y0190302D02*
X0207336Y0187400D01*
X0205885Y0187400D01*
X0205401Y0187884D01*
X0205401Y0188851D01*
X0205870Y0185502D02*
X0204902Y0185502D01*
X0204419Y0185019D01*
X0204419Y0183084D01*
X0206354Y0185019D01*
X0206354Y0183084D01*
X0205870Y0182600D01*
X0204902Y0182600D01*
X0204419Y0183084D01*
X0203407Y0182600D02*
X0201472Y0182600D01*
X0203407Y0184535D01*
X0203407Y0185019D01*
X0202923Y0185502D01*
X0201956Y0185502D01*
X0201472Y0185019D01*
X0205870Y0185502D02*
X0206354Y0185019D01*
X0207365Y0184535D02*
X0208333Y0185502D01*
X0208333Y0182600D01*
X0209300Y0182600D02*
X0207365Y0182600D01*
X0208831Y0180219D02*
X0208831Y0178284D01*
X0209315Y0177800D01*
X0209330Y0175902D02*
X0209813Y0175902D01*
X0209813Y0173000D01*
X0209330Y0173000D02*
X0210297Y0173000D01*
X0208333Y0173000D02*
X0207365Y0173000D01*
X0207849Y0173000D02*
X0207849Y0175902D01*
X0207365Y0175902D01*
X0206354Y0174451D02*
X0205870Y0174935D01*
X0204902Y0174935D01*
X0204419Y0174451D01*
X0204419Y0173484D01*
X0204902Y0173000D01*
X0205870Y0173000D01*
X0206354Y0173967D02*
X0204419Y0173967D01*
X0203407Y0173000D02*
X0201956Y0173000D01*
X0201472Y0173484D01*
X0201472Y0174451D01*
X0201956Y0174935D01*
X0203407Y0174935D01*
X0203407Y0175902D02*
X0203407Y0173000D01*
X0202454Y0171102D02*
X0202454Y0168200D01*
X0203422Y0169167D01*
X0204389Y0168200D01*
X0204389Y0171102D01*
X0205401Y0170135D02*
X0205885Y0170135D01*
X0205885Y0168200D01*
X0206368Y0168200D02*
X0205401Y0168200D01*
X0207365Y0168684D02*
X0207365Y0169651D01*
X0207849Y0170135D01*
X0209300Y0170135D01*
X0209300Y0171102D02*
X0209300Y0168200D01*
X0207849Y0168200D01*
X0207365Y0168684D01*
X0205885Y0171102D02*
X0205885Y0171586D01*
X0206354Y0173967D02*
X0206354Y0174451D01*
X0205892Y0177800D02*
X0205892Y0179735D01*
X0206859Y0179735D02*
X0207343Y0179735D01*
X0206859Y0179735D02*
X0205892Y0178767D01*
X0204880Y0178767D02*
X0202945Y0178767D01*
X0202945Y0178284D02*
X0202945Y0179251D01*
X0203429Y0179735D01*
X0204397Y0179735D01*
X0204880Y0179251D01*
X0204880Y0178767D01*
X0204397Y0177800D02*
X0203429Y0177800D01*
X0202945Y0178284D01*
X0201941Y0177800D02*
X0200490Y0178767D01*
X0201941Y0179735D01*
X0199977Y0174935D02*
X0200461Y0174451D01*
X0200461Y0173000D01*
X0198526Y0173000D02*
X0198526Y0174935D01*
X0199977Y0174935D01*
X0197514Y0174451D02*
X0197514Y0173000D01*
X0196063Y0173000D01*
X0195579Y0173484D01*
X0196063Y0173967D01*
X0197514Y0173967D01*
X0197514Y0174451D02*
X0197030Y0174935D01*
X0196063Y0174935D01*
X0194568Y0175419D02*
X0194084Y0175902D01*
X0193116Y0175902D01*
X0192633Y0175419D01*
X0192633Y0174935D01*
X0193116Y0174451D01*
X0194084Y0174451D01*
X0194568Y0173967D01*
X0194568Y0173484D01*
X0194084Y0173000D01*
X0193116Y0173000D01*
X0192633Y0173484D01*
X0192611Y0170135D02*
X0193094Y0169651D01*
X0193094Y0169167D01*
X0191159Y0169167D01*
X0191159Y0168684D02*
X0191159Y0169651D01*
X0191643Y0170135D01*
X0192611Y0170135D01*
X0194106Y0170135D02*
X0194106Y0168200D01*
X0194106Y0169167D02*
X0195073Y0170135D01*
X0195557Y0170135D01*
X0196561Y0170135D02*
X0196561Y0168200D01*
X0197536Y0166786D02*
X0197536Y0166302D01*
X0197536Y0165335D02*
X0197536Y0163400D01*
X0197052Y0163400D02*
X0198020Y0163400D01*
X0199500Y0163884D02*
X0199500Y0165819D01*
X0199017Y0165335D02*
X0199984Y0165335D01*
X0200981Y0165335D02*
X0200981Y0163884D01*
X0201465Y0163400D01*
X0202916Y0163400D01*
X0202916Y0162916D02*
X0202432Y0162433D01*
X0201949Y0162433D01*
X0202916Y0162916D02*
X0202916Y0165335D01*
X0199984Y0163400D02*
X0199500Y0163884D01*
X0197536Y0165335D02*
X0197052Y0165335D01*
X0196041Y0165335D02*
X0194590Y0165335D01*
X0194106Y0164851D01*
X0194590Y0164367D01*
X0195557Y0164367D01*
X0196041Y0163884D01*
X0195557Y0163400D01*
X0194106Y0163400D01*
X0193102Y0165335D02*
X0192618Y0165335D01*
X0191650Y0164367D01*
X0191650Y0163400D02*
X0191650Y0165335D01*
X0190639Y0164851D02*
X0190639Y0164367D01*
X0188704Y0164367D01*
X0188704Y0163884D02*
X0188704Y0164851D01*
X0189188Y0165335D01*
X0190155Y0165335D01*
X0190639Y0164851D01*
X0190155Y0163400D02*
X0189188Y0163400D01*
X0188704Y0163884D01*
X0187692Y0165335D02*
X0186725Y0163400D01*
X0185757Y0165335D01*
X0187216Y0168200D02*
X0186732Y0168684D01*
X0186732Y0170619D01*
X0186248Y0170135D02*
X0187216Y0170135D01*
X0188213Y0169651D02*
X0188697Y0170135D01*
X0189664Y0170135D01*
X0190148Y0169651D01*
X0190148Y0168200D01*
X0191159Y0168684D02*
X0191643Y0168200D01*
X0192611Y0168200D01*
X0188213Y0168200D02*
X0188213Y0171102D01*
X0182781Y0177800D02*
X0182781Y0179251D01*
X0182298Y0179735D01*
X0180847Y0179735D01*
X0180847Y0177800D01*
X0179835Y0177800D02*
X0179835Y0179735D01*
X0178867Y0180702D01*
X0177900Y0179735D01*
X0177900Y0177800D01*
X0177900Y0179251D02*
X0179835Y0179251D01*
X0189686Y0188851D02*
X0191621Y0188851D01*
X0196561Y0170135D02*
X0198012Y0170135D01*
X0198496Y0169651D01*
X0198496Y0168200D01*
X0206874Y0164851D02*
X0206874Y0163884D01*
X0207358Y0163400D01*
X0208325Y0163400D01*
X0208809Y0163884D01*
X0208809Y0164851D01*
X0208325Y0165335D01*
X0207358Y0165335D01*
X0206874Y0164851D01*
X0209821Y0164851D02*
X0210788Y0164851D01*
X0210304Y0165819D02*
X0210788Y0166302D01*
X0210304Y0165819D02*
X0210304Y0163400D01*
X0211279Y0167233D02*
X0211763Y0167233D01*
X0212247Y0167716D01*
X0212247Y0170135D01*
X0210795Y0170135D01*
X0210312Y0169651D01*
X0210312Y0168684D01*
X0210795Y0168200D01*
X0212247Y0168200D01*
X0213258Y0168684D02*
X0213258Y0169651D01*
X0213742Y0170135D01*
X0214709Y0170135D01*
X0215193Y0169651D01*
X0215193Y0169167D01*
X0213258Y0169167D01*
X0213258Y0168684D02*
X0213742Y0168200D01*
X0214709Y0168200D01*
X0214731Y0166302D02*
X0215699Y0165335D01*
X0216666Y0166302D01*
X0216666Y0163400D01*
X0217678Y0163400D02*
X0218645Y0163400D01*
X0218162Y0163400D02*
X0218162Y0165335D01*
X0217678Y0165335D01*
X0218162Y0166302D02*
X0218162Y0166786D01*
X0217172Y0168200D02*
X0216688Y0168684D01*
X0216688Y0170619D01*
X0216205Y0170135D02*
X0217172Y0170135D01*
X0214731Y0166302D02*
X0214731Y0163400D01*
X0219642Y0163400D02*
X0219642Y0165335D01*
X0221094Y0165335D01*
X0221577Y0164851D01*
X0221577Y0163400D01*
X0222589Y0163400D02*
X0222589Y0165335D01*
X0224040Y0165335D01*
X0224524Y0164851D01*
X0224524Y0163400D01*
X0225535Y0163884D02*
X0225535Y0164851D01*
X0226019Y0165335D01*
X0226987Y0165335D01*
X0227470Y0164851D01*
X0227470Y0164367D01*
X0225535Y0164367D01*
X0225535Y0163884D02*
X0226019Y0163400D01*
X0226987Y0163400D01*
X0228482Y0163400D02*
X0229933Y0163400D01*
X0230417Y0163884D01*
X0229933Y0164367D01*
X0228966Y0164367D01*
X0228482Y0164851D01*
X0228966Y0165335D01*
X0230417Y0165335D01*
X0231428Y0164851D02*
X0231428Y0163884D01*
X0231912Y0163400D01*
X0232880Y0163400D01*
X0233363Y0163884D01*
X0233363Y0164851D01*
X0232880Y0165335D01*
X0231912Y0165335D01*
X0231428Y0164851D01*
X0234375Y0165335D02*
X0235342Y0165335D01*
X0234859Y0165819D02*
X0234859Y0163884D01*
X0235342Y0163400D01*
X0236339Y0163884D02*
X0236823Y0164367D01*
X0238274Y0164367D01*
X0238274Y0164851D02*
X0238274Y0163400D01*
X0236823Y0163400D01*
X0236339Y0163884D01*
X0236823Y0165335D02*
X0237791Y0165335D01*
X0238274Y0164851D01*
X0237783Y0168200D02*
X0237783Y0169651D01*
X0237299Y0170135D01*
X0235848Y0170135D01*
X0235848Y0168200D01*
X0234837Y0168200D02*
X0234837Y0169651D01*
X0234353Y0170135D01*
X0233385Y0170135D01*
X0233385Y0169167D02*
X0234837Y0169167D01*
X0234837Y0168200D02*
X0233385Y0168200D01*
X0232902Y0168684D01*
X0233385Y0169167D01*
X0228944Y0168684D02*
X0228460Y0168200D01*
X0227492Y0168200D01*
X0227009Y0168684D01*
X0227009Y0170619D01*
X0227492Y0171102D01*
X0228460Y0171102D01*
X0228944Y0170619D01*
X0225997Y0168200D02*
X0224062Y0168200D01*
X0224062Y0171102D01*
X0221116Y0171102D02*
X0221116Y0168200D01*
X0223051Y0168200D01*
X0221086Y0177800D02*
X0219635Y0177800D01*
X0219151Y0178284D01*
X0219151Y0179251D01*
X0219635Y0179735D01*
X0221086Y0179735D01*
X0221086Y0180702D02*
X0221086Y0177800D01*
X0218140Y0177800D02*
X0218140Y0179251D01*
X0217656Y0179735D01*
X0216205Y0179735D01*
X0216205Y0177800D01*
X0215193Y0177800D02*
X0215193Y0179251D01*
X0214709Y0179735D01*
X0213742Y0179735D01*
X0213742Y0178767D02*
X0215193Y0178767D01*
X0215193Y0177800D02*
X0213742Y0177800D01*
X0213258Y0178284D01*
X0213742Y0178767D01*
X0209315Y0179735D02*
X0208347Y0179735D01*
X0210312Y0182600D02*
X0210312Y0183084D01*
X0212247Y0185019D01*
X0212247Y0185502D01*
X0210312Y0185502D01*
X0212261Y0187400D02*
X0211294Y0189335D01*
X0213229Y0189335D02*
X0212261Y0187400D01*
X0214240Y0187400D02*
X0216175Y0189335D01*
X0216175Y0189819D01*
X0215692Y0190302D01*
X0214724Y0190302D01*
X0214240Y0189819D01*
X0214240Y0187400D02*
X0216175Y0187400D01*
X0217187Y0187400D02*
X0217671Y0187400D01*
X0217671Y0187884D01*
X0217187Y0187884D01*
X0217187Y0187400D01*
X0218660Y0187400D02*
X0220595Y0189335D01*
X0220595Y0189819D01*
X0220111Y0190302D01*
X0219144Y0190302D01*
X0218660Y0189819D01*
X0218660Y0187400D02*
X0220595Y0187400D01*
X0221607Y0187400D02*
X0222090Y0187400D01*
X0222090Y0187884D01*
X0221607Y0187884D01*
X0221607Y0187400D01*
X0223080Y0187884D02*
X0225015Y0189819D01*
X0225015Y0187884D01*
X0224531Y0187400D01*
X0223564Y0187400D01*
X0223080Y0187884D01*
X0223080Y0189819D01*
X0223564Y0190302D01*
X0224531Y0190302D01*
X0225015Y0189819D01*
X0239278Y0170135D02*
X0240730Y0170135D01*
X0240730Y0171102D02*
X0240730Y0168200D01*
X0239278Y0168200D01*
X0238795Y0168684D01*
X0238795Y0169651D01*
X0239278Y0170135D01*
X0177116Y0259096D02*
X0173413Y0259096D01*
X0173413Y0260947D01*
X0174030Y0261564D01*
X0176499Y0261564D01*
X0177116Y0260947D01*
X0177116Y0259096D01*
X0176499Y0262779D02*
X0177116Y0263396D01*
X0177116Y0264630D01*
X0176499Y0265248D01*
X0175881Y0265248D01*
X0175264Y0264630D01*
X0175264Y0264013D01*
X0175264Y0264630D02*
X0174647Y0265248D01*
X0174030Y0265248D01*
X0173413Y0264630D01*
X0173413Y0263396D01*
X0174030Y0262779D01*
X0175264Y0266462D02*
X0175264Y0268931D01*
X0173413Y0270145D02*
X0173413Y0271380D01*
X0173413Y0270762D02*
X0177116Y0270762D01*
X0177116Y0270145D02*
X0177116Y0271380D01*
X0177116Y0272601D02*
X0173413Y0272601D01*
X0177116Y0275069D01*
X0173413Y0275069D01*
X0173413Y0276284D02*
X0173413Y0278752D01*
X0173413Y0277518D02*
X0177116Y0277518D01*
X0177116Y0279967D02*
X0177116Y0282436D01*
X0177116Y0281201D02*
X0173413Y0281201D01*
X0174647Y0279967D01*
X0080999Y0076485D02*
X0078530Y0076485D01*
X0077913Y0075868D01*
X0077913Y0074016D01*
X0081616Y0074016D01*
X0081616Y0075868D01*
X0080999Y0076485D01*
X0081616Y0072802D02*
X0077913Y0072802D01*
X0077913Y0070333D02*
X0081616Y0072802D01*
X0081616Y0070333D02*
X0077913Y0070333D01*
X0078530Y0069119D02*
X0077913Y0068502D01*
X0077913Y0067267D01*
X0078530Y0066650D01*
X0080999Y0066650D01*
X0081616Y0067267D01*
X0081616Y0068502D01*
X0080999Y0069119D01*
X0079764Y0069119D01*
X0079764Y0067884D01*
D12*
X0088297Y0067384D02*
X0088297Y0066250D01*
X0088297Y0066817D02*
X0091700Y0066817D01*
X0091700Y0066250D02*
X0091700Y0067384D01*
X0091133Y0068705D02*
X0091700Y0069273D01*
X0091700Y0070407D01*
X0091133Y0070974D01*
X0088864Y0070974D01*
X0088297Y0070407D01*
X0088297Y0069273D01*
X0088864Y0068705D01*
X0091133Y0068705D01*
X0091700Y0072389D02*
X0088297Y0072389D01*
X0088297Y0074090D01*
X0088864Y0074657D01*
X0089999Y0074657D01*
X0090566Y0074090D01*
X0090566Y0072389D01*
X0090566Y0073523D02*
X0091700Y0074657D01*
X0091700Y0076072D02*
X0091700Y0078340D01*
X0091700Y0079755D02*
X0088297Y0079755D01*
X0088297Y0082023D01*
X0089999Y0080889D02*
X0089999Y0079755D01*
X0088297Y0078340D02*
X0088297Y0076072D01*
X0091700Y0076072D01*
X0089999Y0076072D02*
X0089999Y0077206D01*
X0098297Y0075885D02*
X0098297Y0073616D01*
X0098297Y0074751D02*
X0101700Y0074751D01*
X0101133Y0072202D02*
X0101700Y0071635D01*
X0101700Y0070500D01*
X0101133Y0069933D01*
X0099999Y0070500D02*
X0099431Y0069933D01*
X0098864Y0069933D01*
X0098297Y0070500D01*
X0098297Y0071635D01*
X0098864Y0072202D01*
X0099999Y0071635D02*
X0100566Y0072202D01*
X0101133Y0072202D01*
X0099999Y0071635D02*
X0099999Y0070500D01*
X0099999Y0068519D02*
X0098864Y0068519D01*
X0098297Y0067951D01*
X0098297Y0066250D01*
X0101700Y0066250D01*
X0100566Y0066250D02*
X0100566Y0067951D01*
X0099999Y0068519D01*
X0100566Y0067384D02*
X0101700Y0068519D01*
X0108297Y0070500D02*
X0108864Y0069933D01*
X0108297Y0070500D02*
X0108297Y0071635D01*
X0108864Y0072202D01*
X0109431Y0072202D01*
X0109999Y0071635D01*
X0110566Y0072202D01*
X0111133Y0072202D01*
X0111700Y0071635D01*
X0111700Y0070500D01*
X0111133Y0069933D01*
X0109999Y0071067D02*
X0109999Y0071635D01*
X0111133Y0073616D02*
X0111133Y0074183D01*
X0111700Y0074183D01*
X0111700Y0073616D01*
X0111133Y0073616D01*
X0111133Y0075458D02*
X0111700Y0076025D01*
X0111700Y0077159D01*
X0111133Y0077726D01*
X0110566Y0077726D01*
X0109999Y0077159D01*
X0109999Y0076592D01*
X0109999Y0077159D02*
X0109431Y0077726D01*
X0108864Y0077726D01*
X0108297Y0077159D01*
X0108297Y0076025D01*
X0108864Y0075458D01*
X0108297Y0079141D02*
X0110566Y0079141D01*
X0111700Y0080275D01*
X0110566Y0081410D01*
X0108297Y0081410D01*
X0118297Y0079001D02*
X0118297Y0077867D01*
X0118864Y0077299D01*
X0121133Y0077299D01*
X0121700Y0077867D01*
X0121700Y0079001D01*
X0121133Y0079568D01*
X0118864Y0079568D02*
X0118297Y0079001D01*
X0118864Y0075885D02*
X0118297Y0075318D01*
X0118297Y0074183D01*
X0118864Y0073616D01*
X0121133Y0073616D01*
X0121700Y0074183D01*
X0121700Y0075318D01*
X0121133Y0075885D01*
X0120566Y0072202D02*
X0118297Y0072202D01*
X0120566Y0072202D02*
X0121700Y0071067D01*
X0120566Y0069933D01*
X0118297Y0069933D01*
X0119999Y0068519D02*
X0119999Y0066250D01*
X0121133Y0067384D02*
X0118864Y0067384D01*
X0111133Y0067384D02*
X0108864Y0067384D01*
X0109999Y0066250D02*
X0109999Y0068519D01*
X0128297Y0067951D02*
X0128297Y0066817D01*
X0128864Y0066250D01*
X0131133Y0066250D01*
X0131700Y0066817D01*
X0131700Y0067951D01*
X0131133Y0068519D01*
X0129999Y0068519D01*
X0129999Y0067384D01*
X0128864Y0068519D02*
X0128297Y0067951D01*
X0128297Y0069933D02*
X0131700Y0072202D01*
X0128297Y0072202D01*
X0128297Y0073616D02*
X0128297Y0075318D01*
X0128864Y0075885D01*
X0131133Y0075885D01*
X0131700Y0075318D01*
X0131700Y0073616D01*
X0128297Y0073616D01*
X0128297Y0069933D02*
X0131700Y0069933D01*
X0138297Y0069933D02*
X0141700Y0072202D01*
X0138297Y0072202D01*
X0138297Y0073616D02*
X0138297Y0075318D01*
X0138864Y0075885D01*
X0141133Y0075885D01*
X0141700Y0075318D01*
X0141700Y0073616D01*
X0138297Y0073616D01*
X0138297Y0069933D02*
X0141700Y0069933D01*
X0141133Y0068519D02*
X0141700Y0067951D01*
X0141700Y0066817D01*
X0141133Y0066250D01*
X0138864Y0066250D01*
X0138297Y0066817D01*
X0138297Y0067951D01*
X0138864Y0068519D01*
X0139999Y0068519D02*
X0139999Y0067384D01*
X0139999Y0068519D02*
X0141133Y0068519D01*
X0148297Y0069933D02*
X0150566Y0069933D01*
X0151700Y0071067D01*
X0150566Y0072202D01*
X0148297Y0072202D01*
X0148864Y0073616D02*
X0148297Y0074183D01*
X0148297Y0075318D01*
X0148864Y0075885D01*
X0148864Y0077299D02*
X0148297Y0077867D01*
X0148297Y0079001D01*
X0148864Y0079568D01*
X0148864Y0077299D02*
X0151133Y0077299D01*
X0151700Y0077867D01*
X0151700Y0079001D01*
X0151133Y0079568D01*
X0151133Y0075885D02*
X0151700Y0075318D01*
X0151700Y0074183D01*
X0151133Y0073616D01*
X0148864Y0073616D01*
X0149999Y0068519D02*
X0149999Y0066250D01*
X0151133Y0067384D02*
X0148864Y0067384D01*
X0168297Y0066817D02*
X0168297Y0067951D01*
X0168864Y0068519D01*
X0171133Y0066250D01*
X0171700Y0066817D01*
X0171700Y0067951D01*
X0171133Y0068519D01*
X0168864Y0068519D01*
X0168297Y0066817D02*
X0168864Y0066250D01*
X0171133Y0066250D01*
X0175107Y0072250D02*
X0175107Y0074519D01*
X0176241Y0075653D01*
X0177376Y0074519D01*
X0177376Y0072250D01*
X0178790Y0072250D02*
X0178790Y0074519D01*
X0180492Y0074519D01*
X0181059Y0073951D01*
X0181059Y0072250D01*
X0182473Y0072817D02*
X0183041Y0073384D01*
X0184742Y0073384D01*
X0184742Y0073951D02*
X0184742Y0072250D01*
X0183041Y0072250D01*
X0182473Y0072817D01*
X0183041Y0074519D02*
X0184175Y0074519D01*
X0184742Y0073951D01*
X0186157Y0072250D02*
X0187291Y0072250D01*
X0186724Y0072250D02*
X0186724Y0075653D01*
X0186157Y0075653D01*
X0188612Y0073951D02*
X0188612Y0072817D01*
X0189179Y0072250D01*
X0190313Y0072250D01*
X0190881Y0072817D01*
X0190881Y0073951D01*
X0190313Y0074519D01*
X0189179Y0074519D01*
X0188612Y0073951D01*
X0192295Y0073951D02*
X0192295Y0072817D01*
X0192862Y0072250D01*
X0194564Y0072250D01*
X0194564Y0071683D02*
X0194564Y0074519D01*
X0192862Y0074519D01*
X0192295Y0073951D01*
X0193429Y0071116D02*
X0193997Y0071116D01*
X0194564Y0071683D01*
X0191700Y0068519D02*
X0191700Y0066250D01*
X0189431Y0068519D01*
X0188864Y0068519D01*
X0188297Y0067951D01*
X0188297Y0066817D01*
X0188864Y0066250D01*
X0181700Y0066250D02*
X0181700Y0068519D01*
X0181700Y0067384D02*
X0178297Y0067384D01*
X0179431Y0066250D01*
X0177376Y0073951D02*
X0175107Y0073951D01*
X0198297Y0067951D02*
X0198864Y0068519D01*
X0199431Y0068519D01*
X0199999Y0067951D01*
X0200566Y0068519D01*
X0201133Y0068519D01*
X0201700Y0067951D01*
X0201700Y0066817D01*
X0201133Y0066250D01*
X0199999Y0067384D02*
X0199999Y0067951D01*
X0198297Y0067951D02*
X0198297Y0066817D01*
X0198864Y0066250D01*
X0199661Y0072250D02*
X0200796Y0072250D01*
X0200229Y0072250D02*
X0200229Y0075653D01*
X0200796Y0075653D02*
X0199661Y0075653D01*
X0202117Y0074519D02*
X0202117Y0072250D01*
X0204385Y0072250D02*
X0204385Y0073951D01*
X0203818Y0074519D01*
X0202117Y0074519D01*
X0208297Y0074751D02*
X0209431Y0075885D01*
X0211700Y0075885D01*
X0209999Y0075885D02*
X0209999Y0073616D01*
X0209431Y0073616D02*
X0208297Y0074751D01*
X0209431Y0073616D02*
X0211700Y0073616D01*
X0211133Y0072202D02*
X0208864Y0072202D01*
X0208297Y0071635D01*
X0208297Y0069933D01*
X0211700Y0069933D01*
X0211700Y0071635D01*
X0211133Y0072202D01*
X0211133Y0068519D02*
X0210566Y0068519D01*
X0209999Y0067951D01*
X0209999Y0066817D01*
X0209431Y0066250D01*
X0208864Y0066250D01*
X0208297Y0066817D01*
X0208297Y0067951D01*
X0208864Y0068519D01*
X0211133Y0068519D02*
X0211700Y0067951D01*
X0211700Y0066817D01*
X0211133Y0066250D01*
X0218297Y0066817D02*
X0218864Y0066250D01*
X0219431Y0066250D01*
X0219999Y0066817D01*
X0219999Y0067951D01*
X0220566Y0068519D01*
X0221133Y0068519D01*
X0221700Y0067951D01*
X0221700Y0066817D01*
X0221133Y0066250D01*
X0218297Y0066817D02*
X0218297Y0067951D01*
X0218864Y0068519D01*
X0218864Y0069933D02*
X0221133Y0069933D01*
X0221700Y0070500D01*
X0221700Y0071635D01*
X0221133Y0072202D01*
X0221700Y0073616D02*
X0218297Y0073616D01*
X0218864Y0072202D02*
X0218297Y0071635D01*
X0218297Y0070500D01*
X0218864Y0069933D01*
X0221700Y0073616D02*
X0221700Y0075885D01*
X0183750Y0210300D02*
X0146750Y0210300D01*
X0146674Y0210302D01*
X0146598Y0210308D01*
X0146523Y0210317D01*
X0146448Y0210331D01*
X0146374Y0210348D01*
X0146301Y0210369D01*
X0146229Y0210393D01*
X0146158Y0210422D01*
X0146089Y0210453D01*
X0146022Y0210488D01*
X0145957Y0210527D01*
X0145893Y0210569D01*
X0145832Y0210614D01*
X0145773Y0210662D01*
X0145717Y0210713D01*
X0145663Y0210767D01*
X0145612Y0210823D01*
X0145564Y0210882D01*
X0145519Y0210943D01*
X0145477Y0211007D01*
X0145438Y0211072D01*
X0145403Y0211139D01*
X0145372Y0211208D01*
X0145343Y0211279D01*
X0145319Y0211351D01*
X0145298Y0211424D01*
X0145281Y0211498D01*
X0145267Y0211573D01*
X0145258Y0211648D01*
X0145252Y0211724D01*
X0145250Y0211800D01*
X0145250Y0224200D01*
X0145252Y0224276D01*
X0145258Y0224352D01*
X0145267Y0224427D01*
X0145281Y0224502D01*
X0145298Y0224576D01*
X0145319Y0224649D01*
X0145343Y0224721D01*
X0145372Y0224792D01*
X0145403Y0224861D01*
X0145438Y0224928D01*
X0145477Y0224993D01*
X0145519Y0225057D01*
X0145564Y0225118D01*
X0145612Y0225177D01*
X0145663Y0225233D01*
X0145717Y0225287D01*
X0145773Y0225338D01*
X0145832Y0225386D01*
X0145893Y0225431D01*
X0145957Y0225473D01*
X0146022Y0225512D01*
X0146089Y0225547D01*
X0146158Y0225578D01*
X0146229Y0225607D01*
X0146301Y0225631D01*
X0146374Y0225652D01*
X0146448Y0225669D01*
X0146523Y0225683D01*
X0146598Y0225692D01*
X0146674Y0225698D01*
X0146750Y0225700D01*
X0183750Y0225700D01*
X0183826Y0225698D01*
X0183902Y0225692D01*
X0183977Y0225683D01*
X0184052Y0225669D01*
X0184126Y0225652D01*
X0184199Y0225631D01*
X0184271Y0225607D01*
X0184342Y0225578D01*
X0184411Y0225547D01*
X0184478Y0225512D01*
X0184543Y0225473D01*
X0184607Y0225431D01*
X0184668Y0225386D01*
X0184727Y0225338D01*
X0184783Y0225287D01*
X0184837Y0225233D01*
X0184888Y0225177D01*
X0184936Y0225118D01*
X0184981Y0225057D01*
X0185023Y0224993D01*
X0185062Y0224928D01*
X0185097Y0224861D01*
X0185128Y0224792D01*
X0185157Y0224721D01*
X0185181Y0224649D01*
X0185202Y0224576D01*
X0185219Y0224502D01*
X0185233Y0224427D01*
X0185242Y0224352D01*
X0185248Y0224276D01*
X0185250Y0224200D01*
X0185250Y0220000D01*
X0185250Y0216000D01*
X0185250Y0211800D01*
X0185248Y0211724D01*
X0185242Y0211648D01*
X0185233Y0211573D01*
X0185219Y0211498D01*
X0185202Y0211424D01*
X0185181Y0211351D01*
X0185157Y0211279D01*
X0185128Y0211208D01*
X0185097Y0211139D01*
X0185062Y0211072D01*
X0185023Y0211007D01*
X0184981Y0210943D01*
X0184936Y0210882D01*
X0184888Y0210823D01*
X0184837Y0210767D01*
X0184783Y0210713D01*
X0184727Y0210662D01*
X0184668Y0210614D01*
X0184607Y0210569D01*
X0184543Y0210527D01*
X0184478Y0210488D01*
X0184411Y0210453D01*
X0184342Y0210422D01*
X0184271Y0210393D01*
X0184199Y0210369D01*
X0184126Y0210348D01*
X0184052Y0210331D01*
X0183977Y0210317D01*
X0183902Y0210308D01*
X0183826Y0210302D01*
X0183750Y0210300D01*
X0185250Y0216000D02*
X0185162Y0216002D01*
X0185073Y0216008D01*
X0184985Y0216018D01*
X0184898Y0216031D01*
X0184811Y0216049D01*
X0184725Y0216070D01*
X0184640Y0216095D01*
X0184557Y0216124D01*
X0184474Y0216157D01*
X0184394Y0216193D01*
X0184315Y0216232D01*
X0184237Y0216275D01*
X0184162Y0216322D01*
X0184089Y0216372D01*
X0184018Y0216425D01*
X0183949Y0216481D01*
X0183883Y0216540D01*
X0183820Y0216602D01*
X0183760Y0216666D01*
X0183702Y0216733D01*
X0183648Y0216803D01*
X0183596Y0216875D01*
X0183548Y0216949D01*
X0183503Y0217026D01*
X0183462Y0217104D01*
X0183424Y0217184D01*
X0183390Y0217265D01*
X0183359Y0217348D01*
X0183332Y0217433D01*
X0183309Y0217518D01*
X0183290Y0217604D01*
X0183274Y0217692D01*
X0183262Y0217779D01*
X0183254Y0217867D01*
X0183250Y0217956D01*
X0183250Y0218044D01*
X0183254Y0218133D01*
X0183262Y0218221D01*
X0183274Y0218308D01*
X0183290Y0218396D01*
X0183309Y0218482D01*
X0183332Y0218567D01*
X0183359Y0218652D01*
X0183390Y0218735D01*
X0183424Y0218816D01*
X0183462Y0218896D01*
X0183503Y0218974D01*
X0183548Y0219051D01*
X0183596Y0219125D01*
X0183648Y0219197D01*
X0183702Y0219267D01*
X0183760Y0219334D01*
X0183820Y0219398D01*
X0183883Y0219460D01*
X0183949Y0219519D01*
X0184018Y0219575D01*
X0184089Y0219628D01*
X0184162Y0219678D01*
X0184237Y0219725D01*
X0184315Y0219768D01*
X0184394Y0219807D01*
X0184474Y0219843D01*
X0184557Y0219876D01*
X0184640Y0219905D01*
X0184725Y0219930D01*
X0184811Y0219951D01*
X0184898Y0219969D01*
X0184985Y0219982D01*
X0185073Y0219992D01*
X0185162Y0219998D01*
X0185250Y0220000D01*
X0188297Y0235978D02*
X0188297Y0237113D01*
X0188297Y0236545D02*
X0191700Y0236545D01*
X0191700Y0235978D02*
X0191700Y0237113D01*
X0191700Y0238434D02*
X0188297Y0238434D01*
X0191700Y0240702D01*
X0188297Y0240702D01*
X0188297Y0242117D02*
X0188297Y0244385D01*
X0188297Y0243251D02*
X0191700Y0243251D01*
X0198297Y0243251D02*
X0201700Y0243251D01*
X0201700Y0240702D02*
X0198297Y0240702D01*
X0198297Y0242117D02*
X0198297Y0244385D01*
X0201700Y0240702D02*
X0198297Y0238434D01*
X0201700Y0238434D01*
X0201700Y0237113D02*
X0201700Y0235978D01*
X0201700Y0236545D02*
X0198297Y0236545D01*
X0198297Y0235978D02*
X0198297Y0237113D01*
X0208297Y0238434D02*
X0208297Y0240702D01*
X0208297Y0239568D02*
X0211700Y0239568D01*
X0211700Y0242117D02*
X0208297Y0244385D01*
X0208297Y0242117D02*
X0211700Y0244385D01*
X0218297Y0244385D02*
X0221700Y0242117D01*
X0221700Y0240702D02*
X0220566Y0239568D01*
X0220566Y0240135D02*
X0220566Y0238434D01*
X0221700Y0238434D02*
X0218297Y0238434D01*
X0218297Y0240135D01*
X0218864Y0240702D01*
X0219999Y0240702D01*
X0220566Y0240135D01*
X0218297Y0242117D02*
X0221700Y0244385D01*
X0181700Y0243818D02*
X0178297Y0243818D01*
X0179999Y0242117D01*
X0179999Y0244385D01*
X0171700Y0243818D02*
X0171700Y0242684D01*
X0171133Y0242117D01*
X0169999Y0242117D02*
X0169431Y0243251D01*
X0169431Y0243818D01*
X0169999Y0244385D01*
X0171133Y0244385D01*
X0171700Y0243818D01*
X0169999Y0242117D02*
X0168297Y0242117D01*
X0168297Y0244385D01*
X0161700Y0243818D02*
X0161133Y0244385D01*
X0160566Y0244385D01*
X0159999Y0243818D01*
X0159999Y0242117D01*
X0161133Y0242117D01*
X0161700Y0242684D01*
X0161700Y0243818D01*
X0159999Y0242117D02*
X0158864Y0243251D01*
X0158297Y0244385D01*
X0151700Y0242117D02*
X0151133Y0242117D01*
X0148864Y0244385D01*
X0148297Y0244385D01*
X0148297Y0242117D01*
X0136700Y0242684D02*
X0136133Y0242117D01*
X0135566Y0242117D01*
X0134999Y0242684D01*
X0134999Y0243818D01*
X0135566Y0244385D01*
X0136133Y0244385D01*
X0136700Y0243818D01*
X0136700Y0242684D01*
X0134999Y0242684D02*
X0134431Y0242117D01*
X0133864Y0242117D01*
X0133297Y0242684D01*
X0133297Y0243818D01*
X0133864Y0244385D01*
X0134431Y0244385D01*
X0134999Y0243818D01*
X0126700Y0243818D02*
X0126133Y0244385D01*
X0123864Y0244385D01*
X0123297Y0243818D01*
X0123297Y0242684D01*
X0123864Y0242117D01*
X0124431Y0242117D01*
X0124999Y0242684D01*
X0124999Y0244385D01*
X0126700Y0243818D02*
X0126700Y0242684D01*
X0126133Y0242117D01*
X0116700Y0242684D02*
X0116133Y0242117D01*
X0116700Y0242684D02*
X0116700Y0243818D01*
X0116133Y0244385D01*
X0115566Y0244385D01*
X0114999Y0243818D01*
X0114999Y0242684D01*
X0114431Y0242117D01*
X0113864Y0242117D01*
X0113297Y0242684D01*
X0113297Y0243818D01*
X0113864Y0244385D01*
X0113864Y0240702D02*
X0113297Y0240135D01*
X0113297Y0239001D01*
X0113864Y0238434D01*
X0116133Y0238434D01*
X0116700Y0239001D01*
X0116700Y0240135D01*
X0116133Y0240702D01*
X0106700Y0240229D02*
X0106133Y0239661D01*
X0106700Y0240229D02*
X0106700Y0241363D01*
X0106133Y0241930D01*
X0105566Y0241930D01*
X0104999Y0241363D01*
X0104999Y0240229D01*
X0104431Y0239661D01*
X0103864Y0239661D01*
X0103297Y0240229D01*
X0103297Y0241363D01*
X0103864Y0241930D01*
X0103297Y0243345D02*
X0103297Y0244479D01*
X0103297Y0243912D02*
X0106700Y0243912D01*
X0106700Y0243345D02*
X0106700Y0244479D01*
X0106133Y0238247D02*
X0103864Y0238247D01*
X0103297Y0237680D01*
X0103297Y0236545D01*
X0103864Y0235978D01*
X0106133Y0235978D01*
X0106700Y0236545D01*
X0106700Y0237680D01*
X0106133Y0238247D01*
X0106700Y0234564D02*
X0103297Y0234564D01*
X0104431Y0233429D01*
X0103297Y0232295D01*
X0106700Y0232295D01*
X0096700Y0232295D02*
X0093297Y0232295D01*
X0094431Y0233429D01*
X0093297Y0234564D01*
X0096700Y0234564D01*
X0096700Y0235978D02*
X0096700Y0237113D01*
X0096700Y0236545D02*
X0093297Y0236545D01*
X0093297Y0235978D02*
X0093297Y0237113D01*
X0093864Y0238434D02*
X0094431Y0238434D01*
X0094999Y0239001D01*
X0094999Y0240135D01*
X0095566Y0240702D01*
X0096133Y0240702D01*
X0096700Y0240135D01*
X0096700Y0239001D01*
X0096133Y0238434D01*
X0093864Y0238434D02*
X0093297Y0239001D01*
X0093297Y0240135D01*
X0093864Y0240702D01*
X0093864Y0242117D02*
X0096133Y0242117D01*
X0096700Y0242684D01*
X0096700Y0243818D01*
X0096133Y0244385D01*
X0093864Y0244385D01*
X0093297Y0243818D01*
X0093297Y0242684D01*
X0093864Y0242117D01*
X0086700Y0242117D02*
X0083297Y0242117D01*
X0083864Y0240702D02*
X0083297Y0240135D01*
X0083297Y0239001D01*
X0083864Y0238434D01*
X0086133Y0238434D01*
X0086700Y0239001D01*
X0086700Y0240135D01*
X0086133Y0240702D01*
X0085566Y0242117D02*
X0083297Y0244385D01*
X0084999Y0242684D02*
X0086700Y0244385D01*
X0086133Y0237019D02*
X0086700Y0236452D01*
X0086700Y0235318D01*
X0086133Y0234751D01*
X0084999Y0235318D02*
X0084999Y0236452D01*
X0085566Y0237019D01*
X0086133Y0237019D01*
X0084999Y0235318D02*
X0084431Y0234751D01*
X0083864Y0234751D01*
X0083297Y0235318D01*
X0083297Y0236452D01*
X0083864Y0237019D01*
X0076700Y0236452D02*
X0076700Y0235318D01*
X0076133Y0234751D01*
X0073864Y0234751D01*
X0073297Y0235318D01*
X0073297Y0236452D01*
X0073864Y0237019D01*
X0074999Y0237019D02*
X0074999Y0235885D01*
X0074999Y0237019D02*
X0076133Y0237019D01*
X0076700Y0236452D01*
X0076700Y0238434D02*
X0073297Y0238434D01*
X0076700Y0240702D01*
X0073297Y0240702D01*
X0073297Y0242117D02*
X0073297Y0243818D01*
X0073864Y0244385D01*
X0076133Y0244385D01*
X0076700Y0243818D01*
X0076700Y0242117D01*
X0073297Y0242117D01*
X0066700Y0242117D02*
X0063297Y0242117D01*
X0063297Y0244385D01*
X0064999Y0243251D02*
X0064999Y0242117D01*
X0066700Y0240702D02*
X0066700Y0238434D01*
X0063297Y0238434D01*
X0063297Y0240702D01*
X0064999Y0239568D02*
X0064999Y0238434D01*
X0064999Y0237019D02*
X0065566Y0236452D01*
X0065566Y0234751D01*
X0065566Y0235885D02*
X0066700Y0237019D01*
X0064999Y0237019D02*
X0063864Y0237019D01*
X0063297Y0236452D01*
X0063297Y0234751D01*
X0066700Y0234751D01*
X0066700Y0233336D02*
X0064431Y0233336D01*
X0063297Y0232202D01*
X0064431Y0231067D01*
X0066700Y0231067D01*
X0064999Y0231067D02*
X0064999Y0233336D01*
X0056700Y0235318D02*
X0056133Y0234751D01*
X0056700Y0235318D02*
X0056700Y0236452D01*
X0056133Y0237019D01*
X0055566Y0237019D01*
X0054999Y0236452D01*
X0054999Y0235318D01*
X0054431Y0234751D01*
X0053864Y0234751D01*
X0053297Y0235318D01*
X0053297Y0236452D01*
X0053864Y0237019D01*
X0053297Y0238434D02*
X0053297Y0240135D01*
X0053864Y0240702D01*
X0056133Y0240702D01*
X0056700Y0240135D01*
X0056700Y0238434D01*
X0053297Y0238434D01*
X0054431Y0242117D02*
X0053297Y0243251D01*
X0054431Y0244385D01*
X0056700Y0244385D01*
X0054999Y0244385D02*
X0054999Y0242117D01*
X0054431Y0242117D02*
X0056700Y0242117D01*
X0046700Y0242117D02*
X0046700Y0244385D01*
X0046700Y0242117D02*
X0043297Y0242117D01*
X0043864Y0240702D02*
X0043297Y0240135D01*
X0043297Y0239001D01*
X0043864Y0238434D01*
X0046133Y0238434D01*
X0046700Y0239001D01*
X0046700Y0240135D01*
X0046133Y0240702D01*
X0046133Y0237019D02*
X0046700Y0236452D01*
X0046700Y0235318D01*
X0046133Y0234751D01*
X0044999Y0235318D02*
X0044999Y0236452D01*
X0045566Y0237019D01*
X0046133Y0237019D01*
X0044999Y0235318D02*
X0044431Y0234751D01*
X0043864Y0234751D01*
X0043297Y0235318D01*
X0043297Y0236452D01*
X0043864Y0237019D01*
X0087450Y0204600D02*
X0087450Y0197800D01*
X0087450Y0193400D01*
X0087450Y0197800D02*
X0087518Y0197805D01*
X0087586Y0197814D01*
X0087654Y0197826D01*
X0087720Y0197843D01*
X0087786Y0197863D01*
X0087850Y0197887D01*
X0087913Y0197914D01*
X0087974Y0197945D01*
X0088034Y0197980D01*
X0088091Y0198018D01*
X0088146Y0198059D01*
X0088198Y0198103D01*
X0088248Y0198150D01*
X0088295Y0198200D01*
X0088340Y0198252D01*
X0088381Y0198307D01*
X0088419Y0198364D01*
X0088453Y0198423D01*
X0088485Y0198484D01*
X0088512Y0198547D01*
X0088536Y0198611D01*
X0088557Y0198677D01*
X0088573Y0198743D01*
X0088586Y0198811D01*
X0088595Y0198879D01*
X0088600Y0198947D01*
X0088601Y0199016D01*
X0088598Y0199084D01*
X0088591Y0199153D01*
X0088581Y0199220D01*
X0088566Y0199287D01*
X0088548Y0199353D01*
X0088526Y0199418D01*
X0088500Y0199482D01*
X0088471Y0199544D01*
X0088438Y0199604D01*
X0088402Y0199662D01*
X0088362Y0199719D01*
X0088320Y0199772D01*
X0088274Y0199824D01*
X0088226Y0199872D01*
X0088175Y0199918D01*
X0088121Y0199961D01*
X0088065Y0200000D01*
X0088007Y0200037D01*
X0087947Y0200069D01*
X0087885Y0200099D01*
X0087821Y0200125D01*
X0087756Y0200147D01*
X0087690Y0200165D01*
X0087623Y0200180D01*
X0087555Y0200191D01*
X0087487Y0200198D01*
X0087419Y0200201D01*
X0087350Y0200200D01*
X0107050Y0204600D02*
X0107050Y0193400D01*
X0083750Y0145000D02*
X0082250Y0145000D01*
X0081750Y0144500D01*
X0062750Y0144500D01*
X0062250Y0145000D01*
X0060750Y0145000D01*
X0060690Y0144998D01*
X0060629Y0144993D01*
X0060570Y0144984D01*
X0060511Y0144971D01*
X0060452Y0144955D01*
X0060395Y0144935D01*
X0060340Y0144912D01*
X0060285Y0144885D01*
X0060233Y0144856D01*
X0060182Y0144823D01*
X0060133Y0144787D01*
X0060087Y0144749D01*
X0060043Y0144707D01*
X0060001Y0144663D01*
X0059963Y0144617D01*
X0059927Y0144568D01*
X0059894Y0144517D01*
X0059865Y0144465D01*
X0059838Y0144410D01*
X0059815Y0144355D01*
X0059795Y0144298D01*
X0059779Y0144239D01*
X0059766Y0144180D01*
X0059757Y0144121D01*
X0059752Y0144060D01*
X0059750Y0144000D01*
X0059750Y0137000D01*
X0059752Y0136940D01*
X0059757Y0136879D01*
X0059766Y0136820D01*
X0059779Y0136761D01*
X0059795Y0136702D01*
X0059815Y0136645D01*
X0059838Y0136590D01*
X0059865Y0136535D01*
X0059894Y0136483D01*
X0059927Y0136432D01*
X0059963Y0136383D01*
X0060001Y0136337D01*
X0060043Y0136293D01*
X0060087Y0136251D01*
X0060133Y0136213D01*
X0060182Y0136177D01*
X0060233Y0136144D01*
X0060285Y0136115D01*
X0060340Y0136088D01*
X0060395Y0136065D01*
X0060452Y0136045D01*
X0060511Y0136029D01*
X0060570Y0136016D01*
X0060629Y0136007D01*
X0060690Y0136002D01*
X0060750Y0136000D01*
X0062250Y0136000D01*
X0062750Y0136500D01*
X0081750Y0136500D01*
X0082250Y0136000D01*
X0083750Y0136000D01*
X0083750Y0135000D02*
X0082250Y0135000D01*
X0081750Y0134500D01*
X0062750Y0134500D01*
X0062250Y0135000D01*
X0060750Y0135000D01*
X0060690Y0134998D01*
X0060629Y0134993D01*
X0060570Y0134984D01*
X0060511Y0134971D01*
X0060452Y0134955D01*
X0060395Y0134935D01*
X0060340Y0134912D01*
X0060285Y0134885D01*
X0060233Y0134856D01*
X0060182Y0134823D01*
X0060133Y0134787D01*
X0060087Y0134749D01*
X0060043Y0134707D01*
X0060001Y0134663D01*
X0059963Y0134617D01*
X0059927Y0134568D01*
X0059894Y0134517D01*
X0059865Y0134465D01*
X0059838Y0134410D01*
X0059815Y0134355D01*
X0059795Y0134298D01*
X0059779Y0134239D01*
X0059766Y0134180D01*
X0059757Y0134121D01*
X0059752Y0134060D01*
X0059750Y0134000D01*
X0059750Y0127000D01*
X0059752Y0126940D01*
X0059757Y0126879D01*
X0059766Y0126820D01*
X0059779Y0126761D01*
X0059795Y0126702D01*
X0059815Y0126645D01*
X0059838Y0126590D01*
X0059865Y0126535D01*
X0059894Y0126483D01*
X0059927Y0126432D01*
X0059963Y0126383D01*
X0060001Y0126337D01*
X0060043Y0126293D01*
X0060087Y0126251D01*
X0060133Y0126213D01*
X0060182Y0126177D01*
X0060233Y0126144D01*
X0060285Y0126115D01*
X0060340Y0126088D01*
X0060395Y0126065D01*
X0060452Y0126045D01*
X0060511Y0126029D01*
X0060570Y0126016D01*
X0060629Y0126007D01*
X0060690Y0126002D01*
X0060750Y0126000D01*
X0062250Y0126000D01*
X0062750Y0126500D01*
X0081750Y0126500D01*
X0082250Y0126000D01*
X0083750Y0126000D01*
X0083810Y0126002D01*
X0083871Y0126007D01*
X0083930Y0126016D01*
X0083989Y0126029D01*
X0084048Y0126045D01*
X0084105Y0126065D01*
X0084160Y0126088D01*
X0084215Y0126115D01*
X0084267Y0126144D01*
X0084318Y0126177D01*
X0084367Y0126213D01*
X0084413Y0126251D01*
X0084457Y0126293D01*
X0084499Y0126337D01*
X0084537Y0126383D01*
X0084573Y0126432D01*
X0084606Y0126483D01*
X0084635Y0126535D01*
X0084662Y0126590D01*
X0084685Y0126645D01*
X0084705Y0126702D01*
X0084721Y0126761D01*
X0084734Y0126820D01*
X0084743Y0126879D01*
X0084748Y0126940D01*
X0084750Y0127000D01*
X0084750Y0134000D01*
X0084748Y0134060D01*
X0084743Y0134121D01*
X0084734Y0134180D01*
X0084721Y0134239D01*
X0084705Y0134298D01*
X0084685Y0134355D01*
X0084662Y0134410D01*
X0084635Y0134465D01*
X0084606Y0134517D01*
X0084573Y0134568D01*
X0084537Y0134617D01*
X0084499Y0134663D01*
X0084457Y0134707D01*
X0084413Y0134749D01*
X0084367Y0134787D01*
X0084318Y0134823D01*
X0084267Y0134856D01*
X0084215Y0134885D01*
X0084160Y0134912D01*
X0084105Y0134935D01*
X0084048Y0134955D01*
X0083989Y0134971D01*
X0083930Y0134984D01*
X0083871Y0134993D01*
X0083810Y0134998D01*
X0083750Y0135000D01*
X0083750Y0136000D02*
X0083810Y0136002D01*
X0083871Y0136007D01*
X0083930Y0136016D01*
X0083989Y0136029D01*
X0084048Y0136045D01*
X0084105Y0136065D01*
X0084160Y0136088D01*
X0084215Y0136115D01*
X0084267Y0136144D01*
X0084318Y0136177D01*
X0084367Y0136213D01*
X0084413Y0136251D01*
X0084457Y0136293D01*
X0084499Y0136337D01*
X0084537Y0136383D01*
X0084573Y0136432D01*
X0084606Y0136483D01*
X0084635Y0136535D01*
X0084662Y0136590D01*
X0084685Y0136645D01*
X0084705Y0136702D01*
X0084721Y0136761D01*
X0084734Y0136820D01*
X0084743Y0136879D01*
X0084748Y0136940D01*
X0084750Y0137000D01*
X0084750Y0144000D01*
X0084748Y0144060D01*
X0084743Y0144121D01*
X0084734Y0144180D01*
X0084721Y0144239D01*
X0084705Y0144298D01*
X0084685Y0144355D01*
X0084662Y0144410D01*
X0084635Y0144465D01*
X0084606Y0144517D01*
X0084573Y0144568D01*
X0084537Y0144617D01*
X0084499Y0144663D01*
X0084457Y0144707D01*
X0084413Y0144749D01*
X0084367Y0144787D01*
X0084318Y0144823D01*
X0084267Y0144856D01*
X0084215Y0144885D01*
X0084160Y0144912D01*
X0084105Y0144935D01*
X0084048Y0144955D01*
X0083989Y0144971D01*
X0083930Y0144984D01*
X0083871Y0144993D01*
X0083810Y0144998D01*
X0083750Y0145000D01*
X0083750Y0125000D02*
X0082250Y0125000D01*
X0081750Y0124500D01*
X0062750Y0124500D01*
X0062250Y0125000D01*
X0060750Y0125000D01*
X0060690Y0124998D01*
X0060629Y0124993D01*
X0060570Y0124984D01*
X0060511Y0124971D01*
X0060452Y0124955D01*
X0060395Y0124935D01*
X0060340Y0124912D01*
X0060285Y0124885D01*
X0060233Y0124856D01*
X0060182Y0124823D01*
X0060133Y0124787D01*
X0060087Y0124749D01*
X0060043Y0124707D01*
X0060001Y0124663D01*
X0059963Y0124617D01*
X0059927Y0124568D01*
X0059894Y0124517D01*
X0059865Y0124465D01*
X0059838Y0124410D01*
X0059815Y0124355D01*
X0059795Y0124298D01*
X0059779Y0124239D01*
X0059766Y0124180D01*
X0059757Y0124121D01*
X0059752Y0124060D01*
X0059750Y0124000D01*
X0059750Y0117000D01*
X0059752Y0116940D01*
X0059757Y0116879D01*
X0059766Y0116820D01*
X0059779Y0116761D01*
X0059795Y0116702D01*
X0059815Y0116645D01*
X0059838Y0116590D01*
X0059865Y0116535D01*
X0059894Y0116483D01*
X0059927Y0116432D01*
X0059963Y0116383D01*
X0060001Y0116337D01*
X0060043Y0116293D01*
X0060087Y0116251D01*
X0060133Y0116213D01*
X0060182Y0116177D01*
X0060233Y0116144D01*
X0060285Y0116115D01*
X0060340Y0116088D01*
X0060395Y0116065D01*
X0060452Y0116045D01*
X0060511Y0116029D01*
X0060570Y0116016D01*
X0060629Y0116007D01*
X0060690Y0116002D01*
X0060750Y0116000D01*
X0062250Y0116000D01*
X0062750Y0116500D01*
X0081750Y0116500D01*
X0082250Y0116000D01*
X0083750Y0116000D01*
X0083810Y0116002D01*
X0083871Y0116007D01*
X0083930Y0116016D01*
X0083989Y0116029D01*
X0084048Y0116045D01*
X0084105Y0116065D01*
X0084160Y0116088D01*
X0084215Y0116115D01*
X0084267Y0116144D01*
X0084318Y0116177D01*
X0084367Y0116213D01*
X0084413Y0116251D01*
X0084457Y0116293D01*
X0084499Y0116337D01*
X0084537Y0116383D01*
X0084573Y0116432D01*
X0084606Y0116483D01*
X0084635Y0116535D01*
X0084662Y0116590D01*
X0084685Y0116645D01*
X0084705Y0116702D01*
X0084721Y0116761D01*
X0084734Y0116820D01*
X0084743Y0116879D01*
X0084748Y0116940D01*
X0084750Y0117000D01*
X0084750Y0124000D01*
X0084748Y0124060D01*
X0084743Y0124121D01*
X0084734Y0124180D01*
X0084721Y0124239D01*
X0084705Y0124298D01*
X0084685Y0124355D01*
X0084662Y0124410D01*
X0084635Y0124465D01*
X0084606Y0124517D01*
X0084573Y0124568D01*
X0084537Y0124617D01*
X0084499Y0124663D01*
X0084457Y0124707D01*
X0084413Y0124749D01*
X0084367Y0124787D01*
X0084318Y0124823D01*
X0084267Y0124856D01*
X0084215Y0124885D01*
X0084160Y0124912D01*
X0084105Y0124935D01*
X0084048Y0124955D01*
X0083989Y0124971D01*
X0083930Y0124984D01*
X0083871Y0124993D01*
X0083810Y0124998D01*
X0083750Y0125000D01*
X0083750Y0115000D02*
X0082250Y0115000D01*
X0081750Y0114500D01*
X0062750Y0114500D01*
X0062250Y0115000D01*
X0060750Y0115000D01*
X0060690Y0114998D01*
X0060629Y0114993D01*
X0060570Y0114984D01*
X0060511Y0114971D01*
X0060452Y0114955D01*
X0060395Y0114935D01*
X0060340Y0114912D01*
X0060285Y0114885D01*
X0060233Y0114856D01*
X0060182Y0114823D01*
X0060133Y0114787D01*
X0060087Y0114749D01*
X0060043Y0114707D01*
X0060001Y0114663D01*
X0059963Y0114617D01*
X0059927Y0114568D01*
X0059894Y0114517D01*
X0059865Y0114465D01*
X0059838Y0114410D01*
X0059815Y0114355D01*
X0059795Y0114298D01*
X0059779Y0114239D01*
X0059766Y0114180D01*
X0059757Y0114121D01*
X0059752Y0114060D01*
X0059750Y0114000D01*
X0059750Y0107000D01*
X0059752Y0106940D01*
X0059757Y0106879D01*
X0059766Y0106820D01*
X0059779Y0106761D01*
X0059795Y0106702D01*
X0059815Y0106645D01*
X0059838Y0106590D01*
X0059865Y0106535D01*
X0059894Y0106483D01*
X0059927Y0106432D01*
X0059963Y0106383D01*
X0060001Y0106337D01*
X0060043Y0106293D01*
X0060087Y0106251D01*
X0060133Y0106213D01*
X0060182Y0106177D01*
X0060233Y0106144D01*
X0060285Y0106115D01*
X0060340Y0106088D01*
X0060395Y0106065D01*
X0060452Y0106045D01*
X0060511Y0106029D01*
X0060570Y0106016D01*
X0060629Y0106007D01*
X0060690Y0106002D01*
X0060750Y0106000D01*
X0062250Y0106000D01*
X0062750Y0106500D01*
X0081750Y0106500D01*
X0082250Y0106000D01*
X0083750Y0106000D01*
X0083810Y0106002D01*
X0083871Y0106007D01*
X0083930Y0106016D01*
X0083989Y0106029D01*
X0084048Y0106045D01*
X0084105Y0106065D01*
X0084160Y0106088D01*
X0084215Y0106115D01*
X0084267Y0106144D01*
X0084318Y0106177D01*
X0084367Y0106213D01*
X0084413Y0106251D01*
X0084457Y0106293D01*
X0084499Y0106337D01*
X0084537Y0106383D01*
X0084573Y0106432D01*
X0084606Y0106483D01*
X0084635Y0106535D01*
X0084662Y0106590D01*
X0084685Y0106645D01*
X0084705Y0106702D01*
X0084721Y0106761D01*
X0084734Y0106820D01*
X0084743Y0106879D01*
X0084748Y0106940D01*
X0084750Y0107000D01*
X0084750Y0114000D01*
X0084748Y0114060D01*
X0084743Y0114121D01*
X0084734Y0114180D01*
X0084721Y0114239D01*
X0084705Y0114298D01*
X0084685Y0114355D01*
X0084662Y0114410D01*
X0084635Y0114465D01*
X0084606Y0114517D01*
X0084573Y0114568D01*
X0084537Y0114617D01*
X0084499Y0114663D01*
X0084457Y0114707D01*
X0084413Y0114749D01*
X0084367Y0114787D01*
X0084318Y0114823D01*
X0084267Y0114856D01*
X0084215Y0114885D01*
X0084160Y0114912D01*
X0084105Y0114935D01*
X0084048Y0114955D01*
X0083989Y0114971D01*
X0083930Y0114984D01*
X0083871Y0114993D01*
X0083810Y0114998D01*
X0083750Y0115000D01*
D13*
X0145250Y0224300D02*
X0185250Y0224300D01*
D14*
X0151093Y0192969D02*
X0151093Y0182732D01*
X0141250Y0182732D01*
X0141250Y0089031D01*
X0240069Y0089031D01*
X0240069Y0092575D01*
X0238888Y0092181D01*
X0240069Y0092575D02*
X0240069Y0189031D01*
X0239675Y0188244D01*
X0240069Y0189031D02*
X0240069Y0193362D01*
X0151093Y0192969D01*
X0114250Y0219000D02*
X0114250Y0227000D01*
X0215500Y0304750D02*
X0218503Y0304750D01*
X0220104Y0305501D02*
X0220855Y0304750D01*
X0222356Y0304750D01*
X0223106Y0305501D01*
X0223106Y0308503D01*
X0222356Y0309254D01*
X0220855Y0309254D01*
X0220104Y0308503D01*
X0220104Y0305501D01*
X0224708Y0305501D02*
X0225458Y0304750D01*
X0226960Y0304750D01*
X0227710Y0305501D01*
X0227710Y0307002D01*
X0226209Y0307002D01*
X0224708Y0308503D02*
X0224708Y0305501D01*
X0224708Y0308503D02*
X0225458Y0309254D01*
X0226960Y0309254D01*
X0227710Y0308503D01*
X0215500Y0309254D02*
X0215500Y0304750D01*
X0239675Y0188244D02*
X0238556Y0183527D01*
X0237549Y0178784D01*
X0236655Y0174019D01*
X0235874Y0169234D01*
X0235205Y0164432D01*
X0234651Y0159616D01*
X0234211Y0154788D01*
X0233885Y0149951D01*
X0233673Y0145107D01*
X0233576Y0140260D01*
X0233593Y0135411D01*
X0233726Y0130565D01*
X0233972Y0125723D01*
X0234334Y0120888D01*
X0234809Y0116063D01*
X0235398Y0111251D01*
X0236101Y0106454D01*
X0236917Y0101675D01*
X0237846Y0096916D01*
X0238887Y0092181D01*
X0235899Y0017254D02*
X0232896Y0017254D01*
X0234397Y0017254D02*
X0234397Y0012750D01*
X0231295Y0012750D02*
X0228292Y0012750D01*
X0228292Y0017254D01*
X0231295Y0017254D01*
X0229793Y0015002D02*
X0228292Y0015002D01*
X0226691Y0014251D02*
X0226691Y0013501D01*
X0225940Y0012750D01*
X0224439Y0012750D01*
X0223688Y0013501D01*
X0224439Y0015002D02*
X0225940Y0015002D01*
X0226691Y0014251D01*
X0226691Y0016503D02*
X0225940Y0017254D01*
X0224439Y0017254D01*
X0223688Y0016503D01*
X0223688Y0015753D01*
X0224439Y0015002D01*
X0222087Y0017254D02*
X0219084Y0017254D01*
X0219084Y0012750D01*
X0222087Y0012750D01*
X0220586Y0015002D02*
X0219084Y0015002D01*
X0217483Y0015002D02*
X0217483Y0016503D01*
X0216732Y0017254D01*
X0214480Y0017254D01*
X0214480Y0012750D01*
X0214480Y0014251D02*
X0216732Y0014251D01*
X0217483Y0015002D01*
X0215982Y0014251D02*
X0217483Y0012750D01*
D15*
X0086450Y0110500D03*
X0086450Y0120500D03*
X0086450Y0130500D03*
X0086450Y0140500D03*
X0058050Y0140500D03*
X0058050Y0130500D03*
X0058050Y0120500D03*
X0058050Y0110500D03*
D16*
X0042195Y0010476D02*
X0042195Y0007327D01*
X0156604Y0007327D01*
X0156604Y0010476D01*
X0042195Y0010476D01*
X0042195Y0034886D01*
X0156604Y0034886D01*
X0156604Y0010476D01*
X0154596Y0010476D02*
X0154596Y0007327D01*
X0209715Y0007327D01*
X0209715Y0010476D01*
X0154596Y0010476D01*
X0154596Y0034886D01*
X0209715Y0034886D01*
X0209715Y0010476D01*
X0215250Y0028000D02*
X0215250Y0045000D01*
X0223321Y0048500D02*
X0231250Y0048500D01*
X0239250Y0045000D02*
X0239250Y0028000D01*
X0231250Y0024500D02*
X0223203Y0024500D01*
X0220250Y0036500D02*
X0220252Y0036672D01*
X0220258Y0036843D01*
X0220269Y0037015D01*
X0220284Y0037186D01*
X0220303Y0037357D01*
X0220326Y0037527D01*
X0220353Y0037697D01*
X0220385Y0037866D01*
X0220420Y0038034D01*
X0220460Y0038201D01*
X0220504Y0038367D01*
X0220551Y0038532D01*
X0220603Y0038696D01*
X0220659Y0038858D01*
X0220719Y0039019D01*
X0220783Y0039179D01*
X0220851Y0039337D01*
X0220922Y0039493D01*
X0220997Y0039647D01*
X0221077Y0039800D01*
X0221159Y0039950D01*
X0221246Y0040099D01*
X0221336Y0040245D01*
X0221430Y0040389D01*
X0221527Y0040531D01*
X0221628Y0040670D01*
X0221732Y0040807D01*
X0221839Y0040941D01*
X0221950Y0041072D01*
X0222063Y0041201D01*
X0222180Y0041327D01*
X0222300Y0041450D01*
X0222423Y0041570D01*
X0222549Y0041687D01*
X0222678Y0041800D01*
X0222809Y0041911D01*
X0222943Y0042018D01*
X0223080Y0042122D01*
X0223219Y0042223D01*
X0223361Y0042320D01*
X0223505Y0042414D01*
X0223651Y0042504D01*
X0223800Y0042591D01*
X0223950Y0042673D01*
X0224103Y0042753D01*
X0224257Y0042828D01*
X0224413Y0042899D01*
X0224571Y0042967D01*
X0224731Y0043031D01*
X0224892Y0043091D01*
X0225054Y0043147D01*
X0225218Y0043199D01*
X0225383Y0043246D01*
X0225549Y0043290D01*
X0225716Y0043330D01*
X0225884Y0043365D01*
X0226053Y0043397D01*
X0226223Y0043424D01*
X0226393Y0043447D01*
X0226564Y0043466D01*
X0226735Y0043481D01*
X0226907Y0043492D01*
X0227078Y0043498D01*
X0227250Y0043500D01*
X0227422Y0043498D01*
X0227593Y0043492D01*
X0227765Y0043481D01*
X0227936Y0043466D01*
X0228107Y0043447D01*
X0228277Y0043424D01*
X0228447Y0043397D01*
X0228616Y0043365D01*
X0228784Y0043330D01*
X0228951Y0043290D01*
X0229117Y0043246D01*
X0229282Y0043199D01*
X0229446Y0043147D01*
X0229608Y0043091D01*
X0229769Y0043031D01*
X0229929Y0042967D01*
X0230087Y0042899D01*
X0230243Y0042828D01*
X0230397Y0042753D01*
X0230550Y0042673D01*
X0230700Y0042591D01*
X0230849Y0042504D01*
X0230995Y0042414D01*
X0231139Y0042320D01*
X0231281Y0042223D01*
X0231420Y0042122D01*
X0231557Y0042018D01*
X0231691Y0041911D01*
X0231822Y0041800D01*
X0231951Y0041687D01*
X0232077Y0041570D01*
X0232200Y0041450D01*
X0232320Y0041327D01*
X0232437Y0041201D01*
X0232550Y0041072D01*
X0232661Y0040941D01*
X0232768Y0040807D01*
X0232872Y0040670D01*
X0232973Y0040531D01*
X0233070Y0040389D01*
X0233164Y0040245D01*
X0233254Y0040099D01*
X0233341Y0039950D01*
X0233423Y0039800D01*
X0233503Y0039647D01*
X0233578Y0039493D01*
X0233649Y0039337D01*
X0233717Y0039179D01*
X0233781Y0039019D01*
X0233841Y0038858D01*
X0233897Y0038696D01*
X0233949Y0038532D01*
X0233996Y0038367D01*
X0234040Y0038201D01*
X0234080Y0038034D01*
X0234115Y0037866D01*
X0234147Y0037697D01*
X0234174Y0037527D01*
X0234197Y0037357D01*
X0234216Y0037186D01*
X0234231Y0037015D01*
X0234242Y0036843D01*
X0234248Y0036672D01*
X0234250Y0036500D01*
X0234248Y0036328D01*
X0234242Y0036157D01*
X0234231Y0035985D01*
X0234216Y0035814D01*
X0234197Y0035643D01*
X0234174Y0035473D01*
X0234147Y0035303D01*
X0234115Y0035134D01*
X0234080Y0034966D01*
X0234040Y0034799D01*
X0233996Y0034633D01*
X0233949Y0034468D01*
X0233897Y0034304D01*
X0233841Y0034142D01*
X0233781Y0033981D01*
X0233717Y0033821D01*
X0233649Y0033663D01*
X0233578Y0033507D01*
X0233503Y0033353D01*
X0233423Y0033200D01*
X0233341Y0033050D01*
X0233254Y0032901D01*
X0233164Y0032755D01*
X0233070Y0032611D01*
X0232973Y0032469D01*
X0232872Y0032330D01*
X0232768Y0032193D01*
X0232661Y0032059D01*
X0232550Y0031928D01*
X0232437Y0031799D01*
X0232320Y0031673D01*
X0232200Y0031550D01*
X0232077Y0031430D01*
X0231951Y0031313D01*
X0231822Y0031200D01*
X0231691Y0031089D01*
X0231557Y0030982D01*
X0231420Y0030878D01*
X0231281Y0030777D01*
X0231139Y0030680D01*
X0230995Y0030586D01*
X0230849Y0030496D01*
X0230700Y0030409D01*
X0230550Y0030327D01*
X0230397Y0030247D01*
X0230243Y0030172D01*
X0230087Y0030101D01*
X0229929Y0030033D01*
X0229769Y0029969D01*
X0229608Y0029909D01*
X0229446Y0029853D01*
X0229282Y0029801D01*
X0229117Y0029754D01*
X0228951Y0029710D01*
X0228784Y0029670D01*
X0228616Y0029635D01*
X0228447Y0029603D01*
X0228277Y0029576D01*
X0228107Y0029553D01*
X0227936Y0029534D01*
X0227765Y0029519D01*
X0227593Y0029508D01*
X0227422Y0029502D01*
X0227250Y0029500D01*
X0227078Y0029502D01*
X0226907Y0029508D01*
X0226735Y0029519D01*
X0226564Y0029534D01*
X0226393Y0029553D01*
X0226223Y0029576D01*
X0226053Y0029603D01*
X0225884Y0029635D01*
X0225716Y0029670D01*
X0225549Y0029710D01*
X0225383Y0029754D01*
X0225218Y0029801D01*
X0225054Y0029853D01*
X0224892Y0029909D01*
X0224731Y0029969D01*
X0224571Y0030033D01*
X0224413Y0030101D01*
X0224257Y0030172D01*
X0224103Y0030247D01*
X0223950Y0030327D01*
X0223800Y0030409D01*
X0223651Y0030496D01*
X0223505Y0030586D01*
X0223361Y0030680D01*
X0223219Y0030777D01*
X0223080Y0030878D01*
X0222943Y0030982D01*
X0222809Y0031089D01*
X0222678Y0031200D01*
X0222549Y0031313D01*
X0222423Y0031430D01*
X0222300Y0031550D01*
X0222180Y0031673D01*
X0222063Y0031799D01*
X0221950Y0031928D01*
X0221839Y0032059D01*
X0221732Y0032193D01*
X0221628Y0032330D01*
X0221527Y0032469D01*
X0221430Y0032611D01*
X0221336Y0032755D01*
X0221246Y0032901D01*
X0221159Y0033050D01*
X0221077Y0033200D01*
X0220997Y0033353D01*
X0220922Y0033507D01*
X0220851Y0033663D01*
X0220783Y0033821D01*
X0220719Y0033981D01*
X0220659Y0034142D01*
X0220603Y0034304D01*
X0220551Y0034468D01*
X0220504Y0034633D01*
X0220460Y0034799D01*
X0220420Y0034966D01*
X0220385Y0035134D01*
X0220353Y0035303D01*
X0220326Y0035473D01*
X0220303Y0035643D01*
X0220284Y0035814D01*
X0220269Y0035985D01*
X0220258Y0036157D01*
X0220252Y0036328D01*
X0220250Y0036500D01*
X0078187Y0118937D02*
X0066313Y0118937D01*
X0066313Y0132063D01*
X0078187Y0132063D01*
X0078187Y0118937D01*
X0073431Y0120776D02*
X0072644Y0121563D01*
X0073431Y0120776D02*
X0072644Y0119988D01*
X0107482Y0218276D02*
X0111813Y0218276D01*
X0107482Y0218276D02*
X0105907Y0219850D01*
X0105907Y0226150D01*
X0107482Y0227724D01*
X0111813Y0227724D01*
X0119687Y0227724D02*
X0125593Y0227724D01*
X0125593Y0218276D01*
X0119687Y0218276D01*
X0154596Y0286327D02*
X0154596Y0289476D01*
X0209715Y0289476D01*
X0209715Y0286327D01*
X0154596Y0286327D01*
X0156604Y0286327D02*
X0156604Y0289476D01*
X0042195Y0289476D01*
X0042195Y0313886D01*
X0156604Y0313886D01*
X0156604Y0289476D01*
X0154596Y0289476D02*
X0154596Y0313886D01*
X0209715Y0313886D01*
X0209715Y0289476D01*
X0215250Y0294000D02*
X0215250Y0277000D01*
X0223250Y0273500D02*
X0231179Y0273500D01*
X0239250Y0277000D02*
X0239250Y0294000D01*
X0231297Y0297500D02*
X0223250Y0297500D01*
X0220250Y0285500D02*
X0220252Y0285672D01*
X0220258Y0285843D01*
X0220269Y0286015D01*
X0220284Y0286186D01*
X0220303Y0286357D01*
X0220326Y0286527D01*
X0220353Y0286697D01*
X0220385Y0286866D01*
X0220420Y0287034D01*
X0220460Y0287201D01*
X0220504Y0287367D01*
X0220551Y0287532D01*
X0220603Y0287696D01*
X0220659Y0287858D01*
X0220719Y0288019D01*
X0220783Y0288179D01*
X0220851Y0288337D01*
X0220922Y0288493D01*
X0220997Y0288647D01*
X0221077Y0288800D01*
X0221159Y0288950D01*
X0221246Y0289099D01*
X0221336Y0289245D01*
X0221430Y0289389D01*
X0221527Y0289531D01*
X0221628Y0289670D01*
X0221732Y0289807D01*
X0221839Y0289941D01*
X0221950Y0290072D01*
X0222063Y0290201D01*
X0222180Y0290327D01*
X0222300Y0290450D01*
X0222423Y0290570D01*
X0222549Y0290687D01*
X0222678Y0290800D01*
X0222809Y0290911D01*
X0222943Y0291018D01*
X0223080Y0291122D01*
X0223219Y0291223D01*
X0223361Y0291320D01*
X0223505Y0291414D01*
X0223651Y0291504D01*
X0223800Y0291591D01*
X0223950Y0291673D01*
X0224103Y0291753D01*
X0224257Y0291828D01*
X0224413Y0291899D01*
X0224571Y0291967D01*
X0224731Y0292031D01*
X0224892Y0292091D01*
X0225054Y0292147D01*
X0225218Y0292199D01*
X0225383Y0292246D01*
X0225549Y0292290D01*
X0225716Y0292330D01*
X0225884Y0292365D01*
X0226053Y0292397D01*
X0226223Y0292424D01*
X0226393Y0292447D01*
X0226564Y0292466D01*
X0226735Y0292481D01*
X0226907Y0292492D01*
X0227078Y0292498D01*
X0227250Y0292500D01*
X0227422Y0292498D01*
X0227593Y0292492D01*
X0227765Y0292481D01*
X0227936Y0292466D01*
X0228107Y0292447D01*
X0228277Y0292424D01*
X0228447Y0292397D01*
X0228616Y0292365D01*
X0228784Y0292330D01*
X0228951Y0292290D01*
X0229117Y0292246D01*
X0229282Y0292199D01*
X0229446Y0292147D01*
X0229608Y0292091D01*
X0229769Y0292031D01*
X0229929Y0291967D01*
X0230087Y0291899D01*
X0230243Y0291828D01*
X0230397Y0291753D01*
X0230550Y0291673D01*
X0230700Y0291591D01*
X0230849Y0291504D01*
X0230995Y0291414D01*
X0231139Y0291320D01*
X0231281Y0291223D01*
X0231420Y0291122D01*
X0231557Y0291018D01*
X0231691Y0290911D01*
X0231822Y0290800D01*
X0231951Y0290687D01*
X0232077Y0290570D01*
X0232200Y0290450D01*
X0232320Y0290327D01*
X0232437Y0290201D01*
X0232550Y0290072D01*
X0232661Y0289941D01*
X0232768Y0289807D01*
X0232872Y0289670D01*
X0232973Y0289531D01*
X0233070Y0289389D01*
X0233164Y0289245D01*
X0233254Y0289099D01*
X0233341Y0288950D01*
X0233423Y0288800D01*
X0233503Y0288647D01*
X0233578Y0288493D01*
X0233649Y0288337D01*
X0233717Y0288179D01*
X0233781Y0288019D01*
X0233841Y0287858D01*
X0233897Y0287696D01*
X0233949Y0287532D01*
X0233996Y0287367D01*
X0234040Y0287201D01*
X0234080Y0287034D01*
X0234115Y0286866D01*
X0234147Y0286697D01*
X0234174Y0286527D01*
X0234197Y0286357D01*
X0234216Y0286186D01*
X0234231Y0286015D01*
X0234242Y0285843D01*
X0234248Y0285672D01*
X0234250Y0285500D01*
X0234248Y0285328D01*
X0234242Y0285157D01*
X0234231Y0284985D01*
X0234216Y0284814D01*
X0234197Y0284643D01*
X0234174Y0284473D01*
X0234147Y0284303D01*
X0234115Y0284134D01*
X0234080Y0283966D01*
X0234040Y0283799D01*
X0233996Y0283633D01*
X0233949Y0283468D01*
X0233897Y0283304D01*
X0233841Y0283142D01*
X0233781Y0282981D01*
X0233717Y0282821D01*
X0233649Y0282663D01*
X0233578Y0282507D01*
X0233503Y0282353D01*
X0233423Y0282200D01*
X0233341Y0282050D01*
X0233254Y0281901D01*
X0233164Y0281755D01*
X0233070Y0281611D01*
X0232973Y0281469D01*
X0232872Y0281330D01*
X0232768Y0281193D01*
X0232661Y0281059D01*
X0232550Y0280928D01*
X0232437Y0280799D01*
X0232320Y0280673D01*
X0232200Y0280550D01*
X0232077Y0280430D01*
X0231951Y0280313D01*
X0231822Y0280200D01*
X0231691Y0280089D01*
X0231557Y0279982D01*
X0231420Y0279878D01*
X0231281Y0279777D01*
X0231139Y0279680D01*
X0230995Y0279586D01*
X0230849Y0279496D01*
X0230700Y0279409D01*
X0230550Y0279327D01*
X0230397Y0279247D01*
X0230243Y0279172D01*
X0230087Y0279101D01*
X0229929Y0279033D01*
X0229769Y0278969D01*
X0229608Y0278909D01*
X0229446Y0278853D01*
X0229282Y0278801D01*
X0229117Y0278754D01*
X0228951Y0278710D01*
X0228784Y0278670D01*
X0228616Y0278635D01*
X0228447Y0278603D01*
X0228277Y0278576D01*
X0228107Y0278553D01*
X0227936Y0278534D01*
X0227765Y0278519D01*
X0227593Y0278508D01*
X0227422Y0278502D01*
X0227250Y0278500D01*
X0227078Y0278502D01*
X0226907Y0278508D01*
X0226735Y0278519D01*
X0226564Y0278534D01*
X0226393Y0278553D01*
X0226223Y0278576D01*
X0226053Y0278603D01*
X0225884Y0278635D01*
X0225716Y0278670D01*
X0225549Y0278710D01*
X0225383Y0278754D01*
X0225218Y0278801D01*
X0225054Y0278853D01*
X0224892Y0278909D01*
X0224731Y0278969D01*
X0224571Y0279033D01*
X0224413Y0279101D01*
X0224257Y0279172D01*
X0224103Y0279247D01*
X0223950Y0279327D01*
X0223800Y0279409D01*
X0223651Y0279496D01*
X0223505Y0279586D01*
X0223361Y0279680D01*
X0223219Y0279777D01*
X0223080Y0279878D01*
X0222943Y0279982D01*
X0222809Y0280089D01*
X0222678Y0280200D01*
X0222549Y0280313D01*
X0222423Y0280430D01*
X0222300Y0280550D01*
X0222180Y0280673D01*
X0222063Y0280799D01*
X0221950Y0280928D01*
X0221839Y0281059D01*
X0221732Y0281193D01*
X0221628Y0281330D01*
X0221527Y0281469D01*
X0221430Y0281611D01*
X0221336Y0281755D01*
X0221246Y0281901D01*
X0221159Y0282050D01*
X0221077Y0282200D01*
X0220997Y0282353D01*
X0220922Y0282507D01*
X0220851Y0282663D01*
X0220783Y0282821D01*
X0220719Y0282981D01*
X0220659Y0283142D01*
X0220603Y0283304D01*
X0220551Y0283468D01*
X0220504Y0283633D01*
X0220460Y0283799D01*
X0220420Y0283966D01*
X0220385Y0284134D01*
X0220353Y0284303D01*
X0220326Y0284473D01*
X0220303Y0284643D01*
X0220284Y0284814D01*
X0220269Y0284985D01*
X0220258Y0285157D01*
X0220252Y0285328D01*
X0220250Y0285500D01*
X0218687Y0230937D02*
X0224199Y0230937D01*
X0224199Y0223063D01*
X0218687Y0223063D01*
X0215931Y0224244D02*
X0215931Y0227000D01*
X0213569Y0224638D01*
X0213569Y0229362D01*
X0215931Y0227000D01*
X0215931Y0229756D01*
X0210813Y0230937D02*
X0205301Y0230937D01*
X0205301Y0223063D01*
X0210813Y0223063D01*
X0156604Y0286327D02*
X0042195Y0286327D01*
X0042195Y0289476D01*
D17*
X0094571Y0177177D02*
X0094119Y0172731D01*
X0093114Y0172439D01*
X0092147Y0172039D01*
X0091230Y0171534D01*
X0087767Y0174358D01*
X0085392Y0171983D01*
X0088216Y0168520D01*
X0087828Y0167838D01*
X0087498Y0167126D01*
X0092272Y0165148D01*
X0092604Y0165791D01*
X0093039Y0166370D01*
X0093565Y0166867D01*
X0094167Y0167269D01*
X0094828Y0167565D01*
X0095529Y0167745D01*
X0096250Y0167806D01*
X0097054Y0167731D01*
X0097830Y0167506D01*
X0098550Y0167141D01*
X0099189Y0166647D01*
X0099725Y0166043D01*
X0100139Y0165350D01*
X0100416Y0164591D01*
X0100546Y0163794D01*
X0100526Y0162987D01*
X0100354Y0162197D01*
X0100039Y0161454D01*
X0099590Y0160783D01*
X0099024Y0160207D01*
X0098361Y0159747D01*
X0097623Y0159419D01*
X0096837Y0159234D01*
X0096030Y0159200D01*
X0095231Y0159316D01*
X0094467Y0159580D01*
X0093767Y0159982D01*
X0093154Y0160507D01*
X0092649Y0161138D01*
X0092272Y0161852D01*
X0087498Y0159874D01*
X0087828Y0159162D01*
X0088216Y0158480D01*
X0085392Y0155017D01*
X0087767Y0152642D01*
X0091230Y0155466D01*
X0092147Y0154961D01*
X0093114Y0154561D01*
X0094119Y0154269D01*
X0094571Y0149823D01*
X0097929Y0149823D01*
X0098381Y0154269D01*
X0099386Y0154561D01*
X0100353Y0154961D01*
X0101270Y0155466D01*
X0104733Y0152642D01*
X0107108Y0155017D01*
X0104284Y0158480D01*
X0104789Y0159397D01*
X0105189Y0160364D01*
X0105481Y0161369D01*
X0109927Y0161821D01*
X0109927Y0165179D01*
X0105481Y0165631D01*
X0105189Y0166636D01*
X0104789Y0167603D01*
X0104284Y0168520D01*
X0107108Y0171983D01*
X0104733Y0174358D01*
X0101270Y0171534D01*
X0100353Y0172039D01*
X0099386Y0172439D01*
X0098381Y0172731D01*
X0097929Y0177177D01*
X0094571Y0177177D01*
X0094526Y0176739D02*
X0097974Y0176739D01*
X0098034Y0176150D02*
X0094466Y0176150D01*
X0094407Y0175561D02*
X0098093Y0175561D01*
X0098153Y0174972D02*
X0094347Y0174972D01*
X0094287Y0174383D02*
X0098213Y0174383D01*
X0098273Y0173794D02*
X0094227Y0173794D01*
X0094167Y0173205D02*
X0098333Y0173205D01*
X0098778Y0172616D02*
X0093722Y0172616D01*
X0092124Y0172027D02*
X0100376Y0172027D01*
X0101874Y0172027D02*
X0107065Y0172027D01*
X0106663Y0171438D02*
X0085837Y0171438D01*
X0085435Y0172027D02*
X0090626Y0172027D01*
X0089904Y0172616D02*
X0086024Y0172616D01*
X0086613Y0173205D02*
X0089181Y0173205D01*
X0088459Y0173794D02*
X0087202Y0173794D01*
X0086317Y0170848D02*
X0106183Y0170848D01*
X0105702Y0170259D02*
X0086798Y0170259D01*
X0087278Y0169670D02*
X0105222Y0169670D01*
X0104742Y0169081D02*
X0087758Y0169081D01*
X0088200Y0168492D02*
X0104300Y0168492D01*
X0104624Y0167903D02*
X0087865Y0167903D01*
X0087585Y0167314D02*
X0094268Y0167314D01*
X0093415Y0166725D02*
X0088465Y0166725D01*
X0089887Y0166136D02*
X0092863Y0166136D01*
X0092478Y0165547D02*
X0091309Y0165547D01*
X0091237Y0161423D02*
X0092498Y0161423D01*
X0092892Y0160834D02*
X0089815Y0160834D01*
X0088393Y0160245D02*
X0093459Y0160245D01*
X0094335Y0159656D02*
X0087599Y0159656D01*
X0087882Y0159067D02*
X0104607Y0159067D01*
X0104896Y0159656D02*
X0098157Y0159656D01*
X0099062Y0160245D02*
X0105140Y0160245D01*
X0105326Y0160834D02*
X0099625Y0160834D01*
X0100019Y0161423D02*
X0106017Y0161423D01*
X0104286Y0158478D02*
X0088214Y0158478D01*
X0087734Y0157889D02*
X0104766Y0157889D01*
X0105246Y0157300D02*
X0087254Y0157300D01*
X0086773Y0156711D02*
X0105727Y0156711D01*
X0106207Y0156122D02*
X0086293Y0156122D01*
X0085813Y0155533D02*
X0106687Y0155533D01*
X0107035Y0154944D02*
X0101910Y0154944D01*
X0102633Y0154355D02*
X0106446Y0154355D01*
X0105857Y0153766D02*
X0103355Y0153766D01*
X0104078Y0153177D02*
X0105268Y0153177D01*
X0100311Y0154944D02*
X0092189Y0154944D01*
X0090590Y0154944D02*
X0085465Y0154944D01*
X0086054Y0154355D02*
X0089867Y0154355D01*
X0089145Y0153766D02*
X0086643Y0153766D01*
X0087232Y0153177D02*
X0088422Y0153177D01*
X0093824Y0154355D02*
X0098676Y0154355D01*
X0098330Y0153766D02*
X0094170Y0153766D01*
X0094230Y0153177D02*
X0098270Y0153177D01*
X0098210Y0152588D02*
X0094290Y0152588D01*
X0094350Y0151998D02*
X0098150Y0151998D01*
X0098090Y0151409D02*
X0094410Y0151409D01*
X0094470Y0150820D02*
X0098030Y0150820D01*
X0097971Y0150231D02*
X0094529Y0150231D01*
X0100276Y0162013D02*
X0109927Y0162013D01*
X0109927Y0162602D02*
X0100442Y0162602D01*
X0100531Y0163191D02*
X0109927Y0163191D01*
X0109927Y0163780D02*
X0100546Y0163780D01*
X0100452Y0164369D02*
X0109927Y0164369D01*
X0109927Y0164958D02*
X0100282Y0164958D01*
X0100021Y0165547D02*
X0106309Y0165547D01*
X0105334Y0166136D02*
X0099643Y0166136D01*
X0099088Y0166725D02*
X0105153Y0166725D01*
X0104909Y0167314D02*
X0098208Y0167314D01*
X0102596Y0172616D02*
X0106476Y0172616D01*
X0105887Y0173205D02*
X0103319Y0173205D01*
X0104041Y0173794D02*
X0105298Y0173794D01*
M02*
