G75*
%MOIN*%
%OFA0B0*%
%FSLAX24Y24*%
%IPPOS*%
%LPD*%
%AMOC8*
5,1,8,0,0,1.08239X$1,22.5*
%
%ADD10R,0.0260X0.0800*%
%ADD11R,0.0217X0.0472*%
%ADD12R,0.1102X0.0787*%
%ADD13R,0.1575X0.0276*%
%ADD14R,0.1575X0.0472*%
%ADD15R,0.1560X0.1560*%
%ADD16R,0.0600X0.0300*%
%ADD17R,0.0433X0.0394*%
%ADD18R,0.0236X0.0866*%
%ADD19R,0.0394X0.0433*%
%ADD20R,0.0472X0.0217*%
%ADD21R,0.0630X0.0551*%
%ADD22R,0.0551X0.0394*%
%ADD23C,0.0283*%
%ADD24R,0.0480X0.0245*%
D10*
X006875Y018765D03*
X007375Y018765D03*
X007875Y018765D03*
X008375Y018765D03*
X008875Y018765D03*
X009375Y018765D03*
X009875Y018765D03*
X010375Y018765D03*
X010375Y021185D03*
X009875Y021185D03*
X009375Y021185D03*
X008875Y021185D03*
X008375Y021185D03*
X007875Y021185D03*
X007375Y021185D03*
X006875Y021185D03*
D11*
X012126Y021338D03*
X012500Y021338D03*
X012874Y021338D03*
X012874Y022362D03*
X012126Y022362D03*
D12*
X012731Y018322D03*
X004542Y018283D03*
X012771Y008244D03*
X004542Y007299D03*
D13*
X013479Y016669D03*
X013479Y017181D03*
X013479Y017653D03*
D14*
X013479Y016039D03*
X013479Y015055D03*
X013479Y014070D03*
X013479Y013086D03*
X013479Y012102D03*
X013479Y011118D03*
X013479Y010133D03*
X013479Y009149D03*
D15*
X022000Y015600D03*
D16*
X022875Y028475D03*
X022875Y029975D03*
X020875Y029975D03*
X020875Y028475D03*
D17*
X015250Y021185D03*
X015250Y020515D03*
X015250Y019935D03*
X015250Y019265D03*
X018375Y007810D03*
X018375Y007140D03*
X005335Y006225D03*
X004665Y006225D03*
D18*
X016000Y018414D03*
X016500Y018414D03*
X017000Y018414D03*
X017500Y018414D03*
X018000Y018414D03*
X018500Y018414D03*
X019000Y018414D03*
X019500Y018414D03*
X019500Y022036D03*
X019000Y022036D03*
X018500Y022036D03*
X018000Y022036D03*
X017500Y022036D03*
X017000Y022036D03*
X016500Y022036D03*
X016000Y022036D03*
D19*
X013875Y022060D03*
X013875Y021390D03*
X005710Y019600D03*
X005040Y019600D03*
X007500Y006810D03*
X007500Y006140D03*
D20*
X003863Y004476D03*
X003863Y004850D03*
X003863Y005224D03*
X004887Y005224D03*
X004887Y004476D03*
D21*
X019845Y025553D03*
X019845Y027324D03*
X023310Y027324D03*
X023310Y025553D03*
D22*
X018308Y010974D03*
X018308Y010226D03*
X017558Y009475D03*
X016692Y009101D03*
X016692Y009849D03*
X017442Y010600D03*
D23*
X006825Y006861D02*
X006675Y006861D01*
X006825Y006861D02*
X006825Y006789D01*
X006675Y006789D01*
X006675Y006861D01*
X006675Y006161D02*
X006825Y006161D01*
X006825Y006089D01*
X006675Y006089D01*
X006675Y006161D01*
D24*
X016109Y007476D03*
X016109Y007850D03*
X016109Y008224D03*
X017141Y008224D03*
X017141Y007850D03*
X017141Y007476D03*
M02*
