%
M48
M72
T01C0.0200
T02C0.0320
T03C0.0354
T04C0.0400
T05C0.0433
T06C0.0472
T07C0.0630
T08C0.0730
T09C0.1180
%
T01
X6325Y6420
X7525Y5620
X14565Y4580
X16165Y5620
X15525Y7860
X14965Y8260
X15045Y8900
X16165Y9460
X16485Y11140
X18165Y9540
X17765Y7940
X22405Y7860
X18005Y13620
X15285Y15300
X15605Y17060
X15125Y13300
X18725Y17460
X19925Y17940
X19845Y19060
X20725Y22500
X19525Y26420
X22885Y28980
X14725Y20820
X14325Y22420
X13685Y22660
X12485Y20020
X11525Y19220
X11845Y18420
X10405Y22020
X9685Y23220
X8405Y21940
X6565Y20020
X6245Y19620
X7925Y19460
X7925Y15460
X22885Y18980
T02
X18750Y16850
X18750Y15850
X18750Y14850
X18750Y13850
X18750Y12850
X18750Y11850
X14750Y11850
X14750Y12850
X14750Y13850
X14750Y14850
X14750Y15850
X14750Y16850
X5000Y21225
X4000Y21225
T03
X22500Y20725
X22500Y19725
X23500Y19725
X23500Y20725
X23500Y21725
X22500Y21725
T04
X22000Y24100
X21000Y24100
X20000Y24100
X19000Y24100
X18000Y24100
X17000Y24100
X16000Y24100
X15000Y24100
X13500Y24100
X12500Y24100
X11500Y24100
X10500Y24100
X9500Y24100
X8500Y24100
X7500Y24100
X6500Y24100
X5500Y24100
X4500Y24100
X8000Y5100
X9000Y5100
X10000Y5100
X11000Y5100
X12000Y5100
X13000Y5100
X14000Y5100
X15000Y5100
X17000Y5100
X18000Y5100
X19000Y5100
X20000Y5100
X21000Y5100
X22000Y5100
T05
X12298Y17417
X21971Y25750
X21971Y27128
T06
X5075Y1600
X6453Y1600
X7831Y1600
X9209Y1600
X10587Y1600
X11965Y1600
X13343Y1600
X14721Y1600
X16099Y1600
X17477Y1600
X18855Y1600
X20232Y1600
X17477Y29168
X16099Y29168
X14721Y29168
X13343Y29168
X11965Y29168
X10587Y29168
X9209Y29168
X7831Y29168
X6453Y29168
X5075Y29168
T07
X12298Y9110
T08
X22000Y13000
X22000Y18200
T09
X20242Y10650
X19061Y8800
X21424Y8800
M30
